<svg xmlns="http://www.w3.org/2000/svg" xmlns:xlink="http://www.w3.org/1999/xlink" width="124" height="124" viewBox="0 0 124 124">
  <defs>
    <clipPath id="clip-path">
      <rect id="Rect치ngulo_376102" data-name="Rect치ngulo 376102" width="93.887" height="88.855" fill="#fffad0"/>
    </clipPath>
  </defs>
  <g id="Grupo_1072904" data-name="Grupo 1072904" transform="translate(-385 -2057.535)">
    <g id="Grupo_159182" data-name="Grupo 159182" transform="translate(0 -0.465)">
      <g id="Grupo_1072901" data-name="Grupo 1072901">
        <path id="Uni칩n_12" data-name="Uni칩n 12" d="M8438,11700a62,62,0,1,1-62,62A62,62,0,0,1,8438,11700Z" transform="translate(-7991 -9642)" fill="#1b3f5e"/>
        <circle id="Elipse_4842" data-name="Elipse 4842" cx="48" cy="48" r="48" transform="translate(399 2072)" fill="#1b3f5e"/>
      </g>
    </g>
    <g id="Grupo_1071253" data-name="Grupo 1071253" transform="translate(399 2074.535)">
      <g id="Grupo_1071252" data-name="Grupo 1071252" transform="translate(1.057 1)" clip-path="url(#clip-path)">
        <path id="Trazado_815361" data-name="Trazado 815361" d="M2.791,35.468,5.66,49.485l9.508-10.667c-.174-.068-.315-.138-.464-.18-.367-.1-.741-.186-1.106-.3a1.85,1.85,0,0,1-1.4-2.429,34.2,34.2,0,0,1,3.375-8.679A36.068,36.068,0,0,1,31,12.383a35.7,35.7,0,0,1,10.444-3.3A33.007,33.007,0,0,1,49.311,8.7a36.709,36.709,0,0,1,12.335,3.1,35.658,35.658,0,0,1,16.519,15.14c.368.633.706,1.285,1.023,1.945s.574,1.312.891,2.042l5.552-2.006c-.118-.312-.213-.6-.331-.873A41.45,41.45,0,0,0,56.871,3.906,44.673,44.673,0,0,0,45.309,2.8,40.017,40.017,0,0,0,29.585,6.5a1.544,1.544,0,0,1-1.366.124,1.335,1.335,0,0,1-.8-1.2,1.223,1.223,0,0,1,.761-1.209c.873-.4,1.751-.8,2.647-1.147A43.858,43.858,0,0,1,65.833,4.267,43.47,43.47,0,0,1,80.748,15.631a44.724,44.724,0,0,1,7.329,12.111c.069.169.133.341.193.514a2.177,2.177,0,0,1-1.331,3.015c-2.164.834-4.348,1.62-6.537,2.39a2.153,2.153,0,0,1-2.638-1.344c-.366-.772-.7-1.561-1.064-2.333A32.336,32.336,0,0,0,62.962,15.468a31.537,31.537,0,0,0-13.913-4.024A32.139,32.139,0,0,0,36.7,12.949,32.567,32.567,0,0,0,21.815,22.86,34.4,34.4,0,0,0,15.6,33.8c-.2.577-.357,1.168-.552,1.746-.089.263-.031.4.243.467.4.1.8.209,1.191.333A2.229,2.229,0,0,1,17.606,40.1c-1.092,1.3-2.221,2.568-3.344,3.841Q10.8,47.865,7.328,51.777a2.292,2.292,0,0,1-3.226.486,2.418,2.418,0,0,1-.938-1.576Q1.608,43.1.063,35.517a2.258,2.258,0,0,1,1.959-2.9,4.792,4.792,0,0,1,1.566.252c.338.086.491.05.59-.312A44.963,44.963,0,0,1,11.248,18a39.91,39.91,0,0,1,8.428-8.575c.844-.633,1.69-1.265,2.566-1.851a1.335,1.335,0,1,1,1.5,2.207c-.876.667-1.776,1.3-2.643,1.979A40.639,40.639,0,0,0,6.884,32.843c-.155.527-.278,1.064-.436,1.59A1.806,1.806,0,0,1,4.171,35.8c-.417-.085-.828-.2-1.38-.336" transform="translate(0 0)" fill="#fffad0"/>
        <path id="Trazado_815362" data-name="Trazado 815362" d="M23.126,119.823c-.434.155-.847.3-1.259.45-1.321.478-2.639.963-3.962,1.433-.238.085-.364.144-.24.444a42.042,42.042,0,0,0,13.226,17.334,41.5,41.5,0,0,0,15.491,7.364,42.638,42.638,0,0,0,14.49.878,40.814,40.814,0,0,0,26.807-13.95,40.287,40.287,0,0,0,8.954-17.09,5.131,5.131,0,0,1,.243-.738,1.741,1.741,0,0,1,2.1-1.043c.452.112.9.235,1.439.375l-2.874-14.027-9.521,10.708c.415.118.8.21,1.164.336a5.089,5.089,0,0,1,1.137.457,1.5,1.5,0,0,1,.735,1.733c-.532,1.814-1.027,3.648-1.711,5.407a33.5,33.5,0,0,1-8.151,12.059,35.629,35.629,0,0,1-18.463,9.533,34.441,34.441,0,0,1-9.177.543A36.208,36.208,0,0,1,38.727,137.5a1.429,1.429,0,0,1-.905-1.412,1.32,1.32,0,0,1,1.936-1.054c1.575.74,3.117,1.558,4.731,2.2a30.933,30.933,0,0,0,9.958,2.072,32.325,32.325,0,0,0,13.587-2.049,32.974,32.974,0,0,0,20.036-21.806c.193-.625.184-.624-.433-.79-.368-.1-.739-.2-1.1-.324a2.208,2.208,0,0,1-1.006-3.625c1.031-1.231,2.091-2.438,3.154-3.641,2.38-2.693,4.777-5.372,7.153-8.068a2.308,2.308,0,0,1,2.466-.921,2.408,2.408,0,0,1,1.743,2.043q1.319,6.511,2.657,13.018c.168.822.358,1.643.474,2.473a2.222,2.222,0,0,1-2.626,2.474c-.448-.085-.888-.21-1.389-.33-.1.3-.2.594-.285.895A44.481,44.481,0,0,1,65.636,149.7a41.455,41.455,0,0,1-10.793,1.03A44.777,44.777,0,0,1,35,145.274a43.342,43.342,0,0,1-17.46-17.284,57.5,57.5,0,0,1-2.516-5.287c-.682-1.59-.124-2.734,1.5-3.336q2.833-1.053,5.677-2.077c1.716-.618,2.768-.131,3.463,1.564a28.412,28.412,0,0,0,4.2,7.387c1.337,1.627,2.835,3.121,4.264,4.672.124.135.272.246.4.375a1.329,1.329,0,1,1-1.772,1.973,32.209,32.209,0,0,1-4.823-5.081,34.97,34.97,0,0,1-4.556-7.765c-.066-.169-.14-.335-.248-.593" transform="translate(-9.314 -61.91)" fill="#fffad0"/>
        <path id="Trazado_815363" data-name="Trazado 815363" d="M77.285,79.034c0-6.944-.013-13.889.008-20.833a3.133,3.133,0,0,1,3.271-3.38c4.45-.034,8.906-.094,13.351.082a15.246,15.246,0,0,1,10.368,4.584c1.89,1.873,3.784,3.744,5.6,5.687a15.994,15.994,0,0,1,4.355,11.3q.006,3.6.011,7.2c0,.906-.291,1.383-.948,1.6a1.322,1.322,0,0,1-1.758-1.1,12.739,12.739,0,0,1-.052-1.419c-.015-2.34.049-4.682-.054-7.018a4.661,4.661,0,0,0-4.359-4.326c-1.725-.085-3.456-.034-5.184-.057a8.139,8.139,0,0,1-1.642-.1,3.281,3.281,0,0,1-2.562-3.316c-.013-1.866.013-3.732-.011-5.6A4.825,4.825,0,0,0,94,57.71a4.21,4.21,0,0,0-1-.092q-6.035-.012-12.071-.008c-.879,0-.912.026-.915.9Q80,63.578,80,68.649q0,15.28,0,30.561c0,1.228,0,1.23,1.226,1.23H110.6c.846,0,.9-.061.9-.916q-.006-4.29-.007-8.58a5.772,5.772,0,0,1,.038-.686,1.256,1.256,0,0,1,1.171-1.147,1.284,1.284,0,0,1,1.426.959,3.571,3.571,0,0,1,.091.862c.007,2.937.028,5.874,0,8.81a3.243,3.243,0,0,1-3.585,3.5q-6.241.011-12.483,0l-17.21,0a3.659,3.659,0,0,1-2.486-.758,3.045,3.045,0,0,1-1.156-2.256c-.041-.9-.029-1.8-.029-2.706q0-9.246,0-18.493h.018m32.174-9.912.086-.09a20.322,20.322,0,0,0-1.395-1.779c-1.95-2.006-3.929-3.983-5.914-5.953a17.253,17.253,0,0,0-1.47-1.24,10.32,10.32,0,0,0-.875-.554c.046.2.055.275.079.342a10.278,10.278,0,0,1,.484,3.611c-.024,1.5.013,3,.007,4.493,0,.446.141.658.629.654,1.635-.013,3.271.02,4.907.011a10.327,10.327,0,0,1,3.117.437,3.266,3.266,0,0,0,.345.068" transform="translate(-48.812 -34.609)" fill="#fffad0"/>
        <path id="Trazado_815364" data-name="Trazado 815364" d="M99.189,110.58a4.9,4.9,0,0,1,.825.523c.535.477,1.033,1,1.528,1.518.224.235.362.226.585-.015.538-.584,1.091-1.157,1.674-1.695a1.22,1.22,0,0,1,1.451-.173,1.246,1.246,0,0,1,.737,1.3,2.231,2.231,0,0,1-.5.946A18.408,18.408,0,0,1,104,114.481c-.249.226-.237.365-.013.586.576.569,1.167,1.128,1.691,1.742a1.283,1.283,0,0,1-.578,2.081,1.238,1.238,0,0,1-1.32-.274c-.544-.492-1.074-1-1.582-1.528-.268-.28-.442-.322-.727-.007a19.692,19.692,0,0,1-1.5,1.481,1.423,1.423,0,0,1-1.956.055,1.3,1.3,0,0,1-.055-1.889c.509-.548,1.062-1.055,1.607-1.568.253-.239.334-.4.014-.69-.59-.53-1.141-1.106-1.678-1.69a1.145,1.145,0,0,1-.179-1.4,1.514,1.514,0,0,1,1.461-.8" transform="translate(-61.638 -69.856)" fill="#fffad0"/>
        <path id="Trazado_815365" data-name="Trazado 815365" d="M99.262,88.424a2.593,2.593,0,0,1-.72-.35c-1.141-1.1-2.271-2.221-3.373-3.364a1.169,1.169,0,0,1-.149-1.449,1.2,1.2,0,0,1,1.28-.7,1.99,1.99,0,0,1,.95.479c.611.553,1.184,1.15,1.738,1.761.25.276.39.271.644.01q1.633-1.673,3.3-3.309a1.341,1.341,0,0,1,1.783-.284,1.289,1.289,0,0,1,.388,1.838,2.7,2.7,0,0,1-.349.423q-2.136,2.144-4.279,4.279a1.889,1.889,0,0,1-1.217.663" transform="translate(-59.912 -51.168)" fill="#fffad0"/>
        <path id="Trazado_815366" data-name="Trazado 815366" d="M99.341,150.4a4.9,4.9,0,0,1-.946-.556q-1.568-1.511-3.082-3.078a1.264,1.264,0,0,1-.071-1.88,1.324,1.324,0,0,1,1.96-.01c.613.575,1.224,1.156,1.783,1.781.293.327.442.226.684-.019,1.062-1.078,2.136-2.144,3.208-3.212a1.422,1.422,0,0,1,1.434-.5,1.328,1.328,0,0,1,.767,2.1,2.338,2.338,0,0,1-.239.277c-1.479,1.482-2.951,2.973-4.449,4.435a6.11,6.11,0,0,1-1.051.668" transform="translate(-59.925 -90.261)" fill="#fffad0"/>
        <path id="Trazado_815367" data-name="Trazado 815367" d="M137.066,150.558c-1.421,0-2.843.005-4.265,0a1.291,1.291,0,0,1-1.3-.9,1.191,1.191,0,0,1,.348-1.415,1.893,1.893,0,0,1,1.076-.408c2.781-.034,5.564-.034,8.346-.015a1.358,1.358,0,0,1,1.463,1.374,1.343,1.343,0,0,1-1.5,1.37c-1.391.014-2.782,0-4.173,0Z" transform="translate(-83.015 -93.371)" fill="#fffad0"/>
        <path id="Trazado_815368" data-name="Trazado 815368" d="M137.142,120.994c-1.269,0-2.539.01-3.808-.006a3.42,3.42,0,0,1-1.079-.146,1.343,1.343,0,0,1,.257-2.548,4.123,4.123,0,0,1,.821-.062q3.762-.006,7.524,0a1.68,1.68,0,0,1,1.7.752,1.274,1.274,0,0,1-1.013,1.96c-1.466.056-2.935.014-4.4.014v.037" transform="translate(-83.039 -74.691)" fill="#fffad0"/>
      </g>
    </g>
  </g>
</svg>
