<svg xmlns="http://www.w3.org/2000/svg" xmlns:xlink="http://www.w3.org/1999/xlink" width="124" height="124" viewBox="0 0 124 124">
  <defs>
    <clipPath id="clip-path">
      <rect id="Rect치ngulo_376101" data-name="Rect치ngulo 376101" width="76.585" height="76.93" fill="#fffad0"/>
    </clipPath>
  </defs>
  <g id="Grupo_1072900" data-name="Grupo 1072900" transform="translate(-1088.001 -2058)">
    <g id="Grupo_159184" data-name="Grupo 159184" transform="translate(703.001)">
      <path id="Uni칩n_12" data-name="Uni칩n 12" d="M8438,11700a62,62,0,1,1-62,62A62,62,0,0,1,8438,11700Z" transform="translate(-7991 -9642)" fill="#1b3f5e"/>
      <circle id="Elipse_4842" data-name="Elipse 4842" cx="48" cy="48" r="48" transform="translate(399 2072)" fill="#1b3f5e"/>
    </g>
    <g id="Grupo_1071251" data-name="Grupo 1071251" transform="translate(1111.708 2081.535)">
      <g id="Grupo_1072899" data-name="Grupo 1072899">
        <g id="Grupo_1071250" data-name="Grupo 1071250" clip-path="url(#clip-path)">
          <path id="Trazado_815352" data-name="Trazado 815352" d="M66.042,65.386v9.689c0,1.36-.489,1.856-1.833,1.856H12.3c-1.231,0-1.763-.532-1.763-1.764q0-20.722.009-41.444a.778.778,0,0,0-.424-.772,3.619,3.619,0,0,1-1.061-1.007c-2.662-4.009-5.3-8.035-7.938-12.057-.28-.426-.565-.849-.839-1.28a1.257,1.257,0,0,1-.1-1.437,1.379,1.379,0,0,1,1.33-.672c1.209.067,2.417.142,3.626.215l5.4.324v-.494q0-7.377,0-14.754C10.537.521,11.053,0,12.323,0q20.73,0,41.461,0a1.908,1.908,0,0,1,1.435.6q4.971,5,9.965,9.985a2.749,2.749,0,0,1,.872,2.123c-.022,10.693-.012,21.385-.024,32.078a.775.775,0,0,0,.454.776q4.493,2.577,8.97,5.182c.143.083.286.166.423.258a1.227,1.227,0,0,1,.492,1.805c-.806,1.491-1.638,2.968-2.483,4.437-1.306,2.27-2.634,4.527-3.947,6.793-.3.512-.556,1.046-.86,1.553a1.22,1.22,0,0,1-1.762.52c-.415-.206-.809-.454-1.279-.72M13.2,17.219c1.464.09,2.892.158,4.316.277a2.8,2.8,0,0,1,1.128.342q7.826,4.481,15.633,9,9.13,5.278,18.249,10.575,4.783,2.777,9.553,5.577c.422.246.846.488,1.319.761V25.408q0-6.3-.007-12.6a.849.849,0,0,0-.172-.551Q58.624,7.611,54.012,2.98a1.008,1.008,0,0,0-.791-.328q-19.78.011-39.56.006H13.2Zm-.008,57.028H63.377A1.386,1.386,0,0,0,63.4,74.1c0-3.329,0-6.659-.008-9.988a.56.56,0,0,0-.244-.4c-1.284-.748-2.585-1.466-3.871-2.211q-6.253-3.617-12.5-7.246-8.947-5.183-17.895-10.365-7.622-4.426-15.231-8.874c-.135-.078-.276-.146-.454-.239Zm-1.01-43.079c.192.114.378.227.567.335,1.362.778,2.73,1.545,4.086,2.332q7.818,4.536,15.632,9.081c3.583,2.077,7.175,4.136,10.76,6.21q5.573,3.224,11.139,6.461c.18.1.3.187.453-.081q2.861-4.985,5.754-9.951c.155-.267.133-.388-.143-.543Q57.7,43.473,54.982,41.9,42.839,34.871,30.7,27.829q-6-3.481-11.979-6.987c-.159-.093-.328-.168-.483-.247L12.183,31.167M62.994,46.521,56.953,57.073l10.51,6.1,6.058-10.532L62.994,46.521M15.6,20,3.8,19.3l6.51,9.892L15.6,20" transform="translate(0)" fill="#fffad0"/>
          <path id="Trazado_815353" data-name="Trazado 815353" d="M80.945,32.014q7.7,0,15.4,0a2.894,2.894,0,0,1,.811.107,1.267,1.267,0,0,1-.043,2.44,2.811,2.811,0,0,1-.732.1q-15.5.007-31,0A1.571,1.571,0,0,1,64.2,34.28a1.2,1.2,0,0,1-.415-1.188,1.262,1.262,0,0,1,.951-.987,3.109,3.109,0,0,1,.774-.087q7.719-.007,15.437,0" transform="translate(-42.611 -21.399)" fill="#fffad0"/>
          <path id="Trazado_815354" data-name="Trazado 815354" d="M80.9,50.667q-7.739,0-15.479,0a1.635,1.635,0,0,1-1.225-.384,1.2,1.2,0,0,1-.421-1.186,1.274,1.274,0,0,1,.946-.994,2.625,2.625,0,0,1,.692-.087q15.5-.006,31,0c.963,0,1.643.551,1.642,1.321s-.67,1.331-1.633,1.331q-7.76,0-15.52,0" transform="translate(-42.609 -32.094)" fill="#fffad0"/>
          <path id="Trazado_815355" data-name="Trazado 815355" d="M107.542,64.013q5.076,0,10.152,0a2.717,2.717,0,0,1,.77.106,1.267,1.267,0,0,1-.039,2.441,2.808,2.808,0,0,1-.731.1q-10.214.007-20.427,0a1.581,1.581,0,0,1-1.182-.385,1.2,1.2,0,0,1-.416-1.188,1.262,1.262,0,0,1,.949-.989,3.09,3.09,0,0,1,.774-.087q5.076-.008,10.152,0" transform="translate(-63.925 -42.788)" fill="#fffad0"/>
          <path id="Trazado_815356" data-name="Trazado 815356" d="M127.476,80.013h6.23c1,0,1.683.546,1.676,1.327s-.679,1.325-1.678,1.326H121.2a1.608,1.608,0,0,1-1.213-.414,1.256,1.256,0,0,1,.525-2.14,2.8,2.8,0,0,1,.773-.1c2.063-.008,4.125,0,6.188,0" transform="translate(-79.934 -53.482)" fill="#fffad0"/>
          <path id="Trazado_815357" data-name="Trazado 815357" d="M80.847,194.662c-5.174,0-10.347,0-15.521-.011a2.265,2.265,0,0,1-1.054-.265,1.156,1.156,0,0,1-.516-1.327,1.372,1.372,0,0,1,1.2-1.04,3.3,3.3,0,0,1,.371-.009q15.562,0,31.124,0a1.5,1.5,0,0,1,1.261.484,1.2,1.2,0,0,1,.206,1.313,1.4,1.4,0,0,1-1.179.851,3,3,0,0,1-.412.008H80.847" transform="translate(-42.588 -128.342)" fill="#fffad0"/>
          <path id="Trazado_815358" data-name="Trazado 815358" d="M78.264,176.011q6.48,0,12.96,0a1.443,1.443,0,0,1,1.215.493,1.2,1.2,0,0,1,.194,1.315,1.412,1.412,0,0,1-1.187.842,1.806,1.806,0,0,1-.247.005q-12.96,0-25.921-.011a2.105,2.105,0,0,1-1.009-.272,1.164,1.164,0,0,1-.5-1.333,1.355,1.355,0,0,1,1.207-1.028,4.492,4.492,0,0,1,.454-.008H78.264" transform="translate(-42.593 -117.649)" fill="#fffad0"/>
          <path id="Trazado_815359" data-name="Trazado 815359" d="M72.952,160.011q3.858,0,7.716,0a1.425,1.425,0,0,1,1.209.5,1.2,1.2,0,0,1,.178,1.317,1.408,1.408,0,0,1-1.195.828,2.323,2.323,0,0,1-.288,0c-5.089,0-10.178,0-15.267-.011a2.171,2.171,0,0,1-1.014-.257,1.175,1.175,0,0,1-.519-1.363,1.356,1.356,0,0,1,1.218-1.015c.136-.013.275-.007.412-.007h7.551" transform="translate(-42.594 -106.955)" fill="#fffad0"/>
          <path id="Trazado_815360" data-name="Trazado 815360" d="M70.28,146.661c-1.677,0-3.355.014-5.032-.012a2.057,2.057,0,0,1-.97-.264,1.177,1.177,0,0,1-.5-1.369,1.351,1.351,0,0,1,1.228-1c.219-.018.44-.007.66-.007q4.868,0,9.735,0a1.385,1.385,0,0,1,1.424.91,1.36,1.36,0,0,1-1.385,1.74c-1.719.011-3.437,0-5.156,0" transform="translate(-42.594 -96.257)" fill="#fffad0"/>
        </g>
      </g>
    </g>
  </g>
</svg>
