<svg xmlns="http://www.w3.org/2000/svg" xmlns:xlink="http://www.w3.org/1999/xlink" width="124" height="124" viewBox="0 0 124 124">
  <defs>
    <clipPath id="clip-path">
      <rect id="Rect치ngulo_376097" data-name="Rect치ngulo 376097" width="72.789" height="72.606" fill="#fffad0"/>
    </clipPath>
  </defs>
  <g id="Grupo_1072905" data-name="Grupo 1072905" transform="translate(-737.001 -2058)">
    <g id="Grupo_159183" data-name="Grupo 159183" transform="translate(352.001)">
      <g id="Grupo_1072896" data-name="Grupo 1072896">
        <g id="Grupo_1072902" data-name="Grupo 1072902">
          <path id="Uni칩n_12" data-name="Uni칩n 12" d="M8438,11700a62,62,0,1,1-62,62A62,62,0,0,1,8438,11700Z" transform="translate(-7991 -9642)" fill="#1b3f5e"/>
          <circle id="Elipse_4842" data-name="Elipse 4842" cx="48" cy="48" r="48" transform="translate(399 2072)" fill="#1b3f5e"/>
        </g>
      </g>
    </g>
    <g id="Grupo_1071242" data-name="Grupo 1071242" transform="translate(761.126 2080.535)">
      <g id="Grupo_1071241" data-name="Grupo 1071241" clip-path="url(#clip-path)">
        <path id="Trazado_815330" data-name="Trazado 815330" d="M65.508,32.549A34.41,34.41,0,0,1,63.758,43.2,30.648,30.648,0,0,1,59.886,50.9a.378.378,0,0,0,.063.589q3.511,3.466,7.008,6.947c1.3,1.294,2.587,2.6,3.885,3.9a6.2,6.2,0,0,1,1.919,3.813A5.917,5.917,0,0,1,63.434,71.5a5.21,5.21,0,0,1-.7-.6Q57.17,65.341,51.613,59.778c-.194-.194-.326-.23-.564-.066a32.722,32.722,0,0,1-21.162,5.472A32.816,32.816,0,0,1,1.99,43.84a31.349,31.349,0,0,1-1.86-8.3,32.371,32.371,0,0,1,5.242-20.75,31.085,31.085,0,0,1,7.45-8.019A32.368,32.368,0,0,1,26.183.71,31.726,31.726,0,0,1,35.228.1,32.081,32.081,0,0,1,46.106,2.888,32.333,32.333,0,0,1,64.693,25.57a31.781,31.781,0,0,1,.815,6.978M32.919,62.917A30.21,30.21,0,1,0,2.528,34.283,30.273,30.273,0,0,0,32.919,62.917M53.254,58.09c.076.082.123.135.172.184q5.365,5.354,10.731,10.707a3.753,3.753,0,0,0,3.011,1.161,3.451,3.451,0,0,0,3.159-2.83,3.727,3.727,0,0,0-1.21-3.387q-5.357-5.312-10.69-10.648a1.74,1.74,0,0,0-.189-.139,26.372,26.372,0,0,1-4.983,4.953" transform="translate(0 0)" fill="#fffad0"/>
        <path id="Trazado_815331" data-name="Trazado 815331" d="M73.082,45.1A27.853,27.853,0,1,1,45.058,17.433,27.721,27.721,0,0,1,73.082,45.1m-28.8-10.723c-.108-.121-.143-.166-.183-.206-.57-.568-1.138-1.138-1.712-1.7a2.308,2.308,0,0,1-.7-2.293,2.364,2.364,0,0,1,2.352-1.889c1.742-.019,3.484-.007,5.226-.007q2.56,0,5.12,0c.546,0,.544,0,.544-.533,0-.272-.008-.545.017-.814a1.184,1.184,0,0,1,1.075-1.053,1.168,1.168,0,0,1,1.262.815,2.291,2.291,0,0,1,.077.628q.006,8.719,0,17.438v.4h13.27a.608.608,0,0,0,.036-.124c0-.118,0-.236,0-.354a23.461,23.461,0,0,0-1.2-7.27A25.186,25.186,0,0,0,55.48,21.95a23.055,23.055,0,0,0-8.437-2.04,28.423,28.423,0,0,0-6.619.327A25.352,25.352,0,0,0,20.133,49.459a24.879,24.879,0,0,0,4.746,10.977c.166.225.277.223.466.026A2.471,2.471,0,0,1,27.2,59.7c.569,0,1.138,0,1.707,0,1.292,0,2.584-.013,3.875-.005.26,0,.365-.069.344-.34s0-.519.009-.779c.01-.507-.009-1.018.035-1.523a2.351,2.351,0,0,1,2.367-2.188c1.9-.017,3.792-.015,5.689,0,.308,0,.379-.1.372-.387-.015-.59,0-1.181.01-1.772a2.9,2.9,0,0,1,.424-1.621,2.508,2.508,0,0,1,2.266-1.079l5.12,0h.662c0-.236,0-.411,0-.586.008-.673-.013-1.348.032-2.019a2.284,2.284,0,0,1,2.033-2.165,20.568,20.568,0,0,1,2.378-.054c.325,0,.425-.1.421-.421-.018-1.3-.008-2.6-.011-3.9,0-.541.083-.505-.523-.506q-4.889-.005-9.777,0c-.213,0-.428.006-.64-.011a2.392,2.392,0,0,1-2.146-1.452,2.246,2.246,0,0,1,.386-2.51,11.472,11.472,0,0,1,.838-.867c.4-.384.809-.755,1.22-1.137m8.244,13.275c0,.731,0,1.415,0,2.1a2.539,2.539,0,0,1-2.738,2.717q-2.7,0-5.4,0h-.392c0,.794,0,1.537,0,2.28a2.416,2.416,0,0,1-2.537,2.541q-2.773,0-5.546,0H35.5c0,.766.016,1.5-.007,2.228a3.445,3.445,0,0,1-.157,1.04,2.449,2.449,0,0,1-2.474,1.551q-2.755.009-5.51,0c-.265,0-.329.085-.356.34-.051.482.264.733.55,1.01A25.467,25.467,0,0,0,47.8,70.446a24.244,24.244,0,0,0,9.243-2.792A26.365,26.365,0,0,0,65.4,60.672a24.47,24.47,0,0,0,4.75-10.253c.192-.9.306-1.826.459-2.767Zm-8.521-17c.114.143.158.209.213.264.529.541,1.062,1.078,1.591,1.619a2.368,2.368,0,0,1,0,3.576c-.52.533-1.053,1.055-1.577,1.583a2.816,2.816,0,0,0-.183.231c.1.009.147.017.191.017,3.435,0,6.869-.007,10.3,0,.322,0,.4-.1.393-.4q-.02-3.223,0-6.446c0-.3-.063-.409-.387-.409-1.788,0-3.576-.026-5.364-.033-1.691-.007-3.382,0-5.173,0" transform="translate(-12.434 -12.473)" fill="#fffad0"/>
      </g>
    </g>
  </g>
</svg>
