<svg xmlns="http://www.w3.org/2000/svg" xmlns:xlink="http://www.w3.org/1999/xlink" width="189" height="189" viewBox="0 0 189 189">
  <defs>
    <clipPath id="clip-path">
      <rect id="Rectángulo_376992" data-name="Rectángulo 376992" width="87.052" height="125.12" fill="none"/>
    </clipPath>
  </defs>
  <g id="Grupo_1072907" data-name="Grupo 1072907" transform="translate(-706 -557)">
    <g id="Grupo_161724" data-name="Grupo 161724" transform="translate(-44 -354)">
      <g id="Grupo_161158" data-name="Grupo 161158" transform="translate(750 911)">
        <circle id="Elipse_1142" data-name="Elipse 1142" cx="94.5" cy="94.5" r="94.5" fill="#3b5620"/>
      </g>
    </g>
    <g id="Grupo_1072584" data-name="Grupo 1072584" transform="translate(753.474 584.667)">
      <g id="Grupo_1072583" data-name="Grupo 1072583" clip-path="url(#clip-path)">
        <path id="Trazado_818429" data-name="Trazado 818429" d="M.022,62.365Q.022,35.03,0,7.695A7.486,7.486,0,0,1,2.437,1.859,6.921,6.921,0,0,1,6.741.069C7.374.02,8.01,0,8.644,0Q43.3,0,77.954,0a23.514,23.514,0,0,1,3.414.2,7.162,7.162,0,0,1,5.444,5.426,22.312,22.312,0,0,1,.236,3.7q0,53.564,0,107.127a13.756,13.756,0,0,1-.273,3.223,7.122,7.122,0,0,1-2.307,3.693c-1.859,1.672-4.086,1.748-6.359,1.749q-17.972.005-35.945,0-17.174-.006-34.347-.009a7.852,7.852,0,0,1-4.473-1.153,6.994,6.994,0,0,1-3.317-6.179q-.014-27.7,0-55.408Zm3.835.2q0,27.366,0,54.732a9.032,9.032,0,0,0,.095,1.347A3.138,3.138,0,0,0,6.87,121.25c.469-.031.942,0,1.413,0l70.97,0a4.19,4.19,0,0,0,1.418-.045A3.627,3.627,0,0,0,83,118.9a7.534,7.534,0,0,0,.2-2.425q0-54.364.014-108.727A4.779,4.779,0,0,0,82.882,5.9,2.958,2.958,0,0,0,80.554,4.02a13.254,13.254,0,0,0-2.186-.147q-35.208.013-70.417.015c-.349,0-.695-.187-1.01-.094-1.788.528-3.1,1.489-3.1,3.85q.031,27.459.013,54.917" transform="translate(0)" fill="#3f3f3f"/>
        <path id="Trazado_818430" data-name="Trazado 818430" d="M7.8,66.429q0-27.458-.011-54.917c0-2.362,1.309-3.322,3.1-3.85.316-.093.662.094,1.01.094Q47.1,7.742,82.313,7.74a13.188,13.188,0,0,1,2.185.146A2.961,2.961,0,0,1,86.826,9.77a4.778,4.778,0,0,1,.332,1.842q-.016,54.364-.013,108.727a7.565,7.565,0,0,1-.2,2.426,3.631,3.631,0,0,1-2.33,2.3,4.175,4.175,0,0,1-1.418.045l-70.97,0c-.471,0-.944-.026-1.413,0A3.138,3.138,0,0,1,7.9,122.508a9.021,9.021,0,0,1-.1-1.346Q7.8,93.8,7.8,66.429M58.475,92.646v.008q-6.449,0-12.9,0c-1.925,0-3.849.027-5.774.015a2.6,2.6,0,0,0-2,.825A34.4,34.4,0,0,1,35,95.986a20.29,20.29,0,0,1-2.992,2.354c-.255.14-.356.307-.064.55.867.723,1.712,1.472,2.579,2.194,1.1.919,2.209,1.839,3.339,2.725.462.362.851.881,1.537.874s1.364.012,2.046.012q17.5,0,35.009.006c1.379,0,1.374,0,1.379-1.39.008-2.315.028-4.629.032-6.943a5.434,5.434,0,0,1-.078-.957,16.034,16.034,0,0,0,.156-2.07c.035-.56-.178-.71-.735-.708-6.244.02-12.488.012-18.732.012M31.828,54.979c.723.641,1.407,1.272,2.117,1.871,1.47,1.241,2.974,2.442,4.417,3.712a1.511,1.511,0,0,0,1.126.459c1.023-.027,2.047-.018,3.07-.018q17.174,0,34.347.007c1.062,0,1.061.007.986-1.084-.012-.184-.011-.369-.011-.553q0-4.735,0-9.47c0-.854-.057-.919-.894-.92q-6.083,0-12.166,0l-24.516,0a3.351,3.351,0,0,0-2.5.893c-1.184,1.129-2.47,2.151-3.718,3.212-.76.647-1.531,1.281-2.266,1.9M58.352,70.854v0H39.433c-.349,0-.729-.031-.964.264a7.826,7.826,0,0,1-1.1.969q-2.569,2.233-5.188,4.41c-.3.251-.251.425-.021.639.763.711,1.495,1.462,2.3,2.115,1.221.985,2.494,1.9,3.674,2.941a2.3,2.3,0,0,0,1.607.619q18.705-.024,37.409-.013c.7,0,.739-.068.738-.792-.008-3.5-.027-7.009.025-10.511.009-.6-.148-.645-.643-.644q-9.46.021-18.919.009m13.7-42.764-.115.06c-.175-.241-.354-.479-.523-.724q-2.5-3.608-5-7.219c-.582-.841-1.163-1.683-1.751-2.521a1.9,1.9,0,0,0-3.26.285,2.878,2.878,0,0,0-.185,1.31q-.014,7.193-.009,14.386c0,.307.005.615.029.922a1.849,1.849,0,0,0,2.636,1.581,1.927,1.927,0,0,0,1.173-1.917c-.07-2.84.157-5.683-.118-8.521-.019-.193-.154-.508.12-.59.256-.077.348.238.47.412q2.427,3.472,4.841,6.953c.678.974,1.345,1.956,2.039,2.919a1.873,1.873,0,0,0,1.609.963A2.091,2.091,0,0,0,75.986,34.1q.007-7.378,0-14.755a3.657,3.657,0,0,0-.174-1.148,1.882,1.882,0,0,0-3.622.069,3.941,3.941,0,0,0-.144,1.091c.008,2.909,0,5.818,0,8.728m-26.536.442h-.011c0,1.824.006,3.648,0,5.472a2.794,2.794,0,0,0,.329,1.343,1.9,1.9,0,0,0,2.43.9,2.37,2.37,0,0,0,1.183-2.083c-.024-1.312.009-2.624-.016-3.935-.007-.385.1-.48.48-.472,1.269.027,2.54.026,3.809,0,.416-.007.553.094.569.545.053,1.474-.079,2.951.067,4.423.083.84,1.177,1.833,1.875,1.667,1.435-.343,1.9-.876,1.918-2.327.05-3.586.034-7.173,0-10.76a6.748,6.748,0,0,0-.8-3.131,6.273,6.273,0,0,0-8.7-2.463c-1.444.826-2.119,2.28-3,3.569.312.6-.154,1.128-.143,1.71.036,1.844.013,3.688.013,5.533M18.963,26.626h0c0,2.52.01,5.04-.009,7.561a2.282,2.282,0,0,0,.37,1.262,1.731,1.731,0,0,0,2,.839A1.767,1.767,0,0,0,22.726,35,4.346,4.346,0,0,0,22.9,33.8c-.02-1.577.008-3.155-.019-4.733-.007-.428.1-.554.536-.542a13.421,13.421,0,0,0,3.469-.164,5.816,5.816,0,0,0,4.429-4.091,5.29,5.29,0,0,0-.668-4.773,5.883,5.883,0,0,0-5.2-2.663c-1.453,0-2.907.032-4.36,0A2.074,2.074,0,0,0,18.965,19c-.006,2.541,0,5.081,0,7.622m13.764-.055h.031c0,2.5,0,5,0,7.5a2.147,2.147,0,0,0,2.349,2.343c2.313-.02,4.627,0,6.94,0a3.007,3.007,0,0,0,1.173-.266,1.874,1.874,0,0,0-.455-3.546,13.356,13.356,0,0,0-1.569-.118c-1.31-.017-2.622-.038-3.93.007-.538.019-.622-.16-.618-.648.023-3.073.011-6.147.011-9.221,0-1.189.041-2.379-.01-3.565-.073-1.67-1.1-2.422-2.482-2.087a2.094,2.094,0,0,0-1.438,2.163q0,3.719,0,7.437M15.15,55.9a1.3,1.3,0,0,0,.227.862,11.592,11.592,0,0,0,1.993,2.191c1.451,1.355,2.064,1.566,3.647.016,1.889-1.849,3.73-3.745,5.61-5.6a2.571,2.571,0,0,0,.648-1.122c.356-1.17-.957-2.69-2.116-2.365a2.8,2.8,0,0,0-1.426.859c-1.287,1.531-2.9,2.76-4.155,4.324-.233.289-.426.378-.714.032a2.119,2.119,0,0,0-2.049-.988A1.832,1.832,0,0,0,15.15,55.9M27.318,95.585a1.778,1.778,0,0,0-1.333-1.851,2.34,2.34,0,0,0-2.106.7c-1.276,1.327-2.6,2.605-3.9,3.912-.765.77-.758.777-1.571.062a1.9,1.9,0,0,0-2.358-.336c-1,.842-1.3,1.743-.308,2.848.668.746,1.394,1.441,2.117,2.134a1.7,1.7,0,0,0,2.683.032c2.182-1.979,4.228-4.1,6.25-6.244a1.554,1.554,0,0,0,.526-1.261m0-21.911a1.666,1.666,0,0,0-1.273-1.732,1.821,1.821,0,0,0-2.034.563c-1.431,1.434-2.871,2.858-4.288,4.306-.342.349-.553.563-.954.036a2.148,2.148,0,0,0-1.478-.875,1.692,1.692,0,0,0-1.7.682,1.53,1.53,0,0,0-.241,1.852A14.432,14.432,0,0,0,17.8,81.159a1.8,1.8,0,0,0,2.854-.014c2.058-2.021,4.087-4.072,6.121-6.119a1.623,1.623,0,0,0,.547-1.352" transform="translate(-3.944 -3.866)" fill="#f8f9fb"/>
        <path id="Trazado_818431" data-name="Trazado 818431" d="M83.069,179.839c6.244,0,12.489.007,18.733-.013.557,0,.77.148.735.708a16.034,16.034,0,0,1-.156,2.07,5.435,5.435,0,0,0,.078.957c0,2.315-.024,4.629-.032,6.943-.005,1.385,0,1.39-1.379,1.39l-35.009-.006c-.682,0-1.364-.02-2.046-.013s-1.075-.512-1.537-.874c-1.13-.887-2.235-1.806-3.339-2.725-.867-.723-1.712-1.471-2.58-2.194-.291-.243-.191-.41.065-.55a20.313,20.313,0,0,0,2.992-2.354,34.468,34.468,0,0,0,2.8-2.49,2.594,2.594,0,0,1,2-.824c1.924.012,3.849-.014,5.773-.015q6.449-.005,12.9,0Zm-8.261,7.9V187.7c3.091,0,6.182.03,9.273-.014a1.817,1.817,0,0,0,1.658-2.586,1.883,1.883,0,0,0-1.928-1.125q-8.9.008-17.809,0a5.036,5.036,0,0,0-.674.031A1.811,1.811,0,0,0,63.841,186a2.082,2.082,0,0,0,1.758,1.746q4.6-.007,9.209,0" transform="translate(-28.539 -91.058)" fill="#7bc558"/>
        <path id="Trazado_818432" data-name="Trazado 818432" d="M56.487,97.389c.735-.615,1.506-1.249,2.266-1.9,1.248-1.061,2.534-2.084,3.718-3.212a3.35,3.35,0,0,1,2.5-.893l24.516,0q6.083,0,12.166,0c.838,0,.895.065.894.919q0,4.735,0,9.47c0,.184,0,.369.012.553.075,1.092.076,1.085-.986,1.085q-17.174-.006-34.347-.007c-1.023,0-2.048-.009-3.07.018a1.513,1.513,0,0,1-1.125-.459c-1.444-1.27-2.948-2.471-4.418-3.712-.71-.6-1.394-1.231-2.117-1.871M74.9,95.539v-.016c-3.029,0-6.059.023-9.088-.016a1.935,1.935,0,0,0-1.6.813,1.7,1.7,0,0,0-.256,1.715,1.893,1.893,0,0,0,1.916,1.223c6-.018,12-.006,17.993,0a3.452,3.452,0,0,0,.429-.019,1.871,1.871,0,0,0,1.412-2.852,1.681,1.681,0,0,0-1.535-.845q-4.636.007-9.272,0" transform="translate(-28.603 -46.276)" fill="#7bc558"/>
        <path id="Trazado_818433" data-name="Trazado 818433" d="M83.155,135.693q9.46,0,18.919-.008c.5,0,.652.047.643.644-.052,3.5-.033,7.008-.025,10.511,0,.723-.039.791-.737.791q-18.7,0-37.409.013a2.3,2.3,0,0,1-1.608-.618c-1.18-1.036-2.453-1.956-3.674-2.941-.81-.653-1.542-1.4-2.3-2.115-.23-.214-.28-.388.021-.639q2.615-2.18,5.188-4.41a7.855,7.855,0,0,0,1.1-.969c.234-.295.615-.265.963-.265q5.1,0,10.2,0h8.723Zm-8.088,7.874q4.455,0,8.91,0a2.04,2.04,0,0,0,2.174-1.883,2,2,0,0,0-2.172-1.933c-.844-.024-1.685.022-2.528.016-5.161-.028-10.323-.008-15.484-.007a1.854,1.854,0,0,0-1.689,1.038,1.708,1.708,0,0,0,.169,1.962,2.1,2.1,0,0,0,1.834.81q4.393,0,8.787,0" transform="translate(-28.747 -68.707)" fill="#7bc558"/>
        <path id="Trazado_818434" data-name="Trazado 818434" d="M126.86,37.556c0-2.909,0-5.818,0-8.728A3.942,3.942,0,0,1,127,27.737a1.882,1.882,0,0,1,3.622-.069,3.688,3.688,0,0,1,.174,1.148q-.007,7.378,0,14.755a2.092,2.092,0,0,1-1.972,2.284,1.874,1.874,0,0,1-1.609-.963c-.693-.964-1.36-1.945-2.038-2.919q-2.419-3.477-4.841-6.953c-.121-.174-.214-.489-.47-.412-.273.081-.139.4-.12.59.276,2.837.049,5.681.118,8.521a1.925,1.925,0,0,1-1.173,1.917,1.849,1.849,0,0,1-2.637-1.581c-.023-.307-.029-.615-.029-.922q0-7.193.009-14.386a2.872,2.872,0,0,1,.185-1.31,1.9,1.9,0,0,1,3.26-.285c.587.838,1.168,1.68,1.751,2.521q2.5,3.609,5,7.218c.17.245.349.483.524.724l.115-.06" transform="translate(-58.749 -13.333)" fill="#3f3f3f"/>
        <path id="Trazado_818435" data-name="Trazado 818435" d="M84.207,38c0-1.845.022-3.689-.013-5.534-.011-.582.455-1.113.142-1.709.883-1.289,1.557-2.743,3-3.569a6.273,6.273,0,0,1,8.7,2.463,6.748,6.748,0,0,1,.8,3.131c.035,3.586.051,7.173,0,10.76-.02,1.451-.482,1.984-1.918,2.327-.7.167-1.791-.827-1.875-1.667-.146-1.472-.014-2.949-.067-4.424-.016-.451-.154-.552-.569-.544-1.27.021-2.54.022-3.809,0-.379-.008-.487.087-.48.471.025,1.312-.008,2.624.015,3.935a2.368,2.368,0,0,1-1.182,2.082,1.9,1.9,0,0,1-2.43-.9,2.8,2.8,0,0,1-.329-1.343c.01-1.824,0-3.648,0-5.472Zm6.322-2.67v.015c.675,0,1.35,0,2.025,0,.218,0,.413,0,.407-.307a25.561,25.561,0,0,0-.031-2.638,2.4,2.4,0,0,0-4.8.2c-.025.757.014,1.516-.014,2.273-.015.4.155.479.507.466.633-.022,1.268-.006,1.9-.006" transform="translate(-42.632 -13.334)" fill="#3f3f3f"/>
        <path id="Trazado_818436" data-name="Trazado 818436" d="M30.414,36.061c0-2.541,0-5.081,0-7.622A2.072,2.072,0,0,1,32.54,26.27c1.452.036,2.907.008,4.36,0a5.882,5.882,0,0,1,5.2,2.663,5.291,5.291,0,0,1,.669,4.773A5.817,5.817,0,0,1,38.338,37.8a13.4,13.4,0,0,1-3.469.164c-.437-.012-.543.114-.537.542.027,1.577,0,3.155.019,4.733a4.343,4.343,0,0,1-.174,1.191,1.767,1.767,0,0,1-1.408,1.293,1.732,1.732,0,0,1-2-.839,2.283,2.283,0,0,1-.37-1.263c.019-2.52.009-5.04.009-7.561Zm6.834-2.007a2.133,2.133,0,0,0,.809-.223,1.913,1.913,0,0,0-.468-3.6,23.666,23.666,0,0,0-2.856-.137c-.344.007-.4.132-.395.431.015,1.045.018,2.089,0,3.133-.006.334.111.416.421.409.818-.018,1.636-.008,2.455-.009l.019.03Z" transform="translate(-15.395 -13.302)" fill="#3f3f3f"/>
        <path id="Trazado_818437" data-name="Trazado 818437" d="M58.308,36.067q0-3.719,0-7.437a2.094,2.094,0,0,1,1.438-2.163c1.381-.335,2.41.417,2.482,2.087.051,1.186.01,2.376.01,3.565,0,3.073.012,6.147-.011,9.221,0,.488.08.666.618.648,1.309-.045,2.62-.024,3.93-.007a13.372,13.372,0,0,1,1.57.118,1.874,1.874,0,0,1,.454,3.546,3.007,3.007,0,0,1-1.173.266c-2.313-.005-4.627-.021-6.94,0a2.147,2.147,0,0,1-2.35-2.343c.006-2.5,0-5,0-7.5Z" transform="translate(-29.525 -13.362)" fill="#3f3f3f"/>
        <path id="Trazado_818438" data-name="Trazado 818438" d="M22.692,99.185a1.832,1.832,0,0,1,1.664-1.793,2.119,2.119,0,0,1,2.049.988c.288.346.48.258.714-.032,1.26-1.563,2.868-2.793,4.155-4.324a2.791,2.791,0,0,1,1.427-.859c1.16-.326,2.472,1.195,2.116,2.365a2.57,2.57,0,0,1-.648,1.122c-1.88,1.857-3.721,3.754-5.61,5.6-1.584,1.55-2.2,1.339-3.647-.015a11.622,11.622,0,0,1-1.993-2.191,1.3,1.3,0,0,1-.227-.862" transform="translate(-11.486 -47.154)" fill="#3f3f3f"/>
        <path id="Trazado_818439" data-name="Trazado 818439" d="M34.85,183.881a1.547,1.547,0,0,1-.525,1.261c-2.022,2.142-4.068,4.265-6.25,6.244a1.7,1.7,0,0,1-2.682-.032c-.724-.693-1.449-1.389-2.117-2.134-.991-1.106-.69-2.007.308-2.849a1.9,1.9,0,0,1,2.357.336c.812.715.806.708,1.571-.062,1.3-1.306,2.624-2.585,3.9-3.912a2.339,2.339,0,0,1,2.106-.7,1.775,1.775,0,0,1,1.332,1.85" transform="translate(-11.478 -92.162)" fill="#3f3f3f"/>
        <path id="Trazado_818440" data-name="Trazado 818440" d="M34.852,139.523a1.623,1.623,0,0,1-.547,1.352c-2.034,2.047-4.063,4.1-6.121,6.119a1.8,1.8,0,0,1-2.854.014,14.433,14.433,0,0,1-2.443-2.653,1.53,1.53,0,0,1,.241-1.852,1.692,1.692,0,0,1,1.7-.682,2.148,2.148,0,0,1,1.478.875c.4.527.612.313.954-.036,1.416-1.448,2.857-2.872,4.288-4.306a1.821,1.821,0,0,1,2.034-.563,1.666,1.666,0,0,1,1.273,1.732" transform="translate(-11.479 -69.715)" fill="#3f3f3f"/>
        <path id="Trazado_818441" data-name="Trazado 818441" d="M82.475,192q-4.6,0-9.209,0a2.082,2.082,0,0,1-1.758-1.746,1.811,1.811,0,0,1,1.485-1.99,5.041,5.041,0,0,1,.674-.031q8.9,0,17.809,0a1.883,1.883,0,0,1,1.928,1.125,1.817,1.817,0,0,1-1.658,2.586c-3.091.044-6.182.014-9.273.014V192" transform="translate(-36.206 -95.317)" fill="#3f3f3f"/>
        <path id="Trazado_818442" data-name="Trazado 818442" d="M82.431,99.764q4.636,0,9.272,0a1.682,1.682,0,0,1,1.535.845,1.871,1.871,0,0,1-1.412,2.852,3.451,3.451,0,0,1-.429.019c-6,0-12-.013-17.993,0a1.893,1.893,0,0,1-1.916-1.223,1.7,1.7,0,0,1,.256-1.715,1.935,1.935,0,0,1,1.6-.813c3.029.039,6.059.016,9.088.016Z" transform="translate(-36.136 -50.501)" fill="#3f3f3f"/>
        <path id="Trazado_818443" data-name="Trazado 818443" d="M82.525,147.731q-4.393,0-8.787,0a2.1,2.1,0,0,1-1.834-.81,1.708,1.708,0,0,1-.169-1.962,1.856,1.856,0,0,1,1.689-1.038c5.161,0,10.323-.02,15.484.007.843,0,1.685-.04,2.528-.017a2,2,0,0,1,2.172,1.933,2.04,2.04,0,0,1-2.174,1.884q-4.455.007-8.91,0" transform="translate(-36.205 -72.869)" fill="#3f3f3f"/>
        <path id="Trazado_818444" data-name="Trazado 818444" d="M94.558,39.341c-.634,0-1.269-.016-1.9.006-.352.012-.522-.065-.507-.466.028-.757-.011-1.516.014-2.273a2.4,2.4,0,0,1,4.8-.2,25.563,25.563,0,0,1,.031,2.638c.006.31-.189.308-.407.307-.675,0-1.35,0-2.025,0Z" transform="translate(-46.66 -17.346)" fill="#f8f9fb"/>
        <path id="Trazado_818445" data-name="Trazado 818445" d="M41.246,37.976c-.818,0-1.637-.009-2.454.009-.31.007-.428-.075-.422-.409.021-1.044.017-2.089,0-3.133,0-.3.051-.424.395-.431a23.679,23.679,0,0,1,2.857.137,1.913,1.913,0,0,1,.467,3.6,2.133,2.133,0,0,1-.808.223l-.038,0" transform="translate(-19.429 -17.221)" fill="#f8f9fb"/>
        <path id="Trazado_818446" data-name="Trazado 818446" d="M44.2,42.042l.038,0-.018.032Z" transform="translate(-22.379 -21.287)" fill="#7bc558"/>
      </g>
    </g>
  </g>
</svg>
