<svg xmlns="http://www.w3.org/2000/svg" xmlns:xlink="http://www.w3.org/1999/xlink" width="189" height="189" viewBox="0 0 189 189">
  <defs>
    <clipPath id="clip-path">
      <rect id="Rectángulo_376993" data-name="Rectángulo 376993" width="114.989" height="115" fill="none"/>
    </clipPath>
  </defs>
  <g id="Grupo_161725" data-name="Grupo 161725" transform="translate(-750 -1051)">
    <g id="Grupo_161157" data-name="Grupo 161157" transform="translate(750 1051)">
      <circle id="Elipse_1146" data-name="Elipse 1146" cx="94.5" cy="94.5" r="94.5" fill="#3b5620"/>
    </g>
    <g id="Grupo_1072586" data-name="Grupo 1072586" transform="translate(787 1091)">
      <g id="Grupo_1072585" data-name="Grupo 1072585" clip-path="url(#clip-path)">
        <path id="Trazado_818447" data-name="Trazado 818447" d="M54.7,96.842c-.783-1.5-1.662-2.907-2.27-4.422-.742-1.848-1.27-3.783-1.86-5.69-.113-.365-.241-.5-.644-.495-1.965.031-3.93.029-5.9.026a1.96,1.96,0,0,1-2.2-2.227q0-4.324,0-8.648a1.975,1.975,0,0,1,2.233-2.253c1.909-.015,3.818-.018,5.727,0,.443,0,.654-.1.755-.577A29.5,29.5,0,0,1,54.627,62.9c.049-.077.085-.161.172-.327L50.607,58.45c-.107-.1-.213-.211-.318-.318-1.091-1.12-1.1-1.972,0-3.091q3.035-3.078,6.092-6.137a1.935,1.935,0,0,1,3.155,0q2.033,2.017,4.033,4.067a.563.563,0,0,0,.852.1,29.324,29.324,0,0,1,9.255-3.885c.508-.116.68-.313.667-.861-.045-1.89-.027-3.781-.014-5.671.01-1.541.706-2.216,2.245-2.217l8.535-.009c1.581,0,2.277.668,2.284,2.237.009,1.928.015,3.856-.024,5.784-.01.482.152.646.591.746a29.511,29.511,0,0,1,8.856,3.55c1.01.615,1.016.622,1.857-.231q1.715-1.739,3.411-3.5c1.215-1.255,2.239-1.282,3.453-.051q3,3.038,5.974,6.094a1.894,1.894,0,0,1,0,3.068q-2,2.047-4.053,4.046c-.353.343-.435.587-.147,1.034a31.477,31.477,0,0,1,3.9,9.435c.1.4.251.5.635.5,1.891-.021,3.781-.018,5.671-.021,1.7,0,2.359.678,2.355,2.388-.007,2.845,0,5.69,0,8.535,0,1.512-.671,2.207-2.18,2.212-1.928.007-3.856.012-5.783-.025-.467-.009-.649.121-.752.574a29.521,29.521,0,0,1-3.93,9.6c-.225.347-.042.5.159.7q2.044,2.084,4.082,4.173c1.106,1.138,1.121,2.028.016,3.147-1.973,2-3.965,3.977-5.95,5.962-.119.119-.245.232-.373.341a1.848,1.848,0,0,1-2.755-.056q-2.129-2.079-4.191-4.225a.633.633,0,0,0-.982-.1,29.637,29.637,0,0,1-9.167,3.814c-.581.142-.722.367-.707.935.051,1.908.047,3.818.053,5.727a1.887,1.887,0,0,1-2.132,2.15q-4.352.012-8.7,0c-1.571,0-2.23-.643-2.248-2.214-.023-1.965-.016-3.931,0-5.9,0-.378-.092-.545-.483-.641a30.676,30.676,0,0,1-9.558-4.034c-.274-.179-.431-.143-.659.091-1.344,1.382-2.709,2.744-4.068,4.111-.132.132-.266.264-.407.386a1.733,1.733,0,0,1-2.56-.008c-1.632-1.6-3.218-3.239-4.821-4.865-.539-.546-1.088-1.083-1.608-1.647a1.782,1.782,0,0,1,.024-2.847c1.423-1.461,2.87-2.9,4.306-4.349.09-.091.172-.191.2-.225m3.287,10.132a4.864,4.864,0,0,1,.355-.47c1.292-1.327,2.581-2.659,3.889-3.971a1.783,1.783,0,0,1,2.649-.275c.251.162.5.335.746.5a26.152,26.152,0,0,0,10.426,4.18,2,2,0,0,1,2,2.342c.009,1.853,0,3.706,0,5.559a3.543,3.543,0,0,0,.047.4c1.679,0,3.324-.02,4.968.012.488.009.646-.105.639-.614-.026-1.89-.015-3.781.005-5.671a1.81,1.81,0,0,1,1.656-1.931c.952-.191,1.915-.352,2.844-.626a29.054,29.054,0,0,0,8.7-4.187,1.7,1.7,0,0,1,2.47.179c.151.14.292.29.44.433l4.161,4.008c1.117-1.126,2.3-2.351,3.52-3.529.383-.368.317-.581-.01-.906q-1.952-1.939-3.873-3.909c-.994-1.017-1.018-1.677-.241-2.885.667-1.036,1.321-2.085,1.908-3.168a29.2,29.2,0,0,0,2.67-7.938c.325-1.526.88-1.939,2.456-1.938,1.759,0,3.519-.008,5.278.017.4.005.511-.123.507-.509-.016-1.572-.025-3.145.006-4.717.009-.476-.169-.553-.587-.548-1.834.021-3.668.019-5.5.012a1.908,1.908,0,0,1-2.141-1.765c-.141-.658-.241-1.325-.411-1.975a28.921,28.921,0,0,0-4.178-9.31c-.817-1.177-.755-1.846.214-2.829,1.274-1.293,2.541-2.6,3.855-3.847.438-.417.371-.651-.015-1.021-.891-.855-1.747-1.747-2.619-2.622-.324-.325-.653-.645-.956-.943-1.5,1.489-2.949,2.929-4.406,4.355a1.753,1.753,0,0,1-2.514.321,28.981,28.981,0,0,0-11.538-4.838c-1.267-.216-1.7-.812-1.7-2.1-.01-1.834,0-3.668,0-5.5v-.569H78.041c0,.406,0,.759,0,1.112.009,1.685.034,3.369.021,5.054a1.823,1.823,0,0,1-1.716,2.047c-.6.121-1.215.214-1.814.355a27.913,27.913,0,0,0-9.3,4.191c-1.355.921-1.954.885-3.133-.283-1.289-1.278-2.559-2.575-3.84-3.862-.1-.1-.212-.185-.307-.268-1.259,1.241-2.471,2.461-3.717,3.646-.339.323-.3.511.005.808,1.185,1.17,2.354,2.357,3.523,3.543,1.492,1.514,1.5,1.891.351,3.668a27.311,27.311,0,0,0-4.288,10.747,1.955,1.955,0,0,1-2.211,1.893c-1.665.008-3.332,0-5,0H45.611c-.023.187-.047.3-.047.4-.006,1.647,0,3.294-.019,4.941,0,.379.176.42.485.417,1.815-.016,3.631-.018,5.446-.023,1.509,0,2.108.486,2.381,1.959a25.16,25.16,0,0,0,1.955,6.53c.81,1.657,1.79,3.233,2.727,4.826a1.833,1.833,0,0,1-.158,2.409c-.132.158-.274.308-.419.454-1.256,1.256-2.511,2.515-3.776,3.762-.2.194-.34.34-.087.591,1.273,1.264,2.54,2.535,3.891,3.885" transform="translate(-22.989 -22.218)"/>
        <path id="Trazado_818448" data-name="Trazado 818448" d="M5.529,79.268c-.362.173-.727.339-1.085.519-.6.3-1.191.626-1.8.913a1.651,1.651,0,0,1-2.4-.775A1.656,1.656,0,0,1,.98,77.538C2.835,76.53,4.718,75.575,6.591,74.6c.53-.275,1.056-.561,1.6-.8a1.84,1.84,0,0,1,2.641,1c.782,1.7,1.532,3.407,2.282,5.118.39.889.779,1.78,1.119,2.689a1.649,1.649,0,0,1-.98,2.155,1.635,1.635,0,0,1-2.2-.616,12.887,12.887,0,0,1-.674-1.414c-.359-.792-.71-1.587-1.115-2.494a4.716,4.716,0,0,0-.287.552,78.075,78.075,0,0,0-3.43,11.533,34.386,34.386,0,0,0-.408,8.882,52.975,52.975,0,0,0,54.4,49.517c.3-.006.6-.006.9.015a1.8,1.8,0,0,1,1.748,1.825,1.683,1.683,0,0,1-1.673,1.811c-1.494.071-2.993.07-4.488.037a53.834,53.834,0,0,1-12.61-1.92,54.875,54.875,0,0,1-9.75-3.638,57.453,57.453,0,0,1-14.205-9.716,59.934,59.934,0,0,1-11.109-14.3,54.723,54.723,0,0,1-6.01-16.864A55.287,55.287,0,0,1,1.316,99.01a34.32,34.32,0,0,1,1.425-10.8c.823-2.81,1.812-5.571,2.728-8.354.051-.156.107-.311.161-.466l-.1-.125" transform="translate(0 -40.437)" fill="#7bc558"/>
        <path id="Trazado_818449" data-name="Trazado 818449" d="M118.334,26.078c-.838-1-1.537-1.925-2.321-2.766a63.086,63.086,0,0,0-7.875-7.343,62.053,62.053,0,0,0-17.93-9.55,56.72,56.72,0,0,0-10.1-2.256,49.36,49.36,0,0,0-11.759-.186A52.214,52.214,0,0,0,51.3,8.666,51.684,51.684,0,0,0,36.552,19.033c-1.627,1.62-3.079,3.418-4.573,5.167a1.828,1.828,0,0,1-3.165-.122,1.437,1.437,0,0,1-.031-1.64,18.288,18.288,0,0,1,1.111-1.478A58.136,58.136,0,0,1,42.407,9.536,54.837,54.837,0,0,1,62.327,1.184a54.258,54.258,0,0,1,17.693-.8,62.949,62.949,0,0,1,29.14,11.8,58.855,58.855,0,0,1,9.846,8.987c.266.3.519.618.874,1.041,0-.857,0-1.576,0-2.3a1.825,1.825,0,0,1,2.763-1.705,1.712,1.712,0,0,1,.93,1.666c.036,1.516.057,3.032.079,4.547.016,1.086.032,2.171.033,3.256a1.856,1.856,0,0,1-2.036,2.076c-2.787.014-5.576.005-8.363-.008-1.275-.006-1.938-.631-1.956-1.8a1.769,1.769,0,0,1,1.929-1.868c1.44-.041,2.882-.013,4.323-.014h.751" transform="translate(-15.684 0)" fill="#7bc558"/>
        <path id="Trazado_818450" data-name="Trazado 818450" d="M163.271,153.314c1.051.476,2.1.916,3.114,1.42a1.814,1.814,0,0,1-1.232,3.411c-2.505-1.167-5.047-2.256-7.556-3.416a1.753,1.753,0,0,1-.779-2.675q2.154-3.382,4.364-6.729a1.69,1.69,0,0,1,2.772-.34,1.536,1.536,0,0,1,.359,2.022c-.42.767-.91,1.495-1.443,2.357a6.553,6.553,0,0,0,.769-.238A67.211,67.211,0,0,0,172,144.565a54.9,54.9,0,0,0,9.454-7.719,53.983,53.983,0,0,0,9.893-13.4,53.4,53.4,0,0,0,5.065-14.141,50.091,50.091,0,0,0,.814-11.112,52.944,52.944,0,0,0-2.655-14.849c-.254-.762-.55-1.51-.782-2.278a1.646,1.646,0,0,1,1.1-2.184,1.611,1.611,0,0,1,2.243.967q.931,2.549,1.7,5.155a52.074,52.074,0,0,1-.92,32.471,58.449,58.449,0,0,1-18,25.747,58.114,58.114,0,0,1-13.651,8.751c-.954.427-1.92.827-2.88,1.242-.032.014-.055.048-.109.1" transform="translate(-85.995 -43.273)" fill="#7bc558"/>
        <path id="Trazado_818451" data-name="Trazado 818451" d="M62.517,111.536c-1.351-1.35-2.618-2.62-3.891-3.885-.253-.251-.11-.4.087-.591,1.265-1.247,2.52-2.506,3.776-3.762.145-.145.287-.3.419-.454a1.833,1.833,0,0,0,.158-2.409c-.937-1.593-1.917-3.169-2.727-4.826a25.16,25.16,0,0,1-1.955-6.53c-.273-1.473-.873-1.964-2.381-1.959-1.815.005-3.631.008-5.446.023-.309,0-.489-.038-.485-.417.019-1.647.013-3.294.019-4.941,0-.108.025-.216.047-.4h1.008c1.666,0,3.332.009,5,0a1.955,1.955,0,0,0,2.211-1.893,27.311,27.311,0,0,1,4.288-10.747c1.15-1.777,1.141-2.154-.351-3.668-1.169-1.186-2.338-2.373-3.523-3.543-.3-.3-.345-.486-.005-.808,1.246-1.186,2.458-2.406,3.717-3.646.1.083.209.168.307.268,1.281,1.287,2.551,2.584,3.84,3.862,1.179,1.168,1.777,1.2,3.133.284a27.915,27.915,0,0,1,9.3-4.191c.6-.142,1.21-.235,1.815-.355A1.823,1.823,0,0,0,82.59,54.9c.013-1.685-.013-3.369-.021-5.054,0-.353,0-.706,0-1.112H88.23V49.3c0,1.835-.01,3.669,0,5.5.007,1.293.438,1.889,1.7,2.1a28.975,28.975,0,0,1,11.538,4.839,1.753,1.753,0,0,0,2.514-.321c1.457-1.427,2.9-2.867,4.406-4.355.3.3.632.618.956.943.872.875,1.728,1.767,2.619,2.622.386.37.453.6.014,1.021-1.314,1.251-2.581,2.554-3.855,3.847-.969.983-1.031,1.652-.215,2.829a28.917,28.917,0,0,1,4.179,9.31c.169.65.27,1.318.411,1.975a1.908,1.908,0,0,0,2.141,1.765c1.834.008,3.669.009,5.5-.012.418,0,.6.072.587.548-.031,1.572-.023,3.145-.006,4.717,0,.386-.1.514-.507.509-1.759-.024-3.518-.015-5.278-.016-1.576,0-2.131.412-2.456,1.938A29.212,29.212,0,0,1,109.815,97c-.586,1.083-1.241,2.132-1.908,3.168-.778,1.208-.754,1.868.241,2.885q1.923,1.968,3.873,3.909c.327.325.394.538.01.906-1.225,1.178-2.4,2.4-3.52,3.529l-4.161-4.008c-.148-.143-.289-.294-.44-.433a1.7,1.7,0,0,0-2.47-.179,29.065,29.065,0,0,1-8.7,4.188c-.929.273-1.892.434-2.844.626a1.81,1.81,0,0,0-1.656,1.931c-.021,1.89-.031,3.781-.005,5.671.007.509-.15.624-.639.615-1.644-.032-3.289-.013-4.968-.013a3.424,3.424,0,0,1-.047-.4c0-1.853.009-3.706,0-5.559a2,2,0,0,0-2-2.342,26.149,26.149,0,0,1-10.426-4.18c-.25-.164-.5-.336-.746-.5a1.783,1.783,0,0,0-2.649.275c-1.309,1.311-2.6,2.643-3.89,3.971a4.94,4.94,0,0,0-.355.47M85.408,99.995a15.7,15.7,0,0,0-.018-31.406C76.195,68.5,69.712,76.515,69.8,84.332A15.819,15.819,0,0,0,85.408,99.995" transform="translate(-27.517 -26.78)" fill="#7bc558"/>
        <path id="Trazado_818452" data-name="Trazado 818452" d="M109.473,124.219a15.818,15.818,0,0,1-15.609-15.662c-.086-7.818,6.4-15.83,15.591-15.744a15.7,15.7,0,0,1,.018,31.406m11.893-15.707a11.969,11.969,0,0,0-12.584-12.031c-6.051.259-11.26,5.811-11.242,12.012a11.914,11.914,0,1,0,23.827.019" transform="translate(-51.582 -51.004)"/>
      </g>
    </g>
  </g>
</svg>
