<svg xmlns="http://www.w3.org/2000/svg" xmlns:xlink="http://www.w3.org/1999/xlink" width="189" height="189" viewBox="0 0 189 189">
  <defs>
    <clipPath id="clip-path">
      <rect id="Rectángulo_376994" data-name="Rectángulo 376994" width="116.109" height="116.159" fill="none"/>
    </clipPath>
  </defs>
  <g id="Grupo_1017023" data-name="Grupo 1017023" transform="translate(-750 -911)">
    <g id="Grupo_161158" data-name="Grupo 161158" transform="translate(750 911)">
      <circle id="Elipse_1142" data-name="Elipse 1142" cx="94.5" cy="94.5" r="94.5" fill="#3b5620"/>
    </g>
    <g id="Grupo_1072588" data-name="Grupo 1072588" transform="translate(786.445 947.42)">
      <g id="Grupo_1072587" data-name="Grupo 1072587" clip-path="url(#clip-path)">
        <path id="Trazado_818453" data-name="Trazado 818453" d="M18.783,14.608c1.123.157,2.6.362,4.077.57q3.983.561,7.965,1.125c.99.141,1.983.267,2.966.448.459.084.549-.193.673-.5q1.409-3.463,2.821-6.925c.918-2.256,1.84-4.511,2.75-6.77A3.692,3.692,0,0,1,43.169.032,3.458,3.458,0,0,1,45.75.841q2.961,2.291,5.909,4.6c2,1.556,4,3.1,5.994,4.673a.564.564,0,0,0,.832-.011q5.738-4.493,11.49-8.969A4.016,4.016,0,0,1,72.912.018a3.549,3.549,0,0,1,3.075,2.348c.829,2.027,1.648,4.058,2.47,6.088,1.056,2.607,2.12,5.212,3.158,7.826a.607.607,0,0,0,.763.458c4.769-.671,9.541-1.318,14.309-2a3.981,3.981,0,0,1,3.888,1.126,4.25,4.25,0,0,1,.794,3.684c-.656,4.582-1.281,9.169-1.919,13.755a1.808,1.808,0,0,1-.066.333c-.154.453.022.678.457.852,3.626,1.457,7.243,2.934,10.863,4.405.944.384,1.878.8,2.834,1.148a3.64,3.64,0,0,1,1.575,5.951c-2.757,3.461-5.453,6.97-8.174,10.459-.128.164-.253.33-.38.495-.874,1.137-.875,1.137.026,2.292q4.257,5.456,8.513,10.914c1.253,1.615,1.331,3.132.3,4.591a4.094,4.094,0,0,1-1.9,1.371c-4.5,1.824-8.987,3.656-13.488,5.463a.8.8,0,0,0-.6,1.039c.705,4.919,1.371,9.844,2.028,14.769a3.548,3.548,0,0,1-4.012,4.074C93.8,101,90.2,100.487,86.584,100c-1.441-.2-2.882-.389-4.32-.608-.378-.058-.487.132-.605.422q-2.5,6.171-5.01,12.335c-.22.542-.431,1.088-.668,1.624a3.508,3.508,0,0,1-5.644,1.511c-1.532-1.139-3.016-2.343-4.522-3.516-2.431-1.894-4.868-3.78-7.289-5.688a.609.609,0,0,0-.911-.027q-5.618,4.417-11.263,8.8a12.365,12.365,0,0,1-1.008.732,3.392,3.392,0,0,1-4.894-1.193,35,35,0,0,1-1.568-3.636Q36.648,105.3,34.442,99.84c-.161-.4-.368-.477-.772-.42q-6,.848-12.012,1.661c-1.01.139-2.019.285-3.032.4a3.549,3.549,0,0,1-3.973-3.96c.545-4.2,1.142-8.388,1.719-12.581.121-.88.23-1.762.382-2.636.069-.394-.166-.5-.435-.606l-5.086-2.075Q6.8,77.818,2.373,76.008a3.6,3.6,0,0,1-2.35-3.079,3.844,3.844,0,0,1,1.039-2.85q2.612-3.358,5.239-6.7c1.234-1.579,2.462-3.163,3.707-4.733a.752.752,0,0,0,0-1.117C7.037,53.752,4.1,49.955,1.148,46.163,1,45.97.853,45.77.711,45.57a3.525,3.525,0,0,1,1.578-5.411c1.778-.74,3.565-1.456,5.35-2.179q4.355-1.767,8.716-3.523a.532.532,0,0,0,.385-.65q-.705-5.052-1.4-10.1c-.238-1.722-.5-3.442-.691-5.169-.245-2.153,1.521-3.965,4.14-3.925m26.23-5.224c-.125.29-.2.443-.259.6q-2.408,5.933-4.816,11.865a3.6,3.6,0,0,1-4.019,2.429c-.882-.1-1.76-.231-2.639-.351-3.405-.464-6.812-.916-10.213-1.409-.53-.077-.628.036-.557.536.575,4.077,1.119,8.159,1.7,12.235.34,2.375-.407,3.873-2.461,4.713-3.094,1.266-6.2,2.512-9.292,3.771-.99.4-1.975.814-3.02,1.246a4.089,4.089,0,0,0,.251.435q3.885,4.991,7.777,9.976c1.454,1.854,1.484,3.368.032,5.239Q13.641,65.643,9.759,70.6c-.292.372-.292.541.17.725,1.579.628,3.145,1.288,4.718,1.93,2.4.979,4.8,1.934,7.185,2.934a3.572,3.572,0,0,1,2.428,4.026c-.36,3.056-.8,6.1-1.205,9.154-.187,1.4-.383,2.793-.58,4.221a4.065,4.065,0,0,0,.495,0c2.3-.323,4.6-.662,6.9-.976,2.057-.28,4.115-.564,6.179-.788a3.426,3.426,0,0,1,3.212,1.323,6.47,6.47,0,0,1,.835,1.535c1.569,3.809,3.113,7.626,4.673,11.437.257.626.312.626.814.234,3.34-2.6,6.674-5.216,10.027-7.8a3.608,3.608,0,0,1,4.965.026q4.992,3.883,9.98,7.771c.156.122.331.218.557.364.122-.276.215-.477.3-.68,1.594-3.921,3.176-7.846,4.785-11.759a3.619,3.619,0,0,1,4.045-2.406c2.174.259,4.342.572,6.512.869q3.227.442,6.451.9c.386.056.487-.081.417-.432-.062-.315-.129-.63-.173-.947-.492-3.612-1-7.223-1.456-10.839a8.952,8.952,0,0,1-.07-2.638c.263-1.49,1.423-2.233,2.745-2.764q4.706-1.887,9.4-3.8c.851-.345,1.7-.7,2.658-1.095-.46-.606-.859-1.144-1.271-1.674-2.376-3.062-4.776-6.107-7.125-9.191a3.45,3.45,0,0,1,.04-4.455c.6-.8,1.231-1.582,1.846-2.373q3.031-3.9,6.064-7.789c.447-.571.454-.632-.193-.894-1.838-.744-3.678-1.483-5.514-2.231-2.2-.9-4.42-1.767-6.6-2.717a3.485,3.485,0,0,1-2.137-3.816C92.4,31.657,93,27.335,93.6,23.013c.061-.436.01-.569-.478-.5-4.131.589-8.267,1.147-12.4,1.723-2.36.329-3.757-.45-4.655-2.644q-2.383-5.821-4.748-11.651c-.159-.392-.288-.561-.715-.224q-5.078,4-10.188,7.966a3.534,3.534,0,0,1-4.731-.024q-4.863-3.772-9.713-7.562c-.291-.227-.591-.442-.959-.716" transform="translate(0 0)"/>
        <path id="Trazado_818454" data-name="Trazado 818454" d="M56.308,20.61c.367.274.667.489.959.716q4.857,3.78,9.713,7.561a3.534,3.534,0,0,0,4.731.024q5.111-3.962,10.188-7.966c.427-.337.556-.168.715.224Q84.98,27,87.361,32.82c.9,2.194,2.294,2.973,4.655,2.644,4.133-.576,8.269-1.134,12.4-1.723.488-.07.539.063.478.5-.6,4.322-1.2,8.644-1.769,12.971a3.485,3.485,0,0,0,2.137,3.816c2.181.95,4.4,1.819,6.6,2.717,1.836.748,3.676,1.487,5.514,2.231.647.262.64.323.193.894q-3.044,3.885-6.064,7.789c-.615.791-1.245,1.571-1.846,2.374a3.451,3.451,0,0,0-.039,4.455c2.349,3.083,4.748,6.128,7.125,9.191.411.529.811,1.068,1.271,1.674-.959.4-1.806.749-2.658,1.094q-4.7,1.905-9.4,3.8c-1.322.53-2.482,1.273-2.745,2.764a8.98,8.98,0,0,0,.07,2.637c.46,3.616.965,7.227,1.456,10.839.043.318.11.633.173.948.07.351-.031.487-.417.431q-3.223-.466-6.45-.9c-2.17-.3-4.338-.611-6.512-.87a3.621,3.621,0,0,0-4.045,2.405c-1.609,3.914-3.191,7.839-4.785,11.759-.083.2-.177.4-.3.681-.225-.146-.4-.243-.557-.364q-4.992-3.883-9.98-7.771a3.607,3.607,0,0,0-4.965-.026q-5.029,3.881-10.027,7.8c-.5.392-.558.392-.814-.234-1.56-3.811-3.1-7.629-4.673-11.437a6.485,6.485,0,0,0-.835-1.535,3.425,3.425,0,0,0-3.212-1.324c-2.064.224-4.121.508-6.179.788-2.3.314-4.6.652-6.9.976a3.968,3.968,0,0,1-.494,0c.2-1.429.392-2.824.58-4.221.408-3.05.845-6.1,1.205-9.154a3.571,3.571,0,0,0-2.428-4.026c-2.385-1-4.79-1.956-7.185-2.934-1.573-.642-3.139-1.3-4.719-1.93-.462-.183-.463-.353-.17-.725q3.887-4.953,7.742-9.932c1.451-1.871,1.421-3.385-.032-5.239q-3.9-4.977-7.777-9.976a4.043,4.043,0,0,1-.251-.435c1.045-.432,2.031-.844,3.021-1.246,3.1-1.258,6.2-2.5,9.292-3.77,2.055-.841,2.8-2.338,2.461-4.713-.583-4.076-1.127-8.158-1.7-12.235-.071-.5.027-.612.557-.536,3.4.493,6.808.944,10.212,1.409.879.12,1.757.256,2.639.351a3.6,3.6,0,0,0,4.02-2.428q2.411-5.931,4.816-11.865c.064-.156.133-.31.259-.6M62.141,78.7a1.308,1.308,0,0,1-.2-.124q-3.529-3.528-7.057-7.058c-1.659-1.655-3.275-3.36-5.007-4.936A3.592,3.592,0,0,0,45.271,72.1q7.035,7.046,14.077,14.084a3.57,3.57,0,0,0,5.492-.007q11.1-11.084,22.18-22.183c2.219-2.22,4.448-4.43,6.648-6.669a3.6,3.6,0,0,0-2.853-6.1,4.048,4.048,0,0,0-2.6,1.362Q82.11,58.713,75.99,64.829,69.076,71.753,62.141,78.7" transform="translate(-11.295 -11.227)" fill="#7bc558"/>
        <path id="Trazado_818455" data-name="Trazado 818455" d="M89.962,115.322q6.949-6.962,13.85-13.875,6.113-6.123,12.226-12.245a4.048,4.048,0,0,1,2.6-1.362,3.6,3.6,0,0,1,2.853,6.1c-2.2,2.239-4.429,4.449-6.648,6.669q-11.088,11.094-22.18,22.183a3.57,3.57,0,0,1-5.492.007q-7.044-7.037-14.077-14.084a3.592,3.592,0,0,1,4.609-5.512c1.732,1.576,3.347,3.28,5.007,4.936q3.533,3.524,7.057,7.058a1.308,1.308,0,0,0,.2.124" transform="translate(-39.117 -47.846)"/>
      </g>
    </g>
  </g>
</svg>
