<svg xmlns="http://www.w3.org/2000/svg" xmlns:xlink="http://www.w3.org/1999/xlink" width="189" height="189" viewBox="0 0 189 189">
  <defs>
    <clipPath id="clip-path">
      <rect id="Rectángulo_376995" data-name="Rectángulo 376995" width="99.325" height="142.645" fill="none"/>
    </clipPath>
  </defs>
  <g id="Grupo_1072582" data-name="Grupo 1072582" transform="translate(-750 -1051)">
    <g id="Grupo_161157" data-name="Grupo 161157" transform="translate(750 1051)">
      <circle id="Elipse_1146" data-name="Elipse 1146" cx="94.5" cy="94.5" r="94.5" fill="#3b5620"/>
    </g>
    <g id="Grupo_1072590" data-name="Grupo 1072590" transform="translate(788.341 1072.887)">
      <g id="Grupo_1072589" data-name="Grupo 1072589" clip-path="url(#clip-path)">
        <path id="Trazado_818456" data-name="Trazado 818456" d="M99.3,110.852c0,4.831.072,8.8-.024,12.773a26.1,26.1,0,0,1-1.394,8.508,14.5,14.5,0,0,1-2.929,4.814,14.9,14.9,0,0,1-3.539,3.025,17.266,17.266,0,0,1-6.483,2.411c-4.725.545-9.468.045-14.2.207-1.819.062-3.629-.1-5.435-.153a9.973,9.973,0,0,1-3.976-.8c-1.076-.5-2.243-.832-3.294-1.44a18.758,18.758,0,0,1-4.99-4.584,39.509,39.509,0,0,1-3.984-6.569c-.931-1.729-1.8-3.491-2.7-5.233-1.118-2.156-2.248-4.31-3.342-6.48-1.223-2.426-2.535-4.809-3.725-7.25a11.422,11.422,0,0,1-1.475-6.359,6.476,6.476,0,0,1,2.479-4.453c2.093-1.7,4.468-1.595,6.88-.879a10.9,10.9,0,0,1,4.784,2.889c.144.148.342.427.568.338s.265-.428.26-.643a15.708,15.708,0,0,0-.117-3.489c-.095-.383.146-.717.141-1.091-.021-1.69-.042-3.381-.028-5.071,0-.424-.19-.459-.51-.422a60.662,60.662,0,0,1-9.277.409,22.283,22.283,0,0,1-3.536-.433c-.574-.114-1.223-.162-1.829-.263a41.878,41.878,0,0,1-9.728-2.9,50.294,50.294,0,0,1-9.947-5.828,41.566,41.566,0,0,1-6.987-6.61,53.119,53.119,0,0,1-4.207-5.658,49.021,49.021,0,0,1-2.94-5.95A41.05,41.05,0,0,1,1.2,55.832a38.383,38.383,0,0,1-.769-4.67C.3,50.038.284,48.906.135,47.791A12.407,12.407,0,0,1,0,46.031c.016-2.256.325-4.477.558-6.712A41.769,41.769,0,0,1,1.742,33.4a47.586,47.586,0,0,1,1.866-5.373,41.9,41.9,0,0,1,2.4-4.844,38.778,38.778,0,0,1,3.245-4.877,43.537,43.537,0,0,1,4.827-5.529,45.915,45.915,0,0,1,12.666-8.6A47.1,47.1,0,0,1,35.8,1.118a46.718,46.718,0,0,1,6-.912A34.751,34.751,0,0,1,48.095.1a72.435,72.435,0,0,1,7.515,1.038,47.117,47.117,0,0,1,9.018,2.938,34.2,34.2,0,0,1,7.24,4.159,38.745,38.745,0,0,1,4.6,3.658,56.59,56.59,0,0,1,5.013,5.368A46.8,46.8,0,0,1,86.6,25.188a49.67,49.67,0,0,1,3.566,10.1,45.045,45.045,0,0,1,.9,5.072,14.72,14.72,0,0,1,.208,4.826c-.037.179.127.392.128.59a42.5,42.5,0,0,1-.253,4.455c-.132,1.328-.364,2.635-.572,3.95a42.564,42.564,0,0,1-1.614,6.207,42.147,42.147,0,0,1-6.75,12.886,47.674,47.674,0,0,1-3.264,3.895A42.415,42.415,0,0,1,71.9,83.1a28.357,28.357,0,0,1-3.984,2.48,1.6,1.6,0,0,0-.465.423,1.061,1.061,0,0,0-.109,1.126c.164.38.549.03.78-.067a7.326,7.326,0,0,1,8.2,2.189c.321.4.543.435.965.132a7.253,7.253,0,0,1,10.371,2.376c.218.407.423.488.8.227a5.294,5.294,0,0,1,2.768-.886,7.586,7.586,0,0,1,5.162,1.586,7.458,7.458,0,0,1,2.785,5.658c.3,4.455.006,8.912.131,12.508M67.412,75.84c0,1.894,0,3.327,0,4.761,0,.218-.15.511.13.633.209.091.381-.132.553-.241A41.3,41.3,0,0,0,82.027,66.425,40.868,40.868,0,0,0,87.471,44.78a25.233,25.233,0,0,0-.437-4.7c-.186-.874-.2-1.863-.364-2.778a36.737,36.737,0,0,0-2.631-8.365,40.816,40.816,0,0,0-9.413-13.393,39.606,39.606,0,0,0-7.87-5.8,56.931,56.931,0,0,0-5.089-2.612,39.81,39.81,0,0,0-13.545-3.1,41.376,41.376,0,0,0-9.091.463,39.432,39.432,0,0,0-10.76,3.3A42.158,42.158,0,0,0,4.859,37.179a39.367,39.367,0,0,0-.82,7.636,43.58,43.58,0,0,0,.967,10.139,39.328,39.328,0,0,0,3.628,9.881,41.952,41.952,0,0,0,9.475,12.133,42.662,42.662,0,0,0,9.984,6.558,39.782,39.782,0,0,0,10.184,3.248,26.723,26.723,0,0,0,3.845.577,58.921,58.921,0,0,0,9.67-.249c1.044-.144,1.114-.176,1.112-1.232,0-4.488,0-8.976-.019-13.464a5.976,5.976,0,0,1,.135-1.623,7.287,7.287,0,0,1,4.219-5.207,7.137,7.137,0,0,1,10.066,5.586,42.533,42.533,0,0,1,.105,4.678M56.816,89.87q0,8.249,0,16.5c0,.611.037,1.223.011,1.832a2.333,2.333,0,0,1-1.592,2.007,2.024,2.024,0,0,1-1.988-.858c-.522-.583-.673-1.361-1.183-1.955a37.147,37.147,0,0,0-3.133-3.473,6.445,6.445,0,0,0-4.792-2.01,2.687,2.687,0,0,0-2.467,3.31,10.835,10.835,0,0,0,1.038,2.866q2.81,5.477,5.653,10.938c.51.986,1.013,1.975,1.548,2.948.571,1.038,1.183,2.067,1.7,3.117.3.61.611,1.286.915,1.905.268.546.587,1.13.831,1.671a20.29,20.29,0,0,0,4.432,6.485,12.2,12.2,0,0,0,8.939,3.458c5.215-.081,10.433.048,15.65.059a10.5,10.5,0,0,0,3.551-.471,13.966,13.966,0,0,0,5.968-3.854,19.272,19.272,0,0,0,1.955-2.711,14.659,14.659,0,0,0,1.008-3.17,10.365,10.365,0,0,0,.352-3.3c.039-6.2.04-12.406.044-18.61,0-2.8.018-5.592-.044-8.387a2.978,2.978,0,0,0-2.021-2.847,4.772,4.772,0,0,0-1.776-.172c-1.476-.012-3.246,2-2.936,3.444a7.882,7.882,0,0,1,.075,2.5c-.162,1.548-1.162,2-2.536,1.792-.578-.089-.863-.663-1.3-.982a3.513,3.513,0,0,1-.1-1.16c.018-1.715.007-3.431.006-5.147A3.324,3.324,0,0,0,81.9,92.143a3.142,3.142,0,0,0-3.886,3.08c0,1.88-.01,3.76,0,5.64a2.584,2.584,0,0,1-.491,1.569,2.134,2.134,0,0,1-2.064.738,2.511,2.511,0,0,1-1.337-1.689c-.024-2.365-.061-4.73-.068-7.1-.007-2.309-.858-3.289-3.107-3.777a3.044,3.044,0,0,0-3.5,2.831c-.027,2.631-.018,5.263-.023,7.9a5.037,5.037,0,0,1-.131,1.466,1.931,1.931,0,0,1-3.768-.814c.018-1.225-.056-2.447-.05-3.672.044-8.272.021-16.544.016-24.816a9.785,9.785,0,0,0-.133-2.018,2.979,2.979,0,0,0-2.335-2.51A3.276,3.276,0,0,0,57.479,70.1a4,4,0,0,0-.664,2.636q0,8.565,0,17.132" transform="translate(0 0)"/>
        <path id="Trazado_818457" data-name="Trazado 818457" d="M70.5,78.874A42.68,42.68,0,0,0,70.4,74.2a7.137,7.137,0,0,0-10.066-5.586,7.287,7.287,0,0,0-4.219,5.207,5.974,5.974,0,0,0-.135,1.623c.022,4.488.016,8.976.02,13.464,0,1.056-.069,1.088-1.112,1.231a58.864,58.864,0,0,1-9.671.25,26.738,26.738,0,0,1-3.845-.577,39.782,39.782,0,0,1-10.185-3.248A42.662,42.662,0,0,1,21.2,80,41.953,41.953,0,0,1,11.726,67.87,39.326,39.326,0,0,1,8.1,57.989,43.614,43.614,0,0,1,7.131,47.85a39.367,39.367,0,0,1,.82-7.636A42.163,42.163,0,0,1,31.364,10.829a39.42,39.42,0,0,1,10.76-3.3,41.371,41.371,0,0,1,9.09-.463,39.8,39.8,0,0,1,13.545,3.1,57,57,0,0,1,5.089,2.611,39.611,39.611,0,0,1,7.87,5.8A40.807,40.807,0,0,1,87.13,31.967a36.737,36.737,0,0,1,2.631,8.365c.162.915.178,1.9.364,2.778a25.28,25.28,0,0,1,.437,4.7A40.868,40.868,0,0,1,85.12,69.46,41.3,41.3,0,0,1,71.191,84.027c-.171.109-.344.332-.553.241-.281-.122-.129-.415-.13-.633-.008-1.433,0-2.867,0-4.761M37.12,49.134h-.012q0,8,0,16a7.7,7.7,0,0,0,.081,1.333,1.851,1.851,0,0,0,2.644,1.438,9.284,9.284,0,0,0,1-.518q5.369-3.1,10.735-6.213,7.254-4.188,14.515-8.366c.915-.527,1.831-1.054,2.74-1.59a2,2,0,0,0,.085-3.582c-.409-.237-.822-.487-1.238-.725q-4.149-2.374-8.29-4.761-5.162-2.975-10.32-5.961c-1.953-1.129-3.9-2.267-5.857-3.393-1.078-.62-2.147-1.26-3.253-1.825a1.891,1.891,0,0,0-2.823,1.667c-.021,5.5-.008,11-.008,16.495M63.144,65.859c.282,0,.564-.007.845,0a4.558,4.558,0,0,1,.912.057,9.514,9.514,0,0,1,7.455,7.144,18.666,18.666,0,0,1,.3,2.348,2.038,2.038,0,0,0,1.971,1.745,2,2,0,0,0,1.822-2.023,11.957,11.957,0,0,0-2.286-7.454A13.284,13.284,0,0,0,51.15,69.629a11.951,11.951,0,0,0-1.216,5.36,2.192,2.192,0,0,0,1.925,2.168c.794.079,1.626-.727,1.9-1.739.161-.585.027-1.172.129-1.742a9.2,9.2,0,0,1,9.251-7.816" transform="translate(-3.092 -3.035)" fill="#7bc558"/>
        <path id="Trazado_818458" data-name="Trazado 818458" d="M88.742,142.7q0-8.566,0-17.132a4,4,0,0,1,.663-2.636,3.277,3.277,0,0,1,3.543-1.133,2.98,2.98,0,0,1,2.335,2.51,9.823,9.823,0,0,1,.133,2.018c.005,8.272.027,16.544-.016,24.816-.006,1.225.067,2.447.05,3.672a1.931,1.931,0,0,0,3.767.814,5,5,0,0,0,.131-1.466c.006-2.632,0-5.264.024-7.9a3.044,3.044,0,0,1,3.5-2.831c2.249.488,3.1,1.468,3.107,3.777.007,2.365.044,4.73.068,7.1A2.513,2.513,0,0,0,107.384,156a2.133,2.133,0,0,0,2.063-.738,2.581,2.581,0,0,0,.492-1.569c-.01-1.88,0-3.76,0-5.64a3.143,3.143,0,0,1,3.886-3.08,3.324,3.324,0,0,1,2.728,3.442c0,1.716.011,3.431-.007,5.147a3.509,3.509,0,0,0,.1,1.16c.439.319.724.892,1.3.982,1.374.213,2.374-.243,2.536-1.792a7.865,7.865,0,0,0-.074-2.5c-.31-1.44,1.459-3.456,2.936-3.444a4.773,4.773,0,0,1,1.776.172,2.978,2.978,0,0,1,2.02,2.847c.062,2.794.046,5.591.044,8.387,0,6.2,0,12.407-.044,18.61a10.381,10.381,0,0,1-.352,3.3,14.661,14.661,0,0,1-1.008,3.17,19.271,19.271,0,0,1-1.955,2.711,13.97,13.97,0,0,1-5.968,3.854,10.5,10.5,0,0,1-3.551.471c-5.217-.011-10.435-.14-15.65-.059a12.2,12.2,0,0,1-8.938-3.458,20.29,20.29,0,0,1-4.432-6.485c-.244-.541-.564-1.126-.832-1.671-.3-.619-.615-1.3-.915-1.905-.517-1.05-1.129-2.079-1.7-3.117-.535-.972-1.037-1.962-1.548-2.948q-2.831-5.466-5.652-10.938a10.834,10.834,0,0,1-1.038-2.866,2.686,2.686,0,0,1,2.467-3.31,6.445,6.445,0,0,1,4.792,2.01,37.063,37.063,0,0,1,3.133,3.473c.51.594.661,1.372,1.183,1.955a2.024,2.024,0,0,0,1.988.858,2.333,2.333,0,0,0,1.592-2.007c.026-.609-.011-1.221-.011-1.832q0-8.249,0-16.5" transform="translate(-31.927 -52.826)" fill="#f8f9fb"/>
        <path id="Trazado_818459" data-name="Trazado 818459" d="M60.125,67.352c0-5.5-.013-11,.008-16.494a1.892,1.892,0,0,1,2.824-1.667c1.106.565,2.175,1.205,3.253,1.825,1.956,1.126,3.9,2.263,5.858,3.393q5.158,2.983,10.32,5.961,4.141,2.388,8.29,4.761c.416.238.829.488,1.238.725a2,2,0,0,1-.086,3.582c-.909.536-1.825,1.063-2.739,1.59q-7.257,4.184-14.515,8.366-5.37,3.1-10.735,6.213a9.279,9.279,0,0,1-1,.518A1.851,1.851,0,0,1,60.2,84.687a7.59,7.59,0,0,1-.081-1.333q-.008-8,0-16Zm3.9,13.476a.993.993,0,0,0,.686-.253c3.526-2.059,7.085-4.061,10.581-6.173,3.711-2.242,7.5-4.354,11.263-6.51.145-.083.307-.122.33-.3.029-.23-.237-.226-.33-.268-1.405-.625-2.617-1.582-4-2.262-1.288-.632-2.475-1.536-3.74-2.266-1.459-.841-2.939-1.648-4.373-2.53-1.2-.738-2.426-1.439-3.631-2.166-.779-.47-1.593-.942-2.429-1.352-1.261-.618-2.443-1.395-3.671-2.082-.532-.3-.766-.15-.784.472-.011.4.038.8.039,1.193.021,8.152-.061,16.3.061,24.5" transform="translate(-26.097 -21.253)"/>
        <path id="Trazado_818460" data-name="Trazado 818460" d="M95.988,107.984a9.2,9.2,0,0,0-9.251,7.816c-.1.57.032,1.158-.129,1.742-.278,1.013-1.11,1.819-1.9,1.739a2.191,2.191,0,0,1-1.925-2.168,11.952,11.952,0,0,1,1.216-5.36,13.284,13.284,0,0,1,23.014-1.952,11.957,11.957,0,0,1,2.286,7.454,2,2,0,0,1-1.822,2.023,2.038,2.038,0,0,1-1.971-1.745,18.667,18.667,0,0,0-.3-2.348,9.514,9.514,0,0,0-7.455-7.144,4.56,4.56,0,0,0-.912-.057c-.281-.008-.563,0-.845,0" transform="translate(-35.936 -45.16)"/>
        <path id="Trazado_818461" data-name="Trazado 818461" d="M66.946,85.093c-.121-8.194-.04-16.346-.061-24.5,0-.4-.05-.8-.039-1.193.018-.622.251-.77.784-.472,1.228.687,2.41,1.463,3.671,2.082.835.41,1.65.882,2.429,1.352,1.2.727,2.43,1.428,3.631,2.166,1.434.882,2.914,1.689,4.373,2.53,1.265.73,2.451,1.634,3.74,2.266,1.386.68,2.6,1.636,4,2.262.093.041.359.037.33.268-.023.18-.185.219-.33.3-3.762,2.157-7.552,4.268-11.263,6.51-3.5,2.112-7.055,4.114-10.581,6.173a.993.993,0,0,1-.686.253" transform="translate(-29.02 -25.519)" fill="#f8f9fb"/>
      </g>
    </g>
  </g>
</svg>
