<svg xmlns="http://www.w3.org/2000/svg" xmlns:xlink="http://www.w3.org/1999/xlink" width="505" height="430" viewBox="0 0 505 430">
  <defs>
    <linearGradient id="linear-gradient" x1="0.5" x2="0.5" y2="1" gradientUnits="objectBoundingBox">
      <stop offset="0" stop-color="#f9fef5"/>
      <stop offset="1" stop-color="#e7f7f8"/>
    </linearGradient>
    <clipPath id="clip-path">
      <rect id="Rectángulo_376786" data-name="Rectángulo 376786" width="467.334" height="161.815" fill="none"/>
    </clipPath>
    <linearGradient id="linear-gradient-2" x1="0.5" x2="0.5" y2="1" gradientUnits="objectBoundingBox">
      <stop offset="0" stop-color="#fffad0"/>
      <stop offset="1" stop-color="#dbf9bd"/>
    </linearGradient>
  </defs>
  <g id="Grupo_1072920" data-name="Grupo 1072920" transform="translate(-18111 8426)">
    <g id="Grupo_1072476" data-name="Grupo 1072476" transform="translate(17806 -9391)">
      <rect id="Rectángulo_376022" data-name="Rectángulo 376022" width="505" height="430" transform="translate(305 965)" fill="url(#linear-gradient)"/>
    </g>
    <g id="Grupo_1072477" data-name="Grupo 1072477" transform="translate(17968 -11645)">
      <g id="Grupo_1072474" data-name="Grupo 1072474" transform="translate(180 3258)">
        <path id="Trazado_817541" data-name="Trazado 817541" d="M452.988,68.514l-3.124,74.761h-5.58l-3.2-60.255h-1.563l-5.95,60.255h-5.133L427.1,68.068Z" transform="translate(-413.841 10.403)" fill="#263238"/>
        <path id="Trazado_817542" data-name="Trazado 817542" d="M452.988,68.514l-3.124,74.761h-5.58l-3.2-60.255h-1.563l-5.95,60.255h-5.133L427.1,68.068Z" transform="translate(-413.841 10.403)" fill="none" stroke="#263238" stroke-linecap="round" stroke-linejoin="round" stroke-width="1"/>
        <path id="Trazado_817657" data-name="Trazado 817657" d="M0,0H20.978V47.364H0Z" transform="translate(15.938 25.57)" fill="#9b7295"/>
        <rect id="Rectángulo_376785" data-name="Rectángulo 376785" width="20.978" height="47.364" transform="translate(15.938 25.57)" fill="none" stroke="#263238" stroke-linecap="round" stroke-linejoin="round" stroke-width="1"/>
        <path id="Trazado_817543" data-name="Trazado 817543" d="M423.427,21.578l.54,78.555h10.965V23.016Z" transform="translate(-391.965 0.855)" fill="#fff"/>
        <path id="Trazado_817544" data-name="Trazado 817544" d="M423.427,21.578l.54,78.555h10.965V23.016Z" transform="translate(-391.965 0.855)" fill="none" stroke="#263238" stroke-linecap="round" stroke-linejoin="round" stroke-width="1"/>
        <path id="Trazado_817545" data-name="Trazado 817545" d="M430.35,47.827l-.18-26.249,2.141.268,2.353,8-3.056,2.7,2.876,3.236Z" transform="translate(-398.709 0.855)" fill="#fff"/>
        <path id="Trazado_817546" data-name="Trazado 817546" d="M430.35,47.827l-.18-26.249,2.141.268,2.353,8-3.056,2.7,2.876,3.236Z" transform="translate(-398.709 0.855)" fill="none" stroke="#263238" stroke-linecap="round" stroke-linejoin="round" stroke-width="1"/>
        <g id="Grupo_1072467" data-name="Grupo 1072467" transform="translate(0)">
          <g id="Grupo_1072466" data-name="Grupo 1072466" clip-path="url(#clip-path)">
            <path id="Trazado_817547" data-name="Trazado 817547" d="M410.113,22.961l13.909,26.99s.174,3.021-1.913,4.153-3.651.944-4.172.567-8.346-6.418-8.346-6.418Z" transform="translate(-368.556 2.104)" fill="#fff"/>
            <path id="Trazado_817548" data-name="Trazado 817548" d="M410.113,22.961l13.909,26.99s.174,3.021-1.913,4.153-3.651.944-4.172.567-8.346-6.418-8.346-6.418Z" transform="translate(-368.556 2.104)" fill="none" stroke="#263238" stroke-linecap="round" stroke-linejoin="round" stroke-width="1"/>
            <path id="Trazado_817549" data-name="Trazado 817549" d="M441.622,19.127v5.1l-2.782,4.908-4.52-5.662v-6.04Z" transform="translate(-411.018 1.597)" fill="#fff"/>
            <path id="Trazado_817550" data-name="Trazado 817550" d="M441.622,19.127v5.1l-2.782,4.908-4.52-5.662v-6.04Z" transform="translate(-411.018 1.597)" fill="none" stroke="#263238" stroke-linecap="round" stroke-linejoin="round" stroke-width="1"/>
            <path id="Trazado_817551" data-name="Trazado 817551" d="M437.019,22.385h.727A6.436,6.436,0,0,0,443.9,15.7V6.692a5.062,5.062,0,0,0-4.843-5.257h-3.354a5.063,5.063,0,0,0-4.844,5.257V15.7a6.436,6.436,0,0,0,6.157,6.684" transform="translate(-409.821 0.131)" fill="#fff"/>
            <path id="Trazado_817552" data-name="Trazado 817552" d="M437.019,22.385h.727A6.436,6.436,0,0,0,443.9,15.7V6.692a5.062,5.062,0,0,0-4.843-5.257h-3.354a5.063,5.063,0,0,0-4.844,5.257V15.7A6.436,6.436,0,0,0,437.019,22.385Z" transform="translate(-409.821 0.131)" fill="none" stroke="#263238" stroke-linecap="round" stroke-linejoin="round" stroke-width="1"/>
            <path id="Trazado_817553" data-name="Trazado 817553" d="M444.249,1.456s-3.977,1.608-3.854,2.181c.406,1.913,3.388,2.648,2.575,3.825a10.574,10.574,0,0,1-2.3,2.207l.136,3.09h-1.491a34.866,34.866,0,0,1-.678-7.5,4.244,4.244,0,0,1,5.617-3.8" transform="translate(-417.931 0.11)" fill="#263238"/>
            <path id="Trazado_817554" data-name="Trazado 817554" d="M444.249,1.456s-3.977,1.608-3.854,2.181c.406,1.913,3.388,2.648,2.575,3.825a10.574,10.574,0,0,1-2.3,2.207l.136,3.09h-1.491a34.866,34.866,0,0,1-.678-7.5A4.244,4.244,0,0,1,444.249,1.456Z" transform="translate(-417.931 0.11)" fill="none" stroke="#263238" stroke-linecap="round" stroke-linejoin="round" stroke-width="1"/>
            <path id="Trazado_817555" data-name="Trazado 817555" d="M434.4,1.435h3.031a4.343,4.343,0,0,1,1.177.167c-.106.56-.434,1.848-1.235,1.775-.893-.081-1.764-1.719-2.973-1.942" transform="translate(-408.081 0.131)" fill="#263238"/>
            <path id="Trazado_817556" data-name="Trazado 817556" d="M434.4,1.435h3.031a4.343,4.343,0,0,1,1.177.167c-.106.56-.434,1.848-1.235,1.775C436.479,3.3,435.608,1.658,434.4,1.435Z" transform="translate(-408.081 0.131)" fill="none" stroke="#263238" stroke-linecap="round" stroke-linejoin="round" stroke-width="1"/>
            <path id="Trazado_817557" data-name="Trazado 817557" d="M438.011,17.059s-1.021.555-3.063-.646" transform="translate(-408.039 1.504)" fill="none" stroke="#263238" stroke-linecap="round" stroke-linejoin="round" stroke-width="1"/>
            <path id="Trazado_817558" data-name="Trazado 817558" d="M436.155,10.454V16.5l-1.8-.952" transform="translate(-405.587 0.958)" fill="#fff"/>
            <path id="Trazado_817559" data-name="Trazado 817559" d="M436.155,10.454V16.5l-1.8-.952" transform="translate(-405.587 0.958)" fill="none" stroke="#263238" stroke-linecap="round" stroke-linejoin="round" stroke-width="1"/>
            <path id="Trazado_817560" data-name="Trazado 817560" d="M433.92,8.832a1.435,1.435,0,0,0-2.119,0" transform="translate(-400.783 0.767)" fill="#fff"/>
            <path id="Trazado_817561" data-name="Trazado 817561" d="M433.92,8.832a1.435,1.435,0,0,0-2.119,0" transform="translate(-400.783 0.767)" fill="none" stroke="#263238" stroke-linecap="round" stroke-linejoin="round" stroke-width="1"/>
            <path id="Trazado_817562" data-name="Trazado 817562" d="M439.227,8.97a2.166,2.166,0,0,0-2.955,0" transform="translate(-410.586 0.768)" fill="#fff"/>
            <path id="Trazado_817563" data-name="Trazado 817563" d="M439.227,8.97a2.166,2.166,0,0,0-2.955,0" transform="translate(-410.586 0.768)" fill="none" stroke="#263238" stroke-linecap="round" stroke-linejoin="round" stroke-width="1"/>
            <path id="Trazado_817564" data-name="Trazado 817564" d="M432.248,10.769c0,.6.2,1.081.449,1.081s.45-.484.45-1.081-.2-1.081-.45-1.081-.449.484-.449,1.081" transform="translate(-400.46 0.888)" fill="#263238"/>
            <path id="Trazado_817565" data-name="Trazado 817565" d="M437.231,10.769c0,.6.2,1.081.449,1.081s.449-.484.449-1.081-.2-1.081-.449-1.081-.449.484-.449,1.081" transform="translate(-410.453 0.888)" fill="#263238"/>
            <path id="Trazado_817566" data-name="Trazado 817566" d="M446.024,10.027s-.87-2.643-1.739-.755a5.99,5.99,0,0,0,.348,5.286.822.822,0,0,0,1.391.094Z" transform="translate(-424.983 0.787)" fill="#fff"/>
            <path id="Trazado_817567" data-name="Trazado 817567" d="M446.024,10.027s-.87-2.643-1.739-.755a5.99,5.99,0,0,0,.348,5.286.822.822,0,0,0,1.391.094Z" transform="translate(-424.983 0.787)" fill="none" stroke="#263238" stroke-linecap="round" stroke-linejoin="round" stroke-width="1"/>
            <path id="Trazado_817568" data-name="Trazado 817568" d="M457.925,21.924l-.522,81.727H441.582s1.565-40.392,1.565-40.958,1.739-5.851,1.739-5.851l-.7-33.974Z" transform="translate(-434.624 2.009)" fill="#fff"/>
            <path id="Trazado_817569" data-name="Trazado 817569" d="M457.925,21.924l-.522,81.727H441.582s1.565-40.392,1.565-40.958,1.739-5.851,1.739-5.851l-.7-33.974Z" transform="translate(-434.624 2.009)" fill="none" stroke="#263238" stroke-linecap="round" stroke-linejoin="round" stroke-width="1"/>
            <path id="Trazado_817570" data-name="Trazado 817570" d="M445.233,33.06l-3.651-2.265,2.256-8.667,2.959-.2L446.623,49.3l-4.867-13.034Z" transform="translate(-423.496 2.009)" fill="#fff"/>
            <path id="Trazado_817571" data-name="Trazado 817571" d="M445.233,33.06l-3.651-2.265,2.256-8.667,2.959-.2L446.623,49.3l-4.867-13.034Z" transform="translate(-423.496 2.009)" fill="none" stroke="#263238" stroke-linecap="round" stroke-linejoin="round" stroke-width="1"/>
            <path id="Trazado_817572" data-name="Trazado 817572" d="M464.218,48.835l-.522,5.473-24.34,2.832s-1.218-1.887,0-6.229S447.7,22.788,447.7,22.788l.582,22.41-1.451,2.882Z" transform="translate(-438.134 2.088)" fill="#fff"/>
            <path id="Trazado_817573" data-name="Trazado 817573" d="M464.218,48.835l-.522,5.473-24.34,2.832s-1.218-1.887,0-6.229S447.7,22.788,447.7,22.788l.582,22.41-1.451,2.882Z" transform="translate(-438.134 2.088)" fill="none" stroke="#263238" stroke-linecap="round" stroke-linejoin="round" stroke-width="1"/>
            <path id="Trazado_817574" data-name="Trazado 817574" d="M437.726,36.479,430.6,56.109H415.819L422.6,36.1Z" transform="translate(-388.519 3.308)" fill="#263238"/>
            <path id="Trazado_817575" data-name="Trazado 817575" d="M437.726,36.479,430.6,56.109H415.819L422.6,36.1Z" transform="translate(-388.519 3.308)" fill="none" stroke="#263238" stroke-linecap="round" stroke-linejoin="round" stroke-width="1"/>
            <path id="Trazado_817576" data-name="Trazado 817576" d="M429.609,46.846l2.839-1.808,1.99-.539-.4,1.4,4.974,2.809-.7,1.4-3.88.972-2.189.108-2.786-.539Z" transform="translate(-403.526 4.077)" fill="#fff"/>
            <path id="Trazado_817577" data-name="Trazado 817577" d="M429.609,46.846l2.839-1.808,1.99-.539-.4,1.4,4.974,2.809-.7,1.4-3.88.972-2.189.108-2.786-.539Z" transform="translate(-403.526 4.077)" fill="none" stroke="#263238" stroke-linecap="round" stroke-linejoin="round" stroke-width="1"/>
            <path id="Trazado_817578" data-name="Trazado 817578" d="M426.71,36.313l-.983,1.735-4.963,0,.685-1.806Z" transform="translate(-382.475 3.32)" fill="#fff"/>
            <path id="Trazado_817579" data-name="Trazado 817579" d="M426.71,36.313l-.983,1.735-4.963,0,.685-1.806Z" transform="translate(-382.475 3.32)" fill="none" stroke="#263238" stroke-linecap="round" stroke-linejoin="round" stroke-width="1"/>
            <path id="Trazado_817580" data-name="Trazado 817580" d="M427.528,138.309l8.453,4.18H421.627l.479-4.335Z" transform="translate(-392.613 12.657)" fill="#fff"/>
            <path id="Trazado_817581" data-name="Trazado 817581" d="M427.528,138.309l8.453,4.18H421.627l.479-4.335Z" transform="translate(-392.613 12.657)" fill="none" stroke="#263238" stroke-linecap="round" stroke-linejoin="round" stroke-width="1"/>
            <path id="Trazado_817582" data-name="Trazado 817582" d="M442.769,138.309l8.453,4.18H436.867l.479-4.335Z" transform="translate(-423.179 12.657)" fill="#fff"/>
            <path id="Trazado_817583" data-name="Trazado 817583" d="M442.769,138.309l8.453,4.18H436.867l.479-4.335Z" transform="translate(-423.179 12.657)" fill="none" stroke="#263238" stroke-linecap="round" stroke-linejoin="round" stroke-width="1"/>
          </g>
        </g>
        <g id="Grupo_1072469" data-name="Grupo 1072469" transform="translate(0)">
          <g id="Grupo_1072468" data-name="Grupo 1072468" clip-path="url(#clip-path)">
            <path id="Trazado_817584" data-name="Trazado 817584" d="M143.581,108.575s.483,10.6.6,14,4.823,15.313,5.305,16.1a7.687,7.687,0,0,0,1.929,1.7s2.653.523,3.015,1.309.723,1.832-.362,2.225-5.3,0-5.546-.393a21.532,21.532,0,0,1-.845-2.094,15.17,15.17,0,0,1-1.687-1.7c-.483-.654-1.206-1.57-1.206-1.57s-1.447.523-1.929-.786-4.7-15.051-5.185-15.967-2.049-5.366-2.291-5.759,1.929-9.292,3.134-10.47,4.581,2.487,5.064,3.4" transform="translate(176.426 9.614)" fill="#9b7295"/>
            <path id="Trazado_817585" data-name="Trazado 817585" d="M136.4,128.011a9.385,9.385,0,0,1,3.214-2.089l.269-.117a109.258,109.258,0,0,0,4.1,10.961,7.684,7.684,0,0,0,1.93,1.7s2.653.524,3.014,1.309.724,1.833-.361,2.225-5.305,0-5.547-.392a21.84,21.84,0,0,1-.844-2.095,15.138,15.138,0,0,1-1.687-1.7c-.483-.655-1.206-1.571-1.206-1.571s-1.447.523-1.93-.785c-.2-.544-1.042-3.222-1.994-6.239.35-.4.71-.8,1.041-1.208" transform="translate(181.925 11.526)" fill="#fff"/>
            <path id="Trazado_817586" data-name="Trazado 817586" d="M143.581,108.575s.483,10.6.6,14,4.823,15.313,5.305,16.1a7.687,7.687,0,0,0,1.929,1.7s2.653.523,3.015,1.309.723,1.832-.362,2.225-5.3,0-5.546-.393a21.532,21.532,0,0,1-.845-2.094,15.17,15.17,0,0,1-1.687-1.7c-.483-.654-1.206-1.57-1.206-1.57s-1.447.523-1.929-.786-4.7-15.051-5.185-15.967-2.049-5.366-2.291-5.759,1.929-9.292,3.134-10.47S143.1,107.659,143.581,108.575Z" transform="translate(176.426 9.614)" fill="none" stroke="#263238" stroke-miterlimit="10" stroke-width="1"/>
            <path id="Trazado_817587" data-name="Trazado 817587" d="M139.493,137.582c.812.219,1.976.613,2.207,1.116.362.785.723,1.832-.362,2.225s-5.3,0-5.546-.393a8.341,8.341,0,0,1-.429-.979,15.692,15.692,0,0,1,4.13-1.968" transform="translate(189.157 12.605)" fill="#263238"/>
            <path id="Trazado_817588" data-name="Trazado 817588" d="M139.493,137.582c.812.219,1.976.613,2.207,1.116.362.785.723,1.832-.362,2.225s-5.3,0-5.546-.393a8.341,8.341,0,0,1-.429-.979A15.692,15.692,0,0,1,139.493,137.582Z" transform="translate(189.157 12.605)" fill="none" stroke="#263238" stroke-miterlimit="10" stroke-width="1"/>
            <path id="Trazado_817589" data-name="Trazado 817589" d="M134.429,107.294s0,7.931-1.044,9.441-2.088-3.776-2.261-7.742" transform="translate(201.053 9.83)" fill="#fff"/>
            <path id="Trazado_817590" data-name="Trazado 817590" d="M134.429,107.294s0,7.931-1.044,9.441-2.088-3.776-2.261-7.742" transform="translate(201.053 9.83)" fill="none" stroke="#263238" stroke-miterlimit="10" stroke-width="1"/>
            <path id="Trazado_817591" data-name="Trazado 817591" d="M92.86,102.322S88.307,119,86.5,122.139s-3.376,5.759-3.5,8.638,1.568,10.733,1.568,10.733,3.5,1.44,3.5,2.356-4.7,1.44-5.908,1.047-2.291-1.047-2.411-2.094-.6-4.058-.964-4.189-1.808,1.047-1.808-.916,2.411-8.376,2.652-10.209.845-7.591,1.326-11.518S84.9,98.919,84.9,98.919Z" transform="translate(297.073 9.063)" fill="#9b7295"/>
            <path id="Trazado_817592" data-name="Trazado 817592" d="M86.927,142.528c-1.206-.393-2.291-1.047-2.411-2.094s-.6-4.058-.964-4.189-1.809,1.047-1.809-.916,2.411-8.377,2.653-10.209c.007-.051.015-.118.022-.175a14.464,14.464,0,0,1,3.72,1.254,9.548,9.548,0,0,0-.366,2.192c-.121,2.88,1.568,10.733,1.568,10.733s3.5,1.44,3.5,2.356-4.7,1.44-5.908,1.047" transform="translate(292.304 11.447)" fill="#fff"/>
            <path id="Trazado_817593" data-name="Trazado 817593" d="M92.86,102.322S88.307,119,86.5,122.139s-3.376,5.759-3.5,8.638,1.568,10.733,1.568,10.733,3.5,1.44,3.5,2.356-4.7,1.44-5.908,1.047-2.291-1.047-2.411-2.094-.6-4.058-.964-4.189-1.808,1.047-1.808-.916,2.411-8.376,2.652-10.209.845-7.591,1.326-11.518S84.9,98.919,84.9,98.919Z" transform="translate(297.073 9.063)" fill="none" stroke="#263238" stroke-miterlimit="10" stroke-width="1"/>
            <path id="Trazado_817594" data-name="Trazado 817594" d="M88.618,140.291c0,.916-4.7,1.44-5.908,1.047a6.543,6.543,0,0,1-.968-.4,5.268,5.268,0,0,1,.366-.647,8.207,8.207,0,0,1,3.014-2.356s3.5,1.44,3.5,2.356" transform="translate(296.52 12.637)" fill="#263238"/>
            <path id="Trazado_817595" data-name="Trazado 817595" d="M88.618,140.291c0,.916-4.7,1.44-5.908,1.047a6.543,6.543,0,0,1-.968-.4,5.268,5.268,0,0,1,.366-.647,8.207,8.207,0,0,1,3.014-2.356S88.618,139.375,88.618,140.291Z" transform="translate(296.52 12.637)" fill="none" stroke="#263238" stroke-miterlimit="10" stroke-width="1"/>
            <path id="Trazado_817596" data-name="Trazado 817596" d="M157.031,61.869s7.653,13.785,10.089,17.184,6.784,6.42,6.437,8.308a8.778,8.778,0,0,1-4.523,5.665c-2.261.944-4.523-.944-5.393-.944H157.2c-1.74,0-9.915-.944-14.438-1.511s-11.48,3.588-11.48,3.588-10.611,13.03-14.96,16.805-11.48,4.155-11.48,4.155-15.306-9.441-16.35-10.2-3.827-.944-3.827-.944-12.7,3.022-16.525,4.531-10.089,3.966-12,3.966-7.827-4.154-7.827-4.154-1.566.188-3.305,2.643a13.9,13.9,0,0,1-9.393,6.232,26.9,26.9,0,0,1-9.045-.189,8.411,8.411,0,0,1-1.914-.755c-.522-.378-2.261-1.7-2.261-1.7a36.952,36.952,0,0,0-4.349,15.3c-.522,8.875,1.218,15.485,2.088,16.429s5.741,3.209,5.393,4.531-6.089.755-7.48,0-1.565-2.643-2.434-3.4-2.435-.755-2.609-2.455-1.392-16.807-2.435-22.283-1.044-5.476-.348-8.875,3.305-9.819,2.957-14.163S9,86.229,8.829,80.186s-.7-15.673-.7-15.673S5.524,71.122,5.524,81.886,3.437,102.468,2.22,108.7s0,13.785,1.044,16.051,2.087,9.065,2.087,9.065l-2.26,5.476-.87-8.308-.7,3.776a56.986,56.986,0,0,1-.87-8.686c0-3.966-.348-15.3,0-18.694S4.132,94.727,4.48,84.151,3.785,66.59,5.872,62.058s9.742-8.308,14.612-9.441a59.832,59.832,0,0,1,12.524-1.888c3.305,0,10.089,1.888,10.785,1.888s46.269-.567,53.4-.567,11.306.189,17.916,3.209,11.306,5.854,18.613,5.854,15.307-3.21,18.438-3.4,4.871,4.155,4.871,4.155" transform="translate(293.256 4.648)" fill="#9b7295"/>
            <path id="Trazado_817597" data-name="Trazado 817597" d="M149.718,130.495a31.974,31.974,0,0,1,3.545-3.741c.079,6.875,1.437,11.757,2.174,12.558.87.944,5.741,3.21,5.393,4.532s-6.089.754-7.48,0-1.565-2.644-2.434-3.4-2.435-.755-2.609-2.455c-.066-.653-.288-3.283-.593-6.582a3.131,3.131,0,0,0,2.006-.913" transform="translate(157.954 11.613)" fill="#fff"/>
            <path id="Trazado_817598" data-name="Trazado 817598" d="M39.777,66.737S35.6,64.471,32.3,66.359s-9.394,8.119-7.306,8.875,9.219,2.644,11.48.378A13.886,13.886,0,0,0,39.6,70.136" transform="translate(402.856 6.011)" fill="none" stroke="#263238" stroke-miterlimit="10" stroke-width="1"/>
            <path id="Trazado_817599" data-name="Trazado 817599" d="M15.743,70.2a1.693,1.693,0,1,0,1.687-1.832A1.764,1.764,0,0,0,15.743,70.2" transform="translate(432.387 6.264)" fill="#263238"/>
            <path id="Trazado_817600" data-name="Trazado 817600" d="M3.3,81.52c1.218.189,5.045.189,5.045.189l.746-.038c.994,1.113,1.658,2.09,1.514,2.871a8.774,8.774,0,0,1-4.522,5.664,3.2,3.2,0,0,1-.463.127l-1.625-.315S.687,89.262.513,86.43s1.566-5.1,2.783-4.91" transform="translate(456.21 7.468)" fill="#fff"/>
            <path id="Trazado_817601" data-name="Trazado 817601" d="M3.533,83.249s2.783,1.7,1.392,2.266S1.619,84,3.533,83.249" transform="translate(459.278 7.627)" fill="#263238"/>
            <path id="Trazado_817602" data-name="Trazado 817602" d="M18.876,84.652c.174-2.266-.522-4.532,0-4.344s3.479-.189,6.089.944,2.608,3.777,4.7,5.288a8.118,8.118,0,0,1,2.609,2.644l-.155.071c-3.164-.269-8.981-.948-12.543-1.393a7.531,7.531,0,0,0-1.062-.045c.14-.98.288-2.148.366-3.166" transform="translate(416.451 7.357)" fill="#fff"/>
            <path id="Trazado_817603" data-name="Trazado 817603" d="M91.816,110.819a13.893,13.893,0,0,1-9.393,6.231,26.9,26.9,0,0,1-9.045-.189,8.39,8.39,0,0,1-1.914-.754c-.522-.378-2.261-1.7-2.261-1.7s.7-6.232,3.479-10.764,11.828-9.064,11.828-9.064-5.567-.755-8.35,1.322-2.261,4.91-4.7,5.1-3.827-5.477-3.827-5.477L69.2,87.593s5.392-4.344,6.609-6.61,1.218-10.008,3.305-14.352a6.8,6.8,0,0,1,6.437-3.965s8.7,4.154,8.349,7.175-3.827,9.064-3.827,9.064L89.9,83.249s2.957,3.966,4-2.455,4.348-8.5,5.392-7.553,2.783,5.664,1.392,8.875-2.956-.567-4,1.7A17.554,17.554,0,0,0,94.774,90.8c0,2.266,3.131,7.365,3.131,7.365s-2.957,4.155,1.217,5.1,6.61,1.511,9.046.567,2.956.944,4.7-2.265,3.827-6.61,3.827-6.61a71.584,71.584,0,0,1,8.175-3.21c3.305-.944,4.523-.944,5.045-2.454a35.322,35.322,0,0,0,2.261-9.631C132.346,75.7,130.954,74,130.954,74s-5.045,3.209-5.045.567-4.7-4.721,3.305-10.953,10.958-3.021,12.872-1.887,3.653-2.644,2.957-3.777a3.019,3.019,0,0,1,1.566-4.155c1.913-.755,4.87-2.077,6.262-1.133,0,0-1.392,7.554-1.218,8.876s-3.479,3.4-3.479,3.4a26.432,26.432,0,0,1-6.783,7.932c-4.175,3.022-6.436,4.532-6.263,9.63s.522,6.61,1.74,7.176,3.479,2.454,3.479,3.4,3.479,11.141,4.523,14.729a11.9,11.9,0,0,1,.513,3.3c-4.36-2.7-9.491-5.894-10.081-6.32-1.043-.755-3.826-.944-3.826-.944s-12.7,3.022-16.525,4.532-10.089,3.966-12,3.966-7.827-4.155-7.827-4.155-1.566.189-3.305,2.644" transform="translate(246.449 4.794)" fill="#fff"/>
            <path id="Trazado_817604" data-name="Trazado 817604" d="M152.4,111.762c-.058.135-.116.27-.175.414l-.025,0Z" transform="translate(161.885 10.239)" fill="none" stroke="#263238" stroke-miterlimit="10" stroke-width="1"/>
            <path id="Trazado_817605" data-name="Trazado 817605" d="M157.031,61.869s7.653,13.785,10.089,17.184,6.784,6.42,6.437,8.308a8.778,8.778,0,0,1-4.523,5.665c-2.261.944-4.523-.944-5.393-.944H157.2c-1.74,0-9.915-.944-14.438-1.511s-11.48,3.588-11.48,3.588-10.611,13.03-14.96,16.805-11.48,4.155-11.48,4.155-15.306-9.441-16.35-10.2-3.827-.944-3.827-.944-12.7,3.022-16.525,4.531-10.089,3.966-12,3.966-7.827-4.154-7.827-4.154-1.566.188-3.305,2.643a13.9,13.9,0,0,1-9.393,6.232,26.9,26.9,0,0,1-9.045-.189,8.411,8.411,0,0,1-1.914-.755c-.522-.378-2.261-1.7-2.261-1.7a36.952,36.952,0,0,0-4.349,15.3c-.522,8.875,1.218,15.485,2.088,16.429s5.741,3.209,5.393,4.531-6.089.755-7.48,0-1.565-2.643-2.434-3.4-2.435-.755-2.609-2.455-1.392-16.807-2.435-22.283-1.044-5.476-.348-8.875,3.305-9.819,2.957-14.163S9,86.229,8.829,80.186s-.7-15.673-.7-15.673S5.524,71.122,5.524,81.886,3.437,102.468,2.22,108.7s0,13.785,1.044,16.051,2.087,9.065,2.087,9.065l-2.26,5.476-.87-8.308-.7,3.776a56.986,56.986,0,0,1-.87-8.686c0-3.966-.348-15.3,0-18.694S4.132,94.727,4.48,84.151,3.785,66.59,5.872,62.058s9.742-8.308,14.612-9.441a59.832,59.832,0,0,1,12.524-1.888c3.305,0,10.089,1.888,10.785,1.888s46.269-.567,53.4-.567,11.306.189,17.916,3.209,11.306,5.854,18.613,5.854,15.307-3.21,18.438-3.4S157.031,61.869,157.031,61.869Z" transform="translate(293.256 4.648)" fill="none" stroke="#263238" stroke-miterlimit="10" stroke-width="1"/>
            <path id="Trazado_817606" data-name="Trazado 817606" d="M137.144,106.948s.7,6.987-.348,8.308-2.783-3.4-2.957-7.742" transform="translate(195.381 9.798)" fill="#fff"/>
            <path id="Trazado_817607" data-name="Trazado 817607" d="M137.144,106.948s.7,6.987-.348,8.308-2.783-3.4-2.957-7.742" transform="translate(195.381 9.798)" fill="none" stroke="#263238" stroke-miterlimit="10" stroke-width="1"/>
            <path id="Trazado_817608" data-name="Trazado 817608" d="M143.768,110.094s1.392,8.5-.348,9.63-3.479-9.253-3.479-10.008" transform="translate(182.322 10.052)" fill="#fff"/>
            <path id="Trazado_817609" data-name="Trazado 817609" d="M143.768,110.094s1.392,8.5-.348,9.63-3.479-9.253-3.479-10.008" transform="translate(182.322 10.052)" fill="none" stroke="#263238" stroke-miterlimit="10" stroke-width="1"/>
            <path id="Trazado_817610" data-name="Trazado 817610" d="M78.537,96.074s-.87,18.884-1.566,22.849-1.392,5.477-1.74,7.176.348,11.708.87,14.918,4.523,4.342,4.175,5.476-5.915.378-7.479-.189a5.033,5.033,0,0,1-2.957-4.72c0-2.266.348-16.807.348-16.807s-1.74-5.288-2.609-9.065S65.317,102.3,63.926,98.151s-1.044-6.987-.522-10.575,2.088-4.155,2.088-4.155" transform="translate(323.741 7.643)" fill="#9b7295"/>
            <path id="Trazado_817611" data-name="Trazado 817611" d="M63.008,133.338a7.491,7.491,0,0,1,3.4-3.119,4.2,4.2,0,0,1,2.146.108c.19,2.586.434,5.081.651,6.41.522,3.21,4.522,4.344,4.175,5.477s-5.915.378-7.48-.189a5.033,5.033,0,0,1-2.957-4.721c0-.608.026-2.106.062-3.966" transform="translate(330.634 11.921)" fill="#fff"/>
            <path id="Trazado_817612" data-name="Trazado 817612" d="M78.537,96.074s-.87,18.884-1.566,22.849-1.392,5.477-1.74,7.176.348,11.708.87,14.918,4.523,4.342,4.175,5.476-5.915.378-7.479-.189a5.033,5.033,0,0,1-2.957-4.72c0-2.266.348-16.807.348-16.807s-1.74-5.288-2.609-9.065S65.317,102.3,63.926,98.151s-1.044-6.987-.522-10.575,2.088-4.155,2.088-4.155" transform="translate(323.741 7.643)" fill="none" stroke="#263238" stroke-miterlimit="10" stroke-width="1"/>
            <path id="Trazado_817613" data-name="Trazado 817613" d="M62.946,141.386a10.18,10.18,0,0,1,3.589-3.615.988.988,0,0,1,.194-.064c1.274,1.989,3.8,2.9,3.522,3.813-.337,1.1-5.55.425-7.305-.133" transform="translate(333.767 12.616)" fill="#263238"/>
            <path id="Trazado_817614" data-name="Trazado 817614" d="M62.946,141.386a10.18,10.18,0,0,1,3.589-3.615.988.988,0,0,1,.194-.064c1.274,1.989,3.8,2.9,3.522,3.813C69.914,142.615,64.7,141.944,62.946,141.386Z" transform="translate(333.767 12.616)" fill="none" stroke="#263238" stroke-miterlimit="10" stroke-width="1"/>
            <path id="Trazado_817615" data-name="Trazado 817615" d="M147.775,142.7c.508-1.653,3.045-2.755,3.045-2.755l.535-.069c1.489.949,2.993,2.012,2.794,2.767-.289,1.1-4.288.892-6.436.358a3.033,3.033,0,0,1,.061-.3" transform="translate(164.634 12.815)" fill="#263238"/>
            <path id="Trazado_817616" data-name="Trazado 817616" d="M147.775,142.7c.508-1.653,3.045-2.755,3.045-2.755l.535-.069c1.489.949,2.993,2.012,2.794,2.767-.289,1.1-4.288.892-6.436.358A3.033,3.033,0,0,1,147.775,142.7Z" transform="translate(164.634 12.815)" fill="none" stroke="#263238" stroke-miterlimit="10" stroke-width="1"/>
            <path id="Trazado_817617" data-name="Trazado 817617" d="M23.772,57.479s3.479.567,3.131,2.455-3.131,2.077-4.175.755-1.044-4.91,0-5.288,1.044,2.077,1.044,2.077" transform="translate(418.339 5.072)" fill="#fff"/>
            <path id="Trazado_817618" data-name="Trazado 817618" d="M23.772,57.479s3.479.567,3.131,2.455-3.131,2.077-4.175.755-1.044-4.91,0-5.288S23.772,57.479,23.772,57.479Z" transform="translate(418.339 5.072)" fill="none" stroke="#263238" stroke-miterlimit="10" stroke-width="1"/>
          </g>
        </g>
        <g id="Grupo_1072471" data-name="Grupo 1072471" transform="translate(0)">
          <g id="Grupo_1072470" data-name="Grupo 1072470" clip-path="url(#clip-path)">
            <path id="Trazado_817619" data-name="Trazado 817619" d="M392.151,86.777h3.525V79.29c0-3.013-2.129-5.465-4.746-5.465H380.3c-.228,0-.482-.311-.482-.758s.253-.758.482-.758h20.343a4.329,4.329,0,0,0,4.006-4.584V66.659a4.329,4.329,0,0,0-4.006-4.584H375.216c-.228,0-.482-.312-.482-.759V59.893c0-.446.253-.758.482-.758h38.743V55.309H375.216a4.33,4.33,0,0,0-4.006,4.584v1.423a4.33,4.33,0,0,0,4.006,4.585h25.429c.228,0,.482.311.482.758v1.068c0,.446-.253.758-.482.758H380.3a4.625,4.625,0,0,0,0,9.167H390.93c.674,0,1.222.736,1.222,1.639Z" transform="translate(-319.895 5.067)" fill="#263238"/>
            <rect id="Rectángulo_376788" data-name="Rectángulo 376788" width="83.184" height="8.804" transform="translate(83.502 117.172)" fill="#263238"/>
            <rect id="Rectángulo_376789" data-name="Rectángulo 376789" width="83.184" height="8.804" transform="translate(83.502 117.172)" fill="none" stroke="#263238" stroke-miterlimit="10" stroke-width="1"/>
            <rect id="Rectángulo_376790" data-name="Rectángulo 376790" width="3.782" height="14.616" transform="translate(189.43 1.577)" fill="#fff"/>
            <rect id="Rectángulo_376791" data-name="Rectángulo 376791" width="3.782" height="14.616" transform="translate(189.43 1.577)" fill="none" stroke="#263238" stroke-miterlimit="10" stroke-width="1"/>
            <path id="Trazado_817620" data-name="Trazado 817620" d="M111.235,155.794h3.524V32.915a3.721,3.721,0,0,1,3.555-3.86h81.254a3.721,3.721,0,0,1,3.556,3.86V152.324h3.524V32.915c0-4.239-3.176-7.686-7.08-7.686H118.314c-3.9,0-7.079,3.447-7.079,7.686Z" transform="translate(148.833 2.311)" fill="#263238"/>
            <path id="Trazado_817621" data-name="Trazado 817621" d="M132.424,135.666l1.184.052a1.551,1.551,0,0,0,1.556-1.557l.692-18.545-4.173-.183-.692,18.546a1.576,1.576,0,0,0,1.434,1.688" transform="translate(199.763 10.576)" fill="#fff"/>
            <path id="Trazado_817622" data-name="Trazado 817622" d="M132.424,135.666l1.184.052a1.551,1.551,0,0,0,1.556-1.557l.692-18.545-4.173-.183-.692,18.546A1.576,1.576,0,0,0,132.424,135.666Z" transform="translate(199.763 10.576)" fill="none" stroke="#263238" stroke-miterlimit="10" stroke-width="1"/>
            <path id="Trazado_817659" data-name="Trazado 817659" d="M0,0,4.605.016l.007,2.293L.007,2.293Z" transform="matrix(-0.999, -0.04, 0.04, -0.999, 335.769, 127.884)" fill="#263238"/>
            <path id="Trazado_817660" data-name="Trazado 817660" d="M0,0,4.605.016l.007,2.293L.007,2.293Z" transform="matrix(-0.999, -0.04, 0.04, -0.999, 335.769, 127.884)" fill="none" stroke="#263238" stroke-width="1"/>
            <path id="Trazado_817623" data-name="Trazado 817623" d="M134.9,132.24h1.185a1.564,1.564,0,0,0,1.5-1.624v-18.56h-4.177v18.56a1.564,1.564,0,0,0,1.5,1.624" transform="translate(195.607 10.266)" fill="#fff"/>
            <path id="Trazado_817624" data-name="Trazado 817624" d="M134.9,132.24h1.185a1.564,1.564,0,0,0,1.5-1.624v-18.56h-4.177v18.56A1.564,1.564,0,0,0,134.9,132.24Z" transform="translate(195.607 10.266)" fill="none" stroke="#263238" stroke-miterlimit="10" stroke-width="1"/>
            <rect id="Rectángulo_376794" data-name="Rectángulo 376794" width="4.604" height="2.293" transform="translate(328.799 121.713)" fill="#263238"/>
            <rect id="Rectángulo_376795" data-name="Rectángulo 376795" width="4.604" height="2.293" transform="translate(328.799 121.713)" fill="none" stroke="#263238" stroke-miterlimit="10" stroke-width="1"/>
            <path id="Trazado_817625" data-name="Trazado 817625" d="M141.291,135.419l1.183-.076a1.582,1.582,0,0,0,1.4-1.717L142.866,115.1l-4.169.267,1.012,18.528a1.546,1.546,0,0,0,1.582,1.525" transform="translate(183.986 10.545)" fill="#fff"/>
            <path id="Trazado_817626" data-name="Trazado 817626" d="M141.291,135.419l1.183-.076a1.582,1.582,0,0,0,1.4-1.717L142.866,115.1l-4.169.267,1.012,18.528A1.546,1.546,0,0,0,141.291,135.419Z" transform="translate(183.986 10.545)" fill="none" stroke="#263238" stroke-miterlimit="10" stroke-width="1"/>
            <path id="Trazado_817661" data-name="Trazado 817661" d="M0,0,2.292.011l.023,4.606L.023,4.606Z" transform="translate(322.562 127.607) rotate(-93.393)" fill="#263238"/>
            <path id="Trazado_817662" data-name="Trazado 817662" d="M0,0,2.292.011l.023,4.606L.023,4.606Z" transform="translate(322.562 127.607) rotate(-93.393)" fill="none" stroke="#263238" stroke-width="1"/>
            <path id="Trazado_817627" data-name="Trazado 817627" d="M140.237,130.546l-.6,6.461-3.683-3.072" transform="translate(190.388 11.96)" fill="none" stroke="#263238" stroke-linecap="round" stroke-linejoin="round" stroke-width="2"/>
            <path id="Trazado_817628" data-name="Trazado 817628" d="M133.341,55.9V37.555c0-6.027,1.241-11.454,6.68-12.671a7,7,0,0,1,4.086.108c4.758,1.9,6.511,10.6,6.261,21.476s3.726,85.042,5.76,92.654c4.162,15.58,24.792,16.04,28.688,7.588l3.228-2.679" transform="translate(145.21 2.257)" fill="none" stroke="#263238" stroke-linecap="round" stroke-linejoin="round" stroke-width="2"/>
            <rect id="Rectángulo_376798" data-name="Rectángulo 376798" width="9.973" height="5.147" transform="translate(185.952 13.985)" fill="#fff"/>
            <rect id="Rectángulo_376799" data-name="Rectángulo 376799" width="9.973" height="5.147" transform="translate(185.952 13.985)" fill="none" stroke="#263238" stroke-miterlimit="10" stroke-width="1"/>
            <path id="Trazado_817629" data-name="Trazado 817629" d="M214.607,119.012h9.9a2.879,2.879,0,0,1,0,5.739h-9.9Z" transform="translate(24.382 10.904)" fill="#263238"/>
            <path id="Trazado_817630" data-name="Trazado 817630" d="M217.416,92.8v23.64c0,4.335-3.237,7.849-7.23,7.849H184.832" transform="translate(64.06 8.502)" fill="none" stroke="#263238" stroke-linecap="round" stroke-linejoin="round" stroke-width="3"/>
            <path id="Trazado_817631" data-name="Trazado 817631" d="M247.035,135.4V43.062c0-14.1,10.625-25.536,23.731-25.536h8.516c13.106,0,23.732,11.434,23.732,25.536V135.4Z" transform="translate(-84.086 1.606)" fill="#dedede"/>
            <path id="Trazado_817632" data-name="Trazado 817632" d="M247.035,135.4V43.062c0-14.1,10.625-25.536,23.731-25.536h8.516c13.106,0,23.732,11.434,23.732,25.536V135.4Z" transform="translate(-84.086 1.606)" fill="none" stroke="#263238" stroke-miterlimit="10" stroke-width="1"/>
            <path id="Trazado_817633" data-name="Trazado 817633" d="M257.187,125.5l1.489,16.337a.3.3,0,0,1-.528.238l-12.6-16.575Z" transform="translate(-38.259 11.498)" fill="#dedede"/>
            <path id="Trazado_817634" data-name="Trazado 817634" d="M257.187,125.5l1.489,16.337a.3.3,0,0,1-.528.238l-12.6-16.575Z" transform="translate(-38.259 11.498)" fill="none" stroke="#263238" stroke-miterlimit="10" stroke-width="1"/>
            <path id="Trazado_817635" data-name="Trazado 817635" d="M292.456,125.5l-1.488,16.337a.3.3,0,0,0,.527.238l12.6-16.575Z" transform="translate(-129.337 11.498)" fill="#dedede"/>
            <path id="Trazado_817636" data-name="Trazado 817636" d="M292.456,125.5l-1.488,16.337a.3.3,0,0,0,.527.238l12.6-16.575Z" transform="translate(-129.337 11.498)" fill="none" stroke="#263238" stroke-miterlimit="10" stroke-width="1"/>
            <path id="Trazado_817637" data-name="Trazado 817637" d="M315.791,135.4V43.062c0-14.1,10.625-25.536,23.731-25.536h8.516c13.106,0,23.732,11.434,23.732,25.536V135.4Z" transform="translate(-221.979 1.606)" fill="#dedede"/>
            <path id="Trazado_817638" data-name="Trazado 817638" d="M315.791,135.4V43.062c0-14.1,10.625-25.536,23.731-25.536h8.516c13.106,0,23.732,11.434,23.732,25.536V135.4Z" transform="translate(-221.979 1.606)" fill="none" stroke="#263238" stroke-miterlimit="10" stroke-width="1"/>
            <path id="Trazado_817639" data-name="Trazado 817639" d="M325.942,125.5l1.49,16.337a.3.3,0,0,1-.528.238l-12.6-16.575Z" transform="translate(-176.152 11.498)" fill="#dedede"/>
            <path id="Trazado_817640" data-name="Trazado 817640" d="M325.942,125.5l1.49,16.337a.3.3,0,0,1-.528.238l-12.6-16.575Z" transform="translate(-176.152 11.498)" fill="none" stroke="#263238" stroke-miterlimit="10" stroke-width="1"/>
            <path id="Trazado_817641" data-name="Trazado 817641" d="M361.213,125.5l-1.489,16.337a.3.3,0,0,0,.528.238l12.6-16.575Z" transform="translate(-267.231 11.498)" fill="#dedede"/>
            <path id="Trazado_817642" data-name="Trazado 817642" d="M361.213,125.5l-1.489,16.337a.3.3,0,0,0,.528.238l12.6-16.575Z" transform="translate(-267.231 11.498)" fill="none" stroke="#263238" stroke-miterlimit="10" stroke-width="1"/>
            <path id="Trazado_817643" data-name="Trazado 817643" d="M226.579,1.488H297a2,2,0,0,1,.423-.05h46.357a2.3,2.3,0,0,1,2.2,2.392V155.013H341.58V6.22H306.285V6.166H226.579Z" transform="translate(-106.487 0.132)" fill="#fff"/>
            <path id="Trazado_817644" data-name="Trazado 817644" d="M226.579,1.488H297a2,2,0,0,1,.423-.05h46.357a2.3,2.3,0,0,1,2.2,2.392V155.013H341.58V6.22H306.285V6.166H226.579Z" transform="translate(-106.487 0.132)" fill="none" stroke="#263238" stroke-miterlimit="10" stroke-width="1"/>
            <rect id="Rectángulo_376800" data-name="Rectángulo 376800" width="3.782" height="14.616" transform="translate(120.952 1.577)" fill="#fff"/>
            <rect id="Rectángulo_376801" data-name="Rectángulo 376801" width="3.782" height="14.616" transform="translate(120.952 1.577)" fill="none" stroke="#263238" stroke-miterlimit="10" stroke-width="1"/>
            <rect id="Rectángulo_376802" data-name="Rectángulo 376802" width="8.156" height="8.854" transform="translate(118.765 0.546)" fill="#263238"/>
            <rect id="Rectángulo_376803" data-name="Rectángulo 376803" width="8.156" height="8.854" transform="translate(118.765 0.546)" fill="none" stroke="#263238" stroke-miterlimit="10" stroke-width="1"/>
            <rect id="Rectángulo_376804" data-name="Rectángulo 376804" width="9.973" height="5.147" transform="translate(117.856 13.985)" fill="#fff"/>
            <rect id="Rectángulo_376805" data-name="Rectángulo 376805" width="9.973" height="5.147" transform="translate(117.856 13.985)" fill="none" stroke="#263238" stroke-miterlimit="10" stroke-width="1"/>
            <rect id="Rectángulo_376806" data-name="Rectángulo 376806" width="8.156" height="8.854" transform="translate(187.14 0.546)" fill="#263238"/>
            <rect id="Rectángulo_376807" data-name="Rectángulo 376807" width="8.156" height="8.854" transform="translate(187.14 0.546)" fill="none" stroke="#263238" stroke-miterlimit="10" stroke-width="1"/>
            <rect id="Rectángulo_376808" data-name="Rectángulo 376808" width="8.156" height="8.854" transform="translate(232.969 0.546)" fill="#263238"/>
            <rect id="Rectángulo_376809" data-name="Rectángulo 376809" width="8.156" height="8.854" transform="translate(232.969 0.546)" fill="none" stroke="#263238" stroke-miterlimit="10" stroke-width="1"/>
            <path id="Trazado_817645" data-name="Trazado 817645" d="M383.954,82.356H425.24a3.275,3.275,0,0,1,3.132,3.4v57.157a3.275,3.275,0,0,1-3.132,3.4H383.954a3.275,3.275,0,0,1-3.132-3.4V85.756a3.275,3.275,0,0,1,3.132-3.4" transform="translate(-343.974 7.545)" fill="#632059"/>
            <rect id="Rectángulo_376810" data-name="Rectángulo 376810" width="47.55" height="63.958" rx="3.115" transform="translate(36.849 89.901)" fill="none" stroke="#263238" stroke-miterlimit="10" stroke-width="1"/>
            <path id="Trazado_817646" data-name="Trazado 817646" d="M388.607,124.864c.525-8.625,7.118-15.449,15.2-15.449s14.671,6.824,15.2,15.449Z" transform="translate(-342.428 10.024)" fill="#fff"/>
            <path id="Trazado_817647" data-name="Trazado 817647" d="M388.607,124.864c.525-8.625,7.118-15.449,15.2-15.449s14.671,6.824,15.2,15.449Z" transform="translate(-342.428 10.024)" fill="none" stroke="#263238" stroke-miterlimit="10" stroke-width="1"/>
            <line id="Línea_974" data-name="Línea 974" x1="5.854" y1="10.532" transform="translate(56.192 124.06)" fill="none" stroke="#263238" stroke-miterlimit="10" stroke-width="1"/>
            <path id="Trazado_817648" data-name="Trazado 817648" d="M385.431,94.986a4.8,4.8,0,1,0,4.785-5.194,5,5,0,0,0-4.785,5.194" transform="translate(-315.237 8.227)" fill="#fff"/>
            <path id="Trazado_817649" data-name="Trazado 817649" d="M385.431,94.986a4.8,4.8,0,1,0,4.785-5.194A5,5,0,0,0,385.431,94.986Z" transform="translate(-315.237 8.227)" fill="none" stroke="#263238" stroke-linecap="round" stroke-linejoin="round" stroke-width="1"/>
            <path id="Trazado_817650" data-name="Trazado 817650" d="M399.707,94.986a4.8,4.8,0,1,0,4.785-5.194,5,5,0,0,0-4.785,5.194" transform="translate(-343.868 8.227)" fill="#fff"/>
            <path id="Trazado_817651" data-name="Trazado 817651" d="M399.707,94.986a4.8,4.8,0,1,0,4.785-5.194A5,5,0,0,0,399.707,94.986Z" transform="translate(-343.868 8.227)" fill="none" stroke="#263238" stroke-linecap="round" stroke-linejoin="round" stroke-width="1"/>
            <path id="Trazado_817652" data-name="Trazado 817652" d="M413.983,94.986a4.8,4.8,0,1,0,4.784-5.194,5,5,0,0,0-4.784,5.194" transform="translate(-372.499 8.227)" fill="#fff"/>
            <path id="Trazado_817653" data-name="Trazado 817653" d="M413.983,94.986a4.8,4.8,0,1,0,4.784-5.194A5,5,0,0,0,413.983,94.986Z" transform="translate(-372.499 8.227)" fill="none" stroke="#263238" stroke-linecap="round" stroke-linejoin="round" stroke-width="1"/>
            <line id="Línea_975" data-name="Línea 975" y1="3.643" transform="translate(74.979 103.212)" fill="#fff"/>
            <line id="Línea_976" data-name="Línea 976" y1="3.643" transform="translate(74.979 103.212)" fill="none" stroke="#263238" stroke-linecap="round" stroke-linejoin="round" stroke-width="1"/>
            <line id="Línea_977" data-name="Línea 977" x2="3.399" transform="translate(60.624 103.212)" fill="#fff"/>
            <line id="Línea_978" data-name="Línea 978" x2="3.399" transform="translate(60.624 103.212)" fill="none" stroke="#263238" stroke-linecap="round" stroke-linejoin="round" stroke-width="1"/>
            <line id="Línea_979" data-name="Línea 979" x1="2.965" y2="1.983" transform="translate(43.304 103.212)" fill="#fff"/>
            <line id="Línea_980" data-name="Línea 980" x1="2.965" y2="1.983" transform="translate(43.304 103.212)" fill="none" stroke="#263238" stroke-linecap="round" stroke-linejoin="round" stroke-width="1"/>
            <rect id="Rectángulo_376811" data-name="Rectángulo 376811" width="10.762" height="4.624" transform="translate(44.834 85.318)" fill="#fff"/>
            <rect id="Rectángulo_376812" data-name="Rectángulo 376812" width="10.762" height="4.624" transform="translate(44.834 85.318)" fill="none" stroke="#263238" stroke-miterlimit="10" stroke-width="1"/>
            <path id="Trazado_817654" data-name="Trazado 817654" d="M186.278,96.068h1.4c6.2,0,11.231-5.459,11.231-12.193V69.261c0-6.734-5.028-12.193-11.231-12.193h-1.4c-6.2,0-11.232,5.459-11.232,12.193V83.875c0,6.734,5.029,12.193,11.232,12.193" transform="translate(92.408 5.228)" fill="#fff"/>
            <path id="Rectángulo_376813" data-name="Rectángulo 376813" d="M11.169,0h1.524a11.17,11.17,0,0,1,11.17,11.17V27.83A11.17,11.17,0,0,1,12.693,39H11.17A11.17,11.17,0,0,1,0,27.83V11.169A11.169,11.169,0,0,1,11.169,0Z" transform="translate(267.454 62.296)" fill="none" stroke="#263238" stroke-miterlimit="10" stroke-width="1"/>
            <rect id="Rectángulo_376814" data-name="Rectángulo 376814" width="6.941" height="3.416" transform="translate(275.916 58.88)" fill="#263238"/>
            <rect id="Rectángulo_376815" data-name="Rectángulo 376815" width="6.941" height="3.416" transform="translate(275.916 58.88)" fill="none" stroke="#263238" stroke-miterlimit="10" stroke-width="1"/>
            <path id="Trazado_817655" data-name="Trazado 817655" d="M189.066,95.176h-4.18c-5.435,0-9.841-4.783-9.841-10.684V67.658c3.313,1.154,8.941,2.6,13.132,1.035a25.053,25.053,0,0,1,10.73-1.834V84.492c0,5.9-4.406,10.684-9.841,10.684" transform="translate(92.41 6.121)" fill="#fff"/>
            <path id="Trazado_817656" data-name="Trazado 817656" d="M189.066,95.176h-4.18c-5.435,0-9.841-4.783-9.841-10.684V67.658c3.313,1.154,8.941,2.6,13.132,1.035a25.053,25.053,0,0,1,10.73-1.834V84.492C198.908,90.392,194.5,95.176,189.066,95.176Z" transform="translate(92.41 6.121)" fill="none" stroke="#263238" stroke-miterlimit="10" stroke-width="1"/>
          </g>
        </g>
        <path id="Trazado_817658" data-name="Trazado 817658" d="M0,0H458.358V6.873H0Z" transform="translate(0.52 154.422)" fill="#fffad0"/>
        <g id="Grupo_1072473" data-name="Grupo 1072473" transform="translate(0)">
          <g id="Grupo_1072472" data-name="Grupo 1072472" clip-path="url(#clip-path)">
            <rect id="Rectángulo_376818" data-name="Rectángulo 376818" width="458.652" height="7.217" transform="translate(0.503 154.052)" fill="none" stroke="#263238" stroke-miterlimit="10" stroke-width="1"/>
          </g>
        </g>
      </g>
      <path id="Trazado_819122" data-name="Trazado 819122" d="M14,0H355a14,14,0,0,1,0,28H14A14,14,0,0,1,14,0Z" transform="translate(223 3441)" fill="url(#linear-gradient-2)"/>
      <path id="Trazado_819123" data-name="Trazado 819123" d="M14,0H355a14,14,0,0,1,0,28H14A14,14,0,0,1,14,0Z" transform="translate(223 3484)" fill="url(#linear-gradient-2)"/>
      <path id="Trazado_819124" data-name="Trazado 819124" d="M14,0H355a14,14,0,0,1,0,28H14A14,14,0,0,1,14,0Z" transform="translate(223 3520)" fill="url(#linear-gradient-2)"/>
      <path id="Trazado_819125" data-name="Trazado 819125" d="M14,0H355a14,14,0,0,1,0,28H14A14,14,0,0,1,14,0Z" transform="translate(223 3556)" fill="url(#linear-gradient-2)"/>
      <path id="Trazado_819126" data-name="Trazado 819126" d="M14,0H355a14,14,0,0,1,0,28H14A14,14,0,0,1,14,0Z" transform="translate(223 3599)" fill="url(#linear-gradient-2)"/>
      <path id="Trazado_819127" data-name="Trazado 819127" d="M3.508,0H1.164V-11.375H3.508Zm4.1-8.453.07.977a2.951,2.951,0,0,1,2.43-1.133,2.453,2.453,0,0,1,2,.789,3.682,3.682,0,0,1,.672,2.359V0H10.523V-5.406a1.465,1.465,0,0,0-.312-1.043,1.4,1.4,0,0,0-1.039-.324,1.553,1.553,0,0,0-1.43.813V0H5.484V-8.453Zm10.047,5.7,1.57-5.7h2.359L18.734,0H16.578L13.727-8.453h2.359ZM26.367.156A4.15,4.15,0,0,1,23.34-.984a4.054,4.054,0,0,1-1.168-3.039v-.219a5.106,5.106,0,0,1,.492-2.277,3.612,3.612,0,0,1,1.395-1.547,3.914,3.914,0,0,1,2.059-.543,3.508,3.508,0,0,1,2.73,1.094,4.444,4.444,0,0,1,1,3.1v.922H24.461a2.1,2.1,0,0,0,.66,1.328,2,2,0,0,0,1.395.5,2.437,2.437,0,0,0,2.039-.945l1.109,1.242A3.389,3.389,0,0,1,28.289-.246,4.511,4.511,0,0,1,26.367.156Zm-.258-6.945a1.411,1.411,0,0,0-1.09.455,2.357,2.357,0,0,0-.535,1.3h3.141v-.181a1.681,1.681,0,0,0-.406-1.165A1.456,1.456,0,0,0,26.109-6.789ZM33.2-8.453l.07.977A2.951,2.951,0,0,1,35.7-8.609a2.453,2.453,0,0,1,2,.789,3.682,3.682,0,0,1,.672,2.359V0H36.117V-5.406A1.465,1.465,0,0,0,35.8-6.449a1.4,1.4,0,0,0-1.039-.324,1.553,1.553,0,0,0-1.43.813V0H31.078V-8.453Zm9.586-2.078v2.078h1.445V-6.8H42.789v4.219a1.007,1.007,0,0,0,.18.672.9.9,0,0,0,.688.2,3.6,3.6,0,0,0,.664-.055V-.047a4.648,4.648,0,0,1-1.367.2,2.156,2.156,0,0,1-2.422-2.4V-6.8H39.3V-8.453h1.234v-2.078ZM50.391,0a2.507,2.507,0,0,1-.227-.758,2.732,2.732,0,0,1-2.133.914,3,3,0,0,1-2.059-.719,2.312,2.312,0,0,1-.816-1.812,2.389,2.389,0,0,1,1-2.062,4.915,4.915,0,0,1,2.879-.727H50.07v-.484a1.393,1.393,0,0,0-.3-.937,1.183,1.183,0,0,0-.949-.352,1.345,1.345,0,0,0-.895.273.929.929,0,0,0-.324.75H45.344A2.268,2.268,0,0,1,45.8-7.273a3,3,0,0,1,1.281-.98,4.669,4.669,0,0,1,1.859-.355,3.689,3.689,0,0,1,2.48.785,2.747,2.747,0,0,1,.918,2.207v3.664a4.041,4.041,0,0,0,.336,1.82V0ZM48.523-1.57a1.945,1.945,0,0,0,.922-.223,1.462,1.462,0,0,0,.625-.6V-3.844h-.844q-1.7,0-1.8,1.172l-.008.133a.9.9,0,0,0,.3.7A1.153,1.153,0,0,0,48.523-1.57Zm10.3-4.766a6.134,6.134,0,0,0-.812-.062,1.654,1.654,0,0,0-1.68.867V0H54.07V-8.453H56.2l.063,1.008a2.092,2.092,0,0,1,1.883-1.164,2.366,2.366,0,0,1,.7.1ZM62.289,0H60.023V-8.453h2.266Zm-2.4-10.641a1.112,1.112,0,0,1,.34-.836,1.277,1.277,0,0,1,.926-.328,1.28,1.28,0,0,1,.922.328,1.105,1.105,0,0,1,.344.836,1.108,1.108,0,0,1-.348.844,1.283,1.283,0,0,1-.918.328,1.283,1.283,0,0,1-.918-.328A1.108,1.108,0,0,1,59.891-10.641ZM63.8-4.3a5.013,5.013,0,0,1,.484-2.242A3.546,3.546,0,0,1,65.676-8.07a4.069,4.069,0,0,1,2.113-.539,3.849,3.849,0,0,1,2.793,1.047,4.2,4.2,0,0,1,1.207,2.844l.016.578A4.418,4.418,0,0,1,70.719-1.02,3.775,3.775,0,0,1,67.8.156a3.793,3.793,0,0,1-2.918-1.172A4.5,4.5,0,0,1,63.8-4.2Zm2.258.16A3.16,3.16,0,0,0,66.508-2.3a1.5,1.5,0,0,0,1.3.638,1.5,1.5,0,0,0,1.281-.63,3.457,3.457,0,0,0,.461-2.015,3.128,3.128,0,0,0-.461-1.831,1.5,1.5,0,0,0-1.3-.649,1.474,1.474,0,0,0-1.281.646A3.516,3.516,0,0,0,66.055-4.144Zm10.773-.145a5.094,5.094,0,0,1,.887-3.148,2.877,2.877,0,0,1,2.426-1.172,2.589,2.589,0,0,1,2.039.922V-12h2.266V0H82.406L82.3-.9A2.657,2.657,0,0,1,80.125.156,2.869,2.869,0,0,1,77.73-1.02,5.258,5.258,0,0,1,76.828-4.289Zm2.258.168A3.337,3.337,0,0,0,79.5-2.3a1.349,1.349,0,0,0,1.2.634,1.511,1.511,0,0,0,1.477-.884V-5.889a1.489,1.489,0,0,0-1.461-.884Q79.086-6.773,79.086-4.121Zm11,4.277A4.15,4.15,0,0,1,87.059-.984a4.054,4.054,0,0,1-1.168-3.039v-.219a5.106,5.106,0,0,1,.492-2.277,3.612,3.612,0,0,1,1.395-1.547,3.914,3.914,0,0,1,2.059-.543,3.508,3.508,0,0,1,2.73,1.094,4.444,4.444,0,0,1,1,3.1v.922H88.18a2.1,2.1,0,0,0,.66,1.328,2,2,0,0,0,1.395.5,2.437,2.437,0,0,0,2.039-.945l1.109,1.242A3.389,3.389,0,0,1,92.008-.246,4.511,4.511,0,0,1,90.086.156Zm-.258-6.945a1.411,1.411,0,0,0-1.09.455,2.357,2.357,0,0,0-.535,1.3h3.141v-.181a1.681,1.681,0,0,0-.406-1.165A1.456,1.456,0,0,0,89.828-6.789Zm11.117-1.664.07.945a2.971,2.971,0,0,1,2.43-1.1,2.255,2.255,0,0,1,2.242,1.289,2.9,2.9,0,0,1,2.539-1.289,2.521,2.521,0,0,1,2.047.8,3.681,3.681,0,0,1,.672,2.41V0H108.68V-5.391a1.61,1.61,0,0,0-.281-1.051,1.246,1.246,0,0,0-.992-.332A1.409,1.409,0,0,0,106-5.8l.008,5.8H103.75V-5.383a1.59,1.59,0,0,0-.289-1.062,1.259,1.259,0,0,0-.984-.328,1.463,1.463,0,0,0-1.391.8V0H98.828V-8.453ZM117.578,0a2.507,2.507,0,0,1-.227-.758,2.732,2.732,0,0,1-2.133.914,3,3,0,0,1-2.059-.719,2.312,2.312,0,0,1-.816-1.812,2.389,2.389,0,0,1,1-2.062,4.915,4.915,0,0,1,2.879-.727h1.039v-.484a1.393,1.393,0,0,0-.3-.937,1.183,1.183,0,0,0-.949-.352,1.345,1.345,0,0,0-.895.273.929.929,0,0,0-.324.75h-2.258a2.268,2.268,0,0,1,.453-1.359,3,3,0,0,1,1.281-.98,4.669,4.669,0,0,1,1.859-.355,3.689,3.689,0,0,1,2.48.785,2.747,2.747,0,0,1,.918,2.207v3.664a4.041,4.041,0,0,0,.336,1.82V0Zm-1.867-1.57a1.945,1.945,0,0,0,.922-.223,1.462,1.462,0,0,0,.625-.6V-3.844h-.844q-1.7,0-1.8,1.172l-.008.133a.9.9,0,0,0,.3.7A1.153,1.153,0,0,0,115.711-1.57Zm8.25-8.961v2.078h1.445V-6.8h-1.445v4.219a1.007,1.007,0,0,0,.18.672.9.9,0,0,0,.688.2,3.6,3.6,0,0,0,.664-.055V-.047a4.648,4.648,0,0,1-1.367.2,2.156,2.156,0,0,1-2.422-2.4V-6.8h-1.234V-8.453H121.7v-2.078ZM130.555.156a4.15,4.15,0,0,1-3.027-1.141,4.054,4.054,0,0,1-1.168-3.039v-.219a5.106,5.106,0,0,1,.492-2.277,3.612,3.612,0,0,1,1.395-1.547,3.914,3.914,0,0,1,2.059-.543,3.508,3.508,0,0,1,2.73,1.094,4.444,4.444,0,0,1,1,3.1v.922h-5.383a2.1,2.1,0,0,0,.66,1.328,2,2,0,0,0,1.395.5,2.437,2.437,0,0,0,2.039-.945l1.109,1.242a3.389,3.389,0,0,1-1.375,1.121A4.511,4.511,0,0,1,130.555.156ZM130.3-6.789a1.411,1.411,0,0,0-1.09.455,2.357,2.357,0,0,0-.535,1.3h3.141v-.181a1.681,1.681,0,0,0-.406-1.165A1.456,1.456,0,0,0,130.3-6.789Zm9.766.453a6.134,6.134,0,0,0-.812-.062,1.654,1.654,0,0,0-1.68.867V0h-2.258V-8.453h2.133l.063,1.008a2.092,2.092,0,0,1,1.883-1.164,2.366,2.366,0,0,1,.7.1ZM143.531,0h-2.266V-8.453h2.266Zm-2.4-10.641a1.112,1.112,0,0,1,.34-.836,1.277,1.277,0,0,1,.926-.328,1.28,1.28,0,0,1,.922.328,1.105,1.105,0,0,1,.344.836,1.109,1.109,0,0,1-.348.844,1.283,1.283,0,0,1-.918.328,1.283,1.283,0,0,1-.918-.328A1.109,1.109,0,0,1,141.133-10.641ZM150.289,0a2.507,2.507,0,0,1-.227-.758,2.732,2.732,0,0,1-2.133.914,3,3,0,0,1-2.059-.719,2.312,2.312,0,0,1-.816-1.812,2.389,2.389,0,0,1,1-2.062,4.915,4.915,0,0,1,2.879-.727h1.039v-.484a1.393,1.393,0,0,0-.3-.937,1.183,1.183,0,0,0-.949-.352,1.345,1.345,0,0,0-.895.273.929.929,0,0,0-.324.75h-2.258a2.268,2.268,0,0,1,.453-1.359,3,3,0,0,1,1.281-.98,4.669,4.669,0,0,1,1.859-.355,3.689,3.689,0,0,1,2.48.785,2.747,2.747,0,0,1,.918,2.207v3.664a4.041,4.041,0,0,0,.336,1.82V0Zm-1.867-1.57a1.945,1.945,0,0,0,.922-.223,1.462,1.462,0,0,0,.625-.6V-3.844h-.844q-1.7,0-1.8,1.172l-.008.133a.9.9,0,0,0,.3.7A1.153,1.153,0,0,0,148.422-1.57Zm10.125-.766a.727.727,0,0,0-.41-.652,4.659,4.659,0,0,0-1.316-.426Q153.8-4.047,153.8-5.977a2.323,2.323,0,0,1,.934-1.879,3.766,3.766,0,0,1,2.441-.754,4.053,4.053,0,0,1,2.574.758,2.388,2.388,0,0,1,.965,1.969h-2.258a1.092,1.092,0,0,0-.312-.8A1.322,1.322,0,0,0,157.172-7a1.351,1.351,0,0,0-.883.258.814.814,0,0,0-.312.656.7.7,0,0,0,.355.605,3.657,3.657,0,0,0,1.2.4,9.8,9.8,0,0,1,1.422.379,2.336,2.336,0,0,1,1.789,2.273,2.205,2.205,0,0,1-.992,1.871,4.28,4.28,0,0,1-2.562.715A4.47,4.47,0,0,1,155.3-.223a3.166,3.166,0,0,1-1.293-1.039,2.414,2.414,0,0,1-.469-1.426h2.141a1.179,1.179,0,0,0,.445.922,1.766,1.766,0,0,0,1.109.32,1.635,1.635,0,0,0,.98-.246A.766.766,0,0,0,158.547-2.336Zm15.242-1.812A5.07,5.07,0,0,1,172.9-1.02,2.843,2.843,0,0,1,170.508.156a2.633,2.633,0,0,1-2.07-.891V3.25H166.18v-11.7h2.094l.078.828a2.654,2.654,0,0,1,2.141-.984,2.862,2.862,0,0,1,2.43,1.156,5.207,5.207,0,0,1,.867,3.188Zm-2.258-.164a3.327,3.327,0,0,0-.418-1.82,1.361,1.361,0,0,0-1.215-.641,1.479,1.479,0,0,0-1.461.813V-2.5a1.5,1.5,0,0,0,1.477.836Q171.531-1.664,171.531-4.312Zm8.406-2.023a6.134,6.134,0,0,0-.812-.062,1.654,1.654,0,0,0-1.68.867V0h-2.258V-8.453h2.133l.063,1.008a2.092,2.092,0,0,1,1.883-1.164,2.366,2.366,0,0,1,.7.1ZM183.406,0h-2.266V-8.453h2.266Zm-2.4-10.641a1.112,1.112,0,0,1,.34-.836,1.277,1.277,0,0,1,.926-.328,1.28,1.28,0,0,1,.922.328,1.105,1.105,0,0,1,.344.836,1.109,1.109,0,0,1-.348.844,1.283,1.283,0,0,1-.918.328,1.283,1.283,0,0,1-.918-.328A1.109,1.109,0,0,1,181.008-10.641Zm6.375,2.188.07.945a2.971,2.971,0,0,1,2.43-1.1,2.255,2.255,0,0,1,2.242,1.289,2.9,2.9,0,0,1,2.539-1.289,2.521,2.521,0,0,1,2.047.8,3.681,3.681,0,0,1,.672,2.41V0h-2.266V-5.391a1.61,1.61,0,0,0-.281-1.051,1.246,1.246,0,0,0-.992-.332,1.409,1.409,0,0,0-1.406.969l.008,5.8h-2.258V-5.383a1.59,1.59,0,0,0-.289-1.062,1.259,1.259,0,0,0-.984-.328,1.463,1.463,0,0,0-1.391.8V0h-2.258V-8.453ZM204.016,0a2.507,2.507,0,0,1-.227-.758,2.732,2.732,0,0,1-2.133.914A3,3,0,0,1,199.6-.562a2.312,2.312,0,0,1-.816-1.812,2.389,2.389,0,0,1,1-2.062,4.915,4.915,0,0,1,2.879-.727H203.7v-.484a1.393,1.393,0,0,0-.3-.937,1.183,1.183,0,0,0-.949-.352,1.345,1.345,0,0,0-.895.273.929.929,0,0,0-.324.75h-2.258a2.268,2.268,0,0,1,.453-1.359,3,3,0,0,1,1.281-.98,4.669,4.669,0,0,1,1.859-.355,3.689,3.689,0,0,1,2.48.785,2.747,2.747,0,0,1,.918,2.207v3.664a4.041,4.041,0,0,0,.336,1.82V0Zm-1.867-1.57a1.945,1.945,0,0,0,.922-.223,1.462,1.462,0,0,0,.625-.6V-3.844h-.844q-1.7,0-1.8,1.172l-.008.133a.9.9,0,0,0,.3.7A1.153,1.153,0,0,0,202.148-1.57Zm10.125-.766a.727.727,0,0,0-.41-.652,4.659,4.659,0,0,0-1.316-.426q-3.016-.633-3.016-2.562a2.323,2.323,0,0,1,.934-1.879,3.766,3.766,0,0,1,2.441-.754,4.053,4.053,0,0,1,2.574.758,2.388,2.388,0,0,1,.965,1.969h-2.258a1.092,1.092,0,0,0-.312-.8A1.322,1.322,0,0,0,210.9-7a1.351,1.351,0,0,0-.883.258.814.814,0,0,0-.312.656.7.7,0,0,0,.355.605,3.657,3.657,0,0,0,1.2.4,9.8,9.8,0,0,1,1.422.379,2.336,2.336,0,0,1,1.789,2.273,2.205,2.205,0,0,1-.992,1.871,4.28,4.28,0,0,1-2.562.715,4.47,4.47,0,0,1-1.887-.379,3.166,3.166,0,0,1-1.293-1.039,2.414,2.414,0,0,1-.469-1.426h2.141a1.179,1.179,0,0,0,.445.922,1.766,1.766,0,0,0,1.109.32,1.635,1.635,0,0,0,.98-.246A.766.766,0,0,0,212.273-2.336ZM223.8.156A4.15,4.15,0,0,1,220.77-.984,4.054,4.054,0,0,1,219.6-4.023v-.219a5.106,5.106,0,0,1,.492-2.277,3.612,3.612,0,0,1,1.395-1.547,3.914,3.914,0,0,1,2.059-.543,3.508,3.508,0,0,1,2.73,1.094,4.444,4.444,0,0,1,1,3.1v.922h-5.383a2.1,2.1,0,0,0,.66,1.328,2,2,0,0,0,1.395.5,2.437,2.437,0,0,0,2.039-.945l1.109,1.242a3.389,3.389,0,0,1-1.375,1.121A4.511,4.511,0,0,1,223.8.156Zm-.258-6.945a1.411,1.411,0,0,0-1.09.455,2.357,2.357,0,0,0-.535,1.3h3.141v-.181a1.681,1.681,0,0,0-.406-1.165A1.456,1.456,0,0,0,223.539-6.789ZM234.922,0h-2.266V-8.453h2.266Zm-2.4-10.641a1.112,1.112,0,0,1,.34-.836,1.277,1.277,0,0,1,.926-.328,1.28,1.28,0,0,1,.922.328,1.105,1.105,0,0,1,.344.836,1.109,1.109,0,0,1-.348.844,1.283,1.283,0,0,1-.918.328,1.283,1.283,0,0,1-.918-.328A1.109,1.109,0,0,1,232.523-10.641Zm6.336,2.188.07.977a2.951,2.951,0,0,1,2.43-1.133,2.453,2.453,0,0,1,2,.789,3.682,3.682,0,0,1,.672,2.359V0h-2.258V-5.406a1.465,1.465,0,0,0-.312-1.043,1.4,1.4,0,0,0-1.039-.324,1.553,1.553,0,0,0-1.43.813V0h-2.258V-8.453ZM250.32-2.336a.727.727,0,0,0-.41-.652,4.659,4.659,0,0,0-1.316-.426q-3.016-.633-3.016-2.562a2.323,2.323,0,0,1,.934-1.879,3.766,3.766,0,0,1,2.441-.754,4.053,4.053,0,0,1,2.574.758,2.388,2.388,0,0,1,.965,1.969h-2.258a1.092,1.092,0,0,0-.312-.8A1.322,1.322,0,0,0,248.945-7a1.351,1.351,0,0,0-.883.258.814.814,0,0,0-.312.656.7.7,0,0,0,.355.605,3.657,3.657,0,0,0,1.2.4,9.8,9.8,0,0,1,1.422.379,2.336,2.336,0,0,1,1.789,2.273,2.205,2.205,0,0,1-.992,1.871,4.28,4.28,0,0,1-2.562.715,4.47,4.47,0,0,1-1.887-.379,3.166,3.166,0,0,1-1.293-1.039,2.414,2.414,0,0,1-.469-1.426h2.141a1.179,1.179,0,0,0,.445.922,1.766,1.766,0,0,0,1.109.32,1.635,1.635,0,0,0,.98-.246A.766.766,0,0,0,250.32-2.336Zm8.711,1.477A2.831,2.831,0,0,1,256.719.156a2.67,2.67,0,0,1-2.074-.781,3.335,3.335,0,0,1-.73-2.289V-8.453h2.258v5.467q0,1.322,1.2,1.322a1.63,1.63,0,0,0,1.578-.8V-8.453h2.266V0h-2.125Zm6.008-7.594.07.945a2.971,2.971,0,0,1,2.43-1.1,2.255,2.255,0,0,1,2.242,1.289,2.9,2.9,0,0,1,2.539-1.289,2.521,2.521,0,0,1,2.047.8,3.681,3.681,0,0,1,.672,2.41V0h-2.266V-5.391a1.61,1.61,0,0,0-.281-1.051,1.246,1.246,0,0,0-.992-.332,1.409,1.409,0,0,0-1.406.969L270.1,0h-2.258V-5.383a1.59,1.59,0,0,0-.289-1.062,1.259,1.259,0,0,0-.984-.328,1.463,1.463,0,0,0-1.391.8V0h-2.258V-8.453ZM276.422-4.3a5.013,5.013,0,0,1,.484-2.242A3.546,3.546,0,0,1,278.3-8.07a4.069,4.069,0,0,1,2.113-.539,3.849,3.849,0,0,1,2.793,1.047,4.2,4.2,0,0,1,1.207,2.844l.016.578a4.418,4.418,0,0,1-1.086,3.121A3.775,3.775,0,0,1,280.43.156a3.793,3.793,0,0,1-2.918-1.172,4.5,4.5,0,0,1-1.09-3.187Zm2.258.16a3.16,3.16,0,0,0,.453,1.843,1.5,1.5,0,0,0,1.3.638,1.5,1.5,0,0,0,1.281-.63,3.458,3.458,0,0,0,.461-2.015,3.128,3.128,0,0,0-.461-1.831,1.5,1.5,0,0,0-1.3-.649,1.474,1.474,0,0,0-1.281.646A3.516,3.516,0,0,0,278.68-4.144ZM290.4-2.336a.727.727,0,0,0-.41-.652,4.659,4.659,0,0,0-1.316-.426q-3.016-.633-3.016-2.562a2.323,2.323,0,0,1,.934-1.879,3.766,3.766,0,0,1,2.441-.754,4.053,4.053,0,0,1,2.574.758,2.388,2.388,0,0,1,.965,1.969h-2.258a1.092,1.092,0,0,0-.312-.8A1.322,1.322,0,0,0,289.023-7a1.351,1.351,0,0,0-.883.258.814.814,0,0,0-.312.656.7.7,0,0,0,.355.605,3.657,3.657,0,0,0,1.2.4A9.8,9.8,0,0,1,290.8-4.7a2.336,2.336,0,0,1,1.789,2.273A2.2,2.2,0,0,1,291.6-.559a4.28,4.28,0,0,1-2.562.715,4.47,4.47,0,0,1-1.887-.379,3.166,3.166,0,0,1-1.293-1.039,2.414,2.414,0,0,1-.469-1.426h2.141a1.179,1.179,0,0,0,.445.922,1.766,1.766,0,0,0,1.109.32,1.635,1.635,0,0,0,.98-.246A.766.766,0,0,0,290.4-2.336Zm3.766,1.227a1.137,1.137,0,0,1,.363-.875,1.289,1.289,0,0,1,.91-.336,1.3,1.3,0,0,1,.918.336,1.137,1.137,0,0,1,.363.875,1.121,1.121,0,0,1-.359.863,1.305,1.305,0,0,1-.922.332,1.294,1.294,0,0,1-.914-.332A1.121,1.121,0,0,1,294.164-1.109Z" transform="translate(257 3461)" fill="#12263f"/>
      <path id="Trazado_819128" data-name="Trazado 819128" d="M3.508,0H1.164V-11.375H3.508Zm4.1-8.453.07.977a2.951,2.951,0,0,1,2.43-1.133,2.453,2.453,0,0,1,2,.789,3.682,3.682,0,0,1,.672,2.359V0H10.523V-5.406a1.465,1.465,0,0,0-.312-1.043,1.4,1.4,0,0,0-1.039-.324,1.553,1.553,0,0,0-1.43.813V0H5.484V-8.453Zm10.047,5.7,1.57-5.7h2.359L18.734,0H16.578L13.727-8.453h2.359ZM26.367.156A4.15,4.15,0,0,1,23.34-.984a4.054,4.054,0,0,1-1.168-3.039v-.219a5.106,5.106,0,0,1,.492-2.277,3.612,3.612,0,0,1,1.395-1.547,3.914,3.914,0,0,1,2.059-.543,3.508,3.508,0,0,1,2.73,1.094,4.444,4.444,0,0,1,1,3.1v.922H24.461a2.1,2.1,0,0,0,.66,1.328,2,2,0,0,0,1.395.5,2.437,2.437,0,0,0,2.039-.945l1.109,1.242A3.389,3.389,0,0,1,28.289-.246,4.511,4.511,0,0,1,26.367.156Zm-.258-6.945a1.411,1.411,0,0,0-1.09.455,2.357,2.357,0,0,0-.535,1.3h3.141v-.181a1.681,1.681,0,0,0-.406-1.165A1.456,1.456,0,0,0,26.109-6.789ZM33.2-8.453l.07.977A2.951,2.951,0,0,1,35.7-8.609a2.453,2.453,0,0,1,2,.789,3.682,3.682,0,0,1,.672,2.359V0H36.117V-5.406A1.465,1.465,0,0,0,35.8-6.449a1.4,1.4,0,0,0-1.039-.324,1.553,1.553,0,0,0-1.43.813V0H31.078V-8.453Zm9.586-2.078v2.078h1.445V-6.8H42.789v4.219a1.007,1.007,0,0,0,.18.672.9.9,0,0,0,.688.2,3.6,3.6,0,0,0,.664-.055V-.047a4.648,4.648,0,0,1-1.367.2,2.156,2.156,0,0,1-2.422-2.4V-6.8H39.3V-8.453h1.234v-2.078ZM50.391,0a2.507,2.507,0,0,1-.227-.758,2.732,2.732,0,0,1-2.133.914,3,3,0,0,1-2.059-.719,2.312,2.312,0,0,1-.816-1.812,2.389,2.389,0,0,1,1-2.062,4.915,4.915,0,0,1,2.879-.727H50.07v-.484a1.393,1.393,0,0,0-.3-.937,1.183,1.183,0,0,0-.949-.352,1.345,1.345,0,0,0-.895.273.929.929,0,0,0-.324.75H45.344A2.268,2.268,0,0,1,45.8-7.273a3,3,0,0,1,1.281-.98,4.669,4.669,0,0,1,1.859-.355,3.689,3.689,0,0,1,2.48.785,2.747,2.747,0,0,1,.918,2.207v3.664a4.041,4.041,0,0,0,.336,1.82V0ZM48.523-1.57a1.945,1.945,0,0,0,.922-.223,1.462,1.462,0,0,0,.625-.6V-3.844h-.844q-1.7,0-1.8,1.172l-.008.133a.9.9,0,0,0,.3.7A1.153,1.153,0,0,0,48.523-1.57Zm10.3-4.766a6.134,6.134,0,0,0-.812-.062,1.654,1.654,0,0,0-1.68.867V0H54.07V-8.453H56.2l.063,1.008a2.092,2.092,0,0,1,1.883-1.164,2.366,2.366,0,0,1,.7.1ZM62.289,0H60.023V-8.453h2.266Zm-2.4-10.641a1.112,1.112,0,0,1,.34-.836,1.277,1.277,0,0,1,.926-.328,1.28,1.28,0,0,1,.922.328,1.105,1.105,0,0,1,.344.836,1.108,1.108,0,0,1-.348.844,1.283,1.283,0,0,1-.918.328,1.283,1.283,0,0,1-.918-.328A1.108,1.108,0,0,1,59.891-10.641ZM63.8-4.3a5.013,5.013,0,0,1,.484-2.242A3.546,3.546,0,0,1,65.676-8.07a4.069,4.069,0,0,1,2.113-.539,3.849,3.849,0,0,1,2.793,1.047,4.2,4.2,0,0,1,1.207,2.844l.016.578A4.418,4.418,0,0,1,70.719-1.02,3.775,3.775,0,0,1,67.8.156a3.793,3.793,0,0,1-2.918-1.172A4.5,4.5,0,0,1,63.8-4.2Zm2.258.16A3.16,3.16,0,0,0,66.508-2.3a1.5,1.5,0,0,0,1.3.638,1.5,1.5,0,0,0,1.281-.63,3.457,3.457,0,0,0,.461-2.015,3.128,3.128,0,0,0-.461-1.831,1.5,1.5,0,0,0-1.3-.649,1.474,1.474,0,0,0-1.281.646A3.516,3.516,0,0,0,66.055-4.144Zm10.773-.145a5.094,5.094,0,0,1,.887-3.148,2.877,2.877,0,0,1,2.426-1.172,2.589,2.589,0,0,1,2.039.922V-12h2.266V0H82.406L82.3-.9A2.657,2.657,0,0,1,80.125.156,2.869,2.869,0,0,1,77.73-1.02,5.258,5.258,0,0,1,76.828-4.289Zm2.258.168A3.337,3.337,0,0,0,79.5-2.3a1.349,1.349,0,0,0,1.2.634,1.511,1.511,0,0,0,1.477-.884V-5.889a1.489,1.489,0,0,0-1.461-.884Q79.086-6.773,79.086-4.121Zm11,4.277A4.15,4.15,0,0,1,87.059-.984a4.054,4.054,0,0,1-1.168-3.039v-.219a5.106,5.106,0,0,1,.492-2.277,3.612,3.612,0,0,1,1.395-1.547,3.914,3.914,0,0,1,2.059-.543,3.508,3.508,0,0,1,2.73,1.094,4.444,4.444,0,0,1,1,3.1v.922H88.18a2.1,2.1,0,0,0,.66,1.328,2,2,0,0,0,1.395.5,2.437,2.437,0,0,0,2.039-.945l1.109,1.242A3.389,3.389,0,0,1,92.008-.246,4.511,4.511,0,0,1,90.086.156Zm-.258-6.945a1.411,1.411,0,0,0-1.09.455,2.357,2.357,0,0,0-.535,1.3h3.141v-.181a1.681,1.681,0,0,0-.406-1.165A1.456,1.456,0,0,0,89.828-6.789ZM103.727,0a2.507,2.507,0,0,1-.227-.758,2.732,2.732,0,0,1-2.133.914,3,3,0,0,1-2.059-.719,2.312,2.312,0,0,1-.816-1.812,2.389,2.389,0,0,1,1-2.062,4.915,4.915,0,0,1,2.879-.727h1.039v-.484a1.393,1.393,0,0,0-.3-.937,1.183,1.183,0,0,0-.949-.352,1.345,1.345,0,0,0-.895.273.929.929,0,0,0-.324.75H98.68a2.268,2.268,0,0,1,.453-1.359,3,3,0,0,1,1.281-.98,4.669,4.669,0,0,1,1.859-.355,3.689,3.689,0,0,1,2.48.785,2.747,2.747,0,0,1,.918,2.207v3.664a4.041,4.041,0,0,0,.336,1.82V0Zm-1.867-1.57a1.945,1.945,0,0,0,.922-.223,1.462,1.462,0,0,0,.625-.6V-3.844h-.844q-1.7,0-1.8,1.172l-.008.133a.9.9,0,0,0,.3.7A1.153,1.153,0,0,0,101.859-1.57Zm7.625-6.883.07.977a2.951,2.951,0,0,1,2.43-1.133,2.453,2.453,0,0,1,2,.789,3.682,3.682,0,0,1,.672,2.359V0H112.4V-5.406a1.465,1.465,0,0,0-.312-1.043,1.4,1.4,0,0,0-1.039-.324,1.553,1.553,0,0,0-1.43.813V0h-2.258V-8.453ZM118.75,0h-2.266V-8.453h2.266Zm-2.4-10.641a1.112,1.112,0,0,1,.34-.836,1.277,1.277,0,0,1,.926-.328,1.28,1.28,0,0,1,.922.328,1.105,1.105,0,0,1,.344.836,1.108,1.108,0,0,1-.348.844,1.283,1.283,0,0,1-.918.328A1.283,1.283,0,0,1,116.7-9.8,1.108,1.108,0,0,1,116.352-10.641Zm6.375,2.188.07.945a2.971,2.971,0,0,1,2.43-1.1,2.255,2.255,0,0,1,2.242,1.289,2.9,2.9,0,0,1,2.539-1.289,2.521,2.521,0,0,1,2.047.8,3.681,3.681,0,0,1,.672,2.41V0h-2.266V-5.391a1.61,1.61,0,0,0-.281-1.051,1.246,1.246,0,0,0-.992-.332,1.409,1.409,0,0,0-1.406.969l.008,5.8h-2.258V-5.383a1.59,1.59,0,0,0-.289-1.062,1.259,1.259,0,0,0-.984-.328,1.463,1.463,0,0,0-1.391.8V0h-2.258V-8.453ZM139.359,0a2.507,2.507,0,0,1-.227-.758A2.732,2.732,0,0,1,137,.156a3,3,0,0,1-2.059-.719,2.312,2.312,0,0,1-.816-1.812,2.389,2.389,0,0,1,1-2.062A4.915,4.915,0,0,1,138-5.164h1.039v-.484a1.393,1.393,0,0,0-.3-.937,1.183,1.183,0,0,0-.949-.352,1.345,1.345,0,0,0-.895.273.929.929,0,0,0-.324.75h-2.258a2.268,2.268,0,0,1,.453-1.359,3,3,0,0,1,1.281-.98,4.669,4.669,0,0,1,1.859-.355,3.689,3.689,0,0,1,2.48.785,2.747,2.747,0,0,1,.918,2.207v3.664a4.041,4.041,0,0,0,.336,1.82V0Zm-1.867-1.57a1.945,1.945,0,0,0,.922-.223,1.462,1.462,0,0,0,.625-.6V-3.844H138.2q-1.7,0-1.8,1.172l-.008.133a.9.9,0,0,0,.3.7A1.153,1.153,0,0,0,137.492-1.57ZM145.422,0h-2.266V-12h2.266Zm5.75.156a4.15,4.15,0,0,1-3.027-1.141,4.054,4.054,0,0,1-1.168-3.039v-.219a5.106,5.106,0,0,1,.492-2.277,3.612,3.612,0,0,1,1.395-1.547,3.914,3.914,0,0,1,2.059-.543,3.508,3.508,0,0,1,2.73,1.094,4.444,4.444,0,0,1,1,3.1v.922h-5.383a2.1,2.1,0,0,0,.66,1.328,2,2,0,0,0,1.395.5,2.437,2.437,0,0,0,2.039-.945l1.109,1.242a3.389,3.389,0,0,1-1.375,1.121A4.511,4.511,0,0,1,151.172.156Zm-.258-6.945a1.411,1.411,0,0,0-1.09.455,2.357,2.357,0,0,0-.535,1.3h3.141v-.181a1.681,1.681,0,0,0-.406-1.165A1.456,1.456,0,0,0,150.914-6.789Zm9.594,4.453a.727.727,0,0,0-.41-.652,4.659,4.659,0,0,0-1.316-.426q-3.016-.633-3.016-2.562a2.323,2.323,0,0,1,.934-1.879,3.766,3.766,0,0,1,2.441-.754,4.053,4.053,0,0,1,2.574.758,2.388,2.388,0,0,1,.965,1.969h-2.258a1.092,1.092,0,0,0-.312-.8A1.322,1.322,0,0,0,159.133-7a1.351,1.351,0,0,0-.883.258.814.814,0,0,0-.312.656.7.7,0,0,0,.355.605,3.657,3.657,0,0,0,1.2.4,9.8,9.8,0,0,1,1.422.379A2.336,2.336,0,0,1,162.7-2.43a2.205,2.205,0,0,1-.992,1.871,4.28,4.28,0,0,1-2.562.715,4.47,4.47,0,0,1-1.887-.379,3.166,3.166,0,0,1-1.293-1.039,2.414,2.414,0,0,1-.469-1.426h2.141a1.179,1.179,0,0,0,.445.922,1.766,1.766,0,0,0,1.109.32,1.635,1.635,0,0,0,.98-.246A.766.766,0,0,0,160.508-2.336Zm3.766,1.227a1.137,1.137,0,0,1,.363-.875,1.289,1.289,0,0,1,.91-.336,1.3,1.3,0,0,1,.918.336,1.137,1.137,0,0,1,.363.875,1.121,1.121,0,0,1-.359.863,1.305,1.305,0,0,1-.922.332,1.294,1.294,0,0,1-.914-.332A1.121,1.121,0,0,1,164.273-1.109Z" transform="translate(257 3504)" fill="#12263f"/>
      <path id="Trazado_819129" data-name="Trazado 819129" d="M3.508,0H1.164V-11.375H3.508Zm4.1-8.453.07.977a2.951,2.951,0,0,1,2.43-1.133,2.453,2.453,0,0,1,2,.789,3.682,3.682,0,0,1,.672,2.359V0H10.523V-5.406a1.465,1.465,0,0,0-.312-1.043,1.4,1.4,0,0,0-1.039-.324,1.553,1.553,0,0,0-1.43.813V0H5.484V-8.453Zm10.047,5.7,1.57-5.7h2.359L18.734,0H16.578L13.727-8.453h2.359ZM26.367.156A4.15,4.15,0,0,1,23.34-.984a4.054,4.054,0,0,1-1.168-3.039v-.219a5.106,5.106,0,0,1,.492-2.277,3.612,3.612,0,0,1,1.395-1.547,3.914,3.914,0,0,1,2.059-.543,3.508,3.508,0,0,1,2.73,1.094,4.444,4.444,0,0,1,1,3.1v.922H24.461a2.1,2.1,0,0,0,.66,1.328,2,2,0,0,0,1.395.5,2.437,2.437,0,0,0,2.039-.945l1.109,1.242A3.389,3.389,0,0,1,28.289-.246,4.511,4.511,0,0,1,26.367.156Zm-.258-6.945a1.411,1.411,0,0,0-1.09.455,2.357,2.357,0,0,0-.535,1.3h3.141v-.181a1.681,1.681,0,0,0-.406-1.165A1.456,1.456,0,0,0,26.109-6.789ZM33.2-8.453l.07.977A2.951,2.951,0,0,1,35.7-8.609a2.453,2.453,0,0,1,2,.789,3.682,3.682,0,0,1,.672,2.359V0H36.117V-5.406A1.465,1.465,0,0,0,35.8-6.449a1.4,1.4,0,0,0-1.039-.324,1.553,1.553,0,0,0-1.43.813V0H31.078V-8.453Zm9.586-2.078v2.078h1.445V-6.8H42.789v4.219a1.007,1.007,0,0,0,.18.672.9.9,0,0,0,.688.2,3.6,3.6,0,0,0,.664-.055V-.047a4.648,4.648,0,0,1-1.367.2,2.156,2.156,0,0,1-2.422-2.4V-6.8H39.3V-8.453h1.234v-2.078ZM50.391,0a2.507,2.507,0,0,1-.227-.758,2.732,2.732,0,0,1-2.133.914,3,3,0,0,1-2.059-.719,2.312,2.312,0,0,1-.816-1.812,2.389,2.389,0,0,1,1-2.062,4.915,4.915,0,0,1,2.879-.727H50.07v-.484a1.393,1.393,0,0,0-.3-.937,1.183,1.183,0,0,0-.949-.352,1.345,1.345,0,0,0-.895.273.929.929,0,0,0-.324.75H45.344A2.268,2.268,0,0,1,45.8-7.273a3,3,0,0,1,1.281-.98,4.669,4.669,0,0,1,1.859-.355,3.689,3.689,0,0,1,2.48.785,2.747,2.747,0,0,1,.918,2.207v3.664a4.041,4.041,0,0,0,.336,1.82V0ZM48.523-1.57a1.945,1.945,0,0,0,.922-.223,1.462,1.462,0,0,0,.625-.6V-3.844h-.844q-1.7,0-1.8,1.172l-.008.133a.9.9,0,0,0,.3.7A1.153,1.153,0,0,0,48.523-1.57Zm10.3-4.766a6.134,6.134,0,0,0-.812-.062,1.654,1.654,0,0,0-1.68.867V0H54.07V-8.453H56.2l.063,1.008a2.092,2.092,0,0,1,1.883-1.164,2.366,2.366,0,0,1,.7.1ZM62.289,0H60.023V-8.453h2.266Zm-2.4-10.641a1.112,1.112,0,0,1,.34-.836,1.277,1.277,0,0,1,.926-.328,1.28,1.28,0,0,1,.922.328,1.105,1.105,0,0,1,.344.836,1.108,1.108,0,0,1-.348.844,1.283,1.283,0,0,1-.918.328,1.283,1.283,0,0,1-.918-.328A1.108,1.108,0,0,1,59.891-10.641ZM63.8-4.3a5.013,5.013,0,0,1,.484-2.242A3.546,3.546,0,0,1,65.676-8.07a4.069,4.069,0,0,1,2.113-.539,3.849,3.849,0,0,1,2.793,1.047,4.2,4.2,0,0,1,1.207,2.844l.016.578A4.418,4.418,0,0,1,70.719-1.02,3.775,3.775,0,0,1,67.8.156a3.793,3.793,0,0,1-2.918-1.172A4.5,4.5,0,0,1,63.8-4.2Zm2.258.16A3.16,3.16,0,0,0,66.508-2.3a1.5,1.5,0,0,0,1.3.638,1.5,1.5,0,0,0,1.281-.63,3.457,3.457,0,0,0,.461-2.015,3.128,3.128,0,0,0-.461-1.831,1.5,1.5,0,0,0-1.3-.649,1.474,1.474,0,0,0-1.281.646A3.516,3.516,0,0,0,66.055-4.144Zm10.773-.145a5.094,5.094,0,0,1,.887-3.148,2.877,2.877,0,0,1,2.426-1.172,2.589,2.589,0,0,1,2.039.922V-12h2.266V0H82.406L82.3-.9A2.657,2.657,0,0,1,80.125.156,2.869,2.869,0,0,1,77.73-1.02,5.258,5.258,0,0,1,76.828-4.289Zm2.258.168A3.337,3.337,0,0,0,79.5-2.3a1.349,1.349,0,0,0,1.2.634,1.511,1.511,0,0,0,1.477-.884V-5.889a1.489,1.489,0,0,0-1.461-.884Q79.086-6.773,79.086-4.121Zm11,4.277A4.15,4.15,0,0,1,87.059-.984a4.054,4.054,0,0,1-1.168-3.039v-.219a5.106,5.106,0,0,1,.492-2.277,3.612,3.612,0,0,1,1.395-1.547,3.914,3.914,0,0,1,2.059-.543,3.508,3.508,0,0,1,2.73,1.094,4.444,4.444,0,0,1,1,3.1v.922H88.18a2.1,2.1,0,0,0,.66,1.328,2,2,0,0,0,1.395.5,2.437,2.437,0,0,0,2.039-.945l1.109,1.242A3.389,3.389,0,0,1,92.008-.246,4.511,4.511,0,0,1,90.086.156Zm-.258-6.945a1.411,1.411,0,0,0-1.09.455,2.357,2.357,0,0,0-.535,1.3h3.141v-.181a1.681,1.681,0,0,0-.406-1.165A1.456,1.456,0,0,0,89.828-6.789Zm12.516,5.125a1.481,1.481,0,0,0,1.016-.344,1.2,1.2,0,0,0,.406-.914h2.117a2.9,2.9,0,0,1-.469,1.574,3.093,3.093,0,0,1-1.262,1.109,3.949,3.949,0,0,1-1.77.395A3.67,3.67,0,0,1,99.523-1,4.56,4.56,0,0,1,98.477-4.18v-.148a4.508,4.508,0,0,1,1.039-3.117,3.627,3.627,0,0,1,2.852-1.164,3.555,3.555,0,0,1,2.543.9,3.2,3.2,0,0,1,.973,2.4h-2.117a1.551,1.551,0,0,0-.406-1.072,1.354,1.354,0,0,0-1.031-.412,1.36,1.36,0,0,0-1.191.575,3.333,3.333,0,0,0-.4,1.866v.235a3.375,3.375,0,0,0,.4,1.878A1.377,1.377,0,0,0,102.344-1.664ZM106.82-4.3a5.013,5.013,0,0,1,.484-2.242A3.546,3.546,0,0,1,108.7-8.07a4.069,4.069,0,0,1,2.113-.539,3.849,3.849,0,0,1,2.793,1.047,4.2,4.2,0,0,1,1.207,2.844l.016.578a4.418,4.418,0,0,1-1.086,3.121A3.775,3.775,0,0,1,110.828.156a3.793,3.793,0,0,1-2.918-1.172A4.5,4.5,0,0,1,106.82-4.2Zm2.258.16a3.16,3.16,0,0,0,.453,1.843,1.5,1.5,0,0,0,1.3.638,1.5,1.5,0,0,0,1.281-.63,3.457,3.457,0,0,0,.461-2.015,3.128,3.128,0,0,0-.461-1.831,1.5,1.5,0,0,0-1.3-.649,1.474,1.474,0,0,0-1.281.646A3.516,3.516,0,0,0,109.078-4.144Zm14.758,0a5.119,5.119,0,0,1-.867,3.168A2.872,2.872,0,0,1,120.547.156a2.639,2.639,0,0,1-2.2-1.055l-.1.9h-2.031V-12h2.258v4.3a2.571,2.571,0,0,1,2.055-.914,2.9,2.9,0,0,1,2.426,1.137,5.126,5.126,0,0,1,.879,3.2Zm-2.258-.164a3.363,3.363,0,0,0-.406-1.871,1.374,1.374,0,0,0-1.211-.59,1.489,1.489,0,0,0-1.484.883v3.336a1.509,1.509,0,0,0,1.5.891,1.394,1.394,0,0,0,1.438-1.078A5.562,5.562,0,0,0,121.578-4.312ZM129.117.156A4.15,4.15,0,0,1,126.09-.984a4.054,4.054,0,0,1-1.168-3.039v-.219a5.106,5.106,0,0,1,.492-2.277,3.612,3.612,0,0,1,1.395-1.547,3.914,3.914,0,0,1,2.059-.543,3.508,3.508,0,0,1,2.73,1.094,4.444,4.444,0,0,1,1,3.1v.922h-5.383a2.1,2.1,0,0,0,.66,1.328,2,2,0,0,0,1.395.5,2.437,2.437,0,0,0,2.039-.945l1.109,1.242a3.389,3.389,0,0,1-1.375,1.121A4.511,4.511,0,0,1,129.117.156Zm-.258-6.945a1.411,1.411,0,0,0-1.09.455,2.357,2.357,0,0,0-.535,1.3h3.141v-.181a1.681,1.681,0,0,0-.406-1.165A1.456,1.456,0,0,0,128.859-6.789Zm9.766.453a6.134,6.134,0,0,0-.812-.062,1.654,1.654,0,0,0-1.68.867V0h-2.258V-8.453h2.133l.063,1.008a2.092,2.092,0,0,1,1.883-1.164,2.366,2.366,0,0,1,.7.1Zm4.18-4.2v2.078h1.445V-6.8H142.8v4.219a1.007,1.007,0,0,0,.18.672.9.9,0,0,0,.688.2,3.6,3.6,0,0,0,.664-.055V-.047a4.648,4.648,0,0,1-1.367.2,2.156,2.156,0,0,1-2.422-2.4V-6.8h-1.234V-8.453h1.234v-2.078ZM150.57-.859A2.831,2.831,0,0,1,148.258.156a2.67,2.67,0,0,1-2.074-.781,3.335,3.335,0,0,1-.73-2.289V-8.453h2.258v5.467q0,1.322,1.2,1.322a1.63,1.63,0,0,0,1.578-.8V-8.453h2.266V0h-2.125Zm8.641-5.477A6.134,6.134,0,0,0,158.4-6.4a1.654,1.654,0,0,0-1.68.867V0h-2.258V-8.453h2.133l.063,1.008a2.092,2.092,0,0,1,1.883-1.164,2.366,2.366,0,0,1,.7.1ZM164.961,0a2.507,2.507,0,0,1-.227-.758A2.732,2.732,0,0,1,162.6.156a3,3,0,0,1-2.059-.719,2.312,2.312,0,0,1-.816-1.812,2.389,2.389,0,0,1,1-2.062,4.915,4.915,0,0,1,2.879-.727h1.039v-.484a1.393,1.393,0,0,0-.3-.937,1.183,1.183,0,0,0-.949-.352,1.345,1.345,0,0,0-.895.273.929.929,0,0,0-.324.75h-2.258a2.268,2.268,0,0,1,.453-1.359,3,3,0,0,1,1.281-.98,4.669,4.669,0,0,1,1.859-.355,3.689,3.689,0,0,1,2.48.785,2.747,2.747,0,0,1,.918,2.207v3.664a4.041,4.041,0,0,0,.336,1.82V0Zm-1.867-1.57a1.945,1.945,0,0,0,.922-.223,1.462,1.462,0,0,0,.625-.6V-3.844H163.8q-1.7,0-1.8,1.172l-.008.133a.9.9,0,0,0,.3.7A1.153,1.153,0,0,0,163.094-1.57Zm9.18-2.719a5.094,5.094,0,0,1,.887-3.148,2.877,2.877,0,0,1,2.426-1.172,2.589,2.589,0,0,1,2.039.922V-12h2.266V0h-2.039l-.109-.9A2.657,2.657,0,0,1,175.57.156a2.869,2.869,0,0,1-2.395-1.176A5.258,5.258,0,0,1,172.273-4.289Zm2.258.168a3.337,3.337,0,0,0,.414,1.823,1.349,1.349,0,0,0,1.2.634,1.511,1.511,0,0,0,1.477-.884V-5.889a1.489,1.489,0,0,0-1.461-.884Q174.531-6.773,174.531-4.121Zm11,4.277A4.15,4.15,0,0,1,182.5-.984a4.054,4.054,0,0,1-1.168-3.039v-.219a5.106,5.106,0,0,1,.492-2.277,3.612,3.612,0,0,1,1.395-1.547,3.914,3.914,0,0,1,2.059-.543,3.508,3.508,0,0,1,2.73,1.094,4.444,4.444,0,0,1,1,3.1v.922h-5.383a2.1,2.1,0,0,0,.66,1.328,2,2,0,0,0,1.395.5,2.437,2.437,0,0,0,2.039-.945l1.109,1.242a3.389,3.389,0,0,1-1.375,1.121A4.511,4.511,0,0,1,185.531.156Zm-.258-6.945a1.411,1.411,0,0,0-1.09.455,2.357,2.357,0,0,0-.535,1.3h3.141v-.181a1.681,1.681,0,0,0-.406-1.165A1.456,1.456,0,0,0,185.273-6.789ZM192.672,0h-2.266V-12h2.266Zm10.422-2.336a.727.727,0,0,0-.41-.652,4.659,4.659,0,0,0-1.316-.426q-3.016-.633-3.016-2.562a2.323,2.323,0,0,1,.934-1.879,3.766,3.766,0,0,1,2.441-.754,4.053,4.053,0,0,1,2.574.758,2.388,2.388,0,0,1,.965,1.969h-2.258a1.092,1.092,0,0,0-.312-.8A1.322,1.322,0,0,0,201.719-7a1.351,1.351,0,0,0-.883.258.814.814,0,0,0-.312.656.7.7,0,0,0,.355.605,3.657,3.657,0,0,0,1.2.4A9.8,9.8,0,0,1,203.5-4.7a2.336,2.336,0,0,1,1.789,2.273A2.205,2.205,0,0,1,204.3-.559a4.28,4.28,0,0,1-2.562.715,4.47,4.47,0,0,1-1.887-.379,3.166,3.166,0,0,1-1.293-1.039,2.414,2.414,0,0,1-.469-1.426h2.141a1.179,1.179,0,0,0,.445.922,1.766,1.766,0,0,0,1.109.32,1.635,1.635,0,0,0,.98-.246A.766.766,0,0,0,203.094-2.336ZM211.8-.859A2.831,2.831,0,0,1,209.492.156a2.67,2.67,0,0,1-2.074-.781,3.335,3.335,0,0,1-.73-2.289V-8.453h2.258v5.467q0,1.322,1.2,1.322a1.63,1.63,0,0,0,1.578-.8V-8.453h2.266V0h-2.125ZM219.586.156a4.15,4.15,0,0,1-3.027-1.141,4.054,4.054,0,0,1-1.168-3.039v-.219a5.106,5.106,0,0,1,.492-2.277,3.612,3.612,0,0,1,1.395-1.547,3.914,3.914,0,0,1,2.059-.543,3.508,3.508,0,0,1,2.73,1.094,4.444,4.444,0,0,1,1,3.1v.922H217.68a2.1,2.1,0,0,0,.66,1.328,2,2,0,0,0,1.395.5,2.437,2.437,0,0,0,2.039-.945l1.109,1.242a3.389,3.389,0,0,1-1.375,1.121A4.511,4.511,0,0,1,219.586.156Zm-.258-6.945a1.411,1.411,0,0,0-1.09.455,2.357,2.357,0,0,0-.535,1.3h3.141v-.181a1.681,1.681,0,0,0-.406-1.165A1.456,1.456,0,0,0,219.328-6.789ZM226.727,0h-2.266V-12h2.266Zm1.508-4.3a5.013,5.013,0,0,1,.484-2.242,3.546,3.546,0,0,1,1.395-1.523,4.069,4.069,0,0,1,2.113-.539,3.849,3.849,0,0,1,2.793,1.047,4.2,4.2,0,0,1,1.207,2.844l.016.578a4.418,4.418,0,0,1-1.086,3.121A3.775,3.775,0,0,1,232.242.156a3.793,3.793,0,0,1-2.918-1.172,4.5,4.5,0,0,1-1.09-3.187Zm2.258.16a3.16,3.16,0,0,0,.453,1.843,1.5,1.5,0,0,0,1.3.638,1.5,1.5,0,0,0,1.281-.63,3.457,3.457,0,0,0,.461-2.015,3.128,3.128,0,0,0-.461-1.831,1.5,1.5,0,0,0-1.3-.649,1.474,1.474,0,0,0-1.281.646A3.516,3.516,0,0,0,230.492-4.144Zm7.258,3.035a1.137,1.137,0,0,1,.363-.875,1.289,1.289,0,0,1,.91-.336,1.3,1.3,0,0,1,.918.336,1.137,1.137,0,0,1,.363.875,1.121,1.121,0,0,1-.359.863,1.305,1.305,0,0,1-.922.332,1.294,1.294,0,0,1-.914-.332A1.121,1.121,0,0,1,237.75-1.109Z" transform="translate(257 3540)" fill="#12263f"/>
      <path id="Trazado_819130" data-name="Trazado 819130" d="M3.508,0H1.164V-11.375H3.508Zm4.1-8.453.07.977a2.951,2.951,0,0,1,2.43-1.133,2.453,2.453,0,0,1,2,.789,3.682,3.682,0,0,1,.672,2.359V0H10.523V-5.406a1.465,1.465,0,0,0-.312-1.043,1.4,1.4,0,0,0-1.039-.324,1.553,1.553,0,0,0-1.43.813V0H5.484V-8.453Zm10.047,5.7,1.57-5.7h2.359L18.734,0H16.578L13.727-8.453h2.359ZM26.367.156A4.15,4.15,0,0,1,23.34-.984a4.054,4.054,0,0,1-1.168-3.039v-.219a5.106,5.106,0,0,1,.492-2.277,3.612,3.612,0,0,1,1.395-1.547,3.914,3.914,0,0,1,2.059-.543,3.508,3.508,0,0,1,2.73,1.094,4.444,4.444,0,0,1,1,3.1v.922H24.461a2.1,2.1,0,0,0,.66,1.328,2,2,0,0,0,1.395.5,2.437,2.437,0,0,0,2.039-.945l1.109,1.242A3.389,3.389,0,0,1,28.289-.246,4.511,4.511,0,0,1,26.367.156Zm-.258-6.945a1.411,1.411,0,0,0-1.09.455,2.357,2.357,0,0,0-.535,1.3h3.141v-.181a1.681,1.681,0,0,0-.406-1.165A1.456,1.456,0,0,0,26.109-6.789ZM33.2-8.453l.07.977A2.951,2.951,0,0,1,35.7-8.609a2.453,2.453,0,0,1,2,.789,3.682,3.682,0,0,1,.672,2.359V0H36.117V-5.406A1.465,1.465,0,0,0,35.8-6.449a1.4,1.4,0,0,0-1.039-.324,1.553,1.553,0,0,0-1.43.813V0H31.078V-8.453Zm9.586-2.078v2.078h1.445V-6.8H42.789v4.219a1.007,1.007,0,0,0,.18.672.9.9,0,0,0,.688.2,3.6,3.6,0,0,0,.664-.055V-.047a4.648,4.648,0,0,1-1.367.2,2.156,2.156,0,0,1-2.422-2.4V-6.8H39.3V-8.453h1.234v-2.078ZM50.391,0a2.507,2.507,0,0,1-.227-.758,2.732,2.732,0,0,1-2.133.914,3,3,0,0,1-2.059-.719,2.312,2.312,0,0,1-.816-1.812,2.389,2.389,0,0,1,1-2.062,4.915,4.915,0,0,1,2.879-.727H50.07v-.484a1.393,1.393,0,0,0-.3-.937,1.183,1.183,0,0,0-.949-.352,1.345,1.345,0,0,0-.895.273.929.929,0,0,0-.324.75H45.344A2.268,2.268,0,0,1,45.8-7.273a3,3,0,0,1,1.281-.98,4.669,4.669,0,0,1,1.859-.355,3.689,3.689,0,0,1,2.48.785,2.747,2.747,0,0,1,.918,2.207v3.664a4.041,4.041,0,0,0,.336,1.82V0ZM48.523-1.57a1.945,1.945,0,0,0,.922-.223,1.462,1.462,0,0,0,.625-.6V-3.844h-.844q-1.7,0-1.8,1.172l-.008.133a.9.9,0,0,0,.3.7A1.153,1.153,0,0,0,48.523-1.57Zm10.3-4.766a6.134,6.134,0,0,0-.812-.062,1.654,1.654,0,0,0-1.68.867V0H54.07V-8.453H56.2l.063,1.008a2.092,2.092,0,0,1,1.883-1.164,2.366,2.366,0,0,1,.7.1ZM62.289,0H60.023V-8.453h2.266Zm-2.4-10.641a1.112,1.112,0,0,1,.34-.836,1.277,1.277,0,0,1,.926-.328,1.28,1.28,0,0,1,.922.328,1.105,1.105,0,0,1,.344.836,1.108,1.108,0,0,1-.348.844,1.283,1.283,0,0,1-.918.328,1.283,1.283,0,0,1-.918-.328A1.108,1.108,0,0,1,59.891-10.641ZM63.8-4.3a5.013,5.013,0,0,1,.484-2.242A3.546,3.546,0,0,1,65.676-8.07a4.069,4.069,0,0,1,2.113-.539,3.849,3.849,0,0,1,2.793,1.047,4.2,4.2,0,0,1,1.207,2.844l.016.578A4.418,4.418,0,0,1,70.719-1.02,3.775,3.775,0,0,1,67.8.156a3.793,3.793,0,0,1-2.918-1.172A4.5,4.5,0,0,1,63.8-4.2Zm2.258.16A3.16,3.16,0,0,0,66.508-2.3a1.5,1.5,0,0,0,1.3.638,1.5,1.5,0,0,0,1.281-.63,3.457,3.457,0,0,0,.461-2.015,3.128,3.128,0,0,0-.461-1.831,1.5,1.5,0,0,0-1.3-.649,1.474,1.474,0,0,0-1.281.646A3.516,3.516,0,0,0,66.055-4.144Zm10.773-.145a5.094,5.094,0,0,1,.887-3.148,2.877,2.877,0,0,1,2.426-1.172,2.589,2.589,0,0,1,2.039.922V-12h2.266V0H82.406L82.3-.9A2.657,2.657,0,0,1,80.125.156,2.869,2.869,0,0,1,77.73-1.02,5.258,5.258,0,0,1,76.828-4.289Zm2.258.168A3.337,3.337,0,0,0,79.5-2.3a1.349,1.349,0,0,0,1.2.634,1.511,1.511,0,0,0,1.477-.884V-5.889a1.489,1.489,0,0,0-1.461-.884Q79.086-6.773,79.086-4.121Zm11,4.277A4.15,4.15,0,0,1,87.059-.984a4.054,4.054,0,0,1-1.168-3.039v-.219a5.106,5.106,0,0,1,.492-2.277,3.612,3.612,0,0,1,1.395-1.547,3.914,3.914,0,0,1,2.059-.543,3.508,3.508,0,0,1,2.73,1.094,4.444,4.444,0,0,1,1,3.1v.922H88.18a2.1,2.1,0,0,0,.66,1.328,2,2,0,0,0,1.395.5,2.437,2.437,0,0,0,2.039-.945l1.109,1.242A3.389,3.389,0,0,1,92.008-.246,4.511,4.511,0,0,1,90.086.156Zm-.258-6.945a1.411,1.411,0,0,0-1.09.455,2.357,2.357,0,0,0-.535,1.3h3.141v-.181a1.681,1.681,0,0,0-.406-1.165A1.456,1.456,0,0,0,89.828-6.789ZM102.719.156A4.15,4.15,0,0,1,99.691-.984a4.054,4.054,0,0,1-1.168-3.039v-.219a5.106,5.106,0,0,1,.492-2.277,3.612,3.612,0,0,1,1.395-1.547,3.914,3.914,0,0,1,2.059-.543,3.508,3.508,0,0,1,2.73,1.094,4.444,4.444,0,0,1,1,3.1v.922h-5.383a2.1,2.1,0,0,0,.66,1.328,2,2,0,0,0,1.395.5,2.437,2.437,0,0,0,2.039-.945l1.109,1.242a3.389,3.389,0,0,1-1.375,1.121A4.511,4.511,0,0,1,102.719.156Zm-.258-6.945a1.411,1.411,0,0,0-1.09.455,2.357,2.357,0,0,0-.535,1.3h3.141v-.181a1.681,1.681,0,0,0-.406-1.165A1.456,1.456,0,0,0,102.461-6.789ZM107.125-4.3a5.053,5.053,0,0,1,.887-3.148,2.9,2.9,0,0,1,2.434-1.156,2.6,2.6,0,0,1,2.164,1.039l.148-.883h1.984V3.25h-2.266V-.727a2.6,2.6,0,0,1-2.047.883,2.878,2.878,0,0,1-2.406-1.172A5.3,5.3,0,0,1,107.125-4.3Zm2.258.16a3.315,3.315,0,0,0,.426,1.847,1.363,1.363,0,0,0,1.2.634,1.518,1.518,0,0,0,1.469-.829v-3.5a1.506,1.506,0,0,0-1.453-.8,1.38,1.38,0,0,0-1.211.634A3.661,3.661,0,0,0,109.383-4.144Zm12.2,3.285A2.831,2.831,0,0,1,119.266.156a2.67,2.67,0,0,1-2.074-.781,3.335,3.335,0,0,1-.73-2.289V-8.453h2.258v5.467q0,1.322,1.2,1.322a1.63,1.63,0,0,0,1.578-.8V-8.453h2.266V0h-2.125ZM127.852,0h-2.266V-8.453h2.266Zm-2.4-10.641a1.112,1.112,0,0,1,.34-.836,1.277,1.277,0,0,1,.926-.328,1.28,1.28,0,0,1,.922.328,1.105,1.105,0,0,1,.344.836,1.108,1.108,0,0,1-.348.844,1.283,1.283,0,0,1-.918.328A1.283,1.283,0,0,1,125.8-9.8,1.108,1.108,0,0,1,125.453-10.641ZM137.32-4.148a5.07,5.07,0,0,1-.887,3.129A2.843,2.843,0,0,1,134.039.156a2.633,2.633,0,0,1-2.07-.891V3.25h-2.258v-11.7H131.8l.078.828a2.654,2.654,0,0,1,2.141-.984,2.862,2.862,0,0,1,2.43,1.156,5.207,5.207,0,0,1,.867,3.188Zm-2.258-.164a3.327,3.327,0,0,0-.418-1.82,1.361,1.361,0,0,0-1.215-.641,1.479,1.479,0,0,0-1.461.813V-2.5a1.5,1.5,0,0,0,1.477.836Q135.063-1.664,135.063-4.312Zm3.3.008a5.013,5.013,0,0,1,.484-2.242,3.546,3.546,0,0,1,1.395-1.523,4.069,4.069,0,0,1,2.113-.539,3.849,3.849,0,0,1,2.793,1.047,4.2,4.2,0,0,1,1.207,2.844l.016.578a4.418,4.418,0,0,1-1.086,3.121A3.775,3.775,0,0,1,142.375.156a3.793,3.793,0,0,1-2.918-1.172,4.5,4.5,0,0,1-1.09-3.187Zm2.258.16a3.16,3.16,0,0,0,.453,1.843,1.5,1.5,0,0,0,1.3.638,1.5,1.5,0,0,0,1.281-.63,3.457,3.457,0,0,0,.461-2.015,3.128,3.128,0,0,0-.461-1.831,1.5,1.5,0,0,0-1.3-.649,1.474,1.474,0,0,0-1.281.646A3.516,3.516,0,0,0,140.625-4.144Zm11.719,1.808a.727.727,0,0,0-.41-.652,4.659,4.659,0,0,0-1.316-.426Q147.6-4.047,147.6-5.977a2.323,2.323,0,0,1,.934-1.879,3.766,3.766,0,0,1,2.441-.754,4.053,4.053,0,0,1,2.574.758,2.388,2.388,0,0,1,.965,1.969h-2.258a1.092,1.092,0,0,0-.312-.8A1.322,1.322,0,0,0,150.969-7a1.351,1.351,0,0,0-.883.258.814.814,0,0,0-.312.656.7.7,0,0,0,.355.605,3.657,3.657,0,0,0,1.2.4,9.8,9.8,0,0,1,1.422.379,2.336,2.336,0,0,1,1.789,2.273,2.205,2.205,0,0,1-.992,1.871,4.28,4.28,0,0,1-2.562.715A4.47,4.47,0,0,1,149.1-.223,3.166,3.166,0,0,1,147.8-1.262a2.414,2.414,0,0,1-.469-1.426h2.141a1.179,1.179,0,0,0,.445.922,1.766,1.766,0,0,0,1.109.32,1.635,1.635,0,0,0,.98-.246A.766.766,0,0,0,152.344-2.336ZM163.133-3.2,164.7-8.453h2.422l-3.4,9.766-.187.445a2.577,2.577,0,0,1-2.5,1.656,3.553,3.553,0,0,1-1-.148V1.555l.344.008a1.857,1.857,0,0,0,.957-.2,1.283,1.283,0,0,0,.5-.648l.266-.7-2.961-8.477h2.43ZM174.2-7.531a2.818,2.818,0,0,1,2.258-1.078q2.75,0,2.789,3.2V0h-2.258V-5.352a1.57,1.57,0,0,0-.312-1.074,1.34,1.34,0,0,0-1.039-.348,1.537,1.537,0,0,0-1.437.766V0h-2.258V-12H174.2ZM184.836.156a4.15,4.15,0,0,1-3.027-1.141,4.054,4.054,0,0,1-1.168-3.039v-.219a5.106,5.106,0,0,1,.492-2.277,3.612,3.612,0,0,1,1.395-1.547,3.914,3.914,0,0,1,2.059-.543,3.508,3.508,0,0,1,2.73,1.094,4.444,4.444,0,0,1,1,3.1v.922H182.93a2.1,2.1,0,0,0,.66,1.328,2,2,0,0,0,1.395.5,2.437,2.437,0,0,0,2.039-.945l1.109,1.242a3.389,3.389,0,0,1-1.375,1.121A4.511,4.511,0,0,1,184.836.156Zm-.258-6.945a1.411,1.411,0,0,0-1.09.455,2.357,2.357,0,0,0-.535,1.3h3.141v-.181a1.681,1.681,0,0,0-.406-1.165A1.456,1.456,0,0,0,184.578-6.789Zm9.766.453a6.134,6.134,0,0,0-.812-.062,1.654,1.654,0,0,0-1.68.867V0h-2.258V-8.453h2.133l.063,1.008a2.092,2.092,0,0,1,1.883-1.164,2.366,2.366,0,0,1,.7.1Zm5.836,0a6.134,6.134,0,0,0-.812-.062,1.654,1.654,0,0,0-1.68.867V0H195.43V-8.453h2.133l.063,1.008a2.092,2.092,0,0,1,1.883-1.164,2.366,2.366,0,0,1,.7.1ZM205.93,0a2.507,2.507,0,0,1-.227-.758,2.732,2.732,0,0,1-2.133.914,3,3,0,0,1-2.059-.719,2.312,2.312,0,0,1-.816-1.812,2.389,2.389,0,0,1,1-2.062,4.915,4.915,0,0,1,2.879-.727h1.039v-.484a1.393,1.393,0,0,0-.3-.937,1.183,1.183,0,0,0-.949-.352,1.345,1.345,0,0,0-.895.273.929.929,0,0,0-.324.75h-2.258a2.268,2.268,0,0,1,.453-1.359,3,3,0,0,1,1.281-.98,4.669,4.669,0,0,1,1.859-.355,3.689,3.689,0,0,1,2.48.785,2.747,2.747,0,0,1,.918,2.207v3.664a4.041,4.041,0,0,0,.336,1.82V0Zm-1.867-1.57a1.945,1.945,0,0,0,.922-.223,1.462,1.462,0,0,0,.625-.6V-3.844h-.844q-1.7,0-1.8,1.172l-.008.133a.9.9,0,0,0,.3.7A1.153,1.153,0,0,0,204.063-1.57Zm7.664-6.883.07.945a2.971,2.971,0,0,1,2.43-1.1,2.255,2.255,0,0,1,2.242,1.289,2.9,2.9,0,0,1,2.539-1.289,2.521,2.521,0,0,1,2.047.8,3.681,3.681,0,0,1,.672,2.41V0h-2.266V-5.391a1.61,1.61,0,0,0-.281-1.051,1.246,1.246,0,0,0-.992-.332,1.409,1.409,0,0,0-1.406.969l.008,5.8h-2.258V-5.383a1.59,1.59,0,0,0-.289-1.062,1.259,1.259,0,0,0-.984-.328,1.463,1.463,0,0,0-1.391.8V0h-2.258V-8.453ZM225.844,0h-2.266V-8.453h2.266Zm-2.4-10.641a1.112,1.112,0,0,1,.34-.836,1.277,1.277,0,0,1,.926-.328,1.28,1.28,0,0,1,.922.328,1.105,1.105,0,0,1,.344.836,1.109,1.109,0,0,1-.348.844,1.283,1.283,0,0,1-.918.328,1.283,1.283,0,0,1-.918-.328A1.109,1.109,0,0,1,223.445-10.641Zm8.148,10.8a4.15,4.15,0,0,1-3.027-1.141A4.054,4.054,0,0,1,227.4-4.023v-.219a5.106,5.106,0,0,1,.492-2.277,3.612,3.612,0,0,1,1.395-1.547,3.914,3.914,0,0,1,2.059-.543,3.508,3.508,0,0,1,2.73,1.094,4.444,4.444,0,0,1,1,3.1v.922h-5.383a2.1,2.1,0,0,0,.66,1.328,2,2,0,0,0,1.395.5,2.437,2.437,0,0,0,2.039-.945l1.109,1.242a3.389,3.389,0,0,1-1.375,1.121A4.511,4.511,0,0,1,231.594.156Zm-.258-6.945a1.411,1.411,0,0,0-1.09.455,2.357,2.357,0,0,0-.535,1.3h3.141v-.181a1.681,1.681,0,0,0-.406-1.165A1.456,1.456,0,0,0,231.336-6.789Zm7.094-1.664.07.977a2.951,2.951,0,0,1,2.43-1.133,2.453,2.453,0,0,1,2,.789,3.682,3.682,0,0,1,.672,2.359V0h-2.258V-5.406a1.465,1.465,0,0,0-.312-1.043,1.4,1.4,0,0,0-1.039-.324,1.553,1.553,0,0,0-1.43.813V0H236.3V-8.453Zm9.586-2.078v2.078h1.445V-6.8h-1.445v4.219a1.007,1.007,0,0,0,.18.672.9.9,0,0,0,.688.2,3.6,3.6,0,0,0,.664-.055V-.047a4.648,4.648,0,0,1-1.367.2,2.156,2.156,0,0,1-2.422-2.4V-6.8h-1.234V-8.453h1.234v-2.078ZM255.617,0a2.507,2.507,0,0,1-.227-.758,2.732,2.732,0,0,1-2.133.914A3,3,0,0,1,251.2-.562a2.312,2.312,0,0,1-.816-1.812,2.389,2.389,0,0,1,1-2.062,4.915,4.915,0,0,1,2.879-.727H255.3v-.484a1.393,1.393,0,0,0-.3-.937,1.183,1.183,0,0,0-.949-.352,1.345,1.345,0,0,0-.895.273.929.929,0,0,0-.324.75H250.57a2.268,2.268,0,0,1,.453-1.359,3,3,0,0,1,1.281-.98,4.669,4.669,0,0,1,1.859-.355,3.689,3.689,0,0,1,2.48.785,2.747,2.747,0,0,1,.918,2.207v3.664a4.041,4.041,0,0,0,.336,1.82V0ZM253.75-1.57a1.945,1.945,0,0,0,.922-.223,1.462,1.462,0,0,0,.625-.6V-3.844h-.844q-1.7,0-1.8,1.172l-.008.133a.9.9,0,0,0,.3.7A1.153,1.153,0,0,0,253.75-1.57Zm10.125-.766a.727.727,0,0,0-.41-.652,4.659,4.659,0,0,0-1.316-.426q-3.016-.633-3.016-2.562a2.323,2.323,0,0,1,.934-1.879,3.766,3.766,0,0,1,2.441-.754,4.053,4.053,0,0,1,2.574.758,2.388,2.388,0,0,1,.965,1.969h-2.258a1.092,1.092,0,0,0-.312-.8A1.322,1.322,0,0,0,262.5-7a1.351,1.351,0,0,0-.883.258.814.814,0,0,0-.312.656.7.7,0,0,0,.355.605,3.657,3.657,0,0,0,1.2.4,9.8,9.8,0,0,1,1.422.379A2.336,2.336,0,0,1,266.07-2.43a2.2,2.2,0,0,1-.992,1.871,4.28,4.28,0,0,1-2.562.715,4.47,4.47,0,0,1-1.887-.379,3.166,3.166,0,0,1-1.293-1.039,2.414,2.414,0,0,1-.469-1.426h2.141a1.179,1.179,0,0,0,.445.922,1.766,1.766,0,0,0,1.109.32,1.635,1.635,0,0,0,.98-.246A.766.766,0,0,0,263.875-2.336Zm3.766,1.227A1.137,1.137,0,0,1,268-1.984a1.289,1.289,0,0,1,.91-.336,1.3,1.3,0,0,1,.918.336,1.137,1.137,0,0,1,.363.875,1.121,1.121,0,0,1-.359.863,1.305,1.305,0,0,1-.922.332A1.294,1.294,0,0,1,268-.246,1.121,1.121,0,0,1,267.641-1.109Z" transform="translate(257 3576)" fill="#12263f"/>
      <path id="Trazado_819131" data-name="Trazado 819131" d="M3.508,0H1.164V-11.375H3.508Zm4.1-8.453.07.977a2.951,2.951,0,0,1,2.43-1.133,2.453,2.453,0,0,1,2,.789,3.682,3.682,0,0,1,.672,2.359V0H10.523V-5.406a1.465,1.465,0,0,0-.312-1.043,1.4,1.4,0,0,0-1.039-.324,1.553,1.553,0,0,0-1.43.813V0H5.484V-8.453Zm10.047,5.7,1.57-5.7h2.359L18.734,0H16.578L13.727-8.453h2.359ZM26.367.156A4.15,4.15,0,0,1,23.34-.984a4.054,4.054,0,0,1-1.168-3.039v-.219a5.106,5.106,0,0,1,.492-2.277,3.612,3.612,0,0,1,1.395-1.547,3.914,3.914,0,0,1,2.059-.543,3.508,3.508,0,0,1,2.73,1.094,4.444,4.444,0,0,1,1,3.1v.922H24.461a2.1,2.1,0,0,0,.66,1.328,2,2,0,0,0,1.395.5,2.437,2.437,0,0,0,2.039-.945l1.109,1.242A3.389,3.389,0,0,1,28.289-.246,4.511,4.511,0,0,1,26.367.156Zm-.258-6.945a1.411,1.411,0,0,0-1.09.455,2.357,2.357,0,0,0-.535,1.3h3.141v-.181a1.681,1.681,0,0,0-.406-1.165A1.456,1.456,0,0,0,26.109-6.789ZM33.2-8.453l.07.977A2.951,2.951,0,0,1,35.7-8.609a2.453,2.453,0,0,1,2,.789,3.682,3.682,0,0,1,.672,2.359V0H36.117V-5.406A1.465,1.465,0,0,0,35.8-6.449a1.4,1.4,0,0,0-1.039-.324,1.553,1.553,0,0,0-1.43.813V0H31.078V-8.453Zm9.586-2.078v2.078h1.445V-6.8H42.789v4.219a1.007,1.007,0,0,0,.18.672.9.9,0,0,0,.688.2,3.6,3.6,0,0,0,.664-.055V-.047a4.648,4.648,0,0,1-1.367.2,2.156,2.156,0,0,1-2.422-2.4V-6.8H39.3V-8.453h1.234v-2.078ZM50.391,0a2.507,2.507,0,0,1-.227-.758,2.732,2.732,0,0,1-2.133.914,3,3,0,0,1-2.059-.719,2.312,2.312,0,0,1-.816-1.812,2.389,2.389,0,0,1,1-2.062,4.915,4.915,0,0,1,2.879-.727H50.07v-.484a1.393,1.393,0,0,0-.3-.937,1.183,1.183,0,0,0-.949-.352,1.345,1.345,0,0,0-.895.273.929.929,0,0,0-.324.75H45.344A2.268,2.268,0,0,1,45.8-7.273a3,3,0,0,1,1.281-.98,4.669,4.669,0,0,1,1.859-.355,3.689,3.689,0,0,1,2.48.785,2.747,2.747,0,0,1,.918,2.207v3.664a4.041,4.041,0,0,0,.336,1.82V0ZM48.523-1.57a1.945,1.945,0,0,0,.922-.223,1.462,1.462,0,0,0,.625-.6V-3.844h-.844q-1.7,0-1.8,1.172l-.008.133a.9.9,0,0,0,.3.7A1.153,1.153,0,0,0,48.523-1.57Zm10.3-4.766a6.134,6.134,0,0,0-.812-.062,1.654,1.654,0,0,0-1.68.867V0H54.07V-8.453H56.2l.063,1.008a2.092,2.092,0,0,1,1.883-1.164,2.366,2.366,0,0,1,.7.1ZM62.289,0H60.023V-8.453h2.266Zm-2.4-10.641a1.112,1.112,0,0,1,.34-.836,1.277,1.277,0,0,1,.926-.328,1.28,1.28,0,0,1,.922.328,1.105,1.105,0,0,1,.344.836,1.108,1.108,0,0,1-.348.844,1.283,1.283,0,0,1-.918.328,1.283,1.283,0,0,1-.918-.328A1.108,1.108,0,0,1,59.891-10.641ZM63.8-4.3a5.013,5.013,0,0,1,.484-2.242A3.546,3.546,0,0,1,65.676-8.07a4.069,4.069,0,0,1,2.113-.539,3.849,3.849,0,0,1,2.793,1.047,4.2,4.2,0,0,1,1.207,2.844l.016.578A4.418,4.418,0,0,1,70.719-1.02,3.775,3.775,0,0,1,67.8.156a3.793,3.793,0,0,1-2.918-1.172A4.5,4.5,0,0,1,63.8-4.2Zm2.258.16A3.16,3.16,0,0,0,66.508-2.3a1.5,1.5,0,0,0,1.3.638,1.5,1.5,0,0,0,1.281-.63,3.457,3.457,0,0,0,.461-2.015,3.128,3.128,0,0,0-.461-1.831,1.5,1.5,0,0,0-1.3-.649,1.474,1.474,0,0,0-1.281.646A3.516,3.516,0,0,0,66.055-4.144Zm10.773-.145a5.094,5.094,0,0,1,.887-3.148,2.877,2.877,0,0,1,2.426-1.172,2.589,2.589,0,0,1,2.039.922V-12h2.266V0H82.406L82.3-.9A2.657,2.657,0,0,1,80.125.156,2.869,2.869,0,0,1,77.73-1.02,5.258,5.258,0,0,1,76.828-4.289Zm2.258.168A3.337,3.337,0,0,0,79.5-2.3a1.349,1.349,0,0,0,1.2.634,1.511,1.511,0,0,0,1.477-.884V-5.889a1.489,1.489,0,0,0-1.461-.884Q79.086-6.773,79.086-4.121Zm11,4.277A4.15,4.15,0,0,1,87.059-.984a4.054,4.054,0,0,1-1.168-3.039v-.219a5.106,5.106,0,0,1,.492-2.277,3.612,3.612,0,0,1,1.395-1.547,3.914,3.914,0,0,1,2.059-.543,3.508,3.508,0,0,1,2.73,1.094,4.444,4.444,0,0,1,1,3.1v.922H88.18a2.1,2.1,0,0,0,.66,1.328,2,2,0,0,0,1.395.5,2.437,2.437,0,0,0,2.039-.945l1.109,1.242A3.389,3.389,0,0,1,92.008-.246,4.511,4.511,0,0,1,90.086.156Zm-.258-6.945a1.411,1.411,0,0,0-1.09.455,2.357,2.357,0,0,0-.535,1.3h3.141v-.181a1.681,1.681,0,0,0-.406-1.165A1.456,1.456,0,0,0,89.828-6.789ZM101.211,0H98.945V-8.453h2.266Zm-2.4-10.641a1.112,1.112,0,0,1,.34-.836,1.277,1.277,0,0,1,.926-.328,1.28,1.28,0,0,1,.922.328,1.105,1.105,0,0,1,.344.836A1.108,1.108,0,0,1,101-9.8a1.283,1.283,0,0,1-.918.328A1.283,1.283,0,0,1,99.16-9.8,1.108,1.108,0,0,1,98.813-10.641Zm6.336,2.188.07.977a2.951,2.951,0,0,1,2.43-1.133,2.453,2.453,0,0,1,2,.789,3.682,3.682,0,0,1,.672,2.359V0h-2.258V-5.406a1.465,1.465,0,0,0-.312-1.043,1.4,1.4,0,0,0-1.039-.324,1.553,1.553,0,0,0-1.43.813V0h-2.258V-8.453Zm11.461,6.117a.727.727,0,0,0-.41-.652,4.659,4.659,0,0,0-1.316-.426q-3.016-.633-3.016-2.562a2.323,2.323,0,0,1,.934-1.879,3.766,3.766,0,0,1,2.441-.754,4.053,4.053,0,0,1,2.574.758,2.388,2.388,0,0,1,.965,1.969h-2.258a1.092,1.092,0,0,0-.312-.8A1.322,1.322,0,0,0,115.234-7a1.351,1.351,0,0,0-.883.258.814.814,0,0,0-.312.656.7.7,0,0,0,.355.605,3.657,3.657,0,0,0,1.2.4,9.8,9.8,0,0,1,1.422.379A2.336,2.336,0,0,1,118.8-2.43a2.2,2.2,0,0,1-.992,1.871,4.28,4.28,0,0,1-2.562.715,4.47,4.47,0,0,1-1.887-.379,3.166,3.166,0,0,1-1.293-1.039,2.414,2.414,0,0,1-.469-1.426h2.141a1.179,1.179,0,0,0,.445.922,1.766,1.766,0,0,0,1.109.32,1.635,1.635,0,0,0,.98-.246A.766.766,0,0,0,116.609-2.336Zm6.352-8.2v2.078h1.445V-6.8h-1.445v4.219a1.007,1.007,0,0,0,.18.672.9.9,0,0,0,.688.2,3.6,3.6,0,0,0,.664-.055V-.047a4.648,4.648,0,0,1-1.367.2,2.156,2.156,0,0,1-2.422-2.4V-6.8h-1.234V-8.453H120.7v-2.078ZM130.563,0a2.507,2.507,0,0,1-.227-.758A2.732,2.732,0,0,1,128.2.156a3,3,0,0,1-2.059-.719,2.312,2.312,0,0,1-.816-1.812,2.389,2.389,0,0,1,1-2.062,4.915,4.915,0,0,1,2.879-.727h1.039v-.484a1.393,1.393,0,0,0-.3-.937,1.183,1.183,0,0,0-.949-.352,1.345,1.345,0,0,0-.895.273.929.929,0,0,0-.324.75h-2.258a2.268,2.268,0,0,1,.453-1.359,3,3,0,0,1,1.281-.98,4.669,4.669,0,0,1,1.859-.355,3.689,3.689,0,0,1,2.48.785,2.747,2.747,0,0,1,.918,2.207v3.664a4.041,4.041,0,0,0,.336,1.82V0ZM128.7-1.57a1.945,1.945,0,0,0,.922-.223,1.462,1.462,0,0,0,.625-.6V-3.844H129.4q-1.7,0-1.8,1.172l-.008.133a.9.9,0,0,0,.3.7A1.153,1.153,0,0,0,128.7-1.57ZM136.625,0h-2.266V-12h2.266Zm6.758,0a2.507,2.507,0,0,1-.227-.758,2.732,2.732,0,0,1-2.133.914,3,3,0,0,1-2.059-.719,2.312,2.312,0,0,1-.816-1.812,2.389,2.389,0,0,1,1-2.062,4.915,4.915,0,0,1,2.879-.727h1.039v-.484a1.393,1.393,0,0,0-.3-.937,1.183,1.183,0,0,0-.949-.352,1.345,1.345,0,0,0-.895.273.929.929,0,0,0-.324.75h-2.258a2.268,2.268,0,0,1,.453-1.359,3,3,0,0,1,1.281-.98,4.669,4.669,0,0,1,1.859-.355,3.689,3.689,0,0,1,2.48.785,2.747,2.747,0,0,1,.918,2.207v3.664a4.041,4.041,0,0,0,.336,1.82V0Zm-1.867-1.57a1.945,1.945,0,0,0,.922-.223,1.462,1.462,0,0,0,.625-.6V-3.844h-.844q-1.7,0-1.8,1.172l-.008.133a.9.9,0,0,0,.3.7A1.153,1.153,0,0,0,141.516-1.57Zm9.063-.094a1.481,1.481,0,0,0,1.016-.344A1.2,1.2,0,0,0,152-2.922h2.117a2.9,2.9,0,0,1-.469,1.574,3.093,3.093,0,0,1-1.262,1.109,3.949,3.949,0,0,1-1.77.395A3.67,3.67,0,0,1,147.758-1a4.56,4.56,0,0,1-1.047-3.184v-.148a4.508,4.508,0,0,1,1.039-3.117A3.627,3.627,0,0,1,150.6-8.609a3.555,3.555,0,0,1,2.543.9,3.2,3.2,0,0,1,.973,2.4H152a1.551,1.551,0,0,0-.406-1.072,1.355,1.355,0,0,0-1.031-.412,1.36,1.36,0,0,0-1.191.575,3.333,3.333,0,0,0-.4,1.866v.235a3.375,3.375,0,0,0,.4,1.878A1.377,1.377,0,0,0,150.578-1.664ZM157.789,0h-2.266V-8.453h2.266Zm-2.4-10.641a1.112,1.112,0,0,1,.34-.836,1.277,1.277,0,0,1,.926-.328,1.28,1.28,0,0,1,.922.328,1.105,1.105,0,0,1,.344.836,1.109,1.109,0,0,1-.348.844,1.283,1.283,0,0,1-.918.328,1.283,1.283,0,0,1-.918-.328A1.109,1.109,0,0,1,155.391-10.641ZM159.3-4.3a5.013,5.013,0,0,1,.484-2.242,3.546,3.546,0,0,1,1.395-1.523,4.069,4.069,0,0,1,2.113-.539,3.849,3.849,0,0,1,2.793,1.047,4.2,4.2,0,0,1,1.207,2.844l.016.578a4.418,4.418,0,0,1-1.086,3.121A3.775,3.775,0,0,1,163.3.156a3.793,3.793,0,0,1-2.918-1.172A4.5,4.5,0,0,1,159.3-4.2Zm2.258.16a3.16,3.16,0,0,0,.453,1.843,1.5,1.5,0,0,0,1.3.638,1.5,1.5,0,0,0,1.281-.63,3.457,3.457,0,0,0,.461-2.015,3.128,3.128,0,0,0-.461-1.831,1.5,1.5,0,0,0-1.3-.649,1.474,1.474,0,0,0-1.281.646A3.516,3.516,0,0,0,161.555-4.144Zm9.219-4.309.07.977a2.951,2.951,0,0,1,2.43-1.133,2.453,2.453,0,0,1,2,.789,3.682,3.682,0,0,1,.672,2.359V0h-2.258V-5.406a1.465,1.465,0,0,0-.312-1.043,1.4,1.4,0,0,0-1.039-.324,1.553,1.553,0,0,0-1.43.813V0h-2.258V-8.453ZM181.547.156A4.15,4.15,0,0,1,178.52-.984a4.054,4.054,0,0,1-1.168-3.039v-.219a5.106,5.106,0,0,1,.492-2.277,3.612,3.612,0,0,1,1.395-1.547,3.914,3.914,0,0,1,2.059-.543,3.508,3.508,0,0,1,2.73,1.094,4.444,4.444,0,0,1,1,3.1v.922h-5.383a2.1,2.1,0,0,0,.66,1.328,2,2,0,0,0,1.395.5,2.437,2.437,0,0,0,2.039-.945l1.109,1.242a3.389,3.389,0,0,1-1.375,1.121A4.511,4.511,0,0,1,181.547.156Zm-.258-6.945a1.411,1.411,0,0,0-1.09.455,2.357,2.357,0,0,0-.535,1.3H182.8v-.181a1.681,1.681,0,0,0-.406-1.165A1.456,1.456,0,0,0,181.289-6.789Zm9.594,4.453a.727.727,0,0,0-.41-.652,4.659,4.659,0,0,0-1.316-.426q-3.016-.633-3.016-2.562a2.323,2.323,0,0,1,.934-1.879,3.766,3.766,0,0,1,2.441-.754,4.053,4.053,0,0,1,2.574.758,2.388,2.388,0,0,1,.965,1.969H190.8a1.092,1.092,0,0,0-.312-.8A1.322,1.322,0,0,0,189.508-7a1.351,1.351,0,0,0-.883.258.814.814,0,0,0-.312.656.7.7,0,0,0,.355.605,3.657,3.657,0,0,0,1.2.4,9.8,9.8,0,0,1,1.422.379,2.336,2.336,0,0,1,1.789,2.273,2.205,2.205,0,0,1-.992,1.871,4.28,4.28,0,0,1-2.562.715,4.47,4.47,0,0,1-1.887-.379,3.166,3.166,0,0,1-1.293-1.039,2.414,2.414,0,0,1-.469-1.426h2.141a1.179,1.179,0,0,0,.445.922,1.766,1.766,0,0,0,1.109.32,1.635,1.635,0,0,0,.98-.246A.766.766,0,0,0,190.883-2.336Zm3.766,1.227a1.137,1.137,0,0,1,.363-.875,1.289,1.289,0,0,1,.91-.336,1.3,1.3,0,0,1,.918.336,1.137,1.137,0,0,1,.363.875,1.121,1.121,0,0,1-.359.863,1.305,1.305,0,0,1-.922.332,1.294,1.294,0,0,1-.914-.332A1.121,1.121,0,0,1,194.648-1.109Z" transform="translate(257 3619)" fill="#12263f"/>
    </g>
  </g>
</svg>
