<svg id="Grupo_1072489" data-name="Grupo 1072489" xmlns="http://www.w3.org/2000/svg" xmlns:xlink="http://www.w3.org/1999/xlink" width="176.666" height="130.849" viewBox="0 0 176.666 130.849">
  <defs>
    <clipPath id="clip-path">
      <path id="Trazado_817663" data-name="Trazado 817663" d="M400.575,421.353c-6.75,9.539-10.075,13.243-19.055,15.921s2.127,10.122-1.658,13.585c-5.559,5.085,9.441,7.756,9.441,7.756s67-1.3,74.141-6.2S460.69,433.325,453,429.92s-14.849-7.819-24.452-15.147a16.982,16.982,0,0,0-10.431-3.676c-6.644,0-13.13,4.026-17.54,10.256" transform="translate(-377.917 -411.097)" fill="none"/>
    </clipPath>
    <linearGradient id="linear-gradient" x1="-1.233" y1="0.795" x2="-1.231" y2="0.795" gradientUnits="objectBoundingBox">
      <stop offset="0" stop-color="#f1c489"/>
      <stop offset="0.995" stop-color="#f1a45c"/>
      <stop offset="1" stop-color="#f1a45c"/>
    </linearGradient>
    <clipPath id="clip-path-2">
      <rect id="Rectángulo_376834" data-name="Rectángulo 376834" width="176.666" height="130.848" fill="none"/>
    </clipPath>
    <clipPath id="clip-path-3">
      <path id="Trazado_817722" data-name="Trazado 817722" d="M419.039,457.148c-6.751,9.539-10.075,13.243-19.055,15.921s-3.928,10.066-7.712,13.528c-5.559,5.085-3.241,5.6-3.241,5.6s85.734.917,92.877-3.986-2.754-19.088-10.447-22.493-14.849-7.819-24.452-15.147a16.982,16.982,0,0,0-10.431-3.676c-6.644,0-13.13,4.025-17.539,10.256" transform="translate(-388.552 -446.892)" fill="none"/>
    </clipPath>
    <linearGradient id="linear-gradient-2" x1="-0.683" y1="1.042" x2="-0.681" y2="1.042" xlink:href="#linear-gradient"/>
    <clipPath id="clip-path-4">
      <path id="Trazado_817723" data-name="Trazado 817723" d="M364.078,678c-9.513,3.21-12.993,3.18-12.266,4.5.094.172.3.247.594.248h.02a22.624,22.624,0,0,0,4.94-1.522c2.285-.822,4.842-1.644,6.793-1.507,4.323.305,9.344,3.149,11.4,1.357.746-.65-.853-4.08-6.057-4.081a17.078,17.078,0,0,0-5.425,1" transform="translate(-351.719 -677)" fill="none"/>
    </clipPath>
    <linearGradient id="linear-gradient-3" x1="-2.55" y1="0.976" x2="-2.543" y2="0.976" gradientUnits="objectBoundingBox">
      <stop offset="0" stop-color="#f1c489"/>
      <stop offset="0.995" stop-color="#f1c185"/>
      <stop offset="1" stop-color="#f1c185"/>
    </linearGradient>
  </defs>
  <g id="Grupo_1072480" data-name="Grupo 1072480" transform="translate(69.831 75.963)">
    <g id="Grupo_1072479" data-name="Grupo 1072479" clip-path="url(#clip-path)">
      <rect id="Rectángulo_376830" data-name="Rectángulo 376830" width="65.462" height="105.347" transform="matrix(0.192, -0.981, 0.981, 0.192, -14.332, 45.765)" fill="url(#linear-gradient)"/>
    </g>
  </g>
  <g id="Grupo_1072482" data-name="Grupo 1072482">
    <g id="Grupo_1072481" data-name="Grupo 1072481" clip-path="url(#clip-path-2)">
      <path id="Trazado_817664" data-name="Trazado 817664" d="M599.5,138.3s.486-2.033.551-2.346a5.032,5.032,0,0,0-.743-2.052,5.848,5.848,0,0,0-1.69-1.957.9.9,0,0,0-.744.1,1.728,1.728,0,0,0-.618.62,1.051,1.051,0,0,0-.85.554.914.914,0,0,0-.747.691s-.565.074-.647.543a6.93,6.93,0,0,1,.373,1.17,18.246,18.246,0,0,0,2.042,3.4s.919,1.784,3.072-.718" transform="translate(-484.247 -107.532)" fill="#eea886"/>
      <path id="Trazado_817665" data-name="Trazado 817665" d="M601.691,152.234a5.147,5.147,0,0,0-.68,1.17c-.055.326-2.29-.454-2.29-.454s1.923-1.447,2.97-.716" transform="translate(-488.089 -123.936)" fill="#cf8c6c"/>
      <path id="Trazado_817666" data-name="Trazado 817666" d="M868.333,89.256l13.27-4.29,2.946-.443L881.9,85.888l-13.27,4.29Z" transform="translate(-707.883 -68.905)" fill="#ccaeae"/>
      <rect id="Rectángulo_376831" data-name="Rectángulo 376831" width="65.297" height="1.366" transform="translate(94.093 32.981) rotate(-17.913)" fill="#4a3f3f"/>
      <rect id="Rectángulo_376832" data-name="Rectángulo 376832" width="5.584" height="1.475" transform="matrix(0.951, -0.308, 0.308, 0.951, 151.734, 14.296)" fill="#ccaeae"/>
      <path id="Trazado_817667" data-name="Trazado 817667" d="M843.1,42.154l-5.348-16.541a1.064,1.064,0,0,0-.685,1.339l4.693,14.517a1.063,1.063,0,0,0,1.339.685" transform="translate(-682.354 -20.88)" fill="#ccaeae"/>
      <path id="Trazado_817668" data-name="Trazado 817668" d="M859.274,61.235l13.27-4.29,2.946-.443-2.648,1.365-13.27,4.29Z" transform="translate(-700.497 -46.062)" fill="#ccaeae"/>
      <path id="Trazado_817669" data-name="Trazado 817669" d="M849.8,31.939l13.27-4.29,2.946-.443-2.648,1.365-13.27,4.29Z" transform="translate(-692.776 -22.179)" fill="#ccaeae"/>
      <path id="Trazado_817670" data-name="Trazado 817670" d="M841.006,4.733l13.27-4.29L857.221,0l-2.648,1.365L841.3,5.656Z" transform="translate(-685.605 0)" fill="#ccaeae"/>
      <path id="Trazado_817671" data-name="Trazado 817671" d="M610.162,163.385a6.355,6.355,0,0,1-.19-1.618c.05-.663-3.189,1.409-3.189,1.409s1.145,1.1,2.022,1.916c.7.652,1.357-1.707,1.357-1.707" transform="translate(-494.662 -131.768)" fill="#eea886"/>
      <path id="Trazado_817672" data-name="Trazado 817672" d="M612.432,135.7s6.55,10.76,8.838,10.193c1.057-.262,4.559-2.971,5.88-4.69.436-.566.863-1.16,1.269-1.748a0,0,0,0,0,0,0c1.621-2.348,2.89-4.6,2.89-4.6s4.792-5.635.935-8.137a2.562,2.562,0,0,0-2.681.857,24.675,24.675,0,0,0-3.121,5,71.812,71.812,0,0,1-5.016,6.191c-.244.154-1.925-.753-3.033-1.986-1.632-1.817-3.407-4.27-3.407-4.27Z" transform="translate(-499.267 -103.22)" fill="#ffbf55"/>
      <path id="Trazado_817673" data-name="Trazado 817673" d="M729.609,42.433l0,0a15.575,15.575,0,0,1-1.766,2.927c-2.3,2.96-7.673,3.042-7.765-5.074a12.544,12.544,0,0,1,.479-3.8c1.094-3.6,3.677-4.208,3.677-4.208,1.909-.109,5.252.358,6.37,2.843.794,1.765.227,4.693-.992,7.3" transform="translate(-587.02 -26.309)" fill="#eea987"/>
      <path id="Trazado_817674" data-name="Trazado 817674" d="M731.728,42.433l0,0s-.275.074-1.271-1.928c-.2-.4-.352-.114-.439-.292l-1.581-.614s1.559-2.617-.488-3.339c-2.086-.736-5.273.23-5.273.23,1.094-3.6,3.677-4.208,3.677-4.208,1.909-.109,5.252.358,6.37,2.843.794,1.765.227,4.693-.992,7.3" transform="translate(-589.138 -26.309)" fill="#665249"/>
      <path id="Trazado_817675" data-name="Trazado 817675" d="M760.052,66.187c.117-.543,1.188-1.011,1.645.154s-1.064,2.4-1.466,2.149-.372-1.4-.179-2.3" transform="translate(-619.497 -53.493)" fill="#eea987"/>
      <path id="Trazado_817676" data-name="Trazado 817676" d="M730.344,31.481s-5.086-3.506-11.009-2.242c0,0,.339-7.408,7.087-6.151,6.34,1.181,4.138,7.556,3.922,8.393" transform="translate(-586.417 -18.705)" fill="#eddcc5"/>
      <path id="Trazado_817677" data-name="Trazado 817677" d="M706.324,53.578s-8.385.917-11.612.247,3.961-1.67,3.961-1.67,2.688-.85,7.651,1.423" transform="translate(-565.664 -42.391)" fill="#eddcc5"/>
      <path id="Trazado_817678" data-name="Trazado 817678" d="M619.757,579.466a12.394,12.394,0,0,1-4.076,2.221c-1.863.407-2.839,1.362-2.851,2.468s5.367,1.826,7.5.707c3.18-1.67,3.5-1.169,3.856-2a11.426,11.426,0,0,0,.087-3.3c.028-.327-4.513-.1-4.513-.1" transform="translate(-499.591 -472.328)" fill="#2e2626"/>
      <path id="Trazado_817679" data-name="Trazado 817679" d="M650.217,574.131a7.55,7.55,0,0,0-.2.923c.036.019,4.2.479,4.073-.246-.1-.588-.25-1.226-.25-1.226Z" transform="translate(-529.9 -467.595)" fill="#2e2626"/>
      <path id="Trazado_817680" data-name="Trazado 817680" d="M769.113,587.191a6.512,6.512,0,0,1-3.125,2.513c-1.725.417-2.361,1.075-2.444,2.117s4.072,2.4,6.987.564c1.915-1.205,2.63-1.138,3.015-1.9s.088-2.915.127-3.164c.047-.307-4.561-.128-4.561-.128" transform="translate(-622.456 -478.647)" fill="#2e2626"/>
      <path id="Trazado_817681" data-name="Trazado 817681" d="M795.926,581.822a8.036,8.036,0,0,0-.052.9c.033.02,3.878.694,3.854,0a5.361,5.361,0,0,0-.246-1.235Z" transform="translate(-648.806 -474.04)" fill="#2f6b8c"/>
      <path id="Trazado_817682" data-name="Trazado 817682" d="M658.1,279.245s-5.2,12.969-6.7,17.372a66.085,66.085,0,0,0-3.29,13.674c-.307,3.492-1.5,19.971-1.721,20.992s5.865.669,5.865.669,3.387-20.783,4.312-24.5c.862-3.464,9.051-19.185,9.844-18.241s3.451,17.017,4.042,19.747,2.2,24.224,2.2,24.224,5.341.847,6.414-.011c0,0-.875-19.167-1.257-24.286-.146-1.951,1.194-23.36-2.12-31.987-1.751-4.559-17.593,2.35-17.593,2.35" transform="translate(-526.95 -224.461)" fill="#244057"/>
      <path id="Trazado_817683" data-name="Trazado 817683" d="M706.433,120.31s-4.519.936-5.1,1.457c-.636.554-1.9,6.148-1.962,7.657a54.742,54.742,0,0,0,.975,10.067c.641,2.345-1.121,14.233-1.518,17.485,0,0,12.591,2.393,22.374,1.1,0,0-3.052-12.579-2.666-15.794.495-4.119,2.109-13.1,2.109-13.1s-.132-6.225-1.005-6.961-7.611-1.883-7.611-1.883Z" transform="translate(-569.695 -98.079)" fill="#ffbf55"/>
      <path id="Trazado_817684" data-name="Trazado 817684" d="M734.537,93.749s1.389,1.04,6.024-1.012a12.771,12.771,0,0,1,.446-5.474c.9-2.972-5.984,3.083-5.984,3.083.075.052.09.349.048.763,0,.027-.006.054-.009.081a8.088,8.088,0,0,1-.184,1.013c-.011.044-.022.089-.034.134-.259.994-.309.544-.307,1.411" transform="translate(-598.809 -70.469)" fill="#eea886"/>
      <path id="Trazado_817685" data-name="Trazado 817685" d="M736.381,103.2h0c3.324.421,5.132-3.163,5.184-3.269-2.27,3.32-5,2.256-5,2.256h0a8.074,8.074,0,0,1-.184,1.013" transform="translate(-600.312 -81.468)" fill="#a77860"/>
      <path id="Trazado_817686" data-name="Trazado 817686" d="M733.013,119.963s-1.06,1.583.422,1.85a6.724,6.724,0,0,0,5.992-2.075s-4.332-.383-6.414.226" transform="translate(-597.268 -97.515)" fill="#eea886"/>
      <path id="Trazado_817687" data-name="Trazado 817687" d="M805.523,276.661a1.228,1.228,0,0,1-.706.291c-.629-.012-1.349-.734-2-.091s.748,3.417,1.249,3.746,1.629-.242,2.831-1.761-1.372-2.184-1.372-2.184" transform="translate(-654.333 -225.485)" fill="#eea886"/>
      <path id="Trazado_817688" data-name="Trazado 817688" d="M782.622,277.047A25.025,25.025,0,0,0,780,278.169c-1.185.595-2.532,1.541-2.43,1.824.237.653,1.3-.362,2.51-.868,1.118-.465.953-.218.953-.218s.036-.086-1.083.674c-1.2.817-2.356,1.784-2.293,2.137.031.172.128.224.612,0-.251.19-.236.291-.168.411.351.62,2.3-.285,3.079-.644-.594.28-1,.553-.552.792.511.273,3.214-1.14,4.23-1.547,1.108-.443-2.24-3.686-2.24-3.686" transform="translate(-633.888 -225.854)" fill="#eea886"/>
      <path id="Trazado_817689" data-name="Trazado 817689" d="M791.7,129.266c-.762.764-.465,3.547.863,5.879a14.8,14.8,0,0,0,3.059,3.788c.683.565,4.813,3.8,4.631,4.536s-2.57,5.963-2.675,6.354-2.9,5.877-2.9,5.877L798,157.91s6.478-10.7,6.924-11.694,2.021-3.319.271-5.527c-1.778-2.244-5.5-7.665-5.937-8.034s-4.166-6.793-7.559-3.388" transform="translate(-645.074 -104.572)" fill="#ffbf55"/>
      <path id="Trazado_817690" data-name="Trazado 817690" d="M795.849,160.846a9.785,9.785,0,0,0,3.078,6.042l.321-1.481s-2.718-2.479-3.4-4.562" transform="translate(-648.792 -131.125)" fill="#c49341"/>
      <path id="Trazado_817691" data-name="Trazado 817691" d="M597.745,132.087s1.134,2.345.779,2.574a.663.663,0,0,1-.625.1l.029,1.177a.676.676,0,0,1-1.158.1s-.316.779-.95.028c0,0-.438.421-.792.125a8.686,8.686,0,0,1-1.022-1.835s-.036-.418.606-.572a.947.947,0,0,1,.768-.7.89.89,0,0,1,.809-.561s.536-.981,1.423-.668c0,0,.085.136.133.235" transform="translate(-484.245 -107.438)" fill="#db9c7c"/>
      <path id="Trazado_817692" data-name="Trazado 817692" d="M612.724,147.408a8.852,8.852,0,0,0-2.464-1.323c-.235-.056-.472-.067-.612.13s-.033.65.562,1.148a6.537,6.537,0,0,1,1.134,1.414s.761.333,1.381-1.369" transform="translate(-496.953 -119.063)" fill="#eea886"/>
      <path id="Trazado_817693" data-name="Trazado 817693" d="M458.9,508.434l10.513,9.163,2.534,1.566-1.9-2.3L459.54,507.7Z" transform="translate(-374.107 -413.89)" fill="#eddada"/>
      <rect id="Rectángulo_376833" data-name="Rectángulo 376833" width="1.365" height="65.297" transform="translate(28.709 56.833) rotate(-48.923)" fill="#4a3f3f"/>
      <path id="Trazado_817694" data-name="Trazado 817694" d="M407.62,520.888,406.606,522l-4.21-3.669,1.014-1.112Z" transform="translate(-328.041 -421.647)" fill="#eddada"/>
      <path id="Trazado_817695" data-name="Trazado 817695" d="M410.137,506.549l-11.422,13.1a1.023,1.023,0,0,1-.058-1.5l10.024-11.5a1.007,1.007,0,0,1,1.456-.1" transform="translate(-324.749 -412.735)" fill="#eddada"/>
      <path id="Trazado_817696" data-name="Trazado 817696" d="M439.554,530.635l10.513,9.163,2.489,1.566-1.9-2.3L440.146,529.9Z" transform="translate(-358.333 -431.989)" fill="#eddada"/>
      <path id="Trazado_817697" data-name="Trazado 817697" d="M419.079,553.845l10.513,9.163,2.534,1.566-1.852-2.3-10.513-9.163Z" transform="translate(-341.642 -450.91)" fill="#eddada"/>
      <path id="Trazado_817698" data-name="Trazado 817698" d="M400.537,575.4l10.513,9.163,2.489,1.566-1.9-2.3-10.513-9.163Z" transform="translate(-326.526 -468.482)" fill="#eddada"/>
      <path id="Trazado_817699" data-name="Trazado 817699" d="M160.874,254.314a35.735,35.735,0,0,0-5.022.008c-2.077.216-4.945,1.921-6.682,2.415s-5.925,3.32-5.811,3.7a31.325,31.325,0,0,0,4.755,8.687c2.576,3.183,12.759-14.815,12.759-14.815" transform="translate(-116.868 -207.249)" fill="#ffbf55"/>
      <path id="Trazado_817700" data-name="Trazado 817700" d="M178.45,264.768s-3.17,2.356-4.271,4.51A17.419,17.419,0,0,0,172.706,274Z" transform="translate(-140.793 -215.844)" fill="#ad823a"/>
      <path id="Trazado_817701" data-name="Trazado 817701" d="M271.489,652.009a7.7,7.7,0,0,0,1.433,1.216c.525.254,6.787,1.32,7.213,1.829s.429,2.521-1.185,2.523-7-.017-7.9.013-4.735.8-5.13.009-.365-4.495.333-5.383,5.241-.207,5.241-.207" transform="translate(-216.571 -531.327)" fill="#2e2626"/>
      <path id="Trazado_817702" data-name="Trazado 817702" d="M273.881,647.024l.195,1.125s-1.67.768-5.241.207l0-1.161Z" transform="translate(-219.158 -527.467)" fill="#4a3f3f"/>
      <path id="Trazado_817703" data-name="Trazado 817703" d="M1.96,626.92a4.957,4.957,0,0,0-1.045,1.872C.86,629.5-.353,632.618.1,633.383s4.025.871,5.809.585,5.666.3,6.062-.464.62-1.882-.542-2.313-3.827-1.56-4.311-2.75S1.96,626.92,1.96,626.92" transform="translate(0 -511.078)" fill="#2e2626"/>
      <path id="Trazado_817704" data-name="Trazado 817704" d="M16.262,616.779l-.493,1.276s-5.114-.375-5.159-1.521l1.611-2.354Z" transform="translate(-8.649 -500.692)" fill="#4a3f3f"/>
      <path id="Trazado_817705" data-name="Trazado 817705" d="M254.451,245.374a1.807,1.807,0,0,0-.616.319c-.192.133-.41.3-.642.488-1.272,1.031-2.943,2.682-2.943,2.682s-3.616-5.312-2.8-5.116,3.719-2.546,3.719-2.546,4.06,4.068,3.287,4.172" transform="translate(-201.626 -196.633)" fill="#eea886"/>
      <path id="Trazado_817706" data-name="Trazado 817706" d="M165.148,272.437a4.828,4.828,0,0,1-.567.694c-.086.075-.19.162-.31.26h0a47.832,47.832,0,0,1-4.932,3.374c-1.321.72-4.521,7.033-4.521,7.033s-11.126-1.039-13.856-7.153a54.134,54.134,0,0,1,3.671-6.862c1.752-2.553,5.59-11.738,7.627-13.045s3.792-2.16,7.816-2.053a8.436,8.436,0,0,1,6.257,3.295s3.065,3.281,3.37,5.018c.263,1.494-3.049,7.332-4.553,9.437" transform="translate(-114.913 -207.618)" fill="#ffbf55"/>
      <path id="Trazado_817707" data-name="Trazado 817707" d="M264.278,288.929c-.969.587-1.132.776-1.014,3.553s1.274,5.012,1.36,5.777,2.141,9.77,2.567,10.194,5.4,6.412,5.895,6.9,3.974,4.79,3.974,4.79l2.492-.873s-6.668-11.547-6.933-12.189-2.189-11.453-2.418-12.623.163-3.011-1.241-5.787c-1.257-2.485-4.682.255-4.682.255" transform="translate(-214.591 -234.484)" fill="#ffbf55"/>
      <path id="Trazado_817708" data-name="Trazado 817708" d="M144.02,380.725s.719.981,1.249,1.546,9.461,10.561,10.03,11.882.729,6.42.921,8.271,3.469,21.92,3.62,22.185-4.518,1.419-7.627,1.035c0,0-2.1-13.691-2.667-15.692a64.118,64.118,0,0,1-1.49-9.63c.112-.794-7.193-9.2-9.234-10.448a77.556,77.556,0,0,1-7.6-6.22c-.567-.565-3.781-2.071-3.484-4.943a10.038,10.038,0,0,1,2.428-5.141Z" transform="translate(-104.117 -304.543)" fill="#538742"/>
      <path id="Trazado_817709" data-name="Trazado 817709" d="M36.167,384.883s-.317.839-.763,2.015c-.957,2.525-2.5,6.6-2.76,7.245-.376.946-2.258,5.028-3.163,5.823s-16.291,19.66-16.329,19.811-6.409-2-6.751-3.1c0,0,9.376-12.195,10.619-13.744s3.846-3.859,4.709-7.526,7.069-17.765,7.088-18.294c0,0,1-4.345,2.447-5.67s6.743.215,7.578,2.971-2.677,10.469-2.677,10.469" transform="translate(-5.219 -302.415)" fill="#538742"/>
      <path id="Trazado_817710" data-name="Trazado 817710" d="M160.1,293.078s-6.528-2.742-4.46-8.034c0,0,.866-1.437.942-1.55,0,0-6.5-4.368-7.827-4.668,0,0-3.262,2.772-5.195,4.847,0,0-6.412,11.441-7.645,13.875s14.732,5.938,14.732,5.938,3.475-6.368,4.3-6.879,4.8-2.664,5.15-3.529" transform="translate(-110.749 -227.305)" fill="#538742"/>
      <path id="Trazado_817711" data-name="Trazado 817711" d="M238.55,283.387s3.3-4.4,7.339-3.723a4.674,4.674,0,0,0-.769-.969,9.761,9.761,0,0,0-7.656,3.988c-2.932,4.111,1.085.7,1.085.7" transform="translate(-192.713 -227.198)" fill="#538742"/>
      <path id="Trazado_817712" data-name="Trazado 817712" d="M205.7,258.845s3.37-3.493,6-4.456a2.3,2.3,0,0,1,1.155,0s-5.308,3.573-5.722,5.22-1.428-.767-1.428-.767" transform="translate(-167.694 -207.323)" fill="#538742"/>
      <path id="Trazado_817713" data-name="Trazado 817713" d="M330.531,452.153s.613,1.3.875,1.681c.319.467.682.864.389,1.248s-.821,1.56-1.237,2.149-3.879.2-4.373-.212-.665-3.471.1-4.32,1.946-2.068,1.946-2.068Z" transform="translate(-265.57 -367.363)" fill="#eea886"/>
      <path id="Trazado_817714" data-name="Trazado 817714" d="M290.029,391.76a11.312,11.312,0,0,0-5.365,1.58s3.815,4.537,5.188,6.1,4.681,5.593,4.681,5.593l2.492-.873s-4.091-7.019-4.812-8.642a29.725,29.725,0,0,0-2.184-3.758" transform="translate(-232.064 -319.371)" fill="#eea886"/>
      <path id="Trazado_817715" data-name="Trazado 817715" d="M246.572,252.737l1.2-.477a9.048,9.048,0,0,1,4.8,3.127l-.15.728s-4.639-1-5.856-3.378" transform="translate(-201.01 -205.647)" fill="#ffbf55"/>
      <path id="Trazado_817716" data-name="Trazado 817716" d="M267.445,334.845a4.83,4.83,0,0,1-.567.694c-.086.075-.19.162-.31.26h0l-.122-4.569.662,2.021c.086.262.339,1.593.339,1.593" transform="translate(-217.21 -270.027)" fill="#ad823a"/>
      <path id="Trazado_817717" data-name="Trazado 817717" d="M149.375,430.575s-.317.839-.763,2.015a50.044,50.044,0,0,1-3.342-5.58c.151.108.637.562.749.663s3.356,2.9,3.356,2.9" transform="translate(-118.427 -348.107)" fill="#2f4d25"/>
      <path id="Trazado_817718" data-name="Trazado 817718" d="M278.438,201.682s.249,2.838-.521,2.93c-.636.076-.506,2.812-.52,3.244s-1.2.24-1.525.38-2.26,2.774-3.176,2.484-4.278-3.371-4.872-4.955.7-7.023,2.342-8.846,7.815-.2,8.272,4.763" transform="translate(-218.216 -159.941)" fill="#eea886"/>
      <path id="Trazado_817719" data-name="Trazado 817719" d="M275.67,200.657s1.271-1.519-.236-4.356-6.1-1.972-6.638-1.914c-1.862.2-2.954,1.237-4.012,4.292a28.117,28.117,0,0,0-.574,4.867s2.524-2.269,3.24-2.089c1.015.255,2.058.567,2.058.567s.117-2.507,1.518-2.265,3.564-.133,4.642.9" transform="translate(-215.39 -158.331)" fill="#754836"/>
      <path id="Trazado_817720" data-name="Trazado 817720" d="M281.742,228.883c.045-.28.243-1.534-.715-1.746s-1.259,1.307-.924,2.414,1.385.893,1.639-.667" transform="translate(-228.238 -185.15)" fill="#eea886"/>
      <path id="Trazado_817721" data-name="Trazado 817721" d="M271.846,252.884c-.193.133-.411.3-.642.488a11.683,11.683,0,0,1-1.784-3.349,17.112,17.112,0,0,0,2.425,2.862" transform="translate(-219.637 -203.824)" fill="#a77860"/>
    </g>
  </g>
  <g id="Grupo_1072484" data-name="Grupo 1072484" transform="translate(71.797 82.577)">
    <g id="Grupo_1072483" data-name="Grupo 1072483" clip-path="url(#clip-path-3)">
      <rect id="Rectángulo_376835" data-name="Rectángulo 376835" width="102.416" height="46.392" transform="translate(-1.917 0) rotate(-0.097)" fill="url(#linear-gradient-2)"/>
    </g>
  </g>
  <g id="Grupo_1072486" data-name="Grupo 1072486" transform="translate(64.991 125.096)">
    <g id="Grupo_1072485" data-name="Grupo 1072485" clip-path="url(#clip-path-4)">
      <rect id="Rectángulo_376836" data-name="Rectángulo 376836" width="25.231" height="5.916" transform="matrix(1, -0.002, 0.002, 1, -0.644, 0)" fill="url(#linear-gradient-3)"/>
    </g>
  </g>
  <g id="Grupo_1072488" data-name="Grupo 1072488">
    <g id="Grupo_1072487" data-name="Grupo 1072487" clip-path="url(#clip-path-2)">
      <path id="Trazado_817724" data-name="Trazado 817724" d="M745.237,510.519s16.411-.579,19.9,3.185.47,3.919-5.779,3.782-14.118-6.967-14.118-6.967" transform="translate(-607.532 -416.159)" fill="#f1ad68"/>
      <path id="Trazado_817725" data-name="Trazado 817725" d="M553.089,490.972c0-.387-2.052-12.95-7.652-8.88s3.767-1.352,4.79,3.137,2.862,5.743,2.862,5.743" transform="translate(-443.206 -392.351)" fill="#f1b97a"/>
    </g>
  </g>
</svg>
