<svg id="Grupo_1072491" data-name="Grupo 1072491" xmlns="http://www.w3.org/2000/svg" xmlns:xlink="http://www.w3.org/1999/xlink" width="174.66" height="93.784" viewBox="0 0 174.66 93.784">
  <defs>
    <clipPath id="clip-path">
      <rect id="Rectángulo_376842" data-name="Rectángulo 376842" width="174.66" height="93.784" fill="none"/>
    </clipPath>
  </defs>
  <g id="Grupo_1072490" data-name="Grupo 1072490" clip-path="url(#clip-path)">
    <path id="Trazado_817726" data-name="Trazado 817726" d="M45.014,130.559s.508,13.231-1.055,18.03-4.775,12.494-9.406,12.5S28.5,153.66,28.5,153.66s-.661.249-.411,1.572,2.079,6.695,6.875,6.686,8.833-7.54,10.147-13.5a54.637,54.637,0,0,0,1.4-8.191Z" transform="translate(-22.539 -104.956)" fill="#964823"/>
    <path id="Trazado_817727" data-name="Trazado 817727" d="M178.58,331c-4.032-.3-3.971-.862-5.839-5.448q-.213-.524-.429-1.086c-1.747-4.554-3.573-10.775-4.494-12.55a30.525,30.525,0,0,1-1.747-4.79c-.117-.409-.185-.664-.185-.664s4.832-3.171,10.094,2.622a3.846,3.846,0,0,0-.719,2.943c.189,1.984,2.866,7.747,3.427,9.607s3.61,7.436,4.292,7.5-.368,2.171-4.4,1.868" transform="translate(-133.356 -245.668)" fill="#784a36"/>
    <path id="Trazado_817728" data-name="Trazado 817728" d="M508.08,272.244s3.033,3.81,3.532,5.421,1.687,7.253.391,11.1-4.524,14.074-4.212,15.376,7.962,1.735,8.953.679-.2-6.14.667-9.18S520,286.086,520,284.66s-.376-16.5-11.917-12.415" transform="translate(-408.196 -218.295)" fill="#784a36"/>
    <path id="Trazado_817729" data-name="Trazado 817729" d="M263.621,76.535c-5.782,3.316-8.008,1.537-8.849-.069a9.339,9.339,0,0,0-2.636-2.424c-.007,0-.015-.012-.023-.017a47.461,47.461,0,0,1-5.368-3.995s0,0,0-.008a.314.314,0,0,1-.03-.032,4.6,4.6,0,0,1-.385-.456c-1.492-2.064-7.452-5.609-8.363-7.592s-4.309-4.128-5.634-6.192a5.073,5.073,0,0,0-3.032-1.632c-2.459-.591-5.55-.459-6.4.656-1.319,1.739-15.287,6.972-15.286,7.88s.6,11.825.438,13.643a6.622,6.622,0,0,0,.3,1.811c.9,3.476,3.209,8.457,2.878,9.393-.412,1.159-7.456,1.292-8.947.217a1.019,1.019,0,0,1-.211-.205,2.235,2.235,0,0,1-.391-1.014c-.358-2.039.489-5.756.422-7.379-.052-1.248-.379-4.125-.5-6.863a22.406,22.406,0,0,1,.153-4.714c.573-2.978-2.166-8.761-3.492-10.828a3.234,3.234,0,0,0-1.128-.938v0c-2.9-1.647-9.982-2.836-14.163-1.43-2.735.918-12,2.127-20.206,3.009-6.632.716-12.566,1.217-13.786,1.182-2.729-.077-5.123,2.574-11.156,4.484s-11.086-2.626-11.746-2.624-3.3,5.545-3.789,9.845c-.217,1.925.822,4.856,2,7.6,1.46,3.4,3.129,6.514,2.9,7.11-.412,1.075-6.118,1.085-8.353.014s-3.239-8.347-4.321-12.729.239-5.21,2.046-12.323-1.191-20.673-2.948-32.493c-.231-1.55-.385-3-.466-4.353a.008.008,0,0,0,0-.005c-.546-8.992,1.993-14,5.722-18.392,1.334-1.57,3.581-2.192,6.282-2.251a30.539,30.539,0,0,1,5.213.406c4.995.758,10.47,2.381,14.473,3.208,7.941,1.639,35.964-4.278,39.6-5.691C185.552-.09,188-.089,191.14.2c3.508.324,7.886,1.014,12.248,1.867C207.855,2.946,212.3,4,215.787,5c9.928,2.878,15.565,12.211,18.55,16.59,2.092,3.068,7.431,9.412,10.444,12.939,0,0,.007.008.012.012.624.731,1.146,1.338,1.519,1.771s.594.686.619.716c-.013-.085-.241-1.813,3.219-4.881,3.55-3.149,5.3,6.193,5.391,9s.5,3.554,2.987,6.279,1.254,7.688,1.588,10.168,9.287,15.613,3.505,18.932" transform="translate(-90.9 0.001)" fill="#784a36"/>
    <path id="Trazado_817730" data-name="Trazado 817730" d="M179.376,255.092s4.474-7.119,5.588-8.547,2.474-3.725,2.784-4.222,16.682.2,17.747,5.427-14.774,16.667-26.118,7.342" transform="translate(-144.201 -194.697)" fill="#eb7878"/>
    <path id="Trazado_817731" data-name="Trazado 817731" d="M403.107,123.439c-.989,2.234-2.487,4.983-2.27,7-2.9-1.647-9.982-2.836-14.163-1.43-2.735.918-12,2.126-20.206,3.009a9.013,9.013,0,0,1,3.573-2.485c2.727-1.245,5.944-5.607,4.123-7.437s-6.4-2.482-5.933-3.723-.856-.247,1.042-2.815,3.718-1.825,4.045-3.562-.516-4.135,1.351-4.882,2.52-4.47,2.348-8.106,5.7-6.129,7.184-6.132,5.129.654,5.713,4.538,2.822,5.041,3.653,7.932,3.154,6.529,2.08,8.1,1.493,2.726,3.15,3.964,5.3,3.794,4.309,6.028" transform="translate(-294.604 -74.663)" fill="#fff1eb"/>
    <path id="Trazado_817732" data-name="Trazado 817732" d="M594.473,43.026c-1.476-1.692-3.142,1.856-3.633,3.5s.746,1.323.958,3.308-.62,1.49-.039,3.381-4.707,3.821-5.949,2.91-2.646-.655-5.125-.071-6.206-2.14-7.862-2.807-2.48.26-3.721.006-2.316-1.145-2.155-2.3,1.483-3.309.9-5.211-1.655-.493-3.226-.88-4.3-1.67-5.046-1.669a73.93,73.93,0,0,1-8.406-.73c-1.789-.411-2.6-2.642-2.991-4.13s.3-1.985,1.543-2.98-.007-3.887-1.083-5.208,1.234-3.889,3.67-4.968,1.114-1.572,1.856-2.9-5.462-2.8-5.464-3.876.495-.663-.332-1.488.738-3.474,2.885-4.306,1.827-2.047,1.827-2.047c4.467.875,8.917,1.925,12.4,2.933a26.356,26.356,0,0,1,11.712,7.556.007.007,0,0,0,0,0,67.134,67.134,0,0,1,6.835,9.028c.779,1.14,2,2.733,3.391,4.464,2.347,2.929,5.158,6.258,7.052,8.475" transform="translate(-440.593 -8.492)" fill="#fff1eb"/>
    <path id="Trazado_817733" data-name="Trazado 817733" d="M706.164,79.637c.747,1.487,1,4.878.01,5.954s-3.637-.324-3.968.836-1.731,3.143-3.578-.575,2.072-9.76,1.986-12.655-4.06-5.367-3.483-6.03c.562-.646-.489-2.971-.541-3.085a67.144,67.144,0,0,1,6.835,9.028c.779,1.14,2,2.733,3.391,4.465-1.579-1.066-1.4.576-.651,2.063" transform="translate(-559.988 -51.515)" fill="#784a36"/>
    <path id="Trazado_817734" data-name="Trazado 817734" d="M797.032,205.718a20.428,20.428,0,0,1-1.874.958.021.021,0,0,1-.01,0c-4.4,1.943-6.221.388-6.965-1.03a9.346,9.346,0,0,0-2.636-2.424c-.007,0-.015-.013-.023-.017-1.264-.993-.034-2.476.583-2.971s2.041-3.229-.006-3.721-5.28-4.766-4.972-6.131-.375-1.612-1.214-2.355.34-1.675-.006-3.349-1.333-.494-2.017-1.3.122-1.427-.563-2.666-1.243-1.424.056-3.677,3.032-4.081,2.346-6.312a12.135,12.135,0,0,1-.009-5.227c.37.431.594.686.619.716-.013-.084-.241-1.813,3.219-4.88,3.549-3.149,5.3,6.193,5.391,9s.5,3.554,2.987,6.279a4.487,4.487,0,0,1,.326.4c2.047,2.787.943,7.406,1.262,9.769a12.282,12.282,0,0,0,1.066,2.64c1.4,2.9,3.716,7.347,4.261,10.975.349,2.309-.027,4.287-1.822,5.317" transform="translate(-624.311 -129.183)" fill="#fff1eb"/>
    <path id="Trazado_817735" data-name="Trazado 817735" d="M803.73,186c.326-.675.742-1.056.738-3.722s-1.749-7.377-2.989-6.941-3.158,2.858-2.158,7.322,4.062,4.061,4.409,3.342" transform="translate(-642.351 -140.93)" fill="#eea987"/>
    <path id="Trazado_817736" data-name="Trazado 817736" d="M573.8,292.888c-3.05.6-2.418-6.726-4.155-7.282s-2.528-2.739-1.557-3.8.613-4.382.426-5a5.88,5.88,0,0,1,.613-4.032c.866-1.18.246-1.365.179-3.908s2.726-1.493,3.657-1.383l.1,9.955c0,.91.6,11.825.438,13.644a6.622,6.622,0,0,0,.3,1.81" transform="translate(-456.347 -214.779)" fill="#fff1eb"/>
    <path id="Trazado_817737" data-name="Trazado 817737" d="M153.8,238.034l-8.371,12.77c-.662,0-3.3,5.545-3.789,9.845-.217,1.926.822,4.856,2,7.6v0c-1.145,3.785-4.552-.116-4.493-1.6a26.66,26.66,0,0,0-.195-5.085c-.25-1.116-.934-1.983-.749-2.976s-.064-1.364-.873-2.851,1.234-3.847,2.1-5.9,3.656-1.619,4.149-3.7,1.172-3.5,2.909-3.446,2.227-3.539,4.893-5.218,2.417.554,2.417.554" transform="translate(-110.252 -190.407)" fill="#fff1eb"/>
    <path id="Trazado_817738" data-name="Trazado 817738" d="M262.023.2A5.323,5.323,0,0,1,258.8,1.745c-1.984.167-5.207,1.745-3.467,3.727s-.489,3.886-2.308,3.889-6.531.259-6.527,2.74-4.3,2.82-5.123,2.822,0,1.9-1.982,1.822-3.142.335-3.8,1.495-3.225-.243-4.629,1.248-1.154,2.4-2.146,2.732-1.814,2.4-2.227,3.229-1.982,1.492-2.315,0-.1-8.516-3.24-8.843-4.882-1.148-5.545-2.8a9.117,9.117,0,0,0-6.21-4.537c-2.565-.244-6.371-1.562-6.539-2.966a11.055,11.055,0,0,0-1.489-3.478c5,.758,10.47,2.381,14.473,3.208,7.941,1.639,35.964-4.278,39.6-5.691,1.116-.433,3.562-.433,6.7-.14" transform="translate(-161.784 0)" fill="#fff1eb"/>
    <path id="Trazado_817739" data-name="Trazado 817739" d="M170.3,52.648c.186-1.178,3.8-2.157,6.945-.508s4.554,3.548,5.629,3.629,2.154,2.56,2.156,3.717,5.127.157,5.874,1.975a8.154,8.154,0,0,1,.01,5.623c-.577,1.159-.491,2.812-1.9,2.98a28.232,28.232,0,0,0-7.191,1.914c-2.644,1.162-5.777-.817-6.9.673s-2.438,4.718-5.086,3.564-3.637.916-4.632-.9-3.152-5.866-.428-8.434,2.75-4.388,1.782-5.957,7.3-1.915,6.47-4.063-3.063-2.145-2.736-4.213" transform="translate(-131.402 -41.213)" fill="#fff1eb"/>
    <path id="Trazado_817740" data-name="Trazado 817740" d="M6.4,213.81s.317.943-.678.615S3.816,212.77,4.308,210s-.092-5.248-1.909-4-3.308-.16-1.739-1.651,10.948-2.983,5.741,9.465" transform="translate(0 -163.489)" fill="#964823"/>
    <path id="Trazado_817741" data-name="Trazado 817741" d="M832.852,254.288v0c-.442,2.546-3.833-1.673-6.811-2.35s-1.5-5.083-1.336-6.7,2.44-.932,2.751-2.855,3.063-.511,3.063-.511h0c2.047,2.787.943,7.406,1.262,9.769a12.268,12.268,0,0,0,1.066,2.64" transform="translate(-662.57 -194.044)" fill="#784a36"/>
    <path id="Trazado_817742" data-name="Trazado 817742" d="M840.916,262.845a1.5,1.5,0,0,0,2.193.865c.5-.5-.253-2.811-1.286-2.644s-1.032,1.16-.907,1.779" transform="translate(-675.968 -209.864)" fill="#403733"/>
    <path id="Trazado_817743" data-name="Trazado 817743" d="M426.6,367.714s1.979,4.612,2.694,5.649a72.787,72.787,0,0,1,4.166,9.364c.131.908,2.077,1.391,2.077,1.391s-.652-2.009,0-2.043,2.727,2.038,2.727,2.038.454-.163-.262-1.3-3.578-6.933-3.549-8.749-.366-5.466-.366-5.466-6.319-6.024-7.485-.887" transform="translate(-342.945 -293.939)" fill="#d45656"/>
    <path id="Trazado_817744" data-name="Trazado 817744" d="M673.675,274.6a15.916,15.916,0,0,0,.432-3.381c-.027-1.508.335-3.186.382-4.159a2.4,2.4,0,0,0-.684-1.677,7.445,7.445,0,0,1-.944,2.555,23.067,23.067,0,0,0-2.377,3.676,40.188,40.188,0,0,0,3.191,2.986" transform="translate(-539.003 -213.338)" fill="#d45656"/>
    <path id="Trazado_817745" data-name="Trazado 817745" d="M595.9,380.97s-2.137,1.819-2.233,2.533.233,3.631.171,5.123,3.321,8.068,4,8.521-2.206-.483-2.5-.547.683,1.361.294,1.361-2.628-.806-2.824-1.876a73.562,73.562,0,0,0-3.549-8.457,38.623,38.623,0,0,0-2.5-4.422c-.4-.279,7.451-4.082,9.141-2.236" transform="translate(-471.681 -305.857)" fill="#d45656"/>
    <path id="Trazado_817746" data-name="Trazado 817746" d="M441.071,274.032s1.411.338,1.6-.246.047-1.07.386-1.751,1.6-4.234.868-4.379-1.41.1-2.092,0-3.408-2.28-4.286-3.446-3.951-6.462-10.326-8.591-14.934-1.385-17.075-2.014-13.432-4.647-20.386-4-15.558,3.674-16.713,10.777.654,13.131,1.144,15.367,3.675,15.849,3.675,15.849a6.243,6.243,0,0,0,2.09-.571c.576-.31,2.385.78,2.385.78s-2.49-5.368-2.54-6.681,2.028-8.515,2.95-9.878.629-2.19,2.137-1.706,9.056,5.383,13.629,5.911a25.466,25.466,0,0,0,8.365-.452,33.9,33.9,0,0,0,1.554,4.18c.546.923.6,4.522.457,6.079a12.211,12.211,0,0,0,1.127,5.105c.292.145,1.555-.538,1.555-.538l2.822.551s-1.515-4.152-1.371-5.465.767-6.762.909-8.853a20.869,20.869,0,0,0,.093-2.578s1.754,1.6,3.5,1.064,4.421-2.974,6.27-2.832,6.761.523,8.609.18,5.251-.933,6.225-.3,2.429-1.561,2.429-1.561" transform="translate(-299.594 -200.603)" fill="#eb6c6c"/>
    <path id="Trazado_817747" data-name="Trazado 817747" d="M357.9,265.513a6.236,6.236,0,0,1-.969-.077,2.657,2.657,0,0,1-2.275-2.382c-.311-1.815.518-4.066,1.739-4.722a1.548,1.548,0,0,1,1.888.327,2.974,2.974,0,0,1,1.091,2.367,4.172,4.172,0,0,1-1.646,2.7l-.345-.471a3.643,3.643,0,0,0,1.408-2.27,2.422,2.422,0,0,0-.908-1.9.97.97,0,0,0-1.212-.239c-.991.533-1.7,2.569-1.44,4.11a2.106,2.106,0,0,0,1.788,1.9,3.848,3.848,0,0,0,4.61-2.728l.566.143a4.466,4.466,0,0,1-4.3,3.239" transform="translate(-285.052 -207.519)" fill="#eb6c6c"/>
    <path id="Trazado_817748" data-name="Trazado 817748" d="M652.4,266.848c0-.73,0-4.081-.465-5.2s1.1-5.062,1.006-5.695a3.717,3.717,0,0,0-.463-1.215s-1.275,3.27-2.206,4.089a9.735,9.735,0,0,0-2.837,6.084c-.047,1.313,4.964,1.937,4.964,1.937" transform="translate(-520.472 -204.783)" fill="#eb6c6c"/>
    <path id="Trazado_817749" data-name="Trazado 817749" d="M683.48,327.087a.667.667,0,0,0-1.166.488c-.047.948.611,1.725,1.169,1.117a1.359,1.359,0,0,0,0-1.605" transform="translate(-548.51 -262.766)" fill="#d45656"/>
  </g>
</svg>
