<svg xmlns="http://www.w3.org/2000/svg" xmlns:xlink="http://www.w3.org/1999/xlink" width="400" height="311" viewBox="0 0 400 311">
  <defs>
    <clipPath id="clip-path">
      <rect id="Rectángulo_377256" data-name="Rectángulo 377256" width="400" height="311" transform="translate(285 1356)" fill="#fff" stroke="#707070" stroke-width="1"/>
    </clipPath>
    <clipPath id="clip-path-2">
      <rect id="Rectángulo_376721" data-name="Rectángulo 376721" width="399.999" height="347.008" fill="none"/>
    </clipPath>
    <clipPath id="clip-path-4">
      <rect id="Rectángulo_376693" data-name="Rectángulo 376693" width="158.329" height="239.092" fill="none"/>
    </clipPath>
    <clipPath id="clip-path-5">
      <rect id="Rectángulo_376694" data-name="Rectángulo 376694" width="174.153" height="247.367" fill="none"/>
    </clipPath>
    <clipPath id="clip-path-7">
      <rect id="Rectángulo_376708" data-name="Rectángulo 376708" width="48.87" height="56.255" fill="none"/>
    </clipPath>
    <clipPath id="clip-path-8">
      <rect id="Rectángulo_376709" data-name="Rectángulo 376709" width="185.313" height="173.324" fill="none"/>
    </clipPath>
    <clipPath id="clip-path-9">
      <path id="Trazado_817260" data-name="Trazado 817260" d="M296.569,190.979c-4.684,1.019-14.665,22-16.7,25.663s-12.017,12.2-12.017,12.2c2.445,6.906,10.9,3.991,13.635,2.137s8.189-7.82,8.189-7.82c4.1-.408,9.528-7.536,9.528-7.536,15.081,7.152,17.734,11.609,17.938,20.978s-10.184,18-10.184,18a15.9,15.9,0,0,0-7.754-.894c-3.273-3.463-10.545-3.107-10.545-3.107,1.864-7.506-1.09-10.271-2.953-12.17-4.027-4.1-18.165-3.762-15.721,4.441s-5.143,9.153-2.457,14.909c5.322,11.4,9.286,4.073,20.018,16.175s30.818,19.876,39.169,22.524,15.072,2.445,25.052,16.905,28.108,68.843,28.108,68.843h71.9s-30.959-47.253-43.587-65.177-18.127-26.274-22.4-33.811-8.759-23.83-16.091-38.9-15.276-28.922-19.756-34.411-21.793-1.436-27.9-4.9c-5.855-3.319-19.565-14.117-24.822-14.116a2.99,2.99,0,0,0-.638.063" transform="translate(-266.942 -190.916)" fill="none"/>
    </clipPath>
    <clipPath id="clip-path-10">
      <rect id="Rectángulo_376711" data-name="Rectángulo 376711" width="133.957" height="49.658" fill="none"/>
    </clipPath>
    <clipPath id="clip-path-12">
      <rect id="Rectángulo_376712" data-name="Rectángulo 376712" width="91.976" height="102.927" fill="none"/>
    </clipPath>
    <clipPath id="clip-path-13">
      <rect id="Rectángulo_376713" data-name="Rectángulo 376713" width="27.778" height="13.585" fill="none"/>
    </clipPath>
    <clipPath id="clip-path-14">
      <rect id="Rectángulo_376714" data-name="Rectángulo 376714" width="2.624" height="6.182" fill="none"/>
    </clipPath>
    <clipPath id="clip-path-15">
      <rect id="Rectángulo_376715" data-name="Rectángulo 376715" width="7.537" height="6.876" fill="none"/>
    </clipPath>
    <clipPath id="clip-path-16">
      <path id="Trazado_817282" data-name="Trazado 817282" d="M167.561,175.032a36.683,36.683,0,0,0-20.237,11.912c-.171.2-.339.41-.5.629-.331.432-.495.682-.495.682s-7.183,1.19-9.649,5.266a15.9,15.9,0,0,0-7.391,2.513,38.286,38.286,0,0,1-8.048-5.937c-10.738,15.006-13.184,35.942-5.887,52.918,1.138-.593,2.3-1.195,3.479-1.872,7.6-4.353,25.591-16.2,33.522-30.295,6.47-11.5,11.271-9.413,14.336-14.914l0,0c3.417-3.607,4.2-6.774,11.755-11.248,3.643-2.159.169-10-7.859-10a13.782,13.782,0,0,0-3.025.349" transform="translate(-111.173 -174.683)" fill="none"/>
    </clipPath>
    <clipPath id="clip-path-17">
      <rect id="Rectángulo_376717" data-name="Rectángulo 376717" width="14.64" height="11.866" fill="none"/>
    </clipPath>
    <clipPath id="clip-path-18">
      <rect id="Rectángulo_376718" data-name="Rectángulo 376718" width="8.846" height="5.938" fill="none"/>
    </clipPath>
    <clipPath id="clip-path-20">
      <rect id="Rectángulo_376719" data-name="Rectángulo 376719" width="65.156" height="148.906" fill="none"/>
    </clipPath>
  </defs>
  <g id="Enmascarar_grupo_188" data-name="Enmascarar grupo 188" transform="translate(-285 -1356)" clip-path="url(#clip-path)">
    <g id="Grupo_1072401" data-name="Grupo 1072401" transform="translate(285 1358)">
      <g id="Grupo_1072400" data-name="Grupo 1072400" clip-path="url(#clip-path-2)">
        <g id="Grupo_1072359" data-name="Grupo 1072359">
          <g id="Grupo_1072358" data-name="Grupo 1072358" clip-path="url(#clip-path-2)">
            <g id="Grupo_1072354" data-name="Grupo 1072354" transform="translate(4.732 107.915)" opacity="0.1" style="mix-blend-mode: multiply;isolation: isolate">
              <g id="Grupo_1072353" data-name="Grupo 1072353">
                <g id="Grupo_1072352" data-name="Grupo 1072352" clip-path="url(#clip-path-4)">
                  <path id="Trazado_817239" data-name="Trazado 817239" d="M151.871,175.8a40.42,40.42,0,0,0-8.173,2.7c-2.032-.647-5.11-2.62-8.376-5.088a20.4,20.4,0,0,0,7.483-5.8,6.078,6.078,0,0,0,5.179-5.391s-11.56-6.023-14.325-9.069S115.092,133.88,110.3,133.88c-14.816,0-44.931,22.7-48.15,28.8s-8.055,20.8-12.035,36.535-4.915,32.037-7.5,40.028-6.2,17-14.75,36.509c-4.738,10.805-14.353,36.2-21.988,56.71v40.509H63.646C66.9,347.593,76.7,273.724,82.228,260.765c5.655-13.255,11.251-16.158,17.433-19.274,1.139-.575,2.3-1.155,3.48-1.81q.348-.193.726-.406l.389-.222c.129-.074.254-.144.387-.222l.631-.367.184-.107c.245-.144.5-.3.754-.448l.112-.067c.282-.169.572-.345.867-.525l.035-.022a130.209,130.209,0,0,0,11.895-8.209h0c6.652-5.179,13.44-11.636,17.541-18.679,6.469-11.112,11.27-9.1,14.336-14.411l0,0c3.416-3.485,4.2-6.545,11.754-10.869,4.074-2.332-.747-11.525-10.883-9.324m-30.885,17.865a16.3,16.3,0,0,0-7.389,2.429,38.281,38.281,0,0,1-8.049-5.737c-.3-.285-.664-.588-1.062-.906,4.734-3.819,9.272-8.526,11.815-10.724,5.074-4.385,8.259,6.528,14.532,9.58-.126.169-.2.271-.2.271s-7.183,1.149-9.65,5.088" transform="translate(-5.871 -133.881)"/>
                </g>
              </g>
            </g>
            <path id="Trazado_817240" data-name="Trazado 817240" d="M158.428,170.535c-1.856,0-5.584-2.366-9.593-5.5,5.73-2.474,11.153-9.752,7.981-9.752-4.221,0-18.136-12.242-23-17.935s-25.771,6.5-31.011,14.065c0,0-6.448,16.213,0,20.243l.006,0c-1.366,5.115-2.518,12.672,1.606,15.25,6.448,4.03,20.151-11.688,25.391-16.373s8.464,7.507,15.153,10.2,17.682-10.2,13.462-10.2" transform="translate(-19.384 -26.353)" fill="#d89371"/>
            <path id="Trazado_817241" data-name="Trazado 817241" d="M127.789,141.235c-2.766-3.152-18.567-19.94-23.362-19.94-14.815,0-44.931,23.492-48.15,29.8s-8.055,21.529-12.035,37.81-4.915,33.155-7.5,41.425-6.2,17.595-14.751,37.783C17.25,279.3,7.636,305.582,0,326.807v41.922H57.775c3.252-26.265,13.053-102.712,18.582-116.122,5.656-13.717,11.251-16.722,17.433-19.947,4.549-17.67,4.549-26.352,5.887-52.918-2.594-2.537-9.344-6.382-10.065-10.109-1.782-9.2-6.185-17.179,12.354-28.081,0,0,13.518,8.6,17.616,8.127,0,0,6.589,4.678,9.657,5.912s11.946,2.3,12.875-4.97c0,0-11.56-6.233-14.325-9.386" transform="translate(0 -23.525)" fill="#edb08e"/>
            <g id="Grupo_1072357" data-name="Grupo 1072357" transform="translate(114.437 24.076)" opacity="0.1" style="mix-blend-mode: multiply;isolation: isolate">
              <g id="Grupo_1072356" data-name="Grupo 1072356">
                <g id="Grupo_1072355" data-name="Grupo 1072355" clip-path="url(#clip-path-5)">
                  <path id="Trazado_817242" data-name="Trazado 817242" d="M305.2,277.236H152.895a10.924,10.924,0,0,1-10.924-10.924V40.793A10.924,10.924,0,0,1,152.895,29.87H305.2a10.923,10.923,0,0,1,10.923,10.923v225.52A10.924,10.924,0,0,1,305.2,277.236" transform="translate(-141.972 -29.869)"/>
                </g>
              </g>
            </g>
            <path id="Trazado_817243" data-name="Trazado 817243" d="M305.2,271.324H152.895A10.924,10.924,0,0,1,141.971,260.4V34.882a10.924,10.924,0,0,1,10.924-10.924H305.2a10.924,10.924,0,0,1,10.923,10.924V260.4A10.924,10.924,0,0,1,305.2,271.324" transform="translate(-27.535 -4.647)" fill="#00a8a8"/>
            <rect id="Rectángulo_376695" data-name="Rectángulo 376695" width="153.987" height="229.498" transform="translate(124.52 28.245)" fill="#fff"/>
            <rect id="Rectángulo_376696" data-name="Rectángulo 376696" width="93.502" height="7.739" transform="translate(169.675 69.534)" fill="#b3b3b3"/>
            <rect id="Rectángulo_376697" data-name="Rectángulo 376697" width="93.502" height="7.739" transform="translate(169.675 83.598)" fill="#d6d6d6"/>
            <rect id="Rectángulo_376698" data-name="Rectángulo 376698" width="124.132" height="7.739" transform="translate(139.044 97.664)" fill="#d6d6d6"/>
            <path id="Trazado_817244" data-name="Trazado 817244" d="M210.589,35.042a3.982,3.982,0,0,0,3.978,3.9h55.58a3.982,3.982,0,0,0,3.978-3.9Z" transform="translate(-40.843 -6.796)" fill="#d6d6d6"/>
            <path id="Trazado_817245" data-name="Trazado 817245" d="M270.145,8.594h-19.2a8.593,8.593,0,1,0-17.185,0h-19.2a3.986,3.986,0,0,0-3.986,3.986V26.044a3.986,3.986,0,0,0,3.986,3.986h55.581a3.986,3.986,0,0,0,3.986-3.986V12.579a3.986,3.986,0,0,0-3.986-3.986m-27.79,3.377a3.377,3.377,0,1,1,3.377-3.377,3.377,3.377,0,0,1-3.377,3.377" transform="translate(-40.841 0)" fill="#d6d6d6"/>
            <path id="Trazado_817246" data-name="Trazado 817246" d="M210.578,27.892v3.56a3.986,3.986,0,0,0,3.986,3.987h55.581a3.986,3.986,0,0,0,3.987-3.987v-3.56Z" transform="translate(-40.841 -5.41)" fill="#ccc"/>
            <path id="Trazado_817247" data-name="Trazado 817247" d="M192.121,104.038H176.53V90.294h15.591Zm4.03-17.774H172.5v21.8h23.651Z" transform="translate(-33.456 -16.73)" fill="#d6d6d6"/>
            <rect id="Rectángulo_376699" data-name="Rectángulo 376699" width="93.502" height="7.739" transform="translate(169.675 118.409)" fill="#b3b3b3"/>
            <rect id="Rectángulo_376700" data-name="Rectángulo 376700" width="93.502" height="7.739" transform="translate(169.675 132.475)" fill="#d6d6d6"/>
            <rect id="Rectángulo_376701" data-name="Rectángulo 376701" width="124.132" height="7.739" transform="translate(139.044 146.54)" fill="#d6d6d6"/>
            <rect id="Rectángulo_376702" data-name="Rectángulo 376702" width="55.215" height="7.739" transform="translate(139.044 207.606)" fill="#d6d6d6"/>
            <rect id="Rectángulo_376703" data-name="Rectángulo 376703" width="30.227" height="7.739" transform="translate(139.044 221.182)" fill="#d6d6d6"/>
            <rect id="Rectángulo_376704" data-name="Rectángulo 376704" width="55.215" height="7.739" transform="translate(208.194 207.606)" fill="#d6d6d6"/>
            <rect id="Rectángulo_376705" data-name="Rectángulo 376705" width="30.227" height="7.739" transform="translate(208.194 221.182)" fill="#d6d6d6"/>
            <path id="Trazado_817248" data-name="Trazado 817248" d="M192.121,164.674H176.53V150.931h15.591Zm4.03-17.774H172.5v21.8h23.651Z" transform="translate(-33.456 -28.491)" fill="#d6d6d6"/>
            <rect id="Rectángulo_376706" data-name="Rectángulo 376706" width="124.132" height="7.61" transform="translate(139.044 167.286)" fill="#b3b3b3"/>
            <path id="Trazado_817249" data-name="Trazado 817249" d="M223.853,241.455H176.53V227.712h47.323Zm4.03-17.773H172.5v21.8h55.383Z" transform="translate(-33.456 -43.382)" fill="#d6d6d6"/>
            <path id="Trazado_817250" data-name="Trazado 817250" d="M309.144,241.455H261.821V227.712h47.323Zm4.03-17.773H257.791v21.8h55.383Z" transform="translate(-49.997 -43.382)" fill="#d6d6d6"/>
            <path id="Trazado_817251" data-name="Trazado 817251" d="M199.3,87.217l-13.942,13.942-7.271-7.271" transform="translate(-34.54 -16.915)" fill="none" stroke="#39b54a" stroke-linecap="round" stroke-linejoin="round" stroke-width="5.792"/>
            <path id="Trazado_817252" data-name="Trazado 817252" d="M199.3,146.9l-13.942,13.942-7.271-7.271" transform="translate(-34.54 -28.491)" fill="none" stroke="#39b54a" stroke-linecap="round" stroke-linejoin="round" stroke-width="5.792"/>
          </g>
        </g>
        <text id="REGISTRO" transform="translate(138.626 53.982)" fill="gray" font-size="9" font-family="Montserrat-Bold, Montserrat" font-weight="700"><tspan x="0" y="0">R</tspan><tspan y="0" letter-spacing="-0.001em">E</tspan><tspan y="0">GI</tspan><tspan y="0" letter-spacing="-0.01em">S</tspan><tspan y="0">TRO</tspan></text>
        <g id="Grupo_1072367" data-name="Grupo 1072367">
          <g id="Grupo_1072366" data-name="Grupo 1072366" clip-path="url(#clip-path-2)">
            <g id="Grupo_1072362" data-name="Grupo 1072362" transform="translate(114.191 149.498)" opacity="0.1" style="mix-blend-mode: multiply;isolation: isolate">
              <g id="Grupo_1072361" data-name="Grupo 1072361">
                <g id="Grupo_1072360" data-name="Grupo 1072360" clip-path="url(#clip-path-7)">
                  <path id="Trazado_817253" data-name="Trazado 817253" d="M178.208,185.807a40.486,40.486,0,0,0-8.173,2.7,21.039,21.039,0,0,1-4.553-2.39c-1.369,1.181-2.768,2.325-4.208,3.415a36.691,36.691,0,0,1-8.5,5.166,14.984,14.984,0,0,0,4.4,3.617c-.126.168-.2.27-.2.27s-7.183,1.149-9.65,5.088a17.818,17.818,0,0,0-5.656,1.44V225.8h.271v15.924c1.16-.837,2.336-1.709,3.521-2.632,6.652-5.18,13.44-11.637,17.541-18.679,6.47-11.113,11.271-9.1,14.336-14.411l0,0c3.416-3.486,4.2-6.546,11.755-10.87,4.073-2.331-.748-11.524-10.884-9.324" transform="translate(-141.667 -185.469)"/>
                </g>
              </g>
            </g>
            <g id="Grupo_1072365" data-name="Grupo 1072365" transform="translate(203.38 171.88)" opacity="0.1" style="mix-blend-mode: multiply;isolation: isolate">
              <g id="Grupo_1072364" data-name="Grupo 1072364">
                <g id="Grupo_1072363" data-name="Grupo 1072363" clip-path="url(#clip-path-8)">
                  <path id="Trazado_817254" data-name="Trazado 817254" d="M290.333,301.21h0l.11.086q.52.422,1.053.833c.137.106.277.21.416.316q.386.294.776.584.238.175.478.348.374.271.75.537.243.172.488.343c.26.181.523.359.786.536.154.1.306.208.461.31.313.208.629.413.945.617.1.068.208.136.313.2q.625.4,1.256.786c.134.082.268.161.4.243.3.179.59.357.886.532.168.1.335.2.5.294q.4.232.8.46l.525.3q.4.224.8.443c.169.094.339.188.509.28q.438.237.874.468l.422.225q.638.335,1.276.661l.267.134q.514.26,1.025.513l.469.23c.272.132.543.264.813.393l.509.242c.261.123.52.245.779.365l.5.231q.4.185.8.364l.443.2q.519.231,1.029.453l.193.085q.6.261,1.192.51l.386.161.8.332.439.178q.364.149.721.292l.439.175q.355.141.7.276l.4.158.784.3.279.106q.522.2,1.025.38l.218.079q.387.141.761.275l.352.125.592.207.351.121c.188.065.372.127.553.189l.326.11.565.187.243.08c.263.085.518.168.762.244,8.351,2.636,15.072,2.433,25.052,16.826,6.335,9.136,15.949,34.275,22.13,51.425h66.568c-10.151-15.3-24.6-36.93-32.279-47.776-12.628-17.84-18.127-26.152-22.405-33.652-2.615-4.587-5.308-12.435-8.681-21.269.043-.122.083-.244.118-.372a4.062,4.062,0,0,0-2.24-5.057c-1.6-3.97-3.339-8.038-5.287-12.022-7.332-15-15.276-28.787-19.756-34.25-2.785-3.4-10.528-3.123-17.457-3.257l-.116,0q-.936-.018-1.845-.052l-.212-.007c-.264-.01-.524-.023-.783-.037l-.214-.01c-.273-.015-.542-.034-.808-.052l-.162-.01c-.258-.02-.509-.043-.76-.067l-.181-.015c-.218-.022-.43-.048-.642-.074-.088-.01-.179-.019-.265-.03-.216-.028-.424-.062-.632-.094-.077-.012-.158-.023-.235-.035-.192-.032-.376-.07-.561-.107-.087-.017-.177-.031-.263-.05-.182-.04-.355-.085-.529-.129-.081-.021-.167-.038-.246-.06-.159-.044-.308-.094-.459-.142-.088-.028-.18-.052-.264-.081-.127-.044-.243-.1-.363-.143-.1-.039-.206-.076-.3-.118-.212-.093-.414-.193-.6-.3s-.387-.222-.592-.343c-.086-.051-.179-.109-.268-.162-.123-.074-.242-.145-.368-.223s-.231-.143-.346-.216l-.335-.21c-.139-.088-.284-.181-.426-.273l-.289-.185c-.152-.1-.311-.2-.468-.305l-.289-.189-.533-.351-.247-.164-.617-.411-.2-.131-.81-.543c-6.935-4.664-16.142-11.046-19.675-10.282-4.685,1.014-14.665,21.895-16.7,25.543-1.444,2.587-6.877,7.608-9.919,10.312a1.016,1.016,0,0,0-.358.318c-.56.495-1.019.894-1.323,1.157l-6.6-.739a4.784,4.784,0,0,0-1.746-.158,2.174,2.174,0,0,0-.956.352,1.974,1.974,0,0,0-.39.356c-.019.022-.031.054-.049.077l-2.145-.24c-.54-.134-1.016-.081-1.187.551s.214.916.75,1.07l1.976.863c.152,1.143,1.137,1.747,2.4,2.111l6.924,3.024-.243.9a.971.971,0,0,0,.584,1.236l2.075.555a.914.914,0,0,0,1-.509l.276.08a4.533,4.533,0,0,0-.955,4.8c2.444,8.165-5.143,9.11-2.457,14.839,5.322,11.348,9.286,4.054,20.018,16.1a48.556,48.556,0,0,0,5.626,5.319m-11.152-48.483c.439-.334.926-.743,1.432-1.191a6.718,6.718,0,0,0,1.129,1.826Zm27.126,2.726a51.334,51.334,0,0,0,6.165-5.649c.2.384.379.777.54,1.176-2.915,3.465-6.344,6.951-6.344,6.951a7.923,7.923,0,0,0,.768,1.794l-8.327-2.063a14.517,14.517,0,0,0,7.2-2.209m-13.422-1.594a6.055,6.055,0,0,0,2.4,2.855l-6.246-1.547a15.61,15.61,0,0,0,3.849-1.308m-7.064,18.785a13.981,13.981,0,0,0,.2-7.335l22.718,6.542a39.213,39.213,0,0,1-4.42,4.609l-.015.013c-.055.048-.1.087-.131.113l-.048.04-.016-.006q-.33-.146-.668-.267c-.079-.028-.159-.051-.238-.077-.153-.051-.305-.1-.459-.146-.092-.026-.184-.047-.275-.071-.143-.037-.287-.074-.43-.106-.092-.02-.182-.037-.273-.055-.145-.029-.289-.057-.432-.081l-.251-.038c-.151-.023-.3-.044-.448-.061l-.211-.023c-.162-.017-.322-.032-.48-.044l-.15-.01q-.266-.018-.52-.027l-.082,0c-.194-.006-.381-.01-.562-.01h0a16.673,16.673,0,0,0-2.258.135c-3.273-3.447-10.545-3.092-10.545-3.092" transform="translate(-252.315 -213.236)"/>
                </g>
              </g>
            </g>
            <path id="Trazado_817255" data-name="Trazado 817255" d="M318.5,220.894v-5.222H302.523c-1.788,2.906-2.806,4.927-3.318,5.849-2.037,3.666-12.017,12.2-12.017,12.2,2.445,6.905,10.9,3.99,13.635,2.135s8.189-7.82,8.189-7.82c.262-.026,12.507-8.481,9.486-7.145" transform="translate(-55.699 -41.828)" fill="#d89371"/>
            <path id="Trazado_817256" data-name="Trazado 817256" d="M333.693,223.169v-7.5H319.164c-2.711,4.136-4.127,6.977-4.764,8.124-2.037,3.666-12.017,12.2-12.017,12.2,2.444,6.906,10.9,3.991,13.635,2.137s8.189-7.82,8.189-7.82c.261-.026,12.507-8.481,9.486-7.145" transform="translate(-58.646 -41.828)" fill="#d89371"/>
            <path id="Trazado_817257" data-name="Trazado 817257" d="M345.974,227.8V215.673H336.5a101.568,101.568,0,0,0-6.687,12.749c-1.706,3.666-10.067,12.2-10.067,12.2,2.047,6.905,9.128,3.99,11.422,2.136s6.859-7.82,6.859-7.82c.219-.026,10.477-8.481,7.946-7.145" transform="translate(-62.013 -41.829)" fill="#d89371"/>
            <path id="Trazado_817258" data-name="Trazado 817258" d="M267.85,228.844s9.981-8.535,12.017-12.2,12.017-24.644,16.7-25.663,19.349,10.592,25.459,14.054,23.423-.59,27.9,4.9,12.424,19.34,19.756,34.411,11.814,31.367,16.09,38.9,9.777,15.887,22.4,33.811,43.587,65.176,43.587,65.176h-71.9s-18.127-54.381-28.107-68.843-16.7-14.257-25.052-16.905-28.438-10.422-39.169-22.524-14.7-4.773-20.018-16.175c-2.687-5.756,4.9-6.706,2.457-14.909s11.694-8.543,15.721-4.44c1.864,1.9,4.817,4.664,2.953,12.169,0,0,7.271-.356,10.545,3.107a15.892,15.892,0,0,1,7.753.895s10.388-8.634,10.184-18-2.858-13.826-17.938-20.978c0,0-5.425,7.129-9.528,7.536,0,0-5.451,5.966-8.19,7.82s-11.19,4.77-13.634-2.136" transform="translate(-51.772 -37.027)" fill="#edb08e"/>
          </g>
        </g>
        <g id="Grupo_1072372" data-name="Grupo 1072372" transform="translate(215.17 153.889)">
          <g id="Grupo_1072371" data-name="Grupo 1072371" clip-path="url(#clip-path-9)">
            <g id="Grupo_1072370" data-name="Grupo 1072370" transform="translate(-26.317 33.225)" opacity="0.1">
              <g id="Grupo_1072369" data-name="Grupo 1072369">
                <g id="Grupo_1072368" data-name="Grupo 1072368" clip-path="url(#clip-path-10)">
                  <path id="Trazado_817259" data-name="Trazado 817259" d="M365.556,272.385l-6.333-2.013c-.024-.086-.05-.171-.077-.256s-.056-.163-.085-.243c-.042-.114-.082-.23-.129-.342-.036-.085-.077-.168-.116-.252-.048-.1-.093-.206-.146-.306-.09-.172-.189-.339-.293-.5-.047-.072-.1-.139-.148-.208-.069-.1-.138-.2-.212-.29-.055-.068-.114-.133-.172-.2-.076-.088-.153-.175-.234-.257-.061-.062-.124-.122-.188-.181-.085-.08-.173-.158-.264-.232-.065-.054-.131-.106-.2-.157-.1-.073-.2-.141-.3-.208-.067-.044-.132-.088-.2-.128-.116-.069-.238-.131-.359-.192-.06-.03-.119-.062-.181-.09a5.326,5.326,0,0,0-.577-.222L309.8,251.632a1.135,1.135,0,0,0-.7-1.19l-2.808-.952a1.158,1.158,0,0,0-1.332.6l-50.483-16.047a1.018,1.018,0,0,0-.613-1.1l-2.271-.769a1.09,1.09,0,0,0-1.311.79l-.334.985-8.31-1.477a3.692,3.692,0,0,0-3.024.026,2.266,2.266,0,0,0-.52.452l-2.372-.422c-.592-.188-1.126-.164-1.362.533s.174,1.04.759,1.25l2.14,1.108c.087,1.29,1.141,2.036,2.524,2.533l7.5,3.878-.334.985a1.089,1.089,0,0,0,.561,1.424l2.271.77a1.025,1.025,0,0,0,1.164-.494l49.831,17.936a1.155,1.155,0,0,0,.691,1.288l2.809.952a1.136,1.136,0,0,0,1.278-.521l44.963,16.185a6.02,6.02,0,0,0,5.674-1.028l1.792.645,4.461,1.606c2.158.776,4.638-.692,5.509-3.261s-.207-5.243-2.392-5.938" transform="translate(-234.293 -232.135)"/>
                </g>
              </g>
            </g>
          </g>
        </g>
        <g id="Grupo_1072386" data-name="Grupo 1072386">
          <g id="Grupo_1072385" data-name="Grupo 1072385" clip-path="url(#clip-path-2)">
            <g id="Grupo_1072375" data-name="Grupo 1072375" transform="translate(241.398 242.277)" opacity="0.1">
              <g id="Grupo_1072374" data-name="Grupo 1072374">
                <g id="Grupo_1072373" data-name="Grupo 1072373" clip-path="url(#clip-path-12)">
                  <path id="Trazado_817261" data-name="Trazado 817261" d="M336.3,313.2c-4.881-1.669-21.075-7.358-36.817-12.63,11.088,9.058,26.5,14.944,33.543,17.179,8.351,2.648,15.072,2.444,25.052,16.905S386.184,403.5,386.184,403.5h5.272s-20.126-56.487-30.106-72.074-16.7-15.368-25.052-18.222" transform="translate(-299.481 -300.571)"/>
                </g>
              </g>
            </g>
            <path id="Trazado_817262" data-name="Trazado 817262" d="M394.041,279.7l9.627,2.785c2.2.638,4.585-.987,5.289-3.606s-.542-5.22-2.767-5.774l-9.724-2.42Z" transform="translate(-76.422 -52.498)" fill="#7f7f7f"/>
            <path id="Trazado_817263" data-name="Trazado 817263" d="M394.041,279.7l9.627,2.785c2.2.638,4.585-.987,5.289-3.606s-.542-5.22-2.767-5.774l-9.724-2.42Z" transform="translate(-76.422 -52.498)" fill="#7f7f7f"/>
            <path id="Trazado_817264" data-name="Trazado 817264" d="M394.041,279.7l9.627,2.785c2.2.638,4.585-.987,5.289-3.606s-.542-5.22-2.767-5.774l-9.724-2.42Z" transform="translate(-76.422 -52.498)" fill="#7f7f7f"/>
            <path id="Trazado_817265" data-name="Trazado 817265" d="M401.744,276.941a8.363,8.363,0,0,0-.155-4.978l-5.125-1.275-2.424,9.015,5.073,1.467a8.366,8.366,0,0,0,2.631-4.229" transform="translate(-76.422 -52.499)" fill="#666"/>
            <path id="Trazado_817266" data-name="Trazado 817266" d="M244.395,236.44l2.817,1.236.729-2.711-3.057-.343c-.6-.15-1.135-.092-1.326.618s.24,1.027.837,1.2" transform="translate(-47.228 -45.491)" fill="#7f7f7f"/>
            <path id="Trazado_817267" data-name="Trazado 817267" d="M250.016,239.638l8.659,3.8,2.24-8.331-9.4-1.057c-1.853-.461-3.488-.282-4.075,1.9s.738,3.157,2.572,3.688" transform="translate(-47.963 -45.353)" fill="#7f7f7f"/>
            <path id="Trazado_817268" data-name="Trazado 817268" d="M259.667,239.794l1.261-4.687-9.4-1.057c-1.853-.461-3.488-.281-4.075,1.9a3.861,3.861,0,0,0-.094.534Z" transform="translate(-47.975 -45.353)" fill="#666"/>
            <path id="Trazado_817269" data-name="Trazado 817269" d="M263.338,245.233l103,29.8c3.413.987,7.1-1.529,8.2-5.588s-.838-8.087-4.287-8.945L266.2,234.608Z" transform="translate(-51.073 -45.501)" fill="#7f7f7f"/>
            <path id="Trazado_817270" data-name="Trazado 817270" d="M375.256,267.823c.268-3.46-1.576-6.582-4.562-7.325l-104.052-25.89-1,3.733Z" transform="translate(-51.519 -45.501)" fill="#666"/>
            <path id="Trazado_817271" data-name="Trazado 817271" d="M348.773,263.361a1.924,1.924,0,0,0,1.324,2.349l33.55,9.706a2.613,2.613,0,0,0,1.342-4.989L351.1,261.993A1.924,1.924,0,0,0,348.773,263.361Z" transform="translate(-67.63 -50.801)" fill="#fbb03b"/>
            <path id="Trazado_817272" data-name="Trazado 817272" d="M332.8,250.031l2.863.77a1.216,1.216,0,0,1,.725,1.545l-3.232,12.017a1.215,1.215,0,0,1-1.4.973l-2.864-.771a1.215,1.215,0,0,1-.725-1.544L331.4,251a1.215,1.215,0,0,1,1.4-.972" transform="translate(-63.636 -48.486)" fill="#fbb03b"/>
            <path id="Trazado_817273" data-name="Trazado 817273" d="M263.871,232.934l2.315.623a1.091,1.091,0,0,1,.652,1.386l-2.7,10.045a1.09,1.09,0,0,1-1.258.872l-2.316-.623a1.091,1.091,0,0,1-.651-1.386l2.7-10.045a1.091,1.091,0,0,1,1.259-.872" transform="translate(-50.399 -45.171)" fill="#fbb03b"/>
            <path id="Trazado_817274" data-name="Trazado 817274" d="M290.474,261.449c-1.087-.06-1.816-.03-1.816-.03,1.864-7.505-1.09-10.27-2.953-12.169-4.027-4.1-18.165-3.763-15.721,4.441s-5.143,9.153-2.457,14.909c5.322,11.4,9.286,4.074,20.018,16.175.911,1.026,1.9,2.017,2.93,2.98Z" transform="translate(-51.772 -47.842)" fill="#edb08e"/>
            <path id="Trazado_817275" data-name="Trazado 817275" d="M290.693,199.058c-4.458,6.785-9.262,16.743-10.607,19.163-2.036,3.666-12.017,12.2-12.017,12.2,2.444,6.906,10.9,3.991,13.635,2.136s8.189-7.82,8.189-7.82a4.5,4.5,0,0,0,.8-.166Z" transform="translate(-51.991 -38.606)" fill="#edb08e"/>
            <g id="Grupo_1072378" data-name="Grupo 1072378" transform="translate(264.472 164.281)" opacity="0.1">
              <g id="Grupo_1072377" data-name="Grupo 1072377">
                <g id="Grupo_1072376" data-name="Grupo 1072376" clip-path="url(#clip-path-13)">
                  <path id="Trazado_817276" data-name="Trazado 817276" d="M328.107,203.809h0c.187.127,6.581,5.658,21.448,11.871s-1.123-6.457-1.123-6.457h0c-5.645-.1-11.489.04-14.54-1.689-1.5-.851-3.523-2.2-5.784-3.724" transform="translate(-328.107 -203.809)"/>
                </g>
              </g>
            </g>
            <g id="Grupo_1072381" data-name="Grupo 1072381" transform="translate(244.807 174.319)" opacity="0.1">
              <g id="Grupo_1072380" data-name="Grupo 1072380">
                <g id="Grupo_1072379" data-name="Grupo 1072379" clip-path="url(#clip-path-14)">
                  <path id="Trazado_817277" data-name="Trazado 817277" d="M306.334,220.54a9.22,9.22,0,0,1-2.55-4.277s-.467,4.488.954,6.182Z" transform="translate(-303.71 -216.262)"/>
                </g>
              </g>
            </g>
            <g id="Grupo_1072384" data-name="Grupo 1072384" transform="translate(215.754 215)" opacity="0.1">
              <g id="Grupo_1072383" data-name="Grupo 1072383">
                <g id="Grupo_1072382" data-name="Grupo 1072382" clip-path="url(#clip-path-15)">
                  <path id="Trazado_817278" data-name="Trazado 817278" d="M267.667,272.489s2.241-5.877,7.536-5.756c0,0-6.438,3.309-6.987,6.875Z" transform="translate(-267.667 -266.731)"/>
                </g>
              </g>
            </g>
            <path id="Trazado_817279" data-name="Trazado 817279" d="M167.561,175.032a36.683,36.683,0,0,0-20.237,11.912c-.171.2-.339.41-.5.629-.331.432-.495.682-.495.682s-7.183,1.19-9.65,5.266a15.9,15.9,0,0,0-7.389,2.513,38.29,38.29,0,0,1-8.049-5.937c-10.738,15.006-13.184,35.942-5.887,52.917,1.139-.594,2.3-1.2,3.48-1.872,7.6-4.353,25.591-16.2,33.522-30.295,6.47-11.5,11.271-9.413,14.336-14.914l0,0c3.416-3.608,4.2-6.774,11.755-11.249,4.073-2.413-.748-11.927-10.884-9.65" transform="translate(-21.561 -33.879)" fill="#edb08e"/>
          </g>
        </g>
        <g id="Grupo_1072394" data-name="Grupo 1072394" transform="translate(89.611 140.804)">
          <g id="Grupo_1072393" data-name="Grupo 1072393" clip-path="url(#clip-path-16)">
            <g id="Grupo_1072389" data-name="Grupo 1072389" transform="translate(52.378 4.311)" opacity="0.1">
              <g id="Grupo_1072388" data-name="Grupo 1072388">
                <g id="Grupo_1072387" data-name="Grupo 1072387" clip-path="url(#clip-path-17)">
                  <path id="Trazado_817280" data-name="Trazado 817280" d="M185.788,180.123c-5.158,1.51-10.589,5.76-9.492,6.984s6.189,5.936,7.53,4.531,8.532-4.327,6.657-7.6-3.209-4.35-4.7-3.915" transform="translate(-176.153 -180.031)" fill="#fff"/>
                </g>
              </g>
            </g>
            <g id="Grupo_1072392" data-name="Grupo 1072392" transform="translate(47.153 18.998)" opacity="0.1">
              <g id="Grupo_1072391" data-name="Grupo 1072391">
                <g id="Grupo_1072390" data-name="Grupo 1072390" clip-path="url(#clip-path-18)">
                  <path id="Trazado_817281" data-name="Trazado 817281" d="M169.672,198.252a9.1,9.1,0,0,1,2.7.646,12.9,12.9,0,0,1,2.424,1.28,12.747,12.747,0,0,1,2.1,1.757,8.991,8.991,0,0,1,1.619,2.255,20.093,20.093,0,0,1-2.412-1.265c-.756-.455-1.488-.924-2.209-1.409s-1.432-.986-2.139-1.514a20.487,20.487,0,0,1-2.085-1.751" transform="translate(-169.672 -198.252)"/>
                </g>
              </g>
            </g>
          </g>
        </g>
        <g id="Grupo_1072399" data-name="Grupo 1072399">
          <g id="Grupo_1072398" data-name="Grupo 1072398" clip-path="url(#clip-path-2)">
            <g id="Grupo_1072397" data-name="Grupo 1072397" transform="translate(48.095 196.299)" opacity="0.1">
              <g id="Grupo_1072396" data-name="Grupo 1072396">
                <g id="Grupo_1072395" data-name="Grupo 1072395" clip-path="url(#clip-path-20)">
                  <path id="Trazado_817283" data-name="Trazado 817283" d="M72.294,313.909c-3.464,25.326-9.989,63.062-12.628,78.527h9.681C72.6,366.169,82.4,289.724,87.929,276.314c5.655-13.717,11.251-16.722,17.433-19.947,1.139-.594,2.3-1.2,3.48-1.872a128.233,128.233,0,0,0,15.982-10.965c-18.47,6.978-31.155,12.441-37.482,18.7-3.706,3.667-10.748,20.242-15.047,51.678" transform="translate(-59.667 -243.53)"/>
                </g>
              </g>
            </g>
          </g>
        </g>
      </g>
    </g>
  </g>
</svg>
