<svg xmlns="http://www.w3.org/2000/svg" xmlns:xlink="http://www.w3.org/1999/xlink" width="400" height="311" viewBox="0 0 400 311">
  <defs>
    <clipPath id="clip-path">
      <rect id="Rectángulo_377258" data-name="Rectángulo 377258" width="400" height="311" transform="translate(20454 -9871)" fill="#fff" stroke="#707070" stroke-width="1"/>
    </clipPath>
    <clipPath id="clip-path-2">
      <path id="Trazado_817540" data-name="Trazado 817540" d="M0,0H505.687V281.5H0Z" fill="none"/>
    </clipPath>
  </defs>
  <g id="Enmascarar_grupo_190" data-name="Enmascarar grupo 190" transform="translate(-20454 9871)" clip-path="url(#clip-path)">
    <g id="Grupo_1072417" data-name="Grupo 1072417" transform="translate(20346.793 -9850.5)">
      <g id="Enmascarar_grupo_146" data-name="Enmascarar grupo 146" clip-path="url(#clip-path-2)">
        <path id="Trazado_817375" data-name="Trazado 817375" d="M529.114,296.195c-.02.424-.046.85-.072,1.279q-.294,4.68-1.042,9.866c0,.011,0,.021,0,.031-.011.085-.025.167-.037.252,0,.006,0,.014,0,.022l-91.257-.22-236.807-.57s-31.415-29.677-41.655-76.465c-.009-.039-.017-.078-.025-.117a135.607,135.607,0,0,1-3-35.608c.006-.125.012-.252.019-.376a139.279,139.279,0,0,1,5.984-33.617,156.8,156.8,0,0,1,6.5-17.442q.892-2.02,1.871-3.95c21.162-41.788,71.5-51.485,87.091-42.526,21.181,12.176,49.276-20.716,110-43.3C394.447,43.13,443.563,51.9,470.193,84.319c.03.036.06.072.088.109,17.054,20.828,24.833,51.4,11.77,92.906-.014.042-.027.086-.042.13-.006.023-.015.048-.022.072-12.719,40.243,13,48.809,31.24,69.528.091.1.18.2.27.308a70.03,70.03,0,0,1,5.285,6.836c.353.522.7,1.05,1.039,1.589a57.828,57.828,0,0,1,5.61,11.491q.326.909.627,1.85a64.028,64.028,0,0,1,2.206,9.257,77.539,77.539,0,0,1,.957,10.7q.08,3.4-.108,7.1" transform="translate(-85.637 -27.259)" fill="#e5e5e5"/>
        <path id="Trazado_817376" data-name="Trazado 817376" d="M482.242,220.68l-.233.038-323.8,52.809a135.627,135.627,0,0,1-3-35.608c.006-.125.013-.252.02-.376L470.281,127.682l.048-.017c17.194,20.833,25.058,51.434,11.912,93.015" transform="translate(-85.637 -70.512)" fill="#f1f0f1"/>
        <path id="Trazado_817377" data-name="Trazado 817377" d="M368.988,157.644,168.815,220.482a156.782,156.782,0,0,1,6.5-17.442q.891-2.021,1.871-3.95Z" transform="translate(-93.24 -87.07)" fill="#f1f0f1"/>
        <path id="Trazado_817378" data-name="Trazado 817378" d="M714.274,570.338H610.922l-6.6-47.068H715.741a4.462,4.462,0,0,1,4.419,5.081Z" transform="translate(-333.782 -289.014)" fill="#0f1923"/>
        <path id="Trazado_817379" data-name="Trazado 817379" d="M684.889,570.338H581.537l-5.885-41.987a4.462,4.462,0,0,1,4.419-5.081H686.356a4.462,4.462,0,0,1,4.419,5.081Z" transform="translate(-317.921 -289.014)" fill="#273343"/>
        <path id="Trazado_817380" data-name="Trazado 817380" d="M504.746,624.933H.942A.945.945,0,0,1,0,623.991V622.74a.945.945,0,0,1,.942-.942h503.8a.945.945,0,0,1,.942.942v1.251a.945.945,0,0,1-.942.942" transform="translate(0 -343.433)" fill="#273343"/>
        <path id="Trazado_817381" data-name="Trazado 817381" d="M365.109,577.8s-4.2,3.894-3.382,6.661,4.612,4.612,5.125,7.994,2.562,5.227,4.406,5.227h8.8s1.358-2.38-1.921-3.1-4.517-4.692-4.312-8.382a66.006,66.006,0,0,0-.308-8.609l-6.969-1.639Z" transform="translate(-199.731 -318.114)" fill="#0f1923"/>
        <path id="Trazado_817382" data-name="Trazado 817382" d="M485.036,608.048a13.051,13.051,0,0,0,3.246.422H508.9c-.081-.64-.595-2.67-3.775-3.187-3.795-.617-10.455-2.872-11.582-7.892s-9.327,1.537-9.327,1.537-1.023,8.2.822,9.12" transform="translate(-267.286 -328.907)" fill="#0f1923"/>
        <path id="Trazado_817383" data-name="Trazado 817383" d="M486.163,320.838s-1.245,15.536-2.709,34.212c-1.989,25.369-4.381,56.53-4.618,62.433-.409,10.251-2.051,26.648-2.051,26.648s-3.892,3.9-11.684,2.254a268.247,268.247,0,0,1-8.925-48.173c-.031-.406-.062-.815-.093-1.224-1.844-25.212-4.714-78.3-4.714-78.3Z" transform="translate(-249.302 -176.017)" fill="#273343"/>
        <path id="Trazado_817384" data-name="Trazado 817384" d="M486.163,320.838s-1.245,15.536-2.709,34.212l-27.277,43.161c-.031-.406-.062-.815-.093-1.224-1.844-25.212-4.714-78.3-4.714-78.3Z" transform="translate(-249.302 -176.017)" fill="#0f1923"/>
        <path id="Trazado_817385" data-name="Trazado 817385" d="M435.21,315.1s-22.445,56.266-37.2,82.707-19.371,33.821-19.371,33.821-8.455-3.382-9.224-5.688c0,0,5.643-51.047,15.527-63.491,5.585-7.031,12.145-28.133,12.452-35.512s2-21.984,2-21.984Z" transform="translate(-204.035 -168.431)" fill="#273343"/>
        <path id="Trazado_817386" data-name="Trazado 817386" d="M609.041,310.221s7.92,3.8,8.986,4.777,3.7,5.766,3.5,6.127-.6.473-1.314-.024-2.732-2.571-2.807-2.186,5.377,6.8,4.413,8.157-6.429.956-9.55-1.263-6.235-10.377-6.7-10.823c-3.979-3.778,3.479-4.766,3.479-4.766" transform="translate(-333.82 -171.342)" fill="#d22224"/>
        <path id="Trazado_817387" data-name="Trazado 817387" d="M556.636,226.328c2.2-1.913,2.257-2.4,2.257-2.4s-14.045-24.286-15.263-26.622-8.744-38.809-8.744-38.809l-26.022-7.545s18.329,47.4,21.53,53.254c5.29,9.68,22.558,23.925,22.558,23.925a8.119,8.119,0,0,0,3.683-1.805" transform="translate(-281.057 -83.376)" fill="#d6cd7f"/>
        <path id="Trazado_817388" data-name="Trazado 817388" d="M538.472,114.766s9.158,16.113,18.109,18.216c0,0-.372-5.412-2.552-9.115.892-1.053,1.676-2.02,2.355-2.885a54.017,54.017,0,0,0,3.324-4.655l-3.038-8.167-2.061-5.542a26.654,26.654,0,0,1-3.221,4.642,21.912,21.912,0,0,1-12.916,7.506" transform="translate(-297.41 -56.679)" fill="#e96045"/>
        <path id="Trazado_817389" data-name="Trazado 817389" d="M567.23,112.984s-1.093,8.075,5,13.722a54.234,54.234,0,0,0,3.324-4.655l-3.038-8.167a17.362,17.362,0,0,0-5.282-.9" transform="translate(-313.251 -62.402)" fill="#e64b32"/>
        <path id="Trazado_817390" data-name="Trazado 817390" d="M577.99,103.34s-13.683-5.334-10.23-13.8,4.012-14.862,12.895-11.815,9.251,6.967,8.786,10.075-7.8,16.714-11.451,15.544" transform="translate(-313.278 -42.501)" fill="#e96045"/>
        <path id="Trazado_817391" data-name="Trazado 817391" d="M432.044,209.666c5.518,7.934,46.79,18.537,46.3,13.047a59.848,59.848,0,0,1,.006-10.833q.156-1.767.438-3.742a86.379,86.379,0,0,1,9.1-27.244q.625-1.208,1.3-2.439A83.292,83.292,0,0,0,494.9,165.6c2.86-8.264,4.017-16.17,2.57-21.337a.258.258,0,0,0-.022-.071c-8.625-3.989-11.967-19.457-11.967-19.457s-29.43,5.282-45.918,44.51c0,0-1.583,4.307-3.392,10.153-2.2,7.09-4.729,16.438-5.167,23.107-.214,3.167.049,5.731,1.041,7.162" transform="translate(-238.014 -68.894)" fill="#fff59d"/>
        <path id="Trazado_817392" data-name="Trazado 817392" d="M561.757,65.977c-.1-.19-.374-.391-1.054-.6a2.85,2.85,0,0,1,1.378-.051c.383-.937,1.318-2.533,3.069-2.546a2.157,2.157,0,0,0-1.375,1.266c2.4-1.521,6.849-1.963,17.955,1.737,14.636,4.875,7.324,13.372,5.105,14.053s-6.3-3.691-9.976-4.287-5.66,4.52-7.06,4.944-.6-.74-2.07-1.906-2.308,1.577-2.277,3.5-2.857,3.853-2.857,3.853a27.205,27.205,0,0,0-1.647-3.177c-1.677-3.076-1.221-14.242.381-16.252.141-.178.282-.358.427-.539" transform="translate(-309.24 -34.675)" fill="#0f1923"/>
        <path id="Trazado_817393" data-name="Trazado 817393" d="M559.858,58.517S561.554,44.9,571.4,45.66s14.026,5.84,14.667,13.4Z" transform="translate(-309.222 -25.202)" fill="#6f5629"/>
        <path id="Trazado_817394" data-name="Trazado 817394" d="M547.748,69.3c.362-.077.734-.154,1.112-.224.143-.028.285-.056.428-.077a59.681,59.681,0,0,1,12.093-.778,62.854,62.854,0,0,1,8.888.893c.466.082.921.164,1.365.257.614.126,1.211.257,1.786.4,6.931,1.694,11.529,4.537,11.43,7.622-.1,3.26-4.673,5.912-12.328,7.074a10.642,10.642,0,0,0,.47-1.727,8.032,8.032,0,0,0,2.845-4.257c.038-1.09-.85-2.131-2.395-3.03-2.657-1.54-7.277-2.647-12.554-2.816-5.671-.181-10.646.773-13.287,2.329,0,0-.121,5.139-.055,6.307.055.7.132,1.37.23,1.978-6.361-1.715-10.5-4.433-10.411-7.365.093-2.855,4.192-5.254,10.383-6.586" transform="translate(-296.797 -37.659)" fill="#4e3a1b"/>
        <path id="Trazado_817395" data-name="Trazado 817395" d="M431.089,233c35.512-10.712,41.161-53.052,41.161-53.052s-20.219,15.452-35.995,29.945c-2.2,7.091-4.729,16.438-5.167,23.107" transform="translate(-238.1 -99.389)" fill="#d6cd7f"/>
        <path id="Trazado_817396" data-name="Trazado 817396" d="M340.016,368.75l3.566-33.227,5.138.552A16.063,16.063,0,0,1,380.6,339.5l5.137.552-3.567,33.226a6.711,6.711,0,0,1-7.368,5.939l-28.844-3.1a6.711,6.711,0,0,1-5.939-7.368M366.127,324.1a14.806,14.806,0,0,0-16.135,12.108l29.331,3.149a14.807,14.807,0,0,0-13.2-15.257" transform="translate(-187.777 -178.257)" fill="#39160d"/>
        <path id="Trazado_817397" data-name="Trazado 817397" d="M398.476,299.013s.8,6.719.607,7.815-1.472,4.358-1.791,4.376-1.284.057-1.258-.615.462-1.3.181-1.189-.362,2.648-1.642,2.581-5.051-1.487-4.9-4.432,4.169-8.34,4.265-8.83c.812-4.146,4.535.293,4.535.293" transform="translate(-215.224 -164.012)" fill="#d94c51"/>
        <path id="Trazado_817398" data-name="Trazado 817398" d="M400.288,215.469c2.817,1.291,3.863-.026,3.863-.026s16.412-27.4,18.14-29.608,32.024-15.2,32.024-15.2,12.33-4.713,12.817-12.192c.423-6.5-3.266-10.492-7.307-12.9a13.641,13.641,0,0,0-15.335.991c-9.938,7.718-29.639,23.243-32.809,27.452-7.056,9.37-14.878,38.739-14.878,38.739a9.757,9.757,0,0,0,3.484,2.748" transform="translate(-219.164 -79.335)" fill="#fff59d"/>
        <path id="Trazado_817399" data-name="Trazado 817399" d="M601.562,390.436s14.431-6.634,28.284-3.565c0,0-16.822-7.485-28.284,3.565" transform="translate(-332.256 -212.309)" fill="#3a9625"/>
        <path id="Trazado_817400" data-name="Trazado 817400" d="M597.953,404.151s15.778,1.828,26.02,11.649c0,0-10.485-15.136-26.02-11.649" transform="translate(-330.263 -222.934)" fill="#3a9625"/>
        <path id="Trazado_817401" data-name="Trazado 817401" d="M595.966,366.839s15.777,1.828,26.02,11.648c0,0-10.485-15.135-26.02-11.648" transform="translate(-329.165 -202.325)" fill="#3a9625"/>
        <path id="Trazado_817402" data-name="Trazado 817402" d="M648.362,406.079s5.957-5.759,13.306-6.642c0,0-9.574-.778-13.306,6.642" transform="translate(-358.105 -220.605)" fill="#3a9625"/>
        <path id="Trazado_817403" data-name="Trazado 817403" d="M639.227,502.387s5.957-5.759,13.306-6.642c0,0-9.574-.778-13.306,6.642" transform="translate(-353.059 -273.798)" fill="#3a9625"/>
        <path id="Trazado_817404" data-name="Trazado 817404" d="M566.578,347.967s5.957-5.759,13.306-6.642c0,0-9.574-.778-13.306,6.642" transform="translate(-312.933 -188.509)" fill="#3a9625"/>
        <path id="Trazado_817405" data-name="Trazado 817405" d="M579.742,417.851s8.257.689,13.762,5.639c0,0-5.72-7.717-13.762-5.639" transform="translate(-320.204 -230.592)" fill="#3a9625"/>
        <path id="Trazado_817406" data-name="Trazado 817406" d="M580.087,376.684a14.3,14.3,0,0,1,7.422,3.041s-3.085-4.162-7.422-3.041" transform="translate(-320.395 -207.945)" fill="#3a9625"/>
        <path id="Trazado_817407" data-name="Trazado 817407" d="M622.813,354.579a14.3,14.3,0,0,1,7.422,3.041s-3.084-4.162-7.422-3.041" transform="translate(-343.993 -195.736)" fill="#3a9625"/>
        <path id="Trazado_817408" data-name="Trazado 817408" d="M628.063,427.467a14.3,14.3,0,0,1,6.483-4.722s-5.161.442-6.483,4.722" transform="translate(-346.893 -233.491)" fill="#3a9625"/>
        <path id="Trazado_817409" data-name="Trazado 817409" d="M684.06,506.984a14.3,14.3,0,0,1,6.858,4.159s-2.4-4.591-6.858-4.159" transform="translate(-377.821 -280.002)" fill="#3a9625"/>
        <path id="Trazado_817410" data-name="Trazado 817410" d="M671.994,426.166a14.3,14.3,0,0,1,6.858,4.159s-2.4-4.591-6.858-4.159" transform="translate(-371.157 -235.365)" fill="#3a9625"/>
        <path id="Trazado_817411" data-name="Trazado 817411" d="M624.673,493s8.257.689,13.762,5.639c0,0-5.72-7.717-13.762-5.639" transform="translate(-345.021 -272.098)" fill="#3a9625"/>
        <path id="Trazado_817412" data-name="Trazado 817412" d="M672.994,502.614a14.3,14.3,0,0,1,6.483-4.722s-5.161.442-6.483,4.722" transform="translate(-371.709 -274.997)" fill="#3a9625"/>
        <path id="Trazado_817413" data-name="Trazado 817413" d="M758.161,173.338a4.091,4.091,0,0,1-2.261,3.088,5.047,5.047,0,0,1-2.12.475c-16.994,0-33.987.063-50.98-.045-4.158-.026-7.308-2.211-9.336-5.878a12.089,12.089,0,0,1-1.521-5.971q.027-69.176.011-138.351a11.21,11.21,0,0,1,2.284-7.228,10.956,10.956,0,0,1,7.449-4.337,39.83,39.83,0,0,1,4.92-.169q11.48-.024,22.96.008c.794,0,1.118-.1,1.081-1.04a16.472,16.472,0,0,1,.486-6.169,10.648,10.648,0,0,1,8.956-7.57,10.864,10.864,0,0,1,9.491,2.988,11.383,11.383,0,0,1,1.949,2.8,13.7,13.7,0,0,1,1.294,3.82,16.629,16.629,0,0,1,.19,4.479c-.041.559.156.693.673.682,1.28-.028,2.562-.009,3.842-.009q27.646,0,55.291.019c.856,0,1.1-.2,1.044-1.072A20.249,20.249,0,0,1,814.033,9a10.852,10.852,0,0,1,2.849-5.532,11.258,11.258,0,0,1,13.371-2.211,10.477,10.477,0,0,1,5.679,7.66,21.342,21.342,0,0,1,.3,5.091c-.023.762.187.923.913.921,8.528-.025,17.056-.052,25.583,0,3.547.022,6.819.894,9.177,3.842a11.78,11.78,0,0,1,2.806,7.345c.436,34.228.065,68.458.188,102.687a14.564,14.564,0,0,1-.019,2.246,4.964,4.964,0,0,0,1.42,4.051,33.652,33.652,0,0,1,6.322,12.7,35.382,35.382,0,0,1,1.259,9.54,34.55,34.55,0,0,1-1.478,8.939,32.978,32.978,0,0,1-5.472,11.349,34.074,34.074,0,0,1-16.286,12.061,42.726,42.726,0,0,1-8.256,1.986,31.006,31.006,0,0,1-12.715-.972,34.462,34.462,0,0,1-16.923-10.258,29.348,29.348,0,0,1-2.3-2.9,1.316,1.316,0,0,0-1.275-.655c-11.5.015-22.991,0-34.486.02a4.017,4.017,0,0,1-3.914-3.759c.12-.346.018-.7.173-1.077a4.187,4.187,0,0,1,4.331-2.675q14.572.01,29.144,0c1.469,0,1.5-.045.971-1.418-.055-.144-.132-.279-.184-.424a32.737,32.737,0,0,1-1.59-7.378c-.139-1.269-.049-1.279-1.308-1.279q-48.87,0-97.74,0a5.544,5.544,0,0,1-1.654-.111,4.17,4.17,0,0,1-2.995-4.316q.052-41.9-.008-83.8a37.541,37.541,0,0,1,.022-4.221,3.664,3.664,0,0,1,.809-2.138,4.771,4.771,0,0,1,3.91-1.409q66.862,0,133.725.011a28.606,28.606,0,0,1,5.106.165,3.9,3.9,0,0,1,3.012,2.356,5.871,5.871,0,0,1,.4,2.413q0,26.479,0,52.958a1.54,1.54,0,0,1-.01.558c-.4.945.313,1.112.918,1.354a3.511,3.511,0,0,0,.6.179,17.885,17.885,0,0,1,3.006.86,51.912,51.912,0,0,1,4.938,2.536c1.039.548,1.04.548,1.04-.646q0-36.04.025-72.079c0-.988-.261-1.185-1.21-1.184q-69.861.038-139.722.054a4.247,4.247,0,0,1-4.565-3.786,9.319,9.319,0,0,1,.381-1.346c.824-1.839,2.367-2.406,4.262-2.405q69.763.01,139.526,0a6.4,6.4,0,0,1,.655,0c.457.047.661-.077.659-.6-.018-5.9.029-11.81-.029-17.714a4,4,0,0,0-3.993-4.185q-13.119,0-26.238-.011c-.717,0-1.012.175-.93.961a15.275,15.275,0,0,1-.425,5.429,11.164,11.164,0,0,1-4.056,6.171c-6.145,4.779-13.683,2.007-16.717-3.9-1.19-2.319-1.2-4.8-1.173-7.3.014-1.345.021-1.344-1.354-1.344h-58c-.281,0-.563.01-.843,0-.467-.017-.693.18-.669.666a20.582,20.582,0,0,1-.241,4.634,11.9,11.9,0,0,1-1.48,4.392,10.876,10.876,0,0,1-3.036,3.1,10.806,10.806,0,0,1-5.836,2.183,10.964,10.964,0,0,1-9.007-3.965,11.2,11.2,0,0,1-1.931-3.143c-.923-2.239-.834-4.582-.807-6.922.008-.612-.052-.962-.836-.96q-13.306.041-26.612.016a2.975,2.975,0,0,0-1.606.431A4.362,4.362,0,0,0,699.4,27.08c.141,7.183.051,14.37.048,21.556,0,.484.009.969.009,1.453q0,57.728.008,115.456a2.985,2.985,0,0,0,.109,1.084A3.82,3.82,0,0,0,703.5,169.4c16.74.01,33.48-.013,50.22.026,2.627.006,4.177,1.293,4.437,3.916m-20.473-44-.031-.053-.058.017c-6.527-.015-13.053-.018-19.579-.064-.692,0-.57.366-.571.755q0,4.217,0,8.434,0,6.138,0,12.276c0,.369-.1.717.525.714q9.65-.032,19.3,0c.521,0,.589-.207.62-.662.06-.879-.075-1.745-.069-2.622.045-6,.015-11.993.01-17.99v-.027c0-.182,0-.364.006-.546l.026-.053-.054-.03-.124-.144m0-29.247-.031-.053-.058.017c-6.366-.016-12.732-.008-19.1-.075-.946-.01-1.08.271-1.074,1.126.039,6.118.019,12.236.023,18.354,0,.745-.247,1.714.123,2.178.441.552,1.454.167,2.215.168q8.567.013,17.133-.027c.359,0,.871.217.921-.453V121.3q0-10.205-.01-20.411v-.027q0-.273.006-.546l.026-.054-.054-.03-.124-.144m83.868,33.944a2.642,2.642,0,0,0,.036-1.08v-.041c-.014-1-.053-1.994-.033-2.991.011-.51-.209-.645-.667-.644q-9.778.024-19.555.033c-.118.085-.548-.149-.307.3a45.046,45.046,0,0,1,.065,4.76c0,5.429-.026,10.859-.042,16.289,0,.392-.111.766.569.759q5.71-.054,11.42,0a.854.854,0,0,0,.949-.791,28.41,28.41,0,0,1,1.912-6.88,60.8,60.8,0,0,1,2.879-5.6c.8-1.441,2.028-2.582,2.757-4.064l.054-.012Zm-27.9-32.059c0-.156.01-.312.007-.468-.035-1.552.294-1.485-1.528-1.487q-8.568-.011-17.136.005a3.677,3.677,0,0,0-1.561.118l-.145-.013c0,.035,0,.069,0,.1l.064-.041a1.046,1.046,0,0,0-.121.328c-.042,6.872.085,13.746-.081,20.617-.013.526.149.759.7.686a23.644,23.644,0,0,1,3.472-.049c4.715.07,9.432.027,14.149.028a2.213,2.213,0,0,1,.832.043,1.156,1.156,0,0,0,1.3-.33l.072-.022-.054-.038q-.01-.258-.02-.516c.1-.066.1-.133,0-.2.1-6.115.071-12.23.026-18.345.131.027.232.007.243-.154s.008-.3-.217-.267m27.866,19.329q.008-10.259.025-20.518c0-.482-.058-.762-.638-.761q-9.788.033-19.576.038c-.2-.009-.292.068-.231.275-.013,6.868-.013,13.736-.055,20.6,0,.689.131.91.852.892,2.09-.054,4.182-.025,6.273-.028,4.151-.007,8.3-.006,12.453-.033.323,0,.884.28.9-.436l.049-.017ZM793.61,92.27l.072-.023-.053-.038q-.011-.259-.021-.517c.1-.066.1-.132,0-.2.019-2.556.043-5.113.057-7.67q.029-5.423.046-10.848c.265-.2.317-.4.039-.634q-.056-.9-.112-1.8l.032-.043-.057,0a.522.522,0,0,0-.173-.068q-9.921-.012-19.841-.026c-.452,0-.505.2-.484.565.051.869.119,1.74.117,2.61q-.017,9.08-.074,18.159c0,.627.12.856.824.852,5.9-.037,11.792-.027,17.689-.03a1.641,1.641,0,0,1,.645.039,1.135,1.135,0,0,0,1.293-.327M737.835,70.857c-.041-.7-.58-.435-.919-.436-6.213-.014-12.427,0-18.64-.031-.74,0-.845.226-.842.887.025,6.308.013,12.616.017,18.925,0,.746-.25,1.71.118,2.182.44.565,1.453.172,2.212.173q8.571.015,17.141-.027c.359,0,.872.218.921-.453v-.022q0-10.582-.005-21.165Zm35.618,58.525c-.14.009-.389-.069-.177.222-.134,7.017.113,14.038-.163,21.054-.023.586.222.755.773.754q9.552-.017,19.1,0c.589,0,.731-.229.728-.784-.03-6.744-.057-13.488-.03-20.231,0-.925-.275-1.151-1.157-1.146-5.962.034-11.924.014-17.886.026a2.316,2.316,0,0,0-1.192.1m48.1-56.84a6.264,6.264,0,0,1,.041-1.027c.194-.963-.254-1.125-1.116-1.121q-9.272.048-18.543,0c-.68,0-.9.145-.9.876q.052,10.256.014,20.514c0,.587.1.815.753.8,2.059-.049,4.12-.024,6.181-.027,4.215-.006,8.429-.006,12.643-.033.323,0,.883.28.9-.436l.049-.017-.055-.017q.013-9.724.027-19.446l.052-.035Zm-76.246.259c0,2.9.005,5.809,0,8.713-.012,3.528-.024,7.055-.068,10.583-.008.607.382.465.679.465,6.339,0,12.677-.026,19.016-.008.7,0,.835-.255.835-.873,0-6.746-.005-13.492.044-20.238.007-.9-.307-1.053-1.117-1.049-5.745.033-11.491.011-17.236.026-.736,0-1.7-.338-2.151.149s-.026,1.421,0,2.16l-.052.034Zm75.577,85.824c.234,7.055,3.673,14.414,10.733,19.927a27.782,27.782,0,0,0,36.8-2.407,27.15,27.15,0,0,0,7.8-22.278,26.263,26.263,0,0,0-8.382-17.236,27.63,27.63,0,0,0-22.823-7.6,26.122,26.122,0,0,0-16.94,8.816c-4.692,5.384-7.214,11.685-7.187,20.776m28.523-77.057c0-3.468-.016-6.935.014-10.4.005-.611-.155-.771-.767-.769q-9.416.035-18.832,0c-.736,0-.871.25-.868.918q.044,10.121.02,20.242c0,.749.167,1.026.975,1.022q9.323-.042,18.645.01c.639,0,.837-.133.83-.8-.037-3.4-.017-6.81-.017-10.215M755.4,151.4c3.152,0,6.3-.029,9.456.02.8.012.97-.243.972-1,0-1.6-.176-3.187-.133-4.8.136-4.991.053-9.988.054-14.982,0-1.337-.007-1.36-1.332-1.361-6.055-.008-12.109,0-18.164-.015-.663,0-.925.157-.936.883-.1,6.832.146,13.666-.14,20.5-.026.616.157.779.766.773,3.152-.03,6.3-.014,9.457-.014m-10.117-40.488h.024c0,3.217.014,6.435-.007,9.653-.009,1.216-.045,1.22,1.132,1.221,6.122,0,12.245-.012,18.367.017.753,0,.983-.268.981-.965q-.033-9.982-.031-19.965c0-.641-.2-.873-.858-.87q-9.324.035-18.648.013c-.705,0-.986.189-.977.962.042,3.311.018,6.622.018,9.934m83.692-.111h.014c0,3.375.005,6.749-.005,10.124,0,.518.009.9.719.887,6.406-.09,12.82.233,19.217-.4.438-.043.493-.2.493-.564q-.012-10.124,0-20.248c0-.5-.15-.6-.641-.6q-9.419.034-18.837.005c-.744,0-1,.137-.986.952.055,3.28.023,6.561.023,9.841M745.565,18.9h.01q0-3.09,0-6.179a11.387,11.387,0,0,0-.2-2.4,3.975,3.975,0,0,0-5.768-2.316c-1.335.842-1.906,3.509-1.656,4.7a5.77,5.77,0,0,1,.132,1.183c.011,4.244-.017,8.488.034,12.731a2.991,2.991,0,0,0,1.3,2.5,3.817,3.817,0,0,0,4.323.221,3.559,3.559,0,0,0,1.817-3.332c.019-2.372.005-4.743.005-7.115m83.226.013h.008c0-2.06.009-4.12,0-6.179a15.529,15.529,0,0,0-.171-2.212,3.773,3.773,0,0,0-3.966-3.045,3.469,3.469,0,0,0-3.354,3.6c.022,5.15,0,10.3.035,15.448a3.04,3.04,0,0,0,1.165,2.4,3.705,3.705,0,0,0,4.184.586,3.653,3.653,0,0,0,2.1-3.569c0-2.341,0-4.681,0-7.022" transform="translate(-382.175 0)" fill="#060607"/>
        <path id="Trazado_817414" data-name="Trazado 817414" d="M731.186,108.664a4.247,4.247,0,0,0,4.565,3.786q69.861-.066,139.723-.055c.949,0,1.211.2,1.209,1.184q-.048,36.039-.025,72.079c0,1.195,0,1.194-1.04.646a52.022,52.022,0,0,0-4.938-2.536,17.937,17.937,0,0,0-3.005-.86,3.517,3.517,0,0,1-.605-.179c-.6-.242-1.32-.409-.917-1.354a1.537,1.537,0,0,0,.01-.558q0-26.479,0-52.959a5.868,5.868,0,0,0-.4-2.412,3.9,3.9,0,0,0-3.012-2.356,28.567,28.567,0,0,0-5.106-.165q-66.862-.017-133.725-.011a4.772,4.772,0,0,0-3.91,1.409,3.664,3.664,0,0,0-.809,2.139,37.375,37.375,0,0,0-.022,4.22q.06,41.9.007,83.8a4.17,4.17,0,0,0,2.995,4.316,5.527,5.527,0,0,0,1.654.111q48.87.006,97.74,0c1.258,0,1.168.01,1.308,1.279a32.743,32.743,0,0,0,1.59,7.378c.051.145.128.28.184.424.53,1.373.5,1.418-.971,1.418q-14.572,0-29.144,0a4.186,4.186,0,0,0-4.331,2.675c-.154.374-.053.731-.172,1.077-2.086,0-4.171.008-6.256-.006a4.329,4.329,0,0,0-1.373.193,4.182,4.182,0,0,0-.484-2.016,3.792,3.792,0,0,0-4.23-1.707,3.856,3.856,0,0,0-2.653,3.536c-2.083,0-4.167.008-6.251-.005a4.209,4.209,0,0,0-1.372.193c-.26-2.623-1.81-3.91-4.437-3.916-16.74-.04-33.48-.016-50.22-.026a3.821,3.821,0,0,1-3.933-2.767,2.986,2.986,0,0,1-.109-1.084q-.012-57.728-.008-115.457c0-.484-.006-.968-.009-1.453l7.485.029c.068.294.133.589.2.882a3.858,3.858,0,0,0,3.911,2.858,3.715,3.715,0,0,0,3.244-3.741l7.64-.006" transform="translate(-391.431 -60.005)" fill="#fff"/>
        <path id="Trazado_817415" data-name="Trazado 817415" d="M856.886,382.246a3.857,3.857,0,0,1,2.653-3.536,3.792,3.792,0,0,1,4.229,1.707,4.185,4.185,0,0,1,.484,2.017,3.853,3.853,0,0,1-2.11,3.132c-2.579,1.347-5.1-1.034-5.224-3.044-.006-.092-.022-.184-.033-.276" transform="translate(-473.277 -209.095)" fill="#060607"/>
        <path id="Trazado_817416" data-name="Trazado 817416" d="M716.125,76.3l-7.485-.029c0-7.186.093-14.373-.048-21.555a4.363,4.363,0,0,1,2.194-4.236,2.975,2.975,0,0,1,1.606-.431q13.306,0,26.612-.016c.784,0,.844.348.836.96-.028,2.339-.116,4.683.807,6.922a11.2,11.2,0,0,0,1.931,3.143,10.964,10.964,0,0,0,9.007,3.965,12.181,12.181,0,0,0,8.872-5.281,11.9,11.9,0,0,0,1.48-4.392,20.548,20.548,0,0,0,.241-4.634c-.024-.486.2-.683.669-.666.28.011.562,0,.843,0h58c1.375,0,1.368,0,1.354,1.344-.026,2.5-.016,4.982,1.173,7.3,3.034,5.912,10.572,8.684,16.717,3.9a11.163,11.163,0,0,0,4.056-6.171A15.271,15.271,0,0,0,845.419,51c-.082-.786.213-.962.93-.961q13.118.025,26.237.011a4,4,0,0,1,3.993,4.185c.058,5.9.012,11.809.029,17.714,0,.526-.2.65-.659.6a6.4,6.4,0,0,0-.655,0q-69.763,0-139.526-.005c-1.9,0-3.438.567-4.262,2.405a9.3,9.3,0,0,0-.381,1.346l-7.64.006a3.647,3.647,0,0,0-2.619-3.549,3.731,3.731,0,0,0-4.32,2.122,10.659,10.659,0,0,0-.421,1.427" transform="translate(-391.37 -27.633)" fill="#9cbc41"/>
        <path id="Trazado_817417" data-name="Trazado 817417" d="M979.967,317.551c-.027-9.091,2.5-15.393,7.187-20.776a26.124,26.124,0,0,1,16.94-8.816,27.632,27.632,0,0,1,22.823,7.6,26.265,26.265,0,0,1,8.382,17.236,27.151,27.151,0,0,1-7.8,22.279,27.782,27.782,0,0,1-36.8,2.406c-7.06-5.513-10.5-12.872-10.732-19.927m15.568-1.95a3.856,3.856,0,0,0,1.261,2.826c.689.723,1.4,1.425,2.072,2.163,1.745,1.92,3.634,3.695,5.536,5.455a3.408,3.408,0,0,0,2.853,1.1,5,5,0,0,0,2.793-1.56c2.264-2.328,4.573-4.612,6.867-6.912s4.612-4.574,6.875-6.9c1.443-1.486,1.471-2.934.463-4.753-.627-1.132-2.948-1.827-4.283-1.36a7.163,7.163,0,0,0-2.638,1.981q-4.8,4.856-9.593,9.719c-.521.531-.878.71-1.515.039a50.255,50.255,0,0,0-4.84-4.683,3.259,3.259,0,0,0-3.833-.443,3.535,3.535,0,0,0-2.019,3.332" transform="translate(-541.257 -158.926)" fill="#fff59d"/>
        <path id="Trazado_817418" data-name="Trazado 817418" d="M810.894,159.468c-.031-.739-.453-1.674,0-2.161s1.415-.147,2.151-.149c5.746-.015,11.491.007,17.236-.026.81,0,1.124.145,1.117,1.048-.05,6.746-.048,13.492-.044,20.238,0,.617-.137.874-.835.872-6.339-.017-12.677.007-19.016.009-.3,0-.687.142-.68-.465.045-3.527.057-7.055.069-10.582.009-2.9,0-5.809,0-8.712l.046-.033Z" transform="translate(-447.758 -86.739)" fill="#c0e4f4"/>
        <path id="Trazado_817419" data-name="Trazado 817419" d="M956.129,178.939c-.019.716-.58.433-.9.436-4.214.027-8.429.026-12.643.033-2.06,0-4.121-.022-6.181.026-.654.015-.754-.213-.753-.8q.025-10.257-.014-20.514c0-.731.217-.879.9-.876q9.272.036,18.544,0c.862,0,1.309.157,1.116,1.121a6.315,6.315,0,0,0-.04,1.027l-.047.035.046.035q-.014,9.723-.028,19.445l.007.034" transform="translate(-516.772 -86.848)" fill="#c0e4f4"/>
        <path id="Trazado_817420" data-name="Trazado 817420" d="M873.594,288.844a2.311,2.311,0,0,1,1.192-.1c5.962-.012,11.924.008,17.886-.026.882,0,1.16.221,1.157,1.146-.028,6.743,0,13.487.03,20.231,0,.555-.139.785-.728.784q-9.552-.02-19.1,0c-.55,0-.8-.167-.772-.754.275-7.016.029-14.037.162-21.054.186.028.22-.067.178-.222" transform="translate(-482.316 -159.463)" fill="#c0e4f4"/>
        <path id="Trazado_817421" data-name="Trazado 817421" d="M1018.447,168.416c0,3.405-.02,6.81.017,10.215.007.672-.191.808-.83.8q-9.323-.044-18.645-.01c-.808,0-.977-.274-.975-1.022q.027-10.12-.02-20.241c0-.668.132-.922.868-.919q9.415.044,18.832,0c.612,0,.773.158.767.769-.03,3.467-.015,6.935-.014,10.4" transform="translate(-551.214 -86.849)" fill="#c0e4f4"/>
        <path id="Trazado_817422" data-name="Trazado 817422" d="M769.21,178.9c-.05.67-.562.451-.921.453q-8.571.03-17.141.027c-.759,0-1.773.391-2.212-.173-.368-.472-.117-1.436-.117-2.182,0-6.308.008-12.616-.018-18.925,0-.661.1-.891.842-.887,6.213.036,12.426.017,18.64.031.34,0,.878-.26.919.435l-.052.017.055.017q0,10.582.005,21.165l-.048.01Z" transform="translate(-413.543 -86.824)" fill="#c0e4f4"/>
        <path id="Trazado_817423" data-name="Trazado 817423" d="M893.781,157.4q.056.9.111,1.8c-.284.2-.24.411-.038.635q-.023,5.424-.046,10.848c-.014,2.557-.038,5.113-.057,7.668-.016.019-.047.042-.045.06a.838.838,0,0,0,.043.141q.011.259.021.516l-.043.02.025.041a1.135,1.135,0,0,1-1.293.327,1.641,1.641,0,0,0-.645-.039c-5.9,0-11.793-.008-17.689.03-.7,0-.828-.225-.824-.852q.062-9.08.074-18.159c0-.87-.066-1.741-.118-2.61-.021-.363.032-.566.484-.565q9.92.025,19.841.025a.526.526,0,0,1,.172.068l-.027.051Z" transform="translate(-482.317 -86.859)" fill="#c0e4f4"/>
        <path id="Trazado_817424" data-name="Trazado 817424" d="M821.078,310.885c-3.152,0-6.3-.016-9.456.014-.609.006-.792-.157-.766-.773.286-6.83.04-13.665.14-20.5.011-.726.273-.885.936-.883,6.054.019,12.109.008,18.164.015,1.325,0,1.332.025,1.332,1.362,0,4.994.082,9.991-.054,14.982-.044,1.613.138,3.2.133,4.8,0,.757-.169,1.012-.972,1-3.152-.048-6.3-.02-9.456-.02" transform="translate(-447.852 -159.481)" fill="#c0e4f4"/>
        <path id="Trazado_817425" data-name="Trazado 817425" d="M769.3,289.014q0,.273-.006.545l-.053.013.053.015c.006,6,.035,11.994-.009,17.99-.006.877.129,1.744.069,2.622-.031.454-.1.663-.62.662q-9.65-.024-19.3,0c-.622,0-.525-.346-.525-.714q0-6.138,0-12.276,0-4.217,0-8.434c0-.389-.122-.76.57-.755,6.526.047,13.053.049,19.578.064l.031.058.058-.022.123.143-.032.054Z" transform="translate(-413.634 -159.447)" fill="#c0e4f4"/>
        <path id="Trazado_817426" data-name="Trazado 817426" d="M935.948,223.474q9.788-.015,19.576-.038c.579,0,.639.278.638.761q-.027,10.259-.025,20.517l.007.034c-.019.716-.579.433-.9.436-4.151.027-8.3.026-12.454.033-2.091,0-4.183-.026-6.273.028-.722.018-.857-.2-.852-.892.042-6.867.043-13.736.056-20.6l.231-.276" transform="translate(-516.787 -123.409)" fill="#c0e4f4"/>
        <path id="Trazado_817427" data-name="Trazado 817427" d="M811.074,234.3c0-3.311.024-6.623-.018-9.934-.009-.772.272-.963.977-.962q9.324.019,18.648-.013c.662,0,.859.23.858.87q-.008,9.983.031,19.965c0,.7-.228.969-.981.966-6.122-.03-12.244-.016-18.367-.018-1.177,0-1.141,0-1.132-1.221.022-3.217.007-6.435.007-9.653h-.024" transform="translate(-447.964 -123.384)" fill="#fff59d"/>
        <path id="Trazado_817428" data-name="Trazado 817428" d="M769.2,224.241q0,10.206.009,20.41l-.048.01.047.013c-.049.67-.562.451-.921.453q-8.566.03-17.133.028c-.76,0-1.774.384-2.214-.169-.37-.464-.123-1.432-.124-2.177,0-6.118.016-12.236-.023-18.354-.005-.855.128-1.136,1.074-1.126,6.366.068,12.732.059,19.1.075l.031.058.058-.022.123.143-.032.054.061.03q0,.273-.006.546l-.053.013Z" transform="translate(-413.546 -123.349)" fill="#c0e4f4"/>
        <path id="Trazado_817429" data-name="Trazado 817429" d="M873.647,223.519a3.67,3.67,0,0,1,1.561-.118q8.568-.02,17.136-.006c1.821,0,1.492-.064,1.527,1.487,0,.156,0,.312-.007.467-.16.131-.136.274-.026.422.045,6.115.078,12.23-.026,18.343-.016.019-.047.042-.045.06a.819.819,0,0,0,.044.141c.007.172.013.344.021.515l-.043.021.025.041a1.156,1.156,0,0,1-1.3.33,2.211,2.211,0,0,0-.832-.043c-4.717,0-9.433.042-14.149-.028a23.64,23.64,0,0,0-3.472.049c-.55.073-.712-.161-.7-.686.166-6.872.039-13.745.081-20.617a1.055,1.055,0,0,1,.12-.328l.063.01Z" transform="translate(-482.379 -123.376)" fill="#c0e4f4"/>
        <path id="Trazado_817430" data-name="Trazado 817430" d="M998.013,234.189c0-3.281.032-6.562-.022-9.841-.014-.814.242-.955.985-.952q9.418.038,18.837-.005c.491,0,.642.1.641.6q-.021,10.124,0,20.248c0,.367-.054.521-.493.564-6.4.628-12.811.306-19.217.4-.71.01-.72-.369-.719-.887.011-3.375.005-6.749.005-10.124Z" transform="translate(-551.212 -123.384)" fill="#c0e4f4"/>
        <path id="Trazado_817431" data-name="Trazado 817431" d="M956.18,292.453a2.641,2.641,0,0,1-.036,1.079l-.048.007.03.04c-.729,1.482-1.953,2.624-2.757,4.064a60.7,60.7,0,0,0-2.879,5.6,28.382,28.382,0,0,0-1.912,6.88.854.854,0,0,1-.95.791q-5.709-.048-11.42,0c-.68.006-.57-.368-.569-.759.016-5.429.043-10.859.042-16.289a45.084,45.084,0,0,0-.064-4.759c.209.007.239-.166.306-.3q9.778-.015,19.556-.033c.458,0,.677.134.667.644-.021,1,.018,1.994.032,2.991l-.05.05.05-.009" transform="translate(-516.762 -159.498)" fill="#c0e4f4"/>
        <path id="Trazado_817432" data-name="Trazado 817432" d="M802.253,28.144c0,2.371.013,4.743,0,7.114a3.56,3.56,0,0,1-1.817,3.332,3.817,3.817,0,0,1-4.323-.221,2.99,2.99,0,0,1-1.3-2.5c-.051-4.243-.023-8.487-.034-12.731a5.745,5.745,0,0,0-.133-1.183c-.25-1.191.321-3.859,1.656-4.7a3.974,3.974,0,0,1,5.767,2.316,11.384,11.384,0,0,1,.2,2.4q0,3.089,0,6.178Z" transform="translate(-438.865 -9.24)" fill="#c0e4f4"/>
        <path id="Trazado_817433" data-name="Trazado 817433" d="M988.387,28.14c0,2.341,0,4.681,0,7.022a3.653,3.653,0,0,1-2.1,3.569,3.7,3.7,0,0,1-4.184-.586,3.039,3.039,0,0,1-1.165-2.4c-.037-5.149-.014-10.3-.035-15.448a3.469,3.469,0,0,1,3.354-3.6,3.773,3.773,0,0,1,3.966,3.045,15.529,15.529,0,0,1,.171,2.212c.013,2.06,0,4.12,0,6.179Z" transform="translate(-541.772 -9.223)" fill="#c0e4f4"/>
        <path id="Trazado_817434" data-name="Trazado 817434" d="M919.067,162.23c-.2-.224-.246-.44.039-.635.278.23.227.439-.039.635" transform="translate(-507.531 -89.252)" fill="#9cbc41"/>
        <path id="Trazado_817435" data-name="Trazado 817435" d="M918.987,228.2c-.109-.148-.134-.291.026-.422.226-.034.228.112.217.268s-.112.181-.243.154" transform="translate(-507.528 -125.806)" fill="#9cbc41"/>
        <path id="Trazado_817436" data-name="Trazado 817436" d="M935.834,288.851c-.067.136-.1.309-.306.3-.241-.45.189-.217.306-.3" transform="translate(-516.673 -159.539)" fill="#9cbc41"/>
        <path id="Trazado_817437" data-name="Trazado 817437" d="M873.695,289c.042.155.009.25-.178.222-.211-.291.037-.214.178-.222" transform="translate(-482.417 -159.62)" fill="#9cbc41"/>
        <path id="Trazado_817438" data-name="Trazado 817438" d="M935.995,223.519l-.231.276c-.061-.209.033-.286.231-.276" transform="translate(-516.833 -123.454)" fill="#9cbc41"/>
        <path id="Trazado_817439" data-name="Trazado 817439" d="M873.816,223.68l-.017.06-.063-.01-.063.041c0-.034,0-.069,0-.1l.145.013" transform="translate(-482.548 -123.536)" fill="#9cbc41"/>
        <path id="Trazado_817440" data-name="Trazado 817440" d="M918.981,269.9a.813.813,0,0,1-.043-.141c0-.018.029-.041.044-.06.1.068.1.135,0,.2" transform="translate(-507.549 -148.963)" fill="#9cbc41"/>
        <path id="Trazado_817441" data-name="Trazado 817441" d="M918.981,204.573a.8.8,0,0,1-.043-.14c0-.018.029-.041.044-.06.1.069.1.135,0,.2" transform="translate(-507.549 -112.879)" fill="#9cbc41"/>
        <path id="Trazado_817442" data-name="Trazado 817442" d="M794.386,225.333l-.053-.015.053-.012v.027" transform="translate(-438.727 -124.441)" fill="#9cbc41"/>
        <path id="Trazado_817443" data-name="Trazado 817443" d="M794.413,270.982l-.047-.012.048-.01v.023" transform="translate(-438.746 -149.656)" fill="#9cbc41"/>
        <path id="Trazado_817444" data-name="Trazado 817444" d="M981.4,271l-.007-.034.055.017Z" transform="translate(-542.048 -149.659)" fill="#9cbc41"/>
        <path id="Trazado_817445" data-name="Trazado 817445" d="M919.01,271.365l-.025-.041.043-.02.053.039Z" transform="translate(-507.576 -149.847)" fill="#9cbc41"/>
        <path id="Trazado_817446" data-name="Trazado 817446" d="M981.4,205.666l-.007-.034.055.017Z" transform="translate(-542.048 -113.575)" fill="#9cbc41"/>
        <path id="Trazado_817447" data-name="Trazado 817447" d="M794.413,205.65l-.047-.013.048-.01v.023" transform="translate(-438.746 -113.573)" fill="#9cbc41"/>
        <path id="Trazado_817448" data-name="Trazado 817448" d="M794.389,223.983l-.061-.031.032-.054.055.031Z" transform="translate(-438.725 -123.664)" fill="#9cbc41"/>
        <path id="Trazado_817449" data-name="Trazado 817449" d="M919.01,206.033l-.025-.041.043-.02.053.039Z" transform="translate(-507.576 -113.763)" fill="#9cbc41"/>
        <path id="Trazado_817450" data-name="Trazado 817450" d="M811.088,162.457l.044.04-.046.033-.05-.039Z" transform="translate(-447.953 -89.728)" fill="#9cbc41"/>
        <path id="Trazado_817451" data-name="Trazado 817451" d="M794.014,223.512l-.058.021-.032-.058.059-.017Z" transform="translate(-438.502 -123.421)" fill="#9cbc41"/>
        <path id="Trazado_817452" data-name="Trazado 817452" d="M981.4,162.109l-.046-.035.047-.036.05.036Z" transform="translate(-542.026 -89.497)" fill="#9cbc41"/>
        <path id="Trazado_817453" data-name="Trazado 817453" d="M794.389,289.314l-.061-.031.032-.054.055.031Z" transform="translate(-438.725 -159.748)" fill="#9cbc41"/>
        <path id="Trazado_817454" data-name="Trazado 817454" d="M794.386,290.665l-.053-.015.053-.013v.027" transform="translate(-438.727 -160.525)" fill="#9cbc41"/>
        <path id="Trazado_817455" data-name="Trazado 817455" d="M981.485,296.937l-.05.008.05-.05v.041" transform="translate(-542.068 -163.982)" fill="#9cbc41"/>
        <path id="Trazado_817456" data-name="Trazado 817456" d="M981.391,299.446l-.03-.04.047-.007.035.035Z" transform="translate(-542.027 -165.365)" fill="#9cbc41"/>
        <path id="Trazado_817457" data-name="Trazado 817457" d="M794.392,158.309l-.056-.017.052-.017,0,.034" transform="translate(-438.729 -87.419)" fill="#9cbc41"/>
        <path id="Trazado_817458" data-name="Trazado 817458" d="M919.042,157.518l-.053,0,.027-.051.057,0Z" transform="translate(-507.578 -86.974)" fill="#9cbc41"/>
        <path id="Trazado_817459" data-name="Trazado 817459" d="M794.014,288.844l-.058.022-.032-.058.059-.017Z" transform="translate(-438.502 -159.505)" fill="#9cbc41"/>
        <path id="Trazado_817460" data-name="Trazado 817460" d="M725.42,104.215a10.667,10.667,0,0,1,.421-1.427,3.731,3.731,0,0,1,4.32-2.122,3.647,3.647,0,0,1,2.618,3.549,3.714,3.714,0,0,1-3.243,3.741,3.858,3.858,0,0,1-3.912-2.858c-.072-.294-.137-.589-.205-.883" transform="translate(-400.665 -55.55)" fill="#060607"/>
        <path id="Trazado_817461" data-name="Trazado 817461" d="M1014.742,337.521a3.536,3.536,0,0,1,2.019-3.332,3.259,3.259,0,0,1,3.833.443,50.257,50.257,0,0,1,4.84,4.683c.637.67.993.491,1.515-.039q4.784-4.871,9.593-9.719a7.162,7.162,0,0,1,2.638-1.981c1.335-.467,3.656.228,4.283,1.36,1.008,1.819.981,3.267-.463,4.753-2.263,2.33-4.582,4.6-6.875,6.9s-4.6,4.583-6.868,6.912a5,5,0,0,1-2.793,1.56,3.408,3.408,0,0,1-2.853-1.1c-1.9-1.76-3.791-3.534-5.536-5.455-.672-.739-1.383-1.441-2.072-2.163a3.857,3.857,0,0,1-1.261-2.826" transform="translate(-560.464 -180.846)" fill="#060607"/>
      </g>
    </g>
  </g>
</svg>
