<svg xmlns="http://www.w3.org/2000/svg" xmlns:xlink="http://www.w3.org/1999/xlink" width="400" height="311" viewBox="0 0 400 311">
  <defs>
    <clipPath id="clip-path">
      <rect id="Rectángulo_377259" data-name="Rectángulo 377259" width="400" height="311" transform="translate(20454 -9316)" fill="none" stroke="#707070" stroke-width="1"/>
    </clipPath>
    <clipPath id="clip-path-2">
      <rect id="Rectángulo_376766" data-name="Rectángulo 376766" width="386.846" height="241.763" fill="none"/>
    </clipPath>
    <clipPath id="clip-path-3">
      <rect id="Rectángulo_376765" data-name="Rectángulo 376765" width="386.846" height="241.764" fill="none"/>
    </clipPath>
    <clipPath id="clip-path-4">
      <rect id="Rectángulo_376732" data-name="Rectángulo 376732" width="6.897" height="34.998" fill="none"/>
    </clipPath>
    <clipPath id="clip-path-5">
      <rect id="Rectángulo_376746" data-name="Rectángulo 376746" width="11.262" height="41.15" fill="none"/>
    </clipPath>
  </defs>
  <g id="Enmascarar_grupo_191" data-name="Enmascarar grupo 191" transform="translate(-20454 9316)" clip-path="url(#clip-path)">
    <g id="Grupo_1072433" data-name="Grupo 1072433" transform="translate(20456.334 -9296.486)">
      <g id="Grupo_1072432" data-name="Grupo 1072432" clip-path="url(#clip-path-2)">
        <g id="Grupo_1072431" data-name="Grupo 1072431" transform="translate(0 -0.001)">
          <g id="Grupo_1072430" data-name="Grupo 1072430" clip-path="url(#clip-path-3)">
            <path id="Trazado_817467" data-name="Trazado 817467" d="M62.339,106.692c-.362-2.368-8.594-58.328,14.339-86.705,7.857-9.722,18.473-15.051,31.551-15.838,20.91-1.256,34.854,1.725,41.444,8.861,4.25,4.6,3.75,9.168,3.679,9.673l-5.475-.767-.006.055c.008-.108.221-2.644-2.428-5.39-3.8-3.935-13.277-8.334-36.883-6.913C97.1,10.356,87.816,15,80.977,23.461c-21.415,26.5-13.26,81.84-13.175,82.395Z" transform="translate(106.651 6.81)" fill="#332b22"/>
            <path id="Trazado_817468" data-name="Trazado 817468" d="M206.245,33.351c-.734-10.183-7.713-16.93-18.219-17.6-9.913-.637-17.836,1.923-23.551,7.611-4.989,4.965-9.388,10.44-8.927,16.632l7.357.03a25.708,25.708,0,0,1,6.8-11.466c4.153-4.112,10.158-5.944,17.852-5.453,6.844.442,10.87,4.266,11.339,10.776.726,10.117-7.012,22.941-20.7,34.308-10,8.3-27.069,19.039-54.671,27.53C114.8,62.76,100.92,33.969,91.51,20.9c-5.873-8.163-12.97-10.583-13.633-10.743l-.6,7.956-.066-.017c.163.047,4.068,1.2,8.32,7.109,9.041,12.562,22.439,40.456,30.913,72.578q-7.766,2.136-16.552,4C61,109.983,37.429,125.716,24.5,137.469,7.647,152.793-1.233,170.689.138,186.568c1.912,22.157,22.635,36.079,55.43,37.247,1.576.055,3.121.083,4.65.083,29.727,0,50.471-10.611,61.686-31.57,13.892-25.971,9.88-62.1,3.411-89.456C154.3,94,172.326,82.638,182.9,73.856c15.515-12.882,24.241-28.024,23.344-40.506m-90.839,155.5C105.054,208.2,85,217.485,55.83,216.45c-15.131-.538-27.563-3.941-35.955-9.835-7.39-5.191-11.676-12.341-12.394-20.681-1.173-13.569,6.838-29.249,21.978-43.012,12.253-11.141,34.683-26.07,71.952-33.927q8.921-1.879,16.817-4.065c6.124,26.032,9.94,60.061-2.823,83.921" transform="translate(0 17.866)" fill="#332b22"/>
            <path id="Trazado_817469" data-name="Trazado 817469" d="M128.472,2.3h-90.6V9.671h90.6c8.905,0,16.149,6.883,16.149,15.346v93.817h7.371V25.017c0-12.526-10.55-22.717-23.52-22.717" transform="translate(66.648 4.048)" fill="#c2c5cc"/>
            <rect id="Rectángulo_376728" data-name="Rectángulo 376728" width="114.18" height="7.371" transform="translate(45.868 6.347)" fill="#c2c5cc"/>
            <rect id="Rectángulo_376729" data-name="Rectángulo 376729" width="44.626" height="34.998" transform="translate(233.921 32.506)" fill="#ffe400"/>
            <rect id="Rectángulo_376730" data-name="Rectángulo 376730" width="21.282" height="34.998" transform="translate(257.264 32.506)" fill="#e2c100"/>
            <g id="Grupo_1072426" data-name="Grupo 1072426" transform="translate(236.806 32.505)" opacity="0.2" style="mix-blend-mode: screen;isolation: isolate">
              <g id="Grupo_1072425" data-name="Grupo 1072425">
                <g id="Grupo_1072424" data-name="Grupo 1072424" clip-path="url(#clip-path-4)">
                  <rect id="Rectángulo_376731" data-name="Rectángulo 376731" width="6.896" height="34.998" transform="translate(0.001 0.001)" fill="#e8e8e8"/>
                </g>
              </g>
            </g>
            <rect id="Rectángulo_376733" data-name="Rectángulo 376733" width="8.232" height="50.788" transform="translate(252.118 70.939)" fill="#8c8b8b"/>
            <path id="Trazado_817470" data-name="Trazado 817470" d="M63.288,90.912A13.408,13.408,0,1,1,49.879,77.5,13.409,13.409,0,0,1,63.288,90.912" transform="translate(64.179 136.378)" fill="#332b22"/>
            <path id="Trazado_817471" data-name="Trazado 817471" d="M35.227,84.2V38.937a7.521,7.521,0,1,0-15.043,0V84.2Z" transform="translate(35.517 55.278)" fill="#c2c5cc"/>
            <path id="Trazado_817472" data-name="Trazado 817472" d="M25.5,31.414a7.468,7.468,0,0,0-4.07,1.2,7.505,7.505,0,0,1,3.452,6.317V84.2h8.138V38.934a7.52,7.52,0,0,0-7.52-7.52" transform="translate(37.716 55.278)" fill="#8c8b8b"/>
            <path id="Trazado_817473" data-name="Trazado 817473" d="M18.9,60.827V53.892c0-2.5,1.719-4.529,3.844-4.529H37.167c2.122,0,3.844,2.028,3.844,4.529v6.935Z" transform="translate(33.264 86.862)" fill="#332b22"/>
            <rect id="Rectángulo_376734" data-name="Rectángulo 376734" width="6.609" height="5.13" transform="translate(59.914 82.331)" fill="#332b22"/>
            <rect id="Rectángulo_376735" data-name="Rectángulo 376735" width="5.666" height="39.052" transform="translate(60.386 36.259)" fill="#332b22"/>
            <rect id="Rectángulo_376736" data-name="Rectángulo 376736" width="3.45" height="7.023" transform="translate(61.496 75.308)" fill="#c2c5cc"/>
            <path id="Trazado_817474" data-name="Trazado 817474" d="M24.018,84.2V38.937a7.521,7.521,0,1,0-15.043,0V84.2Z" transform="translate(15.793 55.278)" fill="#c2c5cc"/>
            <path id="Trazado_817475" data-name="Trazado 817475" d="M14.3,31.414a7.468,7.468,0,0,0-4.07,1.2,7.505,7.505,0,0,1,3.452,6.317V84.2h8.141V38.934a7.522,7.522,0,0,0-7.523-7.52" transform="translate(17.994 55.278)" fill="#8c8b8b"/>
            <path id="Trazado_817476" data-name="Trazado 817476" d="M7.7,60.827V53.892c0-2.5,1.722-4.529,3.844-4.529H25.958c2.122,0,3.844,2.028,3.844,4.529v6.935Z" transform="translate(13.54 86.862)" fill="#332b22"/>
            <rect id="Rectángulo_376737" data-name="Rectángulo 376737" width="6.609" height="5.13" transform="translate(28.984 82.331)" fill="#332b22"/>
            <rect id="Rectángulo_376738" data-name="Rectángulo 376738" width="5.666" height="39.052" transform="translate(29.456 36.259)" fill="#332b22"/>
            <rect id="Rectángulo_376739" data-name="Rectángulo 376739" width="3.45" height="7.023" transform="translate(30.563 75.308)" fill="#c2c5cc"/>
            <path id="Trazado_817477" data-name="Trazado 817477" d="M5.026,13.959h8.765V11.682h3.265V9.963H69.3v9.8H17.055V18.04H13.791V15.763H5.026Z" transform="translate(8.844 17.532)" fill="#c2c5cc"/>
            <rect id="Rectángulo_376740" data-name="Rectángulo 376740" width="85.091" height="68.618" transform="translate(116.666 124.631)" fill="#c2c5cc"/>
            <rect id="Rectángulo_376741" data-name="Rectángulo 376741" width="11.262" height="68.618" transform="translate(120.171 124.631)" fill="#e8e8e8"/>
            <rect id="Rectángulo_376742" data-name="Rectángulo 376742" width="43.795" height="68.618" transform="translate(157.962 124.631)" fill="#8c8b8b"/>
            <path id="Trazado_817478" data-name="Trazado 817478" d="M112.268,29.06H57.374l-15.1,44.83,41.3-.395h43.663Z" transform="translate(74.39 51.136)" fill="#c2c5cc"/>
            <path id="Trazado_817479" data-name="Trazado 817479" d="M87.533,29.06h-31.2l2.5,44.436h43.8Z" transform="translate(99.125 51.136)" fill="#8c8b8b"/>
            <path id="Trazado_817480" data-name="Trazado 817480" d="M63.316,29.06H57.811L43.546,73.5H54.808Z" transform="translate(76.625 51.136)" fill="#e8e8e8"/>
            <rect id="Rectángulo_376743" data-name="Rectángulo 376743" width="46.801" height="41.149" transform="translate(116.666 140.388)" fill="#ffe400"/>
            <path id="Trazado_817481" data-name="Trazado 817481" d="M128.936,69.566H43.779a3.136,3.136,0,0,0,0,6.143h85.157a3.136,3.136,0,0,0,0-6.143" transform="translate(72.631 122.412)" fill="#c2c5cc"/>
            <path id="Trazado_817482" data-name="Trazado 817482" d="M54.633,72.637a2.831,2.831,0,0,1,2.5-3.071H45.366a3.136,3.136,0,0,0,0,6.143h11.77a2.831,2.831,0,0,1-2.5-3.071" transform="translate(75.423 122.412)" fill="#e8e8e8"/>
            <path id="Trazado_817483" data-name="Trazado 817483" d="M100.569,69.566H57.4a3.136,3.136,0,0,1,0,6.143h43.172a3.136,3.136,0,0,0,0-6.143" transform="translate(100.998 122.412)" fill="#8c8b8b"/>
            <rect id="Rectángulo_376744" data-name="Rectángulo 376744" width="5.505" height="41.149" transform="translate(157.962 140.388)" fill="#e2c100"/>
            <g id="Grupo_1072429" data-name="Grupo 1072429" transform="translate(120.17 140.386)" opacity="0.2" style="mix-blend-mode: screen;isolation: isolate">
              <g id="Grupo_1072428" data-name="Grupo 1072428">
                <g id="Grupo_1072427" data-name="Grupo 1072427" clip-path="url(#clip-path-5)">
                  <rect id="Rectángulo_376745" data-name="Rectángulo 376745" width="11.262" height="41.149" transform="translate(0.001 0.002)" fill="#e8e8e8"/>
                </g>
              </g>
            </g>
            <path id="Trazado_817484" data-name="Trazado 817484" d="M113.438,31.252a5.018,5.018,0,0,1-5.02,5.017H50.375a5.017,5.017,0,1,1,0-10.034h58.043a5.018,5.018,0,0,1,5.02,5.017" transform="translate(79.814 46.165)" fill="#332b22"/>
            <rect id="Rectángulo_376747" data-name="Rectángulo 376747" width="6.331" height="14.527" transform="translate(156.046 57.872)" fill="#c2c5cc"/>
            <path id="Trazado_817485" data-name="Trazado 817485" d="M264.87,71.792H43.961a6.631,6.631,0,0,0,0,13.263H264.87a6.631,6.631,0,0,0,0-13.263" transform="translate(65.687 126.329)" fill="#c2c5cc"/>
            <path id="Trazado_817486" data-name="Trazado 817486" d="M56.3,88.376c-.615-10.647-3.692-14.866-3.692-14.866L41.331,78.753V98.816s15.589.207,14.974-10.44" transform="translate(72.728 129.352)" fill="#c2c5cc"/>
            <path id="Trazado_817487" data-name="Trazado 817487" d="M158.486,28.484V47.357H86.321V28.484H76.056V148H86.321V57.623h72.165V148h10.266V28.484Z" transform="translate(133.83 50.122)" fill="#c2c5cc"/>
            <rect id="Rectángulo_376748" data-name="Rectángulo 376748" width="79.411" height="76.392" transform="translate(216.529 121.728)" fill="#ffe400"/>
            <rect id="Rectángulo_376749" data-name="Rectángulo 376749" width="8.582" height="76.392" transform="translate(216.529 121.728)" fill="#e2c100"/>
            <rect id="Rectángulo_376750" data-name="Rectángulo 376750" width="8.582" height="76.392" transform="translate(287.358 121.728)" fill="#e2c100"/>
            <path id="Trazado_817488" data-name="Trazado 817488" d="M134.972,26.928a2.522,2.522,0,0,1-2.522,2.522h-46.4a2.522,2.522,0,0,1,0-5.045h46.4a2.522,2.522,0,0,1,2.522,2.522" transform="translate(146.983 42.947)" fill="#8c8b8b"/>
            <path id="Trazado_817489" data-name="Trazado 817489" d="M134.972,12.472a2.522,2.522,0,0,1-2.522,2.522h-46.4a2.522,2.522,0,0,1,0-5.045h46.4a2.522,2.522,0,0,1,2.522,2.522" transform="translate(146.983 17.509)" fill="#8c8b8b"/>
            <rect id="Rectángulo_376751" data-name="Rectángulo 376751" width="51.144" height="43.575" transform="translate(321.531 97.197)" fill="#e8e8e8"/>
            <rect id="Rectángulo_376752" data-name="Rectángulo 376752" width="51.144" height="2.704" transform="translate(321.531 138.067)" fill="#c2c5cc"/>
            <rect id="Rectángulo_376753" data-name="Rectángulo 376753" width="51.144" height="2.704" transform="translate(321.531 97.197)" fill="#c2c5cc"/>
            <rect id="Rectángulo_376754" data-name="Rectángulo 376754" width="51.144" height="2.704" transform="translate(321.531 103.037)" fill="#c2c5cc"/>
            <rect id="Rectángulo_376755" data-name="Rectángulo 376755" width="51.144" height="2.704" transform="translate(321.531 108.873)" fill="#c2c5cc"/>
            <rect id="Rectángulo_376756" data-name="Rectángulo 376756" width="51.144" height="2.704" transform="translate(321.531 114.713)" fill="#c2c5cc"/>
            <rect id="Rectángulo_376757" data-name="Rectángulo 376757" width="51.144" height="2.704" transform="translate(321.531 120.552)" fill="#c2c5cc"/>
            <rect id="Rectángulo_376758" data-name="Rectángulo 376758" width="51.144" height="2.704" transform="translate(321.531 126.389)" fill="#c2c5cc"/>
            <rect id="Rectángulo_376759" data-name="Rectángulo 376759" width="51.144" height="2.704" transform="translate(321.531 132.228)" fill="#c2c5cc"/>
            <rect id="Rectángulo_376760" data-name="Rectángulo 376760" width="10.385" height="48.898" transform="translate(311.146 94.97)" fill="#c2c5cc"/>
            <rect id="Rectángulo_376761" data-name="Rectángulo 376761" width="8.566" height="39.032" transform="translate(302.581 99.902)" fill="#8c8b8b"/>
            <path id="Trazado_817490" data-name="Trazado 817490" d="M135.045,34.526h1.167c7.183,0,13,4.9,13,10.953V71.847c0,6.049-5.82,10.953-13,10.953h-1.167Z" transform="translate(237.63 60.754)" fill="#c2c5cc"/>
            <path id="Trazado_817491" data-name="Trazado 817491" d="M109.646,52.331v54.252h24.831L180.905,67.4V52.02Z" transform="translate(192.937 91.536)" fill="#8c8b8b"/>
            <rect id="Rectángulo_376762" data-name="Rectángulo 376762" width="59.735" height="7.639" transform="translate(306.066 151.303)" fill="#c2c5cc"/>
            <path id="Trazado_817492" data-name="Trazado 817492" d="M175.937,96.333a33.1,33.1,0,1,1-33.1-33.1,33.1,33.1,0,0,1,33.1,33.1" transform="translate(193.096 111.264)" fill="#332b22"/>
            <path id="Trazado_817493" data-name="Trazado 817493" d="M158.068,89.373A22.189,22.189,0,1,1,135.88,67.186a22.187,22.187,0,0,1,22.187,22.188" transform="translate(200.053 118.224)" fill="#ffe400"/>
            <path id="Trazado_817494" data-name="Trazado 817494" d="M133.985,80a7.483,7.483,0,1,1-7.484-7.484A7.483,7.483,0,0,1,133.985,80" transform="translate(209.43 127.599)" fill="#332b22"/>
            <rect id="Rectángulo_376763" data-name="Rectángulo 376763" width="60.803" height="20.267" rx="3.154" transform="translate(52.874 0.001)" fill="#332b22"/>
            <rect id="Rectángulo_376764" data-name="Rectángulo 376764" width="4.81" height="36.033" transform="translate(130.056 10.031)" fill="#c2c5cc"/>
          </g>
        </g>
      </g>
    </g>
  </g>
</svg>
