<svg xmlns="http://www.w3.org/2000/svg" xmlns:xlink="http://www.w3.org/1999/xlink" width="400" height="311" viewBox="0 0 400 311">
  <defs>
    <clipPath id="clip-path">
      <rect id="Rectángulo_377260" data-name="Rectángulo 377260" width="400" height="311" transform="translate(20460 -8806)" fill="#fff" stroke="#707070" stroke-width="1"/>
    </clipPath>
    <clipPath id="clip-path-2">
      <path id="Trazado_817525" data-name="Trazado 817525" d="M54.55,88.577c13.726-1.129,35.267-.852,56.085,7.408,6.628-16.975,7.846-33.623-11.368-35.757A37.769,37.769,0,0,0,95.123,60C76.592,60,63.29,74.167,54.55,88.577" transform="translate(-54.55 -59.997)" fill="none"/>
    </clipPath>
    <linearGradient id="linear-gradient" x1="-1.699" y1="2.494" x2="-1.668" y2="2.494" gradientUnits="objectBoundingBox">
      <stop offset="0" stop-color="#332b22"/>
      <stop offset="0.989" stop-color="#513d32"/>
      <stop offset="1" stop-color="#513d32"/>
    </linearGradient>
    <clipPath id="clip-path-3">
      <path id="Trazado_817526" data-name="Trazado 817526" d="M2.881,80.748A102.1,102.1,0,0,0,0,102.927v.456a51.927,51.927,0,0,0,.914,9.931c3.387,16.931,6.6,18.964,6.6,18.964A15.84,15.84,0,0,0,9.662,128.3c.131,1.25.2,1.967.2,1.967s12.173-8.211,6.228-26.611C11.524,89.516,9.967,88.576,10,79.647A69.288,69.288,0,0,0,3.41,70.536c-.321,3.661-.53,7.078-.53,10.212" transform="translate(0 -70.536)" fill="none"/>
    </clipPath>
    <linearGradient id="linear-gradient-2" x1="0" y1="1.114" x2="0.09" y2="1.114" xlink:href="#linear-gradient"/>
    <clipPath id="clip-path-4">
      <path id="Trazado_817527" data-name="Trazado 817527" d="M42.536,38.093c-5.959.315-14.2-.35-20.939-1.027C30.692,59.2,51.4,94.978,86.51,80.048c27.262-11.591,37.025-29.3,40.082-43.11-7.854-.328-16.652-.514-26.505-.514-16.168,0-35.182.5-57.55,1.668" transform="translate(-21.597 -36.425)" fill="none"/>
    </clipPath>
    <linearGradient id="linear-gradient-3" x1="-0.41" y1="2.336" x2="-0.391" y2="2.336" xlink:href="#linear-gradient"/>
    <clipPath id="clip-path-5">
      <rect id="Rectángulo_376774" data-name="Rectángulo 376774" width="522" height="209.194" fill="none"/>
    </clipPath>
    <clipPath id="clip-path-6">
      <rect id="Rectángulo_376773" data-name="Rectángulo 376773" width="50.236" height="28.684" fill="none"/>
    </clipPath>
    <clipPath id="clip-path-7">
      <path id="Trazado_817529" data-name="Trazado 817529" d="M99.676,62.621c.5,5.973-1.927,17.283-41.4,17.632-1.32,1.866-2.556,3.767-3.715,5.674,3.4-.275,7.283-.452,11.557-.43h.086c.336,0,.677.006,1.019.01A124.4,124.4,0,0,1,104.8,91.3Z" transform="translate(-54.565 -62.621)" fill="none"/>
    </clipPath>
    <linearGradient id="linear-gradient-4" x1="-2.162" y1="2.947" x2="-2.123" y2="2.947" xlink:href="#linear-gradient"/>
    <clipPath id="clip-path-8">
      <path id="Trazado_817532" data-name="Trazado 817532" d="M148.77,47.387c-.514.7-.78,1.147-.78,1.147l-32.763,3.49a45.591,45.591,0,0,0-14.576-7.191c-5.915-.814-12.875-1.519-21.042-2.053,7.952,4.2,19,13.4,25.1,32.829a282.674,282.674,0,0,0,17.9,44.276c.555-.683,1.1-1.366,1.627-2.043,0,0,.024-.034.058-.076.524-.675,1.035-1.34,1.531-2,5.4-6.966,23.2-29.311,32.281-32.833l.008,0c4.938-1.782,2.823-9.8,16.815-1.635,8.949,5.226,21.267,12.28,30,14.528a8.044,8.044,0,0,0,1.955-1.961c2.333-3.488-5.169-11.94-9.262-18.2s-11.418-31.62-26.255-36.566a17.9,17.9,0,0,0-11.464-.175c-2.389-3.564-5.913-7.448-10.064-7.8-.135-.012-.267-.018-.392-.018-5.563,0-2.529,11.028-.679,16.292" transform="translate(-79.609 -31.095)" fill="none"/>
    </clipPath>
    <linearGradient id="linear-gradient-5" x1="-1.223" y1="1.659" x2="-1.208" y2="1.659" xlink:href="#linear-gradient"/>
  </defs>
  <g id="Enmascarar_grupo_192" data-name="Enmascarar grupo 192" transform="translate(-20460 8806)" clip-path="url(#clip-path)">
    <g id="Grupo_1072885" data-name="Grupo 1072885" transform="translate(17.359 -449.435)">
      <g id="Grupo_1072884" data-name="Grupo 1072884" transform="translate(20743.773 -8180.733)">
        <path id="Trazado_817500" data-name="Trazado 817500" d="M245.526,97.287l4.273,2.174-2.686,11-2.493-.221Z" transform="translate(-191.808 -32.569)" fill="#332b22"/>
        <path id="Trazado_817501" data-name="Trazado 817501" d="M254.111,90.636,249.8,106.052l-5.176-.651V91.882Z" transform="translate(-191.808 -39.16)" fill="#a3a3a3"/>
        <path id="Trazado_817502" data-name="Trazado 817502" d="M225.085,106.469c2.158-6.678,2.672-16.945,2.773-17.411s5.24-3.649,5.24-3.649l4.006,9.965s-1.945,9.495-3.984,11.786-2.487,17.8-2.8,17.391-3.082-.719-3.082-.719-4.316-10.685-2.158-17.363" transform="translate(-211.765 -44.34)" fill="#a3a3a3"/>
        <path id="Trazado_817503" data-name="Trazado 817503" d="M218.4,102.029c1.6-3.446,5.937-9.521,11.219-10.63,9.537-2,18.42-3.912,25.207-3,6.23.84,14.269-4.105,19.519-4.527l12.394-14.54,12.421,8.139s-15.73,34.543-17.821,36.09c-7.295,5.4-27.435,3.739-36.267,1.644-2.349-.557-8.424-4.726-8.424-4.726s-3.58,9.435-4.271,11.32a9.582,9.582,0,0,1-5.706,5.923c-3.357,1.137-4.613,12.756-4.613,12.756h-3.45s-.247-17.158,2.423-18.8c1.5-.922,1.063-9.527,2.051-17.359-1.1.239-6.3,1.2-4.683-2.292" transform="translate(-218.095 -60.269)" fill="#d2d1d1"/>
        <path id="Trazado_817504" data-name="Trazado 817504" d="M252.1,68.883c2.662-2.423,12.694-.376,14.09,2.941.587,1.4-3.267,5.115-3.267,5.115l-11.506-2.556s-.34-4.567.683-5.5" transform="translate(-185.122 -61.767)" fill="#d2d1d1"/>
        <path id="Trazado_817505" data-name="Trazado 817505" d="M269.966,78.883l-3.3,5.692-9.2.93s1.037-4.052.629-5.33c-.426-1.338-3.761-4.173-3.761-4.173l3.132-5.465Z" transform="translate(-182.177 -59.077)" fill="#332b22"/>
        <path id="Trazado_817506" data-name="Trazado 817506" d="M257.232,71.261l-1.268,3.663-4.227-3.663Z" transform="translate(-184.757 -58.359)" fill="#332b22"/>
        <path id="Trazado_817507" data-name="Trazado 817507" d="M252.783,72.249c.559-4.792.774-7.468.774-7.468s4.571,12.708,1.973,14.231h-1.973s-1.334-1.971-.774-6.763" transform="translate(-183.855 -64.781)" fill="#332b22"/>
        <path id="Trazado_817508" data-name="Trazado 817508" d="M242.435,101.16c1.437-8.219,2.568-12.945,2.978-13.15s1.439-.769,1.439-.769l7.808,5.8-5.919,19.418H244.9s-3.9-3.082-2.465-11.3" transform="translate(-194.288 -42.524)" fill="#d2d1d1"/>
        <path id="Trazado_817509" data-name="Trazado 817509" d="M242.89,110.156l.77-10.486,3.964.478-1.6,10.008Z" transform="translate(-193.524 -30.209)" fill="#332b22"/>
        <path id="Trazado_817510" data-name="Trazado 817510" d="M226.42,101.47c-3.357,1.137-4.613,12.756-4.613,12.756h-3.45s-.221-15.344,2.015-18.4A35.819,35.819,0,0,1,227.527,101a8.677,8.677,0,0,1-1.107.468" transform="translate(-217.841 -34.016)" fill="#332b22"/>
        <path id="Trazado_817511" data-name="Trazado 817511" d="M224.49,98.821l7.3-.442c-.952,5.33-1.254,13.62-1.481,13.319-.307-.412-3.082-.721-3.082-.721a42.252,42.252,0,0,1-2.742-12.157" transform="translate(-211.756 -31.487)" fill="#332b22"/>
      </g>
      <g id="Grupo_1072883" data-name="Grupo 1072883" transform="translate(20619.305 -8176.238)">
        <path id="Trazado_817512" data-name="Trazado 817512" d="M185.4,88.539c.459-2.779.986-4.826.923-4.835l-18.05,8.05c.351.117,4.633,13.184,7.84,17.912l1.188,9.226h7.358l4.1-35.188Z" transform="translate(-84.891 -45.142)" fill="#e3baa3"/>
        <path id="Trazado_817513" data-name="Trazado 817513" d="M135.661,96.285l13.825,23.863,6.08-.624s-3.135-10.321-4.033-13.452,6.4-10.431,4.033-14.078a36.778,36.778,0,0,0-6.464-7.231c-.384-.256-9.728.129-10.113,0Z" transform="translate(-108.99 -44.425)" fill="#e3baa3"/>
        <path id="Trazado_817514" data-name="Trazado 817514" d="M271.612,92.851c-6.588.412-13.5-17.246-13.5-17.246a6.761,6.761,0,0,0-1.231-1.353c1.763-5.549,3.482-10.66,4.022-11.321,1.235-1.511,3.294-2.193-4.53,0-3.9,1.1-6.921,4.04-8.961,6.714-6.17-1.7-15.671-2.748-30.1-1.31-34.409,3.426-50.328-8.833-73.932-4.442a20.29,20.29,0,0,0-12.916,8.76l-6.913-.237.916-5.631-4.149,6.883,6.534,6.241c-3.523,10.469-1.666,23.291,7.255,29.912,1.313,3.109,2.25,5.908,2.122,7.321a26.36,26.36,0,0,0-.071,3.238c-2.254,5.829-4.659,16.872-4.659,16.872h8.789l2.464-12.286a49.731,49.731,0,0,0,5.9-5.433c2.009-2.113,3.666-3.923,5.08-5.476,12.034-.652,17.375-1.819,19.434-2.989a101.676,101.676,0,0,0,14.834.716c12.252-.03,22.656.642,30.946.885,1.623,4.269,4.033,10.441,6.029,13.382l1.188,9.227h7.358l2.788-23.941c5.6,1.883,22.4-3.391,30.08-6.685s9.606-2.2,9.606-2.2l3.276-10.747s-1.08.729-7.667,1.141" transform="translate(-120.325 -61.53)" fill="#e3baa3"/>
        <path id="Trazado_817515" data-name="Trazado 817515" d="M211.258,81.955l-1.414,9.151,4.389-9.784.254-4.431Z" transform="translate(-54.164 -50.177)" fill="#a3a3a3"/>
        <path id="Trazado_817516" data-name="Trazado 817516" d="M146.5,89.36c16.831-3.4,25.6-13.879,30.006-23.089-13.949-2.36-25.2-5.563-39.123-2.972a18.853,18.853,0,0,0-7.993,3.572c-2.374,12.206-1.43,26.23,17.11,22.489" transform="translate(-114.319 -60.934)" fill="#332b22"/>
        <path id="Trazado_817517" data-name="Trazado 817517" d="M168.777,78.25c-18.4.868-21.135,11.846-19.823,21.646a13.015,13.015,0,0,0,3.269-1.148,101.674,101.674,0,0,0,14.834.716c10.8-.026,20.163.492,27.908.783-1.2-10.594-6.741-22.914-26.188-22" transform="translate(-99.375 -49.207)" fill="#332b22"/>
        <path id="Trazado_817518" data-name="Trazado 817518" d="M191.141,95.472c-3.6,1.278-7.767,2.777-11.142,4.04.3.543.6,1.033.883,1.457l1.186,9.226h7.358Z" transform="translate(-76.223 -36.445)" fill="#332b22"/>
        <path id="Trazado_817519" data-name="Trazado 817519" d="M179.513,65.457c-3.866,7.5-7.791,18.587,3.807,17.142,10.45-1.3,14.891-9.965,16.655-16.874a96.311,96.311,0,0,0-20.462-.268" transform="translate(-79.46 -58.925)" fill="#332b22"/>
        <path id="Trazado_817520" data-name="Trazado 817520" d="M205.036,62.458s-5.621,1.141-8.391,5.3-4.522,12.015-.164,10.713,4.318-4.215,5.459-7.932a83.364,83.364,0,0,1,3.1-8.076" transform="translate(-65.99 -60.844)" fill="#a3a3a3"/>
      </g>
      <path id="Trazado_817521" data-name="Trazado 817521" d="M91.2,100.785s-10.188,2.367-7.177,35.534a42.723,42.723,0,0,1,0,8.754H70.813s1.133-7.621,1.887-9.132-4.884-9.045-1.864-16.216,5.732-22.07,7.382-33.312a99.257,99.257,0,0,1,6.148-21.705l15.318,4.044Z" transform="translate(20515.945 -8245.588)" fill="#a3a3a3"/>
      <path id="Trazado_817522" data-name="Trazado 817522" d="M23.649,71.389,30.4,63.931,51.706,74.584s2.674,21.251-7.8,24.176c.392,2.927.8,7.741-.707,7.924-1.589.191-2.744-4.888-3.253-7.643A35.879,35.879,0,0,1,33.98,98.2c.022,2.969-.185,7.494-1.658,7.494-1.746,0-2.226-6.162-2.347-8.675a28.882,28.882,0,0,1-10.231-6.092Z" transform="translate(20466.205 -8246.357)" fill="#f6ddcf"/>
      <path id="Trazado_817523" data-name="Trazado 817523" d="M14.867,88.892C29.223,72.73,26.474,60.583,26.474,60.583l3.114,25.761c-1.133,7.643-7.966,12.951-5.417,29.514,1.224,7.964.846,18.366,1.041,23.4l3.269,9.9H15.1l.482-11.364c-.424-7.253-.338-15.675-1.8-24.108-2.548-14.721-8.023-14.54,1.087-24.8" transform="translate(20456.359 -8249.674)" fill="#a3a3a3"/>
      <path id="Trazado_817524" data-name="Trazado 817524" d="M179.539,39.933c-21.673-2.984-57.239-4.515-115.6-1.455-9.867.516-26.01-1.645-31.184-2.112,0,0-24.584-4.965-25.434,23.909C6.654,82.824,2.883,101.4,2.881,114.932,1.03,122.784-1.328,136.29.914,147.5c3.387,16.931,6.6,18.964,6.6,18.964a15.915,15.915,0,0,0,2.142-3.976c.133,1.252.205,1.967.205,1.967s12.173-8.209,6.228-26.609-6.8-14.438-5.662-34.822,1.133-27.744,1.7-35.952S13.262,48.952,16.376,46.4a6.3,6.3,0,0,1,4.253-1.465c-4.5,5.851,6.05,36.247,11.884,52.421,6.228,17.269,1.115,16.883-1.893,18.788-1.742,1.1,8.171,34.328,10.349,43.629l.651,13.7H54.57l-4.593-15.788c-1.009-8.107-3.341-22.412-4.707-28.91-1.1-5.256,1.358-17.321,3.723-26.872,5.555-1.643,15.27,4.934,20.887,9.037,7.361,5.38,11.89,6.8,24.63,3.4,4.34-1.159,42.877-8.3,76.864,8.328,11.661,25.209,38.117-19.3,41.519-23.157.125-2.065-4.567-30.9-14.564-47.79-4.38-7.4-17.847-11.665-18.79-11.794" transform="translate(20446.641 -8273.995)" fill="#d2d1d1"/>
      <rect id="Rectángulo_376768" data-name="Rectángulo 376768" width="522" height="209.194" transform="translate(20446.641 -8309.708)" fill="none"/>
      <g id="Grupo_1072443" data-name="Grupo 1072443" transform="translate(20555.246 -8190.257)">
        <g id="Grupo_1072442" data-name="Grupo 1072442" clip-path="url(#clip-path-2)">
          <rect id="Rectángulo_376769" data-name="Rectángulo 376769" width="63.931" height="35.988" transform="translate(0 0)" fill="url(#linear-gradient)"/>
        </g>
      </g>
      <g id="Grupo_1072445" data-name="Grupo 1072445" transform="translate(20446.641 -8169.275)">
        <g id="Grupo_1072444" data-name="Grupo 1072444" clip-path="url(#clip-path-3)">
          <rect id="Rectángulo_376770" data-name="Rectángulo 376770" width="22.038" height="61.741" fill="url(#linear-gradient-2)"/>
        </g>
      </g>
      <g id="Grupo_1072447" data-name="Grupo 1072447" transform="translate(20489.639 -8237.188)">
        <g id="Grupo_1072446" data-name="Grupo 1072446" clip-path="url(#clip-path-4)">
          <rect id="Rectángulo_376771" data-name="Rectángulo 376771" width="104.994" height="58.553" transform="translate(0 0)" fill="url(#linear-gradient-3)"/>
        </g>
      </g>
      <g id="Grupo_1072454" data-name="Grupo 1072454" transform="translate(20446.641 -8309.708)">
        <g id="Grupo_1072453" data-name="Grupo 1072453" clip-path="url(#clip-path-5)">
          <path id="Trazado_817528" data-name="Trazado 817528" d="M24.625,75.562c.076-.6.177-1.2.309-1.784C26.2,68.13,47.2,79.878,54.376,85.917s9.758-5.473,33.406-5.662c39.632-.317,42.065-11.651,41.563-17.634L134.5,91.454c-31.939-10.17-60.552-4.472-64.389-3.448-12.738,3.4-17.267,1.981-24.628-3.4-5.606-4.1-15.3-10.655-20.855-9.047" transform="translate(24.402 62.054)" fill="#c2c5cc"/>
          <g id="Grupo_1072452" data-name="Grupo 1072452" transform="translate(108.636 124.674)" style="mix-blend-mode: multiply;isolation: isolate">
            <g id="Grupo_1072451" data-name="Grupo 1072451">
              <g id="Grupo_1072450" data-name="Grupo 1072450" clip-path="url(#clip-path-6)">
                <g id="Grupo_1072449" data-name="Grupo 1072449" transform="translate(0 0)">
                  <g id="Grupo_1072448" data-name="Grupo 1072448" clip-path="url(#clip-path-7)">
                    <rect id="Rectángulo_376772" data-name="Rectángulo 376772" width="50.237" height="28.683" transform="translate(0 0)" fill="url(#linear-gradient-4)"/>
                  </g>
                </g>
              </g>
            </g>
          </g>
          <path id="Trazado_817530" data-name="Trazado 817530" d="M109.539,64.428c0,1.133-14.613,30.607-13.055,47.842,2.435,26.892-5.206,7.948-.565,31.14.267,1.334,1.967,2.636,3.227,4.366A11.755,11.755,0,0,1,101.213,153H87.426s-1.133-19.5-3.679-23.465S75.807,56.7,75.807,56.7Z" transform="translate(75.12 56.189)" fill="#d2d1d1"/>
          <path id="Trazado_817531" data-name="Trazado 817531" d="M184.6,75.658c-4.093-6.263-11.418-31.62-26.254-36.566a17.9,17.9,0,0,0-11.464-.175c-2.391-3.564-5.913-7.448-10.064-7.8-6.092-.522-2.963,10.89-1.071,16.272-.512.7-.78,1.149-.78,1.149l-42.218,4.5,17.94,63.439s34.393-42.757,39.124-32.416S174.59,96.531,179.7,98.012s11.828-.665,14.162-4.151-5.168-11.94-9.262-18.2" transform="translate(91.91 30.814)" fill="#d2d1d1"/>
        </g>
      </g>
      <g id="Grupo_1072456" data-name="Grupo 1072456" transform="translate(20605.137 -8247.8)">
        <g id="Grupo_1072455" data-name="Grupo 1072455" clip-path="url(#clip-path-8)">
          <rect id="Rectángulo_376775" data-name="Rectángulo 376775" width="129.61" height="88.79" transform="translate(0 0)" fill="url(#linear-gradient-5)"/>
        </g>
      </g>
      <path id="Trazado_817533" data-name="Trazado 817533" d="M135.878,33.544c-17.425,2.68-12.435,14.807-12.435,14.807l0,0c.161,1.252,1.8,2.879,4.147,3.966,2.829,1.31,8.448,2.783,7.579,1.672-.418-1.216-4.394-13.6,6.218-15.085,11.157-1.565,17.5-11.84,17.5-11.84s-5.585,3.8-23.009,6.479" transform="translate(20568.309 -8282.889)" fill="#d2d1d1"/>
      <path id="Trazado_817534" data-name="Trazado 817534" d="M275.8,58.751A26.506,26.506,0,1,1,249.3,32.244,26.508,26.508,0,0,1,275.8,58.751" transform="translate(20564.877 -8290.068)" fill="#fff"/>
      <path id="Trazado_817535" data-name="Trazado 817535" d="M234.035,58.254,241.1,87.706l7.07-35.343Z" transform="translate(20576.018 -8270.133)" fill="#fff"/>
      <rect id="Rectángulo_376776" data-name="Rectángulo 376776" width="522" height="209.194" transform="translate(20446.641 -8309.708)" fill="none"/>
      <text id="_5" data-name="5" transform="translate(20808.57 -8225.127)" fill="#161615" font-size="20" font-family="Roboto-Medium, Roboto" font-weight="500"><tspan x="0" y="0">5</tspan></text>
      <g id="Grupo_1072460" data-name="Grupo 1072460" transform="translate(20446.641 -8309.708)">
        <g id="Grupo_1072459" data-name="Grupo 1072459" clip-path="url(#clip-path-5)">
          <path id="Trazado_817536" data-name="Trazado 817536" d="M202.369,48.439a23.22,23.22,0,1,1-23.221-23.221,23.221,23.221,0,0,1,23.221,23.221" transform="translate(127.099 60.731)" fill="#fff"/>
          <path id="Trazado_817537" data-name="Trazado 817537" d="M167.171,46.355l6.192,25.8,6.193-30.961Z" transform="translate(135.465 72.619)" fill="#fff"/>
        </g>
      </g>
      <text id="_10" data-name="10" transform="translate(20740.615 -8193.608)" fill="#161615" font-size="21" font-family="Roboto-Medium, Roboto" font-weight="500"><tspan x="0" y="0">10</tspan></text>
      <g id="Grupo_1072462" data-name="Grupo 1072462" transform="translate(20446.641 -8309.708)">
        <g id="Grupo_1072461" data-name="Grupo 1072461" clip-path="url(#clip-path-5)">
          <path id="Trazado_817538" data-name="Trazado 817538" d="M94.322,26.507A26.506,26.506,0,1,1,67.814,0,26.508,26.508,0,0,1,94.322,26.507" transform="translate(40.935)" fill="#fff"/>
          <path id="Trazado_817539" data-name="Trazado 817539" d="M52.552,21.867l7.068,29.452,7.07-35.343Z" transform="translate(52.075 15.831)" fill="#fff"/>
        </g>
      </g>
      <text id="_15" data-name="15" transform="translate(20539.834 -8276.01)" fill="#161615" font-size="21" font-family="Roboto-Medium, Roboto" font-weight="500"><tspan x="0" y="0">15</tspan></text>
      <rect id="Rectángulo_376779" data-name="Rectángulo 376779" width="406.853" height="209.194" transform="translate(20446.641 -8309.708)" fill="none"/>
    </g>
  </g>
</svg>
