<svg xmlns="http://www.w3.org/2000/svg" xmlns:xlink="http://www.w3.org/1999/xlink" width="169" height="169" viewBox="0 0 169 169">
  <defs>
    <clipPath id="clip-path">
      <rect id="Rectángulo_377066" data-name="Rectángulo 377066" width="98.144" height="108.79" fill="none"/>
    </clipPath>
  </defs>
  <g id="Grupo_1072904" data-name="Grupo 1072904" transform="translate(-385.001 -2058)">
    <g id="Grupo_159182" data-name="Grupo 159182" transform="translate(385.001 2058)">
      <path id="Unión_12" data-name="Unión 12" d="M84.5,0A84.5,84.5,0,1,1,0,84.5,84.5,84.5,0,0,1,84.5,0Z" transform="translate(0 0)" fill="#1b3f5e"/>
    </g>
    <g id="Grupo_1072657" data-name="Grupo 1072657" transform="translate(419.284 2093.431)">
      <g id="Grupo_1072656" data-name="Grupo 1072656" clip-path="url(#clip-path)">
        <path id="Trazado_818668" data-name="Trazado 818668" d="M80.341,166.467c4.638-.815,9.258-1.53,13.506-3.633a11.413,11.413,0,0,0,1.633-.99c.82-.595.83-.926,0-1.536A11.3,11.3,0,0,0,93.61,159.2a38.392,38.392,0,0,0-9.458-2.829q-1.774-.332-3.558-.611c-.407-.064-.555-.189-.461-.641.166-.8.268-1.62.359-2.436.035-.319.165-.419.454-.37,5.041.848,10.075,1.736,14.713,4.03a12.284,12.284,0,0,1,2.38,1.634,4.4,4.4,0,0,1,1.54,3.546q0,8.331,0,16.661A4.5,4.5,0,0,1,97.83,181.9a19.09,19.09,0,0,1-6.5,3.176,62.929,62.929,0,0,1-10.521,2.277c-3.962.519-7.935,1-11.918,1.3a155.031,155.031,0,0,1-19.272.368c-3.647-.175-7.3-.312-10.934-.675a102.394,102.394,0,0,1-16.67-2.724,31.888,31.888,0,0,1-6.638-2.509,8.252,8.252,0,0,1-2.659-2.243,3.9,3.9,0,0,1-.839-2.442q-.017-8.577,0-17.155a4.241,4.241,0,0,1,1.321-3.033,13.138,13.138,0,0,1,5.038-2.992,62.054,62.054,0,0,1,11.676-2.827c.974-.155.979-.131,1.121.85.087.6.128,1.2.265,1.786.125.533-.11.653-.563.734-2.01.357-4.028.69-6.021,1.129a29.123,29.123,0,0,0-7.632,2.617,7.814,7.814,0,0,0-1.263.862c-.638.528-.655.868.008,1.344a13.546,13.546,0,0,0,2.284,1.383,42.907,42.907,0,0,0,9.71,2.759c.985.188,1.976.345,2.964.512a2.049,2.049,0,0,0,.326,0c.051-.4.078-.784.15-1.154a3.954,3.954,0,0,1,3.669-3.277.6.6,0,0,0,.585-.447c.423-1.048.854-2.092,1.313-3.125a.6.6,0,0,0-.1-.729,3.829,3.829,0,0,1,.2-5.475c.926-.984,1.884-1.939,2.849-2.885a3.855,3.855,0,0,1,5.394-.291.845.845,0,0,0,1.06.1A20.9,20.9,0,0,1,48.908,148a1.013,1.013,0,0,0,.793-.985,3.779,3.779,0,0,1,2.857-3.309,2.089,2.089,0,0,1,.59-.113c1.7-.016,3.406-.141,5.09,0a3.786,3.786,0,0,1,3.57,3.6.785.785,0,0,0,.584.728c1,.388,1.993.806,2.975,1.244a.72.72,0,0,0,.842-.1c2-1.547,3.833-1.425,5.6.363q1.369,1.382,2.713,2.789a3.773,3.773,0,0,1,.215,5.416.871.871,0,0,0-.115.718c.4,1.074.873,2.123,1.285,3.193.173.451.545.458.893.478a3.82,3.82,0,0,1,3.371,3.176c.067.392.1.79.166,1.262m15.727-.847c-.922.413-1.739.819-2.584,1.152a52.941,52.941,0,0,1-12.681,3.05c-4.684.606-9.389,1.111-14.1,1.446a169.272,169.272,0,0,1-23.595-.081c-4.41-.3-8.8-.741-13.162-1.456A62.379,62.379,0,0,1,19.1,167.184c-1.245-.443-2.449-1-3.709-1.526v.533c0,4.019.012,8.038-.013,12.057a1.364,1.364,0,0,0,.675,1.332,26.464,26.464,0,0,0,2.871,1.45,54.588,54.588,0,0,0,10.427,2.632,128.208,128.208,0,0,0,17.2,1.749,191.711,191.711,0,0,0,19.936-.069,135.062,135.062,0,0,0,14.479-1.479,58.453,58.453,0,0,0,11-2.622,31.153,31.153,0,0,0,3.212-1.507,1.627,1.627,0,0,0,.917-1.645c-.041-3.927-.018-7.855-.018-11.782v-.685M39.082,155.04c.122.172.232.338.353.5a3.926,3.926,0,0,1,.44,4.457,27.158,27.158,0,0,0-1.133,2.724,3.911,3.911,0,0,1-3.545,2.736c-.391.037-.576.146-.521.556a2.025,2.025,0,0,1,0,.492c-.041.355.111.466.46.5,2.161.189,4.321.4,6.434.6,1.387-8.28,5.881-13.175,14.59-13.543,8.181.817,12.434,5.619,13.734,13.545l6.856-.633v-1.41a3.119,3.119,0,0,0-.378-.08,4.044,4.044,0,0,1-3.713-2.919,27.52,27.52,0,0,0-1.1-2.619,3.782,3.782,0,0,1,.047-3.764c.238-.405.523-.783.787-1.176l-3.575-3.582c-.289.209-.561.423-.851.611a3.813,3.813,0,0,1-3.85.322c-1.032-.46-2.079-.885-3.127-1.306a3.9,3.9,0,0,1-2.627-3.57c-.029-.377-.2-.443-.522-.44-1.3.012-2.594,0-3.891,0h-.756c-.036.189-.07.311-.081.436a3.951,3.951,0,0,1-2.888,3.664,11.631,11.631,0,0,0-2.022.826,4.3,4.3,0,0,1-5.487-.52c-.012-.01-.035-.007-.023-.005l-3.609,3.6m16.607,13.1v-.048c.146,0,.292,0,.438,0,3.2-.077,6.39-.162,9.586-.225.465-.009.616-.178.535-.622-.105-.573-.15-1.16-.291-1.724a10.513,10.513,0,0,0-16.785-5.638,10.207,10.207,0,0,0-3.968,7.407c-.026.346-.012.578.461.588,3.341.072,6.682.172,10.023.262" transform="translate(-6.651 -80.385)" fill="#161615"/>
        <path id="Trazado_818669" data-name="Trazado 818669" d="M141.052,8.781q0,3.286,0,6.573a1.952,1.952,0,0,1-2.2,2.194q-6.573.006-13.146,0a1.962,1.962,0,0,1-2.2-2.2q0-6.573,0-13.146a1.953,1.953,0,0,1,2.2-2.194q6.6-.007,13.2,0a1.941,1.941,0,0,1,2.138,2.143c.006,2.209,0,4.419,0,6.628M137.505,3.56H127.05V14.015h10.455Z" transform="translate(-69.175 -0.003)" fill="#161615"/>
        <path id="Trazado_818670" data-name="Trazado 818670" d="M67.2,17.545c-1.205,0-2.411-.008-3.616,0a2.142,2.142,0,0,1-2.035-1.134Q59.629,13.065,57.7,9.726a1.763,1.763,0,0,1-.016-1.872Q59.662,4.415,61.651.983A1.951,1.951,0,0,1,63.442.01q3.781-.02,7.562,0a1.976,1.976,0,0,1,1.806,1.04Q74.745,4.421,76.7,7.78a1.87,1.87,0,0,1-.01,2.019q-1.92,3.314-3.824,6.638a2.13,2.13,0,0,1-2,1.109c-1.223,0-2.447,0-3.671,0M67.2,3.513c-.894,0-1.789-.021-2.682.015a.826.826,0,0,0-.589.335Q62.59,6.15,61.315,8.475a.726.726,0,0,0-.011.6q1.292,2.347,2.643,4.661a.707.707,0,0,0,.516.288q2.764.031,5.53,0a.645.645,0,0,0,.468-.267q1.39-2.354,2.732-4.737a.58.58,0,0,0,0-.485c-.878-1.555-1.781-3.1-2.661-4.65a.633.633,0,0,0-.642-.381c-.894.021-1.788.007-2.683.007" transform="translate(-32.159 0)" fill="#161615"/>
        <path id="Trazado_818671" data-name="Trazado 818671" d="M15.829,67.851h3.509v.613c0,4.475.011,8.949-.014,13.424a.99.99,0,0,0,.659,1.033q7.238,3.565,14.456,7.168c.49.244.964.517,1.443.781a1.779,1.779,0,0,1,.981,1.605c.021,2.866.009,5.731.009,8.637h-3.5v-.582c0-2.155-.017-4.31.013-6.465a.869.869,0,0,0-.584-.932c-5.014-2.489-9.991-5.053-15.029-7.49A3.041,3.041,0,0,1,15.8,82.457c.084-4.638.03-9.278.03-13.917Z" transform="translate(-8.848 -38.001)" fill="#fff"/>
        <path id="Trazado_818672" data-name="Trazado 818672" d="M176.927,67.844h3.509v.662c0,4.805-.022,9.611.015,14.416a2.491,2.491,0,0,1-1.53,2.516c-5.187,2.556-10.355,5.15-15.538,7.714a.737.737,0,0,0-.5.776c.023,2.192.011,4.385.011,6.577v.615h-3.509V100.6c0-2.576.011-5.152-.006-7.729a2.191,2.191,0,0,1,1.324-2.183c5.262-2.609,10.508-5.248,15.768-7.86a.7.7,0,0,0,.461-.743q-.018-6.769-.008-13.539v-.7" transform="translate(-89.265 -37.997)" fill="#fff"/>
        <path id="Trazado_818673" data-name="Trazado 818673" d="M8.791.061a8.623,8.623,0,0,1,8.678,8.792A8.593,8.593,0,0,1,8.53,17.548c-4.656,0-8.551-3.616-8.53-8.98A8.6,8.6,0,0,1,8.791.061M8.762,14.075a5.176,5.176,0,0,0,5.223-5.318A5.428,5.428,0,0,0,8.768,3.526,5.366,5.366,0,0,0,3.46,8.8a5.348,5.348,0,0,0,5.3,5.28" transform="translate(0 -0.034)" fill="#161615"/>
        <path id="Trazado_818674" data-name="Trazado 818674" d="M192.131,17.672c-2.154,0-4.308.015-6.462-.013a3.168,3.168,0,0,1-1.315-.284,1.652,1.652,0,0,1-.652-2.354c.834-1.762,1.7-3.512,2.571-5.255q2.05-4.078,4.14-8.136A3.348,3.348,0,0,1,191.1.658a1.752,1.752,0,0,1,2.771.7q1.542,3.05,3.065,6.109c1.144,2.3,2.276,4.608,3.413,6.913.056.115.1.236.167.345,1.063,1.774-.257,3-1.868,2.96-2.171-.048-4.344-.012-6.517-.012m-4.145-3.543h8.362l-4.161-8.3-4.2,8.3" transform="translate(-102.757 -0.126)" fill="#161615"/>
        <path id="Trazado_818675" data-name="Trazado 818675" d="M134.029,67.855v.573c0,3.709-.015,7.418.009,11.127a2.269,2.269,0,0,1-1.355,2.286c-1.724.833-3.428,1.709-5.156,2.533a.763.763,0,0,0-.526.814c.021,3.343.011,6.687.011,10.031v.635H123.53c-.008-.18-.024-.357-.024-.534,0-3.728.01-7.455-.008-11.182a2.211,2.211,0,0,1,1.345-2.228c1.76-.842,3.491-1.744,5.246-2.6a.662.662,0,0,0,.441-.7c-.015-3.38-.009-6.76-.009-10.14v-.617Z" transform="translate(-69.167 -38.003)" fill="#fff"/>
        <path id="Trazado_818676" data-name="Trazado 818676" d="M75.661,67.817H79.17v.58c0,3.361.008,6.721-.01,10.081a.806.806,0,0,0,.518.843c1.688.822,3.351,1.7,5.049,2.495A2.376,2.376,0,0,1,86.2,84.248c-.036,3.652-.013,7.305-.013,10.957v.63H82.677v-.6c0-3.36,0-6.72.006-10.081a.672.672,0,0,0-.441-.741c-1.773-.849-3.513-1.769-5.277-2.64a2.2,2.2,0,0,1-1.311-2.2c.019-3.725.007-7.451.007-11.177v-.586" transform="translate(-42.371 -37.982)" fill="#fff"/>
        <rect id="Rectángulo_377061" data-name="Rectángulo 377061" width="3.44" height="3.441" transform="translate(7.02 22.832)" fill="#fff"/>
        <rect id="Rectángulo_377062" data-name="Rectángulo 377062" width="3.421" height="3.46" transform="translate(33.336 22.819)" fill="#fff"/>
        <rect id="Rectángulo_377063" data-name="Rectángulo 377063" width="3.46" height="3.421" transform="translate(61.391 22.853)" fill="#fff"/>
        <rect id="Rectángulo_377064" data-name="Rectángulo 377064" width="3.43" height="3.459" transform="translate(87.697 22.837)" fill="#fff"/>
        <path id="Trazado_818677" data-name="Trazado 818677" d="M100.521,193.746v.685c0,3.927-.022,7.855.019,11.782a1.628,1.628,0,0,1-.918,1.645,31.016,31.016,0,0,1-3.212,1.507,58.419,58.419,0,0,1-11,2.622,134.933,134.933,0,0,1-14.479,1.479,191.825,191.825,0,0,1-19.936.07,128.2,128.2,0,0,1-17.2-1.75,54.582,54.582,0,0,1-10.428-2.632,26.5,26.5,0,0,1-2.871-1.449,1.365,1.365,0,0,1-.675-1.332c.025-4.019.013-8.038.013-12.057v-.533c1.26.523,2.464,1.084,3.71,1.526A62.378,62.378,0,0,0,34.4,197.857c4.362.716,8.752,1.153,13.162,1.456a169.215,169.215,0,0,0,23.595.081c4.711-.334,9.416-.839,14.1-1.446A52.943,52.943,0,0,0,97.937,194.9c.846-.333,1.662-.739,2.584-1.152" transform="translate(-11.104 -108.511)" fill="#80af12"/>
        <path id="Trazado_818678" data-name="Trazado 818678" d="M68.1,159.511l3.609-3.6c-.012,0,.011,0,.023.006a4.3,4.3,0,0,0,5.487.519,11.583,11.583,0,0,1,2.022-.826,3.951,3.951,0,0,0,2.887-3.664c.011-.125.045-.247.081-.436h.756c1.3,0,2.594.007,3.891-.005.326,0,.493.063.522.44A3.9,3.9,0,0,0,90,155.52c1.048.42,2.1.846,3.127,1.306a3.814,3.814,0,0,0,3.85-.322c.29-.188.562-.4.851-.611l3.575,3.582c-.265.393-.549.771-.787,1.176a3.782,3.782,0,0,0-.047,3.764,27.466,27.466,0,0,1,1.1,2.619,4.044,4.044,0,0,0,3.713,2.918,3.206,3.206,0,0,1,.378.08v1.41l-6.856.633c-1.3-7.926-5.553-12.727-13.734-13.545-8.71.367-13.2,5.262-14.591,13.542-2.113-.2-4.273-.414-6.434-.6-.35-.03-.5-.142-.461-.5a2.007,2.007,0,0,0,0-.493c-.055-.41.13-.519.521-.556a3.911,3.911,0,0,0,3.545-2.736,26.979,26.979,0,0,1,1.134-2.724,3.926,3.926,0,0,0-.441-4.458c-.121-.159-.231-.325-.353-.5" transform="translate(-35.666 -84.856)" fill="#80418c"/>
        <rect id="Rectángulo_377065" data-name="Rectángulo 377065" width="10.455" height="10.455" transform="translate(57.875 3.557)" fill="#80af12"/>
        <path id="Trazado_818679" data-name="Trazado 818679" d="M72.071,7.977c.894,0,1.789.014,2.683-.007a.633.633,0,0,1,.642.38c.879,1.554,1.783,3.1,2.661,4.651a.579.579,0,0,1,0,.484q-1.344,2.382-2.732,4.737a.644.644,0,0,1-.468.266q-2.765.028-5.529,0a.707.707,0,0,1-.516-.288q-1.35-2.314-2.643-4.661a.725.725,0,0,1,.011-.6q1.28-2.322,2.617-4.612a.825.825,0,0,1,.589-.335c.893-.037,1.788-.015,2.682-.016" transform="translate(-37.028 -4.463)" fill="#80af12"/>
        <path id="Trazado_818680" data-name="Trazado 818680" d="M13.166,18.485a5.348,5.348,0,0,1-5.3-5.28,5.366,5.366,0,0,1,5.308-5.27,5.428,5.428,0,0,1,5.217,5.231,5.176,5.176,0,0,1-5.223,5.318" transform="translate(-4.404 -4.444)" fill="#80af12"/>
        <path id="Trazado_818681" data-name="Trazado 818681" d="M193.734,21.262l4.2-8.3,4.161,8.3Z" transform="translate(-108.504 -7.26)" fill="#80af12"/>
      </g>
    </g>
  </g>
</svg>
