<svg xmlns="http://www.w3.org/2000/svg" xmlns:xlink="http://www.w3.org/1999/xlink" width="169" height="169" viewBox="0 0 169 169">
  <defs>
    <clipPath id="clip-path">
      <rect id="Rect치ngulo_377067" data-name="Rect치ngulo 377067" width="94.241" height="91.782" fill="none"/>
    </clipPath>
  </defs>
  <g id="Grupo_1072905" data-name="Grupo 1072905" transform="translate(-385.001 -2058)">
    <g id="Grupo_159182" data-name="Grupo 159182" transform="translate(385.001 2058)">
      <path id="Uni칩n_12" data-name="Uni칩n 12" d="M84.5,0A84.5,84.5,0,1,1,0,84.5,84.5,84.5,0,0,1,84.5,0Z" transform="translate(0 0)" fill="#1b3f5e"/>
    </g>
    <g id="Grupo_1072659" data-name="Grupo 1072659" transform="translate(421.4 2095.654)">
      <g id="Grupo_1072658" data-name="Grupo 1072658" clip-path="url(#clip-path)">
        <path id="Trazado_818682" data-name="Trazado 818682" d="M91.736,25.071a3.16,3.16,0,0,0-.056,1.117,3.105,3.105,0,0,1-1.571,2.887.53.53,0,0,0-.3.549c.094,7.825.028,15.65.042,23.475,0,.6,0,1.212-.049,1.813a1.845,1.845,0,0,0,.454,1.327,17.5,17.5,0,0,1,1.919,3.44,16.769,16.769,0,0,1,1.115,3.013,19.839,19.839,0,0,1,.848,4.43c0,.322.08.643.092.965a22.914,22.914,0,0,1-1.29,8.3,22.632,22.632,0,0,1-3.93,7.008,23.043,23.043,0,0,1-6.574,5.493,22.13,22.13,0,0,1-6.682,2.457,17.47,17.47,0,0,1-3.223.329c-22.067.216-44.133.019-66.2.11A4.808,4.808,0,0,1,3.794,91.3a3.306,3.306,0,0,1-1.807-2.948q-.022-29.274-.01-58.547a.76.76,0,0,0-.379-.744A3.376,3.376,0,0,1,.006,26.125C0,21.361.005,16.6,0,11.832a3.733,3.733,0,0,1,.764-2.39A3.628,3.628,0,0,1,3.709,8.059c.7-.009,1.408-.009,2.112.009.258.006.374-.026.372-.336-.011-1.572.027-3.143.007-4.715A3.053,3.053,0,0,1,9.728.068,2.793,2.793,0,0,1,11.8,1.6a2.545,2.545,0,0,1,.283,2.148c-.067.147.134.337.128.55-.024.827-.034,1.654-.076,2.481-.018.353.089.728.078,1.1-.006.187.151.185.282.185.524,0,1.048-.015,1.572,0,.324.011.277-.2.278-.39.007-1.457.022-2.914.016-4.372A3.314,3.314,0,0,1,15.575.646,3.608,3.608,0,0,1,18.755.411,3.061,3.061,0,0,1,20.43,3.387c.043,1.423.018,2.849,0,4.273,0,.305.054.436.395.41a11.614,11.614,0,0,1,1.325,0c.269.011.369-.067.367-.356q-.017-2.185.005-4.371A3.219,3.219,0,0,1,23.713.719a2.821,2.821,0,0,1,2.56-.613,2.953,2.953,0,0,1,2.3,2.875c.025,1.44.016,2.881,0,4.322-.006.765-.023.758.729.758q15.916,0,31.831,0a4.424,4.424,0,0,1,1.43-.007c.389.123.527-.112.483-.478,0-.1,0-.208,0-.313,0-1.113.049-2.228-.008-3.339a4.489,4.489,0,0,1,.22-1.881A2.813,2.813,0,0,1,65.488.117a2.993,2.993,0,0,1,3.1,1.227,3.1,3.1,0,0,1,.491,1.791c.035,1.489.029,2.979.02,4.469,0,.353.085.5.468.468a7.768,7.768,0,0,1,1.227,0c.347.024.446-.1.443-.442q-.021-2.308,0-4.616a3,3,0,0,1,6.008-.032c.014,1.538.044,3.077.036,4.615,0,.393.112.514.5.479A7.494,7.494,0,0,1,79,8.069c.339.025.4-.109.395-.414-.015-1.506.013-3.012-.013-4.518A3.106,3.106,0,0,1,81.431.217,2.934,2.934,0,0,1,85.39,2.809a44.253,44.253,0,0,1,.063,4.76c0,.492.2.509.58.494a15.445,15.445,0,0,1,2.106.02c.269.026.545.032.813.074a3.17,3.17,0,0,1,2.513,2.184,5.322,5.322,0,0,1,.284,2.033c-.013,4.092-.01,8.184-.013,12.276-.227.14-.193.28,0,.421M48.786,54.377c.06.443-.009.954.561,1.139a2.124,2.124,0,0,0,.891.177,20.839,20.839,0,0,1,2.247-.018.689.689,0,0,0,.586-.181c.6-.733,1.187-1.473,1.779-2.21l0,0a19.964,19.964,0,0,0,0-2.691c-.031-.745-.243-.969-.977-.979-1.387-.02-2.775-.018-4.163-.007-.605,0-.848.252-.886.854-.082,1.3-.056,2.61-.024,3.916ZM87.8,53c.185-.108.116-.269.116-.407q.008-11.1.019-22.2c0-.6-.084-.727-.718-.727Q46,29.68,4.786,29.674a4.735,4.735,0,0,1-.491,0c-.268-.029-.376.051-.358.345.03.49.021.982.021,1.473q0,16.578,0,33.156,0,11.787-.009,23.574a1.6,1.6,0,0,0,1.575,1.587q27.829-.033,55.659-.015h.662A23.24,23.24,0,0,1,49.72,75.73a22.431,22.431,0,0,1,1.962-18.155c-.792,0-1.528.054-2.253-.013a2.766,2.766,0,0,1-2.345-1.536,3.672,3.672,0,0,1-.328-1.87c.04-1.227,0-2.456.02-3.684a2.675,2.675,0,0,1,.969-2.188,2.707,2.707,0,0,1,1.536-.68,37.461,37.461,0,0,1,4.983.048,2.721,2.721,0,0,1,2.454,2.2c.129.529,0,1.062.126,1.628a22.25,22.25,0,0,1,15.68-5.274A22.63,22.63,0,0,1,87.8,53M45.745,10.025q-8.3,0-16.6-.008c-.423,0-.564.114-.563.554a47.173,47.173,0,0,1-.073,4.751,3.017,3.017,0,0,1-1.644,2.507,2.742,2.742,0,0,1-2.924-.149,3.445,3.445,0,0,1-1.523-2.97c-.05-1.062,0-2.128-.016-3.192-.009-.483.227-1.117-.105-1.409s-.941-.053-1.428-.09c-.351-.027-.438.114-.434.45.017,1.44,0,2.881.011,4.322a4.027,4.027,0,0,1-.11.968,3.031,3.031,0,0,1-3.965,2.228,3.083,3.083,0,0,1-2.008-2.872c-.027-1.522-.02-3.045-.008-4.567,0-.369-.1-.552-.5-.524-.375.026-.753.01-1.129.008-.34,0-.481.121-.475.5.023,1.342.017,2.685,0,4.027a4.512,4.512,0,0,1-.15,1.4,3.107,3.107,0,0,1-2.631,2.192,2.968,2.968,0,0,1-2.869-1.536,3.768,3.768,0,0,1-.477-2.075c0-1.342-.008-2.685-.005-4.027,0-.274-.022-.49-.379-.485C5,10.038,4.258,10,3.524,10.048a1.52,1.52,0,0,0-1.556,1.694V24.119c0,.729,0,1.458,0,2.188a1.543,1.543,0,0,0,1.075,1.3,9.49,9.49,0,0,0,1.993.092q34.538,0,69.077,0H86.641a1.657,1.657,0,0,1,.343.006,5.175,5.175,0,0,0,1.631-.052c.762-.079,1.2-.688,1.2-1.6q.025-4.961.021-9.921c0-1.539,0-3.078-.031-4.616a1.388,1.388,0,0,0-1.3-1.409,22.342,22.342,0,0,0-2.5-.093c-.44-.022-.555.147-.548.572a44.7,44.7,0,0,1-.079,4.832,3,3,0,0,1-5.988-.272c-.015-1.522-.022-3.045,0-4.567.006-.438-.14-.587-.564-.559a9.223,9.223,0,0,1-1.129,0c-.37-.02-.47.133-.466.493.016,1.555.022,3.111-.006,4.665a3.056,3.056,0,0,1-3.022,3,3.1,3.1,0,0,1-3.041-3.057c-.088-1.55-.032-3.109-.018-4.665,0-.342-.093-.468-.442-.439a6.9,6.9,0,0,1-1.079,0c-.364-.027-.487.1-.482.468.019,1.359.013,2.718.011,4.076a3.884,3.884,0,0,1-.765,2.427,2.934,2.934,0,0,1-3.324,1,3.431,3.431,0,0,1-2.123-2.97c.043-1.536.022-3.073.034-4.609,0-.272-.116-.387-.382-.384-.327,0-.655-.009-.982-.009H45.745M71.936,89.67c.628-.063,1.61-.012,2.6-.177a19.382,19.382,0,0,0,4.714-1.223c8.044-3.555,12.412-9.725,12.964-18.518a20.335,20.335,0,0,0-5.766-15.2,20.119,20.119,0,0,0-10.086-5.736,17.24,17.24,0,0,0-4.377-.54c-.844.023-1.688.027-2.533.07a19.973,19.973,0,0,0-2.708.414A18.225,18.225,0,0,0,61.96,50.49a19.34,19.34,0,0,0-5,3.591,20.819,20.819,0,0,0-3.5,4.47,20.11,20.11,0,0,0-2.708,8.926,21.277,21.277,0,0,0,.417,5.992,20.892,20.892,0,0,0,20.763,16.2M18.375,3.469c0-.115,0-.229,0-.343-.023-.716-.364-1.058-1.052-1.059s-.983.312-1.01,1.031c-.006.147-.006.295-.005.442q0,4.908.006,9.815c0,.572,0,1.146.018,1.717a1.052,1.052,0,0,0,1.151,1.05c.632-.045.9-.413.878-1.274-.095-3.793.164-7.586.015-11.379m6.112,5.69h.048q0,2.26,0,4.519c0,.524-.008,1.049.028,1.571a.93.93,0,0,0,1.212.868c.6-.155.767-.375.77-1.063.01-2.438-.022-4.877.074-7.315.057-1.439.018-2.881,0-4.322a1.429,1.429,0,0,0-.3-1.086,1.124,1.124,0,0,0-1.234-.2c-.518.178-.594.662-.6,1.134-.008,1.965,0,3.929,0,5.894M10.218,9.125c0-1.963,0-3.927,0-5.89a1.029,1.029,0,0,0-.993-1.18,1.017,1.017,0,0,0-1.08,1.123c-.051,3.845.086,7.689.058,11.534a4.624,4.624,0,0,0,.069.732.5.5,0,0,0,.2.373,1.06,1.06,0,0,0,1.11.209,1.046,1.046,0,0,0,.642-1.059q0-2.92,0-5.841M73.2,9.016h0q0,2.749,0,5.5a5.177,5.177,0,0,0,.031.734.918.918,0,0,0,.893.856.942.942,0,0,0,1.033-.838,4.14,4.14,0,0,0,.062-.683q.031-5.447.048-10.894a2.787,2.787,0,0,0-.077-.868.918.918,0,0,0-1.15-.753.923.923,0,0,0-.836.962c-.009,2,0,3.991,0,5.986M67.091,5.261a15.7,15.7,0,0,0-.073-2.384c-.164-.68-.37-.846-1.126-.809-.517.025-.8.325-.862.932a5.912,5.912,0,0,0-.039.636q.025,5.421.056,10.841a6.42,6.42,0,0,0,.017.686,1.018,1.018,0,0,0,.942.959c.674.039,1.035-.3,1.035-1.051,0-2.214-.04-4.428-.023-6.642.008-1.056.132-2.11.074-3.169M81.368,9.042h-.005c0,1.98-.006,3.96,0,5.94a1.01,1.01,0,0,0,1.35,1.025.936.936,0,0,0,.608-.962c.039-2.073-.077-4.146.081-6.221.145-1.894.023-3.795.008-5.692a.956.956,0,0,0-1.058-1.064.968.968,0,0,0-.983,1.083c-.009,1.963,0,3.927,0,5.891" transform="translate(0 0)" fill="#1a1718"/>
        <path id="Trazado_818683" data-name="Trazado 818683" d="M232.439,62.943c-.193-.141-.227-.282,0-.421v.421" transform="translate(-140.703 -37.872)" fill="#e02d35"/>
        <path id="Trazado_818684" data-name="Trazado 818684" d="M159.642,18.381c0,.1,0,.209,0,.313-.183.087-.105-.125-.182-.159.082-.025-.011-.252.178-.154" transform="translate(-96.594 -11.12)" fill="#e02d35"/>
        <path id="Trazado_818685" data-name="Trazado 818685" d="M93.848,98.584a22.629,22.629,0,0,0-15.277-6.8A22.25,22.25,0,0,0,62.89,97.06c-.129-.566,0-1.1-.126-1.628a2.72,2.72,0,0,0-2.454-2.2,37.526,37.526,0,0,0-4.983-.048,2.706,2.706,0,0,0-1.536.68,2.673,2.673,0,0,0-.969,2.188c-.024,1.227.02,2.457-.021,3.684a3.676,3.676,0,0,0,.328,1.87,2.767,2.767,0,0,0,2.345,1.536c.725.068,1.461.013,2.253.013a22.429,22.429,0,0,0-1.962,18.155,23.239,23.239,0,0,0,12.122,14.062h-.662q-27.83,0-55.66.015A1.6,1.6,0,0,1,9.992,133.8q-.009-11.787.009-23.574,0-16.578,0-33.156c0-.491.009-.983-.021-1.473-.018-.294.09-.374.358-.345a4.63,4.63,0,0,0,.491,0q41.217,0,82.433-.007c.634,0,.719.127.718.727q-.02,11.1-.019,22.2c0,.138.069.3-.116.407m-73.4,18.687a6.832,6.832,0,0,0-1.818.186,2.7,2.7,0,0,0-1.771,1.895,5.14,5.14,0,0,0-.128,1.787c.058,1.175.015,2.355.041,3.533a2.782,2.782,0,0,0,2.077,2.461,25.671,25.671,0,0,0,5.043.125,2.763,2.763,0,0,0,2.819-2.763c.115-1.486.05-2.976.026-4.465a2.184,2.184,0,0,0-.1-.628,2.774,2.774,0,0,0-2.807-2.111c-1.125-.068-2.258-.018-3.387-.021l-.006-.074c0,.024.007.049.011.074M81.984,81.153c-.834,0-1.669-.013-2.5.009-.233.006-.46.147-.7.173a2.953,2.953,0,0,0-1.812,2.3c.05,1.373.028,2.75-.013,4.124a2.675,2.675,0,0,0,.02,1.033c.622,1.786,1.213,2.168,2.742,2.342a34.17,34.17,0,0,0,4.361,0,2.77,2.77,0,0,0,.814-.151c1.564-.523,2.024-1.568,2.092-3.1a22.648,22.648,0,0,0-.075-4.253,2.752,2.752,0,0,0-2.061-2.393,11.4,11.4,0,0,0-2.869-.089M64.99,86.078c0,.851-.043,1.7.01,2.551a2.848,2.848,0,0,0,2.87,2.486c1.553-.02,3.108.091,4.661-.05a2.547,2.547,0,0,0,1.133-.457,2.856,2.856,0,0,0,1.246-2.541,25.388,25.388,0,0,0-.08-4.593,2.59,2.59,0,0,0-1.743-2.133,6.475,6.475,0,0,0-2.453-.23,18.627,18.627,0,0,0-3.652.147,2.378,2.378,0,0,0-1.876,1.792,11.942,11.942,0,0,0-.116,3.028M16.769,98.141h-.008c0,.72.042,1.442-.009,2.158a2.907,2.907,0,0,0,2.83,2.866c1.374-.015,2.748-.007,4.121.006a2.872,2.872,0,0,0,3.035-2.978c.044-1.339.036-2.681.019-4.022a3.123,3.123,0,0,0-.6-1.859,2.762,2.762,0,0,0-2.135-1.105c-1.437-.1-2.879-.08-4.316-.037a2.838,2.838,0,0,0-2.91,2.376,17.683,17.683,0,0,0-.023,2.6M28.8,98.074h.013q0,1.2,0,2.4a2.772,2.772,0,0,0,2.762,2.678c1.373.028,2.748-.006,4.121.015a2.856,2.856,0,0,0,3.065-3.04c.029-1.226.036-2.454,0-3.679a3.674,3.674,0,0,0-.49-2.023,2.933,2.933,0,0,0-2.511-1.264c-1.291-.032-2.584-.021-3.876-.007A2.92,2.92,0,0,0,28.8,96.308c.025.588,0,1.177,0,1.766m16.71,5.1c.865,0,1.487.006,2.108,0A3.845,3.845,0,0,0,48.9,103a2.838,2.838,0,0,0,1.934-2.869,30.149,30.149,0,0,0-.072-4.445,2.711,2.711,0,0,0-2.529-2.471,34.7,34.7,0,0,0-4.413-.037A2.771,2.771,0,0,0,40.88,95.9a32.409,32.409,0,0,0,.044,4.949,2.833,2.833,0,0,0,1.962,2.205,15.7,15.7,0,0,0,2.626.117M57.941,81.141c-.769,0-1.539-.029-2.306.006a2.8,2.8,0,0,0-2.811,2.939c-.026,1.407-.031,2.815,0,4.221A2.875,2.875,0,0,0,55.33,91.07a33.888,33.888,0,0,0,4.658.058,2.827,2.827,0,0,0,2.857-2.874,41.946,41.946,0,0,0-.008-4.414,2.763,2.763,0,0,0-2.206-2.621,13.815,13.815,0,0,0-2.69-.078m-12.189,34.1v-.021c.736,0,1.474.021,2.21-.006a2.819,2.819,0,0,0,2.217-1.089,3.147,3.147,0,0,0,.593-1.8,23.678,23.678,0,0,0-.012-4.722,2.538,2.538,0,0,0-2.149-2.282,21.133,21.133,0,0,0-5.648.023,2.642,2.642,0,0,0-2.108,2.549c-.043,1.275-.018,2.553-.01,3.829a4.508,4.508,0,0,0,.088,1.395,3.093,3.093,0,0,0,2.515,2.115c.767.037,1.537.007,2.306.007m-.044,11.994c0,.021,0,.041,0,.061.425,0,.85,0,1.275,0,.278,0,.556-.017.833-.024,2.1-.054,2.961-1.428,3.031-3.2.048-1.208.057-2.423-.011-3.629a2.885,2.885,0,0,0-2.737-3.149c-1.39-.059-2.78-.031-4.169-.012a5.085,5.085,0,0,0-1.052.128,2.584,2.584,0,0,0-2,2.175c-.079,1.624-.028,3.254-.021,4.882a2.524,2.524,0,0,0,.358,1.346,2.715,2.715,0,0,0,2.283,1.416c.733.036,1.47.007,2.205.007m.055-46.091c-.736,0-1.473-.022-2.208,0a2.8,2.8,0,0,0-2.617,2.177,30.671,30.671,0,0,0-.016,5.389,2.725,2.725,0,0,0,2.426,2.361c1.4.151,2.812.053,4.218.071a2.94,2.94,0,0,0,3.272-3.116,28.643,28.643,0,0,0-.071-4.493A2.722,2.722,0,0,0,48.9,81.323a11.105,11.105,0,0,0-3.141-.182m-24.1,34.1c.736,0,1.475.048,2.206-.011a2.79,2.79,0,0,0,2.622-1.819,5.126,5.126,0,0,0,.211-1.383,32.865,32.865,0,0,0,.026-3.916,2.669,2.669,0,0,0-2.676-2.884,31.912,31.912,0,0,0-5.084.078,2.85,2.85,0,0,0-2.209,2.527c0,1.325,0,2.649-.021,3.974a3.163,3.163,0,0,0,.405,2.029,2.934,2.934,0,0,0,2.36,1.4c.718.026,1.439.005,2.158,0m7.157,6.861h.007c0,.883-.062,1.771.015,2.647a2.652,2.652,0,0,0,1.8,2.329,4.688,4.688,0,0,0,1.73.186c1.1.019,2.192.017,3.287.007a2.876,2.876,0,0,0,3.095-3.111c.043-1.307.036-2.618,0-3.926a2.838,2.838,0,0,0-1.158-2.385,3.052,3.052,0,0,0-1.765-.562c-1.341-.026-2.683.017-4.024-.02a3.172,3.172,0,0,0-1.829.468,2.49,2.49,0,0,0-1.167,2.159q0,1.1,0,2.208m4.733-6.872v0c.7,0,1.408.018,2.111,0a2.915,2.915,0,0,0,3.091-3.055c.067-1.273.031-2.552.012-3.828a4.356,4.356,0,0,0-.177-1.189,2.716,2.716,0,0,0-2.63-1.944c-1.422-.036-2.847-.01-4.271.015a2.827,2.827,0,0,0-2.886,2.908c0,1.031.047,2.066-.033,3.09a5.635,5.635,0,0,0,.27,2.341,3.215,3.215,0,0,0,2.214,1.665c.766.012,1.533,0,2.3,0" transform="translate(-6.046 -45.579)" fill="#f6f8fa"/>
        <path id="Trazado_818686" data-name="Trazado 818686" d="M48.768,25.341H64.634c.327,0,.655.013.982.009.267,0,.385.112.382.384-.013,1.536.008,3.074-.034,4.609a3.431,3.431,0,0,0,2.123,2.97,2.934,2.934,0,0,0,3.324-1,3.883,3.883,0,0,0,.765-2.427c0-1.359.008-2.718-.011-4.076-.006-.37.118-.495.482-.468a6.9,6.9,0,0,0,1.079,0c.349-.029.446.1.442.439-.014,1.555-.07,3.115.018,4.665A3.1,3.1,0,0,0,77.229,33.5a3.056,3.056,0,0,0,3.022-3c.028-1.555.021-3.111.006-4.666,0-.36.1-.513.466-.493a9.224,9.224,0,0,0,1.129,0c.424-.029.57.121.564.559-.022,1.522-.015,3.045,0,4.567a3,3,0,0,0,5.988.272,44.7,44.7,0,0,0,.079-4.832c-.007-.425.109-.593.548-.572a22.343,22.343,0,0,1,2.5.093,1.388,1.388,0,0,1,1.3,1.409c.028,1.538.032,3.077.031,4.616q0,4.961-.021,9.921c0,.908-.438,1.517-1.2,1.6a5.176,5.176,0,0,1-1.631.052,1.631,1.631,0,0,0-.343-.006H77.138q-34.539,0-69.077,0a9.464,9.464,0,0,1-1.993-.092,1.543,1.543,0,0,1-1.075-1.3c0-.729,0-1.458,0-2.188V27.059a1.52,1.52,0,0,1,1.556-1.694c.734-.048,1.473-.011,2.209-.022.358-.006.38.211.379.485,0,1.342,0,2.685.005,4.027a3.768,3.768,0,0,0,.477,2.075,2.968,2.968,0,0,0,2.869,1.536,3.107,3.107,0,0,0,2.631-2.192,4.512,4.512,0,0,0,.15-1.4c.021-1.342.027-2.685,0-4.027-.006-.378.135-.5.475-.5.377,0,.754.018,1.129-.008.4-.028.5.155.5.524-.011,1.522-.019,3.045.008,4.567A3.083,3.083,0,0,0,19.391,33.3a3.031,3.031,0,0,0,3.965-2.228,4.025,4.025,0,0,0,.11-.968c-.008-1.441.006-2.882-.011-4.322,0-.335.083-.477.434-.45.487.037,1.109-.191,1.428.09s.1.926.105,1.409c.021,1.064-.034,2.13.016,3.192A3.445,3.445,0,0,0,26.961,33a2.741,2.741,0,0,0,2.924.149,3.017,3.017,0,0,0,1.644-2.507,47.168,47.168,0,0,0,.073-4.751c0-.44.139-.556.563-.555q8.3.018,16.6.008m.192,9.821H59.226a3.455,3.455,0,0,0,.539-.019.863.863,0,0,0,.837-.856c.017-.757-.352-1.089-1.224-1.089q-10.389,0-20.779,0a2.263,2.263,0,0,0-.632.055.939.939,0,0,0-.743.87.929.929,0,0,0,.646.942,1.883,1.883,0,0,0,.773.1H48.96" transform="translate(-3.023 -15.316)" fill="#80af12"/>
        <path id="Trazado_818687" data-name="Trazado 818687" d="M149.849,163.834a20.89,20.89,0,0,1-20.763-16.2,21.248,21.248,0,0,1-.417-5.992,20.1,20.1,0,0,1,2.708-8.926,20.817,20.817,0,0,1,3.5-4.47,19.331,19.331,0,0,1,5-3.591,18.225,18.225,0,0,1,4.785-1.731,19.975,19.975,0,0,1,2.708-.414c.845-.043,1.689-.047,2.533-.07a17.238,17.238,0,0,1,4.377.54,20.119,20.119,0,0,1,10.086,5.736,20.335,20.335,0,0,1,5.766,15.2c-.551,8.793-4.92,14.963-12.964,18.518a19.383,19.383,0,0,1-4.714,1.223c-.991.165-1.973.114-2.6.177m-.278-38.628c-10.191.213-18.086,8-18.1,17.889a17.878,17.878,0,0,0,17.843,17.927,17.862,17.862,0,0,0,13.294-29.884,17.8,17.8,0,0,0-13.036-5.932" transform="translate(-77.913 -74.164)" fill="#f6f8fa"/>
        <path id="Trazado_818688" data-name="Trazado 818688" d="M129.774,129.484c-.592.737-1.182,1.477-1.779,2.21a.688.688,0,0,1-.586.181,20.943,20.943,0,0,0-2.247.018,2.131,2.131,0,0,1-.891-.177c-.57-.184-.5-.7-.561-1.139l.009,0c-.033-1.305-.059-2.611.024-3.916.038-.6.281-.849.886-.854,1.387-.011,2.775-.013,4.163.006.734.011.946.235.977.98a20.023,20.023,0,0,1,0,2.69l0,0" transform="translate(-74.924 -76.2)" fill="#f6f8fa"/>
        <path id="Trazado_818689" data-name="Trazado 818689" d="M43.429,6.648c.15,3.793-.108,7.586-.014,11.379.022.861-.246,1.229-.878,1.274a1.052,1.052,0,0,1-1.151-1.05c-.022-.572-.017-1.145-.018-1.717q-.005-4.908-.006-9.815c0-.147,0-.295.005-.442.027-.72.334-1.031,1.01-1.031s1.029.342,1.052,1.058c0,.114,0,.229,0,.343" transform="translate(-25.055 -3.178)" fill="#f6f8fa"/>
        <path id="Trazado_818690" data-name="Trazado 818690" d="M62.107,12.289c0-1.965,0-3.929,0-5.894,0-.472.079-.956.6-1.133a1.124,1.124,0,0,1,1.234.2,1.428,1.428,0,0,1,.3,1.086c.014,1.44.053,2.883,0,4.321-.1,2.439-.064,4.877-.074,7.315,0,.688-.174.907-.77,1.063a.931.931,0,0,1-1.212-.868c-.036-.522-.027-1.047-.028-1.571q0-2.26,0-4.519h-.048" transform="translate(-37.62 -3.13)" fill="#f6f8fa"/>
        <path id="Trazado_818691" data-name="Trazado 818691" d="M22.711,12.275q0,2.921,0,5.841a1.047,1.047,0,0,1-.641,1.059,1.059,1.059,0,0,1-1.11-.209.5.5,0,0,1-.2-.372,4.672,4.672,0,0,1-.069-.733c.028-3.845-.109-7.688-.058-11.534A1.017,1.017,0,0,1,21.717,5.2a1.03,1.03,0,0,1,.993,1.18q.007,2.945,0,5.89" transform="translate(-12.493 -3.149)" fill="#f6f8fa"/>
        <path id="Trazado_818692" data-name="Trazado 818692" d="M185.671,12.18c0-2-.006-3.991,0-5.986a1.007,1.007,0,0,1,1.985-.21,2.788,2.788,0,0,1,.077.868q-.013,5.447-.048,10.894a4.182,4.182,0,0,1-.062.683.943.943,0,0,1-1.033.838.918.918,0,0,1-.893-.856,5.12,5.12,0,0,1-.031-.735q0-2.748,0-5.5h0" transform="translate(-112.467 -3.163)" fill="#f6f8fa"/>
        <path id="Trazado_818693" data-name="Trazado 818693" d="M166.945,8.432c.058,1.059-.066,2.114-.074,3.169-.017,2.214.023,4.428.023,6.642,0,.748-.36,1.09-1.034,1.051a1.019,1.019,0,0,1-.943-.959,6.534,6.534,0,0,1-.017-.686q-.03-5.421-.056-10.841a5.92,5.92,0,0,1,.039-.636c.063-.607.345-.908.862-.932.757-.037.963.129,1.126.809a15.653,15.653,0,0,1,.074,2.384" transform="translate(-99.853 -3.17)" fill="#f6f8fa"/>
        <path id="Trazado_818694" data-name="Trazado 818694" d="M206.373,12.22c0-1.964-.006-3.928,0-5.891a.968.968,0,0,1,.983-1.083.956.956,0,0,1,1.058,1.064c.015,1.9.137,3.8-.008,5.692-.158,2.074-.042,4.147-.081,6.221a.936.936,0,0,1-.608.962,1.01,1.01,0,0,1-1.35-1.025c-.008-1.98,0-3.96,0-5.94h.005" transform="translate(-125.005 -3.177)" fill="#f6f8fa"/>
        <path id="Trazado_818695" data-name="Trazado 818695" d="M123.753,137.914l-.009,0,.009,0" transform="translate(-74.957 -83.541)" fill="#e02d35"/>
        <path id="Trazado_818696" data-name="Trazado 818696" d="M139.119,135.146l0,0,0,0" transform="translate(-84.268 -81.861)" fill="#e02d35"/>
        <path id="Trazado_818697" data-name="Trazado 818697" d="M184.825,90.157a11.4,11.4,0,0,1,2.869.089,2.752,2.752,0,0,1,2.061,2.393,22.682,22.682,0,0,1,.076,4.253c-.069,1.528-.528,2.573-2.092,3.1a2.757,2.757,0,0,1-.814.151,34.169,34.169,0,0,1-4.361,0c-1.529-.173-2.12-.555-2.742-2.342a2.682,2.682,0,0,1-.02-1.033c.041-1.374.062-2.751.013-4.124a2.953,2.953,0,0,1,1.812-2.3c.236-.026.462-.167.7-.173.834-.022,1.669-.009,2.5-.009m2.866,2c-1.778,0-3.458-.009-5.138.006a.762.762,0,0,0-.766.691,6.843,6.843,0,0,0-.061,1.415c0,.246.174.3.371.272a1.1,1.1,0,0,1,1.014.475c.184.207.375.408.562.613s.336.205.55-.019c.779-.815,1.6-1.6,2.38-2.407a7.1,7.1,0,0,0,1.087-1.047m.168,2.538c-1.213,1.093-2.2,2.272-3.363,3.265-.057.048-.136.108-.075.2a.186.186,0,0,0,.209.075,18.606,18.606,0,0,1,2.244-.051c.685-.02.973-.293.982-.99.011-.8,0-1.6,0-2.5m-6.095,1.719c-.019.29-.022.452-.04.612-.12,1.035.664,1.3,1.374,1.248.248-.017.293-.1.14-.3a13.961,13.961,0,0,0-1.473-1.564" transform="translate(-108.887 -54.583)" fill="#1a1718"/>
        <path id="Trazado_818698" data-name="Trazado 818698" d="M149.445,95.065a11.928,11.928,0,0,1,.116-3.028,2.377,2.377,0,0,1,1.875-1.792,18.659,18.659,0,0,1,3.652-.147,6.478,6.478,0,0,1,2.453.23,2.59,2.59,0,0,1,1.743,2.133,25.393,25.393,0,0,1,.08,4.593,2.855,2.855,0,0,1-1.246,2.541,2.554,2.554,0,0,1-1.133.457c-1.552.141-3.108.03-4.661.05a2.847,2.847,0,0,1-2.87-2.486c-.053-.847-.01-1.7-.01-2.551m7.9-2.943h-4.464c-1.341,0-1.522.183-1.539,1.521-.005.416-.105.865.549.874a.579.579,0,0,1,.335.19c.267.263.522.538.772.817.226.251.4.35.7.033.77-.822,1.592-1.6,2.374-2.406.349-.362.8-.594,1.277-1.029m.013,2.587-3.388,3.454c.855,0,1.813.007,2.771,0a.568.568,0,0,0,.6-.536c.035-.969.013-1.941.013-2.914M152.766,98.2a7.322,7.322,0,0,0-1.386-1.644c-.137,1.381.239,1.818,1.386,1.644" transform="translate(-90.501 -54.567)" fill="#1a1718"/>
        <path id="Trazado_818699" data-name="Trazado 818699" d="M27.138,125.626a17.683,17.683,0,0,1,.023-2.595,2.838,2.838,0,0,1,2.91-2.376c1.437-.043,2.878-.062,4.316.037a2.764,2.764,0,0,1,2.135,1.105,3.123,3.123,0,0,1,.6,1.859c.017,1.34.026,2.683-.019,4.022a2.872,2.872,0,0,1-3.035,2.978c-1.374-.013-2.748-.02-4.121-.006a2.907,2.907,0,0,1-2.83-2.866c.052-.716.009-1.438.009-2.158Zm7.628-2.915c-.3-.017-.554-.043-.807-.043-1.08,0-2.161.024-3.24,0-1.731-.04-1.642.258-1.626,1.761,0,.016,0,.033,0,.049-.01.253.112.373.361.326a1.061,1.061,0,0,1,1.023.451c.185.207.365.419.554.623s.346.264.592,0c.8-.843,1.639-1.647,2.452-2.477.212-.216.505-.351.691-.693m.4,2.446a.957.957,0,0,0-.561.373c-.8.8-1.588,1.6-2.4,2.392-.742.725-1.294.68-1.969-.121a9.818,9.818,0,0,0-1.207-1.227c0,.368,0,.671,0,.975,0,.865.309,1.2,1.174,1.192,1.339-.01,2.679-.042,4.018-.064.72-.011.931-.213.938-.938.009-.848,0-1.7,0-2.582" transform="translate(-16.414 -73.065)" fill="#1a1718"/>
        <path id="Trazado_818700" data-name="Trazado 818700" d="M57.708,125.574c0-.589.021-1.178,0-1.766a2.919,2.919,0,0,1,3.083-3.151c1.292-.014,2.585-.025,3.876.007a2.934,2.934,0,0,1,2.511,1.264,3.671,3.671,0,0,1,.49,2.023c.04,1.225.034,2.453,0,3.679a2.856,2.856,0,0,1-3.065,3.04c-1.374-.021-2.748.012-4.121-.015a2.772,2.772,0,0,1-2.762-2.678q0-1.2,0-2.4h-.013m7.328-2.875c-1.553,0-3.072,0-4.59,0-.25,0-.521.023-.651.261a2.918,2.918,0,0,0-.144,1.587c.013.341.4.157.6.279a3.98,3.98,0,0,1,.989.937c.254.314.447.432.8.051.8-.863,1.658-1.668,2.479-2.51.175-.179.466-.26.519-.606m.638,2.236-.134-.073c-.5.519-.99,1.042-1.491,1.556s-1.03,1.053-1.561,1.562a1.115,1.115,0,0,1-1.875-.1c-.247-.283-.5-.559-.761-.833-.094-.1-.218-.179-.3.013a1.306,1.306,0,0,0,1.111,1.7c1.373-.017,2.746-.053,4.118-.085.6-.014.859-.213.882-.806.038-.975.01-1.952.01-2.929" transform="translate(-34.952 -73.079)" fill="#1a1718"/>
        <path id="Trazado_818701" data-name="Trazado 818701" d="M92.874,130.645a15.66,15.66,0,0,1-2.626-.117,2.833,2.833,0,0,1-1.962-2.205,32.511,32.511,0,0,1-.044-4.949,2.772,2.772,0,0,1,2.945-2.724,34.781,34.781,0,0,1,4.413.037,2.711,2.711,0,0,1,2.528,2.471A30.1,30.1,0,0,1,98.2,127.6a2.837,2.837,0,0,1-1.933,2.869,3.848,3.848,0,0,1-1.285.171c-.621.008-1.243,0-2.108,0m2.943-7.944a1.578,1.578,0,0,0-.336-.09c-1.487-.007-2.975-.016-4.462-.005a.827.827,0,0,0-.87.7,5.323,5.323,0,0,0-.053,1.262c0,.222.188.251.357.229a1.107,1.107,0,0,1,1.018.469c.183.209.365.418.554.621s.333.215.555-.011c1.041-1.059,2.057-2.143,3.236-3.177m.4,2.239c-.164.015-.214.132-.29.208-.973.969-1.934,1.95-2.917,2.909a.931.931,0,0,1-1.47.053c-.323-.27-.58-.618-.882-.915-.144-.142-.261-.44-.479-.349s-.087.38-.09.579c-.012,1,.3,1.316,1.309,1.3,1.339-.016,2.678-.044,4.017-.076a.707.707,0,0,0,.794-.736c.025-.99.007-1.98.007-2.977" transform="translate(-53.408 -73.052)" fill="#1a1718"/>
        <path id="Trazado_818702" data-name="Trazado 818702" d="M123.732,90.157a13.79,13.79,0,0,1,2.69.078,2.763,2.763,0,0,1,2.205,2.621,41.947,41.947,0,0,1,.008,4.414,2.827,2.827,0,0,1-2.857,2.874,33.888,33.888,0,0,1-4.658-.058,2.874,2.874,0,0,1-2.506-2.763c-.032-1.406-.026-2.814,0-4.221a2.8,2.8,0,0,1,2.811-2.939c.767-.035,1.537-.006,2.306-.006m-3.095,7.025c.105.818.307,1.01,1.133,1.017,1.325.011,2.649.012,3.975.01.682,0,.926-.224.932-.9q.016-2.036-.012-4.071c-.011-.791-.274-1.076-1.054-1.089-1.34-.024-2.682-.017-4.023.005a.846.846,0,0,0-.924.911,39.192,39.192,0,0,0-.019,4.118Z" transform="translate(-71.838 -54.595)" fill="#1a1718"/>
        <path id="Trazado_818703" data-name="Trazado 818703" d="M93.149,161.174c-.769,0-1.539.03-2.306-.007a3.093,3.093,0,0,1-2.515-2.115,4.52,4.52,0,0,1-.087-1.395c-.007-1.276-.033-2.554.01-3.829a2.642,2.642,0,0,1,2.108-2.549,21.119,21.119,0,0,1,5.649-.023,2.537,2.537,0,0,1,2.149,2.281,23.647,23.647,0,0,1,.012,4.722,3.143,3.143,0,0,1-.593,1.8,2.819,2.819,0,0,1-2.216,1.089c-.736.026-1.473.006-2.21.006v.021m-2.932-5.048H90.2c0,.7-.014,1.406,0,2.109s.273.957.99.962c1.292.009,2.584.014,3.875,0a1.174,1.174,0,0,0,1.017-.436,1.611,1.611,0,0,0,.173-.921c.032-1.225.023-2.452.008-3.678-.008-.686-.259-.967-.944-.993a32.232,32.232,0,0,0-4.306.049.769.769,0,0,0-.8.844c-.015.686,0,1.373,0,2.06" transform="translate(-53.443 -91.514)" fill="#1a1718"/>
        <path id="Trazado_818704" data-name="Trazado 818704" d="M93.117,191.778c-.735,0-1.472.029-2.205-.007a2.716,2.716,0,0,1-2.283-1.417,2.524,2.524,0,0,1-.358-1.346c-.007-1.628-.058-3.258.02-4.881a2.584,2.584,0,0,1,2-2.175,5.085,5.085,0,0,1,1.052-.128c1.39-.019,2.779-.047,4.169.012a2.885,2.885,0,0,1,2.738,3.149c.067,1.206.058,2.421.01,3.629-.07,1.773-.927,3.146-3.031,3.2-.278.007-.556.021-.833.024-.425,0-.85,0-1.276,0,0-.021,0-.041,0-.062m.085-7.96v0h-.932l-.932,0c-.813,0-1.1.257-1.107,1.078-.019,1.324-.011,2.648,0,3.972a.985.985,0,0,0,1.05,1.021q1.91,0,3.82,0c.7,0,1.119-.27,1.154-.961a33.42,33.42,0,0,0-.019-4.358c-.042-.52-.375-.74-.924-.749-.7-.011-1.406,0-2.109,0" transform="translate(-53.456 -110.125)" fill="#1a1718"/>
        <path id="Trazado_818705" data-name="Trazado 818705" d="M93.129,90.168a11.106,11.106,0,0,1,3.141.182,2.722,2.722,0,0,1,1.862,2.212,28.592,28.592,0,0,1,.071,4.493,2.94,2.94,0,0,1-3.272,3.115c-1.406-.017-2.815.081-4.219-.071a2.725,2.725,0,0,1-2.426-2.361A30.709,30.709,0,0,1,88.3,92.35a2.8,2.8,0,0,1,2.617-2.177c.735-.027,1.472-.005,2.208-.005m-2.947,5.014c0,.72,0,1.44,0,2.161a.867.867,0,0,0,.807.854c1.375.015,2.75.033,4.125.015.761-.01,1.108-.317,1.119-.991q.034-2.037-.008-4.075a.891.891,0,0,0-.987-.984c-1.325-.028-2.653-.04-3.978,0-.83.023-1.082.356-1.079,1.208,0,.606,0,1.211,0,1.817" transform="translate(-53.413 -54.606)" fill="#1a1718"/>
        <path id="Trazado_818706" data-name="Trazado 818706" d="M32.045,161.208c-.72,0-1.44.021-2.158,0a2.934,2.934,0,0,1-2.36-1.4,3.162,3.162,0,0,1-.405-2.028c.017-1.325.017-2.649.021-3.975a2.85,2.85,0,0,1,2.209-2.527,31.9,31.9,0,0,1,5.083-.078,2.669,2.669,0,0,1,2.676,2.884A32.864,32.864,0,0,1,37.085,158a5.129,5.129,0,0,1-.211,1.383,2.79,2.79,0,0,1-2.622,1.819c-.731.059-1.471.011-2.206.011m-.005-1.974v.005c.719,0,1.438.011,2.157,0,.694-.014.964-.264.972-.944.018-1.389.017-2.778,0-4.166-.006-.654-.273-.923-.93-.935-1.062-.019-2.124-.011-3.186-.006a6.453,6.453,0,0,0-1.319.058.676.676,0,0,0-.6.548c-.1,1.477-.052,2.96-.09,4.44-.02.777.37,1,1.181,1,.6,0,1.209,0,1.814,0" transform="translate(-16.426 -91.548)" fill="#1a1718"/>
        <path id="Trazado_818707" data-name="Trazado 818707" d="M30.775,181.817c1.13,0,2.262-.047,3.387.021a2.775,2.775,0,0,1,2.808,2.111,2.183,2.183,0,0,1,.1.628c.025,1.489.089,2.979-.026,4.465a2.762,2.762,0,0,1-2.819,2.763,25.672,25.672,0,0,1-5.043-.125,2.782,2.782,0,0,1-2.077-2.462c-.026-1.177.017-2.357-.041-3.533a5.13,5.13,0,0,1,.129-1.787A2.694,2.694,0,0,1,28.963,182a6.833,6.833,0,0,1,1.818-.187h-.006m1.362,1.994v.008c-.671,0-1.342,0-2.014,0-.746,0-1.04.269-1.05,1.03-.018,1.342-.016,2.684,0,4.026a.951.951,0,0,0,1.019,1.01q2.062.017,4.124-.022c.667-.013.893-.265.913-.951.019-.638.013-1.277.009-1.915-.005-.786.005-1.573-.037-2.356-.035-.657-.239-.821-.9-.828-.688-.007-1.375,0-2.063,0" transform="translate(-16.381 -110.125)" fill="#1a1718"/>
        <path id="Trazado_818708" data-name="Trazado 818708" d="M57.745,186.658q0-1.1,0-2.208a2.49,2.49,0,0,1,1.167-2.159,3.173,3.173,0,0,1,1.828-.468c1.34.037,2.683-.006,4.024.02a3.053,3.053,0,0,1,1.765.562,2.836,2.836,0,0,1,1.158,2.385c.033,1.308.04,2.618,0,3.926a2.876,2.876,0,0,1-3.095,3.111c-1.1.01-2.192.013-3.287-.007a4.688,4.688,0,0,1-1.73-.186,2.652,2.652,0,0,1-1.8-2.329c-.078-.876-.016-1.764-.016-2.647h-.007m5.021-2.829v0c-.72,0-1.441-.01-2.161,0a.891.891,0,0,0-.96.99c0,1.277.029,2.554-.008,3.83-.027.949.371,1.23,1.239,1.244,1.227.02,2.457.047,3.681-.009.843-.039,1.115-.243,1.135-.861.048-1.472.034-2.946.006-4.419-.01-.532-.327-.773-.869-.778-.688-.006-1.375,0-2.063,0" transform="translate(-34.969 -110.137)" fill="#1a1718"/>
        <path id="Trazado_818709" data-name="Trazado 818709" d="M62.391,161.232c-.767,0-1.534.009-2.3,0a3.214,3.214,0,0,1-2.214-1.666,5.639,5.639,0,0,1-.27-2.341c.08-1.025.036-2.06.033-3.09a2.827,2.827,0,0,1,2.887-2.908c1.423-.025,2.848-.051,4.271-.015a2.717,2.717,0,0,1,2.63,1.944,4.342,4.342,0,0,1,.177,1.189c.02,1.276.055,2.555-.011,3.828a2.914,2.914,0,0,1-3.091,3.055c-.7.022-1.407,0-2.111,0v0m3.247-4.9h0c0-.736.009-1.471,0-2.207-.011-.629-.217-.9-.826-.907a38.658,38.658,0,0,0-4.5.071.841.841,0,0,0-.747.874c0,1.324.012,2.647.006,3.971-.005,1.091.318,1.081,1.1,1.111,1.372.052,2.746.031,4.12.026.618,0,.842-.243.85-.88.009-.686,0-1.373,0-2.06" transform="translate(-34.882 -91.584)" fill="#1a1718"/>
        <path id="Trazado_818710" data-name="Trazado 818710" d="M36.5,181.726H36.5c0-.025-.007-.05-.011-.074l.006.074" transform="translate(-22.105 -110.035)" fill="#e02d35"/>
        <path id="Trazado_818711" data-name="Trazado 818711" d="M98.482,47.32H88.166a1.883,1.883,0,0,1-.773-.1.929.929,0,0,1-.646-.942.938.938,0,0,1,.743-.869,2.233,2.233,0,0,1,.632-.055q10.389,0,20.779,0c.872,0,1.241.332,1.224,1.089a.863.863,0,0,1-.837.856,3.455,3.455,0,0,1-.539.019H98.482" transform="translate(-52.545 -27.474)" fill="#1a1718"/>
        <path id="Trazado_818712" data-name="Trazado 818712" d="M153.946,129.463a17.8,17.8,0,0,1,13.036,5.932,17.057,17.057,0,0,1,4.455,9.378,17.939,17.939,0,0,1-17.749,20.506,17.878,17.878,0,0,1-17.843-17.927c.014-9.886,7.908-17.676,18.1-17.889m-.262,33.87a15.156,15.156,0,0,0,11.6-5.073,15.6,15.6,0,0,0,4.3-11.959,15.4,15.4,0,0,0-4.593-10.2,15.567,15.567,0,0,0-13.087-4.558,15.945,15.945,0,0,0,1.779,31.785" transform="translate(-82.288 -78.421)" fill="#1a1718"/>
        <path id="Trazado_818713" data-name="Trazado 818713" d="M190.706,95.3a7.141,7.141,0,0,1-1.087,1.048c-.784.811-1.6,1.591-2.38,2.407-.214.224-.358.23-.55.019s-.378-.406-.562-.613a1.1,1.1,0,0,0-1.014-.475c-.2.028-.375-.026-.371-.271A6.849,6.849,0,0,1,184.8,96a.762.762,0,0,1,.765-.691c1.68-.016,3.361-.006,5.138-.006" transform="translate(-111.902 -57.725)" fill="#80af12"/>
        <path id="Trazado_818714" data-name="Trazado 818714" d="M194.989,101.741c0,.9.008,1.7,0,2.5-.009.7-.3.97-.982.99a18.608,18.608,0,0,0-2.244.051.186.186,0,0,1-.21-.075c-.061-.095.018-.154.075-.2,1.165-.993,2.15-2.172,3.363-3.265" transform="translate(-116.018 -61.629)" fill="#80af12"/>
        <path id="Trazado_818715" data-name="Trazado 818715" d="M184.766,106.1a13.959,13.959,0,0,1,1.473,1.564c.154.2.108.28-.14.3-.71.048-1.494-.214-1.374-1.248.019-.16.022-.322.04-.612" transform="translate(-111.889 -64.269)" fill="#80af12"/>
        <path id="Trazado_818716" data-name="Trazado 818716" d="M160.309,95.257c-.478.435-.928.668-1.277,1.03-.782.811-1.6,1.584-2.374,2.406-.3.317-.471.218-.7-.033-.251-.279-.505-.554-.772-.817a.581.581,0,0,0-.335-.19c-.654-.009-.554-.458-.548-.874.017-1.338.2-1.521,1.539-1.521h4.464" transform="translate(-93.465 -57.701)" fill="#80af12"/>
        <path id="Trazado_818717" data-name="Trazado 818717" d="M164.372,101.818c0,.973.022,1.945-.013,2.914a.568.568,0,0,1-.6.537c-.958.01-1.916,0-2.771,0l3.388-3.454" transform="translate(-97.515 -61.676)" fill="#80af12"/>
        <path id="Trazado_818718" data-name="Trazado 818718" d="M155.761,108.156c-1.146.174-1.523-.263-1.386-1.644a7.322,7.322,0,0,1,1.386,1.644" transform="translate(-93.495 -64.519)" fill="#80af12"/>
        <path id="Trazado_818719" data-name="Trazado 818719" d="M37.822,125.851c-.186.342-.479.477-.691.693-.813.83-1.653,1.633-2.451,2.477-.246.26-.4.2-.592,0s-.369-.415-.555-.622a1.061,1.061,0,0,0-1.023-.451c-.249.046-.37-.074-.361-.326,0-.016,0-.033,0-.049-.016-1.5-.1-1.8,1.626-1.761,1.079.025,2.16,0,3.24,0,.254,0,.509.026.808.043" transform="translate(-19.47 -76.205)" fill="#80af12"/>
        <path id="Trazado_818720" data-name="Trazado 818720" d="M38.129,132.129c0,.885.007,1.734,0,2.582-.007.725-.218.926-.938.938-1.34.022-2.679.054-4.018.064-.865.007-1.179-.328-1.174-1.192,0-.3,0-.607,0-.975a9.817,9.817,0,0,1,1.207,1.227c.675.8,1.227.846,1.969.121.807-.788,1.6-1.6,2.4-2.392a.958.958,0,0,1,.561-.373" transform="translate(-19.381 -80.036)" fill="#80af12"/>
        <path id="Trazado_818721" data-name="Trazado 818721" d="M67.973,125.857c-.053.346-.345.427-.519.606-.821.842-1.683,1.646-2.479,2.51-.351.38-.544.263-.8-.051a3.971,3.971,0,0,0-.988-.937c-.2-.123-.587.062-.6-.279a2.918,2.918,0,0,1,.144-1.587c.13-.238.4-.261.651-.261,1.519,0,3.038,0,4.591,0" transform="translate(-37.889 -76.237)" fill="#80af12"/>
        <path id="Trazado_818722" data-name="Trazado 818722" d="M68.4,131.416c0,.976.028,1.954-.01,2.929-.023.593-.285.792-.882.806-1.372.032-2.745.069-4.118.085a1.306,1.306,0,0,1-1.111-1.7c.08-.192.2-.112.3-.013.258.273.514.549.761.833a1.115,1.115,0,0,0,1.875.1c.531-.509,1.046-1.036,1.561-1.562s.995-1.037,1.491-1.556l.134.073" transform="translate(-37.682 -79.56)" fill="#80af12"/>
        <path id="Trazado_818723" data-name="Trazado 818723" d="M98.76,125.778c-1.18,1.033-2.2,2.118-3.236,3.177-.222.226-.369.211-.556.011s-.371-.412-.554-.621a1.106,1.106,0,0,0-1.017-.47c-.17.023-.36-.006-.357-.228a5.323,5.323,0,0,1,.053-1.262.827.827,0,0,1,.87-.7c1.488-.011,2.975,0,4.462.005a1.583,1.583,0,0,1,.336.089" transform="translate(-56.351 -76.129)" fill="#80af12"/>
        <path id="Trazado_818724" data-name="Trazado 818724" d="M99.122,131.61c0,1,.018,1.987-.007,2.977a.707.707,0,0,1-.794.736c-1.339.032-2.678.06-4.017.076-1.008.012-1.321-.3-1.309-1.3,0-.2-.118-.492.089-.579s.335.207.479.349c.3.3.559.644.882.915a.931.931,0,0,0,1.47-.053c.983-.958,1.944-1.94,2.917-2.909.076-.076.126-.192.29-.208" transform="translate(-56.311 -79.722)" fill="#80af12"/>
        <path id="Trazado_818725" data-name="Trazado 818725" d="M123.728,100.251a39.2,39.2,0,0,1,.019-4.118.845.845,0,0,1,.924-.91c1.34-.022,2.682-.029,4.023-.006.779.014,1.042.3,1.054,1.089q.03,2.036.012,4.071c-.006.68-.25.9-.932.9-1.325,0-2.649,0-3.974-.01-.826-.007-1.028-.2-1.133-1.017l.007,0" transform="translate(-74.92 -57.668)" fill="#f6f8fa"/>
        <path id="Trazado_818726" data-name="Trazado 818726" d="M123.785,108.008l-.007,0,.007,0" transform="translate(-74.978 -65.425)" fill="#e02d35"/>
        <path id="Trazado_818727" data-name="Trazado 818727" d="M93.244,159.273c0-.687-.011-1.374,0-2.06a.769.769,0,0,1,.8-.844,32.234,32.234,0,0,1,4.306-.049c.685.026.936.308.944.993.015,1.226.024,2.453-.008,3.678a1.61,1.61,0,0,1-.173.921,1.174,1.174,0,0,1-1.017.436c-1.292.009-2.584.005-3.875,0-.717-.006-.972-.249-.99-.962s0-1.406,0-2.109Z" transform="translate(-56.47 -94.661)" fill="#f6f8fa"/>
        <path id="Trazado_818728" data-name="Trazado 818728" d="M96.233,186.913c.7,0,1.406-.009,2.109,0,.548.009.882.229.924.749a33.424,33.424,0,0,1,.019,4.358c-.035.692-.457.959-1.154.961q-1.91.005-3.82,0a.985.985,0,0,1-1.05-1.021c-.011-1.324-.018-2.648,0-3.972.011-.822.295-1.074,1.107-1.078l.932,0h.932Z" transform="translate(-56.486 -113.219)" fill="#f6f8fa"/>
        <path id="Trazado_818729" data-name="Trazado 818729" d="M93.262,98.236c0-.606,0-1.211,0-1.817,0-.851.25-1.185,1.079-1.208,1.325-.037,2.652-.025,3.977,0a.891.891,0,0,1,.988.984q.044,2.037.008,4.075c-.012.674-.359.981-1.119.991-1.375.019-2.75,0-4.125-.015a.867.867,0,0,1-.807-.854c-.006-.72,0-1.44,0-2.161" transform="translate(-56.491 -57.66)" fill="#f6f8fa"/>
        <path id="Trazado_818730" data-name="Trazado 818730" d="M35,162.375c-.6,0-1.209,0-1.814,0-.811,0-1.2-.226-1.181-1,.038-1.48-.013-2.963.09-4.44a.676.676,0,0,1,.6-.548,6.449,6.449,0,0,1,1.319-.058c1.062-.006,2.124-.013,3.186.006.657.011.924.28.93.935.013,1.389.014,2.778,0,4.167-.009.68-.278.93-.972.944-.719.015-1.438,0-2.157,0Z" transform="translate(-19.387 -94.69)" fill="#f6f8fa"/>
        <path id="Trazado_818731" data-name="Trazado 818731" d="M35.234,186.895c.688,0,1.375-.006,2.063,0,.659.007.863.171.9.828.042.784.032,1.571.037,2.356,0,.638.01,1.277-.009,1.915-.02.686-.246.938-.913.951q-2.062.041-4.124.022a.951.951,0,0,1-1.019-1.01c-.012-1.342-.014-2.684,0-4.026.01-.761.3-1.029,1.05-1.03.671,0,1.342,0,2.014,0Z" transform="translate(-19.479 -113.209)" fill="#f6f8fa"/>
        <path id="Trazado_818732" data-name="Trazado 818732" d="M65.695,186.911c.688,0,1.375,0,2.063,0,.543,0,.859.246.869.778.028,1.473.042,2.947-.006,4.419-.02.618-.292.822-1.135.861-1.225.056-2.454.029-3.681.009-.868-.014-1.266-.295-1.239-1.244.037-1.276,0-2.554.008-3.83a.891.891,0,0,1,.96-.99c.72-.013,1.441,0,2.161,0Z" transform="translate(-37.898 -113.219)" fill="#f6f8fa"/>
        <path id="Trazado_818733" data-name="Trazado 818733" d="M68.668,159.412c0,.686.007,1.373,0,2.06-.008.637-.232.878-.85.88-1.373.005-2.748.026-4.12-.026-.786-.03-1.109-.02-1.1-1.111.006-1.324,0-2.648-.006-3.971a.841.841,0,0,1,.747-.874,38.658,38.658,0,0,1,4.5-.071c.609.008.815.278.826.907.013.735,0,1.471,0,2.207Z" transform="translate(-37.912 -94.658)" fill="#f6f8fa"/>
        <path id="Trazado_818734" data-name="Trazado 818734" d="M156.672,166.411a15.945,15.945,0,0,1-1.779-31.785,15.567,15.567,0,0,1,13.087,4.559,15.4,15.4,0,0,1,4.593,10.2,15.6,15.6,0,0,1-4.3,11.959,15.155,15.155,0,0,1-11.6,5.073m1.011-24.214h0c0-1.408-.007-2.816.006-4.224a4.4,4.4,0,0,0-.113-.867.82.82,0,0,0-.951-.587.764.764,0,0,0-.772.695c-.075.9-.1,1.81-.106,2.715q-.021,3.659,0,7.318a.625.625,0,0,1-.388.687,2.545,2.545,0,0,0-.809.664,2.987,2.987,0,0,0-.6,2.775.313.313,0,0,1-.118.38,20.662,20.662,0,0,0-1.758,1.45c-.683.6-1.386,1.169-2.07,1.764-.483.42-.988.825-1.484,1.235a.989.989,0,0,0-.177,1.112c.23.295.44.6.956.444a2.616,2.616,0,0,0,.979-.608c1.437-1.227,2.946-2.368,4.321-3.67.3-.286.613-.621,1.164-.294a1.593,1.593,0,0,0,1.271.2,3.968,3.968,0,0,0,1.986-1.194c.822-.99.678-3.209-.487-3.918-.367-.224-.847-.427-.923-.986a6.806,6.806,0,0,1,.087-.865c-.022-1.407-.01-2.816-.01-4.224" transform="translate(-85.276 -81.499)" fill="#80af12"/>
        <path id="Trazado_818735" data-name="Trazado 818735" d="M169.141,145.222c0,1.408-.012,2.817.01,4.224a6.8,6.8,0,0,0-.087.865c.076.559.556.762.924.986,1.165.709,1.309,2.928.487,3.918a3.964,3.964,0,0,1-1.986,1.194,1.593,1.593,0,0,1-1.271-.2c-.55-.327-.862.009-1.164.294-1.375,1.3-2.884,2.442-4.321,3.67a2.617,2.617,0,0,1-.978.608c-.516.153-.726-.149-.956-.444a.989.989,0,0,1,.178-1.112c.5-.41,1-.815,1.484-1.235.684-.6,1.387-1.169,2.07-1.764a20.6,20.6,0,0,1,1.757-1.45.313.313,0,0,0,.118-.38,2.986,2.986,0,0,1,.6-2.775,2.543,2.543,0,0,1,.809-.664.626.626,0,0,0,.388-.687q-.014-3.659,0-7.318c.005-.906.031-1.814.106-2.715a.764.764,0,0,1,.772-.695.82.82,0,0,1,.951.587,4.432,4.432,0,0,1,.113.867c-.012,1.408-.006,2.816-.006,4.224Zm-.093,8.281a.782.782,0,0,0-.885-.891.912.912,0,0,0-.974.855,1.16,1.16,0,0,0,1,1c.665-.043.906-.349.854-.96" transform="translate(-96.734 -84.525)" fill="#1a1718"/>
        <path id="Trazado_818736" data-name="Trazado 818736" d="M180.563,173.589c.051.611-.189.917-.854.96a1.16,1.16,0,0,1-1-1,.912.912,0,0,1,.974-.855.782.782,0,0,1,.885.891" transform="translate(-108.248 -104.611)" fill="#f6f8fa"/>
      </g>
    </g>
  </g>
</svg>
