<svg xmlns="http://www.w3.org/2000/svg" xmlns:xlink="http://www.w3.org/1999/xlink" width="169" height="169" viewBox="0 0 169 169">
  <defs>
    <clipPath id="clip-path">
      <rect id="Rect치ngulo_377068" data-name="Rect치ngulo 377068" width="95.532" height="95.62" fill="none"/>
    </clipPath>
  </defs>
  <g id="Grupo_1072906" data-name="Grupo 1072906" transform="translate(-385.001 -2058)">
    <g id="Grupo_159182" data-name="Grupo 159182" transform="translate(385.001 2058)">
      <path id="Uni칩n_12" data-name="Uni칩n 12" d="M84.5,0A84.5,84.5,0,1,1,0,84.5,84.5,84.5,0,0,1,84.5,0Z" transform="translate(0 0)" fill="#1b3f5e"/>
    </g>
    <g id="Grupo_1072660" data-name="Grupo 1072660" transform="translate(420.856 2093.681)">
      <g id="Grupo_1072660-2" data-name="Grupo 1072660" clip-path="url(#clip-path)">
        <path id="Trazado_818737" data-name="Trazado 818737" d="M97.17,29.966q0,4.7,0,9.4a1.747,1.747,0,0,0-1.774,1.768c-.011.4.026.81-.007,1.211a2.019,2.019,0,0,0,1.777,2.168q.005,4.895.011,9.79a1.893,1.893,0,0,0-1.792,2c-.031.7-.059,1.4-.059,2.105q-.012,14.01-.015,28.019a11.032,11.032,0,0,1-.405,3.291,7.91,7.91,0,0,1-4.011,4.793,6.39,6.39,0,0,1-2.893.9c-5.316.037-10.632.018-15.949.017q-28.453,0-56.906-.009a7.8,7.8,0,0,1-4.891-1.744,7.636,7.636,0,0,1-3.117-6.3Q7.13,52.118,7.122,16.855a18.081,18.081,0,0,1,.166-3.37,7.751,7.751,0,0,1,3.137-4.844,8.811,8.811,0,0,1,5.5-1.525Q51.237,7.1,86.549,7.11a10.033,10.033,0,0,1,1.883.119c3.9.741,6.606,3.488,6.8,7.463.171,3.417.066,6.848.083,10.272,0,.464.039.93,0,1.391a7.561,7.561,0,0,0,.184,2.3c.223.973.672,1.27,1.665,1.312M39.946,65.007a11.172,11.172,0,0,0-2.041.027h.01a8.247,8.247,0,0,0-5.334,2.98,9.436,9.436,0,0,0-1.629,2.855.789.789,0,0,1-.859.578c-.381-.019-.765-.012-1.148-.007-4.1.06-8.2-.08-12.3.064a1.657,1.657,0,0,0-1.474.762A1.89,1.89,0,0,0,16.9,75.133c.914-.023,1.828.015,2.742.015q5.295,0,10.589-.015c.322,0,.621-.032.738.408a8.046,8.046,0,0,0,3.338,4.611,7.726,7.726,0,0,0,6.654,1.259,8.145,8.145,0,0,0,6.072-5.854c.058-.192.156-.3.351-.29.551.025,1.082-.129,1.635-.129q18.179.011,36.358,0a3.31,3.31,0,0,0,.988-.167,1.763,1.763,0,0,0,1.222-1.739c-.148-.975-.435-1.513-1.545-1.688a10.882,10.882,0,0,0-1.7-.1Q66,71.452,47.66,71.473a.553.553,0,0,1-.629-.451,7.92,7.92,0,0,0-.457-1.36,8.3,8.3,0,0,0-6.627-4.657M63.3,31.1c3.955,0,7.909-.014,11.864,0,3.481.015,6.962-.05,10.444.029a1.983,1.983,0,0,0,1.712-.962,1.669,1.669,0,0,0-.16-2.017,2.4,2.4,0,0,0-2-.771q-21.942.018-43.883.032a.789.789,0,0,1-.872-.628,8.078,8.078,0,0,0-9.421-5.719,8.008,8.008,0,0,0-6.537,5.814.651.651,0,0,1-.728.534c-1.275-.021-2.552-.037-3.827-.008a19.215,19.215,0,0,0-3.36.1A1.81,1.81,0,0,0,14.882,29.4a1.949,1.949,0,0,0,1.985,1.686c2.274.027,4.549,0,6.824-.012.354,0,.618.056.738.439a8.152,8.152,0,0,0,2.765,4.2A8.768,8.768,0,0,0,31.923,37.6a7.939,7.939,0,0,0,4.729-1.175,8.238,8.238,0,0,0,3.73-4.719c.15-.458.293-.625.786-.624q11.067.025,22.133.012M38.944,49.47v0q-8.834,0-17.669,0c-1.552,0-3.1-.009-4.657.015a1.938,1.938,0,0,0-1.748,1.443,1.9,1.9,0,0,0,1.488,2.1,12.844,12.844,0,0,0,1.8.036q20.922,0,41.844,0c.447,0,.893-.008,1.34-.009a.445.445,0,0,1,.5.374,8.263,8.263,0,0,0,4.461,5.433,7.56,7.56,0,0,0,4.758.719,8.425,8.425,0,0,0,6.757-5.863.757.757,0,0,1,.851-.66c.255.008.51.005.765,0q3.158,0,6.315-.01a1.8,1.8,0,0,0,1.627-2.635,1.832,1.832,0,0,0-1.744-.937q-2.966,0-5.932-.012a3.687,3.687,0,0,1-1.446-.054c-.427-.2-.346-.86-.56-1.29-.038-.075-.062-.158-.1-.235a8.348,8.348,0,0,0-9.651-4.718A8.191,8.191,0,0,0,61.9,48.786c-.213.587-.419.692-.946.692q-11-.017-22.006-.008" transform="translate(-3.469 -3.464)" fill="#feec86"/>
        <path id="Trazado_818738" data-name="Trazado 818738" d="M93.7,26.5c-.993-.042-1.442-.339-1.665-1.311a7.563,7.563,0,0,1-.184-2.3c.037-.461,0-.927,0-1.391-.017-3.425.088-6.855-.083-10.273-.2-3.975-2.905-6.723-6.8-7.463a9.987,9.987,0,0,0-1.883-.12q-35.311,0-70.623.006a8.811,8.811,0,0,0-5.5,1.525A7.752,7.752,0,0,0,3.82,10.021a18.127,18.127,0,0,0-.166,3.37q.008,35.263.014,70.527a7.635,7.635,0,0,0,3.117,6.3,7.8,7.8,0,0,0,4.891,1.744q28.453,0,56.906.01c5.316,0,10.632.02,15.948-.018a6.4,6.4,0,0,0,2.893-.9,7.913,7.913,0,0,0,4.011-4.793,11.036,11.036,0,0,0,.405-3.291q.011-14.009.015-28.019c0-.7.028-1.4.06-2.1a1.892,1.892,0,0,1,1.791-2,6.542,6.542,0,0,1,.773.245A1.872,1.872,0,0,1,95.508,53c.014,2.361.008,4.723.009,7.085,0,7.574-.021,15.148.016,22.723a14.346,14.346,0,0,1-1.118,5.839,10.97,10.97,0,0,1-5.933,5.881,14.031,14.031,0,0,1-2.662.95,9.794,9.794,0,0,1-1.769.082c-1.318.042-2.637.03-3.955.03q-33.812,0-67.625.03a13.391,13.391,0,0,1-7.394-2.108,10.9,10.9,0,0,1-3.566-3.978A10.839,10.839,0,0,1,.051,84.051C-.051,64.434.037,44.819.01,25.2,0,20.671.03,16.139.025,11.608A11.241,11.241,0,0,1,3.069,3.89,11.074,11.074,0,0,1,9.819.232,10.162,10.162,0,0,1,13.526.137c.211.046.474-.1.73-.1q34.2.008,68.39,0a16.489,16.489,0,0,1,4.189.426A11.227,11.227,0,0,1,92.759,4.2,10.635,10.635,0,0,1,95.13,9.067a17.635,17.635,0,0,1,.392,3.309c-.013,4.042,0,8.084,0,12.127a1.73,1.73,0,0,1-1.823,2" transform="translate(0 0)" fill="#132244"/>
        <path id="Trazado_818739" data-name="Trazado 818739" d="M181.062,75.184a2.019,2.019,0,0,1-1.777-2.168c.033-.4,0-.807.007-1.211a1.748,1.748,0,0,1,1.775-1.769c1.149.167,1.772.575,1.794,2.171a10.22,10.22,0,0,1-.023,1.266,1.923,1.923,0,0,1-1.776,1.71" transform="translate(-87.367 -34.131)" fill="#132244"/>
        <path id="Trazado_818740" data-name="Trazado 818740" d="M70.678,44.236q-11.066,0-22.133-.011c-.493,0-.636.166-.786.624a8.236,8.236,0,0,1-3.73,4.719A7.946,7.946,0,0,1,39.3,50.743a8.765,8.765,0,0,1-4.729-1.888,8.153,8.153,0,0,1-2.766-4.2c-.12-.384-.383-.442-.738-.439-2.275.016-4.55.039-6.824.011a1.949,1.949,0,0,1-1.985-1.686,1.81,1.81,0,0,1,1.652-1.891,19.169,19.169,0,0,1,3.36-.1c1.275-.03,2.552-.013,3.827.007a.651.651,0,0,0,.728-.533,8.007,8.007,0,0,1,6.537-5.814,8.077,8.077,0,0,1,9.42,5.718.79.79,0,0,0,.872.629q21.942-.03,43.883-.032a2.4,2.4,0,0,1,2,.771,1.668,1.668,0,0,1,.16,2.017,1.982,1.982,0,0,1-1.712.962c-3.482-.079-6.963-.013-10.444-.029-3.954-.018-7.909,0-11.864-.005M39.813,47.053a4.674,4.674,0,1,0-4.7-4.657c-.089,2.087,2.063,4.845,4.7,4.657" transform="translate(-10.846 -16.606)" fill="#132244"/>
        <path id="Trazado_818741" data-name="Trazado 818741" d="M45.274,120.038a11.17,11.17,0,0,1,2.041-.027h0a8.3,8.3,0,0,1,6.627,4.656,7.92,7.92,0,0,1,.457,1.36.553.553,0,0,0,.629.451q18.339-.026,36.678-.028a10.882,10.882,0,0,1,1.7.1c1.11.175,1.4.714,1.545,1.688a1.762,1.762,0,0,1-1.222,1.738,3.278,3.278,0,0,1-.988.167q-18.178-.005-36.358,0c-.553,0-1.085.153-1.635.129-.2-.009-.293.1-.351.29a8.145,8.145,0,0,1-6.072,5.854,7.726,7.726,0,0,1-6.654-1.259,8.046,8.046,0,0,1-3.338-4.611c-.116-.44-.416-.409-.738-.408q-5.295.009-10.589.015c-.914,0-1.829-.037-2.742-.015a1.89,1.89,0,0,1-1.724-2.867,1.657,1.657,0,0,1,1.474-.762c4.1-.144,8.2,0,12.3-.064.382-.006.766-.013,1.148.007a.789.789,0,0,0,.859-.578,9.437,9.437,0,0,1,1.629-2.855,8.246,8.246,0,0,1,5.334-2.98h-.01m1.118,3.577a4.655,4.655,0,0,0-4.738,4.611,4.561,4.561,0,0,0,4.457,4.792,4.657,4.657,0,0,0,5-4.89,4.733,4.733,0,0,0-4.72-4.513" transform="translate(-10.838 -58.469)" fill="#132244"/>
        <path id="Trazado_818742" data-name="Trazado 818742" d="M46.3,83.534q11,0,22.006.008c.527,0,.733-.1.946-.692A8.191,8.191,0,0,1,75.3,77.232a8.348,8.348,0,0,1,9.651,4.718c.035.077.059.159.1.235.214.43.134,1.089.56,1.29a3.687,3.687,0,0,0,1.446.054q2.966.008,5.932.012a1.832,1.832,0,0,1,1.744.937,1.8,1.8,0,0,1-1.627,2.635q-3.158,0-6.315.01c-.255,0-.511,0-.765-.005a.757.757,0,0,0-.851.661,8.425,8.425,0,0,1-6.757,5.863,7.56,7.56,0,0,1-4.758-.719A8.263,8.263,0,0,1,69.2,87.491a.446.446,0,0,0-.5-.375c-.447,0-.893.009-1.34.009q-20.922,0-41.844,0a12.92,12.92,0,0,1-1.8-.036,1.9,1.9,0,0,1-1.488-2.1,1.938,1.938,0,0,1,1.748-1.443c1.552-.024,3.1-.014,4.657-.015H46.3Zm30.87-2.8C74.719,80.419,72.537,83,72.511,85.3a4.737,4.737,0,1,0,9.461-.34c-.165-1.99-2.236-4.53-4.8-4.23" transform="translate(-10.824 -37.528)" fill="#132244"/>
        <path id="Trazado_818743" data-name="Trazado 818743" d="M67.172,120.1h0" transform="translate(-32.735 -58.526)" fill="#e35d14"/>
        <path id="Trazado_818744" data-name="Trazado 818744" d="M52.034,50.5c-2.636.188-4.788-2.57-4.7-4.657a4.7,4.7,0,1,1,4.7,4.657" transform="translate(-23.067 -20.057)" fill="#e35d14"/>
        <path id="Trazado_818745" data-name="Trazado 818745" d="M64.845,127.068a4.733,4.733,0,0,1,4.72,4.513,4.657,4.657,0,0,1-5,4.89,4.561,4.561,0,0,1-4.457-4.792,4.655,4.655,0,0,1,4.738-4.611" transform="translate(-29.291 -61.922)" fill="#1ba1c0"/>
        <path id="Trazado_818746" data-name="Trazado 818746" d="M124.984,84.249c2.567-.3,4.638,2.239,4.8,4.23a4.737,4.737,0,1,1-9.461.34c.026-2.3,2.208-4.883,4.658-4.569" transform="translate(-58.638 -41.045)" fill="#80af12"/>
      </g>
    </g>
  </g>
</svg>
