<svg xmlns="http://www.w3.org/2000/svg" xmlns:xlink="http://www.w3.org/1999/xlink" width="169" height="169" viewBox="0 0 169 169">
  <defs>
    <clipPath id="clip-path">
      <rect id="Rect치ngulo_377055" data-name="Rect치ngulo 377055" width="108" height="107.977" fill="none"/>
    </clipPath>
  </defs>
  <g id="Grupo_1072900" data-name="Grupo 1072900" transform="translate(-385.001 -2058)">
    <g id="Grupo_159182" data-name="Grupo 159182" transform="translate(385.001 2058)">
      <path id="Uni칩n_12" data-name="Uni칩n 12" d="M84.5,0A84.5,84.5,0,1,1,0,84.5,84.5,84.5,0,0,1,84.5,0Z" transform="translate(0 0)" fill="#1b3f5e"/>
    </g>
    <g id="Grupo_1072646" data-name="Grupo 1072646" transform="translate(418.668 2092.511)">
      <g id="Grupo_1072645" data-name="Grupo 1072645" clip-path="url(#clip-path)">
        <path id="Trazado_818557" data-name="Trazado 818557" d="M44.974.01c8.65,0,17.3-.021,25.95.016A8.858,8.858,0,0,1,76.65,1.759,8.725,8.725,0,0,1,80.036,8.31c.236,5.142.046,10.286.087,15.429,0,.558.145.674.677.661,1.649-.038,3.3-.027,4.95-.005a1.387,1.387,0,0,0,1.137-.466c2.241-2.3,4.524-4.555,6.794-6.824a13.252,13.252,0,0,1,2.07-1.857,7.179,7.179,0,0,1,4.3-1.3,7.8,7.8,0,0,1,6.253,3.127,7.964,7.964,0,0,1,1.59,4.1,7.6,7.6,0,0,1-2.436,6.365c-1.366,1.378-2.731,2.757-4.117,4.114-.251.246-.2.376.038.524,1.084.66,2.042,1.492,3.061,2.241a2.013,2.013,0,0,0,1.353.429c.616-.029,1.234,0,1.849-.022.3-.013.356.091.355.366q-.01,8.352,0,16.7c0,.3-.1.351-.368.355a16.954,16.954,0,0,0-3.038.064,29.544,29.544,0,0,0-3.509,1.115,44.528,44.528,0,0,1-6.9,2.049,15.972,15.972,0,0,1-6.552-.193A23.8,23.8,0,0,1,81.318,52.5c-.24-.143-.532-.254-.693-.07-.207.237-.746.327-.5.855a1.109,1.109,0,0,1,.009.431c0,10.3.013,20.6-.014,30.907a10.072,10.072,0,0,1-.894,4.529,8.471,8.471,0,0,1-1.879,2.5,9.941,9.941,0,0,1-3.774,2.067,6.319,6.319,0,0,1-1.924.3q-18.85.031-37.7,0a.688.688,0,0,0-.8.613,28.531,28.531,0,0,1-1.214,3.381,6.381,6.381,0,0,0-.568,2.38c.056,2.375.013,4.751.027,7.127,0,.341-.068.453-.437.453q-11.751-.018-23.5,0c-.419,0-.451-.152-.449-.5.014-2.322-.01-4.644.019-6.965a6.054,6.054,0,0,0-.442-2.129c-.387-1.095-.849-2.162-1.253-3.249-.36-.971-.812-1.921-1.16-2.9a8.087,8.087,0,0,1-.588-1.951c-.06-.751-.356-1.425-.47-2.151-.315-2-.665-4-1-6-.295-1.784-.573-3.571-.874-5.354C.983,75.192.709,73.6.407,72.016a17.976,17.976,0,0,1-.32-5.407,19.323,19.323,0,0,1,3.679-9.732,22.735,22.735,0,0,1,1.987-2.233c1.433-1.439,2.862-2.883,4.313-4.3a1.4,1.4,0,0,0,.446-1.1c-.011-13.259,0-26.517-.025-39.776A9.952,9.952,0,0,1,11.5,4.577a8.054,8.054,0,0,1,2.413-2.805A8.351,8.351,0,0,1,17.031.3,14.486,14.486,0,0,1,19.95,0Q32.462.025,44.974.01M73.62,34.87a.17.17,0,0,0,.217-.021l.211-.005h.107c.452.034.9.061,1.355.106a.764.764,0,0,0,.671-.257q3.182-3.2,6.382-6.384c.109-.109.263-.2.234-.444-.861.041-1.714.032-2.577.089a8.06,8.06,0,0,0-5.269,2.339c-2.491,2.431-4.94,4.906-7.4,7.368-.795.795-1.6,1.578-2.347,2.42a3.207,3.207,0,0,0,.324,4.434c.3.265.526.3.818-.02.492-.531,1.006-1.045,1.54-1.534a.7.7,0,0,0,.228-.812,4.846,4.846,0,0,1,.3-3.388,6.286,6.286,0,0,1,5.208-3.89m-3.927,27.9c-.711.293-1.343.558-1.978.815q-2.752,1.113-5.507,2.219a4.323,4.323,0,0,1-4.444-.535,4.53,4.53,0,0,1-1.6-5.554q1.436-3.456,2.757-6.958a6.6,6.6,0,0,1,1.775-2.614c.9-.819,1.726-1.709,2.6-2.558.207-.2.3-.382.011-.564a4.532,4.532,0,0,1-1.263-1.467,6,6,0,0,1-1.026-4.064,7.1,7.1,0,0,1,2.264-4.381c1.84-1.775,3.631-3.6,5.443-5.4a3.042,3.042,0,0,0,1-2.32c-.046-3.79-.031-7.58-.005-11.371,0-.518-.157-.6-.628-.6q-23.772.018-47.544,0c-.529,0-.6.173-.6.633q.016,23.7.01,47.39c0,.344,0,.69.02,1.033a.755.755,0,0,0,.3.659,15.045,15.045,0,0,1,.618-3.067,5.768,5.768,0,0,1,6.367-4.746,5.71,5.71,0,0,1,5.056,4.758,48.087,48.087,0,0,1,.361,4.889c.035.666.021.7.689.7h34.76a2.174,2.174,0,0,1,.272,0c.244.031.3-.08.3-.31-.007-2.157,0-4.315,0-6.579m3.481-35.527c.226-.157.372-.253.513-.358a10.5,10.5,0,0,1,2.484-1.437.663.663,0,0,0,.5-.748c-.016-4.642-.009-9.285-.011-13.927a13.063,13.063,0,0,0-.2-3.129,5.341,5.341,0,0,0-1.993-3.109A5.679,5.679,0,0,0,71,3.508q-25.892-.034-51.783,0a4.81,4.81,0,0,0-4.164,2.011,4.468,4.468,0,0,0-1.064,2.574q-.006,35.2,0,70.4a1.426,1.426,0,0,0,1.1,1.594,1.59,1.59,0,0,0,1.733-.882,16.975,16.975,0,0,0,.7-1.6c.669-1.457,1.257-2.952,1.881-4.431a.387.387,0,0,0-.17-.546c-.193-.131-.441-.148-.6-.344a4.714,4.714,0,0,1-1.174-3.1q.029-25.679.014-51.358a7.459,7.459,0,0,1,.033-.815,3.416,3.416,0,0,1,1.225-2.277,4,4,0,0,1,2.7-.785q23.96-.019,47.921,0a3.912,3.912,0,0,1,1.635.282,3.6,3.6,0,0,1,2.184,3.543c.019,3.119.005,6.238.005,9.472M10.51,67.158H10.5V59.27c0-1.342,0-2.684-.006-4.026,0-.125.1-.31-.1-.373-.17-.055-.25.1-.348.2-.259.279-.518.558-.787.827a22.431,22.431,0,0,0-3.508,4.18A15.777,15.777,0,0,0,3.56,66.9,17.933,17.933,0,0,0,3.984,72.3c.272,1.267.27,2.579.633,3.835a2.732,2.732,0,0,1,.141.73,24.9,24.9,0,0,0,.508,3.406c.141,1.061.374,2.124.567,3.186.127.7.152,1.417.316,2.1.3,1.243.449,2.512.757,3.753a21.038,21.038,0,0,0,.735,2.57C8.259,93.464,8.986,95,9.478,96.63c.238.787.375.889,1.191.889H27.857c.127,0,.254,0,.381,0a.311.311,0,0,0,.346-.236,34.924,34.924,0,0,0,1.789-5.007,27.023,27.023,0,0,0,.934-8.145c-.088-1.739-.181-3.475-.335-5.21-.16-1.8-.224-3.608-.426-5.408-.12-1.066-.166-2.148-.225-3.222-.1-1.826-.3-3.643-.434-5.466a2.193,2.193,0,0,0-1.74-2.005,2.242,2.242,0,0,0-2.6,1.107,8.662,8.662,0,0,0-.57,1.936c-.534,2.025-.965,4.081-1.587,6.077A50.015,50.015,0,0,1,21.41,77.5c-.509,1.139-1.019,2.277-1.562,3.4a5.106,5.106,0,0,1-5.483,2.582,5.042,5.042,0,0,1-3.84-4.731c-.054-3.862-.015-7.725-.015-11.588M76.587,56.389c-.324.106-.388.43-.589.62-.845.795-1.646,1.635-2.475,2.448a1.167,1.167,0,0,0-.355.916c.014,2.7.011,5.4,0,8.107,0,.575-.031,1.146-.083,1.723a3.58,3.58,0,0,1-3.3,2.939q-17.625,0-35.25-.017c-.569,0-.634.265-.513.63s.045.71.143,1.061a15.71,15.71,0,0,1,.29,2.9c.068.792,0,1.653.113,2.448.2,1.433.193,2.871.3,4.305.074,1.043-.187,2.073-.2,3.112a17.081,17.081,0,0,1-.29,2.4c-.084.556.048.585.5.584q18.142-.013,36.284-.007a5.455,5.455,0,0,0,3.651-1.373,5.52,5.52,0,0,0,1.826-4.4c.024-8.923.011-17.846.01-26.769a4.287,4.287,0,0,0-.069-1.627m14.643-14.8.151.214c1.339,0,2.677.012,4.015-.009.339-.005.428.086.419.421-.024.888-.027,1.778,0,2.666.011.354-.113.412-.432.41-2.847-.012-5.694-.006-8.541-.01a.612.612,0,0,1-.449-.107c-1.606-1.3-3.266-2.534-4.832-3.878a10.876,10.876,0,0,0-7.858-2.87A2.5,2.5,0,0,0,71.459,40.6a2.8,2.8,0,0,0,1.565,2.954q5.6,3.338,11.178,6.7a12.944,12.944,0,0,0,5.46,1.858,14.6,14.6,0,0,0,5.982-.469c2.785-.913,5.562-1.848,8.352-2.744.389-.125.53-.258.527-.683-.022-3.083-.016-6.167-.007-9.25,0-.369.057-.7-.484-.721-.172-.006-.345-.184-.5-.3-1.426-1.058-2.879-2.083-4.258-3.2-.518-.42-.778-.264-1.148.108q-3.029,3.049-6.08,6.077a9.6,9.6,0,0,1-.812.654M104.4,21.993a5.045,5.045,0,0,0-.552-2.465A4.448,4.448,0,0,0,97,18.653c-.723.681-1.428,1.385-2.132,2.083-5,4.951-9.951,9.945-14.927,14.916-.291.29-.214.412.089.592a19.854,19.854,0,0,1,2.309,1.38c1.433,1.136,2.885,2.249,4.318,3.386a.394.394,0,0,0,.638-.046c.522-.554,1.065-1.088,1.6-1.628Q96,32.212,103.116,25.089a3.678,3.678,0,0,0,1.287-3.1M77.7,50.338c-.533-.32-1.2-.716-1.858-1.119-1.79-1.094-3.638-2.094-5.37-3.28a.543.543,0,0,0-.853.082q-2.961,2.993-5.963,5.946c-.2.193-.238.32-.038.518q2.913,2.887,5.815,5.784c.251.251.379.206.6-.024,1.046-1.08,2.119-2.133,3.165-3.212,1.51-1.559,3-3.133,4.5-4.7M19.268,101.016c-2.754,0-5.507.01-8.26-.011-.415,0-.515.108-.5.509.033.85.021,1.7,0,2.554-.005.287.045.409.375.409q8.314-.016,16.629,0c.313,0,.394-.093.387-.4-.019-.869-.03-1.74,0-2.609.015-.4-.126-.465-.489-.463-2.717.015-5.434.008-8.151.008M60.417,62.689a1.558,1.558,0,0,0,.732-.171c1.679-.663,3.355-1.335,5.039-1.985.355-.137.313-.3.1-.5-1.542-1.4-2.941-2.944-4.36-4.466-.248-.266-.355-.141-.453.1-.142.351-.274.706-.413,1.058-.573,1.454-1.168,2.9-1.714,4.364a1.089,1.089,0,0,0,1.072,1.594" transform="translate(0 0)" fill="#060607"/>
        <path id="Trazado_818558" data-name="Trazado 818558" d="M96.716,85.236c0,2.264,0,4.422,0,6.579,0,.231-.059.342-.3.31a2.173,2.173,0,0,0-.272,0H61.384c-.667,0-.653-.034-.689-.7a47.963,47.963,0,0,0-.36-4.889,5.71,5.71,0,0,0-5.057-4.758,5.768,5.768,0,0,0-6.366,4.746,15.045,15.045,0,0,0-.618,3.067.755.755,0,0,1-.3-.659c-.022-.343-.02-.689-.02-1.033q0-23.7-.01-47.39c0-.46.067-.633.6-.633q23.772.026,47.544,0c.471,0,.631.085.628.6-.025,3.79-.041,7.581.005,11.371a3.042,3.042,0,0,1-1,2.32c-1.811,1.8-3.6,3.629-5.443,5.4a7.1,7.1,0,0,0-2.264,4.381,6,6,0,0,0,1.026,4.064,4.532,4.532,0,0,0,1.263,1.467c.287.181.2.361-.011.564-.868.85-1.7,1.739-2.595,2.558a6.6,6.6,0,0,0-1.775,2.614q-1.316,3.5-2.757,6.958a4.53,4.53,0,0,0,1.6,5.554,4.323,4.323,0,0,0,4.444.535q2.756-1.1,5.507-2.219c.635-.257,1.267-.522,1.978-.815M72.4,43.369q-10.225,0-20.45-.01c-.4,0-.509.092-.506.5q.029,4.733,0,9.465c0,.417.112.5.51.5q20.232-.016,40.464-.01c.612,0,.817-.205.817-.814,0-3.028-.01-6.057.012-9.085,0-.454-.108-.561-.561-.56q-10.143.024-20.287.011m.8,31.342c3.606,0,7.212-.008,10.818.011.437,0,.543-.122.526-.538-.033-.814-.04-1.632,0-2.446.024-.454-.146-.52-.546-.518-3.9.014-7.792.009-11.688.009-3.3,0-6.6.009-9.894-.011-.437,0-.542.122-.525.538.033.814.04,1.632,0,2.446-.024.454.145.52.545.518,3.588-.014,7.176-.008,10.764-.008m-.041-13.93c3.624,0,7.249-.006,10.873.009.389,0,.533-.068.514-.495-.038-.868-.024-1.74,0-2.609.007-.306-.081-.394-.391-.394q-10.927.012-21.853,0c-.366,0-.406.136-.4.44.017.851.029,1.7,0,2.555-.016.405.092.509.5.507,3.588-.018,7.176-.01,10.764-.01m-1.738,27.86c3.062,0,6.124-.005,9.186.007.344,0,.467-.074.455-.441-.028-.887-.022-1.776,0-2.664.007-.308-.087-.392-.393-.391q-9.186.013-18.372,0c-.37,0-.4.143-.4.443.016.851.03,1.7,0,2.555-.017.409.1.507.505.5,3.008-.019,6.015-.01,9.023-.01m.063-6.965c3.026,0,6.052,0,9.078.007.341,0,.52-.026.5-.45-.037-.887-.025-1.776,0-2.663.008-.323-.109-.382-.4-.382q-9.186.011-18.373,0c-.311,0-.4.092-.389.4.019.869.034,1.741,0,2.609-.019.427.126.5.515.494,3.026-.017,6.052-.009,9.078-.009m-1.766-13.93c2.464,0,4.928-.009,7.391.01.389,0,.483-.107.471-.482-.028-.869-.019-1.739,0-2.609.005-.286-.045-.409-.375-.408q-7.473.016-14.945,0c-.294,0-.364.092-.359.37.016.888.029,1.776,0,2.663-.015.4.124.466.488.464,2.446-.016,4.892-.008,7.337-.008m13.115,0c.434,0,.869-.015,1.3.005.287.014.415-.046.407-.375-.022-.922-.021-1.845,0-2.767.007-.3-.11-.354-.377-.351-.922.014-1.845.018-2.767,0-.3-.007-.354.11-.35.377.014.922.018,1.845,0,2.767-.007.3.11.361.377.35.469-.018.94,0,1.41,0" transform="translate(-27.022 -22.465)" fill="#5abfe3"/>
        <path id="Trazado_818559" data-name="Trazado 818559" d="M91.222,31.748c0-3.234.014-6.353-.005-9.471a3.6,3.6,0,0,0-2.184-3.543,3.913,3.913,0,0,0-1.635-.282q-23.96-.013-47.92,0a4.006,4.006,0,0,0-2.7.785,3.415,3.415,0,0,0-1.225,2.278,7.454,7.454,0,0,0-.033.815q0,25.679-.014,51.357a4.715,4.715,0,0,0,1.174,3.1c.16.2.408.214.6.344a.386.386,0,0,1,.171.546c-.624,1.478-1.212,2.973-1.881,4.431a16.973,16.973,0,0,1-.7,1.6,1.591,1.591,0,0,1-1.734.882,1.427,1.427,0,0,1-1.095-1.594q0-35.2,0-70.4A4.467,4.467,0,0,1,33.1,10.021,4.811,4.811,0,0,1,37.262,8.01q25.891-.033,51.782,0A5.674,5.674,0,0,1,92.511,9.04,5.342,5.342,0,0,1,94.5,12.149a13.088,13.088,0,0,1,.2,3.129c0,4.643,0,9.285.011,13.928a.663.663,0,0,1-.5.747,10.482,10.482,0,0,0-2.484,1.437c-.14.1-.287.2-.513.358M63.369,14.961c2.176,0,4.351,0,6.527.005.3,0,.457-.033.445-.4-.029-.906-.019-1.813,0-2.72,0-.278-.068-.373-.361-.372q-6.608.013-13.217,0c-.3,0-.364.1-.36.375.015.87.027,1.742,0,2.611-.014.4.084.518.5.514,2.157-.024,4.315-.011,6.472-.011m27.745-1.7a1.684,1.684,0,1,0-3.366-.085,1.9,1.9,0,0,0,1.624,1.8,1.72,1.72,0,0,0,1.742-1.714m-6.964-.035a1.683,1.683,0,1,0-3.364-.069,1.9,1.9,0,0,0,1.657,1.821,1.737,1.737,0,0,0,1.707-1.752" transform="translate(-18.047 -4.504)" fill="#848d9a"/>
        <path id="Trazado_818560" data-name="Trazado 818560" d="M15.031,137.953c0,3.862-.039,7.726.015,11.588a5.043,5.043,0,0,0,3.84,4.731,5.106,5.106,0,0,0,5.483-2.582c.544-1.123,1.053-2.261,1.562-3.4a50.042,50.042,0,0,0,1.985-5.554c.623-2,1.053-4.052,1.587-6.077a8.663,8.663,0,0,1,.57-1.936,2.242,2.242,0,0,1,2.6-1.107,2.194,2.194,0,0,1,1.74,2.005c.134,1.822.333,3.639.434,5.466.06,1.074.106,2.155.225,3.222.2,1.8.265,3.608.426,5.408.155,1.735.247,3.471.335,5.21a27.009,27.009,0,0,1-.934,8.145,34.974,34.974,0,0,1-1.789,5.007.312.312,0,0,1-.346.236c-.127,0-.254,0-.381,0H15.19c-.816,0-.953-.1-1.191-.888-.492-1.63-1.219-3.167-1.836-4.747a20.956,20.956,0,0,1-.735-2.57c-.309-1.242-.462-2.511-.758-3.753-.164-.688-.189-1.407-.316-2.1-.193-1.062-.426-2.124-.567-3.186a24.967,24.967,0,0,1-.508-3.406,2.7,2.7,0,0,0-.141-.73c-.364-1.256-.361-2.567-.633-3.835a17.947,17.947,0,0,1-.424-5.395,15.778,15.778,0,0,1,2.195-6.823,22.426,22.426,0,0,1,3.508-4.18c.269-.269.528-.548.787-.827.1-.106.178-.258.348-.2.2.063.1.248.1.373.008,1.342.005,2.684.005,4.026v7.889Z" transform="translate(-4.521 -70.795)" fill="#efc4a4"/>
        <path id="Trazado_818561" data-name="Trazado 818561" d="M120.433,129.158a4.287,4.287,0,0,1,.069,1.627c0,8.923.013,17.846-.01,26.769a5.523,5.523,0,0,1-1.826,4.4,5.455,5.455,0,0,1-3.651,1.373q-18.142,0-36.284.007c-.456,0-.588-.028-.5-.585a17.008,17.008,0,0,0,.29-2.4c.01-1.038.271-2.069.2-3.112-.1-1.434-.09-2.872-.295-4.305-.114-.795-.045-1.656-.113-2.448a15.711,15.711,0,0,0-.29-2.9c-.1-.351-.024-.706-.143-1.061s-.055-.631.513-.63q17.625.033,35.25.017a3.581,3.581,0,0,0,3.3-2.939c.052-.576.081-1.148.082-1.723q.01-4.054,0-8.107a1.166,1.166,0,0,1,.355-.916c.828-.812,1.63-1.653,2.475-2.448.2-.19.265-.514.59-.62M89.181,149.393c-2.231,0-4.461-.009-6.691,0a3.631,3.631,0,0,0-2.849,1.109,4.771,4.771,0,0,0-.538,4.8,8.436,8.436,0,0,0,2.4,3.128,6.193,6.193,0,0,0,3.351,1.384c2.772.067,5.547.017,8.321.013a2.2,2.2,0,0,0,.477-.048,8.541,8.541,0,0,0,3.156-1.432,6.383,6.383,0,0,0,2.208-2.735,5.836,5.836,0,0,0,.471-3.577,3.6,3.6,0,0,0-3.56-2.644c-2.248-.012-4.5,0-6.744,0" transform="translate(-43.846 -72.769)" fill="#848d9a"/>
        <path id="Trazado_818562" data-name="Trazado 818562" d="M183.4,86.1a9.6,9.6,0,0,0,.813-.654q3.049-3.029,6.08-6.077c.37-.372.63-.528,1.149-.108,1.378,1.117,2.831,2.142,4.257,3.2.159.118.333.3.5.3.54.018.485.352.483.721-.008,3.083-.014,6.167.007,9.25,0,.425-.138.558-.527.683-2.79.9-5.567,1.831-8.352,2.744a14.61,14.61,0,0,1-5.982.469,12.942,12.942,0,0,1-5.459-1.858q-5.59-3.349-11.178-6.7a2.8,2.8,0,0,1-1.565-2.954,2.5,2.5,0,0,1,2.245-2.181,10.876,10.876,0,0,1,7.858,2.87c1.566,1.344,3.226,2.579,4.833,3.878a.61.61,0,0,0,.448.107c2.847,0,5.694,0,8.541.01.319,0,.443-.056.432-.41-.028-.888-.025-1.778,0-2.666.01-.335-.08-.427-.419-.421-1.339.021-2.677.009-4.016.009Z" transform="translate(-92.173 -44.516)" fill="#efc4a4"/>
        <path id="Trazado_818563" data-name="Trazado 818563" d="M207.327,44.478a3.678,3.678,0,0,1-1.287,3.1q-7.111,7.122-14.22,14.246c-.538.539-1.081,1.074-1.6,1.627a.394.394,0,0,1-.638.046c-1.433-1.137-2.885-2.249-4.318-3.386a19.822,19.822,0,0,0-2.308-1.38c-.3-.18-.379-.3-.089-.592,4.977-4.971,9.932-9.964,14.927-14.916.7-.7,1.408-1.4,2.132-2.083a4.448,4.448,0,0,1,6.852.876,5.04,5.04,0,0,1,.552,2.465" transform="translate(-102.925 -22.484)" fill="#adc869"/>
        <path id="Trazado_818564" data-name="Trazado 818564" d="M159.62,109.4c-1.5,1.563-2.991,3.136-4.5,4.7-1.046,1.08-2.119,2.132-3.165,3.212-.223.23-.351.276-.6.024q-2.894-2.905-5.815-5.784c-.2-.2-.157-.325.038-.518q3-2.959,5.963-5.946a.543.543,0,0,1,.854-.082c1.732,1.186,3.58,2.186,5.37,3.28.66.4,1.325.8,1.858,1.119" transform="translate(-81.924 -59.065)" fill="#adc869"/>
        <path id="Trazado_818565" data-name="Trazado 818565" d="M32.826,231.362c2.717,0,5.434.007,8.151-.008.363,0,.5.062.489.463-.033.868-.022,1.739,0,2.609.007.3-.074.4-.387.4q-8.314-.014-16.628,0c-.331,0-.381-.122-.376-.409.016-.851.028-1.7,0-2.554-.016-.4.085-.512.5-.509,2.753.021,5.507.011,8.26.011" transform="translate(-13.559 -130.346)" fill="#efc4a4"/>
        <path id="Trazado_818566" data-name="Trazado 818566" d="M157.237,70.8l-.211.006a.185.185,0,0,0-.217.021,6.285,6.285,0,0,0-5.208,3.89,4.845,4.845,0,0,0-.3,3.387.7.7,0,0,1-.228.812c-.534.489-1.048,1-1.54,1.534-.293.316-.513.285-.818.02a3.206,3.206,0,0,1-.324-4.433c.743-.842,1.552-1.625,2.347-2.42,2.46-2.462,4.909-4.937,7.4-7.368a8.062,8.062,0,0,1,5.269-2.339c.863-.056,1.716-.048,2.577-.089.029.245-.124.335-.234.444q-3.192,3.191-6.382,6.384a.765.765,0,0,1-.671.258c-.451-.045-.9-.072-1.355-.106h-.107" transform="translate(-83.189 -35.96)" fill="#efc4a4"/>
        <path id="Trazado_818567" data-name="Trazado 818567" d="M136.866,134.213a1.091,1.091,0,0,1-1.073-1.6c.545-1.464,1.14-2.909,1.714-4.363.139-.352.271-.707.413-1.058.1-.244.206-.368.453-.1,1.419,1.522,2.817,3.064,4.36,4.466.216.2.258.359-.1.5-1.684.65-3.36,1.322-5.039,1.984a1.575,1.575,0,0,1-.731.173" transform="translate(-76.448 -71.522)" fill="#adc869"/>
        <path id="Trazado_818568" data-name="Trazado 818568" d="M168.626,79.81a.185.185,0,0,1,.217-.021.17.17,0,0,1-.217.021" transform="translate(-95.006 -44.94)" fill="#848d9a"/>
        <path id="Trazado_818569" data-name="Trazado 818569" d="M169.606,79.81h0" transform="translate(-95.558 -44.966)" fill="#848d9a"/>
        <path id="Trazado_818570" data-name="Trazado 818570" d="M76.889,47.867q10.144,0,20.287-.011c.452,0,.564.106.561.56-.023,3.028-.011,6.056-.012,9.085,0,.609-.206.814-.817.814q-20.233,0-40.465.01c-.4,0-.513-.083-.51-.5q.029-4.733,0-9.466c0-.41.1-.5.506-.5q10.225.02,20.45.01m-.074,3.5H74.15c-4.714,0-9.428.009-14.142-.014-.5,0-.606.136-.578.6.04.668.006,1.341.012,2.012,0,.306-.076.673.065.9s.473-.124.742-.048a1.224,1.224,0,0,0,.325,0H90.653c1.052,0,2.1-.013,3.155.007.321.006.441-.06.43-.412-.029-.833-.039-1.67,0-2.5.023-.461-.116-.558-.563-.557q-8.431.025-16.862.011" transform="translate(-31.513 -26.963)" fill="#060607"/>
        <path id="Trazado_818571" data-name="Trazado 818571" d="M91.161,115.162c-3.588,0-7.176-.006-10.764.008-.4,0-.569-.065-.545-.518.042-.813.035-1.632,0-2.446-.017-.416.088-.541.525-.538,3.3.021,6.6.011,9.894.011,3.9,0,7.792.006,11.688-.008.4,0,.57.064.546.518-.042.813-.035,1.632,0,2.446.017.416-.089.541-.526.538-3.606-.019-7.212-.011-10.818-.011" transform="translate(-44.988 -62.915)" fill="#060607"/>
        <path id="Trazado_818572" data-name="Trazado 818572" d="M91.123,83.258c-3.588,0-7.176-.007-10.764.01-.411,0-.518-.1-.5-.507.034-.851.021-1.7,0-2.555-.006-.3.034-.441.4-.44q10.927.018,21.854,0c.309,0,.4.089.39.394-.019.869-.033,1.741,0,2.609.019.427-.125.5-.515.5-3.624-.015-7.248-.009-10.872-.009" transform="translate(-44.992 -44.942)" fill="#060607"/>
        <path id="Trazado_818573" data-name="Trazado 818573" d="M89.384,147.07c-3.008,0-6.015-.009-9.023.01-.406,0-.522-.1-.505-.5.035-.85.021-1.7,0-2.554-.006-.3.028-.444.4-.443q9.186.02,18.372,0c.306,0,.4.082.393.391-.02.888-.026,1.776,0,2.664.012.368-.111.443-.455.441-3.062-.013-6.124-.007-9.186-.007" transform="translate(-44.991 -80.893)" fill="#060607"/>
        <path id="Trazado_818574" data-name="Trazado 818574" d="M89.446,131.12c-3.026,0-6.052-.007-9.078.009-.389,0-.534-.067-.515-.494.038-.868.024-1.74,0-2.609-.007-.3.077-.4.389-.4q9.187.014,18.373,0c.293,0,.41.059.4.382-.021.888-.033,1.777,0,2.664.017.424-.162.451-.5.45-3.026-.011-6.052-.007-9.078-.007" transform="translate(-44.99 -71.909)" fill="#060607"/>
        <path id="Trazado_818575" data-name="Trazado 818575" d="M87.683,99.214c-2.446,0-4.892-.008-7.337.008-.364,0-.5-.065-.489-.464.033-.887.021-1.776,0-2.663-.005-.278.064-.371.358-.37q7.473.013,14.946,0c.33,0,.381.122.375.408-.016.87-.025,1.74,0,2.609.012.375-.082.485-.471.482-2.464-.019-4.928-.01-7.391-.01" transform="translate(-44.992 -53.932)" fill="#060607"/>
        <path id="Trazado_818576" data-name="Trazado 818576" d="M125.515,99.213c-.47,0-.941-.013-1.41.005-.268.01-.384-.047-.377-.351.02-.922.016-1.845,0-2.767,0-.267.046-.384.35-.377.922.02,1.845.016,2.767,0,.267,0,.384.046.377.35-.02.922-.021,1.845,0,2.767.008.33-.12.389-.407.375-.433-.02-.868-.005-1.3-.005" transform="translate(-69.709 -53.932)" fill="#060607"/>
        <path id="Trazado_818577" data-name="Trazado 818577" d="M94.808,19.45c-2.158,0-4.315-.013-6.472.011-.417,0-.516-.115-.5-.514.031-.869.019-1.741,0-2.611,0-.275.064-.375.359-.375q6.609.014,13.217,0c.293,0,.366.095.361.372-.015.907-.025,1.814,0,2.72.012.368-.143.4-.445.4-2.176-.01-4.351-.005-6.527-.005" transform="translate(-49.486 -8.993)" fill="#060607"/>
        <path id="Trazado_818578" data-name="Trazado 818578" d="M163.013,17.753a1.721,1.721,0,0,1-1.742,1.714,1.9,1.9,0,0,1-1.624-1.8,1.684,1.684,0,1,1,3.366.085" transform="translate(-89.946 -9)" fill="#060607"/>
        <path id="Trazado_818579" data-name="Trazado 818579" d="M147.061,17.725a1.737,1.737,0,0,1-1.707,1.752,1.9,1.9,0,0,1-1.657-1.821,1.683,1.683,0,1,1,3.364.069" transform="translate(-80.959 -9.007)" fill="#060607"/>
        <path id="Trazado_818580" data-name="Trazado 818580" d="M90.3,175.5c2.248,0,4.5-.009,6.744,0a3.6,3.6,0,0,1,3.56,2.644,5.839,5.839,0,0,1-.47,3.577,6.393,6.393,0,0,1-2.208,2.735,8.545,8.545,0,0,1-3.156,1.432,2.209,2.209,0,0,1-.477.048c-2.774,0-5.549.054-8.321-.013a6.2,6.2,0,0,1-3.352-1.384,8.444,8.444,0,0,1-2.4-3.128,4.773,4.773,0,0,1,.538-4.8,3.633,3.633,0,0,1,2.85-1.108c2.23-.013,4.46,0,6.69,0m.01,3.486c-2.193,0-4.387.009-6.581-.009-.342,0-.414.091-.414.42a2.851,2.851,0,0,0,1.118,2.17,3.256,3.256,0,0,0,2.251.9c2.3-.005,4.606-.038,6.906.019a3.506,3.506,0,0,0,3.635-2.933c.068-.348.074-.585-.445-.578-2.157.034-4.314.014-6.472.014" transform="translate(-44.962 -98.878)" fill="#060607"/>
        <path id="Trazado_818581" data-name="Trazado 818581" d="M81.318,55.874q8.431,0,16.862-.011c.448,0,.586.1.563.557-.042.832-.031,1.669,0,2.5.012.352-.108.418-.43.412-1.051-.02-2.1-.007-3.155-.007H65.077a1.224,1.224,0,0,1-.325,0c-.269-.076-.593.288-.742.047s-.062-.593-.065-.9c-.006-.671.028-1.344-.012-2.012-.028-.461.081-.6.578-.6,4.714.023,9.428.014,14.142.014h2.665" transform="translate(-36.016 -31.473)" fill="#efc4a4"/>
        <path id="Trazado_818582" data-name="Trazado 818582" d="M94.838,183.473c2.157,0,4.315.02,6.472-.014.519-.008.513.229.445.578a3.506,3.506,0,0,1-3.635,2.933c-2.3-.058-4.6-.024-6.906-.019a3.258,3.258,0,0,1-2.251-.9,2.852,2.852,0,0,1-1.118-2.171c0-.329.072-.423.414-.42,2.193.017,4.387.009,6.581.01" transform="translate(-49.492 -103.362)" fill="#f6f8fa"/>
      </g>
    </g>
  </g>
</svg>
