<svg id="Grupo_1071847" data-name="Grupo 1071847" xmlns="http://www.w3.org/2000/svg" xmlns:xlink="http://www.w3.org/1999/xlink" width="127.77" height="131.667" viewBox="0 0 127.77 131.667">
  <defs>
    <clipPath id="clip-path">
      <rect id="Rectángulo_376465" data-name="Rectángulo 376465" width="127.77" height="131.667" fill="none"/>
    </clipPath>
  </defs>
  <g id="Grupo_1071845" data-name="Grupo 1071845" clip-path="url(#clip-path)">
    <path id="Trazado_816030" data-name="Trazado 816030" d="M88.219,131.143a3.284,3.284,0,0,0-.612-.216c-.443-.066-.745-.105-.98.532-.66,1.787-3,3.645-4.986,3.493a7.874,7.874,0,0,1-2.28-.161.559.559,0,0,0-.547.165,43.919,43.919,0,0,1-9.031,5.689,48.322,48.322,0,0,1-7.273,2.719,40.623,40.623,0,0,1-5,1.218c-1.235.19-2.473.359-3.708.549a37.027,37.027,0,0,1-6.017.131,23.18,23.18,0,0,1-4.987-.9A18.773,18.773,0,0,1,38.728,143a17.246,17.246,0,0,1-5.64-4.294,28.875,28.875,0,0,1-2.569-4.222,6.526,6.526,0,0,1-.593-2.956c-.037-.706-.048-1.413-.068-2.12a.412.412,0,0,0-.366-.467,41.015,41.015,0,0,1-8.608-3.038,37.205,37.205,0,0,1-7.811-4.851,26.366,26.366,0,0,1-6.762-7.811,17.024,17.024,0,0,1-2.035-5.626,12.859,12.859,0,0,1,2.461-9.987A17.516,17.516,0,0,1,16.577,91.3a33.321,33.321,0,0,1,5.506-1.123,20.545,20.545,0,0,1,5.7-.083c.893.164,1.822.054,2.742.144a43.317,43.317,0,0,1,4.894.874,47.36,47.36,0,0,1,12.99,5.014,28.706,28.706,0,0,1,7.453,5.835,1.252,1.252,0,0,0,1.526.355,34.22,34.22,0,0,1,4.584-1.076c1.07-.181,1.2-.411,1.039-1.507a5.34,5.34,0,0,1,1.337-4.261,4.625,4.625,0,0,1,2.519-1.722,7.289,7.289,0,0,1,3.947.066,1.481,1.481,0,0,0,1.023.057.765.765,0,0,0,.324-1.226c-.283-.315-.612-.59-.888-.911a.833.833,0,0,0-1.02-.215,5.945,5.945,0,0,1-6.217-.684,5.615,5.615,0,0,1-2.209-3.984,5.765,5.765,0,0,1,3.164-6.09,6.076,6.076,0,0,1,8.761,4.281,5.04,5.04,0,0,1-.424,3.482.762.762,0,0,0,.06.947,9.453,9.453,0,0,0,.949.952c.4.356.79.1,1.146-.1.375-.206.267-.52.128-.841A6,6,0,0,1,79.746,81.3a5.93,5.93,0,0,1,6.839,3.39.93.93,0,0,0,1.109.63c.6-.09.544-.544.589-1A1.861,1.861,0,0,0,87,82.23a5.837,5.837,0,0,1-1.3-9.483A7.422,7.422,0,0,1,87.25,71.6a41.666,41.666,0,0,1-4.144-3.211,38.946,38.946,0,0,1-3.76-3.836,41.661,41.661,0,0,1-3.988-5.684,19.553,19.553,0,0,1-1.691-3.807A19.073,19.073,0,0,1,72.59,48.3a14.134,14.134,0,0,1,9.521-12.576,25.847,25.847,0,0,1,10.795-1.372A44.8,44.8,0,0,1,104.6,37.067a44.087,44.087,0,0,1,12.079,6.8,36.118,36.118,0,0,1,8.1,8.445,26.87,26.87,0,0,1,3.448,6.771,17.383,17.383,0,0,1,1.162,6.411c-.262,3.988-1.582,7.586-4.8,10.123a18.753,18.753,0,0,1-7.271,3.427,31.435,31.435,0,0,1-8.241.689c-.934-.023-1.919-.349-2.838-.452-1.275-.143-2.491-.455-3.731-.7a31.457,31.457,0,0,1-4.583-1.438,7.367,7.367,0,0,1-1.638-.621c-.22-.144-.451-.09-.463.311A6.234,6.234,0,0,1,92.1,82.463c-.455.235-.705.466-.623,1,.048.318-.025.652.016.972s-.248.828.38.873c.492.035.895.08,1.194-.585a5.613,5.613,0,0,1,5.721-3.481,6.157,6.157,0,0,1,5.135,3.4,6.091,6.091,0,0,1,.1,4.811c-.236.52.023.756.333.986a.755.755,0,0,0,1.011-.052c.371-.333.717-.694,1.082-1.035.218-.2.212-.382.078-.655a5.928,5.928,0,1,1,11.019-4.244c.527,2.187.314,4.3-1.486,5.954a5.852,5.852,0,0,1-6.09,1.346c-.391-.123-.85-.481-1.186-.24A8.668,8.668,0,0,0,107.317,93c-.182.214.291.853.64.865a2.588,2.588,0,0,0,.735-.046,8.686,8.686,0,0,1,3.8-.109,5.921,5.921,0,0,1,4.216,5.468,5.7,5.7,0,0,1-2.382,5.066,2.754,2.754,0,0,1-1.028.546c-.712.147-.73.626-.671,1.162.07.622.564.469.971.523a1.943,1.943,0,0,0,2.3-1.285c1.377-2.767,4.392-3.684,7.332-2.654a6.262,6.262,0,0,1,3.666,5.318,5.823,5.823,0,0,1-3.045,5.531,5.489,5.489,0,0,1-4.894.344,6.012,6.012,0,0,1-3.568-3.6.968.968,0,0,0-.128-.268,6.753,6.753,0,0,0-2.559,0c-.287.279-.005,1.217.4,1.422a6.021,6.021,0,0,1,3.483,4.057,5.9,5.9,0,0,1-4.34,7.2,5.762,5.762,0,0,1-3.7-.19c-.609-.235-.909.143-1.254.473a.327.327,0,0,0-.01.416c.037.06.121.091.163.15a2.26,2.26,0,0,0,2.959,1.035,5.621,5.621,0,0,1,7.1,3.794,5.792,5.792,0,0,1-3.214,7.368c-3.423,1.5-6.537.057-8.033-3.262a5.164,5.164,0,0,1,.216-4.671.583.583,0,0,0-.139-.841c-.374-.33-.694-.724-1.084-1.031-.18-.142-.544-.4-.688-.167-.211.341-.8.511-.556,1.112a6.561,6.561,0,0,1,.383,1.345,5.926,5.926,0,0,1-11.217,3.553,1.354,1.354,0,0,0-1.53-.555c-.043.021-.116.051-.117.078-.019.694-.067,1.391-.028,2.083.02.37.416.417.709.542a5.934,5.934,0,0,1,3.509,6.522c-.771,3.166-3.07,5.134-6.27,4.985a5.958,5.958,0,0,1-5.446-4.693,6.212,6.212,0,0,1,3.482-6.831,1.114,1.114,0,0,0,.8-1.341,11.089,11.089,0,0,1-.052-1.268h.026ZM50.937,141.9a31.142,31.142,0,0,0,5.412-.436,44.884,44.884,0,0,0,10.888-3.343,37.862,37.862,0,0,0,15.571-12,21.055,21.055,0,0,0,2.449-4.045,23.46,23.46,0,0,0,.949-3.1,10.832,10.832,0,0,0-.214-6.587,11.524,11.524,0,0,0-4.429-5.4,14.992,14.992,0,0,0-4.343-2.117,24.467,24.467,0,0,0-5.635-.978,35.094,35.094,0,0,0-8.891.572,46.336,46.336,0,0,0-7.383,1.969,52.544,52.544,0,0,0-5.78,2.6,35.473,35.473,0,0,0-4.2,2.558,33.5,33.5,0,0,0-8.477,8.035,21.246,21.246,0,0,0-3.2,6.286,14.315,14.315,0,0,0-.483,4.728,9.646,9.646,0,0,0,2.216,5.636,14.043,14.043,0,0,0,6.567,4.344,25.535,25.535,0,0,0,8.991,1.272M90.765,37.6a20.6,20.6,0,0,0-8.577,1.682c-4.963,2.447-6.682,6.408-6.254,11.213a17.178,17.178,0,0,0,2.077,6.171,34.1,34.1,0,0,0,7.208,9.09,38.8,38.8,0,0,0,5.65,4.221,35.96,35.96,0,0,0,5.881,3.242,39.394,39.394,0,0,0,12.725,3.168,22.323,22.323,0,0,0,9.189-1.189,10.786,10.786,0,0,0,6.284-5.326,11.168,11.168,0,0,0,.662-8.327,18.462,18.462,0,0,0-2.33-5.431,42.219,42.219,0,0,0-2.642-3.779A43.144,43.144,0,0,0,100.678,39.2,32.179,32.179,0,0,0,90.765,37.6M26.252,93.241a29.541,29.541,0,0,0-10.5,1.805,18.835,18.835,0,0,0-3.624,1.931,10.107,10.107,0,0,0-3.893,12.47c1.841,4.5,5.172,7.69,8.978,10.471a34.67,34.67,0,0,0,5.138,3.021,42.583,42.583,0,0,0,7.034,2.634.7.7,0,0,0,.984-.555A19.722,19.722,0,0,1,32.586,120a23.966,23.966,0,0,1,1.973-2.819c.514-.607.474-.662-.275-.83-.9-.2-1.784-.445-2.672-.685a27.251,27.251,0,0,1-13.161-8.329,21.083,21.083,0,0,1-3.1-4.569c-.3-.584-.19-.9.449-1.116a15.474,15.474,0,0,0,1.783-.77c.341-.163.556-.11.728.229A12.007,12.007,0,0,0,19,102.353a24.75,24.75,0,0,0,17.737,10.992,1.969,1.969,0,0,0,1.777-.513A42.162,42.162,0,0,1,52.4,104.045c.4-.152.519-.607.168-.833-1.092-.7-1.952-1.693-3.023-2.4a44.124,44.124,0,0,0-10.214-5.226,43.451,43.451,0,0,0-13.083-2.342m63.557,30.829a2.965,2.965,0,0,1-.477,0,1.457,1.457,0,0,0-1.9,1.12,5.45,5.45,0,0,1-.917,1.528c-.405.528-.3.724.332.812a22.408,22.408,0,0,0,5.131.075,3.417,3.417,0,0,1,2.322.146,3.932,3.932,0,0,1,1.862,2.317,2.544,2.544,0,0,0,2.546,1.677,2.721,2.721,0,0,0,2.019-4.22,2.885,2.885,0,0,1,.729-3.545,15.726,15.726,0,0,0,3.933-3.864,3.163,3.163,0,0,1,4.076-1.063,2.545,2.545,0,0,0,2.358.153,2.751,2.751,0,0,0,1.635-2.394,3.1,3.1,0,0,0-2.142-2.606c-1.127-.321-1.529-1.349-2.173-2.138-.1-.119-.048-.395-.007-.585a17.959,17.959,0,0,0,.183-5.631c-.057-.587-.381-1.367-.123-1.722.644-.884,1.15-2.038,2.479-2.2a1.73,1.73,0,0,0,1.053-.661,2.547,2.547,0,0,0,.035-3.465,2.677,2.677,0,0,0-3.383-.568,2.913,2.913,0,0,1-3.756-.794,18.1,18.1,0,0,0-4.117-4.108,3.12,3.12,0,0,1-.806-3.675,2.9,2.9,0,0,0,.186-2.349,2.732,2.732,0,0,0-2.6-1.769A2.468,2.468,0,0,0,96,86.52a3.373,3.373,0,0,1-2.775,2.289,15.33,15.33,0,0,1-1.692-.177,12.031,12.031,0,0,0-4.131.078,3.159,3.159,0,0,1-3.653-2.144,2.529,2.529,0,0,0-1.893-1.925,2.6,2.6,0,0,0-2.867,1.046,2.326,2.326,0,0,0-.023,2.89,2.848,2.848,0,0,1,.356,1.843c-.019.48-.02,1.2-.582,1.559A18.033,18.033,0,0,0,74,96.558a2.015,2.015,0,0,1-1.674.949,3.987,3.987,0,0,1-2.093-.284A2.648,2.648,0,0,0,66.2,99.606c.008.678.312,1.03,1,.939a17.711,17.711,0,0,1,2.74-.126c.516.012,1.034.159,1.544.13a21.6,21.6,0,0,1,3.829.416c1.728.206,3.317,1.022,5.079,1.12a5.471,5.471,0,0,1,4.172,2.263c.576.756,1.155,1.508,1.773,2.23a12.585,12.585,0,0,1,2.6,3.961c.377,1.1.808,1.884,2.141,1.577a.471.471,0,0,1,.222.022,6.222,6.222,0,0,1,4.507,7.269c-.508,2.364-3.062,5.028-5.994,4.663m30.953-13.311a2.81,2.81,0,0,0,2.885-2.7,2.754,2.754,0,0,0-2.675-2.6,2.526,2.526,0,0,0-2.594,2.628,2.491,2.491,0,0,0,2.385,2.669m-11.51,19.486a2.609,2.609,0,0,0,2.58,2.543,2.642,2.642,0,1,0,.04-5.283,2.591,2.591,0,0,0-2.621,2.74M111.9,88.728a2.533,2.533,0,0,0,2.612-2.5,2.871,2.871,0,0,0-2.69-2.782,2.721,2.721,0,0,0-2.583,2.41,2.661,2.661,0,0,0,2.662,2.876M89.876,136.65a2.623,2.623,0,0,0-2.686,2.541,2.772,2.772,0,0,0,2.535,2.74,2.73,2.73,0,0,0,2.753-2.666,2.613,2.613,0,0,0-2.6-2.615M89.9,74.429a2.561,2.561,0,0,0-2.713,2.551,2.482,2.482,0,0,0,2.654,2.6,2.6,2.6,0,0,0,2.637-2.574A2.489,2.489,0,0,0,89.9,74.429M67.839,88.722a2.633,2.633,0,0,0,.008-5.265A2.762,2.762,0,0,0,65.153,86.1a2.716,2.716,0,0,0,2.686,2.627m24.64,29.205a2.9,2.9,0,0,0-1.726-2.311c-.443-.205-.655-.177-.706.407-.117,1.327-.307,2.647-.491,3.968-.031.223-.292.474,0,.637a1.237,1.237,0,0,0,.764.131,3.418,3.418,0,0,0,2.156-2.831" transform="translate(-1.635 -13.652)" fill="#060708"/>
    <path id="Trazado_816031" data-name="Trazado 816031" d="M40.514,63.645c-.209-1.639.8-2.958,1.894-4.207.332-.379.451-.652.22-1.091a3.54,3.54,0,0,1-.333-.83c-.132-.558-.525-.55-.971-.547-.5,0-.594.262-.665.7a7.23,7.23,0,0,1-1.025,3.162,5.962,5.962,0,0,1-7.652,2.185,5.759,5.759,0,0,1-3.287-5.1c-.035-.443.182-.952-.609-1.138-.635-.149-.78.008-1.023.52-.44.925-.693,1.609.224,2.552a5.45,5.45,0,0,1,1.075,5.41,5.772,5.772,0,0,1-5.307,4.178,5.917,5.917,0,0,1-4.2-1.224,6.708,6.708,0,0,1-2.139-3.467,5.747,5.747,0,0,1,1.136-4.929,5.84,5.84,0,0,1,4.685-2.377c.689-.043,1.217-.181,1.386-.967a1.124,1.124,0,0,1,.194-.537c.283-.305.379-.631,0-.884-.347-.232-.7-.572-1.174-.088a5.8,5.8,0,0,1-5.132,1.681,5.271,5.271,0,0,1-3.589-1.937,6.26,6.26,0,0,1-1-6.36,4.478,4.478,0,0,1,1.242-1.771,1.015,1.015,0,0,0,.214-1.213c-.161-.4-.587-.285-.936-.236-.146.02-.294.027-.439.046-1.162.152-1.282,1.038-1.4,1.952a5.888,5.888,0,0,1-4.154,5.054C4.028,53.578.066,50.028,0,46.6A6.212,6.212,0,0,1,6.88,40.376a5.973,5.973,0,0,1,3.586,1.935c.316.35.481.33.86.1a3.794,3.794,0,0,1,1.19-.287c.627-.131.428-.627.439-1.016.013-.476-.334-.46-.675-.475a6.815,6.815,0,0,1-3.823-1.366,5.057,5.057,0,0,1-1.723-2.247,6.1,6.1,0,0,1-.171-4.32,5.678,5.678,0,0,1,4.94-4.046c.387-.046.776-.1,1.158-.171.209-.041.554-.127.469-.358-.117-.316.36-.653-.147-.96-.527-.319-1.138-.416-1.648-.758-.238-.159-.389.107-.544.268a5.922,5.922,0,0,1-5.121,1.947,5.8,5.8,0,0,1-4.175-2.713C-.207,23.394,0,21.5,1.381,19.253a5.625,5.625,0,0,1,4.374-2.625,5.722,5.722,0,0,1,5.7,2.7,5.271,5.271,0,0,1,.887,3.423.773.773,0,0,0,.664.954,4.534,4.534,0,0,1,.81.35.883.883,0,0,0,1.232-.4c.33-.468.046-.718-.22-1.028a5.814,5.814,0,0,1-.3-7.745c2.163-2.911,6.289-2.708,8.578-.765.171.145.331.306.515.434a.831.831,0,0,0,1.018-.047.624.624,0,0,0,.27-.818c-.155-.5-.387-.97-.566-1.461-.079-.22-.237-.234-.414-.226a6.374,6.374,0,0,1-2.241-.314,5.7,5.7,0,0,1-3-2.228A6.406,6.406,0,0,1,17.5,6.33a6.083,6.083,0,0,1,1.016-3.72C20.813-.963,26-.671,28.283,2.293c1.565,2.035,1.655,6-.519,7.883-.232.2-.69.408-.553.8a8.25,8.25,0,0,0,.885,1.853c.149.224.586.06.895-.062.26-.1.295-.265.305-.508A6.091,6.091,0,0,1,33.941,6.4a5.593,5.593,0,0,1,4.975,1.063,5.891,5.891,0,0,1,2.359,4.879c-.019.526.307.668.717.771a.786.786,0,0,0,.939-.5c.22-.427.351-.9.555-1.333.143-.3-.1-.4-.238-.549a6.435,6.435,0,0,1-1.76-5.91A5.432,5.432,0,0,1,45.083.756a7.79,7.79,0,0,1,2.2-.437c2.582-.17,5.436,2.3,5.878,4.7a6.027,6.027,0,0,1-2.364,6.3,5.446,5.446,0,0,1-3.651,1.118c-.508-.031-.822.081-.948.617a3.305,3.305,0,0,1-.375.877c-.221.379-.218.661.178.926s.738.369,1.112-.015a5.211,5.211,0,0,1,2.644-1.515A6,6,0,0,1,56.9,17.2,5.707,5.707,0,0,1,55.541,23.3a.854.854,0,0,0-.219,1.074.772.772,0,0,0,1.022.334c1.436-.532,1.515-.238,1.606-1.926a5.522,5.522,0,0,1,2.777-4.472c2.239-1.407,6.458-1.124,8.1,1.837a7.139,7.139,0,0,1,1.081,3.4,5.666,5.666,0,0,1-2.862,4.974A5.949,5.949,0,0,1,59.6,27.59c-.358-.434-.793-.341-1.221-.235a3.534,3.534,0,0,0-.811.358c-.283.154-.807.183-.673.638.117.4.209.868.884.917a5.893,5.893,0,0,1,4.634,2.363c1.635,2.254,1.7,5.819-.374,7.761a7.153,7.153,0,0,1-4.561,1.966c-.572.035-.641.359-.75.723-.126.421.127.644.494.772a.228.228,0,0,1,.067.028c1.129.856,1.916.256,2.875-.467A5.808,5.808,0,0,1,68.944,44.7a5.993,5.993,0,0,1-2.528,7.867,5.068,5.068,0,0,1-2.84.7,6.126,6.126,0,0,1-5.691-4.2,5.721,5.721,0,0,1-.251-2.033.737.737,0,0,0-.6-.874,10.664,10.664,0,0,1-1.027-.413.729.729,0,0,0-1,.258.753.753,0,0,0,.039,1.035,8.535,8.535,0,0,1,1.249,2.014,5.134,5.134,0,0,1,.4,2.71,6.017,6.017,0,0,1-5.028,5.381c-2,.448-3.637-.4-5.1-1.691-.226-.2-.336-.721-.778-.351-.371.31-.91.423-.644,1.256.4,1.25,1.136,1.517,2.331,1.695A5.474,5.474,0,0,1,52.353,62.7a6.032,6.032,0,0,1-2.484,6.052,5.409,5.409,0,0,1-4.784,1.024,5.935,5.935,0,0,1-4.168-3.648,6.154,6.154,0,0,1-.4-2.484M37.933,12.668c-.006-1.709-.586-2.579-1.888-2.953a2.641,2.641,0,0,0-2.917,1.16A3.377,3.377,0,0,0,32.79,12.9a3.048,3.048,0,0,1-2.241,2.917c-.6.154-1.191.347-1.783.529a17.9,17.9,0,0,0-3.533,1.571,2.891,2.891,0,0,1-3.856-.831,2.74,2.74,0,0,0-4.3.07,2.63,2.63,0,0,0,.518,3.555,2.984,2.984,0,0,1,.67,4.024,17.886,17.886,0,0,0-2.277,5.632,1.2,1.2,0,0,1-.625.795,5,5,0,0,1-3.087.855,2.467,2.467,0,0,0-2.558,2.529,2.681,2.681,0,0,0,2.851,2.7,3.747,3.747,0,0,1,3.014,1.138.763.763,0,0,1,.272.512A17.405,17.405,0,0,0,18,44.741a2.933,2.933,0,0,1-.788,3.79,2.741,2.741,0,0,0-1.139,2.559,2.789,2.789,0,0,0,2.1,2.19,2.724,2.724,0,0,0,2.853-1.145A3.228,3.228,0,0,1,24.3,51.4a19.754,19.754,0,0,0,5.916,2.532,1.889,1.889,0,0,1,1.208.9,4.773,4.773,0,0,1,.638,2.7,2.545,2.545,0,0,0,2.627,2.7,2.622,2.622,0,0,0,2.6-2.709,4.46,4.46,0,0,1,.822-2.7,1.319,1.319,0,0,1,.993-.742,17.414,17.414,0,0,0,5.768-2.246,3.092,3.092,0,0,1,3.679.842,2.529,2.529,0,0,0,2.68,1.075,2.592,2.592,0,0,0,2.086-1.9,2.474,2.474,0,0,0-.931-2.731c-.9-.682-1-1.747-1.259-2.733a.615.615,0,0,1,.143-.473,20.492,20.492,0,0,0,2.737-6.152,1.9,1.9,0,0,1,.981-1.243,4.895,4.895,0,0,1,2.84-.655,2.486,2.486,0,0,0,2.44-2.656,2.425,2.425,0,0,0-2.458-2.452,4.79,4.79,0,0,1-2.853-.855,1.5,1.5,0,0,1-.765-1.045,18.9,18.9,0,0,0-2.432-6.207,1.221,1.221,0,0,1-.173-1,4.307,4.307,0,0,1,1.437-2.52,2.556,2.556,0,0,0,.09-3.889,2.662,2.662,0,0,0-4,.395,3.038,3.038,0,0,1-3.711.648,18.131,18.131,0,0,0-5.664-2.4,1.144,1.144,0,0,1-.88-.506c-.443-.9-1.152-1.722-.931-2.721M22.656,60.928A2.485,2.485,0,0,0,20.042,63.4a2.783,2.783,0,0,0,2.684,2.818,2.73,2.73,0,0,0,2.6-2.574,2.662,2.662,0,0,0-2.668-2.719M63.944,20.9A2.538,2.538,0,0,0,61.295,23.4a2.768,2.768,0,0,0,2.649,2.77,2.593,2.593,0,0,0,2.628-2.581,2.544,2.544,0,0,0-2.628-2.7M26.091,6.048a2.631,2.631,0,0,0-2.585-2.7A2.867,2.867,0,0,0,20.8,6.021,2.945,2.945,0,0,0,23.5,8.632a2.536,2.536,0,0,0,2.587-2.584M9,22.682A2.513,2.513,0,0,0,6.385,20a2.708,2.708,0,0,0-2.674,2.468c-.033,1.229,1.431,2.879,2.539,2.793C8.2,25.109,9.091,23.916,9,22.682M49.024,63.945a2.578,2.578,0,1,0-2.438,2.561,2.513,2.513,0,0,0,2.438-2.561M63.547,44.735A2.463,2.463,0,0,0,60.966,47.3a2.62,2.62,0,0,0,5.238.1,2.619,2.619,0,0,0-2.657-2.661m-57.562-.9a2.579,2.579,0,0,0-2.572,2.512,2.621,2.621,0,0,0,2.576,2.64A2.669,2.669,0,0,0,8.7,46.39a2.614,2.614,0,0,0-2.718-2.554M47.323,3.8a2.39,2.39,0,0,0-2.547,2.554,2.572,2.572,0,0,0,2.669,2.6,2.447,2.447,0,0,0,2.477-2.5,2.386,2.386,0,0,0-2.6-2.646" transform="translate(0 0)" fill="#060708"/>
    <path id="Trazado_816032" data-name="Trazado 816032" d="M143.916,195.29l.024,0h-.024" transform="translate(-57.333 -77.799)" fill="#d22224"/>
    <path id="Trazado_816033" data-name="Trazado 816033" d="M70.169,187.951a25.54,25.54,0,0,1-8.991-1.272,14.046,14.046,0,0,1-6.566-4.344A9.653,9.653,0,0,1,52.4,176.7a14.314,14.314,0,0,1,.484-4.728,21.231,21.231,0,0,1,3.2-6.286,33.487,33.487,0,0,1,8.476-8.035,35.4,35.4,0,0,1,4.2-2.558,52.441,52.441,0,0,1,5.78-2.6,46.365,46.365,0,0,1,7.383-1.97,35.145,35.145,0,0,1,8.891-.572,24.5,24.5,0,0,1,5.635.979,15,15,0,0,1,4.343,2.117,11.528,11.528,0,0,1,4.429,5.4,10.839,10.839,0,0,1,.214,6.587,23.468,23.468,0,0,1-.95,3.1,21.04,21.04,0,0,1-2.448,4.045,37.864,37.864,0,0,1-15.572,12,44.852,44.852,0,0,1-10.887,3.342,31.142,31.142,0,0,1-5.412.437m1.556-11.26c1.187-.1,2.38-.27,3.569-.472a28.246,28.246,0,0,0,13.143-6.038,28.678,28.678,0,0,0,7.39-8.823c.455-.846.792-1.757,1.174-2.641.146-.336.146-.645-.281-.78-.661-.209-1.318-.443-1.991-.6-.475-.114-.893-.109-1.049.572a10.034,10.034,0,0,1-1.481,2.971A26.288,26.288,0,0,1,69.82,173.437a20.456,20.456,0,0,1-9.1-1.759c-.368-.173-.532-.078-.7.257-.319.648-.666,1.284-1.02,1.915-.259.461-.152.739.353.907s.976.377,1.47.55a29.031,29.031,0,0,0,10.9,1.384" transform="translate(-20.867 -59.701)" fill="#d22224"/>
    <path id="Trazado_816034" data-name="Trazado 816034" d="M138.285,39.809A32.18,32.18,0,0,1,148.2,41.4a43.144,43.144,0,0,1,19.959,13.14,42.092,42.092,0,0,1,2.642,3.779,18.462,18.462,0,0,1,2.33,5.431,11.168,11.168,0,0,1-.662,8.327,10.786,10.786,0,0,1-6.284,5.326,22.325,22.325,0,0,1-9.189,1.189,39.394,39.394,0,0,1-12.725-3.168,35.961,35.961,0,0,1-5.881-3.242,38.867,38.867,0,0,1-5.65-4.221,34.1,34.1,0,0,1-7.207-9.09,17.167,17.167,0,0,1-2.077-6.171c-.428-4.805,1.292-8.766,6.255-11.213a20.581,20.581,0,0,1,8.576-1.682m22.459,28.125a20.451,20.451,0,0,0,6.173-1.1c.528-.171.691-.376.442-.9a12.164,12.164,0,0,1-.659-1.667c-.183-.6-.5-.669-1.066-.511a20.114,20.114,0,0,1-5.649.824,25.735,25.735,0,0,1-11.22-2.489A26.465,26.465,0,0,1,137.2,51.087a13.727,13.727,0,0,1-1.562-3.96c-.119-.582-.339-.706-.791-.641-.738.107-1.464.3-2.2.4-.353.048-.353.229-.388.5-.072.558.278.973.416,1.458a21.607,21.607,0,0,0,3.287,6.683,28.138,28.138,0,0,0,10.794,9.4,31.7,31.7,0,0,0,13.992,3" transform="translate(-49.157 -15.857)" fill="#d22224"/>
    <path id="Trazado_816035" data-name="Trazado 816035" d="M28.456,132.291a43.454,43.454,0,0,1,13.083,2.342,44.124,44.124,0,0,1,10.214,5.226c1.071.711,1.931,1.7,3.023,2.4.35.225.229.68-.168.833a42.151,42.151,0,0,0-13.891,8.786,1.968,1.968,0,0,1-1.778.513A24.749,24.749,0,0,1,21.2,141.4a11.834,11.834,0,0,1-.686-1.245c-.172-.339-.387-.392-.728-.229A15.585,15.585,0,0,1,18,140.7c-.639.213-.753.531-.449,1.115a21.083,21.083,0,0,0,3.1,4.569,27.254,27.254,0,0,0,13.161,8.329c.887.24,1.775.483,2.672.685.749.168.789.223.274.83a24.034,24.034,0,0,0-1.973,2.819,19.722,19.722,0,0,0-2.213,5.02.7.7,0,0,1-.984.555,42.665,42.665,0,0,1-7.034-2.634,34.581,34.581,0,0,1-5.137-3.021c-3.806-2.781-7.137-5.967-8.978-10.471a10.108,10.108,0,0,1,3.892-12.47,18.857,18.857,0,0,1,3.624-1.931,29.538,29.538,0,0,1,10.5-1.805" transform="translate(-3.839 -52.702)" fill="#d22224"/>
    <path id="Trazado_816036" data-name="Trazado 816036" d="M130.929,157.339c2.932.366,5.486-2.3,5.994-4.663a6.222,6.222,0,0,0-4.506-7.269.471.471,0,0,0-.222-.022c-1.334.307-1.764-.478-2.141-1.577a12.6,12.6,0,0,0-2.6-3.961c-.618-.722-1.2-1.473-1.774-2.23a5.47,5.47,0,0,0-4.172-2.263c-1.763-.1-3.351-.913-5.079-1.12a21.613,21.613,0,0,0-3.829-.416c-.51.029-1.028-.118-1.544-.13a17.7,17.7,0,0,0-2.74.126c-.683.091-.988-.261-1-.939a2.648,2.648,0,0,1,4.033-2.382,3.988,3.988,0,0,0,2.093.284,2.014,2.014,0,0,0,1.674-.949,18.045,18.045,0,0,1,4.74-4.578c.563-.356.563-1.079.582-1.558a2.846,2.846,0,0,0-.356-1.843,2.328,2.328,0,0,1,.023-2.89,2.605,2.605,0,0,1,2.867-1.046,2.53,2.53,0,0,1,1.893,1.925,3.159,3.159,0,0,0,3.654,2.144,12.031,12.031,0,0,1,4.131-.078,15.3,15.3,0,0,0,1.692.177,3.373,3.373,0,0,0,2.774-2.289,2.469,2.469,0,0,1,2.288-1.99,2.732,2.732,0,0,1,2.6,1.769,2.893,2.893,0,0,1-.185,2.349,3.12,3.12,0,0,0,.806,3.675,18.083,18.083,0,0,1,4.116,4.108,2.913,2.913,0,0,0,3.756.794,2.678,2.678,0,0,1,3.384.568,2.547,2.547,0,0,1-.036,3.465,1.729,1.729,0,0,1-1.053.661c-1.328.166-1.835,1.32-2.478,2.2-.259.356.066,1.135.122,1.722a17.941,17.941,0,0,1-.183,5.631c-.042.19-.09.466.007.585.645.788,1.046,1.817,2.173,2.138a3.1,3.1,0,0,1,2.142,2.606,2.75,2.75,0,0,1-1.635,2.394,2.546,2.546,0,0,1-2.359-.153,3.162,3.162,0,0,0-4.075,1.063,15.735,15.735,0,0,1-3.933,3.864,2.885,2.885,0,0,0-.729,3.545,2.721,2.721,0,0,1-2.018,4.22,2.544,2.544,0,0,1-2.547-1.677,3.932,3.932,0,0,0-1.862-2.317,3.417,3.417,0,0,0-2.322-.146,22.409,22.409,0,0,1-5.131-.075c-.627-.088-.738-.283-.332-.812a5.452,5.452,0,0,0,.918-1.528,1.457,1.457,0,0,1,1.9-1.12,2.97,2.97,0,0,0,.477,0m15.963-15.864a5.87,5.87,0,0,0-6.032-6.146,6.093,6.093,0,0,0-.037,12.185,5.836,5.836,0,0,0,6.069-6.039M130.8,125.458c-2.077-.376-3.494.9-4.725,2.486a5.117,5.117,0,0,0-1.117,2.277,6.214,6.214,0,0,0,3.31,6.613,5.581,5.581,0,0,0,5.925-.242,6.01,6.01,0,0,0,2.8-4.458c.461-4.066-3.1-7.1-6.2-6.676" transform="translate(-42.755 -46.922)" fill="#543282"/>
    <path id="Trazado_816037" data-name="Trazado 816037" d="M196.431,157.9a2.492,2.492,0,0,1-2.385-2.669,2.527,2.527,0,0,1,2.594-2.628,2.755,2.755,0,0,1,2.676,2.6,2.81,2.81,0,0,1-2.885,2.7" transform="translate(-77.303 -60.795)" fill="#543282"/>
    <path id="Trazado_816038" data-name="Trazado 816038" d="M178.874,191.984a2.592,2.592,0,0,1,2.621-2.74,2.642,2.642,0,1,1-.04,5.283,2.609,2.609,0,0,1-2.58-2.543" transform="translate(-71.258 -75.391)" fill="#543282"/>
    <path id="Trazado_816039" data-name="Trazado 816039" d="M181.523,121.29a2.661,2.661,0,0,1-2.662-2.876,2.72,2.72,0,0,1,2.583-2.41,2.872,2.872,0,0,1,2.691,2.782,2.533,2.533,0,0,1-2.612,2.5" transform="translate(-71.255 -46.214)" fill="#543282"/>
    <path id="Trazado_816040" data-name="Trazado 816040" d="M144.893,204.446a2.614,2.614,0,0,1,2.6,2.615,2.73,2.73,0,0,1-2.753,2.666,2.773,2.773,0,0,1-2.536-2.739,2.624,2.624,0,0,1,2.686-2.542" transform="translate(-56.653 -81.447)" fill="#543282"/>
    <path id="Trazado_816041" data-name="Trazado 816041" d="M144.92,101.023A2.49,2.49,0,0,1,147.5,103.6a2.6,2.6,0,0,1-2.637,2.574,2.481,2.481,0,0,1-2.654-2.6,2.561,2.561,0,0,1,2.713-2.551" transform="translate(-56.653 -40.246)" fill="#543282"/>
    <path id="Trazado_816042" data-name="Trazado 816042" d="M108.265,121.295a2.715,2.715,0,0,1-2.686-2.627,2.761,2.761,0,0,1,2.694-2.638,2.633,2.633,0,0,1-.008,5.265" transform="translate(-42.061 -46.223)" fill="#543282"/>
    <path id="Trazado_816043" data-name="Trazado 816043" d="M148.973,171.718a3.418,3.418,0,0,1-2.156,2.831,1.237,1.237,0,0,1-.764-.131c-.3-.162-.034-.413,0-.637.184-1.321.374-2.641.491-3.968.052-.584.264-.612.706-.407a2.9,2.9,0,0,1,1.726,2.311" transform="translate(-58.129 -67.443)" fill="#f6f8fa"/>
    <path id="Trazado_816044" data-name="Trazado 816044" d="M44.363,19.037c-.221,1,.489,1.819.931,2.721a1.144,1.144,0,0,0,.88.507,18.117,18.117,0,0,1,5.664,2.4,3.038,3.038,0,0,0,3.711-.648,2.662,2.662,0,0,1,4-.4,2.556,2.556,0,0,1-.09,3.889,4.308,4.308,0,0,0-1.437,2.521,1.22,1.22,0,0,0,.173,1,18.909,18.909,0,0,1,2.432,6.207,1.5,1.5,0,0,0,.765,1.045,4.784,4.784,0,0,0,2.853.855A2.426,2.426,0,0,1,66.7,41.584a2.486,2.486,0,0,1-2.44,2.656,4.895,4.895,0,0,0-2.84.655,1.907,1.907,0,0,0-.981,1.243A20.485,20.485,0,0,1,57.7,52.29a.616.616,0,0,0-.143.473c.256.985.36,2.051,1.259,2.733a2.472,2.472,0,0,1,.931,2.731,2.592,2.592,0,0,1-2.086,1.9,2.529,2.529,0,0,1-2.68-1.074,3.092,3.092,0,0,0-3.679-.842,17.44,17.44,0,0,1-5.768,2.246,1.317,1.317,0,0,0-.993.741,4.462,4.462,0,0,0-.822,2.7,2.622,2.622,0,0,1-2.6,2.708,2.544,2.544,0,0,1-2.627-2.7,4.774,4.774,0,0,0-.638-2.7,1.891,1.891,0,0,0-1.208-.9,19.738,19.738,0,0,1-5.916-2.532,3.23,3.23,0,0,0-3.278.733A2.724,2.724,0,0,1,24.6,59.65a2.792,2.792,0,0,1-2.1-2.19,2.744,2.744,0,0,1,1.139-2.56,2.932,2.932,0,0,0,.788-3.79,17.408,17.408,0,0,1-2.146-5.84.764.764,0,0,0-.272-.512,3.747,3.747,0,0,0-3.014-1.137,2.68,2.68,0,0,1-2.85-2.7A2.468,2.468,0,0,1,18.7,38.389a5.006,5.006,0,0,0,3.087-.854,1.2,1.2,0,0,0,.625-.795,17.884,17.884,0,0,1,2.277-5.633,2.984,2.984,0,0,0-.67-4.024,2.63,2.63,0,0,1-.518-3.554,2.741,2.741,0,0,1,4.3-.071,2.891,2.891,0,0,0,3.856.831A17.916,17.916,0,0,1,35.2,22.718c.593-.182,1.183-.375,1.783-.529a3.048,3.048,0,0,0,2.241-2.917,3.38,3.38,0,0,1,.337-2.028,2.643,2.643,0,0,1,2.917-1.161c1.3.375,1.882,1.245,1.888,2.954m7,13.091a5.9,5.9,0,0,0-5.921-6.043,6.074,6.074,0,0,0-.072,12.148,5.877,5.877,0,0,0,5.992-6.105M38.32,37.436c.019-3.781-2.505-6.13-6.672-6.071a5.889,5.889,0,0,0-5.4,5.759,6.118,6.118,0,0,0,5.988,6.324,6.021,6.021,0,0,0,6.087-6.013m-.7,6.919a6,6,0,0,0-6.135,5.4A6.071,6.071,0,0,0,36.8,56.485a6.134,6.134,0,0,0,6.772-5.65,6.28,6.28,0,0,0-5.954-6.481m18.994.9a5.95,5.95,0,0,0-6.008-6.081,6.073,6.073,0,1,0,6.008,6.081" transform="translate(-6.43 -6.369)" fill="#543282"/>
    <path id="Trazado_816045" data-name="Trazado 816045" d="M35.928,101.265a2.663,2.663,0,0,1,2.669,2.719,2.731,2.731,0,0,1-2.6,2.574,2.782,2.782,0,0,1-2.684-2.818,2.484,2.484,0,0,1,2.614-2.476" transform="translate(-13.272 -40.337)" fill="#543282"/>
    <path id="Trazado_816046" data-name="Trazado 816046" d="M104.532,34.717a2.544,2.544,0,0,1,2.628,2.7A2.594,2.594,0,0,1,104.532,40a2.769,2.769,0,0,1-2.649-2.771,2.538,2.538,0,0,1,2.649-2.509" transform="translate(-40.588 -13.821)" fill="#543282"/>
    <path id="Trazado_816047" data-name="Trazado 816047" d="M39.863,8.267a2.536,2.536,0,0,1-2.587,2.584A2.945,2.945,0,0,1,34.571,8.24a2.868,2.868,0,0,1,2.708-2.669,2.631,2.631,0,0,1,2.585,2.7" transform="translate(-13.772 -2.219)" fill="#543282"/>
    <path id="Trazado_816048" data-name="Trazado 816048" d="M11.459,35.923c.088,1.235-.8,2.427-2.752,2.577-1.108.085-2.571-1.565-2.539-2.794a2.707,2.707,0,0,1,2.674-2.468,2.512,2.512,0,0,1,2.617,2.685" transform="translate(-2.457 -13.241)" fill="#543282"/>
    <path id="Trazado_816049" data-name="Trazado 816049" d="M78.072,104.485a2.513,2.513,0,0,1-2.438,2.561,2.646,2.646,0,1,1,2.438-2.561" transform="translate(-29.049 -40.54)" fill="#543282"/>
    <path id="Trazado_816050" data-name="Trazado 816050" d="M103.918,74.357a2.579,2.579,0,1,1,.029,5.156,2.586,2.586,0,0,1-2.61-2.595,2.462,2.462,0,0,1,2.581-2.562" transform="translate(-40.371 -29.622)" fill="#543282"/>
    <path id="Trazado_816051" data-name="Trazado 816051" d="M8.245,72.862a2.615,2.615,0,0,1,2.718,2.554,2.669,2.669,0,0,1-2.715,2.6,2.62,2.62,0,0,1-2.575-2.64,2.578,2.578,0,0,1,2.571-2.512" transform="translate(-2.26 -29.027)" fill="#543282"/>
    <path id="Trazado_816052" data-name="Trazado 816052" d="M76.973,6.323a2.386,2.386,0,0,1,2.6,2.646,2.447,2.447,0,0,1-2.477,2.5,2.572,2.572,0,0,1-2.669-2.6,2.39,2.39,0,0,1,2.547-2.554" transform="translate(-29.65 -2.519)" fill="#543282"/>
    <path id="Trazado_816053" data-name="Trazado 816053" d="M76.02,181.6a29.03,29.03,0,0,1-10.9-1.384c-.493-.173-.973-.386-1.47-.55s-.611-.445-.353-.907c.354-.631.7-1.267,1.02-1.915.165-.336.33-.431.7-.257a20.455,20.455,0,0,0,9.1,1.759,26.288,26.288,0,0,0,22.379-12.561,10.034,10.034,0,0,0,1.481-2.971c.156-.681.575-.686,1.049-.572.673.162,1.33.4,1.991.6.427.135.427.443.281.78-.382.884-.72,1.795-1.174,2.641a28.678,28.678,0,0,1-7.39,8.823,28.246,28.246,0,0,1-13.143,6.038c-1.189.2-2.382.374-3.569.472" transform="translate(-25.162 -64.613)" fill="#060708"/>
    <path id="Trazado_816054" data-name="Trazado 816054" d="M166.608,72.349a31.7,31.7,0,0,1-13.992-3,28.138,28.138,0,0,1-10.794-9.4,21.607,21.607,0,0,1-3.287-6.683c-.138-.486-.488-.9-.416-1.458.035-.271.035-.451.388-.5.738-.1,1.464-.291,2.2-.4.452-.066.672.058.791.641a13.727,13.727,0,0,0,1.562,3.96,26.465,26.465,0,0,0,11.567,11.007A25.735,25.735,0,0,0,165.848,69a20.114,20.114,0,0,0,5.649-.824c.57-.158.883-.09,1.066.511a12.168,12.168,0,0,0,.659,1.667c.249.525.087.73-.442.9a20.451,20.451,0,0,1-6.173,1.1" transform="translate(-55.02 -20.272)" fill="#060708"/>
    <path id="Trazado_816055" data-name="Trazado 816055" d="M165.116,153.1a5.837,5.837,0,0,1-6.07,6.04,6.093,6.093,0,0,1,.037-12.185,5.871,5.871,0,0,1,6.032,6.145m-3.4-.042a2.668,2.668,0,0,0-2.585-2.7,2.637,2.637,0,0,0-.216,5.268c1.634-.062,2.87-.942,2.8-2.567" transform="translate(-60.979 -58.542)" fill="#060708"/>
    <path id="Trazado_816056" data-name="Trazado 816056" d="M142.419,130.5c3.1-.419,6.658,2.61,6.2,6.676a6.01,6.01,0,0,1-2.8,4.459,5.583,5.583,0,0,1-5.925.241,6.214,6.214,0,0,1-3.31-6.613,5.116,5.116,0,0,1,1.116-2.277c1.231-1.586,2.648-2.862,4.725-2.486m-2.484,5.739c-.016,1.488,1.194,2.967,2.532,2.914a2.651,2.651,0,0,0,2.748-2.569,2.7,2.7,0,0,0-2.612-2.716,2.663,2.663,0,0,0-2.668,2.37" transform="translate(-54.376 -51.962)" fill="#060708"/>
    <path id="Trazado_816057" data-name="Trazado 816057" d="M66.726,38.814a5.878,5.878,0,0,1-5.993,6.105,6.074,6.074,0,0,1,.072-12.148,5.9,5.9,0,0,1,5.921,6.043m-3.4.089a2.684,2.684,0,0,0-2.6-2.7,2.642,2.642,0,0,0,.1,5.283A2.518,2.518,0,0,0,63.325,38.9" transform="translate(-21.795 -13.055)" fill="#060708"/>
    <path id="Trazado_816058" data-name="Trazado 816058" d="M45.007,47.616a6.021,6.021,0,0,1-6.087,6.013,6.117,6.117,0,0,1-5.988-6.324,5.89,5.89,0,0,1,5.4-5.76c4.167-.06,6.691,2.29,6.672,6.071m-5.949-2.673A2.587,2.587,0,0,0,36.33,47.5a2.819,2.819,0,0,0,2.583,2.713,2.7,2.7,0,0,0,2.693-2.638,2.543,2.543,0,0,0-2.548-2.636" transform="translate(-13.117 -16.55)" fill="#060708"/>
    <path id="Trazado_816059" data-name="Trazado 816059" d="M47.757,63.137a6.281,6.281,0,0,1,5.953,6.481,6.134,6.134,0,0,1-6.772,5.65,6.071,6.071,0,0,1-5.317-6.731,6,6,0,0,1,6.136-5.4M47.6,66.578a2.6,2.6,0,0,0-2.6,2.615,2.752,2.752,0,0,0,2.573,2.69,2.846,2.846,0,0,0,2.714-2.653A2.736,2.736,0,0,0,47.6,66.578" transform="translate(-16.567 -25.153)" fill="#060708"/>
    <path id="Trazado_816060" data-name="Trazado 816060" d="M75.4,60.61a6.051,6.051,0,1,1-6.008-6.081A5.95,5.95,0,0,1,75.4,60.61m-3.409.035a2.638,2.638,0,1,0-5.276-.082,2.5,2.5,0,0,0,2.648,2.75,2.8,2.8,0,0,0,2.627-2.668" transform="translate(-25.217 -21.723)" fill="#060708"/>
    <path id="Trazado_816061" data-name="Trazado 816061" d="M163.946,155.307c.069,1.626-1.167,2.505-2.8,2.567a2.637,2.637,0,0,1,.216-5.268,2.668,2.668,0,0,1,2.585,2.7" transform="translate(-63.21 -60.795)" fill="#f6f8fa"/>
    <path id="Trazado_816062" data-name="Trazado 816062" d="M142.215,138.511a2.663,2.663,0,0,1,2.668-2.37,2.7,2.7,0,0,1,2.612,2.716,2.651,2.651,0,0,1-2.748,2.569c-1.338.053-2.548-1.426-2.532-2.914" transform="translate(-56.656 -54.236)" fill="#f6f8fa"/>
    <path id="Trazado_816063" data-name="Trazado 816063" d="M65.606,41.176A2.518,2.518,0,0,1,63.1,43.758a2.642,2.642,0,0,1-.1-5.283,2.684,2.684,0,0,1,2.6,2.7" transform="translate(-24.076 -15.328)" fill="#f6f8fa"/>
    <path id="Trazado_816064" data-name="Trazado 816064" d="M41.311,47.186a2.543,2.543,0,0,1,2.548,2.636,2.7,2.7,0,0,1-2.693,2.638,2.819,2.819,0,0,1-2.583-2.713,2.587,2.587,0,0,1,2.728-2.562" transform="translate(-15.37 -18.793)" fill="#f6f8fa"/>
    <path id="Trazado_816065" data-name="Trazado 816065" d="M49.867,68.856a2.736,2.736,0,0,1,2.689,2.653,2.846,2.846,0,0,1-2.714,2.653,2.752,2.752,0,0,1-2.573-2.69,2.6,2.6,0,0,1,2.6-2.615" transform="translate(-18.831 -27.431)" fill="#f6f8fa"/>
    <path id="Trazado_816066" data-name="Trazado 816066" d="M74.254,62.911a2.8,2.8,0,0,1-2.627,2.668,2.5,2.5,0,0,1-2.648-2.75,2.638,2.638,0,1,1,5.276.082" transform="translate(-27.48 -23.989)" fill="#f6f8fa"/>
  </g>
</svg>
