<svg id="Grupo_1071861" data-name="Grupo 1071861" xmlns="http://www.w3.org/2000/svg" xmlns:xlink="http://www.w3.org/1999/xlink" width="135.984" height="76.345" viewBox="0 0 135.984 76.345">
  <defs>
    <clipPath id="clip-path">
      <rect id="Rectángulo_376468" data-name="Rectángulo 376468" width="135.984" height="76.345" fill="none"/>
    </clipPath>
  </defs>
  <g id="Grupo_1071860" data-name="Grupo 1071860" transform="translate(0)" clip-path="url(#clip-path)">
    <path id="Trazado_816104" data-name="Trazado 816104" d="M3.017,3.91c.2-.052.408-.094.708-.163-.361-.419-.672-.723-.919-1.075a1.584,1.584,0,0,1,.151-2.2A1.469,1.469,0,0,1,5.142.5c.875.968,1.633,2.049,2.475,3.051a2.573,2.573,0,0,0,.962.766c1.268.482,2.558.906,3.852,1.306a.907.907,0,0,0,.763-.152,10.76,10.76,0,0,1,4.667-2.586A30.431,30.431,0,0,1,32.55,2.568c6.566,1.481,13.131,2.94,19.791,3.9a117.367,117.367,0,0,0,16.327,1.3c3.787.015,7.576-.291,11.361-.5a62.053,62.053,0,0,1,13.636.685,54.44,54.44,0,0,1,18.362,6.172.613.613,0,0,0,.879-.107,16.64,16.64,0,0,1,9.542-4.562,1.6,1.6,0,0,1,1.977,1.172,14.411,14.411,0,0,1,.866,7.832,13.926,13.926,0,0,1-2.582,6.088c1.033,1.179,2,2.28,2.961,3.379a.963.963,0,0,0,.249.232c1.624.837,3.254,1.643,5.159,1.331a6.782,6.782,0,0,1,1.148-.058,3.551,3.551,0,0,1,3.647,3.253,38.017,38.017,0,0,1-.012,5.949,3.412,3.412,0,0,1-3.211,3.315c-.666.1-1.35.051-2.022.113a4.726,4.726,0,0,0-1.237.247c-1.713.649-3.388,1.416-5.124,1.989a20.4,20.4,0,0,1-10.728,1.014,8.358,8.358,0,0,0-6.124.7c-.964.559-1.909,1.155-2.858,1.741a9.249,9.249,0,0,1-6.1,1.388,16.792,16.792,0,0,0-2.564-.164,3.257,3.257,0,0,0-2.5.879c-.668.758-1.267,1.585-1.864,2.407a6.248,6.248,0,0,0-1.165,3.1,10.734,10.734,0,0,1-.208,1.6,22.765,22.765,0,0,0-.186,9.732,6.921,6.921,0,0,0,1.86,4.1,7.339,7.339,0,0,1,1.275,1.885c1.022,1.912.067,3.617-2.058,3.647-2.619.037-5.239.028-7.858,0a3.108,3.108,0,0,1-3.082-2.373c-.128-.513-.348-.594-.8-.565-1.171.074-2.346.147-3.518.126A3.15,3.15,0,0,1,72.615,69.5c.171-.94.416-1.864.619-2.8a6.687,6.687,0,0,0,.356-3.092q-1.193-4.891-2.356-9.79c-.115-.484-.323-.561-.768-.46A77.975,77.975,0,0,1,58.55,55.1a84.736,84.736,0,0,1-28.494-2.959.683.683,0,0,0-.581.143q-2.7,2.912-5.354,5.861a3.244,3.244,0,0,0-.836,2.715c.183,1.294.424,2.578.625,3.869a2.266,2.266,0,0,0,.913,1.559,4.016,4.016,0,0,1,1.542,2.157,2.667,2.667,0,0,1-2.57,3.657c-.767-.007-1.534-.112-2.3-.094a1,1,0,0,0-.735.412,2.728,2.728,0,0,1-2.428,1.526c-2.031.039-4.064.084-6.094.019-1.885-.06-2.882-1.2-3.047-3.155a34.334,34.334,0,0,0-.472-3.608c-.636-3.3-1.414-6.565-1.969-9.875a12.727,12.727,0,0,1,1.093-7.85A18.339,18.339,0,0,0,9.58,44.49c.291-1.707.324-3.29-1.164-4.527a16.019,16.019,0,0,1-4.979-7.708,22.236,22.236,0,0,1-.11-13.113A15.957,15.957,0,0,1,6.77,12.318c1.121-1.177,2.369-2.226,3.554-3.338a4.291,4.291,0,0,0,.391-.5l-1.4-.5a1.945,1.945,0,0,0-.124.239,2.6,2.6,0,0,0-.086.339,4.24,4.24,0,0,1-3.581,3.7A4.322,4.322,0,0,1,.9,10.31C-.915,7.752.125,4.659,3.017,3.91m1.3,5.021c.6.063,1.187.073,1.518-.6.345-.7.081-1.186-.669-1.241-.156-.011-.314,0-.472,0a3.007,3.007,0,0,0-.4,0c-.429.061-.969-.014-1.024.638a1.378,1.378,0,0,0,1.05,1.2" transform="translate(0 0)" fill="#161615"/>
    <path id="Trazado_816105" data-name="Trazado 816105" d="M95.929,49.679c.082-.312.128-.533.2-.745a22.7,22.7,0,0,0,1.158-8.764A17.168,17.168,0,0,0,96.9,37.4a1.477,1.477,0,0,0-1.709-1.153A1.586,1.586,0,0,0,93.9,37.961c0,.234.026.468.026.7,0,1.726.117,3.464-.039,5.175a16.609,16.609,0,0,1-3.77,9.427,16.3,16.3,0,0,0-1.25,1.743,14.05,14.05,0,0,0-1.558,5.241,28.2,28.2,0,0,0-.446,9.264,14.662,14.662,0,0,0,1.884,6.156c.283.429.629.813.971,1.25H83.494c0-.179,0-.316,0-.452.038-1.916.133-3.834.1-5.75a17.366,17.366,0,0,0-.842-6.077c-1.168-3.008-2.348-6.014-3.639-8.965-1.269-2.9-2.2-5.787-1.119-8.987a1.419,1.419,0,0,0-.727-1.65,1.269,1.269,0,0,0-1.686.131,3.63,3.63,0,0,0-.771,1.283,9.913,9.913,0,0,0-.2,5.729c.135.584.03.809-.556.973a75.046,75.046,0,0,1-13.037,2.381,84.086,84.086,0,0,1-14.34.177,78.206,78.206,0,0,1-15.326-2.642c-1.56-.438-3.107-.927-4.725-1.412.118-.336.194-.575.286-.807a23.893,23.893,0,0,0,1.8-9.356,36.7,36.7,0,0,0-2.67-12.951,2.931,2.931,0,0,0-.319-.614,1.537,1.537,0,0,0-1.928-.534,1.58,1.58,0,0,0-.826,1.928,5.612,5.612,0,0,0,.229.734A30.078,30.078,0,0,1,25.42,40.541,20.3,20.3,0,0,1,22.566,52.52a21.1,21.1,0,0,1-5,5.285A6.894,6.894,0,0,0,14.8,63.039c-.1,1.8-.1,3.6-.15,5.4a6.408,6.408,0,0,0,1.724,4.921c.256.262.479.56.709.848.089.111.156.241.261.405-1.432,0-2.784-.028-4.134.015-.481.015-.543-.175-.58-.6a24.506,24.506,0,0,0-.381-2.913c-.546-2.553-1.224-5.077-1.717-7.64-.611-3.178-.829-6.351.751-9.37a18.264,18.264,0,0,0,1.835-6.124,6.811,6.811,0,0,0-1.965-6.124c-.361-.353-.714-.716-1.075-1.07a12.612,12.612,0,0,1-3.286-5.4A20.278,20.278,0,0,1,7.221,22.2a8.23,8.23,0,0,1,2.4-3.839,26.989,26.989,0,0,0,4.934-5.178A7.752,7.752,0,0,1,18.713,10.2,29.272,29.272,0,0,1,32.4,9.8c2.99.578,5.93,1.44,8.926,1.978,5.153.925,10.314,1.849,15.5,2.484a122.547,122.547,0,0,0,12.894.863c3.715.06,7.435-.366,11.156-.5a65.668,65.668,0,0,1,12.429.543,52.411,52.411,0,0,1,16.757,5.463c.253.134.49.3.6.364-.529,1.67-1.04,3.23-1.511,4.8a1.579,1.579,0,0,0,.5,1.651,1.524,1.524,0,0,0,1.651.284c.635-.218.849-.769,1.037-1.369a18.944,18.944,0,0,1,1.213-3.541c1.8-3.238,4.752-4.863,8.111-5.837.464-.134.524.134.592.5.743,3.96-.009,7.471-2.853,10.373-1.132,1.155-.938,2.258.52,2.937a7.9,7.9,0,0,1,3.54,3.149,1.948,1.948,0,0,0,.736.8A34.864,34.864,0,0,0,128.9,36.63a13.161,13.161,0,0,0,3.36.1c.382,0,.8-.012.8.506-.01,1.659-.061,3.317-.11,4.975-.01.37-.229.522-.589.5a12.8,12.8,0,0,1-1.954-.122c-1.228-.28-2.436-.663-3.647-1.023a1.51,1.51,0,0,0-1.7.546,1.447,1.447,0,0,0-.146,1.752c.118.219.249.431.443.766-1.01.322-1.96.659-2.928.926a18.2,18.2,0,0,1-8.707.437,10.322,10.322,0,0,0-7.178.941c-1.1.588-2.139,1.308-3.25,1.872a7.576,7.576,0,0,1-2.637,1,41.535,41.535,0,0,1-4.729-.12" transform="translate(-0.274 -4.002)" fill="#f8bbaa"/>
    <path id="Trazado_816106" data-name="Trazado 816106" d="M104.261,110.242c.217-.887.415-1.844.689-2.777a9.85,9.85,0,0,0,.021-5.512c-.774-2.852-1.409-5.745-2.105-8.62-.088-.364-.158-.716.346-.791.408-.06.855-.551,1.167.226.873,2.174,1.835,4.309,2.678,6.495a19.718,19.718,0,0,1,1.319,4.248c.291,2.072.262,4.193.346,6.294.006.141-.184.416-.287.419-1.369.028-2.739.019-4.173.019" transform="translate(-28.589 -40.245)" fill="#f8bbaa"/>
    <path id="Trazado_816107" data-name="Trazado 816107" d="M210.62,90.295c-1.364,1.448-2.685,2.819-3.973,4.222a7.154,7.154,0,0,0-2.128,5.892c.145,1.18.416,2.342.59,3.519a5.719,5.719,0,0,0,1.757,3.746c.019.016,0,.083-.008.174-1.485.093-2.9.239-3.881-1.413a5.06,5.06,0,0,1-.946-2.829c.051-1.683.094-3.367.086-5.05A3.444,3.444,0,0,1,203.7,95.5a20.452,20.452,0,0,0,4.8-4.8c.828-1.133.53-1.161,2.115-.412" transform="translate(-184.396 -39.134)" fill="#f8bbaa"/>
  </g>
</svg>
