<svg id="Grupo_1071877" data-name="Grupo 1071877" xmlns="http://www.w3.org/2000/svg" xmlns:xlink="http://www.w3.org/1999/xlink" width="83.871" height="106.4" viewBox="0 0 83.871 106.4">
  <defs>
    <clipPath id="clip-path">
      <rect id="Rectángulo_376471" data-name="Rectángulo 376471" width="83.871" height="106.4" fill="none"/>
    </clipPath>
  </defs>
  <g id="Grupo_1071876" data-name="Grupo 1071876" clip-path="url(#clip-path)">
    <path id="Trazado_816141" data-name="Trazado 816141" d="M69.6,93.2c.435.114.817.212,1.2.314,3.453.927,6.9,1.868,10.364,2.765a2.556,2.556,0,0,0,1.407-.034c1.294-.454,1.671-1.772.907-3.121q-3.145-5.553-6.335-11.081-3.346-5.8-6.738-11.567a.553.553,0,0,1,.115-.828,11.485,11.485,0,0,0,3.74-6.771,7.844,7.844,0,0,1,1.732-4.21,22.552,22.552,0,0,1,1.82-1.767,11.92,11.92,0,0,0,4.078-10.6,25.81,25.81,0,0,0-.834-3.253,21.683,21.683,0,0,1-.47-2.48,8.942,8.942,0,0,1,.742-4.044,11.016,11.016,0,0,0,.538-5.726,12.3,12.3,0,0,0-4.457-7.569,7.945,7.945,0,0,1-2.8-4.087c-.2-.731-.281-1.5-.473-2.231A11.579,11.579,0,0,0,67.02,8.5a16.881,16.881,0,0,0-3.1-.817A8.307,8.307,0,0,1,58.973,4.78a12.329,12.329,0,0,0-3.642-3.205A11.9,11.9,0,0,0,45.022.883,8.188,8.188,0,0,1,38.659.834,11.565,11.565,0,0,0,31.031.481,11.9,11.9,0,0,0,24.75,4.758a8.005,8.005,0,0,1-5.126,2.964,12.562,12.562,0,0,0-3.554,1.063,11.807,11.807,0,0,0-6.624,9,8.6,8.6,0,0,1-3.108,5.4A12.249,12.249,0,0,0,1.74,32.2a11.491,11.491,0,0,0,.793,4.622,7.937,7.937,0,0,1,.646,4.207,24.922,24.922,0,0,1-.845,3.093,11.4,11.4,0,0,0,.717,9.005A13.3,13.3,0,0,0,6.5,57.295,7.735,7.735,0,0,1,9.364,62.2a12.247,12.247,0,0,0,4.107,7.649c.227.2.18.339.048.568Q10.4,75.781,7.309,81.154,3.872,87.109.447,93.071a3.177,3.177,0,0,0-.439,1.2,2.041,2.041,0,0,0,2.621,2.046c2.484-.674,4.971-1.334,7.457-2,1.38-.369,2.761-.737,4.2-1.12.368,1.365.724,2.679,1.078,3.994.684,2.537,1.362,5.075,2.052,7.61a1.991,1.991,0,0,0,1.834,1.593,2.076,2.076,0,0,0,1.99-1.174c.621-1.039,1.247-2.076,1.853-3.124q4.308-7.458,8.6-14.923c1.242-2.159,2.463-4.33,3.71-6.486a1,1,0,0,1,.517-.431c1.056-.319,2.139-.55,3.184-.9a8.19,8.19,0,0,1,5.293-.074c.705.232,1.407.473,2.118.689a5.7,5.7,0,0,1,1.86.569,5.81,5.81,0,0,1,1.036,1.715q5.728,9.964,11.459,19.925c.621,1.079,1.248,2.157,1.924,3.2a1.951,1.951,0,0,0,2.747.716,2.312,2.312,0,0,0,1.016-1.507q1.088-4.084,2.183-8.166c.285-1.064.57-2.128.866-3.23" transform="translate(0 0)" fill="#fff"/>
    <path id="Trazado_816142" data-name="Trazado 816142" d="M69.6,93.2c-.3,1.1-.581,2.167-.866,3.23q-1.092,4.083-2.183,8.166a2.312,2.312,0,0,1-1.016,1.507,1.951,1.951,0,0,1-2.747-.716c-.676-1.045-1.3-2.123-1.924-3.2q-5.736-9.959-11.459-19.925a5.805,5.805,0,0,0-1.036-1.715,5.7,5.7,0,0,0-1.86-.569c-.71-.216-1.412-.457-2.118-.689a8.188,8.188,0,0,0-5.293.074c-1.045.348-2.128.58-3.184.9a1,1,0,0,0-.517.432c-1.247,2.156-2.468,4.327-3.71,6.486q-4.3,7.465-8.6,14.923c-.606,1.048-1.232,2.085-1.853,3.124a2.075,2.075,0,0,1-1.99,1.173,1.99,1.99,0,0,1-1.834-1.592c-.69-2.535-1.368-5.073-2.052-7.61-.354-1.315-.709-2.629-1.078-3.994-1.437.383-2.817.751-4.2,1.12-2.486.665-4.973,1.325-7.457,2A2.041,2.041,0,0,1,.009,94.271a3.175,3.175,0,0,1,.439-1.2Q3.863,87.1,7.309,81.154q3.1-5.37,6.209-10.735c.133-.229.18-.37-.048-.568A12.248,12.248,0,0,1,9.364,62.2,7.734,7.734,0,0,0,6.5,57.295,13.3,13.3,0,0,1,3.05,53.127a11.4,11.4,0,0,1-.717-9.005,24.9,24.9,0,0,0,.845-3.092,7.937,7.937,0,0,0-.646-4.207A11.491,11.491,0,0,1,1.74,32.2a12.249,12.249,0,0,1,4.6-9.024,8.6,8.6,0,0,0,3.108-5.4,11.807,11.807,0,0,1,6.624-9,12.562,12.562,0,0,1,3.554-1.063A8,8,0,0,0,24.75,4.757,11.9,11.9,0,0,1,31.031.481a11.565,11.565,0,0,1,7.628.353,8.188,8.188,0,0,0,6.363.049,11.9,11.9,0,0,1,10.31.692A12.327,12.327,0,0,1,58.973,4.78a8.307,8.307,0,0,0,4.951,2.906,16.881,16.881,0,0,1,3.1.817,11.579,11.579,0,0,1,7.118,8.4c.193.734.271,1.5.473,2.231a7.945,7.945,0,0,0,2.8,4.087,12.3,12.3,0,0,1,4.457,7.569,11.014,11.014,0,0,1-.538,5.725,8.944,8.944,0,0,0-.742,4.044,21.683,21.683,0,0,0,.47,2.48,25.81,25.81,0,0,1,.834,3.253,11.92,11.92,0,0,1-4.078,10.6,22.48,22.48,0,0,0-1.82,1.767,7.844,7.844,0,0,0-1.732,4.21,11.485,11.485,0,0,1-3.74,6.771.553.553,0,0,0-.115.828q3.381,5.776,6.739,11.567,3.19,5.527,6.335,11.081c.764,1.349.386,2.667-.907,3.121a2.556,2.556,0,0,1-1.407.034c-3.461-.9-6.91-1.838-10.364-2.765-.38-.1-.762-.2-1.2-.314M48.932,76.206a8.027,8.027,0,0,0,6.66-2.991,12.386,12.386,0,0,1,8.063-4.649A7.635,7.635,0,0,0,70.179,62.2a12.429,12.429,0,0,1,4.582-8.165,8.058,8.058,0,0,0,2.528-9.293,12.94,12.94,0,0,1-.881-4.819,14.756,14.756,0,0,1,1-4.642,7.846,7.846,0,0,0-.531-6.423,11.53,11.53,0,0,0-2.712-3.042,11.526,11.526,0,0,1-3.789-6.856A8.348,8.348,0,0,0,66.919,13.1a9.408,9.408,0,0,0-3.862-1.393,11.961,11.961,0,0,1-7.38-4.464,8.1,8.1,0,0,0-9.4-2.453,11.724,11.724,0,0,1-8.756.039,8.38,8.38,0,0,0-4.678-.505,8.208,8.208,0,0,0-4.891,3.088,11.834,11.834,0,0,1-7.664,4.352A7.838,7.838,0,0,0,13.561,18.2c-.108.543-.2,1.089-.335,1.625a12.628,12.628,0,0,1-4.542,6.827,7.856,7.856,0,0,0-2.3,8.76,18.812,18.812,0,0,1,.774,2.631A12.14,12.14,0,0,1,6.4,44.958a7.761,7.761,0,0,0,.071,5.776A9.242,9.242,0,0,0,9.4,54.371a10.908,10.908,0,0,1,3.47,5.075c.349,1.08.481,2.229.8,3.32a7.645,7.645,0,0,0,6.43,5.8A12.381,12.381,0,0,1,28.058,73.1a7.6,7.6,0,0,0,6.806,3.048,12.211,12.211,0,0,0,3-.728,11.726,11.726,0,0,1,8.119.046,9,9,0,0,0,2.945.736m3.911,3.774a1.622,1.622,0,0,0,.08.172q3.294,5.706,6.588,11.411c1.3,2.262,2.6,4.531,3.9,6.792a4.954,4.954,0,0,0,.437.552c.161-.621.288-1.123.422-1.622.615-2.3,1.213-4.612,1.853-6.909a2.044,2.044,0,0,1,2.758-1.619c2.625.674,5.236,1.4,7.854,2.108.236.063.475.113.848.2-.221-.387-.363-.639-.508-.89q-5.1-8.855-10.2-17.714c-.156-.271-.289-.361-.612-.264a13.956,13.956,0,0,1-2.061.508,8.166,8.166,0,0,0-5.579,3.347,9.3,9.3,0,0,1-2.85,2.464c-.937.535-1.933.969-2.934,1.463M6.391,90.926l.1.108c.331-.083.663-.161.993-.249C10,90.106,12.5,89.39,15.033,88.763a2.063,2.063,0,0,1,2.761,1.687c.709,2.6,1.407,5.2,2.11,7.806.054.2.115.4.21.722l10.957-19c-.835-.365-1.609-.662-2.345-1.033A11.642,11.642,0,0,1,25,75.847a8.087,8.087,0,0,0-4.571-2.953c-.961-.211-1.927-.4-2.885-.621-.307-.071-.422.059-.561.3Q12.079,81.089,7.155,89.6q-.383.664-.764,1.328" transform="translate(0 0)" fill="#161615"/>
    <path id="Trazado_816143" data-name="Trazado 816143" d="M57.153,82.051a9,9,0,0,1-2.945-.736,11.726,11.726,0,0,0-8.119-.046,12.23,12.23,0,0,1-3,.728,7.6,7.6,0,0,1-6.806-3.048,12.379,12.379,0,0,0-7.955-4.536,7.645,7.645,0,0,1-6.43-5.8c-.32-1.091-.452-2.24-.8-3.32a10.9,10.9,0,0,0-3.47-5.074A9.243,9.243,0,0,1,14.7,56.579a7.766,7.766,0,0,1-.071-5.776,12.134,12.134,0,0,0,.749-6.919,18.967,18.967,0,0,0-.774-2.631,7.855,7.855,0,0,1,2.3-8.76,12.627,12.627,0,0,0,4.542-6.827c.135-.536.228-1.082.335-1.624a7.838,7.838,0,0,1,6.726-6.433,11.833,11.833,0,0,0,7.663-4.352,8.213,8.213,0,0,1,4.891-3.088,8.376,8.376,0,0,1,4.678.506,11.73,11.73,0,0,0,8.756-.038,8.1,8.1,0,0,1,9.4,2.453,11.963,11.963,0,0,0,7.38,4.464,9.407,9.407,0,0,1,3.862,1.392A8.349,8.349,0,0,1,78.6,24.8a11.523,11.523,0,0,0,3.789,6.856A11.522,11.522,0,0,1,85.1,34.7a7.843,7.843,0,0,1,.532,6.423,14.756,14.756,0,0,0-1,4.641,12.93,12.93,0,0,0,.88,4.819,8.059,8.059,0,0,1-2.527,9.293A12.429,12.429,0,0,0,78.4,68.043a7.634,7.634,0,0,1-6.523,6.368,12.385,12.385,0,0,0-8.063,4.65,8.027,8.027,0,0,1-6.661,2.991M50.2,73.831c1.059-.091,2.271-.145,3.468-.307a26.066,26.066,0,0,0,16.661-8.862,26.35,26.35,0,0,0,6.213-23.681,26.066,26.066,0,0,0-6.618-12.67,27.04,27.04,0,0,0-9.614-6.645,2.11,2.11,0,0,0-2.893,1.1,2.044,2.044,0,0,0,1.317,2.705A22.746,22.746,0,0,1,69.04,33.717a22.485,22.485,0,0,1,3.882,15.168A21.75,21.75,0,0,1,66.811,62.37a22.147,22.147,0,0,1-16.277,7.212,21.977,21.977,0,0,1-13.989-4.507,23.552,23.552,0,0,1-6.953-8.331A22.316,22.316,0,0,1,27.568,43.2,22.156,22.156,0,0,1,38.1,27.276c1.205-.762,2.556-1.291,3.831-1.944a2,2,0,0,0,.362-3.4,2.106,2.106,0,0,0-2.337-.229,24.668,24.668,0,0,0-5.723,3.225C26.088,31.245,22.365,39.53,23.371,49.828A25.379,25.379,0,0,0,28.851,63.3C34.25,70.12,41.385,73.521,50.2,73.831M47.737,42.583c-.179-.209-.324-.4-.493-.573-1.155-1.171-2.3-2.349-3.476-3.5a2.081,2.081,0,0,0-3.239,0q-3.183,3.17-6.332,6.373a1.939,1.939,0,0,0-.188,2.646,4.264,4.264,0,0,0,.441.509q5.743,5.753,11.491,11.5a5.511,5.511,0,0,0,.547.478,1.965,1.965,0,0,0,2.493.022,9.674,9.674,0,0,0,.953-.879q7.418-7.42,14.83-14.846c.489-.49,1-.964,1.451-1.486a1.849,1.849,0,0,0-.061-2.7c-.5-.531-1.033-1.024-1.545-1.54q-2.394-2.417-4.784-4.838a2.03,2.03,0,0,0-3.08-.086c-.142.127-.274.264-.409.4q-4.092,4.1-8.186,8.194c-.106.106-.233.19-.415.336m2.435-18.726a2.171,2.171,0,0,0,2.074-2.116,2.1,2.1,0,0,0-2.084-2.028,2.127,2.127,0,0,0-2.082,2.04,2.184,2.184,0,0,0,2.092,2.1" transform="translate(-8.222 -5.846)" fill="#ffca00"/>
    <path id="Trazado_816144" data-name="Trazado 816144" d="M126.71,180.849c1-.494,2-.927,2.934-1.463a9.3,9.3,0,0,0,2.849-2.464,8.169,8.169,0,0,1,5.579-3.347,13.847,13.847,0,0,0,2.061-.508c.323-.1.456-.008.611.263q5.093,8.862,10.2,17.714c.144.251.287.5.508.89-.372-.088-.612-.136-.848-.2-2.617-.7-5.228-1.434-7.854-2.108a2.044,2.044,0,0,0-2.758,1.619c-.641,2.3-1.239,4.6-1.854,6.908-.133.5-.26,1-.421,1.622a4.993,4.993,0,0,1-.437-.551c-1.305-2.262-2.6-4.53-3.9-6.793q-3.29-5.708-6.588-11.411a1.625,1.625,0,0,1-.08-.172" transform="translate(-73.867 -100.87)" fill="#db0216"/>
    <path id="Trazado_816145" data-name="Trazado 816145" d="M15.324,191.927q.382-.664.764-1.328,4.918-8.511,9.832-17.025c.138-.24.254-.37.561-.3.958.222,1.925.409,2.885.621a8.087,8.087,0,0,1,4.571,2.953,11.642,11.642,0,0,0,3.722,3.1c.736.372,1.51.669,2.345,1.033l-10.957,19c-.1-.326-.156-.523-.21-.722-.7-2.6-1.4-5.205-2.11-7.806a2.063,2.063,0,0,0-2.761-1.687c-2.529.627-5.037,1.343-7.554,2.021-.329.088-.662.167-.993.249l-.1-.108" transform="translate(-8.933 -101.002)" fill="#db0216"/>
    <path id="Trazado_816146" data-name="Trazado 816146" d="M62.929,89.8c-8.815-.31-15.95-3.711-21.349-10.532A25.371,25.371,0,0,1,36.1,65.8C35.093,55.5,38.816,47.216,46.958,40.9a24.661,24.661,0,0,1,5.723-3.225,2.106,2.106,0,0,1,2.337.229,2,2,0,0,1-.362,3.405c-1.275.653-2.626,1.182-3.831,1.944a22.933,22.933,0,0,0-8.5,29.468,23.547,23.547,0,0,0,6.953,8.331,22.815,22.815,0,0,0,30.266-2.7,21.749,21.749,0,0,0,6.112-13.484,22.483,22.483,0,0,0-3.882-15.168,22.744,22.744,0,0,0-10.307-8.245,2.044,2.044,0,0,1-1.317-2.705,2.11,2.11,0,0,1,2.893-1.1,27.034,27.034,0,0,1,9.614,6.644A26.068,26.068,0,0,1,89.27,56.953a26.351,26.351,0,0,1-6.213,23.68A26.063,26.063,0,0,1,66.4,89.5c-1.2.163-2.408.216-3.468.308" transform="translate(-20.951 -21.817)" fill="#161615"/>
    <path id="Trazado_816147" data-name="Trazado 816147" d="M74.957,74.68c.181-.146.309-.23.414-.336q4.095-4.095,8.186-8.194c.134-.135.267-.272.409-.4a2.03,2.03,0,0,1,3.08.086q2.4,2.413,4.784,4.838c.512.516,1.049,1.008,1.545,1.539a1.849,1.849,0,0,1,.06,2.7c-.453.522-.961,1-1.45,1.486q-7.413,7.425-14.83,14.846a9.669,9.669,0,0,1-.953.879,1.965,1.965,0,0,1-2.493-.021,5.51,5.51,0,0,1-.547-.478q-5.748-5.747-11.491-11.5a4.059,4.059,0,0,1-.441-.509,1.939,1.939,0,0,1,.188-2.646q3.152-3.2,6.332-6.374a2.081,2.081,0,0,1,3.239.005c1.173,1.153,2.321,2.331,3.476,3.5.168.171.314.363.493.573m.023,12.761L88.761,73.688l-3.488-3.611a3.782,3.782,0,0,1-.386.556q-4.045,4.071-8.1,8.129c-1.249,1.248-2.338,1.242-3.586,0-1.178-1.172-2.357-2.342-3.524-3.525-.259-.261-.425-.3-.706,0-.7.746-1.436,1.452-2.157,2.176-.313.314-.621.633-.9.92l9.072,9.11" transform="translate(-35.442 -37.943)" fill="#161615"/>
    <path id="Trazado_816148" data-name="Trazado 816148" d="M97.666,37.4a2.184,2.184,0,0,1-2.092-2.1,2.127,2.127,0,0,1,2.082-2.04,2.1,2.1,0,0,1,2.084,2.028A2.171,2.171,0,0,1,97.666,37.4" transform="translate(-55.716 -19.384)" fill="#161615"/>
    <path id="Trazado_816149" data-name="Trazado 816149" d="M82.126,94.418l-9.072-9.11c.282-.288.591-.606.9-.92.721-.724,1.46-1.429,2.157-2.176.281-.3.447-.261.706,0,1.167,1.183,2.346,2.353,3.524,3.525,1.248,1.243,2.337,1.248,3.586,0q4.059-4.057,8.1-8.129a3.782,3.782,0,0,0,.386-.556l3.488,3.611L82.126,94.418" transform="translate(-42.588 -44.919)" fill="#db0216"/>
  </g>
</svg>
