<svg id="Grupo_1071884" data-name="Grupo 1071884" xmlns="http://www.w3.org/2000/svg" xmlns:xlink="http://www.w3.org/1999/xlink" width="110.284" height="109.819" viewBox="0 0 110.284 109.819">
  <defs>
    <clipPath id="clip-path">
      <rect id="Rectángulo_376473" data-name="Rectángulo 376473" width="110.284" height="109.819" fill="none"/>
    </clipPath>
  </defs>
  <g id="Grupo_1071883" data-name="Grupo 1071883" transform="translate(0)" clip-path="url(#clip-path)">
    <path id="Trazado_816151" data-name="Trazado 816151" d="M.025,60.233q0,1.759,0,3.519c1.24,0,2.48.03,3.719,0a43.8,43.8,0,0,0,4.7-.1A8.943,8.943,0,0,0,15.9,57.212a5.387,5.387,0,0,1,1.84-2.737,15.366,15.366,0,0,0,.453,3.342,6.594,6.594,0,0,0,2.284,3.293c1.307.962,2.685,1.828,4.031,2.739a.6.6,0,0,0,.759,0c1.281-.875,2.605-1.69,3.85-2.612a7.018,7.018,0,0,0,2.872-5.561,18.286,18.286,0,0,0,0-2.047c-.028-.441.137-.5.528-.5a7.9,7.9,0,0,1,1.641.137,5.031,5.031,0,0,1,2.73,1.41,7.438,7.438,0,0,1,1.759,4.6,8.907,8.907,0,0,0,.925,3.049A4.9,4.9,0,0,0,41.9,64.463c1.307.644,2.607,1.3,3.92,1.933a.6.6,0,0,1,.4.627,15.329,15.329,0,0,1-1.03,5.582,17.42,17.42,0,0,1-2.95,5,.558.558,0,0,1-.578.205c-1.186-.2-2.372-.389-3.563-.56-2.323-.334-4.638-.725-6.955-1.107A25.464,25.464,0,0,1,27,75.336,8.285,8.285,0,0,1,21.444,68c-.028-.423-.111-.785-.719-.711-.565.068-1.146,0-1.719.019-.4.012-.9-.176-1.171.092-.226.227.008.694.058,1.053a13.589,13.589,0,0,0,.98,3.84,10.981,10.981,0,0,0,2.976,4,.581.581,0,0,1,.2.706,18.979,18.979,0,0,0-.713,5.116,22.189,22.189,0,0,0,.011,2.268c.044.563-.161.641-.67.641Q10.355,85,.029,85.021.023,92.852.017,100.683c0,2.86.006,5.719-.008,8.578,0,.392.044.558.517.558q54.412-.02,108.822-.012h.222c.426,0,.62-.112.618-.634q-.035-11.788,0-23.576c0-.481-.1-.6-.594-.6-3.2.026-6.4.006-9.6.023-.381,0-.491-.079-.489-.475q.027-4.842,0-9.685c0-.383.084-.49.479-.485,1.943.023,3.887.02,5.829,0,.332,0,.634.173,1,.035.255-.1.3-.224.236-.381-.526-1.37-.612-2.851-1.1-4.229a8.166,8.166,0,0,0-5.5-5.512,6.922,6.922,0,0,0-1.244-.332.7.7,0,0,1-.618-.532A8.575,8.575,0,0,0,97,60.82a.732.732,0,0,1-.113-.98,6.4,6.4,0,0,0,.85-3.433,7.169,7.169,0,0,0-2.507-5.134,7.507,7.507,0,0,0-4.34-1.747,6.524,6.524,0,0,0-1.951.369,4.856,4.856,0,0,0-1.374.49,1.168,1.168,0,0,1-1.089-.067,2.977,2.977,0,0,0-.494-.209c-.311-.068-.362-.28-.315-.587.119-.784.171-1.577.295-2.36.183-1.163.255-2.338.41-3.5.1-.766.186-1.544.247-2.32.056-.723.153-1.442.226-2.163.022-.211.167-.2.318-.212a3.182,3.182,0,0,1,2.195.557c.73.514,1.48,1.013,2.241,1.462.733.433,1.462.882,2.191,1.323,1.423.86,2.826,1.755,4.237,2.634q2.626,1.636,5.251,3.273c.242.151.387.25.6-.1.931-1.583,1.917-3.134,2.863-4.709,1.162-1.935,2.3-3.884,3.457-5.824a.622.622,0,0,0,.026-.617c-.8-1.8-1.6-3.593-2.414-5.384-.979-2.151-1.952-4.3-2.967-6.437-.751-1.577-1.446-3.182-2.31-4.7a20.2,20.2,0,0,0-2.05-2.969.563.563,0,0,1-.09-.719c.78-1.471,1.685-2.869,2.544-4.293.528-.876,1.047-1.757,1.571-2.636.1-.174.205-.35.317-.518.57-.865.571-.864-.234-1.527-1.238-1.02-2.454-2.07-3.778-2.977a27.227,27.227,0,0,0-4.157-2.35A28.429,28.429,0,0,0,90.77.565,27.877,27.877,0,0,0,87.315.1,13.171,13.171,0,0,0,85.343.014a35.015,35.015,0,0,0-5.151.535A28.31,28.31,0,0,0,68.3,6.093a25.925,25.925,0,0,0-4.723,5.054,30.179,30.179,0,0,0-3.265,5.74c-.673,1.546-1.436,3.052-2.144,4.583-.418.9-.814,1.817-1.2,2.733-.3.71-.5.835-1.3.718-.343-.05-.689-.02-1.038-.074a1.145,1.145,0,0,1-.8-.471,24.593,24.593,0,0,1-2.881-4.3,12.453,12.453,0,0,1-.971-3.453,17.248,17.248,0,0,0-.472-3.351,3.643,3.643,0,0,0-2.94-2.5,4.194,4.194,0,0,0-4.626,2.3,20.112,20.112,0,0,0-2.522,6.964,23.972,23.972,0,0,0-.3,4.3c.01.4-.107.485-.489.476-1.164-.027-2.329-.01-3.525-.01.534,1.786.83,3.592,1.439,5.318a7.134,7.134,0,0,0,1.437,2.426.532.532,0,0,1,.038.795,13.607,13.607,0,0,1-3.8,3.677,12.023,12.023,0,0,1-5.279,1.86,14.455,14.455,0,0,1-1.866.088Q13.885,38.972.7,38.951c-.6,0-.724.169-.695.722.05.938.018,1.881.02,2.821.2,0,.406.013.61.013q13.269,0,26.538,0a17.264,17.264,0,0,0,1.977-.084,17.068,17.068,0,0,0,4.3-1.091A15.879,15.879,0,0,0,40.776,35.4c.323-.467.58-.438,1.019-.362a13.152,13.152,0,0,0,2.305.392c.269,0,.344-.08.341-.343-.012-.943-.006-1.886.008-2.828,0-.269-.048-.426-.362-.388a3.139,3.139,0,0,1-1.388-.254,4.8,4.8,0,0,1-3.1-3.251c.981,0,1.909-.054,2.828.012a4.36,4.36,0,0,1,3.777,2.241c.143.26.326.2.513.108.852-.42,1.692-.867,2.555-1.264.307-.142.252-.281.127-.488a8.37,8.37,0,0,0-3.109-3.068,8.958,8.958,0,0,0-3.125-1.014c-.166-.024-.505.06-.521-.329a.552.552,0,0,1,.371-.63c1.585-.644,3.176-1.271,4.8-1.822.168-.057.229-.1.327.085a54.542,54.542,0,0,0,3.731,5.378,1.641,1.641,0,0,0,1.587.781,7.659,7.659,0,0,1,5.213,1.428,7.127,7.127,0,0,1,2.868,4.948,25.408,25.408,0,0,0,.535,3.81,10.207,10.207,0,0,0,3.495,5.549,28.185,28.185,0,0,0,2.307,1.723,2.682,2.682,0,0,1,1.449,2.771c-.162,1.472.16,2.976-.239,4.445-.06.22-.139.452-.322.529-.216.091-.343-.165-.482-.3-1.517-1.514-3.039-3.023-4.536-4.555-.282-.288-.445-.213-.672.016-.559.565-1.111,1.136-1.694,1.675-.345.319-.3.539.017.851,1.562,1.521,3.106,3.06,4.652,4.6.1.1.271.148.246.335a5.409,5.409,0,0,1-6.63-1.638c-.695-.909-1.4-1.808-2.1-2.713a7.779,7.779,0,0,0-3.318-2.532c-1.27-.507-2.591-.854-3.872-1.323a6.862,6.862,0,0,1-2.209-1.234,5.629,5.629,0,0,1-1.957-3.963c-.013-.183-.069-.265-.26-.264-1.018,0-2.036.005-3.053,0-.2,0-.272.08-.238.261a15.935,15.935,0,0,0,.62,2.887A8.375,8.375,0,0,0,47.29,50.3c.938.478.922.509.457,1.4-.017.033-.039.063-.056.1a14.187,14.187,0,0,0-1.472,6.362,8.727,8.727,0,0,1-.98,3.545.4.4,0,0,1-.621.215,11.253,11.253,0,0,1-1.647-.906,1.573,1.573,0,0,1-.649-1.11c-.192-1.125-.295-2.273-.586-3.371a8.857,8.857,0,0,0-5.458-6.292,11.954,11.954,0,0,0-4.856-.64.789.789,0,0,1-.753-.4,6.764,6.764,0,0,0-7.006-2.979,6.68,6.68,0,0,0-4.747,3.26,2.1,2.1,0,0,1-1.01.882A9.907,9.907,0,0,0,15.727,51.6a8.534,8.534,0,0,0-2.948,4.047,8.93,8.93,0,0,1-1.254,2.578,4.772,4.772,0,0,1-3.619,1.95c-2.622.12-5.254.047-7.881.055M53.308,84.788a20.621,20.621,0,0,0,1.443-2.023,14.156,14.156,0,0,0,2.132-7.734,7.757,7.757,0,0,1,.916-4.139A7.14,7.14,0,0,1,68.84,69.184a6.478,6.478,0,0,1,2.208,4.166c.139,1.629.024,3.279.04,4.92a.582.582,0,0,1-.4.588c-.714.343-1.411.726-2.141,1.031a7.367,7.367,0,0,0-3.56,3.266,3.459,3.459,0,0,0-.455,1.012c-.2.93-.266.938-1.227.844-.127-.013-.258,0-.388,0L53.433,85c-.089,0-.235.023-.255-.016-.044-.085.037-.159.13-.193m-17.065.224c-3.59,0-7.181-.012-10.771.014-.511,0-.588-.149-.595-.612-.018-1.306.082-2.606.136-3.908a16.01,16.01,0,0,1,.222-1.628c.042-.291.2-.358.472-.26a20.5,20.5,0,0,0,3.43.785c2.231.395,4.478.681,6.712,1.057,2.278.384,4.573.661,6.844,1.093a.96.96,0,0,0,.94-.3A22.405,22.405,0,0,0,45.7,78.873a20.56,20.56,0,0,0,3.828-8.837,23.392,23.392,0,0,0,.243-4.772c-.013-.9-.026-.96-.879-1.266s-.713-.406-.408-1.04a15.61,15.61,0,0,0,1.395-6.115,8.012,8.012,0,0,1,1.546-4.462c.132-.179.275-.323.5-.248A5.845,5.845,0,0,1,54.349,53.4a17.967,17.967,0,0,1,2.173,2.731,8.973,8.973,0,0,0,6.307,3.991A7.815,7.815,0,0,0,65.713,60a8.813,8.813,0,0,0,7.118-8.093c.1-1.321.028-2.655.03-3.983a5.246,5.246,0,0,0-2.02-4.216c-.783-.646-1.617-1.231-2.424-1.848a8.151,8.151,0,0,1-2.23-2.431,1.283,1.283,0,0,1-.066-1.2c1.733-4.46,3.5-8.909,5.171-13.391a19.342,19.342,0,0,1,9.967-11.1.868.868,0,0,0,.5-.839,20.313,20.313,0,0,1,.377-3.315,9.864,9.864,0,0,1,1.949-3.866c.117-.147.17-.433.419-.378.226.049.211.317.273.5.853,2.53,1.713,5.057,2.541,7.6a.85.85,0,0,0,.777.631,12.389,12.389,0,0,1,1.278.255,15.653,15.653,0,0,1,10.023,7.8c1.338,2.469,2.46,5.055,3.652,7.6,1.073,2.294,2.1,4.611,3.171,6.9a.864.864,0,0,1-.035.917c-1.135,1.858-2.283,3.71-3.388,5.585-.231.391-.518.374-.759.193-.695-.521-1.5-.858-2.2-1.362-1.284-.93-2.694-1.653-4.016-2.521-1.552-1.019-3.177-1.926-4.738-2.932a6.58,6.58,0,0,0-3.7-1.08c-1.129.007-2.259.034-3.386-.005a5.96,5.96,0,0,1-5.728-3.708.387.387,0,0,0-.559-.249,24.82,24.82,0,0,1-2.507.8c-.378.08-.451.293-.294.653a11.133,11.133,0,0,0,1.315,2.272,9.385,9.385,0,0,0,5.784,3.561c.394.082.88.044,1.162.266.363.286.045.775.019,1.177,0,.037,0,.074,0,.111-.111,1.177-.163,2.362-.349,3.528-.235,1.472-.375,2.956-.508,4.434a1.849,1.849,0,0,1-1.415,1.92,6.835,6.835,0,0,0-4.4,7.461,6.938,6.938,0,0,0,2.231,4.216c.171.163.259.276.119.5A25.208,25.208,0,0,0,76.868,67.5a13.69,13.69,0,0,1-1.36,3.07.948.948,0,0,1-1.022.378.8.8,0,0,1-.716-.562,10.018,10.018,0,0,0-4.478-5.17,9.835,9.835,0,0,0-6.028-1.365,10.489,10.489,0,0,0-4.042,1.071,10.635,10.635,0,0,0-5.908,9.928,15.26,15.26,0,0,1-.092,2.031,11.39,11.39,0,0,1-4.687,7.613,2.705,2.705,0,0,1-1.689.531c-3.535-.025-7.069-.012-10.6-.012m31.673.006a3.664,3.664,0,0,1,1.394-1.528c1.041-.6,2.143-1.093,3.215-1.64a3.475,3.475,0,0,1,1.634-.392c2.517.012,5.033,0,7.55.012.423,0,.541-.075.417-.523-.378-1.361-.74-2.728-1.044-4.107a7.7,7.7,0,0,0-1.717-3.555c-.777-.876-.792-.874-.275-1.9,1-1.991,1.487-4.171,2.312-6.227a7.037,7.037,0,0,1,4.829-4.529,7.9,7.9,0,0,1,3.852-.23,7.349,7.349,0,0,1,4.884,3.52,5.976,5.976,0,0,1,.972,2.949c.057,5.847.02,11.694.04,17.541,0,.514-.142.619-.633.618q-13.352-.023-26.7-.011h-.727M14.231,97.438c0-2.785.006-5.571-.008-8.356,0-.376.037-.561.494-.539.886.042,1.776.024,2.664.006.307-.006.41.07.41.394q-.015,8.467,0,16.934c0,.324-.1.4-.409.395-.869-.019-1.74-.028-2.609,0-.422.015-.557-.088-.554-.536.023-2.767.012-5.533.012-8.3m17.767,0c0-2.785.012-5.571-.012-8.356,0-.449.132-.551.554-.536.869.032,1.74.022,2.609,0,.307-.007.41.072.409.395q-.015,8.467,0,16.934c0,.325-.1.4-.41.394-.869-.019-1.74-.029-2.609,0-.424.016-.557-.089-.553-.537.023-2.767.011-5.534.011-8.3m17.767,0c0-2.785.006-5.571-.008-8.356,0-.376.036-.562.494-.539.886.042,1.777.024,2.664.006.306-.006.41.07.41.394q-.015,8.467,0,16.934c0,.323-.1.4-.409.395-.869-.019-1.74-.028-2.609,0-.422.015-.558-.087-.554-.536.023-2.767.012-5.534.012-8.3m17.767-.028c0-2.767.012-5.534-.012-8.3,0-.472.129-.586.583-.565.831.039,1.665.031,2.5,0,.381-.013.5.082.5.481-.026,1.365-.01,2.73-.01,4.1,0,4.206-.008,8.412.011,12.617,0,.448-.131.552-.553.536-.832-.032-1.666-.032-2.5,0-.406.016-.528-.083-.525-.509.021-2.785.011-5.57.011-8.356m21.32-.027c0,2.785-.006,5.571.008,8.356,0,.377-.037.561-.494.539-.887-.042-1.777-.024-2.664-.006-.307.006-.41-.071-.41-.395q.013-8.467,0-16.934c0-.324.1-.4.41-.394.869.019,1.74.029,2.609,0,.424-.016.557.089.553.536-.023,2.767-.012,5.534-.012,8.3m14.214.083c0-2.8.011-5.608-.011-8.411,0-.426.119-.524.525-.509.85.032,1.7.029,2.553,0,.38-.013.506.08.5.48-.028,1.217-.01,2.434-.01,3.652,0,4.353-.007,8.707.011,13.06,0,.447-.128.553-.553.537-.832-.032-1.666-.032-2.5,0-.4.015-.529-.081-.526-.508.022-2.767.011-5.534.011-8.3m-81.7-42.974a14.277,14.277,0,0,1,.069-1.644A3.393,3.393,0,0,1,25.4,49.7a3.325,3.325,0,0,1,3.048,3.387c.006.812.008,1.623,0,2.435a3.52,3.52,0,0,1-1.591,3.053c-.474.322-.964.621-1.419.966a.782.782,0,0,1-1.13-.036,7.912,7.912,0,0,0-1.05-.719,3.831,3.831,0,0,1-1.883-2.971,11.881,11.881,0,0,1-.008-1.326m67.2,2.168c-.539.049-1.166.071-1.779.169a11.021,11.021,0,0,0-5.112,2.246.556.556,0,0,1-.932-.157,3.927,3.927,0,0,1-.684-2.852,3.555,3.555,0,0,1,5.56-2.251,11.607,11.607,0,0,1,1.118.989c.259.248.449.294.728,0a7.987,7.987,0,0,1,1.089-.938,3.5,3.5,0,0,1,4-.2,3.631,3.631,0,0,1,1.58,3.78c-.127.629-.246.693-.813.4a11.56,11.56,0,0,0-4.756-1.193M99.512,92.1c0,1.05-.011,2.1.008,3.149.005.315-.085.4-.4.4q-3.159-.021-6.319,0c-.314,0-.4-.083-.4-.4q.02-3.151,0-6.3c0-.316.088-.4.4-.4q3.159.02,6.319,0c.316,0,.406.086.4.4-.019,1.049-.007,2.1-.008,3.149m-3.585,7.084c1.053,0,2.107.013,3.159-.008.335-.007.438.073.435.423q-.027,3.121,0,6.243c0,.332-.071.437-.423.434q-3.132-.027-6.263,0c-.331,0-.44-.069-.437-.422q.028-3.123,0-6.246c0-.334.075-.441.425-.433,1.034.025,2.069.009,3.1.009m-17.736,7.084c-1.053,0-2.107-.012-3.159.008-.317.006-.4-.088-.4-.4q.02-3.15,0-6.3c0-.315.092-.4.4-.4q3.159.019,6.319,0c.318,0,.4.089.4.4q-.02,3.149,0,6.3c0,.316-.088.4-.4.4-1.053-.019-2.106-.007-3.159-.007M81.746,92.1c0,1.05-.012,2.1.007,3.15.006.316-.087.4-.4.4q-3.16-.02-6.319,0c-.316,0-.4-.086-.4-.4q.02-3.15,0-6.3c0-.314.091-.4.4-.4q3.159.019,6.319,0c.317,0,.406.087.4.4-.019,1.05-.007,2.1-.007,3.149M63.979,106.343a1.541,1.541,0,0,0-.669-.078q-2.995,0-5.989,0c-.239,0-.461.054-.457-.339.018-2.137.013-4.275,0-6.412,0-.269.086-.34.347-.339q3.217.013,6.433,0c.213,0,.338.024.337.291-.009,2.283,0,4.565,0,6.875m0-10.6a1.123,1.123,0,0,0-.661-.1c-2,0-3.993,0-5.989-.006-.189,0-.461.12-.46-.271q.013-3.261,0-6.522c0-.21.062-.29.282-.29q3.272.009,6.544,0c.213,0,.287.068.287.283,0,2.283,0,4.566,0,6.905M21.338,92.1c0-1.05.012-2.1-.007-3.15-.006-.315.086-.4.4-.4q3.16.02,6.32,0c.315,0,.4.085.4.4q-.02,3.149,0,6.3c0,.314-.085.4-.4.4q-3.16-.02-6.319,0c-.315,0-.407-.084-.4-.4.019-1.049.007-2.1.007-3.149m17.767.055c0-1.068.012-2.137-.007-3.2-.005-.315.086-.4.4-.4q3.159.02,6.319,0c.315,0,.4.085.4.4q-.021,3.149,0,6.3c0,.314-.084.4-.4.4q-3.16-.02-6.319,0c-.315,0-.407-.084-.4-.4.019-1.031.007-2.063.007-3.094M3.571,92.094c0-1.05.012-2.1-.007-3.15-.006-.316.094-.4.4-.4q3.16.019,6.319,0c.317,0,.4.094.4.4q-.019,3.149,0,6.3c0,.316-.094.4-.4.4q-3.16-.019-6.32,0c-.316,0-.4-.093-.4-.4.018-1.05.007-2.1.007-3.15m39.143,14.17c-1.071,0-2.143-.012-3.215.007-.315.006-.4-.084-.4-.4q.021-3.149,0-6.3c0-.313.084-.4.4-.4q3.16.021,6.32,0c.314,0,.4.084.4.4q-.021,3.149,0,6.3c0,.313-.083.406-.4.4-1.034-.02-2.069-.008-3.1-.008m-21.376-3.5c0-1.05.012-2.1-.007-3.149-.006-.325.06-.442.419-.439,2.088.019,4.176.016,6.264,0,.325,0,.443.06.44.418q-.028,3.122,0,6.244c0,.324-.059.442-.418.439q-3.132-.028-6.264,0c-.395,0-.443-.145-.438-.476.018-1.013.007-2.026.007-3.039m-10.66-.095c0,1.068-.011,2.137.007,3.2.005.311-.08.4-.4.4q-3.159-.021-6.319,0c-.312,0-.405-.08-.4-.4q.021-3.15,0-6.3c0-.311.08-.4.4-.4q3.16.021,6.32,0c.312,0,.409.079.4.4-.02,1.031-.008,2.063-.008,3.094M71.931,16.383a1.547,1.547,0,0,1-.254-.148q-2.168-1.809-4.331-3.621c-.185-.154-.259-.284-.056-.487A36.017,36.017,0,0,1,71.868,7.8c.311-.218.4-.073.537.16.956,1.6,1.914,3.19,2.888,4.775.171.279.153.462-.107.652a18.946,18.946,0,0,0-2.86,2.763.483.483,0,0,1-.395.232M62.32,20.91a1.09,1.09,0,0,1,.055-.211c.83-1.7,1.57-3.446,2.466-5.117.161-.3.32-.217.52-.05q2.164,1.809,4.334,3.61c.188.156.277.3.118.556a19.228,19.228,0,0,0-1.713,3.7c-.15.433-.35.468-.736.271q-2.387-1.221-4.8-2.394c-.183-.089-.264-.168-.246-.361M93.748,12a3.777,3.777,0,0,1,.492-1.1c.688-1.386,1.385-2.768,2.076-4.153.1-.21.183-.406.486-.226a27.389,27.389,0,0,1,3.729,2.586c.131.111.249.209.111.411-1.042,1.523-1.933,3.138-2.872,4.723-.137.231-.277.324-.526.127a16.323,16.323,0,0,0-3.3-2.019.306.306,0,0,1-.2-.351M64.632,32.318c-.073-.069-.114-.089-.125-.12a10.31,10.31,0,0,0-4.475-5.7.339.339,0,0,1-.139-.51c.23-.46.45-.925.658-1.4.11-.247.253-.275.481-.16q2.617,1.316,5.239,2.623c.239.119.292.257.182.53-.372.92-.7,1.856-1.056,2.783-.247.646-.505,1.287-.765,1.948m25.7-21.479A1.018,1.018,0,0,1,90,10.257c-.566-2.06-1.253-4.082-2-6.083-.16-.43.058-.431.355-.383A24.473,24.473,0,0,1,92.83,4.825c.356.128.41.254.232.591-.577,1.091-1.122,2.2-1.676,3.3-.351.7-.7,1.4-1.059,2.122m-9.676-6.6a14.649,14.649,0,0,0-2.257,6.093c-.011.1.042.235-.111.271-.13.031-.2-.06-.267-.154a3.193,3.193,0,0,1-.177-.281A33.1,33.1,0,0,0,75.478,6.24c-.2-.273-.112-.406.175-.533a24.091,24.091,0,0,1,3.283-1.162,4.377,4.377,0,0,1,1.715-.307M43.015,20.173a1.543,1.543,0,0,1-.022-.3,13.607,13.607,0,0,1,2.206-5.48.58.58,0,0,1,.647-.207c.279.065.334.3.368.552a20.2,20.2,0,0,0,.542,3.751c.039.117.071.274-.147.35-1.191.412-2.333.957-3.594,1.334M74.639,76.3c0-.5,0-.9,0-1.3,0-.569.089-.605.65-.4a4.307,4.307,0,0,1,2.448,2.991c.072.2-.005.349-.272.339-.368-.013-.737,0-1.106,0-.55-.007-1.283.19-1.6-.086-.368-.318-.064-1.069-.118-1.538M99.512,69.32c0-.369,0-.737,0-1.106,0-.589.022-.6.592-.364a5.562,5.562,0,0,1,2.486,2.724c.131.227-.088.266-.266.267-.833,0-1.665,0-2.5.01-.237,0-.33-.067-.32-.313.016-.405,0-.811,0-1.217" transform="translate(0 0)" fill="#060607"/>
    <path id="Trazado_816152" data-name="Trazado 816152" d="M92.14,87.834c2.628-.008,5.259.065,7.881-.055a4.772,4.772,0,0,0,3.619-1.951,8.912,8.912,0,0,0,1.254-2.578,8.54,8.54,0,0,1,2.948-4.047,9.912,9.912,0,0,1,2.179-1.238,2.1,2.1,0,0,0,1.011-.882,6.682,6.682,0,0,1,4.746-3.26,6.764,6.764,0,0,1,7.006,2.979.791.791,0,0,0,.754.4,11.948,11.948,0,0,1,4.856.64,8.856,8.856,0,0,1,5.458,6.292c.291,1.1.394,2.247.586,3.371a1.572,1.572,0,0,0,.649,1.11,11.269,11.269,0,0,0,1.646.905.4.4,0,0,0,.622-.215,8.736,8.736,0,0,0,.98-3.545,14.179,14.179,0,0,1,1.472-6.362c.017-.032.039-.063.056-.1.466-.892.482-.923-.457-1.4a8.373,8.373,0,0,1-4.009-4.644,15.914,15.914,0,0,1-.62-2.887c-.035-.181.039-.263.238-.262,1.018.007,2.036.006,3.054,0,.191,0,.246.082.26.264a5.624,5.624,0,0,0,1.956,3.964,6.873,6.873,0,0,0,2.209,1.233c1.28.469,2.6.816,3.872,1.323a7.786,7.786,0,0,1,3.318,2.532c.7.9,1.408,1.8,2.1,2.713a5.409,5.409,0,0,0,6.63,1.637c.024-.187-.15-.239-.246-.335-1.546-1.537-3.09-3.076-4.652-4.6-.319-.311-.363-.531-.018-.85.583-.539,1.136-1.111,1.694-1.675.227-.229.39-.3.672-.016,1.5,1.533,3.02,3.041,4.537,4.555.138.138.265.394.482.3.183-.076.262-.308.322-.529.4-1.468.077-2.972.239-4.445A2.682,2.682,0,0,0,160,73.414a28.108,28.108,0,0,1-2.307-1.722,10.2,10.2,0,0,1-3.495-5.549,25.358,25.358,0,0,1-.535-3.81,7.128,7.128,0,0,0-2.868-4.948,7.66,7.66,0,0,0-5.213-1.427,1.641,1.641,0,0,1-1.587-.781A54.574,54.574,0,0,1,140.26,49.8c-.1-.183-.159-.143-.327-.085-1.621.551-3.213,1.178-4.8,1.822a.551.551,0,0,0-.37.63c.016.388.354.3.52.328a8.959,8.959,0,0,1,3.125,1.014,8.367,8.367,0,0,1,3.109,3.069c.124.207.18.346-.127.487-.863.4-1.7.844-2.554,1.264-.187.092-.37.152-.513-.108a4.36,4.36,0,0,0-3.777-2.241c-.919-.066-1.846-.012-2.828-.012a4.8,4.8,0,0,0,3.1,3.251,3.14,3.14,0,0,0,1.388.254c.313-.037.366.119.361.388-.015.943-.02,1.886-.008,2.828,0,.263-.072.341-.341.343a13.2,13.2,0,0,1-2.306-.393c-.439-.075-.7-.1-1.019.362a15.879,15.879,0,0,1-7.322,5.927,15.662,15.662,0,0,1-6.282,1.176q-13.269.011-26.538,0c-.2,0-.406-.008-.61-.013V87.834m55.148-24.7a1.635,1.635,0,0,1,1.7,1.69,1.95,1.95,0,0,1-1.705,1.723,1.729,1.729,0,0,1-1.759-1.723,1.615,1.615,0,0,1,1.76-1.691" transform="translate(-92.116 -27.601)" fill="#bfc5ce"/>
    <path id="Trazado_816153" data-name="Trazado 816153" d="M144.219,151.477q10.326,0,20.652,0c.51,0,.714-.078.671-.641a21.924,21.924,0,0,1-.011-2.267,19,19,0,0,1,.713-5.117.581.581,0,0,0-.2-.706,10.978,10.978,0,0,1-2.976-4,13.613,13.613,0,0,1-.981-3.84c-.05-.359-.284-.826-.058-1.054.266-.267.771-.08,1.171-.092.573-.018,1.154.049,1.719-.019.609-.074.691.288.719.711a8.286,8.286,0,0,0,5.557,7.337,25.477,25.477,0,0,0,4.146.807c2.316.382,4.631.773,6.955,1.107q1.786.257,3.563.56a.558.558,0,0,0,.577-.206,17.411,17.411,0,0,0,2.95-5,15.309,15.309,0,0,0,1.03-5.582.6.6,0,0,0-.4-.627c-1.312-.632-2.613-1.289-3.92-1.932a4.909,4.909,0,0,1-2.335-2.144,8.906,8.906,0,0,1-.925-3.05,7.437,7.437,0,0,0-1.759-4.6,5.033,5.033,0,0,0-2.73-1.41,7.9,7.9,0,0,0-1.641-.137c-.391,0-.556.064-.528.5a18.184,18.184,0,0,1,0,2.047,7.02,7.02,0,0,1-2.872,5.562c-1.245.922-2.569,1.737-3.85,2.612a.6.6,0,0,1-.759,0c-1.345-.91-2.724-1.776-4.031-2.739a6.593,6.593,0,0,1-2.284-3.293,15.364,15.364,0,0,1-.453-3.341,5.381,5.381,0,0,0-1.84,2.737,8.943,8.943,0,0,1-7.453,6.447,43.679,43.679,0,0,1-4.7.1c-1.239.027-2.479,0-3.719,0q-.006,9.751-.012,19.5c0,.589.008,1.178.012,1.768m32.08-22.963a1.709,1.709,0,0,1,1.733-1.831,1.9,1.9,0,0,1,1.712,1.755,1.93,1.93,0,0,1-1.765,1.771,1.656,1.656,0,0,1-1.681-1.695" transform="translate(-144.191 -66.456)" fill="#e8b188"/>
    <path id="Trazado_816154" data-name="Trazado 816154" d="M20.267,91.682c3.535,0,7.07-.013,10.6.012a2.708,2.708,0,0,0,1.689-.532,11.391,11.391,0,0,0,4.687-7.613,15.257,15.257,0,0,0,.092-2.031,10.635,10.635,0,0,1,5.908-9.928,10.489,10.489,0,0,1,4.042-1.071,9.835,9.835,0,0,1,6.028,1.365,10.018,10.018,0,0,1,4.478,5.17.8.8,0,0,0,.716.562.948.948,0,0,0,1.022-.379,13.671,13.671,0,0,0,1.36-3.07,25.156,25.156,0,0,1,1.992-5.134c.14-.227.052-.34-.119-.5a6.935,6.935,0,0,1-2.23-4.216,6.834,6.834,0,0,1,4.4-7.461,1.85,1.85,0,0,0,1.416-1.92c.132-1.478.273-2.962.508-4.434.186-1.165.238-2.351.348-3.528,0-.036,0-.074,0-.111.026-.4.344-.892-.019-1.177-.282-.222-.768-.184-1.162-.266a9.381,9.381,0,0,1-5.784-3.561,11.114,11.114,0,0,1-1.315-2.272c-.157-.359-.084-.573.294-.652a24.85,24.85,0,0,0,2.506-.8.387.387,0,0,1,.559.249,5.96,5.96,0,0,0,5.728,3.708c1.127.04,2.258.012,3.386.005a6.584,6.584,0,0,1,3.7,1.08c1.56,1.007,3.186,1.914,4.737,2.932,1.322.868,2.733,1.591,4.017,2.521.7.5,1.5.841,2.2,1.362.242.181.528.2.759-.193,1.106-1.875,2.252-3.727,3.388-5.585a.864.864,0,0,0,.035-.917c-1.074-2.293-2.1-4.61-3.171-6.9-1.191-2.547-2.314-5.133-3.652-7.6a15.653,15.653,0,0,0-10.023-7.8,12.4,12.4,0,0,0-1.279-.256.85.85,0,0,1-.777-.631c-.829-2.538-1.689-5.065-2.541-7.6-.062-.184-.048-.452-.273-.5-.25-.054-.3.231-.419.378a9.846,9.846,0,0,0-1.949,3.866,20.259,20.259,0,0,0-.378,3.314.867.867,0,0,1-.5.839,19.344,19.344,0,0,0-9.967,11.1c-1.674,4.482-3.436,8.931-5.17,13.391a1.28,1.28,0,0,0,.066,1.2,8.147,8.147,0,0,0,2.23,2.431c.807.617,1.641,1.2,2.423,1.848a5.246,5.246,0,0,1,2.02,4.216c0,1.328.068,2.662-.03,3.983a8.813,8.813,0,0,1-7.118,8.093,7.805,7.805,0,0,1-2.884.12A8.971,8.971,0,0,1,40.546,62.8a18.022,18.022,0,0,0-2.174-2.731A5.847,5.847,0,0,0,35.947,58.8c-.227-.076-.369.069-.5.248A8.013,8.013,0,0,0,33.9,63.513,15.617,15.617,0,0,1,32.5,69.627c-.306.633-.449.733.407,1.04s.866.369.879,1.265a23.328,23.328,0,0,1-.243,4.772,20.556,20.556,0,0,1-3.828,8.837,22.418,22.418,0,0,1-2.065,2.386.958.958,0,0,1-.94.3c-2.27-.432-4.566-.709-6.844-1.093-2.233-.377-4.48-.662-6.712-1.057a20.44,20.44,0,0,1-3.43-.785c-.271-.1-.43-.03-.472.26a16.151,16.151,0,0,0-.222,1.628c-.054,1.3-.155,2.6-.136,3.908.007.463.084.616.595.612,3.59-.027,7.181-.014,10.771-.014M72.987,29.768a1.7,1.7,0,0,1,1.641-1.835,1.854,1.854,0,0,1,1.793,1.744,1.9,1.9,0,0,1-1.776,1.785c-.771.015-1.852-.812-1.659-1.694" transform="translate(15.976 -6.669)" fill="#c58a60"/>
    <path id="Trazado_816155" data-name="Trazado 816155" d="M32.2,160.4h.727q13.351,0,26.7.011c.492,0,.635-.1.633-.618-.02-5.847.017-11.695-.041-17.541a5.969,5.969,0,0,0-.972-2.949,7.347,7.347,0,0,0-4.884-3.52,7.9,7.9,0,0,0-3.851.23,7.038,7.038,0,0,0-4.83,4.529c-.825,2.056-1.31,4.236-2.312,6.227-.516,1.025-.5,1.023.275,1.9a7.7,7.7,0,0,1,1.717,3.556c.3,1.378.667,2.745,1.044,4.106.124.448.007.526-.416.523-2.517-.015-5.033,0-7.55-.012a3.483,3.483,0,0,0-1.634.392c-1.072.547-2.174,1.041-3.215,1.64A3.669,3.669,0,0,0,32.2,160.4m24.484-7.119c0,1.05-.016,2.1.009,3.151.008.35-.1.431-.433.422-.905-.024-1.812-.02-2.717,0-.3.006-.41-.067-.408-.39q.021-3.151,0-6.3c0-.321.1-.4.405-.392.905.019,1.812.021,2.717,0,.331-.008.445.064.436.419-.027,1.032-.009,2.064-.009,3.1M53.256,141a1.7,1.7,0,0,1,1.782-1.841,1.76,1.76,0,0,1-.012,3.514A1.652,1.652,0,0,1,53.256,141" transform="translate(35.714 -75.38)" fill="#fff"/>
    <path id="Trazado_816156" data-name="Trazado 816156" d="M88.288,169.18l9.489.012c.129,0,.26-.011.388,0,.96.094,1.022.086,1.227-.844a3.458,3.458,0,0,1,.454-1.012,7.368,7.368,0,0,1,3.561-3.266c.73-.3,1.427-.688,2.141-1.031a.581.581,0,0,0,.4-.588c-.016-1.641.1-3.291-.04-4.92a6.482,6.482,0,0,0-2.208-4.166,7.14,7.14,0,0,0-11.042,1.709,7.753,7.753,0,0,0-.916,4.139,14.158,14.158,0,0,1-2.132,7.734,20.8,20.8,0,0,1-1.442,2.023l.124.208m10.653-12.392a1.55,1.55,0,0,1,1.687-1.653,1.748,1.748,0,0,1,1.763,1.713c0,.707-.928,1.756-1.6,1.712-.935-.061-1.953-.566-1.852-1.772" transform="translate(-34.855 -84.183)" fill="#f6f8fa"/>
    <path id="Trazado_816157" data-name="Trazado 816157" d="M208.214,208.2c0,2.767.012,5.534-.011,8.3,0,.449.131.551.553.536.869-.032,1.74-.022,2.609,0,.307.007.41-.071.41-.395q-.014-8.467,0-16.934c0-.324-.1-.4-.41-.395-.888.018-1.778.036-2.664-.006-.458-.022-.5.163-.495.539.014,2.785.008,5.571.008,8.356" transform="translate(-193.984 -110.767)" fill="#c58a60"/>
    <path id="Trazado_816158" data-name="Trazado 816158" d="M168.221,208.208c0,2.767.012,5.534-.012,8.3,0,.447.129.552.553.537.868-.032,1.739-.021,2.609,0,.306.007.411-.07.41-.394q-.014-8.467,0-16.934c0-.323-.1-.4-.409-.395-.869.019-1.741.028-2.609,0-.422-.016-.558.086-.554.535.023,2.785.012,5.571.012,8.356" transform="translate(-136.223 -110.771)" fill="#c58a60"/>
    <path id="Trazado_816159" data-name="Trazado 816159" d="M128.227,208.2c0,2.767.012,5.534-.012,8.3,0,.449.131.551.554.536.868-.032,1.739-.022,2.609,0,.307.007.41-.072.409-.395q-.014-8.467,0-16.934c0-.325-.1-.4-.41-.394-.888.019-1.778.037-2.664-.006-.458-.022-.5.163-.494.539.014,2.785.008,5.571.008,8.356" transform="translate(-78.462 -110.767)" fill="#c58a60"/>
    <path id="Trazado_816160" data-name="Trazado 816160" d="M88.224,208.177c0,2.785.01,5.571-.011,8.356,0,.426.119.525.525.509.831-.032,1.666-.032,2.5,0,.422.016.555-.087.553-.536-.019-4.206-.011-8.411-.011-12.617,0-1.365-.016-2.731.01-4.1.008-.4-.114-.494-.5-.481-.832.029-1.667.036-2.5,0-.454-.021-.587.093-.582.565.024,2.767.012,5.534.012,8.3" transform="translate(-20.692 -110.768)" fill="#c58a60"/>
    <path id="Trazado_816161" data-name="Trazado 816161" d="M51.776,208.152c0-2.767-.012-5.534.012-8.3,0-.448-.129-.552-.553-.537-.868.032-1.739.022-2.609,0-.306-.007-.411.07-.41.394q.015,8.467,0,16.934c0,.324.1.4.41.395.888-.018,1.778-.036,2.664.006.458.022.5-.163.494-.539-.014-2.785-.008-5.571-.008-8.356" transform="translate(37.076 -110.77)" fill="#c58a60"/>
    <path id="Trazado_816162" data-name="Trazado 816162" d="M8.234,208.236c0,2.767.011,5.534-.011,8.3,0,.427.121.524.526.508.832-.032,1.666-.032,2.5,0,.425.016.554-.09.553-.537-.019-4.353-.011-8.707-.011-13.06,0-1.218-.018-2.435.01-3.652.009-.4-.116-.493-.5-.48-.85.028-1.7.031-2.553,0-.406-.015-.528.083-.525.509.021,2.8.011,5.607.011,8.411" transform="translate(94.832 -110.771)" fill="#c58a60"/>
    <path id="Trazado_816163" data-name="Trazado 816163" d="M184.23,116.626a11.778,11.778,0,0,0,.008,1.326,3.83,3.83,0,0,0,1.883,2.971,7.9,7.9,0,0,1,1.05.719.782.782,0,0,0,1.13.036c.456-.345.946-.644,1.42-.966a3.52,3.52,0,0,0,1.59-3.053c.009-.812.007-1.623,0-2.435a3.325,3.325,0,0,0-3.049-3.387,3.393,3.393,0,0,0-3.964,3.146,14.279,14.279,0,0,0-.068,1.644" transform="translate(-162.868 -62.134)" fill="#d9a176"/>
    <path id="Trazado_816164" data-name="Trazado 816164" d="M44.748,123.13a11.558,11.558,0,0,1,4.756,1.193c.567.288.686.224.814-.4a3.632,3.632,0,0,0-1.581-3.78,3.5,3.5,0,0,0-4,.2,7.987,7.987,0,0,0-1.089.938c-.279.3-.469.249-.727,0a11.611,11.611,0,0,0-1.118-.989,3.554,3.554,0,0,0-5.56,2.251,3.924,3.924,0,0,0,.683,2.852.556.556,0,0,0,.932.158A11.017,11.017,0,0,1,42.97,123.3c.614-.1,1.24-.119,1.779-.169" transform="translate(43.81 -66.471)" fill="#e02d37"/>
    <path id="Trazado_816165" data-name="Trazado 816165" d="M31.344,202.872c0-1.05-.012-2.1.007-3.149.006-.314-.084-.4-.4-.4q-3.159.02-6.319,0c-.313,0-.4.082-.4.4q.021,3.151,0,6.3c0,.316.088.4.4.4q3.16-.02,6.319,0c.316,0,.406-.085.4-.4-.019-1.049-.007-2.1-.007-3.149" transform="translate(68.169 -110.776)" fill="#d9a176"/>
    <path id="Trazado_816166" data-name="Trazado 816166" d="M27.756,223.247c-1.035,0-2.07.016-3.1-.009-.351-.008-.427.1-.425.433q.023,3.123,0,6.246c0,.352.105.424.437.422q3.131-.022,6.263,0c.352,0,.426-.1.423-.434q-.023-3.122,0-6.243c0-.35-.1-.43-.435-.423-1.053.021-2.106.008-3.159.008" transform="translate(68.171 -124.067)" fill="#d9a176"/>
    <path id="Trazado_816167" data-name="Trazado 816167" d="M67.784,230.334c1.053,0,2.107-.012,3.159.007.314.005.4-.082.4-.4q-.021-3.15,0-6.3c0-.311-.081-.4-.4-.4q-3.16.021-6.319,0c-.31,0-.4.082-.4.4q.02,3.15,0,6.3c0,.313.083.406.4.4,1.053-.019,2.106-.007,3.159-.007" transform="translate(10.407 -124.069)" fill="#d9a176"/>
    <path id="Trazado_816168" data-name="Trazado 816168" d="M71.337,202.873c0-1.05-.012-2.1.007-3.149.006-.313-.083-.4-.4-.4q-3.159.021-6.319,0c-.311,0-.4.083-.4.4q.02,3.15,0,6.3c0,.314.084.4.4.4q3.16-.02,6.319,0c.315,0,.407-.083.4-.4-.019-1.049-.007-2.1-.007-3.149" transform="translate(10.408 -110.776)" fill="#d9a176"/>
    <path id="Trazado_816169" data-name="Trazado 816169" d="M111.339,230.415c0-2.309,0-4.592,0-6.875,0-.267-.123-.291-.337-.291q-3.216.007-6.433,0c-.261,0-.348.07-.347.339.01,2.137.015,4.274,0,6.412,0,.393.218.339.457.339q2.995,0,5.989,0a1.54,1.54,0,0,1,.669.078" transform="translate(-47.361 -124.072)" fill="#d9a176"/>
    <path id="Trazado_816170" data-name="Trazado 816170" d="M111.337,206.521c0-2.339,0-4.622,0-6.905,0-.215-.074-.284-.287-.283q-3.272.008-6.544,0c-.219,0-.283.08-.282.289q.008,3.261,0,6.522c0,.392.271.271.46.271,2,.007,3.993,0,5.989.006a1.128,1.128,0,0,1,.661.1" transform="translate(-47.359 -110.781)" fill="#d9a176"/>
    <path id="Trazado_816171" data-name="Trazado 816171" d="M184.214,202.872c0,1.05.012,2.1-.007,3.15-.006.315.086.4.4.4q3.159-.02,6.319,0c.315,0,.4-.086.4-.4q-.02-3.149,0-6.3c0-.314-.086-.4-.4-.4q-3.16.02-6.32,0c-.315,0-.406.085-.4.4.019,1.05.007,2.1.007,3.15" transform="translate(-162.877 -110.776)" fill="#d9a176"/>
    <path id="Trazado_816172" data-name="Trazado 816172" d="M144.22,202.928c0,1.032.012,2.063-.007,3.094-.006.315.086.4.4.4q3.159-.02,6.319,0c.315,0,.4-.085.4-.4q-.02-3.149,0-6.3c0-.314-.085-.4-.4-.4q-3.16.02-6.32,0c-.315,0-.406.085-.4.4.019,1.068.007,2.136.007,3.2" transform="translate(-105.116 -110.776)" fill="#d9a176"/>
    <path id="Trazado_816173" data-name="Trazado 816173" d="M224.209,202.87c0,1.05.011,2.1-.007,3.15-.005.309.081.4.4.4q3.159-.02,6.319,0c.31,0,.405-.08.4-.4q-.02-3.149,0-6.3c0-.308-.08-.4-.4-.4q-3.16.02-6.32,0c-.309,0-.409.08-.4.4.019,1.05.007,2.1.007,3.15" transform="translate(-220.639 -110.776)" fill="#d9a176"/>
    <path id="Trazado_816174" data-name="Trazado 816174" d="M147.83,230.334c1.035,0,2.07-.012,3.1.007.317.006.4-.087.4-.4q-.02-3.149,0-6.3c0-.315-.087-.4-.4-.4q-3.159.02-6.319,0c-.316,0-.4.087-.4.4q.02,3.149,0,6.3c0,.315.087.4.4.4,1.071-.019,2.143-.007,3.215-.007" transform="translate(-105.115 -124.069)" fill="#d9a176"/>
    <path id="Trazado_816175" data-name="Trazado 816175" d="M184.21,226.827c0,1.013.011,2.026-.006,3.039-.006.331.042.48.438.476q3.131-.033,6.264,0c.359,0,.421-.115.418-.439q-.021-3.122,0-6.244c0-.358-.115-.42-.44-.418q-3.132.021-6.264,0c-.359,0-.425.115-.419.439.019,1.05.007,2.1.007,3.15" transform="translate(-162.873 -124.067)" fill="#d9a176"/>
    <path id="Trazado_816176" data-name="Trazado 816176" d="M231.314,226.735c0-1.032-.012-2.063.008-3.094.006-.318-.091-.4-.4-.4q-3.159.019-6.319,0c-.319,0-.4.091-.4.4q.019,3.15,0,6.3c0,.318.092.4.4.4q3.159-.02,6.319,0c.319,0,.4-.09.4-.4-.019-1.068-.007-2.136-.007-3.2" transform="translate(-220.636 -124.069)" fill="#d9a176"/>
    <path id="Trazado_816177" data-name="Trazado 816177" d="M83.277,26.005a.484.484,0,0,0,.4-.232,18.945,18.945,0,0,1,2.86-2.763c.259-.19.278-.373.107-.652-.973-1.585-1.931-3.179-2.888-4.775-.139-.233-.226-.378-.537-.16a36.054,36.054,0,0,0-4.578,4.326c-.2.2-.129.333.056.487q2.168,1.807,4.332,3.621a1.526,1.526,0,0,0,.253.148" transform="translate(-11.346 -9.623)" fill="#c58a60"/>
    <path id="Trazado_816178" data-name="Trazado 816178" d="M90.919,40.152c-.018.193.064.272.246.361q2.41,1.176,4.8,2.394c.386.2.586.163.736-.271a19.213,19.213,0,0,1,1.713-3.7c.158-.261.069-.4-.118-.556q-2.169-1.8-4.335-3.61c-.2-.167-.359-.25-.52.051-.9,1.67-1.636,3.415-2.466,5.116a1.089,1.089,0,0,0-.055.211" transform="translate(-28.599 -19.243)" fill="#c58a60"/>
    <path id="Trazado_816179" data-name="Trazado 816179" d="M21.568,20.064a.306.306,0,0,0,.2.351,16.32,16.32,0,0,1,3.3,2.02c.249.2.39.1.526-.127.939-1.585,1.83-3.2,2.872-4.723.138-.2.02-.3-.112-.411a27.3,27.3,0,0,0-3.729-2.586c-.3-.18-.381.016-.486.226-.691,1.386-1.388,2.767-2.076,4.153a3.792,3.792,0,0,0-.492,1.1" transform="translate(72.179 -8.068)" fill="#c58a60"/>
    <path id="Trazado_816180" data-name="Trazado 816180" d="M103.342,62.807c.26-.66.518-1.3.765-1.948.354-.927.685-1.863,1.056-2.783.11-.272.057-.41-.181-.53q-2.621-1.309-5.24-2.623c-.228-.115-.371-.087-.48.16q-.313.706-.659,1.4a.339.339,0,0,0,.139.51,10.31,10.31,0,0,1,4.476,5.7c.011.031.052.051.125.12" transform="translate(-38.71 -30.488)" fill="#c58a60"/>
    <path id="Trazado_816181" data-name="Trazado 816181" d="M40.921,15.554c.36-.722.708-1.423,1.059-2.122.554-1.1,1.1-2.211,1.676-3.3.179-.338.125-.463-.232-.591a24.441,24.441,0,0,0-4.471-1.035c-.3-.048-.515-.047-.355.384.745,2,1.431,4.023,2,6.083a1.02,1.02,0,0,0,.326.582" transform="translate(49.406 -4.715)" fill="#c58a60"/>
    <path id="Trazado_816182" data-name="Trazado 816182" d="M71.984,9.522a4.377,4.377,0,0,0-1.715.307,24.143,24.143,0,0,0-3.283,1.162c-.288.127-.372.26-.175.533a33.149,33.149,0,0,1,2.361,3.928,3.193,3.193,0,0,0,.177.281c.063.094.137.185.267.154.153-.036.1-.172.111-.271a14.651,14.651,0,0,1,2.257-6.093" transform="translate(8.667 -5.284)" fill="#c58a60"/>
    <path id="Trazado_816183" data-name="Trazado 816183" d="M142.964,37.89c1.262-.377,2.4-.922,3.594-1.334.218-.076.186-.233.147-.35a20.235,20.235,0,0,1-.542-3.751c-.034-.254-.088-.487-.368-.552a.579.579,0,0,0-.647.207,13.589,13.589,0,0,0-2.206,5.48,1.531,1.531,0,0,0,.021.3" transform="translate(-99.949 -17.718)" fill="#bfc5ce"/>
    <path id="Trazado_816184" data-name="Trazado 816184" d="M73.273,169.489c.055.469-.25,1.219.119,1.538.319.276,1.052.079,1.6.086.368,0,.737-.012,1.106,0,.266.01.343-.139.271-.34a4.305,4.305,0,0,0-2.448-2.99c-.561-.206-.646-.168-.65.4,0,.4,0,.808,0,1.3" transform="translate(1.365 -93.185)" fill="#ffca00"/>
    <path id="Trazado_816185" data-name="Trazado 816185" d="M17.232,154.021c0,.406.012.812,0,1.217-.01.246.083.316.32.313.833-.012,1.665-.007,2.5-.01.178,0,.4-.04.266-.267a5.561,5.561,0,0,0-2.486-2.724c-.57-.238-.588-.225-.592.364,0,.369,0,.737,0,1.106" transform="translate(82.28 -84.701)" fill="#ffca00"/>
    <path id="Trazado_816186" data-name="Trazado 816186" d="M128.241,191.069l-.125-.208c-.093.034-.174.108-.131.193.02.038.167.012.255.015" transform="translate(-74.808 -106.073)" fill="#bfc5ce"/>
    <path id="Trazado_816187" data-name="Trazado 816187" d="M121.987,79.989a1.615,1.615,0,0,0-1.76,1.691,1.729,1.729,0,0,0,1.759,1.723,1.95,1.95,0,0,0,1.7-1.723,1.635,1.635,0,0,0-1.7-1.69" transform="translate(-66.815 -44.453)" fill="#060607"/>
    <path id="Trazado_816188" data-name="Trazado 816188" d="M168.218,137.4A1.656,1.656,0,0,0,169.9,139.1a1.93,1.93,0,0,0,1.765-1.771,1.9,1.9,0,0,0-1.712-1.755,1.709,1.709,0,0,0-1.733,1.831" transform="translate(-136.109 -75.345)" fill="#060607"/>
    <path id="Trazado_816189" data-name="Trazado 816189" d="M40.284,49.7c-.193.882.888,1.709,1.659,1.694a1.9,1.9,0,0,0,1.776-1.785,1.854,1.854,0,0,0-1.793-1.744A1.7,1.7,0,0,0,40.284,49.7" transform="translate(48.68 -26.602)" fill="#060607"/>
    <path id="Trazado_816190" data-name="Trazado 816190" d="M43.783,170.956c0-1.032-.017-2.064.009-3.1.009-.355-.1-.427-.435-.419-.905.023-1.812.02-2.717,0-.306-.006-.407.072-.405.392q.021,3.151,0,6.3c0,.324.105.4.408.39.905-.018,1.812-.022,2.717,0,.336.008.441-.072.432-.422-.026-1.05-.009-2.1-.009-3.151" transform="translate(48.616 -93.057)" fill="#060607"/>
    <path id="Trazado_816191" data-name="Trazado 816191" d="M40.263,145.4a1.652,1.652,0,0,0,1.769,1.673,1.76,1.76,0,0,0,.012-3.514,1.7,1.7,0,0,0-1.782,1.841" transform="translate(48.706 -79.785)" fill="#060607"/>
    <path id="Trazado_816192" data-name="Trazado 816192" d="M96.235,161.366c-.1,1.205.918,1.711,1.852,1.772.67.044,1.6-1.005,1.6-1.712a1.748,1.748,0,0,0-1.763-1.713,1.55,1.55,0,0,0-1.687,1.653" transform="translate(-32.15 -88.762)" fill="#060607"/>
  </g>
</svg>
