<svg xmlns="http://www.w3.org/2000/svg" xmlns:xlink="http://www.w3.org/1999/xlink" width="122.667" height="122.667" viewBox="0 0 122.667 122.667">
  <defs>
    <clipPath id="clip-path">
      <rect id="Rectángulo_376477" data-name="Rectángulo 376477" width="122.667" height="122.667" fill="none"/>
    </clipPath>
  </defs>
  <g id="Grupo_1071897" data-name="Grupo 1071897" clip-path="url(#clip-path)">
    <path id="Trazado_816196" data-name="Trazado 816196" d="M61.333,0a61.333,61.333,0,1,0,61.333,61.333A61.333,61.333,0,0,0,61.333,0m0,110.619A49.084,49.084,0,0,1,29.607,99.047L42.386,85.1l-7.01-6.133L22.717,91.958A49.286,49.286,0,0,1,92.635,23.264S35.17,75.951,22.717,91.958s7.448,8.324,7.448,8.324l70.715-68.366a49.289,49.289,0,0,1-39.546,78.7" transform="translate(0 -0.001)" fill="#d22224"/>
    <path id="Trazado_816197" data-name="Trazado 816197" d="M111.774,79.482a10.356,10.356,0,0,1,4.754,4.8,5.716,5.716,0,0,0,1.233-2.458,4.567,4.567,0,0,0-1.071-4.088c-.2-.229-.4-.457-.573-.7a1.165,1.165,0,0,1,.155-1.658,1.123,1.123,0,0,1,1.664.019,11.968,11.968,0,0,1,1.647,2.14,6.71,6.71,0,0,1-.394,7.29,16.307,16.307,0,0,1-1.373,1.82.6.6,0,0,0-.111.827c1,1.607,1.923,3.27,3.01,4.816a3.641,3.641,0,0,1,.6,3.279,11.631,11.631,0,0,1-3.423,5.956c-.076.066-.152.133-.234.191-1.583,1.124-1.979,1.124-3.528.272-1-.552-1.951-1.207-2.939-1.789a6.917,6.917,0,0,0-1.285-.593c-.6-.2-.773-.175-1.074.374a22.83,22.83,0,0,0-1.236,2.64c-.449,1.147-.779,2.341-1.232,3.486-.3.756-.737,1.455-1.083,2.194a1,1,0,0,0-.091.668c1.276,3.79,2.572,7.573,3.863,11.358.065.19.128.381.178.575a1.274,1.274,0,0,1-1.24,1.691c-1.625.029-3.251.023-4.877,0a2.025,2.025,0,0,1-2-1.423c-.441-1.181-.847-2.376-1.3-3.553-.534-1.391-1.105-2.769-1.65-4.157-.1-.246-.243-.259-.473-.228-1.493.2-2.987.393-4.481.59-.137.018-.273.054-.412.082a33.7,33.7,0,0,0,1.7,5.623,14.7,14.7,0,0,1,.572,1.843.712.712,0,0,1-.563.958,4.816,4.816,0,0,1-1.307.248q-2.653.045-5.308.011c-.743-.01-1.164-.49-1.293-1.314-.171-1.091-.295-2.193-.532-3.269-.382-1.734-.849-3.45-1.26-5.178a.855.855,0,0,0-.576-.626,17.051,17.051,0,0,0-5.6-1.085,1.716,1.716,0,0,0-1.719.89,7.2,7.2,0,0,0-1.138,4.886c.11,1.227.329,2.444.491,3.667a5.848,5.848,0,0,1,.053.815,1.089,1.089,0,0,1-1.191,1.222c-1.813.014-3.626.007-5.439,0a2.857,2.857,0,0,1-.512-.059c-.972-.181-1.376-.575-1.395-1.555-.03-1.491.016-2.985.027-4.477q.016-2.111.024-4.221a1.679,1.679,0,0,0-.07-.323l-3.163.5c-.27.043-.538.108-.809.128a2.423,2.423,0,0,0-2.036,1.452,14.429,14.429,0,0,0-1.4,4.231c-.184,1-.3,2.014-.428,3.024a1.337,1.337,0,0,1-1.434,1.3q-3.152.008-6.3,0a1.309,1.309,0,0,1-1.43-1.293A31.851,31.851,0,0,1,52.152,110a20.105,20.105,0,0,1,2.491-4.75,23.189,23.189,0,0,0,2.9-5.262,15.263,15.263,0,0,0,.883-4.865c-.055.1-.118.189-.163.29-.446.979-.924,1.944-1.323,2.942a4.839,4.839,0,0,1-4.084,2.956,9.235,9.235,0,0,1-5.278-.633,4.552,4.552,0,0,1-1.88-1.4,2.619,2.619,0,0,1,.29-3.716,5,5,0,0,1,6.043-.84,8.694,8.694,0,0,1,2.76,2.243c.1-.2.191-.352.269-.513.877-1.8,1.7-3.636,2.641-5.409a8.016,8.016,0,0,1,6.166-4.212,64.691,64.691,0,0,1,6.99-.7c2.857-.16,5.718-.318,8.563-.6a16.974,16.974,0,0,0,5.916-2.041c2.868-1.456,5.7-2.992,8.617-4.339a12.418,12.418,0,0,1,7.524-1.094c.8.145,1.566.462,2.353.68a.577.577,0,0,0,.451-.048,14.275,14.275,0,0,1,7.07-2.956,19.178,19.178,0,0,1,1.973-.2,1.238,1.238,0,0,1,1.341.8,1.163,1.163,0,0,1-.436,1.415c-.536.429-1.125.794-1.689,1.187-.234.163-.464.33-.769.547m-28.4,29.734c-.073-.249-.117-.413-.169-.573a27.346,27.346,0,0,1-1.271-7.1,1.16,1.16,0,0,1,1.149-1.285,1.2,1.2,0,0,1,1.364,1.072c.031.2.052.4.063.6a21.644,21.644,0,0,0,1.654,7.439,40.939,40.939,0,0,1,2.687,9.893c.123.768.121.77.918.772.7,0,1.392,0,2.14,0-.052-.172-.077-.25-.1-.329-.488-1.693-1.021-3.375-1.45-5.082a9.332,9.332,0,0,1-.121-4.437c.478-2.053.949-4.106,1.4-6.165.35-1.6.664-3.2,1-4.8a1.232,1.232,0,0,1,.763-1.018,1.33,1.33,0,0,1,1.336.242,1.136,1.136,0,0,1,.371,1.244q-1.032,4.838-2.067,9.676c-.133.621-.278,1.241-.442,1.97,1.31-.129,2.531-.186,3.731-.378a9.527,9.527,0,0,0,7.894-6.081c.372-.929.568-1.927.933-2.858a25.194,25.194,0,0,1,1.545-3.442,2.982,2.982,0,0,1,4-1.349,11.8,11.8,0,0,1,1.608.725c1.055.584,2.095,1.2,3.124,1.827a.525.525,0,0,0,.785-.1,13.249,13.249,0,0,0,2.715-4.8,1.335,1.335,0,0,0-.152-.878,10.362,10.362,0,0,0-.8-1.225,24.44,24.44,0,0,1-3.826-7.52,3.274,3.274,0,0,0-.538-1.067,9.169,9.169,0,0,0-3.413-2.638.394.394,0,0,0-.361.059,1.142,1.142,0,0,0,.172,1.731c.2.145.41.266.615.4a1.133,1.133,0,0,1,.457,1.656,1.12,1.12,0,0,1-1.678.491,9.335,9.335,0,0,1-1.785-1.4,2.5,2.5,0,0,1-.577-2.718,16.432,16.432,0,0,1,.963-1.908c.113-.213.261-.408.393-.61l-.12-.092a6.522,6.522,0,0,0-4.314,4.408,2.652,2.652,0,0,0,1.074,3.042,6.8,6.8,0,0,0,1.595.723c.4.145.845.169,1.256.293a1.258,1.258,0,0,1,.847,1.345,1.147,1.147,0,0,1-1.214,1.048,7.751,7.751,0,0,1-1.49-.2c-4.017-.959-6.048-5.177-3.865-8.621a1.146,1.146,0,0,0,.081-.263c-.17-.054-.316-.107-.465-.147a10.414,10.414,0,0,0-4.662-.021,17.352,17.352,0,0,0-4.891,1.875c-2.11,1.109-4.2,2.261-6.3,3.387a19.5,19.5,0,0,1-7.9,2.248c-3.429.244-6.864.416-10.3.623a23.567,23.567,0,0,0-4.931.781,1.666,1.666,0,0,0-1.339,1.495c-.139,1.138-.282,2.28-.328,3.425a23.63,23.63,0,0,1-.761,4.967,21.118,21.118,0,0,1-3.062,6.135,23.077,23.077,0,0,0-2.856,5.476,29.535,29.535,0,0,0-1.109,8.591.38.38,0,0,0,.267.257c1.18.012,2.36,0,3.54,0,.259,0,.348-.1.382-.345.087-.625.171-1.252.305-1.868a16.066,16.066,0,0,1,2.231-5.784,4.076,4.076,0,0,1,2.35-1.778,2.334,2.334,0,0,0,.959-.55,9.453,9.453,0,0,0,1.441-1.59,37.936,37.936,0,0,0,2.236-3.773c.833-1.665,1.524-3.4,2.29-5.1a1.205,1.205,0,0,1,1.621-.713,1.161,1.161,0,0,1,.7,1.606,17.883,17.883,0,0,1-.885,2.191c-1.073,2.139-2.185,4.26-3.289,6.384-.128.246-.3.468-.486.743a1.582,1.582,0,0,0,.228.017c2.227-.266,4.449-.575,6.68-.789a28.757,28.757,0,0,1,7.275.131c.691.11,1.378.255,2.168.4M73.551,120.05a13.176,13.176,0,0,1,.882-8.825c-.165,0-.251-.007-.336,0-1.085.112-2.168.248-3.255.328-.363.027-.462.133-.452.483.026,1.018.028,2.036.022,3.055-.009,1.535-.037,3.07-.042,4.6,0,.117.117.336.183.338.973.022,1.947.015,3,.015m29.627-9.176c-.9.5-1.723.946-2.537,1.42a.4.4,0,0,0-.112.368q1.4,3.581,2.827,7.148a.379.379,0,0,0,.259.214c.869.016,1.738.01,2.68.01l-3.117-9.161M51.028,99.008l.023-.074c.456-.041.913-.078,1.369-.126.4-.042.449-.128.283-.489a3.347,3.347,0,0,0-1.953-1.712,3.6,3.6,0,0,0-2.806-.047.767.767,0,0,0-.235,1.372,2.76,2.76,0,0,0,1.019.607c.752.21,1.531.319,2.3.469" transform="translate(-22.852 -38.047)" fill="#161615"/>
  </g>
</svg>
