<svg id="Grupo_1071412" data-name="Grupo 1071412" xmlns="http://www.w3.org/2000/svg" xmlns:xlink="http://www.w3.org/1999/xlink" width="128.333" height="79.931" viewBox="0 0 128.333 79.931">
  <defs>
    <clipPath id="clip-path">
      <rect id="Rectángulo_376291" data-name="Rectángulo 376291" width="128.333" height="79.931" fill="none"/>
    </clipPath>
  </defs>
  <g id="Grupo_1071411" data-name="Grupo 1071411" clip-path="url(#clip-path)">
    <path id="Trazado_815802" data-name="Trazado 815802" d="M112.044,7.493c3.45,2.012,6.385,4.314,7.984,8.066a9.6,9.6,0,0,0,2.071-4.129,7.668,7.668,0,0,0-1.8-6.866c-.329-.385-.665-.767-.961-1.177A1.956,1.956,0,0,1,119.6.6a1.886,1.886,0,0,1,2.794.033,20.137,20.137,0,0,1,2.766,3.594c2.345,4.182,1.825,8.3-.661,12.245a27.526,27.526,0,0,1-2.306,3.056A1.016,1.016,0,0,0,122,20.918c1.683,2.7,3.23,5.491,5.056,8.088a6.117,6.117,0,0,1,1.012,5.508c-1.055,3.832-2.68,7.329-5.75,10-.127.111-.256.222-.393.32-2.659,1.888-3.323,1.887-5.925.456-1.687-.927-3.277-2.028-4.937-3a11.59,11.59,0,0,0-2.159-1c-1.01-.341-1.3-.294-1.8.628a38.334,38.334,0,0,0-2.075,4.433c-.755,1.926-1.308,3.931-2.069,5.855-.5,1.269-1.239,2.444-1.819,3.685a1.687,1.687,0,0,0-.154,1.121c2.142,6.366,4.32,12.72,6.488,19.076.109.319.214.64.3.966a2.14,2.14,0,0,1-2.082,2.84c-2.73.049-5.462.038-8.192,0a3.4,3.4,0,0,1-3.366-2.39c-.74-1.984-1.424-3.99-2.183-5.967-.9-2.337-1.856-4.65-2.771-6.981-.162-.413-.409-.436-.794-.383-2.507.343-5.017.661-7.525.991-.231.031-.458.091-.691.138a56.47,56.47,0,0,0,2.863,9.442,24.889,24.889,0,0,1,.961,3.1,1.2,1.2,0,0,1-.946,1.609,8.056,8.056,0,0,1-2.194.417q-4.456.077-8.914.019c-1.248-.017-1.954-.824-2.172-2.207-.288-1.832-.495-3.682-.893-5.491-.642-2.912-1.425-5.794-2.116-8.7a1.436,1.436,0,0,0-.968-1.052,28.652,28.652,0,0,0-9.4-1.822,2.882,2.882,0,0,0-2.887,1.5,12.1,12.1,0,0,0-1.911,8.206c.184,2.061.553,4.105.826,6.159a9.794,9.794,0,0,1,.088,1.369,1.828,1.828,0,0,1-2,2.053c-3.044.024-6.09.012-9.134.006a4.777,4.777,0,0,1-.861-.1c-1.633-.3-2.31-.966-2.343-2.611-.05-2.5.026-5.012.045-7.519q.027-3.544.041-7.089a2.876,2.876,0,0,0-.118-.542l-5.313.84c-.453.072-.9.182-1.358.216a4.071,4.071,0,0,0-3.42,2.439,24.257,24.257,0,0,0-2.35,7.106c-.31,1.68-.5,3.383-.719,5.079a2.244,2.244,0,0,1-2.408,2.181q-5.294.014-10.587,0a2.2,2.2,0,0,1-2.4-2.172,53.514,53.514,0,0,1,2.332-18.987,33.769,33.769,0,0,1,4.185-7.978,38.979,38.979,0,0,0,4.875-8.837,25.644,25.644,0,0,0,1.483-8.171c-.092.162-.2.318-.275.487-.747,1.644-1.552,3.266-2.222,4.941-1.248,3.121-3.773,4.429-6.86,4.964a15.507,15.507,0,0,1-8.864-1.063A7.642,7.642,0,0,1,1.074,40.74,4.4,4.4,0,0,1,1.56,34.5a8.389,8.389,0,0,1,10.15-1.41,14.589,14.589,0,0,1,4.635,3.767c.173-.328.321-.591.452-.861,1.473-3.031,2.86-6.108,4.436-9.084,2.189-4.135,5.78-6.314,10.354-7.075a108.518,108.518,0,0,1,11.741-1.174c4.8-.269,9.6-.534,14.382-1.014a28.5,28.5,0,0,0,9.936-3.427c4.817-2.445,9.57-5.025,14.472-7.287A20.86,20.86,0,0,1,94.756,5.1c1.342.244,2.629.776,3.951,1.142a.97.97,0,0,0,.758-.081A23.975,23.975,0,0,1,111.34,1.192a32.4,32.4,0,0,1,3.314-.331,2.08,2.08,0,0,1,2.252,1.344,1.954,1.954,0,0,1-.733,2.375c-.9.721-1.889,1.333-2.837,1.995-.392.273-.779.553-1.292.918M64.353,57.431c-.123-.418-.2-.692-.283-.961a45.924,45.924,0,0,1-2.134-11.917,1.947,1.947,0,0,1,1.931-2.159,2.011,2.011,0,0,1,2.291,1.8c.052.333.086.67.1,1.007A36.36,36.36,0,0,0,69.041,57.7a68.78,68.78,0,0,1,4.512,16.616c.207,1.29.2,1.293,1.541,1.3,1.169,0,2.339,0,3.6,0-.087-.289-.129-.421-.168-.553-.819-2.843-1.714-5.668-2.436-8.535a15.663,15.663,0,0,1-.2-7.451c.8-3.448,1.594-6.9,2.351-10.355.588-2.682,1.115-5.377,1.677-8.065a2.068,2.068,0,0,1,1.282-1.71,2.233,2.233,0,0,1,2.243.406,1.909,1.909,0,0,1,.623,2.09q-1.733,8.126-3.471,16.251c-.224,1.044-.467,2.084-.742,3.31,2.2-.216,4.252-.313,6.266-.635,6.255-1,10.857-4.228,13.258-10.214.625-1.559.953-3.236,1.568-4.8a42.269,42.269,0,0,1,2.6-5.78c1.526-2.634,3.866-3.33,6.722-2.267a19.912,19.912,0,0,1,2.7,1.219c1.772.981,3.518,2.012,5.247,3.068a.88.88,0,0,0,1.317-.17,22.249,22.249,0,0,0,4.559-8.056,2.244,2.244,0,0,0-.255-1.474,17.348,17.348,0,0,0-1.344-2.057,41.06,41.06,0,0,1-6.425-12.63,5.481,5.481,0,0,0-.9-1.791,15.394,15.394,0,0,0-5.731-4.43.66.66,0,0,0-.606.1,1.919,1.919,0,0,0,.289,2.907c.328.244.687.447,1.032.668a1.9,1.9,0,0,1,.768,2.782,1.881,1.881,0,0,1-2.818.824,15.633,15.633,0,0,1-3-2.353,4.2,4.2,0,0,1-.969-4.564,27.644,27.644,0,0,1,1.618-3.205c.189-.357.438-.684.66-1.024l-.2-.154c-3.488,1.4-6.236,3.576-7.245,7.4a4.455,4.455,0,0,0,1.8,5.111,11.421,11.421,0,0,0,2.678,1.214c.675.243,1.42.283,2.11.491a2.115,2.115,0,0,1,1.422,2.26,1.925,1.925,0,0,1-2.039,1.76,12.958,12.958,0,0,1-2.5-.338c-6.747-1.61-10.157-8.7-6.491-14.478a1.911,1.911,0,0,0,.135-.442c-.285-.091-.53-.18-.78-.248a17.482,17.482,0,0,0-7.831-.036,29.153,29.153,0,0,0-8.215,3.149C75.7,14.67,72.192,16.6,68.663,18.5A32.752,32.752,0,0,1,55.39,22.27c-5.759.411-11.527.7-17.291,1.048a39.643,39.643,0,0,0-8.281,1.312,2.8,2.8,0,0,0-2.249,2.511c-.233,1.912-.473,3.83-.55,5.753a39.644,39.644,0,0,1-1.278,8.341c-.981,3.8-3.038,7.066-5.143,10.3a38.778,38.778,0,0,0-4.8,9.2c-1.508,4.7-1.774,9.553-1.862,14.43,0,.148.29.43.448.432,1.982.021,3.963-.008,5.945,0,.435,0,.584-.172.641-.581.146-1.049.287-2.1.512-3.136a26.971,26.971,0,0,1,3.747-9.714,6.845,6.845,0,0,1,3.948-2.986,3.9,3.9,0,0,0,1.61-.924,15.789,15.789,0,0,0,2.421-2.671,63.785,63.785,0,0,0,3.756-6.337c1.4-2.8,2.559-5.711,3.846-8.564a2.026,2.026,0,0,1,2.723-1.2,1.951,1.951,0,0,1,1.183,2.7,29.962,29.962,0,0,1-1.486,3.679c-1.8,3.594-3.67,7.155-5.524,10.722-.215.414-.512.786-.817,1.248a2.689,2.689,0,0,0,.383.029c3.739-.446,7.472-.966,11.219-1.325a48.262,48.262,0,0,1,12.217.221c1.162.184,2.315.428,3.641.676m-16.5,18.2a22.129,22.129,0,0,1,1.482-14.821c-.278,0-.422-.013-.564,0-1.822.189-3.641.417-5.467.551-.61.045-.776.223-.761.811.044,1.709.047,3.42.037,5.13-.015,2.578-.062,5.155-.07,7.733,0,.2.2.565.307.567,1.634.037,3.27.026,5.034.026m49.758-15.41c-1.5.833-2.894,1.588-4.26,2.384a.674.674,0,0,0-.188.619q2.346,6.014,4.748,12.006a.636.636,0,0,0,.434.36c1.46.027,2.92.016,4.5.016-1.769-5.2-3.507-10.3-5.235-15.385M10.021,40.287l.038-.125c.766-.069,1.534-.131,2.3-.211.677-.071.754-.216.475-.822a5.624,5.624,0,0,0-3.279-2.875,6.04,6.04,0,0,0-4.712-.08,1.288,1.288,0,0,0-.4,2.3A4.642,4.642,0,0,0,6.159,39.5c1.262.352,2.572.535,3.862.788" transform="translate(0 0)" fill="#161615"/>
  </g>
</svg>
