<svg id="Grupo_1071929" data-name="Grupo 1071929" xmlns="http://www.w3.org/2000/svg" xmlns:xlink="http://www.w3.org/1999/xlink" width="157.421" height="135.096" viewBox="0 0 157.421 135.096">
  <defs>
    <clipPath id="clip-path">
      <rect id="Rectángulo_376484" data-name="Rectángulo 376484" width="157.421" height="135.096" fill="none"/>
    </clipPath>
  </defs>
  <g id="Grupo_1071928" data-name="Grupo 1071928" clip-path="url(#clip-path)">
    <path id="Trazado_816290" data-name="Trazado 816290" d="M137.385,28.608l1.065-.074c-.056.121.006.191.115.19s.169-.073.108-.192c1.792-.01,3.584-.025,5.376-.03a5.35,5.35,0,0,1,4.988,2.8,6.664,6.664,0,0,1,.687,3.327q.03,7.255-.044,14.509a5.672,5.672,0,0,0,.9,2.686c.665,1.306,1.742,2.4,2.029,3.9.947.614,1.161,1.72,1.712,2.6.868,1.382,1.633,2.829,2.44,4.251a5.083,5.083,0,0,1-2.023,6.95c-1.459.819-2.906,1.665-4.394,2.432a1.038,1.038,0,0,0-.637,1.155c.045.508.03,1.023.041,1.533-.13-.051-.208,0-.184.131.014.075.1.105.186.056q0,13.6,0,27.2a5.73,5.73,0,0,1-1.818,4.587,4.777,4.777,0,0,1-3.275,1.311q-27.481-.033-54.962-.031a5.607,5.607,0,0,0-3.007.8c-3.188,1.9-6.372,3.811-9.626,5.595q-4.833,2.649-9.546,5.5c-7.041,4.247-14.272,8.162-21.362,12.321-1.252.734-2.549,1.4-3.753,2.2a4.936,4.936,0,0,1-3.469.719,4.29,4.29,0,0,1-3.063-1.865c-1.347-2.163-2.718-4.31-3.977-6.527-1.535-2.7-3.042-5.426-4.661-8.079-1.822-2.988-3.418-6.1-5.174-9.123-.228-.393-.464-.782-.675-1.184-.195-.373-.528-.347-.863-.347-2,0-4,.015-6-.006a5.263,5.263,0,0,1-4.927-4.037,7.934,7.934,0,0,1-.17-1.807c.021-4.534.02-9.067.037-13.6a5.147,5.147,0,0,0-1.1-2.6c-.659-1.131-1.337-2.25-2.014-3.37-1.293-2.141-2.46-4.352-3.662-6.544A47.616,47.616,0,0,1,.395,71.76a4.726,4.726,0,0,1,.668-4.849,9.763,9.763,0,0,1,3.469-2.464c1.525-.87,3.041-1.757,4.58-2.6.331-.182.3-.421.3-.692q.01-8.144.017-16.287c0-3.637.022-7.275-.026-10.911a5.484,5.484,0,0,1,5.45-5.463q24.1.032,48.2.017a12.466,12.466,0,0,1,1.842.045,5.973,5.973,0,0,0,4.379-1.4c1.383-.94,2.885-1.706,4.338-2.543q3.757-2.163,7.518-4.32c4.437-2.559,8.895-5.083,13.3-7.69C101.105,8.654,107.944,5,114.553.951c2.873-1.76,6-1.075,7.818,2.046,1.688,2.894,3.3,5.829,4.985,8.726,1.928,3.32,3.914,6.606,5.838,9.928,1.216,2.1,2.37,4.234,3.541,6.359a2.136,2.136,0,0,0,.67.6c-.007.019-.022.039-.019.055s.03.02.046.03l-.047-.087M79.6,103v0h63.951c1.328,0,1.332,0,1.332-1.457q0-26.126,0-52.251c0-5.02-.02-10.04,0-15.06,0-.609-.227-.845-.8-.827-.2.007-.41,0-.614,0L15.863,33.4c-.23,0-.462.019-.691,0-.607-.039-.91.184-.843.841a12.78,12.78,0,0,1,.015,1.305q-.008,33.271-.028,66.542c0,.707.263.973.948.944C16.109,103,16.955,103,17.8,103q30.9,0,61.8,0M77.084,28.322l.1.155c1.751,0,3.5-.017,5.254.009a3.365,3.365,0,0,0,1.809-.514q5.608-3.275,11.238-6.513,3.921-2.265,7.849-4.519c.97-.559,1.925-1.148,2.908-1.686a2.372,2.372,0,0,1,3.309.788c.12.166.254.323.365.494a7.242,7.242,0,0,0,8.948,2.332,2.744,2.744,0,0,1,4.1,1.294c1.406,2.582,2.932,5.1,4.369,7.665a1.173,1.173,0,0,0,1.223.694c.741-.041,1.485-.024,2.228-.034.8-.011.793-.009.382-.718q-3.553-6.144-7.1-12.29c-1.932-3.343-3.877-6.68-5.789-10.034-.334-.585-.631-.695-1.18-.279a13.333,13.333,0,0,1-1.405.843q-6.39,3.7-12.781,7.4Q91.838,19.792,80.768,26.174c-1.231.711-2.456,1.432-3.684,2.148m1.033,79.757a1.481,1.481,0,0,0-.323-.121q-2.69-.006-5.378,0a2.753,2.753,0,0,0-1.376.431q-9.67,5.58-19.342,11.157c-1.714.989-2.9.735-3.992-.888a6.524,6.524,0,0,0-2.221-2.186,7.225,7.225,0,0,0-7.185-.15,2.417,2.417,0,0,1-2.737-.146,3.975,3.975,0,0,1-1.015-1.335c-1-1.726-2.077-3.415-2.94-5.208-.658-1.368-1.52-2-3.029-1.688a3.974,3.974,0,0,1-.767,0c-1.01.006-1.025.038-.5.941q4.334,7.506,8.664,15.014c1.1,1.9,2.211,3.8,3.3,5.712.3.517.585.667,1.135.282.711-.5,1.483-.907,2.235-1.342q15.515-8.957,31.032-17.911l4.438-2.563m29.632-79.513v-.02q6.8,0,13.593,0c.753,0,.812-.087.419-.78-.567-1-1.237-1.951-1.715-2.99-.37-.806-.81-.867-1.568-.637a10.244,10.244,0,0,1-4.825.188,12.327,12.327,0,0,1-6.4-3.4.715.715,0,0,0-1.01-.1c-1.88,1.139-3.787,2.232-5.687,3.338-2.23,1.3-4.465,2.591-6.692,3.9-.137.08-.381.146-.321.369s.289.142.455.143h13.746m-58.74,79.366v-.017h-.768q-5.571,0-11.14,0c-.245,0-.564-.111-.718.115-.173.255.117.463.234.677.309.56.654,1.1.94,1.671a.934.934,0,0,0,1.295.547,10.521,10.521,0,0,1,4.544-.29,11.549,11.549,0,0,1,6.791,3.419.714.714,0,0,0,1,.192c3.27-1.9,6.551-3.788,9.822-5.689.2-.115.566-.2.456-.509-.082-.233-.41-.113-.624-.113q-5.916-.012-11.832-.006M9.317,77.758c.089-.185.13-.228.13-.272,0-3.192,0-6.385-.017-9.577,0-.685-.417-.405-.713-.233-1.137.663-2.263,1.348-3.4,2.017-.376.221-.376.489-.172.831.365.611.711,1.234,1.066,1.85l3.1,5.384M149.8,66.579a13.274,13.274,0,0,0,2.583-1.372c.334-.205.16-.489.015-.735-.412-.706-.811-1.422-1.247-2.112a10.447,10.447,0,0,0-1.351-2.047Z" transform="translate(0 0)" fill="#060607"/>
    <path id="Trazado_816291" data-name="Trazado 816291" d="M224.668,46.256c.061.118,0,.191-.108.192s-.171-.069-.115-.19l.223,0" transform="translate(-85.995 -17.724)" fill="#bdc93e"/>
    <path id="Trazado_816292" data-name="Trazado 816292" d="M242.653,121.181c-.083.05-.171.019-.185-.056-.025-.133.054-.182.184-.13a.767.767,0,0,1,.038.129c0,.017-.024.038-.037.057" transform="translate(-92.907 -46.355)" fill="#bdc93e"/>
    <path id="Trazado_816293" data-name="Trazado 816293" d="M222.733,46.38l.047.087c-.016-.01-.043-.017-.046-.03s.012-.036.018-.054l-.019,0" transform="translate(-85.347 -17.772)" fill="#bdc93e"/>
    <path id="Trazado_816294" data-name="Trazado 816294" d="M88.494,123.754q-30.9,0-61.8,0c-.845,0-1.691,0-2.536.036-.685.029-.949-.237-.948-.943q.028-33.271.028-66.542A12.619,12.619,0,0,0,23.222,55c-.068-.657.236-.881.843-.841.229.015.461,0,.692,0l127.6.009c.2,0,.41.006.615,0,.574-.018.8.218.8.827-.015,5.02,0,10.04,0,15.06q.006,26.125,0,52.25c0,1.452,0,1.457-1.332,1.457q-31.976,0-63.952,0Zm0-3.232v0h35.669q6.881,0,13.761,0c2.042,0,2.955-.882,3.079-2.9a6.972,6.972,0,0,1,6.606-6.583c2.007-.149,2.784-.949,2.789-2.968q.023-9.183.014-18.366,0-9.875,0-19.75c0-2.115-.852-2.985-2.968-3.034a5.694,5.694,0,0,1-1.551-.343,6.786,6.786,0,0,1-4.9-6.409,3.144,3.144,0,0,0-.516-1.637,2.131,2.131,0,0,0-1.5-1.07c-1.141.019-2.281-.047-3.42-.046q-41.473.019-82.947.015c-4.765,0-9.531-.115-14.3.092a1.685,1.685,0,0,0-.725.151,2.684,2.684,0,0,0-1.609,2.677,5.54,5.54,0,0,1-.749,2.927,7.055,7.055,0,0,1-6.1,3.647,2.448,2.448,0,0,0-1.9.859,2.74,2.74,0,0,0-.7,1.929c.082,12.884.064,25.769.056,38.654a2.565,2.565,0,0,0,2.477,2.662c4.081.33,6.777,2.993,6.935,6.83a2.611,2.611,0,0,0,2.381,2.63c.563.028,1.126.044,1.689.044q24.216,0,48.431,0" transform="translate(-8.894 -20.751)" fill="#bdc93e"/>
    <path id="Trazado_816295" data-name="Trazado 816295" d="M124.971,31.374c1.227-.716,2.452-1.437,3.684-2.148q11.068-6.387,22.136-12.771,6.394-3.691,12.781-7.4a13.342,13.342,0,0,0,1.406-.843c.548-.416.846-.307,1.18.278,1.912,3.355,3.857,6.691,5.789,10.035q3.551,6.144,7.1,12.29c.41.71.416.707-.382.719-.743.01-1.487-.007-2.228.034a1.172,1.172,0,0,1-1.223-.694c-1.438-2.566-2.963-5.083-4.37-7.665a2.744,2.744,0,0,0-4.1-1.293,7.243,7.243,0,0,1-8.948-2.332c-.11-.171-.244-.329-.364-.495a2.373,2.373,0,0,0-3.31-.788c-.983.538-1.937,1.126-2.908,1.686q-3.923,2.262-7.849,4.519-5.624,3.248-11.237,6.513a3.361,3.361,0,0,1-1.809.514c-1.751-.027-3.5-.009-5.253-.009l-.1-.155" transform="translate(-47.886 -3.053)" fill="#bdc93e"/>
    <path id="Trazado_816296" data-name="Trazado 816296" d="M94.872,175.085l-4.437,2.563Q74.919,186.6,59.4,195.558c-.753.434-1.525.845-2.236,1.342-.55.385-.839.235-1.135-.282-1.092-1.909-2.2-3.807-3.3-5.712Q48.4,183.4,44.065,175.893c-.521-.9-.507-.935.5-.941a3.972,3.972,0,0,0,.767,0c1.509-.315,2.371.32,3.029,1.688.862,1.793,1.941,3.482,2.94,5.208a3.979,3.979,0,0,0,1.015,1.336,2.417,2.417,0,0,0,2.737.146,7.225,7.225,0,0,1,7.185.15,6.52,6.52,0,0,1,2.221,2.186c1.093,1.623,2.278,1.876,3.991.888q9.67-5.581,19.342-11.157a2.757,2.757,0,0,1,1.376-.431q2.689-.008,5.378,0a1.469,1.469,0,0,1,.323.121" transform="translate(-16.755 -67.006)" fill="#bdc93e"/>
    <path id="Trazado_816297" data-name="Trazado 816297" d="M165.857,41.4q-6.873,0-13.746,0c-.166,0-.394.084-.455-.143s.184-.289.321-.369c2.227-1.3,4.462-2.6,6.693-3.9,1.9-1.105,3.807-2.2,5.686-3.338a.715.715,0,0,1,1.01.1,12.327,12.327,0,0,0,6.4,3.4,10.247,10.247,0,0,0,4.825-.188c.757-.229,1.2-.17,1.567.637.478,1.04,1.148,1.99,1.715,2.99.393.693.334.78-.419.78q-6.8,0-13.594,0v.02" transform="translate(-58.108 -12.833)" fill="#bdc93e"/>
    <path id="Trazado_816298" data-name="Trazado 816298" d="M71.579,174.954q5.916,0,11.832.006c.213,0,.542-.12.624.113.11.31-.259.395-.456.509-3.271,1.9-6.552,3.785-9.822,5.689a.713.713,0,0,1-1-.192,11.545,11.545,0,0,0-6.792-3.418,10.518,10.518,0,0,0-4.544.289.935.935,0,0,1-1.3-.546c-.286-.571-.631-1.112-.939-1.671-.118-.214-.407-.423-.234-.677.153-.226.473-.114.718-.115q5.57-.008,11.14,0h.769Z" transform="translate(-22.569 -67.023)" fill="#bdc93e"/>
    <path id="Trazado_816299" data-name="Trazado 816299" d="M12.431,119.671l-3.1-5.383c-.355-.617-.7-1.24-1.065-1.85-.2-.343-.2-.609.171-.831,1.135-.669,2.26-1.354,3.4-2.017.3-.173.709-.452.712.233.017,3.193.015,6.385.017,9.577,0,.044-.039.087-.13.272" transform="translate(-3.113 -41.914)" fill="#bdc93e"/>
    <path id="Trazado_816300" data-name="Trazado 816300" d="M242.858,104.046V97.779a10.447,10.447,0,0,1,1.351,2.047c.437.69.835,1.406,1.247,2.112.144.247.318.53-.015.735a13.274,13.274,0,0,1-2.583,1.372" transform="translate(-93.058 -37.467)" fill="#bdc93e"/>
    <path id="Trazado_816301" data-name="Trazado 816301" d="M90.555,122.529q-24.215,0-48.431,0c-.563,0-1.127-.016-1.689-.044a2.612,2.612,0,0,1-2.381-2.63c-.158-3.837-2.853-6.5-6.935-6.83a2.565,2.565,0,0,1-2.477-2.661c.007-12.885.026-25.769-.056-38.654a2.74,2.74,0,0,1,.7-1.929,2.448,2.448,0,0,1,1.9-.859,7.055,7.055,0,0,0,6.1-3.647,5.541,5.541,0,0,0,.749-2.928,2.685,2.685,0,0,1,1.609-2.676,1.7,1.7,0,0,1,.725-.152c4.764-.207,9.53-.089,14.3-.091q41.473-.019,82.947-.015c1.139,0,2.279.065,3.42.046a2.131,2.131,0,0,1,1.5,1.07,3.144,3.144,0,0,1,.516,1.637,6.786,6.786,0,0,0,4.9,6.409,5.671,5.671,0,0,0,1.551.342c2.116.049,2.965.92,2.968,3.035q.015,9.874,0,19.75,0,9.183-.014,18.366c0,2.019-.782,2.819-2.789,2.968a6.972,6.972,0,0,0-6.606,6.583c-.123,2.022-1.036,2.9-3.079,2.9q-6.881.016-13.761,0H90.555Zm-.02-4.89v0q23.518,0,47.037.012a.929.929,0,0,0,1.069-.794,11.459,11.459,0,0,1,8.278-8.221c.519-.146.612-.4.611-.865q-.016-16.672.007-33.344c0-.6-.165-.91-.708-1.062-.172-.048-.344-.1-.513-.159a11.806,11.806,0,0,1-5.1-3.3,12.318,12.318,0,0,1-2.5-4.513c-.213-.683-.569-1.2-1.459-1.079a15.463,15.463,0,0,1-2.072.04q-39.42,0-78.842,0c-4.328,0-8.657.028-12.985.033a.757.757,0,0,0-.875.629,11.667,11.667,0,0,1-8.161,8.3,1.043,1.043,0,0,0-.878,1.181q.019,16.557-.022,33.114a.879.879,0,0,0,.762,1.013,11.582,11.582,0,0,1,8.275,8.194.962.962,0,0,0,1.108.828q23.48-.025,46.96-.013" transform="translate(-10.954 -22.759)" fill="#060607"/>
    <path id="Trazado_816302" data-name="Trazado 816302" d="M93.546,120.689q-23.48,0-46.96.013a.963.963,0,0,1-1.109-.828A11.58,11.58,0,0,0,37.2,111.68a.879.879,0,0,1-.762-1.013q.044-16.557.022-33.113a1.043,1.043,0,0,1,.878-1.182,11.665,11.665,0,0,0,8.161-8.3.758.758,0,0,1,.875-.629c4.329,0,8.657-.032,12.986-.033q39.421-.006,78.842,0a15.455,15.455,0,0,0,2.072-.04c.891-.121,1.246.4,1.459,1.079a12.329,12.329,0,0,0,2.5,4.513,11.8,11.8,0,0,0,5.1,3.3c.169.059.34.11.513.159.543.152.709.465.708,1.062q-.036,16.672-.008,33.345c0,.468-.093.719-.611.865a11.459,11.459,0,0,0-8.278,8.221.928.928,0,0,1-1.068.794q-23.518-.021-47.037-.011Zm.281-49.516a22.866,22.866,0,0,0-23.163,23.78,21.848,21.848,0,0,0,6.869,15.356,22.416,22.416,0,0,0,20.308,6.268,21.87,21.87,0,0,0,11.815-6.283,22.321,22.321,0,0,0,6.781-16.278,22.913,22.913,0,0,0-22.61-22.842M54.519,86.709a7.353,7.353,0,1,0,7.444,7.41,7.234,7.234,0,0,0-7.444-7.41m85.248,7.507c.331-4.378-3.767-7.863-7.784-7.538a7.388,7.388,0,0,0,.569,14.754c4.281-.015,7.536-3.864,7.216-7.216" transform="translate(-13.963 -25.808)" fill="#bdc93e"/>
    <path id="Trazado_816303" data-name="Trazado 816303" d="M115.079,73.544a22.912,22.912,0,0,1,22.61,22.842,22.318,22.318,0,0,1-6.781,16.278,21.86,21.86,0,0,1-11.815,6.283,22.413,22.413,0,0,1-20.308-6.267,21.846,21.846,0,0,1-6.87-15.356,22.866,22.866,0,0,1,23.163-23.78m-.4,4.93A17.964,17.964,0,1,0,132.827,96.1a17.94,17.94,0,0,0-18.144-17.627" transform="translate(-35.216 -28.18)" fill="#060607"/>
    <path id="Trazado_816304" data-name="Trazado 816304" d="M61.239,98.727a7.353,7.353,0,1,1-7.261,7.257,7.3,7.3,0,0,1,7.261-7.257m.031,4.925c-1.226-.265-2.439,1.259-2.44,2.4a2.884,2.884,0,0,0,2.351,2.5,2.551,2.551,0,0,0,2.6-2.426,2.406,2.406,0,0,0-2.513-2.471" transform="translate(-20.683 -37.826)" fill="#060607"/>
    <path id="Trazado_816305" data-name="Trazado 816305" d="M194.881,106.208c.32,3.351-2.934,7.2-7.216,7.216a7.388,7.388,0,0,1-.569-14.754c4.017-.324,8.115,3.161,7.784,7.539m-7.236-2.581c-1.58-.213-2.554,1.4-2.589,2.443a2.724,2.724,0,0,0,2.6,2.452,2.413,2.413,0,0,0,2.455-2.636,2.306,2.306,0,0,0-2.463-2.259" transform="translate(-69.078 -37.8)" fill="#060607"/>
    <path id="Trazado_816306" data-name="Trazado 816306" d="M117.714,81.537a17.967,17.967,0,1,1-17.9,17.891,17.869,17.869,0,0,1,17.9-17.891M111.06,102.9A2.312,2.312,0,0,0,108.717,106a8.579,8.579,0,0,0,5.8,5.863,1.188,1.188,0,0,1,.975,1.336,2.2,2.2,0,0,0,2.291,2.2,2.263,2.263,0,0,0,2.417-2.14c0-.889.4-1.139,1.118-1.329a8.249,8.249,0,0,0,4.548-2.876,6.667,6.667,0,0,0,1.071-5.613,7.513,7.513,0,0,0-4.63-5.3,23.647,23.647,0,0,0-5.046-1.394,5.249,5.249,0,0,1-2.639-1.228c-.508-.485-.318-1.043-.352-1.646a1.656,1.656,0,0,1,.835-1.54c1.855-1.454,5.461-1.235,6.651,1.4a2.921,2.921,0,0,0,1,1.19,2.462,2.462,0,0,0,2.742.045,2.375,2.375,0,0,0,.964-2.628,8.352,8.352,0,0,0-5.44-5.218c-.616-.208-.808-.44-.8-1.044a2.444,2.444,0,0,0-2.372-2.557,2.341,2.341,0,0,0-2.377,2.523c.009.631-.22.849-.8,1.06-4.014,1.451-6.082,4.779-5.115,8.947a6.151,6.151,0,0,0,2.063,3.254c2.007,1.746,4.478,2.33,7,2.813a5.373,5.373,0,0,1,3.149,1.617,1.818,1.818,0,0,1-.191,2.626,5.9,5.9,0,0,1-2.966,1.1,5.726,5.726,0,0,1-3.647-.691,3.792,3.792,0,0,1-1.641-2.187,2.164,2.164,0,0,0-2.257-1.7" transform="translate(-38.247 -31.243)" fill="#bdc93e"/>
    <path id="Trazado_816307" data-name="Trazado 816307" d="M64.285,106.7a2.406,2.406,0,0,1,2.513,2.471,2.551,2.551,0,0,1-2.6,2.426,2.884,2.884,0,0,1-2.351-2.5c0-1.14,1.214-2.663,2.44-2.4" transform="translate(-23.698 -40.874)" fill="#bdc93e"/>
    <path id="Trazado_816308" data-name="Trazado 816308" d="M190.615,106.707a2.306,2.306,0,0,1,2.463,2.259,2.413,2.413,0,0,1-2.455,2.636,2.724,2.724,0,0,1-2.6-2.452c.035-1.044,1.009-2.655,2.589-2.443" transform="translate(-72.048 -40.881)" fill="#bdc93e"/>
    <path id="Trazado_816309" data-name="Trazado 816309" d="M116.509,104.133a2.164,2.164,0,0,1,2.257,1.7,3.792,3.792,0,0,0,1.641,2.187,5.726,5.726,0,0,0,3.647.691,5.9,5.9,0,0,0,2.966-1.1,1.818,1.818,0,0,0,.191-2.626,5.373,5.373,0,0,0-3.149-1.617c-2.521-.483-4.993-1.068-7-2.813A6.151,6.151,0,0,1,115,97.295c-.967-4.168,1.1-7.5,5.115-8.947.585-.212.814-.429.8-1.06a2.341,2.341,0,0,1,2.377-2.523,2.444,2.444,0,0,1,2.372,2.557c0,.6.189.836.8,1.044a8.352,8.352,0,0,1,5.44,5.218,2.375,2.375,0,0,1-.964,2.628,2.462,2.462,0,0,1-2.742-.045,2.921,2.921,0,0,1-1-1.19c-1.19-2.64-4.8-2.858-6.651-1.4a1.656,1.656,0,0,0-.835,1.54c.034.6-.157,1.16.352,1.646a5.249,5.249,0,0,0,2.639,1.228,23.648,23.648,0,0,1,5.046,1.394,7.513,7.513,0,0,1,4.63,5.3,6.667,6.667,0,0,1-1.071,5.613,8.249,8.249,0,0,1-4.548,2.876c-.719.19-1.123.44-1.118,1.329a2.263,2.263,0,0,1-2.417,2.14,2.2,2.2,0,0,1-2.291-2.2,1.188,1.188,0,0,0-.975-1.336,8.579,8.579,0,0,1-5.8-5.863,2.312,2.312,0,0,1,2.343-3.107" transform="translate(-43.696 -32.48)" fill="#060607"/>
  </g>
</svg>
