<svg id="Grupo_1071937" data-name="Grupo 1071937" xmlns="http://www.w3.org/2000/svg" xmlns:xlink="http://www.w3.org/1999/xlink" width="129.711" height="97.544" viewBox="0 0 129.711 97.544">
  <defs>
    <clipPath id="clip-path">
      <rect id="Rectángulo_376494" data-name="Rectángulo 376494" width="129.711" height="97.544" fill="none"/>
    </clipPath>
  </defs>
  <g id="Grupo_1071936" data-name="Grupo 1071936" clip-path="url(#clip-path)">
    <path id="Trazado_816339" data-name="Trazado 816339" d="M29.516,16.38a2.471,2.471,0,0,0,0-.886.331.331,0,0,0,0-.506v-.507a2.023,2.023,0,0,0,0-1.392,2.483,2.483,0,0,0,0-.886.33.33,0,0,0,0-.506,3.322,3.322,0,0,0,.005-1.013c0-.041,0-.081,0-.121.107-.488-.018-.729-.555-.943A2.024,2.024,0,0,1,27.752,7.8c-.131-1.745.008-3.5-.058-5.242A2.357,2.357,0,0,1,30.331,0c3.12.038,6.24.026,9.361.006,1.95-.012,2.8.547,3.252,2.326,0,.044.006.087.008.131-.009,1.515-.012,3.031-.029,4.546a2.477,2.477,0,0,1-1.088,2.361c-.947.448-.786,1.1-.787,1.8-.006,3.286.005,6.571-.012,9.857a.942.942,0,0,0,.449.881,21.007,21.007,0,0,1,3.951,3.355,21.9,21.9,0,0,1,3.1,4.5,21.24,21.24,0,0,1,1.516,3.594c.066.226.254.24.453.238.59-.005,1.181-.007,1.771,0a.977.977,0,0,1,1.08,1.024.775.775,0,0,1-.622.882,2.68,2.68,0,0,1-.92.117q-13.435,0-26.87.008c-.234,0-.573-.176-.681.237-.012.01-.035.021-.034.03a.465.465,0,0,0,.019.086v2.445c-.008.012-.025.029-.022.035a.436.436,0,0,0,.049.062c.194.252.469.128.7.128,4.111.009,8.223.073,12.331-.019a20.554,20.554,0,0,1,6.748,1.111,26.508,26.508,0,0,1,8.841,4.61c.136.11.274.324.478.217.166-.088.082-.306.095-.466a35.136,35.136,0,0,1,.965-5.491c.323-1.348.827-2.638,1.249-3.955q.759-1.895,1.675-3.719a37.934,37.934,0,0,1,4.55-6.988,37.319,37.319,0,0,1,3.963-4.183,39.124,39.124,0,0,1,8.093-5.6,37.33,37.33,0,0,1,10.875-3.623,35.132,35.132,0,0,1,7.456-.608,45.7,45.7,0,0,1,6.906.813,39.145,39.145,0,0,1,8.519,2.77,30.82,30.82,0,0,1,6.722,4.134c1.257,1,2.55,1.973,3.708,3.082a37.449,37.449,0,0,1,2.939,3.327,39.8,39.8,0,0,1,3.474,5.077,36.665,36.665,0,0,1,4.234,10.946,31.367,31.367,0,0,1,.824,6.2c.011.808.119,1.627.087,2.439a38.985,38.985,0,0,1-.881,7.252,40.618,40.618,0,0,1-1.908,6.4,36.711,36.711,0,0,1-5.572,9.5,46.047,46.047,0,0,1-3.918,4.179,36.778,36.778,0,0,1-10.963,7.08,37.4,37.4,0,0,1-6.435,2.146c-1.3.29-2.624.549-3.96.719a43.469,43.469,0,0,1-6.649.227,32.545,32.545,0,0,1-6.431-.909,38.745,38.745,0,0,1-7.554-2.631c-.15-.069-.31-.115-.465-.171a9.173,9.173,0,0,0-1.693-.829,42.544,42.544,0,0,1-5.525-3.639A35.327,35.327,0,0,1,62.6,73.055a38.6,38.6,0,0,1-3.333-4.524c-.078-.126-.124-.269-.314-.259-.248.013-.14.207-.176.329-.133.441-.361.861-.471,1.29-.648,2.528-2.414,4.31-4.2,5.978a9.76,9.76,0,0,1-3.781,2.025,14.582,14.582,0,0,1-4.335.759c-5.763-.006-11.526.006-17.289.008a3.236,3.236,0,0,0-1.739.444c-.95.583-1.867,1.211-2.781,1.851a23.829,23.829,0,0,0-4.966,4.779,25.749,25.749,0,0,0-4.683,9.406c-.109.4.028.453.328.454.612,0,1.224-.019,1.836-.019l55.224,0c.337,0,.675.012,1.013,0,.214-.006.386-.032.422-.339.219-1.868.234-3.749.352-5.623.084-1.345.045-2.7.012-4.048A1.094,1.094,0,0,1,74.6,84.31c.83.193.953.363,1.033,1.192a42.086,42.086,0,0,1-.018,5.926c-.068,1.535-.232,3.066-.356,4.6-.105,1.3-.343,1.516-1.74,1.516q-28.9,0-57.791,0c-.8,0-1.6.015-2.4-.019A.98.98,0,0,1,12.3,96.333a16.025,16.025,0,0,1,.6-2.687,34.95,34.95,0,0,1,2.693-6.2,21.57,21.57,0,0,1,2.939-4.087c.735-.831,1.534-1.583,2.338-2.335a26.511,26.511,0,0,1,4.463-3.252,14.381,14.381,0,0,1,2.148-1.163c4.027,0,8.054,0,12.08.021.456,0,.621-.1.617-.589-.023-3.518-.017-7.036-.022-10.555a2.472,2.472,0,0,0-.032-.438c-.062-.335-.194-.49-.613-.487q-5.187.04-10.374,0c-.548,0-.657.157-.651.668.027,2.4-.008,4.8.027,7.205a1.573,1.573,0,0,1-.9,1.671c-.782-.117-1.113-.463-1.115-1.2-.007-2.6,0-5.206-.009-7.808,0-.272.105-.64-.4-.561.014-.06.012-.129-.064-.119-.036,0-.062.082-.092.127-2.6,0-5.192-.025-7.787,0-1.547.013-1.978-.169-1.936-1.892.023-.97-.028-1.942.012-2.91.059-1.445.465-1.565,1.575-1.565q15.7,0,31.409.008c.252,0,.5.043.756.061a.923.923,0,0,1,.933.991c.033,1.412.054,2.826.012,4.238-.015.482-.2.992-.873.961-.13-.157-.215-.139-.251.066-2.342,0-4.684.024-7.025,0-.49-.006-.656.091-.653.608.023,3.712.019,7.424.012,11.136,0,.249,0,.4.314.39a40.957,40.957,0,0,0,5.287-.13A11.322,11.322,0,0,0,56.9,68.02a15.4,15.4,0,0,0,.243-3.043,3.054,3.054,0,0,0-.488-1.279,36.708,36.708,0,0,1-2.509-7.371c-.314-1.4-.511-2.838-.694-4.271a31.557,31.557,0,0,1-.247-4.438.6.6,0,0,0-.241-.456,20.7,20.7,0,0,0-7.033-4.674c-.869-.366-1.8-.576-2.67-.95-.548-.237-.513.089-.434.366a3.421,3.421,0,0,1-.389,2.566,3.628,3.628,0,0,1-1.468,1.519.584.584,0,0,0-.337.591c.019,1.5.052,2.995.021,4.49a4.17,4.17,0,0,1-1.931,3.649,3.721,3.721,0,0,1-4.344-.121,4.241,4.241,0,0,1-1.781-3.66c.011-1.287-.021-2.574,0-3.86.008-.378-.111-.451-.458-.456-1.389-.022-1.372-.033-1.392,1.362a23.08,23.08,0,0,1-.2,4.326,4.046,4.046,0,0,1-3.089,2.933,3.98,3.98,0,0,1-4.563-2.846,4.553,4.553,0,0,1-.186-1.484c0-1.349.013-2.7.051-4.046a.58.58,0,0,0-.381-.634,4.073,4.073,0,0,1-2.424-3.122,3.736,3.736,0,0,1,.819-2.834,2.948,2.948,0,0,1,1.106-1.006.683.683,0,0,0,.415-.732,16.145,16.145,0,0,1,0-2.086,4.011,4.011,0,0,0-.725-2.649,5.528,5.528,0,0,1-1.055-3.128.677.677,0,0,0-.4-.639c-3.188-1.722-6.186-3.756-9.269-5.65a5.142,5.142,0,0,1-1.4-1.024c-.193-.234-.293-.418-.083-.709.138-.192.137-.486.279-.674.471-.624.011-.846-.429-1.1-2.812-1.6-5.629-3.188-8.432-4.8-.978-.565-1-1.046-.306-2.131.852-1.326,1.674-2.671,2.485-4.022.505-.842.792-.924,1.688-.481,2.876,1.42,5.619,3.087,8.473,4.548.394.2.9.662.966-.289.011-.142.167-.1.258-.1a2.51,2.51,0,0,1,1.43.176c2.06,1.132,4.129,2.251,6.192,3.378.419.229.813.507,1.246.7.684.311.74.921.819,1.536a1.4,1.4,0,0,1-1.867.085c-1.262-.722-2.551-1.393-3.827-2.091-.776-.424-1.557-.842-2.317-1.3-.437-.26-.763-.329-.982.243-.065.17-.258.291-.322.461-.7,1.852-1.925,3.417-2.794,5.177-.244.5-.231.685.233.969q4.252,2.6,8.473,5.255c.475.3.761.233,1.036-.285q1.376-2.6,2.991-5.054a12.052,12.052,0,0,0,1.427-2.435,13.052,13.052,0,0,0,1.484-2.308,1.1,1.1,0,0,1,1.31-.568c.723.182.7-.2.67-.665,0-.083-.018-.166-.027-.249.136-.09.119-.174-.011-.253m62.332-4.52-.141,0h-.5l-.265.007a38.408,38.408,0,0,0-6.167.687,6.008,6.008,0,0,0,1.142.385c3.329.829,4.182,2.525,3.851,5.429a3.5,3.5,0,0,0,.193,1.8c.194.458.41,1.1,1.114.983a3.786,3.786,0,0,1,3.542,1.237,3.964,3.964,0,0,0,1.247,1.046,5.882,5.882,0,0,1,2.867,2.628c.9,1.6,1.045,4.155-.583,5.389a3.705,3.705,0,0,1-3.376.667,5.876,5.876,0,0,1-3.957-3.837,9.592,9.592,0,0,0-1.11-2.332,3.188,3.188,0,0,1-.542-2.888,1.045,1.045,0,0,0-.255-.972,4.631,4.631,0,0,1-1.044-3.914c.24-1.266,0-2.288-1.059-2.842a6.146,6.146,0,0,0-2.107-.6,9.221,9.221,0,0,1-3.589-.924,1.394,1.394,0,0,0-1.26-.073A39.248,39.248,0,0,0,67.93,20.46c-.287.233-.336.392-.052.692A5.037,5.037,0,0,1,69.2,23.64a4.8,4.8,0,0,0,.585,1.621,1.469,1.469,0,0,0,1.815.785,4.293,4.293,0,0,1,3.926.244,5.657,5.657,0,0,0,2.018.509A5.7,5.7,0,0,1,81.5,29.706c1.5,2.77.065,5.106-2.592,5.5-2.435.365-4.284-.779-5.652-2.748a2.9,2.9,0,0,0-1-.923,3.766,3.766,0,0,1-1.942-3.133.581.581,0,0,0-.422-.54,4.554,4.554,0,0,1-2.1-2.3c-.4-.761-.371-1.65-.762-2.41-.518-1.007-.834-1.057-1.613-.25a35.4,35.4,0,0,0-6.481,9.2,22.141,22.141,0,0,0-1.156,2.512,55.185,55.185,0,0,0-1.7,5.539,40.684,40.684,0,0,0-.838,5.874,28.578,28.578,0,0,0,0,3.92c.1,1.59.311,3.174.5,4.757.04.33.236.518.626.3a11.435,11.435,0,0,1,2.247-.972,4.458,4.458,0,0,1,3.57.178,5.032,5.032,0,0,1,2.167,2.409,3.289,3.289,0,0,0,1.476,1.593.954.954,0,0,0,1.295-.18,3.173,3.173,0,0,1,2.858-.864,12.861,12.861,0,0,0,2.541.2A5.907,5.907,0,0,1,77.8,59.485a3.491,3.491,0,0,1-1.443,5.685A5.751,5.751,0,0,1,70.2,63.851a2.419,2.419,0,0,0-.91-.52,4.345,4.345,0,0,1-2.862-2.549.791.791,0,0,0-.608-.589,4.688,4.688,0,0,1-2.524-1.7c-.547-.674-.819-1.515-1.389-2.175a1.655,1.655,0,0,0-1.258-.592c-1.534-.094-2.764.7-4.063,1.3-.2.095-.191.223-.129.452a34.375,34.375,0,0,0,1.211,3.652,35.5,35.5,0,0,0,8.94,13.242,11.013,11.013,0,0,0,1.213,1.225c1.214.8,2.3,1.769,3.544,2.539,1.029.635,2.043,1.316,3.1,1.893a23.79,23.79,0,0,0,3.644,1.63c1.109.38,2.2.849,3.322,1.207A30.477,30.477,0,0,0,90.5,84.211a32.54,32.54,0,0,0,4.6-.115c1.3-.173,2.6-.305,3.872-.6a46.554,46.554,0,0,0,4.534-1.357c1.329-.451,2.58-1.06,3.894-1.527.315-.112.43-.454.708-.549a9.616,9.616,0,0,0,2.343-1.214c1.076-.747,2.192-1.426,3.208-2.28.552-.464,1.254-.882,1.807-1.354a31.3,31.3,0,0,0,3.818-3.918,36.058,36.058,0,0,0,7.162-13.82,37.688,37.688,0,0,0,1.224-8.2,34.844,34.844,0,0,0-.463-7.039,39.971,39.971,0,0,0-1.234-5.282,33.923,33.923,0,0,0-3.466-7.566,31.772,31.772,0,0,0-2.777-4.019,36.416,36.416,0,0,0-8.694-7.74,49.047,49.047,0,0,0-5.824-3.06,32.275,32.275,0,0,0-5.266-1.63,44.884,44.884,0,0,0-8.1-1.076M35.822,33.594c3.905,0,7.811-.005,11.716.007.475,0,.61-.127.405-.578-.344-.758-.614-1.555-1-2.288A20.019,20.019,0,0,0,38.57,22.3a29.212,29.212,0,0,0-8.919-2.744c-.329-.058-.689-.125-.957.344-1.782,3.1-3.524,6.234-5.437,9.264-.438.693-1.172,1.328-.7,2.314.2.408.384.821.545,1.244a1.349,1.349,0,0,0,1.51.889c3.736-.041,7.473-.019,11.21-.019m-2.2,26.576v-.01q-6.77,0-13.541,0c-.587,0-1.376-.209-1.709.086-.386.343-.068,1.15-.135,1.75-.051.467.089.594.575.58,2.882-.085,5.767-.058,8.65-.093,4.333-.053,8.67-.137,13.007.07,2.439.117,4.889.01,7.334.006,1.123,0,1.123,0,1.15-1.091a3.832,3.832,0,0,1,.028-.568c.1-.555-.059-.751-.68-.748-4.893.029-9.786.016-14.679.016M31.548,40.68c-2.424,0-4.849,0-7.273,0a2.91,2.91,0,0,0-1.167.224,1.972,1.972,0,0,0-1.171,2.214,1.762,1.762,0,0,0,1.856,1.38c1.307,0,2.616-.048,3.92.006,3.857.16,7.711-.064,11.566-.014A1.508,1.508,0,0,0,40.919,42.9a2.017,2.017,0,0,0-2.288-2.218q-3.541-.005-7.083,0m7.471-25.649c0-1.58-.012-3.161.009-4.741,0-.383-.1-.5-.493-.5q-3.226.029-6.453,0c-.39,0-.548.072-.545.515.018,2.359,0,4.72-.01,7.079,0,.263.042.446.324.527a5.62,5.62,0,0,0,1.122.342,14.759,14.759,0,0,1,2.966.806,23.472,23.472,0,0,1,2.512,1.031c.578.23.577-.019.574-.447-.01-1.538,0-3.076,0-4.615M35.256,2V2c-1.6,0-3.21.026-4.813-.013-.574-.014-.788.146-.778.731.027,1.539.017,3.079.005,4.619,0,.382.13.467.5.4A6.022,6.022,0,0,1,31.3,7.67c3.055.04,6.113-.079,9.166.1.434.025.577-.088.557-.553-.066-1.483-.03-2.968-.077-4.453-.02-.654-.26-.772-.812-.766C38.507,2.015,36.881,2,35.256,2M4.448,11.47c-.174-.019-.266.035-.311.137a32.557,32.557,0,0,1-1.644,2.835c-.146.256-.077.4.186.546,2.057,1.127,4.1,2.273,6.161,3.4a16.212,16.212,0,0,0,1.658.958c.366.149.528.058.7-.26.448-.834.892-1.672,1.4-2.47.257-.407.152-.575-.217-.778-2.513-1.385-5.019-2.783-7.528-4.175-.145-.081-.3-.146-.4-.2M34.6,49.289h-.011c0,.652,0,1.3,0,1.955a2.032,2.032,0,0,0,1.961,2.113A2,2,0,0,0,38.736,51.4c.043-1.428.008-2.859.01-4.289,0-.331-.122-.5-.486-.495-1.052.017-2.1.024-3.157.008-.388-.006-.517.138-.505.517.022.715.007,1.43.007,2.145M97.414,28.654a3.735,3.735,0,0,0-2.607-3.646,1.944,1.944,0,0,1-1.2-.913,2.046,2.046,0,0,0-1.468-1.054c-.358-.07-.7-.13-.917.14a1.1,1.1,0,0,0-.232,1.053,3.547,3.547,0,0,0,.967,1.57,1.141,1.141,0,0,1,.41.733,4.43,4.43,0,0,0,2.219,3.407,2.157,2.157,0,0,0,2.278.074,1.245,1.245,0,0,0,.551-1.363M73.308,27.641a.942.942,0,0,0-1.017.477c-.239.405-.011.725.179,1.036A2.751,2.751,0,0,0,73.906,30.3a1.043,1.043,0,0,1,.674.653A3.7,3.7,0,0,0,78.823,33.2c.5-.164,1.165-.371,1.236-1.055a2.563,2.563,0,0,0-.459-1.823,3.541,3.541,0,0,0-3.236-1.663,1.918,1.918,0,0,1-1.443-.476,2.652,2.652,0,0,0-1.613-.544M69.593,59.153c-.233,0-.381,0-.529,0a.817.817,0,0,0-.809.453.759.759,0,0,0,.153.959,2.291,2.291,0,0,0,1.374.894,2.364,2.364,0,0,1,1.578.752,3.654,3.654,0,0,0,4.183,1.206c1.3-.406,1.618-1.357.82-2.579a4.1,4.1,0,0,0-4.086-1.47,1.951,1.951,0,0,1-1.563-.028,1.7,1.7,0,0,0-1.122-.186M24.708,49.223h-.02c0,.674-.008,1.348,0,2.022a2.036,2.036,0,0,0,2.655,2.039,1.836,1.836,0,0,0,1.423-1.8c.041-1.473,0-2.948.013-4.423,0-.4-.238-.433-.537-.433-1.012,0-2.024.015-3.036-.013-.405-.011-.511.155-.5.517.014.7,0,1.391,0,2.086" transform="translate(0 0)" fill="#060707"/>
    <path id="Trazado_816340" data-name="Trazado 816340" d="M88.622,150.361a1.094,1.094,0,0,0-.879,1.256c.033,1.349.073,2.7-.012,4.048-.118,1.874-.133,3.755-.352,5.623-.036.306-.207.333-.422.339-.337.009-.675,0-1.013,0l-55.224,0c-.612,0-1.224.02-1.836.019-.3,0-.437-.052-.328-.454a25.743,25.743,0,0,1,4.684-9.406,23.814,23.814,0,0,1,4.965-4.779c.914-.64,1.831-1.268,2.781-1.851a3.232,3.232,0,0,1,1.739-.444c5.763,0,11.526-.014,17.289-.008a14.576,14.576,0,0,0,4.335-.759,9.757,9.757,0,0,0,3.781-2.026c1.783-1.668,3.551-3.449,4.2-5.977.11-.429.339-.85.471-1.29.037-.121-.072-.316.176-.329.19-.01.236.134.314.26a38.483,38.483,0,0,0,3.333,4.524,35.246,35.246,0,0,0,5.154,4.991,42.511,42.511,0,0,0,5.525,3.639,9.167,9.167,0,0,1,1.693.829c-.3.064-.384.272-.379.552.009.414.005.829.007,1.243M61.148,152.6a6.342,6.342,0,1,0,6.354-6.154,6.265,6.265,0,0,0-6.354,6.154" transform="translate(-14.024 -66.051)" fill="#feb957"/>
    <path id="Trazado_816341" data-name="Trazado 816341" d="M54.206,136.568a1.573,1.573,0,0,0,.9-1.671c-.035-2.4,0-4.8-.027-7.205-.006-.511.1-.672.651-.668q5.187.046,10.374,0c.419,0,.551.152.613.487a2.471,2.471,0,0,1,.032.438c.005,3.518,0,7.036.022,10.555,0,.49-.161.591-.617.589-4.026-.02-8.053-.017-12.08-.021a17.223,17.223,0,0,0,.135-2.507" transform="translate(-26.589 -62.463)" fill="#6a6e71"/>
    <path id="Trazado_816342" data-name="Trazado 816342" d="M47.7,71.9V69.452c.013-.01.038-.021.038-.029a.54.54,0,0,0-.023-.087c.108-.412.447-.236.681-.236q13.435-.014,26.87-.009a2.691,2.691,0,0,0,.92-.116.775.775,0,0,0,.622-.883,18.162,18.162,0,0,1,2.328.038c-.422,1.316-.926,2.607-1.249,3.955a35.089,35.089,0,0,0-.966,5.491c-.012.16.071.378-.095.466-.2.108-.343-.106-.478-.217a26.518,26.518,0,0,0-8.841-4.61A20.554,20.554,0,0,0,60.761,72.1c-4.109.092-8.221.028-12.331.019-.233,0-.508.124-.7-.128.009-.012.027-.029.024-.035A.5.5,0,0,0,47.7,71.9" transform="translate(-23.456 -33.473)" fill="#feb957"/>
    <path id="Trazado_816343" data-name="Trazado 816343" d="M37.479,35.8a12.031,12.031,0,0,1-1.428,2.435q-1.616,2.459-2.991,5.054c-.274.518-.561.582-1.036.285q-4.228-2.642-8.473-5.255c-.464-.284-.477-.474-.233-.969.869-1.761,2.1-3.325,2.794-5.177.064-.17.257-.291.322-.461.219-.572.545-.5.981-.243.76.453,1.541.871,2.317,1.3,1.276.7,2.566,1.369,3.827,2.091a1.4,1.4,0,0,0,1.868-.085,6.042,6.042,0,0,0,2.052,1.03" transform="translate(-11.389 -15.381)" fill="#6a6e71"/>
    <path id="Trazado_816344" data-name="Trazado 816344" d="M57.91,25.753a2.02,2.02,0,0,1,0,1.392,1.541,1.541,0,0,1,0-1.392" transform="translate(-28.395 -12.664)" fill="#6a6e71"/>
    <path id="Trazado_816345" data-name="Trazado 816345" d="M57.921,23.014a.33.33,0,0,1,0,.506.285.285,0,0,1,0-.506" transform="translate(-28.406 -11.317)" fill="#6a6e71"/>
    <path id="Trazado_816346" data-name="Trazado 816346" d="M57.92,29.488a.331.331,0,0,1,0,.506.285.285,0,0,1,0-.506" transform="translate(-28.406 -14.5)" fill="#6a6e71"/>
    <path id="Trazado_816347" data-name="Trazado 816347" d="M97.954,126.731c.036-.2.121-.222.251-.066-.058.12-.127.2-.251.066" transform="translate(-48.168 -62.235)" fill="#6a6e71"/>
    <path id="Trazado_816348" data-name="Trazado 816348" d="M57.95,32.227c.13.079.146.163.01.253-.1-.005-.155-.058-.132-.151.01-.041.08-.068.122-.1" transform="translate(-28.434 -15.847)" fill="#6a6e71"/>
    <path id="Trazado_816349" data-name="Trazado 816349" d="M51.032,126.862c.03-.045.056-.122.092-.128.076-.01.079.058.064.119-.048.068-.1.065-.156.008" transform="translate(-25.094 -62.32)" fill="#6a6e71"/>
    <path id="Trazado_816350" data-name="Trazado 816350" d="M84.5,4.721c0-.044-.005-.087-.008-.131.034.012.091.016.1.037.025.073-.032.088-.09.094" transform="translate(-41.548 -2.257)" fill="#6a6e71"/>
    <path id="Trazado_816351" data-name="Trazado 816351" d="M57.987,20.78c0,.041,0,.081,0,.121-.057,0-.116-.01-.095-.085.005-.02.063-.025.1-.037" transform="translate(-28.464 -10.218)" fill="#6a6e71"/>
    <path id="Trazado_816352" data-name="Trazado 816352" d="M144.6,23.329h.5c.046.078.093.079.141,0a44.928,44.928,0,0,1,8.1,1.075,32.275,32.275,0,0,1,5.266,1.631,49.048,49.048,0,0,1,5.824,3.06,36.425,36.425,0,0,1,8.694,7.739,31.816,31.816,0,0,1,2.777,4.02,33.923,33.923,0,0,1,3.466,7.566,39.97,39.97,0,0,1,1.234,5.282,34.88,34.88,0,0,1,.463,7.039,37.682,37.682,0,0,1-1.224,8.2,36.061,36.061,0,0,1-7.162,13.82,31.3,31.3,0,0,1-3.818,3.918c-.553.472-1.255.89-1.807,1.355-1.016.854-2.132,1.533-3.208,2.28a9.6,9.6,0,0,1-2.343,1.214c-.278.1-.394.438-.709.549-1.313.467-2.564,1.076-3.893,1.527a46.7,46.7,0,0,1-4.534,1.357c-1.276.293-2.577.425-3.872.6a32.616,32.616,0,0,1-4.6.115,30.477,30.477,0,0,1-9.062-1.347c-1.127-.358-2.213-.827-3.322-1.207a23.817,23.817,0,0,1-3.644-1.63c-1.062-.577-2.077-1.258-3.1-1.893-1.247-.77-2.33-1.74-3.544-2.54A10.962,10.962,0,0,1,120,85.842a35.5,35.5,0,0,1-8.94-13.242,34.329,34.329,0,0,1-1.211-3.652c-.063-.23-.076-.357.129-.452,1.3-.6,2.528-1.392,4.063-1.3a1.655,1.655,0,0,1,1.258.592c.569.66.841,1.5,1.389,2.175a4.689,4.689,0,0,0,2.524,1.7.792.792,0,0,1,.608.589,4.345,4.345,0,0,0,2.862,2.55,2.418,2.418,0,0,1,.91.52,5.75,5.75,0,0,0,6.162,1.32,3.491,3.491,0,0,0,1.443-5.685,5.908,5.908,0,0,0-5.272-2.113,12.82,12.82,0,0,1-2.541-.2,3.171,3.171,0,0,0-2.858.864.955.955,0,0,1-1.3.179,3.287,3.287,0,0,1-1.475-1.593,5.034,5.034,0,0,0-2.167-2.409,4.458,4.458,0,0,0-3.569-.178,11.453,11.453,0,0,0-2.247.972c-.39.214-.587.026-.626-.3-.191-1.583-.4-3.167-.5-4.757a28.66,28.66,0,0,1,0-3.92,40.6,40.6,0,0,1,.838-5.874,55.316,55.316,0,0,1,1.7-5.539,22.23,22.23,0,0,1,1.156-2.512,35.4,35.4,0,0,1,6.481-9.2c.779-.807,1.095-.757,1.613.25.391.76.36,1.648.762,2.41a4.551,4.551,0,0,0,2.1,2.3.582.582,0,0,1,.422.54,3.766,3.766,0,0,0,1.942,3.133,2.906,2.906,0,0,1,1,.923c1.368,1.968,3.218,3.112,5.652,2.747,2.657-.4,4.1-2.734,2.592-5.5a5.7,5.7,0,0,0-3.954-2.907,5.657,5.657,0,0,1-2.018-.509,4.292,4.292,0,0,0-3.926-.244,1.469,1.469,0,0,1-1.815-.785,4.8,4.8,0,0,1-.586-1.621,5.03,5.03,0,0,0-1.326-2.487c-.284-.3-.235-.459.052-.693A39.241,39.241,0,0,1,133.24,25.2a1.394,1.394,0,0,1,1.26.073,9.23,9.23,0,0,0,3.589.924,6.126,6.126,0,0,1,2.107.6c1.06.554,1.3,1.577,1.059,2.842a4.631,4.631,0,0,0,1.044,3.914,1.045,1.045,0,0,1,.255.972,3.188,3.188,0,0,0,.542,2.888,9.6,9.6,0,0,1,1.11,2.332,5.874,5.874,0,0,0,3.957,3.836,3.7,3.7,0,0,0,3.376-.667c1.628-1.234,1.485-3.794.583-5.389a5.877,5.877,0,0,0-2.866-2.628,3.964,3.964,0,0,1-1.247-1.046,3.785,3.785,0,0,0-3.542-1.237c-.7.12-.919-.525-1.114-.983a3.487,3.487,0,0,1-.193-1.8c.331-2.9-.521-4.6-3.851-5.429a5.969,5.969,0,0,1-1.142-.385,38.466,38.466,0,0,1,6.167-.687.155.155,0,0,0,.265-.006M136.823,64.96a19,19,0,0,0,20.02,18.909,18.983,18.983,0,0,0,17.769-20.888,18.15,18.15,0,0,0-5.7-11.7,18.626,18.626,0,0,0-15-5.206A19,19,0,0,0,136.823,64.96" transform="translate(-53.388 -11.472)" fill="#a6d9e9"/>
    <path id="Trazado_816353" data-name="Trazado 816353" d="M57.5,52.476c-3.737,0-7.473-.022-11.21.019a1.348,1.348,0,0,1-1.51-.889c-.161-.422-.349-.835-.545-1.243-.472-.987.263-1.621.7-2.314,1.912-3.03,3.654-6.159,5.436-9.264.268-.469.628-.4.957-.344a29.212,29.212,0,0,1,8.919,2.744,20.01,20.01,0,0,1,8.368,8.434c.391.733.661,1.529,1,2.288.2.451.07.579-.405.578-3.905-.012-7.811-.007-11.716-.007" transform="translate(-21.676 -18.882)" fill="#f6f8fa"/>
    <path id="Trazado_816354" data-name="Trazado 816354" d="M51.21,118.3c4.893,0,9.786.013,14.679-.016.621,0,.779.193.68.748a3.765,3.765,0,0,0-.028.568c-.027,1.089-.026,1.088-1.15,1.09-2.445.005-4.894.111-7.333-.005-4.337-.208-8.673-.123-13.007-.07-2.883.035-5.768.008-8.651.092-.486.015-.626-.113-.574-.579.066-.6-.252-1.407.135-1.75.333-.3,1.122-.086,1.709-.086q6.77,0,13.541,0Z" transform="translate(-17.587 -58.135)" fill="#f6f8fa"/>
    <path id="Trazado_816355" data-name="Trazado 816355" d="M52.729,80.033q3.541,0,7.083,0A2.016,2.016,0,0,1,62.1,82.252a1.508,1.508,0,0,1-1.639,1.589c-3.856-.051-7.71.173-11.566.013-1.3-.054-2.614,0-3.921-.006a1.762,1.762,0,0,1-1.856-1.381,1.971,1.971,0,0,1,1.171-2.214,2.922,2.922,0,0,1,1.167-.225c2.424.009,4.848,0,7.273,0" transform="translate(-21.181 -39.353)" fill="#6a6e71"/>
    <path id="Trazado_816356" data-name="Trazado 816356" d="M69.52,24.5c0,1.538-.007,3.077,0,4.615,0,.428,0,.678-.574.447a23.359,23.359,0,0,0-2.511-1.031,14.8,14.8,0,0,0-2.967-.807,5.57,5.57,0,0,1-1.121-.342c-.281-.08-.326-.264-.324-.527.015-2.36.029-4.72.011-7.079,0-.443.154-.518.544-.516q3.226.022,6.453,0c.4,0,.5.116.493.5-.02,1.58-.008,3.161-.007,4.741" transform="translate(-30.501 -9.471)" fill="#6a6e71"/>
    <path id="Trazado_816357" data-name="Trazado 816357" d="M63.957,3.924c1.625,0,3.251.011,4.876-.006.552-.006.792.112.813.766.046,1.485.011,2.97.076,4.452.02.466-.123.579-.557.553-3.054-.178-6.111-.059-9.166-.1a6.025,6.025,0,0,0-1.133.068c-.365.065-.5-.02-.5-.4.012-1.54.022-3.08,0-4.619-.011-.585.2-.746.778-.731,1.6.039,3.208.014,4.813.014Z" transform="translate(-28.7 -1.92)" fill="#f6f8fa"/>
    <path id="Trazado_816358" data-name="Trazado 816358" d="M6.787,22.562c.1.049.256.115.4.2q3.764,2.089,7.528,4.176c.368.2.474.372.217.778-.506.8-.95,1.637-1.4,2.47-.17.318-.331.409-.7.26a16.3,16.3,0,0,1-1.658-.958c-2.056-1.129-4.1-2.275-6.161-3.4-.263-.144-.332-.29-.186-.546A32.548,32.548,0,0,0,6.475,22.7c.045-.1.137-.157.311-.138" transform="translate(-2.339 -11.093)" fill="#6a6e71"/>
    <path id="Trazado_816359" data-name="Trazado 816359" d="M68.074,94.391c0-.715.016-1.43-.006-2.144-.012-.38.116-.524.505-.517,1.052.016,2.1.009,3.156-.008.363-.006.487.164.486.494,0,1.43.033,2.86-.01,4.289a2,2,0,0,1-2.181,1.955,2.033,2.033,0,0,1-1.962-2.113c0-.652,0-1.3,0-1.955h.01" transform="translate(-33.469 -45.103)" fill="#6a6e71"/>
    <path id="Trazado_816360" data-name="Trazado 816360" d="M185.4,50.888a1.246,1.246,0,0,1-.551,1.363,2.157,2.157,0,0,1-2.278-.074,4.431,4.431,0,0,1-2.219-3.407,1.143,1.143,0,0,0-.41-.734,3.541,3.541,0,0,1-.967-1.57,1.1,1.1,0,0,1,.232-1.053c.215-.27.56-.21.917-.14a2.043,2.043,0,0,1,1.468,1.054,1.942,1.942,0,0,0,1.2.913,3.734,3.734,0,0,1,2.607,3.647" transform="translate(-87.981 -22.234)" fill="#f6f8fa"/>
    <path id="Trazado_816361" data-name="Trazado 816361" d="M143.149,54.372a2.652,2.652,0,0,1,1.613.544,1.92,1.92,0,0,0,1.443.476,3.541,3.541,0,0,1,3.236,1.663,2.562,2.562,0,0,1,.459,1.823c-.071.685-.732.891-1.236,1.055a3.7,3.7,0,0,1-4.242-2.252,1.043,1.043,0,0,0-.674-.653,2.753,2.753,0,0,1-1.436-1.143c-.19-.311-.418-.631-.179-1.036a.942.942,0,0,1,1.017-.477" transform="translate(-69.841 -26.731)" fill="#f6f8fa"/>
    <path id="Trazado_816362" data-name="Trazado 816362" d="M135.523,116.355a1.7,1.7,0,0,1,1.122.186,1.952,1.952,0,0,0,1.564.028,4.1,4.1,0,0,1,4.086,1.469c.8,1.223.477,2.174-.821,2.58a3.653,3.653,0,0,1-4.184-1.206,2.366,2.366,0,0,0-1.577-.752,2.288,2.288,0,0,1-1.375-.894.759.759,0,0,1-.153-.959.818.818,0,0,1,.809-.453c.147,0,.3,0,.529,0" transform="translate(-65.93 -57.202)" fill="#f6f8fa"/>
    <path id="Trazado_816363" data-name="Trazado 816363" d="M48.59,94.327c0-.7.01-1.391,0-2.086-.008-.363.1-.529.5-.517,1.012.027,2.024.013,3.036.013.3,0,.54.029.537.433-.011,1.474.027,2.95-.013,4.423a1.836,1.836,0,0,1-1.423,1.8,2.036,2.036,0,0,1-2.655-2.039c-.01-.674,0-1.348,0-2.022h.02" transform="translate(-23.882 -45.104)" fill="#6a6e71"/>
    <path id="Trazado_816364" data-name="Trazado 816364" d="M179.2,23.329a.155.155,0,0,1-.264.006l.264-.006" transform="translate(-87.99 -11.472)" fill="#6a6e71"/>
    <path id="Trazado_816365" data-name="Trazado 816365" d="M180.574,23.333c-.048.077-.1.076-.141,0l.141,0" transform="translate(-88.726 -11.473)" fill="#6a6e71"/>
    <path id="Trazado_816366" data-name="Trazado 816366" d="M47.679,75.6a.5.5,0,0,1,.051.063c0,.005-.015.023-.024.035a.5.5,0,0,1-.049-.062c0-.006.014-.023.022-.036" transform="translate(-23.434 -37.174)" fill="#6a6e71"/>
    <path id="Trazado_816367" data-name="Trazado 816367" d="M47.7,70.557a.54.54,0,0,1,.023.087c0,.009-.024.02-.038.029a.484.484,0,0,1-.019-.086c0-.01.022-.021.034-.031" transform="translate(-23.438 -34.696)" fill="#6a6e71"/>
    <path id="Trazado_816368" data-name="Trazado 816368" d="M92.716,164.327a6.346,6.346,0,1,1,6.229,6.622,6.288,6.288,0,0,1-6.229-6.622m10.642.21c0-2.769-1.813-4.36-5.007-4.313a4.236,4.236,0,0,0-3.737,4.161,4.484,4.484,0,0,0,4.3,4.563,4.31,4.31,0,0,0,4.444-4.41" transform="translate(-45.592 -77.78)" fill="#060707"/>
    <path id="Trazado_816369" data-name="Trazado 816369" d="M164.154,86.887A19,19,0,0,1,181.245,68a18.63,18.63,0,0,1,15,5.207,18.147,18.147,0,0,1,5.7,11.7A18.982,18.982,0,0,1,184.175,105.8a19,19,0,0,1-20.02-18.909m18.893,16.93a16.974,16.974,0,1,0-16.914-15.44,16.875,16.875,0,0,0,16.914,15.44" transform="translate(-80.72 -33.399)" fill="#060707"/>
    <path id="Trazado_816370" data-name="Trazado 816370" d="M105.195,166.52a4.31,4.31,0,0,1-4.444,4.41,4.483,4.483,0,0,1-4.3-4.563,4.236,4.236,0,0,1,3.737-4.161c3.193-.047,5.007,1.544,5.007,4.313" transform="translate(-47.428 -79.763)" fill="#f6f8fa"/>
    <path id="Trazado_816371" data-name="Trazado 816371" d="M184.917,105.7a16.972,16.972,0,1,1,17.042-16.8,16.908,16.908,0,0,1-17.042,16.8m-.771-32.052-.027-.04-.026.043c-.762.1-1.537.137-2.284.3a15.217,15.217,0,0,0-11.916,13.4,13.867,13.867,0,0,0,.92,6.634,14.932,14.932,0,0,0,12.271,9.773,13.9,13.9,0,0,0,5.867-.447,15.16,15.16,0,0,0,10.9-17.306,14.231,14.231,0,0,0-2.558-6.028,15.028,15.028,0,0,0-13.146-6.328" transform="translate(-82.59 -35.285)" fill="#feb957"/>
    <path id="Trazado_816372" data-name="Trazado 816372" d="M185.949,75.48A15.029,15.029,0,0,1,199.1,81.808a14.234,14.234,0,0,1,2.558,6.028,15.159,15.159,0,0,1-10.9,17.306,13.89,13.89,0,0,1-5.867.447,14.932,14.932,0,0,1-12.271-9.773,13.862,13.862,0,0,1-.92-6.635,15.216,15.216,0,0,1,11.916-13.4c.747-.166,1.522-.205,2.284-.3l.028.019Zm1.449,28.208.508-.058.192-.015a5.5,5.5,0,0,0,1.658-.254,13.061,13.061,0,0,0,10.161-12.107,12.893,12.893,0,0,0-.584-4.558,13.1,13.1,0,0,0-12.179-9.264,12.868,12.868,0,0,0-4.988.823,13.118,13.118,0,0,0-8.575,11.588,12.092,12.092,0,0,0,1.018,5.746A13.1,13.1,0,0,0,187.28,103.7l.118-.008" transform="translate(-84.392 -37.114)" fill="#060707"/>
    <path id="Trazado_816373" data-name="Trazado 816373" d="M199.76,75.446l-.026.023-.028-.019.027-.043Z" transform="translate(-98.203 -37.08)" fill="#6a6e71"/>
    <path id="Trazado_816374" data-name="Trazado 816374" d="M189.151,105.582a13.1,13.1,0,0,1-12.671-8.106,12.092,12.092,0,0,1-1.017-5.746,13.117,13.117,0,0,1,8.575-11.588,12.859,12.859,0,0,1,4.988-.823A13.1,13.1,0,0,1,201.2,88.583a12.905,12.905,0,0,1,.584,4.558,13.061,13.061,0,0,1-10.161,12.107,5.519,5.519,0,0,1-1.657.254l-.193.015-.507.058-.119.008m2.1-22.232c-2.888-.314-6.354,2.561-6.327,6.266a6.4,6.4,0,1,0,12.79.082,6.258,6.258,0,0,0-6.463-6.348" transform="translate(-86.264 -39)" fill="#e55a78"/>
    <path id="Trazado_816375" data-name="Trazado 816375" d="M203.661,130.856l.193-.015-.193.015" transform="translate(-100.148 -64.34)" fill="#6a6e71"/>
    <path id="Trazado_816376" data-name="Trazado 816376" d="M202.43,130.992l.119-.008-.119.008" transform="translate(-99.543 -64.41)" fill="#6a6e71"/>
    <path id="Trazado_816377" data-name="Trazado 816377" d="M200.446,87.235a6.258,6.258,0,0,1,6.464,6.348,6.4,6.4,0,1,1-12.79-.083c-.027-3.7,3.439-6.579,6.327-6.265m-4.4,6.252a4.431,4.431,0,0,0,4.306,4.484,4.408,4.408,0,1,0,.123-8.815,4.413,4.413,0,0,0-4.429,4.331" transform="translate(-95.456 -42.885)" fill="#060707"/>
    <path id="Trazado_816378" data-name="Trazado 816378" d="M197.909,95.364a4.413,4.413,0,0,1,4.429-4.331,4.408,4.408,0,1,1-.123,8.815,4.431,4.431,0,0,1-4.306-4.484" transform="translate(-97.32 -44.763)" fill="#f6f8fa"/>
  </g>
</svg>
