<svg id="Grupo_1071935" data-name="Grupo 1071935" xmlns="http://www.w3.org/2000/svg" xmlns:xlink="http://www.w3.org/1999/xlink" width="122.554" height="122.572" viewBox="0 0 122.554 122.572">
  <defs>
    <clipPath id="clip-path">
      <rect id="Rectángulo_376493" data-name="Rectángulo 376493" width="122.554" height="122.572" fill="none"/>
    </clipPath>
  </defs>
  <g id="Grupo_1071934" data-name="Grupo 1071934" clip-path="url(#clip-path)">
    <path id="Trazado_816323" data-name="Trazado 816323" d="M70.188,150.718l-.923,2.219a1.686,1.686,0,0,0-2.381.79c-.113.207-.253.4-.372.6a30.166,30.166,0,0,1-3.09,4.373,18.571,18.571,0,0,1-2.157,2.427c-1.026.846-2,1.759-3.06,2.564a35.543,35.543,0,0,1-9.612,5.134,28.344,28.344,0,0,1-9.029,1.472,38.259,38.259,0,0,1-7.006-.665,25.879,25.879,0,0,1-7.55-2.61,12.654,12.654,0,0,1-2.662-1.582c-.4-.342-1.03-.557-1.521-.886a29.058,29.058,0,0,1-6.43-5.9,32.266,32.266,0,0,1-4.444-7.306c-.264-.6-.418-1.25-.7-1.821a21.467,21.467,0,0,1-.988-2.974,21.9,21.9,0,0,1-.544-2.841,17.572,17.572,0,0,1-.383-3.087,43.494,43.494,0,0,1,.371-7.4,27.753,27.753,0,0,1,1.135-4.738,40.348,40.348,0,0,1,2.754-5.891,31.793,31.793,0,0,1,4.3-5.84,25.816,25.816,0,0,1,4-3.516,31.428,31.428,0,0,1,7.362-4.125,30.894,30.894,0,0,1,11.1-2.132c1.284,0,2.555.129,3.832.237a28.539,28.539,0,0,1,6.691,1.382,29.6,29.6,0,0,1,10.753,5.97c.339.308.4.435.034.779-1.145,1.079-2.255,2.194-3.353,3.32a1.8,1.8,0,0,0-.028,2.509,1.758,1.758,0,0,0,2.447.148,8.558,8.558,0,0,0,.763-.7q1.4-1.393,2.781-2.8c.182-.183.311-.41.605-.078a28.212,28.212,0,0,1,3.608,5.02,32.321,32.321,0,0,1,3.1,7.806,34.164,34.164,0,0,1,1,6.917,1.125,1.125,0,0,0,.1.345,2.346,2.346,0,0,0,1.438,1.382,5.44,5.44,0,0,1-.14,3.492c-.226.042-.453.079-.678.127a1.4,1.4,0,0,0-1.108,1.089c-.337,1.371-.577,2.766-1.038,4.109a2.969,2.969,0,0,0-.1,1.5c.12.669.771.767,1.134,1.168m-30.535,5.445a2.894,2.894,0,0,0,.039-.677,9.73,9.73,0,0,0-1.479-4.09,11.908,11.908,0,0,0-3.325-3.366,8.431,8.431,0,0,0-6.357-1.468c-.418.076-.538-.2-.634-.476a6.158,6.158,0,0,0-4.651-4.172,3.079,3.079,0,0,1-2.442-2.181,9.5,9.5,0,0,0-1.383-3.025,1.878,1.878,0,0,0-3.1-.371,1.831,1.831,0,0,0,.241,2.46,3.908,3.908,0,0,1,.732,1.516,6.692,6.692,0,0,0,4.812,4.857,3.314,3.314,0,0,1,2.387,1.908c.13.3-.093.616.184.9a1.356,1.356,0,0,1,.174,1.592,5.67,5.67,0,0,0-.25,3.766,11.263,11.263,0,0,0,3.857,6.029,9.925,9.925,0,0,0,5.485,2.329,5.313,5.313,0,0,0,5.711-5.536m22.117-22.1a8.269,8.269,0,0,0-1.647-5.167,11.085,11.085,0,0,0-5.241-4.1,8.138,8.138,0,0,0-4.584-.3c-.652.111-1.234.457-1.95.225a3.811,3.811,0,0,1-2.872-2.677,6.293,6.293,0,0,0-4.742-4.843,4.086,4.086,0,0,1-1.836-.944,1.8,1.8,0,0,0-2.489-.033,1.721,1.721,0,0,0,.026,2.488,6.683,6.683,0,0,0,3.365,1.851,2.751,2.751,0,0,1,2.145,2,13.97,13.97,0,0,0,.483,1.448,6.844,6.844,0,0,0,4,3.782c.345.138.384.223.285.518a5.709,5.709,0,0,0,.381,4.13,11.111,11.111,0,0,0,7.372,6.781,6.193,6.193,0,0,0,4-.075,5.011,5.011,0,0,0,3.3-5.086m-5.051,16.9c.21-1.944-.766-3.64-1.818-5.221a10.065,10.065,0,0,0-2.515-2.464,8.856,8.856,0,0,0-6.569-1.808c-.55.075-.724-.1-.864-.545a5.43,5.43,0,0,0-2.245-2.9,7.218,7.218,0,0,0-2.457-1.1,3.268,3.268,0,0,1-2.317-2.281c-.149-.46-.285-.926-.469-1.372a5.965,5.965,0,0,0-1.351-1.86c-.732-.751-1.681-1.035-2.36-.488a1.6,1.6,0,0,0-.309,2.514,5.344,5.344,0,0,1,1.035,2.03,8.271,8.271,0,0,0,.31.9,7.081,7.081,0,0,0,4.955,4,2.5,2.5,0,0,1,1.782,1.685,5.282,5.282,0,0,0,.4,1.11,1.617,1.617,0,0,1,.016,1.632,3.2,3.2,0,0,0-.343.946,8.692,8.692,0,0,0,.879,4.706,11.177,11.177,0,0,0,5.381,5.3,7.262,7.262,0,0,0,4.474.81,5.2,5.2,0,0,0,4.389-5.593M16.257,125.1c.791.114,1.26-.429,1.677-1.023a24.144,24.144,0,0,1,2.321-2.853,4.435,4.435,0,0,0,.523-.655,1.7,1.7,0,0,0-.248-2.179,1.766,1.766,0,0,0-2.211-.147,18.443,18.443,0,0,0-3.639,4.5,1.655,1.655,0,0,0,1.578,2.359" transform="translate(-3.524 -51.455)" fill="#e1e2ea"/>
    <path id="Trazado_816324" data-name="Trazado 816324" d="M68.593,87.775a2.346,2.346,0,0,1-1.438-1.382,1.126,1.126,0,0,1-.1-.345,34.158,34.158,0,0,0-1-6.917,32.283,32.283,0,0,0-3.1-7.806,28.148,28.148,0,0,0-3.608-5.02c-.294-.332-.424-.105-.6.077q-1.39,1.4-2.781,2.8a8.644,8.644,0,0,1-.763.7,1.758,1.758,0,0,1-2.447-.149,1.8,1.8,0,0,1,.028-2.508c1.1-1.127,2.209-2.242,3.353-3.32.364-.344.3-.471-.034-.779a29.594,29.594,0,0,0-10.752-5.97,28.55,28.55,0,0,0-6.691-1.383c-1.277-.107-2.549-.24-3.832-.236a30.882,30.882,0,0,0-11.1,2.132,31.439,31.439,0,0,0-7.362,4.125,25.816,25.816,0,0,0-4,3.516,31.753,31.753,0,0,0-4.3,5.84,40.245,40.245,0,0,0-2.754,5.891,27.7,27.7,0,0,0-1.135,4.738,43.5,43.5,0,0,0-.371,7.4,17.615,17.615,0,0,0,.383,3.087A21.815,21.815,0,0,0,4.737,95.1a21.4,21.4,0,0,0,.987,2.974c.284.571.439,1.224.7,1.821a32.271,32.271,0,0,0,4.445,7.306A29.054,29.054,0,0,0,17.3,113.1c.491.329,1.125.545,1.521.887a12.644,12.644,0,0,0,2.663,1.582,25.87,25.87,0,0,0,7.549,2.609,38.3,38.3,0,0,0,7.006.666,28.345,28.345,0,0,0,9.029-1.472,35.556,35.556,0,0,0,9.612-5.134c1.065-.806,2.034-1.719,3.061-2.565a18.636,18.636,0,0,0,2.156-2.427,30.155,30.155,0,0,0,3.09-4.373c.118-.2.259-.4.372-.6a1.733,1.733,0,1,1,3.017,1.69,30.719,30.719,0,0,1-3.228,4.973,35.33,35.33,0,0,1-6.118,6.135,34.946,34.946,0,0,1-13.244,6.422,37.32,37.32,0,0,1-6.329.97,35.556,35.556,0,0,1-4.689.059,30.413,30.413,0,0,1-4.98-.791,35.626,35.626,0,0,1-17.423-9.586A34.991,34.991,0,0,1,2.117,99.02,41.07,41.07,0,0,1,.294,91.378a30.028,30.028,0,0,1-.2-6.6,33.619,33.619,0,0,1,1.963-9.258A35.475,35.475,0,0,1,7.975,64.949a34.237,34.237,0,0,1,11.492-9.327,36.622,36.622,0,0,1,10.486-3.339,32.414,32.414,0,0,1,7.616-.374A37.308,37.308,0,0,1,53.72,56.959,29.69,29.69,0,0,1,58.75,60.67c.33.3.615-.021.854-.262q1.85-1.854,3.7-3.709c.5-.5,1-1.017,1.527-1.49.356-.318.407-.58.017-.887a2.724,2.724,0,0,1-.28-.267,1.736,1.736,0,0,1-.144-2.693C65.515,50,66.655,48.676,67.734,47.3a1.055,1.055,0,0,0,.167-1,8.09,8.09,0,0,1-.268-3.4,9.124,9.124,0,0,1,1.15-3.259,9.927,9.927,0,0,1,1.5-1.87Q78.977,29.089,87.67,20.4c.373-.372.428-.63.023-1a21.623,21.623,0,0,1-1.547-1.561,1.832,1.832,0,0,1,.05-2.609c1.021-1.061,2.1-2.064,3.1-3.15.285-.312.616-.559.907-.856a1.885,1.885,0,0,1,3-.044q1.747,1.681,3.435,3.423c.305.316.471.377.774.017.36-.427.809-.779,1.174-1.2a1.951,1.951,0,0,1,3.058-.176,2.069,2.069,0,0,1-.632,2.8c-.337.3-.611.678-.97.946-.527.393-.406.671.02,1.05a55.128,55.128,0,0,1,4.6,4.524c.359.4.588.323.931-.029,1.519-1.557,3.049-3.1,4.611-4.615.408-.394.369-.633,0-.994-1.181-1.163-2.333-2.356-3.513-3.521a35.949,35.949,0,0,0-2.783-2.685c-1.064-1.1-2.119-2.2-3.194-3.288a1.876,1.876,0,0,1-.078-2.636,10.1,10.1,0,0,0,.788-.762C102.648,2.793,103.87,1.55,105.1.315a2.061,2.061,0,0,1,2.409.167c.909.888,1.795,1.8,2.7,2.691,1.944,1.909,3.916,3.791,5.839,5.72,2.058,2.064,4.075,4.17,6.108,6.259a1.792,1.792,0,0,1,.087,2.132,48.143,48.143,0,0,1-4.644,4.657c-1,.865-1.578.791-2.546-.119-.622-.585-1.221-1.195-1.83-1.794-.2-.131-.252.033-.319.164-1.79,1.627-3.482,3.356-5.193,5.064-.344.344.009.516.189.7,1.087,1.1,2.172,2.21,3.285,3.287,1.251,1.211,1.095,1.976.061,3.07-1.26,1.332-2.539,2.65-3.876,3.9a1.854,1.854,0,0,1-2.985-.052q-1.529-1.518-3.056-3.039a6.186,6.186,0,0,0-1.018-1.056c-3.042-3.2-6.218-6.272-9.336-9.4-.277-.278-.457-.214-.691.028-1,1.037-2,2.079-3.033,3.09-.386.38-.358.658.011,1.014.791.762,1.576,1.533,2.332,2.331a2.115,2.115,0,0,1,.757,1.592,1.41,1.41,0,0,1-.79,1.418,1.581,1.581,0,0,1-1.859-.093q-1.267-1.2-2.513-2.415c-.9-.886-.9-.9-1.789.012-.322.331-.908.574-.914,1s.579.7.886,1.05a1.679,1.679,0,0,1-.662,2.8,2.024,2.024,0,0,1-2.25-.855c-.358-.467-.649-.479-1.026-.05-.312.356-.644.7-.987,1.023-.406.385-.326.712.093,1a13.774,13.774,0,0,1,2.736,2.79,1.679,1.679,0,0,1-.782,2.668,1.654,1.654,0,0,1-1.77-.41c-.928-.9-1.833-1.824-2.745-2.74-.219-.22-.407-.46-.742-.13a28.472,28.472,0,0,0-2.731,2.729c-1.73,2.262-1.944,4.351-.134,6.547a30.1,30.1,0,0,0,3.057,3.059,4.286,4.286,0,0,0,3.225,1.231,6.716,6.716,0,0,0,4.324-2.188c2.911-3,5.9-5.929,8.853-8.885,1.25-1.25,2.484-2.516,3.759-3.739a1.655,1.655,0,0,1,2.477-.266c.072.043.15.075.225.112a2.091,2.091,0,0,1-.458,2.831c-4.442,4.46-8.877,8.926-13.352,13.353A8.7,8.7,0,0,1,77.8,55.006a3.365,3.365,0,0,1-1.338-.268c-.69-.338-1.13.026-1.591.4-1.2.975-2.391,1.965-3.591,2.941a1.828,1.828,0,0,1-2.832-.156c-.617-.626-.616-.624-1.246,0-1.758,1.746-3.508,3.5-5.285,5.228-.312.3-.262.485-.019.763a34.146,34.146,0,0,1,6.63,11.2,42.99,42.99,0,0,1,1.779,7,35.548,35.548,0,0,1,.321,3.611c.073,1.064-.4,1.894-2.034,2.041M91.732,14.8c-.091.074-.2.148-.287.237-.306.3-.606.613-.91.918-.673.673-.677.716.014,1.355,3.652,3.376,7.034,7.024,10.588,10.5a39,39,0,0,1,4.3,4.474c.312.421.6.4.931.008a4.709,4.709,0,0,1,.966-1.023c.553-.349.39-.573.036-.927q-4.891-4.9-9.764-9.818-2.642-2.656-5.3-5.3c-.16-.159-.3-.374-.575-.426M106.324,4.28a1.084,1.084,0,0,0-.252.132c-.505.5-1.012,1-1.5,1.51-.184.194-.029.321.13.47,3.744,3.53,7.329,7.22,10.942,10.883.856.868.83.894,1.694.044,1.014-1,1.009-.994-.019-2.027Q112.057,10,106.8,4.712c-.149-.151-.314-.286-.475-.432M72.467,52.424a.927.927,0,0,0-.12-.186c-.665-.669-1.337-1.332-2-2-.251-.252-.428-.089-.582.1-.471.585-.926,1.182-1.4,1.767a.552.552,0,0,0,.088.881c.434.382.841.8,1.245,1.21a.493.493,0,0,0,.779.035c.574-.483,1.166-.945,1.75-1.417.115-.093.247-.179.238-.392" transform="translate(0 0)" fill="#100d17"/>
    <path id="Trazado_816325" data-name="Trazado 816325" d="M164.184,57.229c-.075-.037-.154-.069-.226-.112a1.654,1.654,0,0,0-2.478.266c-1.275,1.223-2.509,2.489-3.759,3.738-2.956,2.957-5.942,5.884-8.854,8.886a6.71,6.71,0,0,1-4.323,2.187,4.288,4.288,0,0,1-3.225-1.231,30.153,30.153,0,0,1-3.056-3.06c-1.81-2.2-1.6-4.285.133-6.547a28.606,28.606,0,0,1,2.732-2.729c.334-.331.523-.089.741.13.913.916,1.818,1.839,2.746,2.739a1.653,1.653,0,0,0,1.77.41,1.679,1.679,0,0,0,.782-2.667,13.788,13.788,0,0,0-2.736-2.79c-.419-.285-.5-.612-.093-1,.344-.326.675-.667.988-1.023.377-.429.667-.417,1.025.05a2.024,2.024,0,0,0,2.251.855,1.679,1.679,0,0,0,.662-2.8c-.307-.354-.891-.613-.885-1.05s.592-.669.913-1c.886-.911.886-.9,1.79-.012q1.243,1.22,2.513,2.415a1.583,1.583,0,0,0,1.859.093,1.413,1.413,0,0,0,.789-1.418,2.113,2.113,0,0,0-.757-1.592c-.755-.8-1.541-1.568-2.332-2.331-.369-.356-.4-.634-.01-1.014,1.028-1.012,2.028-2.054,3.033-3.091.234-.241.413-.305.69-.027,3.118,3.127,6.294,6.2,9.336,9.4a6.144,6.144,0,0,1,1.018,1.055q-1.347,1.373-2.692,2.747c-.146.149-.346.269-.344.519" transform="translate(-65.89 -20.838)" fill="#5eb188"/>
    <path id="Trazado_816326" data-name="Trazado 816326" d="M196.279,20.647a36.135,36.135,0,0,1,2.783,2.685c1.179,1.165,2.332,2.358,3.513,3.521.366.361.405.6,0,.994-1.562,1.513-3.092,3.059-4.611,4.615-.344.352-.572.432-.931.028a55.28,55.28,0,0,0-4.6-4.524c-.426-.379-.547-.656-.02-1.05.359-.267.633-.645.97-.946a2.068,2.068,0,0,0,.631-2.8,8,8,0,0,1,1.96-2.148c.121-.116.3-.174.3-.378" transform="translate(-92.373 -9.93)" fill="#5eb188"/>
    <path id="Trazado_816327" data-name="Trazado 816327" d="M127.336,183.831c-.363-.4-1.014-.5-1.134-1.168a2.969,2.969,0,0,1,.1-1.5c.46-1.343.7-2.737,1.038-4.109a1.4,1.4,0,0,1,1.108-1.089c.225-.048.452-.085.678-.127.832.166,1.538.577,1.63,1.454a4.909,4.909,0,0,1-.2,1.981c-.173.54-.233,1.124-.42,1.631-.35.946-.349,2.072-1.353,2.744-.5.336-.977.051-1.445.184" transform="translate(-60.672 -84.568)" fill="#100d17"/>
    <path id="Trazado_816328" data-name="Trazado 816328" d="M217.522,38.7c.067-.131.118-.294.319-.164a.283.283,0,0,1-.319.164" transform="translate(-104.617 -18.513)" fill="#e1e2ea"/>
    <path id="Trazado_816329" data-name="Trazado 816329" d="M47.643,182.742a5.313,5.313,0,0,1-5.711,5.536,9.925,9.925,0,0,1-5.485-2.329,11.263,11.263,0,0,1-3.857-6.029,5.67,5.67,0,0,1,.25-3.766,1.356,1.356,0,0,0-.174-1.592c-.277-.289-.053-.6-.184-.9a3.314,3.314,0,0,0-2.387-1.908,6.692,6.692,0,0,1-4.812-4.857,3.908,3.908,0,0,0-.732-1.516,1.831,1.831,0,0,1-.241-2.46,1.878,1.878,0,0,1,3.1.371,9.484,9.484,0,0,1,1.382,3.025,3.08,3.08,0,0,0,2.442,2.181,6.158,6.158,0,0,1,4.651,4.172c.1.279.216.553.634.476a8.431,8.431,0,0,1,6.357,1.468,11.908,11.908,0,0,1,3.325,3.366,9.73,9.73,0,0,1,1.479,4.09,2.9,2.9,0,0,1-.039.677m-3.617-.122a2.521,2.521,0,0,0-.267-1.427,7.175,7.175,0,0,0-5.3-4.527,1.89,1.89,0,0,0-2.432,2.223,7.618,7.618,0,0,0,4.6,5.374,3.263,3.263,0,0,0,1.7.308c1.32-.14,1.689-.483,1.7-1.952" transform="translate(-11.514 -78.035)" fill="#100d17"/>
    <path id="Trazado_816330" data-name="Trazado 816330" d="M88.237,142.176a5.01,5.01,0,0,1-3.3,5.086,6.191,6.191,0,0,1-4,.075,11.11,11.11,0,0,1-7.371-6.781,5.7,5.7,0,0,1-.382-4.13c.1-.3.059-.38-.286-.518a6.845,6.845,0,0,1-4-3.782,13.974,13.974,0,0,1-.484-1.448,2.75,2.75,0,0,0-2.145-2,6.685,6.685,0,0,1-3.365-1.851,1.721,1.721,0,0,1-.026-2.488,1.8,1.8,0,0,1,2.489.032,4.089,4.089,0,0,0,1.836.945,6.291,6.291,0,0,1,4.742,4.842,3.81,3.81,0,0,0,2.872,2.677c.716.232,1.3-.114,1.95-.225a8.142,8.142,0,0,1,4.584.3,11.08,11.08,0,0,1,5.241,4.1,8.268,8.268,0,0,1,1.647,5.167m-3.621-.061a4.132,4.132,0,0,0-.075-1.023,6.985,6.985,0,0,0-5.842-5.138,1.7,1.7,0,0,0-1.989,1.615,4.823,4.823,0,0,0,1.133,3.345,6.915,6.915,0,0,0,4.743,3.044c1.454.168,2.024-.4,2.032-1.843" transform="translate(-29.991 -59.567)" fill="#100d17"/>
    <path id="Trazado_816331" data-name="Trazado 816331" d="M80.477,172.881a5.2,5.2,0,0,1-4.389,5.593,7.262,7.262,0,0,1-4.474-.81,11.176,11.176,0,0,1-5.381-5.3,8.694,8.694,0,0,1-.879-4.707,3.2,3.2,0,0,1,.343-.946,1.617,1.617,0,0,0-.016-1.632,5.288,5.288,0,0,1-.4-1.109,2.5,2.5,0,0,0-1.782-1.685,7.08,7.08,0,0,1-4.955-4,8.269,8.269,0,0,1-.31-.9,5.344,5.344,0,0,0-1.035-2.03,1.6,1.6,0,0,1,.309-2.514c.679-.547,1.628-.263,2.36.488a5.961,5.961,0,0,1,1.351,1.86c.184.445.32.911.469,1.371a3.268,3.268,0,0,0,2.317,2.281,7.218,7.218,0,0,1,2.457,1.1,5.43,5.43,0,0,1,2.245,2.9c.14.444.314.62.864.545a8.856,8.856,0,0,1,6.569,1.808,10.065,10.065,0,0,1,2.515,2.464c1.052,1.581,2.027,3.276,1.818,5.221m-9.7-5.929a1.457,1.457,0,0,0-1.447.552,2.2,2.2,0,0,0-.262,2.091,7.352,7.352,0,0,0,5.667,5.343,1.809,1.809,0,0,0,2.254-1.748,3.517,3.517,0,0,0-.164-1.275,7.666,7.666,0,0,0-3.959-4.466,3.825,3.825,0,0,0-2.089-.5" transform="translate(-27.282 -73.372)" fill="#100d17"/>
    <path id="Trazado_816332" data-name="Trazado 816332" d="M22.9,135.237a1.655,1.655,0,0,1-1.578-2.359,18.442,18.442,0,0,1,3.639-4.5,1.766,1.766,0,0,1,2.211.147,1.7,1.7,0,0,1,.248,2.179,4.434,4.434,0,0,1-.523.655,24.142,24.142,0,0,0-2.321,2.853c-.416.594-.885,1.136-1.677,1.023" transform="translate(-10.166 -61.588)" fill="#100d17"/>
    <path id="Trazado_816333" data-name="Trazado 816333" d="M175.153,28.513c.279.052.415.267.575.426q2.657,2.639,5.3,5.3,4.883,4.909,9.764,9.818c.353.355.516.577-.036.927A4.708,4.708,0,0,0,189.789,46c-.327.39-.619.414-.931-.008a39.007,39.007,0,0,0-4.3-4.475c-3.553-3.476-6.936-7.123-10.588-10.5-.691-.639-.687-.682-.014-1.355.3-.3.6-.615.91-.918.09-.089.2-.162.287-.237" transform="translate(-83.422 -13.713)" fill="#5eb188"/>
    <path id="Trazado_816334" data-name="Trazado 816334" d="M203.142,8.247c.161.146.326.281.476.431q5.26,5.289,10.518,10.58c1.028,1.033,1.033,1.029.019,2.027-.864.85-.838.824-1.694-.044-3.613-3.662-7.2-7.353-10.942-10.883-.158-.149-.314-.277-.13-.47.489-.514,1-1.011,1.5-1.51a1.094,1.094,0,0,1,.252-.132" transform="translate(-96.818 -3.966)" fill="#5eb188"/>
    <path id="Trazado_816335" data-name="Trazado 816335" d="M135.649,98.854c.009.213-.123.3-.238.392-.584.472-1.176.934-1.75,1.417a.493.493,0,0,1-.779-.035c-.4-.415-.811-.828-1.245-1.21a.552.552,0,0,1-.088-.881c.47-.585.925-1.182,1.4-1.767.154-.192.332-.355.582-.1.665.67,1.336,1.333,2,2a.927.927,0,0,1,.12.186" transform="translate(-63.182 -46.429)" fill="#5eb188"/>
    <path id="Trazado_816336" data-name="Trazado 816336" d="M55.173,195.927c-.006,1.468-.375,1.811-1.7,1.952a3.263,3.263,0,0,1-1.7-.308,7.618,7.618,0,0,1-4.6-5.374,1.89,1.89,0,0,1,2.432-2.223,7.175,7.175,0,0,1,5.3,4.527,2.521,2.521,0,0,1,.267,1.427" transform="translate(-22.661 -91.342)" fill="#e04968"/>
    <path id="Trazado_816337" data-name="Trazado 816337" d="M97.9,153.312c-.008,1.448-.578,2.011-2.032,1.843a6.916,6.916,0,0,1-4.743-3.044A4.825,4.825,0,0,1,90,148.766a1.7,1.7,0,0,1,1.989-1.615,6.985,6.985,0,0,1,5.842,5.138,4.157,4.157,0,0,1,.076,1.023" transform="translate(-43.277 -70.764)" fill="#e04968"/>
    <path id="Trazado_816338" data-name="Trazado 816338" d="M82.089,180.272a3.825,3.825,0,0,1,2.089.5,7.666,7.666,0,0,1,3.959,4.466,3.518,3.518,0,0,1,.164,1.275,1.809,1.809,0,0,1-2.254,1.748,7.352,7.352,0,0,1-5.667-5.343,2.2,2.2,0,0,1,.262-2.091,1.457,1.457,0,0,1,1.447-.552" transform="translate(-38.59 -86.691)" fill="#e04968"/>
  </g>
</svg>
