<svg xmlns="http://www.w3.org/2000/svg" xmlns:xlink="http://www.w3.org/1999/xlink" width="125" height="72.123" viewBox="0 0 125 72.123">
  <defs>
    <clipPath id="clip-path">
      <rect id="Rectángulo_376293" data-name="Rectángulo 376293" width="125" height="72.123" transform="translate(0 0)" fill="none"/>
    </clipPath>
  </defs>
  <g id="Grupo_1071415" data-name="Grupo 1071415" transform="translate(0 -3)">
    <g id="Grupo_1071414" data-name="Grupo 1071414" transform="translate(0 3)" clip-path="url(#clip-path)">
      <path id="Trazado_815804" data-name="Trazado 815804" d="M77.963,67.479a22.492,22.492,0,0,0-.984-2.4,9.46,9.46,0,0,1-1.057-4.862,88.634,88.634,0,0,1,2.766-21.126c.362-1.4.87-2.757,1.31-4.135.077-.241.147-.485.255-.845-.563.125-1.007.237-1.456.323a4.581,4.581,0,0,1-5.33-6.088,16.694,16.694,0,0,1,.975-2.367A7.806,7.806,0,0,0,74,17.862c-.5-.835-.961-1.693-1.425-2.548a9.192,9.192,0,0,1,.41-10.035L74.1,3.548c-.98.1-1.773.139-2.547.274-2.6.454-5.181.983-7.783,1.4a25.883,25.883,0,0,1-3.553.249.988.988,0,0,0-1.007.7,3.965,3.965,0,0,0,.761,4.552,19.7,19.7,0,0,1,3.4,4.9,14.393,14.393,0,0,1,1.315,7.828,3.539,3.539,0,0,1-4.066,3.423,13.282,13.282,0,0,1-1.633-.141,6.263,6.263,0,0,0-5.28,1.584c-1.168.975-2.32,1.97-3.508,2.92a12.312,12.312,0,0,1-1.722,1.137,4.631,4.631,0,0,1-6.92-2.409c-1.007-2.351-.582-4.653.315-6.919a13.446,13.446,0,0,1,4.21-5.3,19.934,19.934,0,0,0,2.372-2.35,2.637,2.637,0,0,0,.187-3.539c-1.323-1.7-2.786-3.291-4.234-4.888a14.091,14.091,0,0,0-1.916-1.706,1.948,1.948,0,0,0-1.141-.414C36.156,5.036,30.979,4.71,25.8,4.38c-.415-.026-.833,0-1.184,0,.476,1.579,1.022,3.12,1.385,4.7a7.95,7.95,0,0,1,.089,2.682,3.71,3.71,0,0,1-2.723,3.244c-.9.29-1.836.482-2.76.7a4.139,4.139,0,0,0-2.988,2.513c-.29.674-.544,1.365-.807,2.051a3.293,3.293,0,0,1-2.3,2.153c-1.032.272-2.08.481-3.122.716-.224.05-.45.093-.785.163.218.552.4,1.032.6,1.5,1.171,2.8,2.5,5.545,3.474,8.41a43.781,43.781,0,0,1,1.907,7.788,21.963,21.963,0,0,1-.257,5.451,9.383,9.383,0,0,0,.308,3.486q1.417,5.469,2.572,11.005a9.033,9.033,0,0,1-.677,5.162,1.411,1.411,0,0,1-1.82.936,1.311,1.311,0,0,1-.842-1.832c1.021-2.678.415-5.3-.223-7.909s-1.349-5.231-2.109-7.822a7.665,7.665,0,0,1-.024-3.658,1.557,1.557,0,0,0-.445-1.522,16.972,16.972,0,0,1-4.412-7.538A16.677,16.677,0,0,1,8.935,28.8a4.156,4.156,0,0,0-.266-2.873c-.866-1.9-1.635-3.838-2.434-5.764a7.365,7.365,0,0,0-2.1-2.978c0,.391-.006.631,0,.87.126,4.749.376,9.5.338,14.246A31.592,31.592,0,0,0,5.708,42.09a32.921,32.921,0,0,1,1.235,9.786,5.478,5.478,0,0,1-.089,1.062,1.29,1.29,0,0,1-1.212,1.121,1.334,1.334,0,0,1-1.47-.889A3.625,3.625,0,0,1,4,52.058c-.144-2.5-.276-5-.412-7.5l-.244-.024a7.716,7.716,0,0,0-.337,1.534c-.055,3.274-.225,6.57.714,9.763.433,1.473,1.053,2.891,1.588,4.334a1.353,1.353,0,0,1-1.162,2.014,1.386,1.386,0,0,1-1.405-1.012A47.685,47.685,0,0,1,.871,55.885,31.891,31.891,0,0,1,1.191,39.9,12.293,12.293,0,0,0,1.6,36.524C1.4,28.357,1.189,20.19.857,12.027A11.353,11.353,0,0,1,4.423,2.932,7.655,7.655,0,0,1,10.1.654c3.52.1,7.037.264,10.552.468,7.268.422,14.524.971,21.821.794A109.6,109.6,0,0,1,53.8,2.389,44.837,44.837,0,0,0,69.089,1.343a17.983,17.983,0,0,1,11.139.6,20.258,20.258,0,0,0,6,1.1,99.2,99.2,0,0,0,10.337-.327c3.184-.151,6.365-.375,9.548-.549a5.342,5.342,0,0,0,2.872-.836,6.617,6.617,0,0,1,6.371-.87c.974.375,1.991.642,2.952,1.044a1.359,1.359,0,0,1,.8,1.971,1.29,1.29,0,0,1-1.659.707c-1.062-.343-2.119-.7-3.173-1.067a3.686,3.686,0,0,0-3.223.316,6.9,6.9,0,0,0-.924.533,3.634,3.634,0,0,1-3.3.914,3.769,3.769,0,0,0,0,.616,6.066,6.066,0,0,1-1.66,5.24,7.616,7.616,0,0,0-1.609,5.449,2.46,2.46,0,0,0,.757,1.4,14.219,14.219,0,0,0,4.634,3.371,6.642,6.642,0,0,0,2.276.481q4.025.2,8.056.257a9.239,9.239,0,0,0,2.3-.351c.461-.114.62-.447.263-.914-1.183-1.547-2.391-3.078-3.494-4.681-.91-1.323-1.639-2.771-2.533-4.106-.92-1.376-1.938-2.686-2.927-4.016-.282-.38-.642-.706-.908-1.1a1.238,1.238,0,0,1,.2-1.784,1.245,1.245,0,0,1,1.8.025,18.953,18.953,0,0,1,4.347,5.687,25.493,25.493,0,0,0,3.215,4.937c.933,1.26,1.924,2.48,2.806,3.774a2.926,2.926,0,0,1-.741,4.312,6.114,6.114,0,0,1-4.1,1.172c-2.948-.087-5.893-.236-8.84-.343a10.062,10.062,0,0,1-5.28-2.132,1.081,1.081,0,0,0-1.383-.046c-4.832,2.977-9.139,6.519-12.2,11.369a27.545,27.545,0,0,0-1.991,3.849,11.4,11.4,0,0,1-6.3,6.538,14.342,14.342,0,0,1-2.607.7.83.83,0,0,0-.781.828c-.336,2.923-.751,5.838-1,8.767-.207,2.411-.251,4.837-.3,7.258a4.812,4.812,0,0,0,.364,1.708c.63,1.711,1.353,3.389,1.962,5.107.458,1.289-.081,2.084-1.432,2.107-2.521.041-5.045.023-7.566-.011a1.443,1.443,0,0,1-1.606-1.436,1.518,1.518,0,0,1,1.71-1.43c1.69-.006,3.379.018,5.069.027.138,0,.277-.013.632-.03M81,41.71c.292-.072.447-.1.6-.149A8.242,8.242,0,0,0,86.9,36.625a34.535,34.535,0,0,1,5.15-8.331,38.021,38.021,0,0,1,9.088-7.619c.431-.28.853-.573,1.154-.776a15.315,15.315,0,0,1-1.48-2.9,15.5,15.5,0,0,1-.2-3.243,6.854,6.854,0,0,0-4.7,1.361,17.66,17.66,0,0,0-6.508,8.1,11.542,11.542,0,0,1-4.361,5.317,1.772,1.772,0,0,0-.629.941c-.318,1.19-.493,2.419-.844,3.6-.743,2.5-1.567,4.973-2.343,7.462A10.563,10.563,0,0,0,81,41.71M11.565,32.618l-.2.06c-.642,2.249.776,6.767,2.528,7.82-.806-2.727-1.568-5.3-2.329-7.879" transform="translate(0 0)" fill="#161615"/>
      <path id="Trazado_815805" data-name="Trazado 815805" d="M46.9,51.835c-1.059,3.365-3.726,4.838-6.916,5.642-.539.136-.727.344-.714.9a1.355,1.355,0,0,1-1.327,1.538,1.3,1.3,0,0,1-1.484-1.291c-.072-.574-.4-.637-.823-.64-.455,0-.946-.283-1.242.423a9.611,9.611,0,0,0-.559,5.433c.585,3.557.98,7.147,1.616,10.694a23.529,23.529,0,0,0,1.49,4.735c.7,1.7-.157,2.566-1.587,2.549-2.348-.028-4.7-.211-7.041-.4a1.321,1.321,0,0,1-1.163-1.471,1.306,1.306,0,0,1,1.4-1.236c1.545.042,3.088.158,4.632.24.16.009.321,0,.472,0,.028-.073.07-.125.057-.158-1.352-3.5-1.545-7.218-2.123-10.864-.267-1.687-.454-3.386-.742-5.069a9.866,9.866,0,0,1,.9-5.331c.9-2.319,1.784-4.65,2.783-6.928a28.715,28.715,0,0,1,2.178-4.069,43.742,43.742,0,0,0,6.276-17.175c.235-1.47.235-2.978.34-4.468.013-.19,0-.381.013-.57.08-1.051.639-1.641,1.521-1.613a1.5,1.5,0,0,1,1.419,1.714,40.19,40.19,0,0,1-2.088,12.23c-.828,2.543-1.815,5.033-2.752,7.6,2.245.967,4.051,2.752,6.077,4.236a19.13,19.13,0,0,0,14.231,3.789,110.515,110.515,0,0,0,13.6-2.8c.984-.257,2.008-.365,3.014-.543.3-.053.595-.112.834-.157-.29-1.818-.575-3.568-.843-5.321a6.788,6.788,0,0,1-.069-1.136,1.376,1.376,0,0,1,1.279-1.449,1.324,1.324,0,0,1,1.457,1.17c.194,1.193.3,2.4.464,3.6a15.971,15.971,0,0,0,1.89,5.415,24.722,24.722,0,0,1,2.6,10.265,35.244,35.244,0,0,1,.136,5.608c-.222,2.522-.729,5.02-1.145,7.523a1.414,1.414,0,0,1-1.587,1.21A1.384,1.384,0,0,1,82.206,74c.23-1.573.473-3.145.777-4.7a26.777,26.777,0,0,0,.078-7.875,34.443,34.443,0,0,0-.679-5,29.646,29.646,0,0,0-1.76-4.481c-.081-.186-.567-.335-.824-.285-2.679.519-5.355,1.055-8.021,1.639a83.65,83.65,0,0,1-12.154,2.023A19.725,19.725,0,0,1,50.813,53.6c-1.292-.525-2.545-1.144-3.913-1.764M35.753,55.212a3.907,3.907,0,0,0,.91.034A44.689,44.689,0,0,0,41.121,54.1a4.868,4.868,0,0,0,3.194-3.884.879.879,0,0,0-.193-.736c-1.154-.865-2.34-1.686-3.527-2.506-.439-.3-.791-.2-1.041.289-.946,1.828-1.926,3.639-2.842,5.482-.373.751-.616,1.568-.959,2.462" transform="translate(-11.594 -9.699)" fill="#161615"/>
      <path id="Trazado_815806" data-name="Trazado 815806" d="M194.432,21.829a1.641,1.641,0,1,1-.006-3.281,1.69,1.69,0,0,1,1.586,1.7,1.574,1.574,0,0,1-1.58,1.584" transform="translate(-82.315 -7.921)" fill="#161615"/>
    </g>
  </g>
</svg>
