<svg xmlns="http://www.w3.org/2000/svg" xmlns:xlink="http://www.w3.org/1999/xlink" width="106.064" height="108.278" viewBox="0 0 106.064 108.278">
  <defs>
    <clipPath id="clip-path">
      <rect id="Rectángulo_377172" data-name="Rectángulo 377172" width="106.064" height="108.278" fill="none"/>
    </clipPath>
  </defs>
  <g id="Grupo_1072745" data-name="Grupo 1072745" clip-path="url(#clip-path)">
    <path id="Trazado_818880" data-name="Trazado 818880" d="M99.065,114.131l.045-.172a1.359,1.359,0,0,1-.01-.207,19.112,19.112,0,0,1,1-3.707,3.759,3.759,0,0,1,.6-1.5l.126-.189a2.1,2.1,0,0,1,.518-1.6c.189-.936.409-1.866.559-2.807a11.537,11.537,0,0,0,.385-3.358,6.379,6.379,0,0,0-1.418-3.441c-.065-.075-.166-.141-.124-.317a4.259,4.259,0,0,1,2.11.58,9.4,9.4,0,0,1,3.866,3.29,2.5,2.5,0,0,0,.745.661.906.906,0,0,0,1.172-.242,1.2,1.2,0,0,0,.371-1.3c-.26-.407-.541-.8-.839-1.183a12.046,12.046,0,0,0-2.9-2.647,11.925,11.925,0,0,0-3.941-1.585c-.95-.219-1.927-.234-2.888-.359a20.056,20.056,0,0,0-3.242.016c-.309.009-.467-.011-.554-.416-.227-1.055-.447-2.127-.76-3.148-.534-1.741-1-3.5-1.564-5.236a105.526,105.526,0,0,0-3.989-10.575c-.36-.81-.751-1.6-1.147-2.4-.409-.818-.857-1.616-1.273-2.43a34.3,34.3,0,0,0-1.793-2.967,30.454,30.454,0,0,0-2.071-2.848c-.065-.078-.18-.141-.136-.263.049-.138.179-.069.275-.075a18.328,18.328,0,0,0,13.164-6.479,17.8,17.8,0,0,0,3.8-7.565,29.933,29.933,0,0,0,.513-3.436,11.044,11.044,0,0,0-.068-2.8,16.056,16.056,0,0,0-.74-3.219,24.272,24.272,0,0,0-1.447-3.372,20.683,20.683,0,0,0-1.941-2.844,16.555,16.555,0,0,0-3.788-3.442,17.377,17.377,0,0,0-6.026-2.582c-.747-.169-1.533-.168-2.257-.365a9.233,9.233,0,0,0-3.125-.11,14.95,14.95,0,0,0-3.518.634,21.271,21.271,0,0,0-3.08,1.136,18.458,18.458,0,0,0-2.925,1.812,21.17,21.17,0,0,0-2.7,2.48,15.314,15.314,0,0,0-2.8,4.23c-.4.913-.734,1.852-1.084,2.783-.281.747-.268,1.542-.58,2.277a4.373,4.373,0,0,0-.12,1.256,15.368,15.368,0,0,0,.185,4.04,19.3,19.3,0,0,0,1.95,6,3.08,3.08,0,0,0,.21.366c.112.152.286.284.142.5s-.36.148-.535.118a15.71,15.71,0,0,0-4.172.106,3.344,3.344,0,0,1-.423.007,22.931,22.931,0,0,0-3.447.4c-.917.111-1.835.219-2.751.335-.88.112-1.767.2-2.636.365a12.392,12.392,0,0,1-1.343.144,53.968,53.968,0,0,1-7.577.214c-1.826-.1-3.661-.126-5.48-.378a11.651,11.651,0,0,0-1.932-.135c-1.123.033-2.24-.138-3.367-.1-3.794.142-7.405.866-10.568,3.14a21.673,21.673,0,0,0-6.018,6.864,57.244,57.244,0,0,0-4.032,8.864c-.952,2.545-1.817,5.111-2.532,7.73A53.3,53.3,0,0,0,7.816,88.7c-.185,1.216-.294,2.45-.36,3.688a28.787,28.787,0,0,1-.377,4.048c-.158.805-.254,1.623-.434,2.426a4.846,4.846,0,0,1-1.152,2.309.875.875,0,0,0,.066,1.273,1.025,1.025,0,0,0,1.183.4,3.193,3.193,0,0,0,1.79-2.134A20.221,20.221,0,0,0,9.608,95.98c.168-1.424.2-2.855.328-4.279a30.844,30.844,0,0,1,.578-4.28c.1-.442.212-.89.36-1.354l.483,1.757c.489,1.781,1.194,3.486,1.793,5.229a6.262,6.262,0,0,1,.212,2.141,24.1,24.1,0,0,0,.064,4.22c.107.658.09,1.321.145,1.972a33.663,33.663,0,0,1,.251,6.753.35.35,0,0,1-.047.513,30.494,30.494,0,0,1,0,3.158c.032,1.532-.022,3.07.084,4.6a8.269,8.269,0,0,0,.25,2.534c.067.171-.076.248-.078.388a14.333,14.333,0,0,0,.3,2.882c.146.784.491.966,1.3.947.1-.173.2-.174.307-.008l.516.059c.278-.015.558-.051.836-.043,1.979.056,3.957.107,5.937.064l.134-.039a2.12,2.12,0,0,0,.783-.18c.711-.611.492-1.369.289-2.092-.212-.751-.389-1.513-.6-2.257-.282-1.013-.405-2.041-.594-3.062a39.917,39.917,0,0,1-.559-4.057c-.084-1.05-.156-2.1-.169-3.147-.02-1.588.178-3.165.306-4.745.036-.435.311-.3.522-.213.17.068.295.251.465.321a.619.619,0,0,1,.394.7q-.044,1.32-.028,2.641a1.172,1.172,0,0,0,.833,1.258,1.1,1.1,0,0,0,1.534-.986c.064-.594.049-1.2.075-1.794.007-.167-.06-.36.129-.48a14.036,14.036,0,0,1,2.035.052c.512.019.657.169.556.634.006.016.019.036.014.048a.566.566,0,0,1-.047.086c.02.648.013,1.3.065,1.942A1.128,1.128,0,0,0,30.551,109a1.116,1.116,0,0,0,1.178-1.145c.059-.677.063-1.36.091-2.04-.007-.209-.022-.418-.018-.627a.357.357,0,0,1,.3-.38c.2-.032.315.093.366.291.06.235.141.464.213.7.115.274.247.542.344.823a49.465,49.465,0,0,0,2.385,5.164,49.975,49.975,0,0,1,1.989,4.779c.5,1.392,1.042,2.766,1.546,4.155a15.866,15.866,0,0,0,.586,1.6,1.383,1.383,0,0,0,1.3.853c2.679.057,5.358.034,8.037-.006a1.72,1.72,0,0,0,.706-.188,1.033,1.033,0,0,0,.538-1.306,21.443,21.443,0,0,0-1.654-2.967c-1.3-2.3-2.562-4.621-3.653-7.032a23.589,23.589,0,0,1-1.052-2.614,3.166,3.166,0,0,1,.048-1.769c.339-1.3.663-2.6,1.006-3.886a15.793,15.793,0,0,1,.666-2.268.428.428,0,0,1,.46-.306,28.017,28.017,0,0,0,4.183-.477,16.429,16.429,0,0,0,4.243-1.325,15.812,15.812,0,0,0,2.534-1.354c.442-.3.635-.109.845.162.753.972,1.533,1.928,2.211,2.952a32.8,32.8,0,0,1,2.8,4.824,18.072,18.072,0,0,1,1.023,3.912c.282,1.45.523,2.908.781,4.362.366,2.065.77,4.122,1.034,6.2a17.15,17.15,0,0,0,.458,2.175,1.151,1.151,0,0,0,1.206.9c.281.01.561.033.842.05,2.692-.08,5.384-.058,8.077-.021,1.321-.007,2.642-.02,3.963-.02.957,0,1.419-.477,1.436-1.485.029-1.717-.231-3.409-.357-5.11-.118-1.59-.478-3.158-.753-4.733-.291-1.673-.8-3.287-1.162-4.937-.082-.369.064-.375.337-.329a7.966,7.966,0,0,1,1.676.75c.167.068.2.264.257.437a42.316,42.316,0,0,0,6.772,12.694c.4.539.82,1.063,1.208,1.611.476.672.991,1.256,1.926,1.149.192-.018.383-.048.576-.053,1.9-.045,3.791.132,5.687.019l.122-.008.688-.152a1.705,1.705,0,0,0,.451-1.748,17.333,17.333,0,0,1-.289-4.2c.048-.933.21-1.86.321-2.79l.039-.148M17.056,68.779c.152-.231.154-.536.363-.739a25.89,25.89,0,0,1,2.81-4.145,12.568,12.568,0,0,1,5.417-4.1,20.681,20.681,0,0,1,7.283-1.274c.788,0,1.577.062,2.365.1s1.579.057,2.364.13c2.682.249,5.363.432,8.061.426,1.745,0,3.473-.2,5.212-.268a9.014,9.014,0,0,0,1.5-.15,13.038,13.038,0,0,1,2.454-.331c1.329-.023,2.6-.434,3.926-.48a3.376,3.376,0,0,0,.964-.1,11.78,11.78,0,0,1,3.279-.387,15.335,15.335,0,0,1,2.47.078,17.267,17.267,0,0,1,4.341.838,22.854,22.854,0,0,1,11.568,8.859,67.96,67.96,0,0,1,6.17,11.812c.9,2.162,1.638,4.383,2.355,6.611.905,2.815,1.663,5.67,2.363,8.542.1.395.027.637-.408.74-.392.093-.77.242-1.154.365-.995.35-1.98.73-2.986,1.042a5.417,5.417,0,0,0-3.394,2.884,4.88,4.88,0,0,0-.216,3.209c.631,2.668,2.523,4.187,4.959,5.15.683.27,1.059.05,1.459-.611a1.091,1.091,0,0,0-.493-1.514c-.2-.118-.4-.219-.6-.331a6.072,6.072,0,0,1-2.562-2.279A2.694,2.694,0,0,1,88.1,98.879q1.457-.623,2.956-1.124c1.232-.41,2.43-.925,3.7-1.228a2.237,2.237,0,0,1,.461.086c.581.24,1.294.2,1.708.8,2.079.736,3.065,2.209,2.809,4.205a30.4,30.4,0,0,1-.979,4.634c-.6,2.058-1.336,4.074-1.885,6.148a24.643,24.643,0,0,0-.662,4.844c.061,1.037.009,2.079.156,3.113.04.284-.017.463-.382.457-1.321-.02-2.643-.014-3.965-.017-.2,0-.43.022-.548-.137a15.442,15.442,0,0,1-1.684-2.345.344.344,0,0,1-.238-.191c-.777-1.175-1.578-2.335-2.326-3.529a11.934,11.934,0,0,1-1.466-3.261c-.119-.02-.167-.108-.219-.2a26.848,26.848,0,0,1-1.627-4.039c-.053-.155-.189-.354-.028-.541a3.417,3.417,0,0,0-.841-1.174,21.081,21.081,0,0,1-2.764-1.275,35.77,35.77,0,0,0-7.015-2.557c-.18-.038-.424-.058-.468-.288a7.893,7.893,0,0,1-.334-1.59,14.966,14.966,0,0,1-.787-1.728c-1.25-2.652-3.06-4.972-4.46-7.537a1.109,1.109,0,0,0-1.545-.484,1.164,1.164,0,0,0-.509,1.585c.058.147.135.287.207.427.986,1.947,2.177,3.774,3.326,5.624a14.176,14.176,0,0,1,2.03,5.782c.479,3.861,1.215,7.674,1.911,11.5.333,1.832.636,3.67,1.071,5.483.054.226.088.51-.319.508-1.621-.008-3.243,0-4.865,0-.252,0-.372-.1-.407-.37-.471-3.574-1.2-7.106-1.8-10.658a21.727,21.727,0,0,0-3.217-8.416,60.593,60.593,0,0,0-3.8-5.349,14.624,14.624,0,0,0-2.047-2.252,23.872,23.872,0,0,1-2.074-2.023,1.493,1.493,0,0,0-2-.253c-.592.537-.551,1.194.133,1.878.447.447.909.879,1.365,1.318l.093.115a.336.336,0,0,1,.028.1c.844.474.87.67.11,1.109a17.679,17.679,0,0,1-10.492,2.3,32.109,32.109,0,0,1-6.892-1.453A47.953,47.953,0,0,1,28.946,93.2a9.233,9.233,0,0,1-1.891-1.144c-.506-.127-.567-.361-.292-.817a15.533,15.533,0,0,0,.972-1.931,1.006,1.006,0,0,0-.465-1.386,1.118,1.118,0,0,0-1.6.379c-.413.716-.819,1.437-1.184,2.185-.54,1.107-1.115,2.191-1.559,3.346a38.362,38.362,0,0,0-1.982,6.449c-.189.981-.367,1.971-.485,2.972a38.3,38.3,0,0,0-.393,4.1,37.093,37.093,0,0,0,.276,5.076c.174,1.359.325,2.721.575,4.067.234,1.253.534,2.495.818,3.739.087.38.064.6-.424.588q-2.141-.034-4.283,0c-.418.006-.548-.138-.551-.55-.006-.791-.054-1.583-.09-2.374a90.461,90.461,0,0,1-.044-9.18,35.309,35.309,0,0,0-.12-5.531,62.038,62.038,0,0,1-.418-7.785,9.9,9.9,0,0,0-.034-1.239,20.664,20.664,0,0,0-1.042-3.92c-.441-1.446-.947-2.872-1.293-4.347a20.046,20.046,0,0,1-.417-3.508c-.042-.775.151-1.559.157-2.34a11.385,11.385,0,0,1,.285-2.28,31.379,31.379,0,0,1,2.326-6.662,2.187,2.187,0,0,1,.456-.7,6.545,6.545,0,0,1,.808-1.626m20.991,31.5c.081-.639.11-.649.707-.541,1.326.24,2.623.628,3.967.778.35.039.416.188.307.526-.621,1.939-1.009,3.941-1.593,5.889a5.874,5.874,0,0,0,.315,3.707c.774,2.259,2.04,4.291,2.99,6.468a30.428,30.428,0,0,0,1.7,2.961c.111.193.337.388.236.611-.115.254-.409.137-.625.138-1.181.008-2.361,0-3.542,0-1.014,0-1.013,0-1.323-.93a84.168,84.168,0,0,0-4.4-10.728,42.148,42.148,0,0,1-1.774-4.1c-.045-.112-.083-.228-.136-.336-.342-.706-.331-.7.335-1.153a7.686,7.686,0,0,0,1.941-1.818c.342-.47.529-1.021.888-1.472M81.576,61.253c-.441,0-.884.027-1.321-.007a2.152,2.152,0,0,1-1.455-.5,16.621,16.621,0,0,0-2-1.614,22.479,22.479,0,0,0-6.745-3.245,2.128,2.128,0,0,1-1.163-.9,15.988,15.988,0,0,1-2.542-5.906,21.613,21.613,0,0,1-.469-3.21c-.025-.324.171-.593.153-.9a11.493,11.493,0,0,1,.6-4.349,15.41,15.41,0,0,1,5.969-7.965,12.865,12.865,0,0,1,5.368-2.288c.883-.138,1.761-.326,2.648-.424a14.163,14.163,0,0,1,3.612.208,15.3,15.3,0,0,1,11.559,8.971A15.215,15.215,0,0,1,97.1,47.3a14.5,14.5,0,0,1-1.25,4.594,17.636,17.636,0,0,1-3.161,4.723,15.074,15.074,0,0,1-11.117,4.641m-52.218,41.47a7.446,7.446,0,0,1-5.577-2.054.821.821,0,0,1-.265-.891,43.388,43.388,0,0,1,1.715-5.318c.148-.387.292-.461.64-.245.792.494,1.57,1.018,2.4,1.44,2.276,1.158,4.65,2.1,7.024,3.037.454.179.5.357.342.772a4.284,4.284,0,0,1-2.769,2.588,8.162,8.162,0,0,1-3.509.671m48.241,18.1v0c-.3,0-.6-.014-.9,0-.357.022-.511-.087-.58-.483-.5-2.831-1.034-5.655-1.549-8.483-.452-2.483-.888-4.969-1.339-7.452-.057-.313-.012-.45.338-.328a9.677,9.677,0,0,0,1.352.436,1.889,1.889,0,0,1,1.633,1.5,61.71,61.71,0,0,1,2.44,13.7c.081,1.288.09,1.086-1.027,1.1-.124,0-.247,0-.37,0" transform="translate(-5.25 -15.777)" fill="#323133"/>
    <path id="Trazado_818881" data-name="Trazado 818881" d="M1.672,64.064c1.085-.121,2.169-.3,3.257-.341.891-.031,1.765-.169,2.649-.242a1.2,1.2,0,0,0,1.166-.789,1.167,1.167,0,0,0-.4-1.36,1.242,1.242,0,0,0-1.019-.256c-.712.148-1.433.048-2.147.16-.978.153-1.966.24-2.95.351-.42.047-.812-.166-1.278.079-.59.311-1.021.726-.94,1.286A1.221,1.221,0,0,0,1.3,64.023h.37c0,.014,0,.027,0,.041" transform="translate(97.251 -35.138)" fill="#323133"/>
    <path id="Trazado_818882" data-name="Trazado 818882" d="M119.73,73.518c0,.76.411,1.107,1.351,1.172a14.153,14.153,0,0,0,1.619-.12c1.163-.051,2.323-.183,3.482-.3a8.6,8.6,0,0,0,1.546-.251c.516-.152.655-.628.676-1.12a.948.948,0,0,0-.652-1.05,2.288,2.288,0,0,0-1.3-.1,14.565,14.565,0,0,1-1.919.2c-1.3.135-2.612.241-3.908.431-.695.1-.892.439-.889,1.14" transform="translate(-73.164 -41.262)" fill="#323133"/>
    <path id="Trazado_818883" data-name="Trazado 818883" d="M18.484,28.409a.945.945,0,0,0-.658.156c-1.8,1.187-3.54,2.459-5.272,3.743a1.224,1.224,0,0,0-.547,1.193c.028.256.89.9,1.2.936a.706.706,0,0,0,.44-.114c.984-.556,1.846-1.287,2.784-1.91.915-.607,1.824-1.224,2.733-1.841a1.5,1.5,0,0,0,.52-1.338,1.078,1.078,0,0,0-1.2-.826" transform="translate(81.258 -16.345)" fill="#323133"/>
    <path id="Trazado_818884" data-name="Trazado 818884" d="M74.93,6.9c-.115-1.177-.258-2.352-.334-3.531-.053-.835-.126-1.664-.25-2.491C74.25.233,73.852-.04,73,0a.979.979,0,0,0-.957.98,45.479,45.479,0,0,0,.41,5.139c.052.413.057.833.1,1.25.095.824.536,1.322,1.264,1.307a1.251,1.251,0,0,0,1.1-1.408c0-.123-.011-.246-.018-.369l.027,0" transform="translate(0.553 0)" fill="#323133"/>
    <path id="Trazado_818885" data-name="Trazado 818885" d="M116.387,38.894c-.767-.025-1.275.261-1.381.707a1.145,1.145,0,0,0,.695,1.516q2.458,1.184,4.945,2.308a4.909,4.909,0,0,0,.879.407,1.192,1.192,0,0,0,1.4-.625,1.124,1.124,0,0,0-.4-1.488c-.923-.61-1.991-.928-2.964-1.442-.88-.464-1.833-.78-2.678-1.323a1,1,0,0,0-.494-.061" transform="translate(-65.784 -22.383)" fill="#323133"/>
    <path id="Trazado_818886" data-name="Trazado 818886" d="M102.322,19.454a1.178,1.178,0,0,0,1.126-.663,1.084,1.084,0,0,0-.1-1.214c-1.236-1.766-2.422-3.567-3.754-5.266a1.165,1.165,0,0,0-1.484-.259,1.181,1.181,0,0,0-.443,1.506,12.018,12.018,0,0,0,1.025,1.517c.818,1.194,1.652,2.376,2.492,3.554.3.414.6.846,1.136.824" transform="translate(-38.933 -6.845)" fill="#323133"/>
    <path id="Trazado_818887" data-name="Trazado 818887" d="M29.629,110.154a.839.839,0,0,0-.978.491,1.147,1.147,0,0,0,.017,1.205c.318.513.681,1,1.028,1.494.844,1.2,1.687,2.408,2.538,3.605a1.4,1.4,0,0,0,.892.7A1.183,1.183,0,0,0,34.3,117.2a1.007,1.007,0,0,0,.088-1.231,16.443,16.443,0,0,0-1.153-1.758c-.877-1.1-1.618-2.3-2.461-3.426-.293-.391-.593-.765-1.144-.631" transform="translate(59.415 -63.382)" fill="#323133"/>
    <path id="Trazado_818888" data-name="Trazado 818888" d="M43.89,7.011a1.274,1.274,0,0,0-1.131-1.258c-.344-.055-1.029.516-1.2.9-.509,1.165-1.026,2.328-1.592,3.466a7.812,7.812,0,0,0-1.033,2.623c-.068.667.314,1.071,1.012,1.243a1.392,1.392,0,0,0,1.175-.715q1.2-2.6,2.392-5.213c.162-.356.47-.667.373-1.048" transform="translate(45.631 -3.309)" fill="#323133"/>
    <path id="Trazado_818889" data-name="Trazado 818889" d="M6.007,90.413a1.006,1.006,0,0,0,.584,1q2.2,1.017,4.38,2.062a13.77,13.77,0,0,0,1.8.778.955.955,0,0,0,1.047-.405.981.981,0,0,0,.244-1.191,1.819,1.819,0,0,0-.9-.773L7.841,89.421a1.153,1.153,0,0,0-1.7.439,1.07,1.07,0,0,0-.13.553" transform="translate(89.339 -51.353)" fill="#323133"/>
    <path id="Trazado_818890" data-name="Trazado 818890" d="M90.882,253c-2.692-.037-5.385-.059-8.077.021.051.775.071.794.838.794l6.379,0c.822,0,.822,0,.86-.813" transform="translate(-19.966 -145.593)" fill="#b49280"/>
    <path id="Trazado_818891" data-name="Trazado 818891" d="M212.6,252.632a2.111,2.111,0,0,1-.783.18l-.135.039c-1.979.042-3.958-.008-5.937-.064-.278-.008-.557.028-.836.043.045.146-.075.282-.051.406.039.2.04.458.386.439,2.261-.12,4.524-.034,6.787-.059.9-.01.9.01.606-.83a1.576,1.576,0,0,1-.038-.153" transform="translate(-193.705 -145.398)" fill="#b49280"/>
    <path id="Trazado_818892" data-name="Trazado 818892" d="M35.706,252.82c-1.9.113-3.791-.064-5.687-.019-.192,0-.384.034-.576.053.286.7.83.82,1.531.8,1.655-.047,3.313-.02,4.969-.025.961,0,1.03-.121.573-.969l-.688.152a.073.073,0,0,1-.122.008" transform="translate(56.776 -145.415)" fill="#b49280"/>
    <path id="Trazado_818893" data-name="Trazado 818893" d="M26.346,218.554a3.752,3.752,0,0,0-.6,1.5,19.108,19.108,0,0,0-1,3.707,1.413,1.413,0,0,0,.01.207,9.264,9.264,0,0,0,.419-1.068c.339-1.293.779-2.551,1.236-3.805a.527.527,0,0,0-.07-.541" transform="translate(69.099 -125.785)" fill="#b49280"/>
    <path id="Trazado_818894" data-name="Trazado 818894" d="M195.65,211.083c.1-.465-.045-.615-.556-.634a13.919,13.919,0,0,0-2.035-.052c.521.636,1.294.567,1.991.7a2.775,2.775,0,0,0,.522.006.384.384,0,0,0,.079-.025" transform="translate(-171.563 -121.076)" fill="#b49280"/>
    <path id="Trazado_818895" data-name="Trazado 818895" d="M186.135,210.719c-.072-.232-.152-.461-.213-.7-.051-.2-.166-.323-.366-.291a.357.357,0,0,0-.3.38c0,.209.011.418.018.627.287.064.568-.2.857-.019" transform="translate(-158.707 -120.705)" fill="#b49280"/>
    <path id="Trazado_818896" data-name="Trazado 818896" d="M24.028,214.327a2.1,2.1,0,0,0-.518,1.605,3.913,3.913,0,0,0,.518-1.605" transform="translate(72.061 -123.353)" fill="#b49280"/>
    <path id="Trazado_818897" data-name="Trazado 818897" d="M229.548,218.112a.35.35,0,0,0,.047-.513c-.188.155-.14.332-.047.513" transform="translate(-221.022 -125.236)" fill="#b49280"/>
    <path id="Trazado_818898" data-name="Trazado 818898" d="M225,252.792c-.107-.165-.209-.164-.307.008.106.129.208.122.307-.008" transform="translate(-214.311 -145.42)" fill="#b49280"/>
    <path id="Trazado_818899" data-name="Trazado 818899" d="M193.171,212.049a.387.387,0,0,1-.079.025l.046.109a.6.6,0,0,0,.047-.086c0-.013-.009-.032-.014-.048" transform="translate(-169.084 -122.042)" fill="#7b6355"/>
    <path id="Trazado_818900" data-name="Trazado 818900" d="M28.9,231.714l-.039.148.039-.148" transform="translate(64.92 -133.359)" fill="#b49280"/>
    <path id="Trazado_818901" data-name="Trazado 818901" d="M30.418,115.145a2.207,2.207,0,0,0-.456.705,31.4,31.4,0,0,0-2.325,6.662,11.416,11.416,0,0,0-.286,2.28c-.006.781-.2,1.565-.157,2.34a20.047,20.047,0,0,0,.417,3.508c.346,1.475.851,2.9,1.293,4.346a20.662,20.662,0,0,1,1.042,3.92,9.894,9.894,0,0,1,.035,1.239,62.036,62.036,0,0,0,.418,7.785,35.309,35.309,0,0,1,.12,5.531,90.458,90.458,0,0,0,.044,9.18c.036.791.084,1.582.09,2.374,0,.412.132.556.551.55q2.141-.03,4.283,0c.488.008.511-.208.424-.588-.284-1.244-.585-2.485-.818-3.739-.251-1.346-.4-2.708-.575-4.066a37.16,37.16,0,0,1-.276-5.076,38.428,38.428,0,0,1,.393-4.1c.117-1,.295-1.991.485-2.972a38.377,38.377,0,0,1,1.982-6.449c.444-1.155,1.019-2.239,1.56-3.346.365-.747.77-1.469,1.184-2.185a1.118,1.118,0,0,1,1.6-.379,1.006,1.006,0,0,1,.464,1.386,15.474,15.474,0,0,1-.972,1.931c-.275.456-.214.69.292.817.649-.954.649-.953,1.758-.566.148.052.308.076.45.139A85.469,85.469,0,0,0,54.1,140.4a29.874,29.874,0,0,0,7.914,1.259c.51.009,1.005-.16,1.507-.18a9.245,9.245,0,0,0,3.055-.575c.846-.333,1.54-.946,2.4-1.255a.347.347,0,0,0-.028-.1l-.093-.115c-.455-.439-.918-.871-1.365-1.318-.684-.684-.725-1.34-.133-1.878a1.493,1.493,0,0,1,2,.253,23.861,23.861,0,0,0,2.073,2.023,14.606,14.606,0,0,1,2.047,2.252,60.591,60.591,0,0,1,3.8,5.349,21.725,21.725,0,0,1,3.217,8.416c.6,3.552,1.327,7.083,1.8,10.658.036.268.155.371.407.37,1.622,0,3.244,0,4.866,0,.407,0,.374-.282.319-.508-.435-1.813-.738-3.651-1.072-5.483-.7-3.822-1.432-7.635-1.911-11.5a14.187,14.187,0,0,0-2.03-5.783c-1.149-1.85-2.339-3.677-3.326-5.624-.071-.141-.149-.281-.207-.427a1.164,1.164,0,0,1,.51-1.585,1.109,1.109,0,0,1,1.545.484c1.4,2.564,3.209,4.885,4.46,7.537a15,15,0,0,0,.787,1.728,1.369,1.369,0,0,1,.745.227c2.462,1.323,5.055,2.366,7.583,3.548a3.827,3.827,0,0,1,2.253,1.935,3.418,3.418,0,0,1,.841,1.174,1.134,1.134,0,0,1,.4.41,13.417,13.417,0,0,1,1.478,4.375,11.935,11.935,0,0,0,1.466,3.261c.747,1.194,1.548,2.354,2.326,3.529a.344.344,0,0,0,.238.191,1.687,1.687,0,0,1,.932-.732,8.24,8.24,0,0,1,3.733-.585,7.426,7.426,0,0,0,1.757.247,24.644,24.644,0,0,1,.663-4.844c.549-2.074,1.285-4.09,1.884-6.148a30.34,30.34,0,0,0,.979-4.634c.256-2-.729-3.469-2.809-4.2a4.685,4.685,0,0,1-1.545-.146c-.5-.044-.677-.27-.624-.737-1.268.3-2.466.817-3.7,1.228q-1.5.5-2.956,1.124A2.694,2.694,0,0,0,101.1,147.6a6.08,6.08,0,0,0,2.562,2.279c.2.112.4.213.6.331a1.092,1.092,0,0,1,.493,1.515c-.4.661-.777.881-1.46.611-2.436-.964-4.328-2.482-4.959-5.15a4.875,4.875,0,0,1,.216-3.209,5.416,5.416,0,0,1,3.394-2.884c1.006-.312,1.991-.692,2.985-1.042a2.845,2.845,0,0,0-.064-.414c-.286-.941-.587-1.877-.868-2.82-1.1-3.709-2.362-7.363-3.807-10.951a63.478,63.478,0,0,0-3.547-7.54,23.743,23.743,0,0,0-5.719-7.154,27.467,27.467,0,0,0-8.083-4.463,28.136,28.136,0,0,0-6.818-1.452,14.488,14.488,0,0,0-6.688.652,16.724,16.724,0,0,1-5.715,1.021c-2.408.058-4.821.081-7.235-.049-2-.107-4-.16-6-.221-1.351-.041-2.705-.012-4.061.062a19.677,19.677,0,0,0-4.979,1.043,34.415,34.415,0,0,0-6.583,3.067,11.136,11.136,0,0,0-2.317,1.625c-.526.927-1.04,1.861-1.585,2.776-.155.26-.346.2-.44-.091" transform="translate(-19.42 -60.517)" fill="#b49280"/>
    <path id="Trazado_818902" data-name="Trazado 818902" d="M48.916,64.619a15.071,15.071,0,0,0,11.117-4.641,17.63,17.63,0,0,0,3.161-4.723,14.493,14.493,0,0,0,1.25-4.594,15.215,15.215,0,0,0-1.312-8.174,15.3,15.3,0,0,0-11.559-8.971,14.159,14.159,0,0,0-3.611-.208c-.888.1-1.765.286-2.648.424a12.865,12.865,0,0,0-5.368,2.288,15.414,15.414,0,0,0-5.969,7.965,11.494,11.494,0,0,0-.6,4.349c.018.311-.178.58-.153.9a21.626,21.626,0,0,0,.469,3.211,15.986,15.986,0,0,0,2.542,5.906,2.127,2.127,0,0,0,1.163.9A22.493,22.493,0,0,1,44.143,62.5a16.662,16.662,0,0,1,2,1.614,2.152,2.152,0,0,0,1.455.5c.438.035.881.007,1.321.007" transform="translate(27.41 -19.143)" fill="#ffd85d"/>
    <path id="Trazado_818903" data-name="Trazado 818903" d="M45.5,108.442a11.118,11.118,0,0,1,2.317-1.625A34.391,34.391,0,0,1,54.4,103.75a19.715,19.715,0,0,1,4.979-1.043c1.356-.074,2.71-.1,4.061-.062,2,.061,4.006.114,6,.221,2.414.13,4.826.107,7.235.049a16.734,16.734,0,0,0,5.715-1.02,14.482,14.482,0,0,1,6.688-.652A28.136,28.136,0,0,1,95.9,102.7a27.464,27.464,0,0,1,8.083,4.463,23.737,23.737,0,0,1,5.719,7.154,63.478,63.478,0,0,1,3.547,7.54c1.445,3.588,2.705,7.243,3.807,10.951.28.943.582,1.879.868,2.821a2.839,2.839,0,0,1,.064.414c.384-.124.763-.273,1.155-.365.435-.1.5-.346.408-.74-.7-2.872-1.458-5.727-2.363-8.542-.716-2.228-1.456-4.448-2.355-6.611a67.945,67.945,0,0,0-6.17-11.812,22.855,22.855,0,0,0-11.568-8.859,17.267,17.267,0,0,0-4.341-.838,15.34,15.34,0,0,0-2.471-.078A11.777,11.777,0,0,0,87,98.579a3.379,3.379,0,0,1-.965.1c-1.324.047-2.6.458-3.926.48a13.028,13.028,0,0,0-2.453.331,9.019,9.019,0,0,1-1.5.15c-1.738.069-3.467.264-5.212.268-2.7.006-5.38-.177-8.061-.426-.785-.073-1.576-.092-2.364-.13s-1.577-.1-2.365-.1a20.68,20.68,0,0,0-7.283,1.274,12.569,12.569,0,0,0-5.417,4.1,25.917,25.917,0,0,0-2.81,4.145l.348.025.506-.346" transform="translate(-32.476 -56.5)" fill="#d0b4a2"/>
    <path id="Trazado_818904" data-name="Trazado 818904" d="M152.216,203.06a42.242,42.242,0,0,0,1.774,4.1,84.17,84.17,0,0,1,4.4,10.728c.309.93.309.93,1.323.93,1.18,0,2.361,0,3.542,0,.216,0,.511.116.626-.138.1-.223-.126-.418-.237-.611a30.506,30.506,0,0,1-1.7-2.961c-.95-2.177-2.217-4.208-2.99-6.468a5.87,5.87,0,0,1-.315-3.707c.584-1.948.972-3.95,1.593-5.889.108-.338.043-.487-.307-.526-1.343-.151-2.641-.539-3.967-.779-.6-.108-.625-.1-.707.542a1.1,1.1,0,0,1,.031.955,6.937,6.937,0,0,1-3.06,3.824" transform="translate(-122.448 -113.776)" fill="#7b6355"/>
    <path id="Trazado_818905" data-name="Trazado 818905" d="M183.97,193.139a8.156,8.156,0,0,0,3.509-.671,4.283,4.283,0,0,0,2.769-2.588c.159-.415.112-.593-.342-.772-2.374-.936-4.748-1.879-7.024-3.037-.829-.422-1.607-.947-2.4-1.44-.348-.217-.492-.142-.64.245a43.388,43.388,0,0,0-1.715,5.318.821.821,0,0,0,.265.891,7.446,7.446,0,0,0,5.577,2.054" transform="translate(-159.862 -106.193)" fill="#d0b4a2"/>
    <path id="Trazado_818906" data-name="Trazado 818906" d="M80.447,224.716c.124,0,.247,0,.37,0,1.116-.014,1.108.188,1.027-1.1a61.71,61.71,0,0,0-2.44-13.7,1.889,1.889,0,0,0-1.633-1.5,9.681,9.681,0,0,1-1.352-.436c-.35-.123-.395.015-.338.328.451,2.483.887,4.969,1.339,7.452.514,2.828,1.052,5.652,1.549,8.483.069.4.222.5.58.483.3-.018.6,0,.9,0Z" transform="translate(-8.098 -119.672)" fill="#7b6355"/>
    <path id="Trazado_818907" data-name="Trazado 818907" d="M159.334,181.463c-.856.309-1.551.921-2.4,1.255a9.256,9.256,0,0,1-3.055.575c-.5.021-1,.189-1.507.18a29.891,29.891,0,0,1-7.914-1.259,85.536,85.536,0,0,1-10.668-4.028c-.142-.063-.3-.087-.45-.138-1.109-.387-1.108-.388-1.758.566a9.256,9.256,0,0,0,1.891,1.144,47.984,47.984,0,0,0,8.582,3.662,32.084,32.084,0,0,0,6.892,1.453,17.675,17.675,0,0,0,10.492-2.3c.761-.438.734-.635-.11-1.109" transform="translate(-109.782 -102.333)" fill="#7b6355"/>
    <path id="Trazado_818908" data-name="Trazado 818908" d="M41.615,238.645a7.411,7.411,0,0,1-1.758-.247,8.239,8.239,0,0,0-3.732.585,1.688,1.688,0,0,0-.932.733,15.408,15.408,0,0,0,1.684,2.346c.118.159.352.137.548.137,1.322,0,2.644,0,3.965.017.364.006.421-.173.381-.457-.147-1.033-.1-2.076-.156-3.113" transform="translate(49.343 -137.179)" fill="#d0b4a2"/>
    <path id="Trazado_818909" data-name="Trazado 818909" d="M77.189,203.337a3.825,3.825,0,0,0-2.253-1.935c-2.528-1.182-5.121-2.225-7.583-3.548a1.373,1.373,0,0,0-.745-.227,7.863,7.863,0,0,0,.334,1.59c.044.23.287.25.467.288a35.767,35.767,0,0,1,7.015,2.557,21.082,21.082,0,0,0,2.764,1.275" transform="translate(0.602 -113.74)" fill="#7b6355"/>
    <path id="Trazado_818910" data-name="Trazado 818910" d="M172.669,203.864a6.937,6.937,0,0,0,3.06-3.824,1.1,1.1,0,0,0-.031-.955c-.359.452-.547,1-.888,1.472a7.679,7.679,0,0,1-1.941,1.818c-.666.453-.677.447-.335,1.153.053.109.091.224.136.336" transform="translate(-142.901 -114.58)" fill="#b49280"/>
    <path id="Trazado_818911" data-name="Trazado 818911" d="M62.161,218.631a13.418,13.418,0,0,0-1.479-4.375,1.134,1.134,0,0,0-.4-.41c-.161.187-.025.386.029.541a26.892,26.892,0,0,0,1.627,4.039c.052.1.1.185.219.2" transform="translate(18.346 -123.076)" fill="#7b6355"/>
    <path id="Trazado_818912" data-name="Trazado 818912" d="M221.22,122.371l-.506.346c-.2.278-.253.7-.711.715a6.559,6.559,0,0,0-.809,1.626c.095.287.285.351.44.091.545-.916,1.059-1.85,1.585-2.777" transform="translate(-208.197 -70.429)" fill="#7b6355"/>
    <path id="Trazado_818913" data-name="Trazado 818913" d="M33.907,190.241c-.054.467.12.693.624.737a4.686,4.686,0,0,0,1.545.146c-.414-.6-1.127-.558-1.708-.8a2.237,2.237,0,0,0-.461-.086" transform="translate(55.599 -109.49)" fill="#7b6355"/>
    <path id="Trazado_818914" data-name="Trazado 818914" d="M220.387,123.867c.457-.019.514-.437.711-.714l-.348-.025c-.209.2-.211.508-.363.739" transform="translate(-208.58 -70.864)" fill="#b49280"/>
    <path id="Trazado_818915" data-name="Trazado 818915" d="M133.2,185.919l.093.115-.093-.115" transform="translate(-83.77 -107.003)" fill="#7b6355"/>
    <path id="Trazado_818916" data-name="Trazado 818916" d="M31.71,253.025a.073.073,0,0,0,.122-.008l-.122.008" transform="translate(60.772 -145.62)" fill="#7b6355"/>
    <path id="Trazado_818917" data-name="Trazado 818917" d="M207.2,253.095l.135-.039-.135.039" transform="translate(-189.226 -145.643)" fill="#7b6355"/>
  </g>
</svg>
