<svg xmlns="http://www.w3.org/2000/svg" xmlns:xlink="http://www.w3.org/1999/xlink" width="162.538" height="162.621" viewBox="0 0 162.538 162.621">
  <defs>
    <clipPath id="clip-path">
      <rect id="Rectángulo_376990" data-name="Rectángulo 376990" width="162.538" height="162.621" fill="none"/>
    </clipPath>
  </defs>
  <g id="Grupo_1072882" data-name="Grupo 1072882" transform="translate(-10)">
    <g id="Grupo_1072579" data-name="Grupo 1072579" transform="translate(10)" clip-path="url(#clip-path)">
      <path id="Trazado_818387" data-name="Trazado 818387" d="M162.492,115.445c.011,1.586,0,3.173.046,4.759.015.532-.3.442-.6.441-3.174,0-6.348.009-9.522,0-1.331-.006-2.6.446-3.917.506-1.025.047-2.005.392-3.021.532-.82.113-1.67.527-2.534.739-1.663.408-3.332.781-5,1.153-1.31.291-2.631.672-3.931,1.071-.42.129-.373.428-.373.752q.023,9.8.036,19.6c0,1.748,0,1.742-1.707,1.742q-15.79,0-31.579-.02c-.632,0-.724.2-.721.76.022,4.761,0,9.522.03,14.283.005.671-.171.8-.819.8q-48.521-.026-97.042-.026a5.609,5.609,0,0,1-1.5.032c-.274-.071-.343-.151-.329-.4.012-.211,0-.423,0-.634V16.96c0-1.133,0-1.132,1.116-1.134q16.106-.036,32.213-.059c.624,0,.779-.13.776-.771-.02-4.734.023-9.469.006-14.2,0-.64.171-.791.792-.79Q48.794.033,62.68.018,97.673.018,132.665,0c.781,0,1,.162,1,.984q-.022,43.246-.013,86.492c0,.986.75,1.126,1.272,1.5,1.4,1.007,2.86,1.931,4.292,2.9,1.382.932,2.683,2.036,4.384,2.344a13.6,13.6,0,0,0,2.362.166c3.941.014,7.882,0,11.823.005,1.4,0,2.8.049,4.2.064.325,0,.556.028.55.458-.022,1.589-.016,3.178-.02,4.766q-8.725.009-17.451.009a8.393,8.393,0,0,1-1.866-.207,17.785,17.785,0,0,1-5.9-2.652c-2.729-1.831-5.486-3.62-8.223-5.441-2.583-1.719-5.21-3.381-7.716-5.207a10.135,10.135,0,0,0-6.968-2.22.67.67,0,0,0-.719.611c-.593,2.222-1.177,4.447-1.824,6.654-.164.558.036.718.486.829a8.361,8.361,0,0,1,2.139.741,7.774,7.774,0,0,1-3.255,14.632c-8.354.161-16.713.065-25.069.072-1.321,0-2.643-.022-3.965-.034-.4-.279-.4-.279-.539.083a6.925,6.925,0,0,0-3.567.972,7.739,7.739,0,0,0-3.836,5.66c-.171,1.172-.234,1.186.878,1.185,5.181,0,10.363-.037,15.544,0a83.583,83.583,0,0,1,10.635.325,51.29,51.29,0,0,1,8.429,1.846,59.637,59.637,0,0,0,9.82,2.683,45.029,45.029,0,0,0,8.821.221,38.9,38.9,0,0,0,6.563-1.308c5.949-1.429,11.8-3.311,17.992-3.611,3.2-.155,6.378-.146,9.568-.079M89.469,83.938a.3.3,0,0,0-.376.022,7.9,7.9,0,0,0-6.17,2.685c-1.6,1.631-3.158,3.3-4.817,4.867-1.843,1.745-3.6,3.58-5.4,5.376q-4.065,4.071-8.128,8.143a2.885,2.885,0,0,0-.3,3.964,2.806,2.806,0,0,0,3.9.637,6.047,6.047,0,0,0,1.039-.853c1.529-1.515,3.039-3.048,4.563-4.567,2.809-2.8,5.6-5.618,8.444-8.388a12.433,12.433,0,0,1,7.7-3.767c.623-.056,1.267-.078,1.471-1.041.462-2.18,1.114-4.32,1.686-6.477.057-.215.215-.45-.073-.628A5.492,5.492,0,0,0,91.3,83.9l-.384,0-.05-.031-.049.032-1.349.038M39.39,18.432a14.643,14.643,0,0,0-.011,1.745c.072.676-.168.81-.816.808-7.3-.025-14.6-.016-21.9-.016-3.6,0-7.195.011-10.793-.013-.543,0-.755.136-.733.694.039.951.033,1.9.033,2.855q0,38.361.006,76.723,0,27.729-.005,55.458c0,.739.386.646.842.646q29.757,0,59.515.011c9.39,0,18.78-.026,28.17-.021.54,0,.738-.1.7-.686-.064-.895-.024-1.8-.023-2.7q0-8.61.011-17.221c0-.227.1-.547-.268-.531a7.229,7.229,0,0,0-2.237.243c-.379.146-.34.905-.453,1.4-.1.426-.21.849-.315,1.273-.08.323-.164.417-.588.329-.982-.206-1.925-.546-2.918-.724-1.6-.287-1.715-.595-1.119-2.1.481-1.218.355-1.6-.713-2.358a6.9,6.9,0,0,1-.721-.723,9.656,9.656,0,0,1-3.115-6.7c-.071-1.886.724-3.662,1.149-5.481.146-.625.061-.719-.512-.713-1.693.02-3.386.008-5.079.008a29.025,29.025,0,0,1-3.876-.031,5.588,5.588,0,0,1-4.7-4.964c-.052-.519-.2-.623-.649-.553a9.649,9.649,0,0,1-3.526-.085,7.678,7.678,0,0,1-5.963-5.553,7.445,7.445,0,0,1,1.623-7.424c1.288-1.548,2.822-2.86,4.208-4.315.166-.175.548-.3.415-.586-.117-.251-.479-.134-.732-.135-2.83-.009-5.661-.026-8.491.006-.611.007-.762-.167-.736-.76.052-1.161.057-2.329,0-3.49-.037-.743.157-1,.951-.988,4.523.047,9.047.036,13.57.041a1.612,1.612,0,0,0,1.319-.364c1.423-1.456,2.874-2.885,4.305-4.335a.609.609,0,0,0,.268-.678c-1.018,0-2.064,0-3.109,0-4.787-.02-9.574-.079-14.361.03.053-.115.063-.33-.017-.311-.161.038-.476-.032-.433.315-.581.01-1.164-.012-1.742.038-.541.048-.761-.1-.735-.686.052-1.161.045-2.324.038-3.486-.007-1.048-.022-1.049.994-1.049q12.248,0,24.5,0a1.392,1.392,0,0,0,.974-.2,11.882,11.882,0,0,1,6.37-2.3c1.914-.176,3.852-.088,5.779-.084.5,0,.79-.076.611-.654.1-.073.1-.141-.011-.2.017-.236.047-.472.048-.707q.028-27.6.073-55.2c0-.825-.227-.988-1-.986q-23.156.033-46.313.006a17.037,17.037,0,0,0-2.208,0c-.146.018-.516.023-.426-.175.361-.79-.275-1.58.067-2.347,0-.529.022-1.058-.007-1.586-.069-1.252-.013-1.09,1.112-1.09q24.239,0,48.479.008c1.507,0,3.015.018,4.522,0,.711-.01,1.033.125,1.03,1q-.059,20.63-.034,41.26v1.729a12.529,12.529,0,0,0,.752-2.246c1.153-4.345,2.273-8.7,3.47-13.031,1.1-3.981,2.011-8.015,3.318-11.937a8.41,8.41,0,0,1,4.5-5.225c3.842-1.773,9.408-1.359,12.454,2.352a8.745,8.745,0,0,1,2.177,5.341,22.536,22.536,0,0,1-1.243,6.935c-1.053,3.7-1.968,7.436-2.96,11.152-1.044,3.917-2.109,7.828-3.166,11.743q-1.674,6.2-3.351,12.406c-.122.45-.452.977-.318,1.329.171.446.876-.01,1.276.3.053.041.152.029.23.032a11.893,11.893,0,0,1,5.972,2.089q2.355,1.535,4.676,3.123a.884.884,0,0,0,.806.166c.292-.1.132-.409.138-.619.027-1.03.038-2.059.038-3.089q0-37.174.011-74.348c0-.739-.142-1-.936-.989-2.855.031-5.711-.034-8.566-.034q-30.347,0-60.7.02-9.124,0-18.247.037c-.335,0-.653-.092-.649.484.033,4.231.029,8.462.038,12.693M113.97,141.6c4.572,0,9.145-.007,13.717.01.5,0,.734-.05.734-.658q-.011-7.292.061-14.584c.005-.547-.172-.649-.671-.651-2.394-.015-4.783.125-7.183-.121a39.27,39.27,0,0,1-8.2-1.775c-2.666-.87-5.343-1.694-8.058-2.39a.655.655,0,0,0-.9.56c-.376,1.579-.837,3.137-1.241,4.709-.543,2.108-1.034,4.233-2.467,5.976a1.23,1.23,0,0,0-.211,1.191,2.782,2.782,0,0,1,.118,1c.011,1.982.044,3.966-.013,5.946-.02.7.208.8.834.8,4.493-.027,8.986-.014,13.48-.014M99.625,102.241c1.33,0,2.334-.009,3.339,0,.394.006.594-.09.7-.536.326-1.373.736-2.725,1.1-4.089.962-3.62,1.848-7.262,2.892-10.858,1.036-3.568,1.949-7.168,2.946-10.746,1.021-3.663,1.921-7.36,2.949-11.02.192-.682-.037-.811-.552-.981-2.518-.834-5.039-1.661-7.537-2.553-.579-.207-.711-.037-.866.452-.513,1.624-.9,3.282-1.38,4.917-1.03,3.542-1.892,7.132-2.852,10.695-.834,3.1-1.8,6.159-2.543,9.274-.707,2.95-1.613,5.843-2.324,8.79-.5,2.068-1.156,4.1-1.753,6.139-.069.236-.231.468.185.493a15.5,15.5,0,0,0,2.411.1c1.213-.124,2.414.039,3.288-.077m21.6-66.589a4.2,4.2,0,0,0-2.932-3.914,8.151,8.151,0,0,0-2.255-.129,3.841,3.841,0,0,0-3.86,2.546,55.4,55.4,0,0,0-1.7,5.893c-.508,1.7-.9,3.437-1.449,5.122-.188.573-.051.717.42.872q3.536,1.159,7.064,2.343c1.343.451,1.355.465,1.75-.918.662-2.322,1.333-4.641,1.94-6.978a22.292,22.292,0,0,0,1.021-4.836M91.772,131.117a4.622,4.622,0,0,0,4.878-3.423c.66-2.106.885-4.326,1.722-6.386.187-.458.023-.677-.549-.671-2.83.031-5.66.024-8.49,0a.694.694,0,0,0-.807.637c-.363,1.512-.837,3-1.158,4.519a4.321,4.321,0,0,0,4.4,5.32m24.741-76.856c-.019-.26.042-.566-.246-.557-.45.014-.777-.273-1.181-.373-2.329-.578-4.532-1.544-6.807-2.29-.666-.219-.841-.078-.983.467a30.317,30.317,0,0,1-1.043,3.861c-.342.839-.045.971.6,1.182,2.5.82,4.994,1.647,7.472,2.526.651.231.892.038,1.032-.553.107-.45.264-.886.385-1.332.267-.994.525-1.989.774-2.93m-7.64,47.987c.564,0,1.083-.006,1.6,0,1.954.029,2.741-.846,2.889-2.789a2.564,2.564,0,0,0-2.354-2.485.79.79,0,0,0-.957.662c-.385,1.5-.77,3.009-1.18,4.611m-25.691-.007c1.6,0,3.156,0,4.708,0,.339,0,.46-.094.548-.472.306-1.316.7-2.612,1.062-3.916.049-.177.123-.4-.047-.509-.089-.058-.292.041-.436.09a7.657,7.657,0,0,0-3.093,1.9c-.912.928-1.789,1.891-2.741,2.9" transform="translate(0 0)"/>
      <path id="Trazado_818388" data-name="Trazado 818388" d="M124.476,155.339c1.321.012,2.643.035,3.964.034,8.357-.007,16.716.088,25.07-.073a7.774,7.774,0,0,0,3.255-14.632,8.359,8.359,0,0,0-2.139-.741c-.45-.111-.65-.271-.486-.83.647-2.206,1.232-4.431,1.824-6.653a.669.669,0,0,1,.718-.611,10.133,10.133,0,0,1,6.968,2.22c2.506,1.826,5.132,3.488,7.715,5.206,2.737,1.821,5.494,3.61,8.223,5.441a17.807,17.807,0,0,0,5.9,2.651,8.351,8.351,0,0,0,1.866.206q8.726.014,17.452-.008-.011,7.884-.022,15.768c-3.19-.068-6.373-.076-9.569.078-6.195.3-12.043,2.182-17.991,3.612a38.9,38.9,0,0,1-6.564,1.308,45.07,45.07,0,0,1-8.821-.221,59.594,59.594,0,0,1-9.821-2.683,51.346,51.346,0,0,0-8.428-1.845,83.594,83.594,0,0,0-10.635-.325c-5.181-.041-10.362-.007-15.544,0-1.112,0-1.049-.013-.878-1.185a7.736,7.736,0,0,1,3.836-5.66,6.923,6.923,0,0,1,3.567-.972c.2.1.39.144.539-.083" transform="translate(-42.293 -47.875)" fill="#efcfb3"/>
      <path id="Trazado_818389" data-name="Trazado 818389" d="M97.264,88.457c.18.578-.111.655-.611.654-1.927,0-3.865-.092-5.779.083a11.9,11.9,0,0,0-6.37,2.3,1.385,1.385,0,0,1-.974.2q-12.247.006-24.495,0c-1.016,0-1,0-.994,1.048.008,1.162.014,2.326-.037,3.486-.026.588.195.734.735.687.577-.05,1.161-.029,1.74-.038a.473.473,0,0,0,.452,0c4.786-.11,9.573-.051,14.361-.03,1.045,0,2.091,0,3.108,0a.606.606,0,0,1-.267.677c-1.431,1.449-2.882,2.878-4.305,4.335a1.612,1.612,0,0,1-1.319.364c-4.523-.006-9.047.006-13.57-.042-.795-.008-.988.245-.951.988.057,1.161.052,2.329,0,3.491-.026.593.125.767.735.76,2.83-.033,5.662-.016,8.491-.006.253,0,.616-.116.733.135.132.284-.248.411-.416.585-1.385,1.456-2.92,2.768-4.207,4.316a7.445,7.445,0,0,0-1.623,7.424,7.677,7.677,0,0,0,5.963,5.553,9.649,9.649,0,0,0,3.526.085c.445-.07.6.034.648.553a5.589,5.589,0,0,0,4.7,4.964,29.017,29.017,0,0,0,3.875.031c1.694,0,3.386.011,5.079-.008.573-.007.658.087.512.713-.425,1.819-1.219,3.594-1.149,5.481a9.655,9.655,0,0,0,3.115,6.7,6.849,6.849,0,0,0,.721.723c1.068.761,1.194,1.14.713,2.358-.6,1.507-.482,1.815,1.119,2.1.994.178,1.936.518,2.918.724.424.089.509-.006.588-.329.1-.425.217-.847.315-1.273.113-.494.075-1.254.454-1.4a7.247,7.247,0,0,1,2.237-.244c.365-.016.267.3.267.532q-.006,8.611-.011,17.221c0,.9-.041,1.8.024,2.7.042.588-.155.686-.7.686-9.39-.005-18.78.02-28.17.02q-29.758,0-59.515-.01c-.456,0-.842.092-.842-.646q.027-27.729.005-55.459,0-38.361-.006-76.722c0-.952.006-1.905-.032-2.856-.023-.558.189-.7.732-.694,3.6.025,7.195.013,10.793.013,7.3,0,14.6-.01,21.9.016.649,0,.888-.132.817-.808a14.642,14.642,0,0,1,.01-1.745,19.012,19.012,0,0,1,5.176,0c-.342.767.294,1.558-.066,2.347-.091.2.279.194.425.174a17.15,17.15,0,0,1,2.208,0q23.156.021,46.312-.006c.775,0,1,.161,1,.986q-.068,27.6-.074,55.2c0,.236-.031.471-.047.707-.134-.041-.176.035-.15.144.008.031.1.041.16.06M52.729,155.981a15.366,15.366,0,0,1-.141,2.9c-.01.908-.043.972.932.973q13.686.007,27.372.011c.54,0,.753-.141.741-.709-.028-1.268-.041-2.54.026-3.806.034-.658-.135-.819-.8-.816-6.532.029-13.064.017-19.6.017l-7.855,0c-.337,0-.725-.077-.691.469-.426.327-.432.648.014.963M40.946,125.888c-.287-.027-.573-.076-.86-.076-1.892,0-3.784,0-5.675.009-.02-.686-.059-1.374-.052-2.06,0-.438-.151-.608-.6-.607q-9.839.015-19.678,0c-.509,0-.671.164-.664.7.039,2.7.036,5.4.037,8.093q0,10.872,0,21.743c0,.435-.129.875.628.874q15.115-.032,30.232,0c.409,0,.532-.1.53-.525q-.022-7.3,0-14.6c0-.392-.078-.562-.525-.545-.685.025-1.372-.04-2.058-.067.056-2.245.075-4.491-.019-6.736a51.22,51.22,0,0,1,5.542-5.737c1.565-1.489,3.12-2.99,4.606-4.552a50.427,50.427,0,0,1,4.135-4.09c.428-.356.527-.654.066-1.089q-1.4-1.32-2.724-2.722c-.33-.348-.5-.294-.81.02q-5.589,5.621-11.205,11.213a2.887,2.887,0,0,1-.9.758m.079-44.631L34.4,81.22a12.406,12.406,0,0,1-.024-1.663c.087-.778-.213-.983-.961-.981q-9.719.032-19.438,0c-.546,0-.557.267-.557.69q.024,14.958.01,29.914c0,.723.175.945.926.937,3.887-.038,7.776-.013,11.664-.013q9.085,0,18.17,0c.342,0,.656.092.654-.477q-.031-7.459,0-14.918c0-.387-.111-.509-.492-.474a8.164,8.164,0,0,1-2.056,0c0-1.845,0-3.689,0-5.535a1.412,1.412,0,0,0-.184-.985,15.72,15.72,0,0,1,1.878-2.037q6.368-6.368,12.753-12.72c.223-.221.409-.348.068-.67-1-.943-1.965-1.924-2.924-2.909-.315-.321-.5-.306-.83.02-2.545,2.542-5.11,5.062-7.671,7.586q-2.173,2.141-4.354,4.275m6.461-18.417h33c1.2,0,1.127.275,1.13-1.144q.026-11.741.02-23.483a5.531,5.531,0,0,0-.06-1.023c-.031-.163-.035-.417-.357-.423-.443-.007-.884-.119-1.326-.119q-32.684,0-65.369,0c-1.046,0-1.083-.216-1.083,1.139q.009,11.98,0,23.959c0,1.079-.024,1.079,1.041,1.09.185,0,.37,0,.555,0H47.486m27.5,23.586v.006c5.395,0,10.79-.016,16.185.018.73,0,.918-.251.9-.9-.034-1.189-.056-2.38-.03-3.569.013-.6-.2-.766-.784-.757-2.142.032-4.284.017-6.426.017q-13.011,0-26.022-.015c-.613,0-.848.134-.819.79.052,1.188.054,2.382,0,3.569-.029.645.121.863.811.86,5.395-.029,10.79-.016,16.185-.016m11.757,70.435c0,.978.015,1.719-.007,2.459-.012.415.154.562.56.557,1.374-.019,2.75-.034,4.124-.013.441.007.654-.136.653-.569,0-1.4-.02-2.8-.018-4.2,0-.4-.152-.562-.566-.547-.741.026-1.482,0-2.222.006-.816.007-1.917-.288-2.371.124-.519.472-.1,1.59-.152,2.187" transform="translate(-2.928 -10.412)" fill="#e5e8ed"/>
      <path id="Trazado_818390" data-name="Trazado 818390" d="M67.011,21.4a19.012,19.012,0,0,0-5.176,0c-.008-4.231,0-8.462-.038-12.693,0-.576.315-.483.65-.484q9.124-.019,18.247-.037,30.347-.016,60.7-.02c2.855,0,5.711.066,8.565.034.794-.009.937.25.937.989q-.027,37.174-.012,74.348c0,1.03-.01,2.059-.038,3.089-.005.209.154.52-.138.619a.884.884,0,0,1-.806-.166q-2.319-1.589-4.676-3.123a11.891,11.891,0,0,0-5.972-2.089c-.078,0-.176.008-.23-.032-.4-.306-1.105.149-1.275-.3-.134-.352.2-.879.318-1.329q1.676-6.2,3.352-12.406c1.056-3.914,2.121-7.826,3.166-11.743.991-3.716,1.906-7.453,2.959-11.152a22.556,22.556,0,0,0,1.244-6.935,8.745,8.745,0,0,0-2.177-5.341c-3.046-3.71-8.611-4.125-12.453-2.352a8.409,8.409,0,0,0-4.5,5.225c-1.307,3.922-2.218,7.956-3.317,11.937-1.2,4.333-2.317,8.686-3.47,13.031a12.528,12.528,0,0,1-.752,2.246V60.989q0-20.631.035-41.26c0-.874-.32-1.009-1.031-1-1.507.021-3.014,0-4.522,0q-24.239-.007-48.478-.008c-1.126,0-1.181-.162-1.113,1.09.029.527.006,1.057.007,1.586" transform="translate(-22.447 -2.965)" fill="#cbd0d9"/>
      <path id="Trazado_818391" data-name="Trazado 818391" d="M170.714,210.839c-4.493,0-8.986-.013-13.479.015-.627,0-.855-.1-.835-.8.058-1.981.024-3.965.013-5.947a2.768,2.768,0,0,0-.118-1,1.232,1.232,0,0,1,.211-1.191c1.433-1.744,1.924-3.867,2.467-5.976.4-1.572.865-3.13,1.241-4.708a.655.655,0,0,1,.9-.561c2.715.7,5.392,1.52,8.057,2.39a39.276,39.276,0,0,0,8.2,1.774c2.4.246,4.79.106,7.184.121.5,0,.675.1.67.652q-.066,7.292-.06,14.583c0,.607-.23.66-.733.658-4.573-.017-9.145-.01-13.717-.01" transform="translate(-56.745 -69.243)" fill="#cbd0d9"/>
      <path id="Trazado_818392" data-name="Trazado 818392" d="M153.046,137.251c-.874.116-2.075-.047-3.289.077a15.49,15.49,0,0,1-2.41-.1c-.416-.025-.254-.258-.185-.493.6-2.043,1.255-4.072,1.754-6.139.711-2.948,1.617-5.84,2.324-8.79.748-3.115,1.708-6.179,2.543-9.274.96-3.563,1.822-7.153,2.851-10.695.476-1.635.868-3.293,1.381-4.917.155-.489.287-.659.866-.452,2.5.892,5.019,1.719,7.537,2.553.515.17.744.3.552.981-1.028,3.66-1.928,7.357-2.949,11.019-1,3.578-1.911,7.178-2.946,10.746-1.044,3.6-1.93,7.238-2.892,10.858-.362,1.364-.772,2.716-1.1,4.089-.106.446-.306.542-.7.536-1-.013-2.009,0-3.339,0" transform="translate(-53.42 -35.01)" fill="#ffe706"/>
      <path id="Trazado_818393" data-name="Trazado 818393" d="M127.217,131.754l.384,0a4.318,4.318,0,0,0,1.715.012c.287.178.13.413.073.628-.572,2.157-1.225,4.3-1.686,6.477-.2.963-.848.984-1.471,1.04a12.435,12.435,0,0,0-7.7,3.768c-2.84,2.77-5.635,5.587-8.445,8.388-1.524,1.519-3.034,3.053-4.562,4.568a6.127,6.127,0,0,1-1.039.853,2.806,2.806,0,0,1-3.9-.637,2.884,2.884,0,0,1,.3-3.963q4.059-4.077,8.128-8.143c1.794-1.8,3.553-3.631,5.4-5.376,1.659-1.572,3.22-3.236,4.817-4.867a7.894,7.894,0,0,1,6.17-2.685l.376-.022,1.349-.038c.034.067.067.064.1,0" transform="translate(-36.299 -47.857)" fill="#efcfb3"/>
      <path id="Trazado_818394" data-name="Trazado 818394" d="M183.371,53.674a22.284,22.284,0,0,1-1.021,4.836c-.606,2.336-1.278,4.656-1.94,6.978-.395,1.383-.407,1.369-1.75.918q-3.528-1.183-7.065-2.343c-.471-.155-.607-.3-.42-.872.551-1.685.941-3.421,1.449-5.122a55.4,55.4,0,0,1,1.7-5.893,3.84,3.84,0,0,1,3.86-2.546,8.128,8.128,0,0,1,2.255.129,4.2,4.2,0,0,1,2.932,3.913" transform="translate(-62.146 -18.022)" fill="#ffe706"/>
      <path id="Trazado_818395" data-name="Trazado 818395" d="M141.544,199.93a4.321,4.321,0,0,1-4.4-5.32c.322-1.519.795-3.007,1.158-4.519a.694.694,0,0,1,.807-.637c2.83.02,5.66.027,8.49,0,.572-.007.735.213.549.671-.838,2.059-1.062,4.279-1.723,6.385a4.62,4.62,0,0,1-4.878,3.423" transform="translate(-49.772 -68.814)" fill="#ffe706"/>
      <path id="Trazado_818396" data-name="Trazado 818396" d="M177.039,83.319c-.248.941-.506,1.937-.774,2.93-.12.446-.278.883-.384,1.332-.141.592-.382.785-1.033.554-2.478-.879-4.974-1.707-7.472-2.527-.642-.211-.939-.343-.6-1.182a30.424,30.424,0,0,0,1.044-3.861c.141-.545.316-.686.983-.467,2.275.746,4.478,1.712,6.807,2.29.4.1.73.387,1.18.373.288-.01.227.3.246.557" transform="translate(-60.527 -29.058)" fill="#e5e8ed"/>
      <path id="Trazado_818397" data-name="Trazado 818397" d="M170.976,157.561c.41-1.6.8-3.106,1.179-4.612a.79.79,0,0,1,.957-.662,2.564,2.564,0,0,1,2.354,2.485c-.148,1.943-.935,2.818-2.89,2.789-.518-.008-1.037,0-1.6,0" transform="translate(-62.103 -55.313)" fill="#cbd0d9"/>
      <path id="Trazado_818398" data-name="Trazado 818398" d="M130.631,157.76c.952-1.011,1.829-1.973,2.741-2.9a7.657,7.657,0,0,1,3.093-1.9c.145-.048.347-.148.436-.09.17.11.1.332.047.509-.36,1.3-.756,2.6-1.062,3.916-.088.379-.209.474-.548.472-1.552-.007-3.1,0-4.708,0" transform="translate(-47.449 -55.519)" fill="#e5e8ed"/>
      <path id="Trazado_818399" data-name="Trazado 818399" d="M145.1,131.734a4.334,4.334,0,0,1-1.715-.011,5.5,5.5,0,0,1,1.715.011" transform="translate(-52.08 -47.823)" fill="#fd816d"/>
      <path id="Trazado_818400" data-name="Trazado 818400" d="M90.827,135.6a.47.47,0,0,1-.451,0c-.042-.348.273-.277.434-.315.08-.019.069.2.017.311" transform="translate(-32.826 -49.141)" fill="#fd816d"/>
      <path id="Trazado_818401" data-name="Trazado 818401" d="M128.753,168.65c-.149.227-.339.187-.539.083.14-.363.14-.363.539-.083" transform="translate(-46.571 -61.185)" fill="#fd816d"/>
      <path id="Trazado_818402" data-name="Trazado 818402" d="M148.051,122.441c-.055-.02-.152-.029-.16-.061-.027-.108.015-.185.15-.144.11.063.106.131.01.2" transform="translate(-53.715 -44.396)" fill="#fd816d"/>
      <path id="Trazado_818403" data-name="Trazado 818403" d="M140.289,131.785l-.376.022a.3.3,0,0,1,.376-.022" transform="translate(-50.82 -47.847)" fill="#fd816d"/>
      <path id="Trazado_818404" data-name="Trazado 818404" d="M142.722,131.737c-.032.066-.066.069-.1,0l.05-.032Z" transform="translate(-51.804 -47.839)" fill="#fd816d"/>
      <path id="Trazado_818405" data-name="Trazado 818405" d="M50.555,67.391H18.108c-.185,0-.371,0-.555,0-1.065-.011-1.042-.011-1.041-1.09q.01-11.98,0-23.959c0-1.356.036-1.139,1.083-1.139q32.685,0,65.37-.005c.442,0,.883.113,1.325.12.322.005.327.259.357.422a5.487,5.487,0,0,1,.06,1.024q0,11.742-.02,23.483c0,1.419.071,1.144-1.13,1.144q-16.5,0-33,0M79.362,46.666l.039-.017-.041-.006c-.352-.353-.8-.2-1.2-.2q-27.769-.017-55.539-.025c-.634,0-.879.16-.876.838.02,4.338,0,8.675-.006,13.012,0,1.86-.011,1.859,1.841,1.86l52.921,0c.793,0,1.587-.012,2.38.006.361.009.518-.085.516-.485q-.031-7.494-.034-14.988" transform="translate(-5.997 -14.961)"/>
      <path id="Trazado_818406" data-name="Trazado 818406" d="M45.35,122.7a8.158,8.158,0,0,0,2.055,0c.381-.034.494.088.493.474q-.018,7.459,0,14.918c0,.569-.312.477-.653.477q-9.085,0-18.17,0c-3.888,0-7.776-.025-11.664.013-.751.008-.927-.215-.925-.937q.025-14.957-.01-29.914c0-.423.011-.691.557-.69q9.719.022,19.438,0c.748,0,1.048.2.961.981a12.513,12.513,0,0,0,.024,1.663c-.006.607-.045,1.216-.01,1.822.033.577-.15.779-.759.776-4.708-.02-9.416.008-14.124-.02-.656,0-.866.144-.864.816q.032,9.681,0,19.36c0,.607.169.84.809.839q9.759-.019,19.518.013c.553,0,.692-.149.683-.732-.05-3.041-.029-6.082-.046-9.124,0-.5.188-.722.7-.711.66.014,1.32-.016,1.98-.027" transform="translate(-5.986 -38.882)"/>
      <path id="Trazado_818407" data-name="Trazado 818407" d="M45.31,192.719c.686.027,1.374.092,2.057.066.448-.017.526.153.525.545q-.013,7.3,0,14.6c0,.421-.122.525-.531.525q-15.116-.017-30.232,0c-.757,0-.628-.439-.628-.874q0-10.872,0-21.743c0-2.7,0-5.4-.036-8.093-.008-.534.154-.7.663-.7q9.84.011,19.679,0c.451,0,.606.17.6.608-.007.686.032,1.373.052,2.059-.011.581-.055,1.163-.023,1.741.034.608-.169.844-.807.841-4.708-.022-9.415,0-14.122-.029-.637,0-.816.182-.815.8q.022,9.682-.007,19.362c0,.61.165.9.806.831a7.329,7.329,0,0,1,.793,0c6.268,0,12.537,0,18.806.016.551,0,.647-.169.639-.685-.045-3.067-.041-6.135-.071-9.2-.005-.494.194-.64.667-.626.659.019,1.319-.029,1.979-.048" transform="translate(-5.982 -64.31)"/>
      <path id="Trazado_818408" data-name="Trazado 818408" d="M48.329,124.21c-.66.011-1.321.041-1.98.027-.513-.011-.7.207-.7.711.017,3.042,0,6.084.046,9.124.01.583-.13.734-.683.732q-9.759-.027-19.518-.013c-.64,0-.811-.232-.809-.839q.024-9.681,0-19.36c0-.672.208-.82.864-.816,4.708.029,9.415,0,14.124.02.609,0,.792-.2.759-.776-.034-.606,0-1.215.01-1.822l6.624.038c-3.677,4.008-7.677,7.7-11.43,11.631-.31.325-.557.273-.856-.038-.8-.839-1.637-1.65-2.45-2.48-.314-.321-.6-.49-.993-.09-.939.964-1.886,1.921-2.85,2.86-.3.3-.255.49.021.765q3.123,3.095,6.226,6.211c.341.341.571.4.965,0q5.549-5.6,11.145-11.155a6.154,6.154,0,0,1,1.3-1.252,1.412,1.412,0,0,1,.185.985c.005,1.845,0,3.69,0,5.535" transform="translate(-8.964 -40.39)" fill="#54b239"/>
      <path id="Trazado_818409" data-name="Trazado 818409" d="M48.288,194.236c-.66.019-1.32.067-1.979.048-.472-.014-.672.132-.667.627.029,3.067.026,6.135.071,9.2.008.516-.088.686-.639.685-6.269-.02-12.538-.015-18.806-.016a7.333,7.333,0,0,0-.793,0c-.641.069-.807-.221-.806-.831q.03-9.681.007-19.362c0-.618.178-.8.815-.8,4.707.029,9.415.008,14.122.029.638,0,.842-.233.807-.841-.032-.578.012-1.16.023-1.741,1.892,0,3.784-.011,5.676-.009.287,0,.572.05.859.076a2.659,2.659,0,0,1-.707.842q-5.276,5.291-10.55,10.584c-.369.372-.62.478-1.021.045-.735-.8-1.525-1.539-2.275-2.32-.406-.422-.735-.6-1.2-.03s-1.043,1.048-1.566,1.57c-.5.5-1.34.967-1.395,1.512-.066.66.895,1.056,1.4,1.573,1.659,1.7,3.36,3.367,5.048,5.044.26.259.469.521.88.1,1.9-1.951,3.826-3.87,5.749-5.8q3.462-3.466,6.931-6.924c.094,2.245.075,4.491.019,6.736" transform="translate(-8.96 -65.826)" fill="#54b239"/>
      <path id="Trazado_818410" data-name="Trazado 818410" d="M50.317,180.567q-3.465,3.462-6.931,6.924c-1.923,1.926-3.852,3.845-5.749,5.8-.411.423-.619.162-.88-.1-1.687-1.677-3.388-3.34-5.048-5.044-.5-.517-1.465-.913-1.4-1.573.055-.545.9-1.014,1.395-1.512.523-.523,1.1-1,1.567-1.571s.8-.392,1.2.03c.751.781,1.54,1.524,2.275,2.32.4.433.651.327,1.021-.045q5.262-5.3,10.55-10.584a2.652,2.652,0,0,0,.707-.842,2.883,2.883,0,0,0,.9-.758q5.61-5.6,11.2-11.214c.312-.313.481-.367.81-.019q1.324,1.4,2.725,2.722c.46.434.362.733-.066,1.089a50.233,50.233,0,0,0-4.136,4.09c-1.486,1.561-3.041,3.063-4.606,4.552a51.217,51.217,0,0,0-5.542,5.737" transform="translate(-11.008 -58.893)"/>
      <path id="Trazado_818411" data-name="Trazado 818411" d="M50.192,110.8a6.169,6.169,0,0,0-1.3,1.252q-5.587,5.564-11.146,11.155c-.394.4-.624.339-.964,0q-3.1-3.115-6.226-6.211c-.277-.274-.324-.469-.021-.764.963-.939,1.91-1.9,2.85-2.86.39-.4.678-.231.993.09.813.83,1.645,1.641,2.45,2.48.3.311.546.364.856.038,3.753-3.934,7.753-7.624,11.43-11.631q2.177-2.138,4.353-4.275c2.562-2.524,5.128-5.044,7.671-7.586.327-.327.516-.341.83-.02.96.984,1.924,1.966,2.924,2.908.342.322.155.449-.067.671Q58.44,102.4,52.07,108.764a15.72,15.72,0,0,0-1.878,2.037" transform="translate(-11.015 -33.502)"/>
      <path id="Trazado_818412" data-name="Trazado 818412" d="M103.463,116.406c-5.395,0-10.79-.013-16.185.016-.69,0-.841-.215-.812-.86.053-1.188.052-2.382,0-3.569-.029-.655.206-.792.819-.79q13.011.029,26.023.015c2.142,0,4.285.015,6.426-.017.583-.009.8.16.785.758-.027,1.189-.005,2.38.029,3.569.018.651-.171.907-.9.9-5.395-.035-10.79-.019-16.185-.019Z" transform="translate(-31.406 -40.391)"/>
      <path id="Trazado_818413" data-name="Trazado 818413" d="M78.112,226.815c-.034-.546.354-.469.691-.469l7.855,0c6.532,0,13.065.011,19.6-.017.667,0,.836.158.8.816-.066,1.266-.053,2.538-.026,3.806.013.568-.2.709-.741.709q-13.686-.021-27.372-.011c-.976,0-.942-.066-.932-.973a15.374,15.374,0,0,0,.14-2.9,2.355,2.355,0,0,0-.013-.962" transform="translate(-28.325 -82.208)"/>
      <path id="Trazado_818414" data-name="Trazado 818414" d="M131.562,228.614c.056-.6-.367-1.715.152-2.187.454-.413,1.555-.117,2.371-.124.74-.007,1.481.02,2.222-.006.415-.015.567.144.566.547,0,1.4.013,2.8.018,4.2,0,.433-.212.576-.653.569-1.374-.021-2.75-.006-4.124.013-.406.005-.572-.142-.56-.557.022-.74.007-1.481.007-2.459" transform="translate(-47.747 -82.164)"/>
      <path id="Trazado_818415" data-name="Trazado 818415" d="M78,227.093a2.355,2.355,0,0,1,.013.962c-.446-.315-.439-.635-.013-.962" transform="translate(-28.216 -82.486)" fill="#cbd0d9"/>
      <path id="Trazado_818416" data-name="Trazado 818416" d="M82.343,49.646q.014,7.493.034,14.988c0,.4-.155.494-.516.486-.793-.018-1.587-.006-2.38-.007l-52.921,0c-1.852,0-1.845,0-1.841-1.859.01-4.338.026-8.675.006-13.012,0-.679.242-.839.876-.838q27.769.023,55.539.025c.4,0,.85-.154,1.2.2v.024m-36.6,9.684a33.651,33.651,0,0,1,.019-4.352c.013-.013.038-.032.035-.038a.749.749,0,0,0-.056-.087c-.139-.072-.276-.2-.418-.208a27.05,27.05,0,0,0-4.631.122c-.308.039-.282.259-.281.467q0,2.015.013,4.03c0,.394.118.629.595.62,1.37-.026,2.74-.017,4.11-.006.329,0,.573-.054.6-.437l.052-.018-.043-.094m31.411-4.492a19.568,19.568,0,0,0-4.8-.209c-.38-.011-.549.176-.543.59q.032,2.063,0,4.126c-.008.421.129.544.542.537,1.559-.029,3.12-.027,4.68-.036l0,0a1.379,1.379,0,0,0,.12-.835c.005-1.384.016-2.768.025-4.152l.02-.031Zm-21.072,5h0a1.908,1.908,0,0,0,.085-.851q.011-2,.027-4.005l.058-.022-.065-.092c-.108-.073-.211-.2-.323-.209-1.527-.094-3.055-.075-4.582-.018-.325.012-.424.213-.421.534q.022,2.1,0,4.193c0,.358.078.518.477.51,1.581-.029,3.163-.03,4.744-.041m10.66-4.973c-1.7-.55-3.421-.2-5.134-.087-.25.016-.234.246-.233.429q.008,2.057.019,4.114c0,.437.226.569.654.56,1.266-.024,2.534-.053,3.8.01.749.037.866-.281.856-.922-.021-1.344.026-2.688.046-4.032a.045.045,0,0,0-.006-.072m-34.22,5.008c.711,0,1.423-.01,2.134,0,.342.007.558-.071.555-.47q-.015-2.134-.01-4.268c0-.378-.2-.52-.539-.52q-2.095,0-4.189,0c-.366,0-.573.129-.565.562.022,1.4.026,2.794,0,4.19-.009.45.18.52.56.508.685-.022,1.37-.006,2.056-.008" transform="translate(-8.979 -17.94)" fill="#efcfb3"/>
      <path id="Trazado_818417" data-name="Trazado 818417" d="M115.212,49.778v-.023l.041.006Z" transform="translate(-41.848 -18.072)" fill="#fd816d"/>
      <path id="Trazado_818418" data-name="Trazado 818418" d="M35.485,62.861c-.685,0-1.371-.016-2.056.006-.38.012-.569-.057-.56-.508.027-1.4.024-2.794,0-4.189-.008-.433.2-.562.565-.562q2.095-.006,4.189,0c.341,0,.54.142.539.52q-.006,2.134.01,4.269c0,.4-.213.476-.555.469-.711-.015-1.423,0-2.134,0" transform="translate(-11.939 -20.924)"/>
      <path id="Trazado_818419" data-name="Trazado 818419" d="M87.66,57.894c-.019,1.344-.067,2.688-.045,4.032.01.641-.108.959-.856.922-1.263-.062-2.532-.034-3.8-.01-.427.008-.651-.124-.654-.56q-.011-2.057-.018-4.114c0-.183-.018-.413.232-.429,1.713-.11,3.432-.463,5.133.085-.016.008-.041.012-.045.025s0,.039.006.059l.045-.01" transform="translate(-29.889 -20.893)"/>
      <path id="Trazado_818420" data-name="Trazado 818420" d="M71.109,57.956q-.013,2-.027,4.005a1.887,1.887,0,0,1-.085.85c-1.582.011-3.163.011-4.745.041-.4.008-.481-.152-.477-.51q.024-2.1,0-4.193c0-.32.1-.522.42-.534,1.528-.057,3.056-.076,4.583.018.111.007.216.137.323.209l-.034.059Z" transform="translate(-23.892 -20.91)"/>
      <path id="Trazado_818421" data-name="Trazado 818421" d="M104.035,57.827c-.009,1.384-.02,2.767-.025,4.152a1.379,1.379,0,0,1-.12.835l0,0c-1.56.009-3.12.007-4.68.036-.413.008-.55-.116-.542-.537q.037-2.063,0-4.126c-.006-.415.163-.6.543-.59a19.559,19.559,0,0,1,4.8.208l.018.026" transform="translate(-35.84 -20.903)"/>
      <path id="Trazado_818422" data-name="Trazado 818422" d="M54.716,57.951A33.642,33.642,0,0,0,54.7,62.3c-.015.008-.045.02-.044.025a.7.7,0,0,0,.034.089c-.032.382-.276.439-.6.436-1.37-.011-2.74-.02-4.11.006-.476.01-.593-.226-.595-.62q-.009-2.014-.013-4.03c0-.209-.027-.428.281-.467a27.116,27.116,0,0,1,4.631-.122c.142.006.278.136.417.207-.014.015-.041.037-.038.043a.53.53,0,0,0,.06.082" transform="translate(-17.93 -20.913)"/>
      <path id="Trazado_818423" data-name="Trazado 818423" d="M57.735,58.093a.531.531,0,0,1-.06-.082c0-.006.024-.029.038-.043a.742.742,0,0,1,.057.089c0,.005-.022.024-.035.037" transform="translate(-20.949 -21.056)" fill="#fd816d"/>
      <path id="Trazado_818424" data-name="Trazado 818424" d="M74.128,58.113l-.041-.055L74.121,58c.021.031.043.062.064.092l-.058.022" transform="translate(-26.91 -21.067)" fill="#fd816d"/>
      <path id="Trazado_818425" data-name="Trazado 818425" d="M90.693,58.064l-.045.01c0-.02-.013-.042-.006-.059s.029-.017.045-.025a.046.046,0,0,1,.006.073" transform="translate(-32.923 -21.064)" fill="#fd816d"/>
      <path id="Trazado_818426" data-name="Trazado 818426" d="M57.7,65.112a.665.665,0,0,1-.035-.089s.029-.017.045-.025c.014.032.029.064.043.1l-.052.018" transform="translate(-20.947 -23.609)" fill="#fd816d"/>
      <path id="Trazado_818427" data-name="Trazado 818427" d="M107.084,57.969l-.018-.026.038,0Z" transform="translate(-38.889 -21.045)" fill="#fd816d"/>
      <path id="Trazado_818428" data-name="Trazado 818428" d="M106.871,65.812l0,0,0,0" transform="translate(-38.817 -23.905)" fill="#fd816d"/>
    </g>
  </g>
</svg>
