<svg id="Grupo_1072800" data-name="Grupo 1072800" xmlns="http://www.w3.org/2000/svg" xmlns:xlink="http://www.w3.org/1999/xlink" width="112.264" height="100.619" viewBox="0 0 112.264 100.619">
  <defs>
    <clipPath id="clip-path">
      <rect id="Rectángulo_377187" data-name="Rectángulo 377187" width="112.264" height="100.619" fill="none"/>
    </clipPath>
    <clipPath id="clip-path-2">
      <rect id="Rectángulo_377174" data-name="Rectángulo 377174" width="112.263" height="100.619" fill="none"/>
    </clipPath>
    <clipPath id="clip-path-3">
      <path id="Trazado_818945" data-name="Trazado 818945" d="M0,43.911c-.013,4.446,2.921,8.9,8.795,12.287,11.67,6.738,30.53,6.738,42.121,0,5.76-3.347,8.643-7.727,8.653-12.114l.021-6.308c-.013,4.387-2.9,8.769-8.653,12.116-11.591,6.739-30.455,6.739-42.121,0C2.939,46.5,0,42.05.018,37.606Z" transform="translate(0 -37.606)" fill="none"/>
    </clipPath>
    <clipPath id="clip-path-5">
      <path id="Trazado_818954" data-name="Trazado 818954" d="M1.639,38.447c-.01,4.046,2.66,8.1,8,11.183,10.622,6.132,27.788,6.132,38.343,0,5.242-3.046,7.866-7.035,7.876-11.027l.016-2.872c-.01,3.995-2.633,7.982-7.876,11.028-10.555,6.132-27.722,6.132-38.343,0-5.345-3.086-8.014-7.138-8-11.183Z" transform="translate(-1.639 -35.577)" fill="none"/>
    </clipPath>
    <clipPath id="clip-path-7">
      <path id="Trazado_818963" data-name="Trazado 818963" d="M2.638,36.5c-.011,3.8,2.5,7.61,7.523,10.511,9.983,5.765,26.122,5.765,36.036,0,4.929-2.864,7.4-6.61,7.405-10.365l.015-2.7c-.01,3.755-2.477,7.5-7.4,10.364-9.92,5.765-26.055,5.765-36.038,0-5.024-2.9-7.533-6.708-7.523-10.509Z" transform="translate(-2.638 -33.806)" fill="none"/>
    </clipPath>
    <clipPath id="clip-path-9">
      <rect id="Rectángulo_377178" data-name="Rectángulo 377178" width="33.59" height="19.456" fill="none"/>
    </clipPath>
    <clipPath id="clip-path-10">
      <rect id="Rectángulo_377177" data-name="Rectángulo 377177" width="33.589" height="19.456" fill="none"/>
    </clipPath>
    <clipPath id="clip-path-11">
      <path id="Trazado_818967" data-name="Trazado 818967" d="M11.142,28.687c-1.056,2.07-.74,4.839,1.2,7.809A24.277,24.277,0,0,0,32,46.441c3.476-.2,5.855-1.562,6.9-3.606l2.149-4.214c-1.042,2.044-3.428,3.406-6.9,3.606A24.27,24.27,0,0,1,14.49,32.278c-1.938-2.968-2.256-5.735-1.2-7.805Z" transform="translate(-10.546 -24.473)" fill="none"/>
    </clipPath>
    <clipPath id="clip-path-13">
      <path id="Trazado_818970" data-name="Trazado 818970" d="M13.136,27.062c-.991,1.948-.692,4.552,1.13,7.347A22.819,22.819,0,0,0,32.741,43.76c3.265-.189,5.507-1.469,6.485-3.391l3.58-7.02c-.98,1.92-3.216,3.2-6.483,3.391a22.826,22.826,0,0,1-18.476-9.352C16.024,24.6,15.724,22,16.718,20.042Z" transform="translate(-12.578 -20.042)" fill="none"/>
    </clipPath>
    <clipPath id="clip-path-15">
      <path id="Trazado_818978" data-name="Trazado 818978" d="M14.624,26.682c-1.056,2.07-.74,4.841,1.2,7.809A24.275,24.275,0,0,0,35.477,44.44c3.476-.2,5.855-1.564,6.9-3.608l8.594-16.857c-1.042,2.042-3.428,3.406-6.9,3.606a24.263,24.263,0,0,1-19.652-9.956c-1.94-2.968-2.256-5.737-1.2-7.809Z" transform="translate(-14.028 -9.817)" fill="none"/>
    </clipPath>
    <clipPath id="clip-path-17">
      <path id="Trazado_818981" data-name="Trazado 818981" d="M20.7,12.135c-.993,1.946-.694,4.55,1.13,7.347A22.812,22.812,0,0,0,40.3,28.831c3.265-.188,5.507-1.469,6.486-3.391l3.579-7.02c-.98,1.922-3.216,3.2-6.485,3.391a22.81,22.81,0,0,1-18.473-9.365c-1.824-2.79-2.122-5.388-1.13-7.347Z" transform="translate(-20.137 -5.1)" fill="none"/>
    </clipPath>
    <clipPath id="clip-path-19">
      <path id="Trazado_818984" data-name="Trazado 818984" d="M22.4,6.44c-1.055,2.07-.736,4.837,1.2,7.807a24.271,24.271,0,0,0,19.652,9.947c3.477-.2,5.858-1.562,6.9-3.606L52.3,16.374c-1.042,2.042-3.428,3.406-6.9,3.606a24.275,24.275,0,0,1-19.653-9.949c-1.938-2.968-2.255-5.737-1.2-7.805Z" transform="translate(-21.808 -2.226)" fill="none"/>
    </clipPath>
    <clipPath id="clip-path-21">
      <path id="Trazado_818991" data-name="Trazado 818991" d="M34.351,27.384l0,0,0,0Zm.968-.163a3.221,3.221,0,0,0-.963.162l45.489,41.45a2.652,2.652,0,0,1,1.58-.077,1.514,1.514,0,0,1,.591.327L36.522,27.636a1.519,1.519,0,0,0-.589-.327,2.072,2.072,0,0,0-.6-.088h-.015" transform="translate(-34.351 -27.221)" fill="none"/>
    </clipPath>
    <clipPath id="clip-path-23">
      <path id="Trazado_818994" data-name="Trazado 818994" d="M32.688,29.973c-1.071,1.62-1.175,3.228-.364,3.969L77.817,75.393c-.816-.741-.7-2.349.366-3.969a6.639,6.639,0,0,1,3.283-2.653L35.971,27.318a6.644,6.644,0,0,0-3.283,2.655" transform="translate(-31.789 -27.318)" fill="none"/>
    </clipPath>
  </defs>
  <g id="Grupo_1072799" data-name="Grupo 1072799" clip-path="url(#clip-path)">
    <g id="Grupo_1072753" data-name="Grupo 1072753" transform="translate(0 0)">
      <g id="Grupo_1072752" data-name="Grupo 1072752" clip-path="url(#clip-path-2)">
        <path id="Trazado_818937" data-name="Trazado 818937" d="M107.781,73.647,59.49,58.046c4.829-6.334,2.764-14.014-6.237-19.211-11.671-6.739-30.53-6.739-42.121,0S-.4,56.5,11.275,63.236s30.53,6.738,42.121,0c.119-.07.219-.145.335-.215l49.732,16.163Z" transform="translate(1.569 21.37)" fill="#bbc0c9"/>
        <path id="Trazado_818938" data-name="Trazado 818938" d="M59.589,37.777l-.018,6.307c-.013,4.387-2.9,8.769-8.653,12.116-11.591,6.738-30.455,6.738-42.121,0C2.92,52.809-.019,48.363,0,43.913L.02,37.606C0,42.05,2.937,46.5,8.815,49.893c11.67,6.738,30.53,6.738,42.121,0,5.76-3.348,8.643-7.729,8.653-12.116" transform="translate(0.001 23.79)" fill="#48210e"/>
      </g>
    </g>
    <g id="Grupo_1072755" data-name="Grupo 1072755" transform="translate(0 61.396)">
      <g id="Grupo_1072754" data-name="Grupo 1072754" clip-path="url(#clip-path-3)">
        <path id="Trazado_818939" data-name="Trazado 818939" d="M36.7,37.711l-.018,6.307a10.352,10.352,0,0,1-.49,3.117l.018-6.307a10.353,10.353,0,0,0,.49-3.117" transform="translate(22.893 -37.54)" fill="#48210e"/>
        <path id="Trazado_818940" data-name="Trazado 818940" d="M38.143,39.619l-.018,6.307a14.749,14.749,0,0,1-5,6.832l.018-6.307a14.76,14.76,0,0,0,5-6.832" transform="translate(20.957 -36.333)" fill="#48210e"/>
        <path id="Trazado_818941" data-name="Trazado 818941" d="M36.681,43.805l-.02,6.307A24.714,24.714,0,0,1,33.5,52.278a33.241,33.241,0,0,1-5.962,2.682l.018-6.308a33.218,33.218,0,0,0,5.961-2.681,24.846,24.846,0,0,0,3.162-2.166" transform="translate(17.421 -33.685)" fill="#48210e"/>
        <path id="Trazado_818942" data-name="Trazado 818942" d="M32.306,46.774l-.018,6.307a46.036,46.036,0,0,1-12.258,2.3l.018-6.307a46.036,46.036,0,0,0,12.258-2.3" transform="translate(12.671 -31.806)" fill="#48210e"/>
        <path id="Trazado_818943" data-name="Trazado 818943" d="M23.795,48.329l-.018,6.307a51.2,51.2,0,0,1-9.67-.384l.018-6.307a51.2,51.2,0,0,0,9.67.384" transform="translate(8.924 -31.066)" fill="#48210e"/>
        <path id="Trazado_818944" data-name="Trazado 818944" d="M23.049,54.485l-.02,6.307A39.353,39.353,0,0,1,8.795,56.2C2.922,52.809-.011,48.357,0,43.913l.018-6.307C0,42.05,2.939,46.5,8.816,49.893a39.382,39.382,0,0,0,14.236,4.593" transform="translate(0 -37.606)" fill="#48210e"/>
      </g>
    </g>
    <g id="Grupo_1072757" data-name="Grupo 1072757" transform="translate(0 0)">
      <g id="Grupo_1072756" data-name="Grupo 1072756" clip-path="url(#clip-path-2)">
        <path id="Trazado_818946" data-name="Trazado 818946" d="M50.791,32.144c11.67,6.738,11.732,17.663.137,24.4s-30.455,6.738-42.121,0-11.734-17.663-.139-24.4,30.455-6.739,42.121,0" transform="translate(0.009 17.137)" fill="#682f14"/>
        <path id="Trazado_818947" data-name="Trazado 818947" d="M55.879,35.734l-.016,2.87c-.011,3.993-2.635,7.98-7.879,11.027-10.553,6.134-27.718,6.134-38.342,0-5.345-3.087-8.014-7.138-8-11.183l.015-2.87c-.011,4.044,2.66,8.1,8,11.182,10.623,6.134,27.788,6.134,38.342,0,5.244-3.046,7.868-7.033,7.879-11.027" transform="translate(1.039 22.506)" fill="#f4a717"/>
      </g>
    </g>
    <g id="Grupo_1072759" data-name="Grupo 1072759" transform="translate(2.676 58.083)">
      <g id="Grupo_1072758" data-name="Grupo 1072758" clip-path="url(#clip-path-5)">
        <path id="Trazado_818948" data-name="Trazado 818948" d="M35.045,35.673l-.016,2.87a9.391,9.391,0,0,1-.452,2.836l.016-2.87a9.391,9.391,0,0,0,.452-2.836" transform="translate(19.197 -35.516)" fill="#f4a717"/>
        <path id="Trazado_818949" data-name="Trazado 818949" d="M36.355,37.41l-.016,2.87A13.412,13.412,0,0,1,31.79,46.5l.016-2.87a13.432,13.432,0,0,0,4.548-6.219" transform="translate(17.435 -34.417)" fill="#f4a717"/>
        <path id="Trazado_818950" data-name="Trazado 818950" d="M35.026,41.22l-.016,2.87a22.325,22.325,0,0,1-2.878,1.972A30.364,30.364,0,0,1,26.7,48.5l.016-2.87a30.319,30.319,0,0,0,5.427-2.441,22.659,22.659,0,0,0,2.883-1.972" transform="translate(14.215 -32.007)" fill="#f4a717"/>
        <path id="Trazado_818951" data-name="Trazado 818951" d="M31.043,43.923l-.016,2.87a41.887,41.887,0,0,1-11.156,2.088l.016-2.87a41.887,41.887,0,0,0,11.156-2.088" transform="translate(9.895 -30.297)" fill="#f4a717"/>
        <path id="Trazado_818952" data-name="Trazado 818952" d="M23.3,45.335l-.016,2.87a46.52,46.52,0,0,1-8.8-.349l.016-2.87a46.656,46.656,0,0,0,8.8.349" transform="translate(6.484 -29.625)" fill="#f4a717"/>
        <path id="Trazado_818953" data-name="Trazado 818953" d="M22.616,50.941l-.016,2.87A35.78,35.78,0,0,1,9.642,49.63c-5.345-3.086-8.016-7.138-8-11.182l.016-2.87c-.011,4.044,2.66,8.1,8,11.182a35.781,35.781,0,0,0,12.958,4.181" transform="translate(-1.637 -35.576)" fill="#f4a717"/>
      </g>
    </g>
    <g id="Grupo_1072761" data-name="Grupo 1072761" transform="translate(0 0)">
      <g id="Grupo_1072760" data-name="Grupo 1072760" clip-path="url(#clip-path-2)">
        <path id="Trazado_818955" data-name="Trazado 818955" d="M47.871,30.605c10.622,6.132,10.679,16.076.126,22.2s-27.72,6.134-38.343,0-10.679-16.078-.126-22.2,27.72-6.134,38.343,0" transform="translate(1.043 16.453)" fill="#ffc641"/>
        <path id="Trazado_818956" data-name="Trazado 818956" d="M53.618,33.956l-.015,2.7c-.011,3.755-2.478,7.5-7.405,10.365-9.92,5.765-26.053,5.765-36.038,0-5.024-2.9-7.533-6.708-7.523-10.511l.015-2.7c-.01,3.8,2.5,7.61,7.525,10.509,9.983,5.765,26.122,5.765,36.036,0,4.929-2.864,7.394-6.61,7.405-10.364" transform="translate(1.668 21.389)" fill="#893f24"/>
      </g>
    </g>
    <g id="Grupo_1072763" data-name="Grupo 1072763" transform="translate(4.307 55.192)">
      <g id="Grupo_1072762" data-name="Grupo 1072762" clip-path="url(#clip-path-7)">
        <path id="Trazado_818957" data-name="Trazado 818957" d="M34.035,33.9l-.015,2.7a8.858,8.858,0,0,1-.426,2.666l.016-2.7a8.856,8.856,0,0,0,.424-2.666" transform="translate(16.945 -33.747)" fill="#893f24"/>
        <path id="Trazado_818958" data-name="Trazado 818958" d="M35.257,35.528v2.7a12.636,12.636,0,0,1-4.276,5.846l.016-2.7a12.628,12.628,0,0,0,4.274-5.845" transform="translate(15.292 -32.717)" fill="#893f24"/>
        <path id="Trazado_818959" data-name="Trazado 818959" d="M34.014,39.109,34,41.806a21.147,21.147,0,0,1-2.707,1.86A28.376,28.376,0,0,1,26.2,45.951l.015-2.7a28.453,28.453,0,0,0,5.1-2.286,21.081,21.081,0,0,0,2.705-1.853" transform="translate(12.267 -30.451)" fill="#893f24"/>
        <path id="Trazado_818960" data-name="Trazado 818960" d="M30.263,41.65v2.7A39.291,39.291,0,0,1,19.777,46.3l.015-2.7a39.421,39.421,0,0,0,10.486-1.959" transform="translate(8.204 -28.846)" fill="#893f24"/>
        <path id="Trazado_818961" data-name="Trazado 818961" d="M22.994,42.981l-.015,2.691a43.674,43.674,0,0,1-8.274-.327l.016-2.7a43.928,43.928,0,0,0,8.272.327" transform="translate(4.996 -28.213)" fill="#893f24"/>
        <path id="Trazado_818962" data-name="Trazado 818962" d="M22.355,48.244l-.015,2.692a33.686,33.686,0,0,1-12.179-3.918c-5.025-2.9-7.534-6.71-7.523-10.511l.015-2.7c-.01,3.8,2.5,7.61,7.523,10.511a33.631,33.631,0,0,0,12.179,3.93" transform="translate(-2.638 -33.804)" fill="#893f24"/>
      </g>
    </g>
    <g id="Grupo_1072770" data-name="Grupo 1072770" transform="translate(0 0)">
      <g id="Grupo_1072769" data-name="Grupo 1072769" clip-path="url(#clip-path-2)">
        <path id="Trazado_818964" data-name="Trazado 818964" d="M46.09,29.133c9.983,5.765,10.036,15.11.118,20.874s-26.055,5.765-36.038,0S.133,34.9,10.052,29.133s26.053-5.765,36.038,0" transform="translate(1.675 15.695)" fill="#b6623a"/>
        <g id="Grupo_1072768" data-name="Grupo 1072768" transform="translate(16.081 46.011)" opacity="0.4">
          <g id="Grupo_1072767" data-name="Grupo 1072767">
            <g id="Grupo_1072766" data-name="Grupo 1072766" clip-path="url(#clip-path-9)">
              <g id="Grupo_1072765" data-name="Grupo 1072765" transform="translate(0 0)">
                <g id="Grupo_1072764" data-name="Grupo 1072764" clip-path="url(#clip-path-10)">
                  <path id="Trazado_818965" data-name="Trazado 818965" d="M38.482,31.032c6.579,3.8,6.614,9.959.077,13.758a26.179,26.179,0,0,1-23.749,0c-6.581-3.8-6.615-9.959-.078-13.758a26.173,26.173,0,0,1,23.751,0" transform="translate(-9.849 -28.183)" fill="#893f24"/>
                </g>
              </g>
            </g>
          </g>
        </g>
      </g>
    </g>
    <g id="Grupo_1072772" data-name="Grupo 1072772" transform="translate(17.217 39.955)">
      <g id="Grupo_1072771" data-name="Grupo 1072771" clip-path="url(#clip-path-11)">
        <path id="Trazado_818966" data-name="Trazado 818966" d="M41.04,38.621l-2.149,4.214c-1.042,2.044-3.428,3.406-6.9,3.608a24.27,24.27,0,0,1-19.652-9.949c-1.94-2.968-2.256-5.737-1.2-7.807l2.149-4.214c-1.055,2.07-.738,4.839,1.2,7.807a24.275,24.275,0,0,0,19.653,9.949c3.477-.2,5.856-1.564,6.9-3.608" transform="translate(-10.546 -24.473)" fill="#48210e"/>
      </g>
    </g>
    <g id="Grupo_1072774" data-name="Grupo 1072774" transform="translate(0 0)">
      <g id="Grupo_1072773" data-name="Grupo 1072773" clip-path="url(#clip-path-2)">
        <path id="Trazado_818968" data-name="Trazado 818968" d="M39.008,32.21c3.853,5.9,1.306,11.01-5.7,11.415a24.269,24.269,0,0,1-19.653-9.947c-3.853-5.9-1.306-11.01,5.7-11.415a24.27,24.27,0,0,1,19.65,9.947" transform="translate(7.504 14.084)" fill="#381a0b"/>
      </g>
    </g>
    <g id="Grupo_1072776" data-name="Grupo 1072776" transform="translate(20.535 32.721)">
      <g id="Grupo_1072775" data-name="Grupo 1072775" clip-path="url(#clip-path-13)">
        <path id="Trazado_818969" data-name="Trazado 818969" d="M42.806,33.343l-3.58,7.023c-.98,1.922-3.216,3.2-6.485,3.391a22.812,22.812,0,0,1-18.475-9.352c-1.824-2.79-2.122-5.388-1.13-7.347l3.582-7.02c-.993,1.946-.7,4.548,1.128,7.347a22.814,22.814,0,0,0,18.475,9.352c3.265-.189,5.505-1.469,6.485-3.391" transform="translate(-12.578 -20.044)" fill="#682f14"/>
      </g>
    </g>
    <g id="Grupo_1072778" data-name="Grupo 1072778" transform="translate(0 0)">
      <g id="Grupo_1072777" data-name="Grupo 1072777" clip-path="url(#clip-path-2)">
        <path id="Trazado_818971" data-name="Trazado 818971" d="M40.288,27.316c3.621,5.551,1.224,10.351-5.355,10.731A22.812,22.812,0,0,1,16.458,28.7c-3.623-5.551-1.224-10.351,5.357-10.731a22.818,22.818,0,0,1,18.473,9.352" transform="translate(9.343 11.364)" fill="#4e2a1a"/>
      </g>
    </g>
    <g id="Grupo_1072780" data-name="Grupo 1072780" transform="translate(22.902 16.027)">
      <g id="Grupo_1072779" data-name="Grupo 1072779" clip-path="url(#clip-path-15)">
        <path id="Trazado_818972" data-name="Trazado 818972" d="M50.967,23.972,42.373,40.828c-1.042,2.044-3.42,3.406-6.9,3.608a24.27,24.27,0,0,1-19.652-9.949c-1.94-2.968-2.256-5.737-1.2-7.807L23.216,9.822c-1.055,2.072-.738,4.841,1.2,7.809A24.271,24.271,0,0,0,44.07,27.581c3.477-.2,5.856-1.564,6.9-3.608" transform="translate(-14.028 -9.814)" fill="#ffc641"/>
        <path id="Trazado_818973" data-name="Trazado 818973" d="M24,15.082a13.153,13.153,0,0,1-.713-1.229L14.691,30.711a13.34,13.34,0,0,0,.713,1.228,17.186,17.186,0,0,0,1.7,2.173l8.594-16.857A17.186,17.186,0,0,1,24,15.082" transform="translate(-13.609 -7.264)" fill="#ffc641"/>
        <path id="Trazado_818974" data-name="Trazado 818974" d="M23.209,9.823,14.615,26.68a7.148,7.148,0,0,0,.49,6.579L23.7,16.4a7.148,7.148,0,0,1-.49-6.579" transform="translate(-14.023 -9.813)" fill="#f8b926"/>
        <path id="Trazado_818975" data-name="Trazado 818975" d="M24.761,15.936,16.167,32.793a24.545,24.545,0,0,0,7.272,5.322l8.594-16.85a24.545,24.545,0,0,1-7.272-5.322" transform="translate(-12.675 -5.946)" fill="#f8b926"/>
        <path id="Trazado_818976" data-name="Trazado 818976" d="M29.214,19.2,20.62,36.052A22.227,22.227,0,0,0,31.232,38.5l8.6-16.852A22.25,22.25,0,0,1,29.222,19.2" transform="translate(-9.858 -3.881)" fill="#f4a717"/>
        <path id="Trazado_818977" data-name="Trazado 818977" d="M35.784,22.1h-.065L27.126,38.956h.064c3.477-.2,5.858-1.564,6.9-3.606l8.594-16.858c-1.042,2.044-3.428,3.407-6.9,3.608" transform="translate(-5.742 -4.33)" fill="#f8b926"/>
      </g>
    </g>
    <g id="Grupo_1072782" data-name="Grupo 1072782" transform="translate(0 0)">
      <g id="Grupo_1072781" data-name="Grupo 1072781" clip-path="url(#clip-path-2)">
        <path id="Trazado_818979" data-name="Trazado 818979" d="M46.437,17.562c3.853,5.9,1.306,11.01-5.7,11.415A24.275,24.275,0,0,1,21.087,19.03c-3.853-5.9-1.306-11.01,5.7-11.417a24.271,24.271,0,0,1,19.65,9.949" transform="translate(12.203 4.816)" fill="#ee9815"/>
      </g>
    </g>
    <g id="Grupo_1072784" data-name="Grupo 1072784" transform="translate(32.876 8.326)">
      <g id="Grupo_1072783" data-name="Grupo 1072783" clip-path="url(#clip-path-17)">
        <path id="Trazado_818980" data-name="Trazado 818980" d="M50.366,18.411l-3.58,7.02c-.98,1.922-3.216,3.2-6.486,3.393a22.82,22.82,0,0,1-18.473-9.353C20,16.681,19.7,14.083,20.7,12.124L24.279,5.1c-.993,1.946-.694,4.548,1.128,7.347A22.814,22.814,0,0,0,43.88,21.8c3.265-.188,5.507-1.469,6.486-3.391" transform="translate(-20.137 -5.097)" fill="#682f14"/>
      </g>
    </g>
    <g id="Grupo_1072786" data-name="Grupo 1072786" transform="translate(0 0)">
      <g id="Grupo_1072785" data-name="Grupo 1072785" clip-path="url(#clip-path-2)">
        <path id="Trazado_818982" data-name="Trazado 818982" d="M47.849,12.385c3.623,5.551,1.224,10.351-5.357,10.731a22.811,22.811,0,0,1-18.473-9.358C20.4,8.207,22.793,3.407,29.374,3.027a22.816,22.816,0,0,1,18.475,9.358" transform="translate(14.126 1.915)" fill="#582c18"/>
      </g>
    </g>
    <g id="Grupo_1072788" data-name="Grupo 1072788" transform="translate(35.604 3.634)">
      <g id="Grupo_1072787" data-name="Grupo 1072787" clip-path="url(#clip-path-19)">
        <path id="Trazado_818983" data-name="Trazado 818983" d="M52.3,16.374l-2.149,4.214c-1.042,2.044-3.42,3.407-6.9,3.608A24.27,24.27,0,0,1,23.6,14.247c-1.94-2.968-2.256-5.737-1.2-7.807l2.149-4.214c-1.055,2.07-.738,4.839,1.2,7.807A24.274,24.274,0,0,0,45.4,19.979c3.477-.2,5.856-1.564,6.9-3.608" transform="translate(-21.808 -2.226)" fill="#48210e"/>
      </g>
    </g>
    <g id="Grupo_1072790" data-name="Grupo 1072790" transform="translate(0 0)">
      <g id="Grupo_1072789" data-name="Grupo 1072789" clip-path="url(#clip-path-2)">
        <path id="Trazado_818985" data-name="Trazado 818985" d="M50.27,9.963c3.853,5.9,1.306,11.01-5.7,11.415A24.275,24.275,0,0,1,24.92,11.431C21.067,5.533,23.614.421,30.62.016A24.27,24.27,0,0,1,50.27,9.963" transform="translate(14.628 0.01)" fill="#893f24"/>
        <path id="Trazado_818986" data-name="Trazado 818986" d="M50.3,10.325c3.68,5.583,1.278,10.4-5.368,10.757a23.3,23.3,0,0,1-18.7-9.469C22.555,6.03,24.958,1.214,31.6.858a23.286,23.286,0,0,1,18.7,9.469" transform="translate(15.506 0.543)" fill="#893f24"/>
        <path id="Trazado_818987" data-name="Trazado 818987" d="M34.914,23.169a2.776,2.776,0,0,0-2.775-.327,8.614,8.614,0,0,0-5.262,5.791,2.74,2.74,0,0,0,.584,2.7l6.857,6.264a2.743,2.743,0,0,1-.584-2.7,8.609,8.609,0,0,1,5.255-5.784,2.764,2.764,0,0,1,2.784.327Z" transform="translate(16.917 14.304)" fill="#682f14"/>
        <path id="Trazado_818988" data-name="Trazado 818988" d="M36.32,26.673c2.38-.762,3.889.591,3.368,3.024a8.607,8.607,0,0,1-5.254,5.784c-2.38.762-3.889-.591-3.37-3.024a8.613,8.613,0,0,1,5.255-5.784" transform="translate(19.587 16.739)" fill="#48210e"/>
        <path id="Trazado_818989" data-name="Trazado 818989" d="M36.522,27.636,82.016,69.088a1.559,1.559,0,0,0-.591-.327,2.658,2.658,0,0,0-1.582.077L34.351,27.382a2.652,2.652,0,0,1,1.58-.077,1.526,1.526,0,0,1,.591.327" transform="translate(21.73 17.219)" fill="#381a0b"/>
      </g>
    </g>
    <g id="Grupo_1072792" data-name="Grupo 1072792" transform="translate(56.081 44.441)">
      <g id="Grupo_1072791" data-name="Grupo 1072791" clip-path="url(#clip-path-21)">
        <path id="Trazado_818990" data-name="Trazado 818990" d="M79.845,68.834,34.351,27.382a2.658,2.658,0,0,1,1.582-.077,1.559,1.559,0,0,1,.591.327L82.016,69.083a1.526,1.526,0,0,0-.591-.327,2.664,2.664,0,0,0-1.58.077" transform="translate(-34.351 -27.222)" fill="#381a0b"/>
      </g>
    </g>
    <g id="Grupo_1072794" data-name="Grupo 1072794" transform="translate(0 0)">
      <g id="Grupo_1072793" data-name="Grupo 1072793" clip-path="url(#clip-path-2)">
        <path id="Trazado_818992" data-name="Trazado 818992" d="M77.819,75.393,32.325,33.941c-.816-.741-.705-2.349.364-3.97a6.653,6.653,0,0,1,3.283-2.651L81.466,68.771a6.648,6.648,0,0,0-3.283,2.653c-1.069,1.62-1.175,3.228-.364,3.969" transform="translate(20.109 17.282)" fill="#381a0b"/>
      </g>
    </g>
    <g id="Grupo_1072796" data-name="Grupo 1072796" transform="translate(51.899 44.599)">
      <g id="Grupo_1072795" data-name="Grupo 1072795" clip-path="url(#clip-path-23)">
        <path id="Trazado_818993" data-name="Trazado 818993" d="M77.819,75.393,32.325,33.941c-.816-.741-.705-2.349.364-3.97a6.653,6.653,0,0,1,3.283-2.651L81.466,68.771a6.648,6.648,0,0,0-3.283,2.653c-1.069,1.62-1.175,3.228-.364,3.969" transform="translate(-31.79 -27.317)" fill="#381a0b"/>
      </g>
    </g>
    <g id="Grupo_1072798" data-name="Grupo 1072798" transform="translate(0 0)">
      <g id="Grupo_1072797" data-name="Grupo 1072797" clip-path="url(#clip-path-2)">
        <path id="Trazado_818995" data-name="Trazado 818995" d="M63.837,52.772a2.665,2.665,0,0,1,1.58-.077c1.407.434,1.509,2.359.229,4.3a6.664,6.664,0,0,1-3.285,2.651,2.652,2.652,0,0,1-1.58.077c-1.406-.434-1.509-2.359-.229-4.3a6.652,6.652,0,0,1,3.285-2.653" transform="translate(37.738 33.281)" fill="#4a2818"/>
        <path id="Trazado_818996" data-name="Trazado 818996" d="M63.948,49.617a2.775,2.775,0,0,0-2.784-.327,8.613,8.613,0,0,0-5.254,5.786,2.74,2.74,0,0,0,.584,2.7L68.84,69.045a2.743,2.743,0,0,1-.584-2.7,8.607,8.607,0,0,1,5.254-5.784,2.764,2.764,0,0,1,2.784.327Z" transform="translate(35.284 31.034)" fill="#682f14"/>
        <path id="Trazado_818997" data-name="Trazado 818997" d="M68.714,56.188c2.38-.762,3.889.591,3.368,3.024a8.615,8.615,0,0,1-5.254,5.783c-2.38.762-3.889-.591-3.368-3.024a8.607,8.607,0,0,1,5.254-5.784" transform="translate(40.08 35.41)" fill="#48210e"/>
      </g>
    </g>
  </g>
</svg>
