<svg xmlns="http://www.w3.org/2000/svg" xmlns:xlink="http://www.w3.org/1999/xlink" width="1240" height="686.113" viewBox="0 0 1240 686.113">
  <defs>
    <clipPath id="clip-path">
      <rect id="Rectángulo_377137" data-name="Rectángulo 377137" width="1240" height="686.113" fill="none"/>
    </clipPath>
    <clipPath id="clip-path-3">
      <rect id="Rectángulo_377120" data-name="Rectángulo 377120" width="403.057" height="33.36" fill="none"/>
    </clipPath>
    <clipPath id="clip-path-4">
      <rect id="Rectángulo_377121" data-name="Rectángulo 377121" width="21.773" height="37.749" fill="none"/>
    </clipPath>
    <clipPath id="clip-path-5">
      <rect id="Rectángulo_377122" data-name="Rectángulo 377122" width="21.773" height="204.261" fill="none"/>
    </clipPath>
    <clipPath id="clip-path-7">
      <rect id="Rectángulo_377124" data-name="Rectángulo 377124" width="21.453" height="52.102" fill="none"/>
    </clipPath>
  </defs>
  <g id="Grupo_1072899" data-name="Grupo 1072899" transform="translate(-180 -2366.017)">
    <g id="Grupo_1072814" data-name="Grupo 1072814">
      <g id="Grupo_1072708" data-name="Grupo 1072708" transform="translate(180 2366.017)">
        <g id="Grupo_1072707" data-name="Grupo 1072707" clip-path="url(#clip-path)">
          <rect id="Rectángulo_377119" data-name="Rectángulo 377119" width="1238.799" height="686.113" transform="translate(1.202)" fill="#e0fff9"/>
          <path id="Trazado_818753" data-name="Trazado 818753" d="M126.481,325.266l-71.23-34.7L0,320.8V585.336H1240V313.613l-50.855,36.359-44.139-19.536-49.042,16.3L991.487,303.588l-35.163,14.174-50-21.451L806.168,338.253,738.4,312.778,626.081,346.739,546.4,319,450.19,354.814,335.483,306.432,307.046,319,217.3,270.742Z" transform="translate(0 100.777)" fill="#c7f2ea"/>
          <g id="Grupo_1072706" data-name="Grupo 1072706">
            <g id="Grupo_1072705" data-name="Grupo 1072705" clip-path="url(#clip-path)">
              <g id="Grupo_1072692" data-name="Grupo 1072692" transform="translate(403.297 636.302)" opacity="0.42">
                <g id="Grupo_1072691" data-name="Grupo 1072691">
                  <g id="Grupo_1072690" data-name="Grupo 1072690" clip-path="url(#clip-path-3)">
                    <path id="Trazado_818754" data-name="Trazado 818754" d="M696.957,480.38c0,9.212-90.228,16.679-201.528,16.679S293.9,489.592,293.9,480.38,384.128,463.7,495.429,463.7s201.528,7.468,201.528,16.679" transform="translate(-293.9 -463.7)" fill="#68c4c4"/>
                  </g>
                </g>
              </g>
              <path id="Trazado_818755" data-name="Trazado 818755" d="M641.93,237.667A58.078,58.078,0,0,1,560.5,290.82l-15.328,15.309V341.3H501.613V288.095l28.493-28.474a57.707,57.707,0,0,1-4.306-21.954,56.713,56.713,0,0,1,.79-9.527,58.062,58.062,0,0,1,115.34,9.527" transform="translate(186.714 66.849)" fill="#8c19bc"/>
              <path id="Trazado_818756" data-name="Trazado 818756" d="M416.532,288.095v52.1H372.976V306.129l-15.45-15.256A58.032,58.032,0,1,1,387.969,259.8Z" transform="translate(102.814 66.849)" fill="#2bd126"/>
              <g id="Grupo_1072695" data-name="Grupo 1072695" transform="translate(474.94 369.299)" opacity="0.6" style="mix-blend-mode: overlay;isolation: isolate">
                <g id="Grupo_1072694" data-name="Grupo 1072694">
                  <g id="Grupo_1072693" data-name="Grupo 1072693" clip-path="url(#clip-path-4)">
                    <path id="Trazado_818757" data-name="Trazado 818757" d="M346.109,269.124l21.773,37.744-21.773,0Z" transform="translate(-346.109 -269.124)"/>
                  </g>
                </g>
              </g>
              <path id="Trazado_818758" data-name="Trazado 818758" d="M469.925,167.555V387.019H426.369V185.589l-15.45-15.256a58.032,58.032,0,1,1,30.443-31.077Z" transform="translate(122.689 21.981)" fill="#68c4c4"/>
              <g id="Grupo_1072698" data-name="Grupo 1072698" transform="translate(548.207 203.892)" opacity="0.6" style="mix-blend-mode: overlay;isolation: isolate">
                <g id="Grupo_1072697" data-name="Grupo 1072697">
                  <g id="Grupo_1072696" data-name="Grupo 1072696" clip-path="url(#clip-path-5)">
                    <path id="Trazado_818759" data-name="Trazado 818759" d="M399.5,148.585l21.773,204.257-21.773,0Z" transform="translate(-399.502 -148.585)"/>
                  </g>
                </g>
              </g>
              <path id="Trazado_818760" data-name="Trazado 818760" d="M447.721,167.555V387.019h43.556V185.589l15.45-15.256a58.033,58.033,0,1,0-30.443-31.077Z" transform="translate(166.654 21.981)" fill="#ea7649"/>
              <g id="Grupo_1072701" data-name="Grupo 1072701" transform="translate(637.008 203.892)" opacity="0.6" style="mix-blend-mode: overlay;isolation: isolate">
                <g id="Grupo_1072700" data-name="Grupo 1072700">
                  <g id="Grupo_1072699" data-name="Grupo 1072699" clip-path="url(#clip-path-5)">
                    <path id="Trazado_818761" data-name="Trazado 818761" d="M485.988,148.585,464.215,352.842l21.773,0Z" transform="translate(-464.215 -148.585)"/>
                  </g>
                </g>
              </g>
              <g id="Grupo_1072704" data-name="Grupo 1072704" transform="translate(689.439 354.945)" opacity="0.6" style="mix-blend-mode: overlay;isolation: isolate">
                <g id="Grupo_1072703" data-name="Grupo 1072703">
                  <g id="Grupo_1072702" data-name="Grupo 1072702" clip-path="url(#clip-path-7)">
                    <path id="Trazado_818762" data-name="Trazado 818762" d="M502.424,258.664l21.453,52.1-21.453,0Z" transform="translate(-502.424 -258.664)"/>
                  </g>
                </g>
              </g>
              <path id="Trazado_818763" data-name="Trazado 818763" d="M436.879,114.846A50.118,50.118,0,1,1,386.76,64.727a50.119,50.119,0,0,1,50.119,50.119" transform="translate(125.307 24.093)" fill="#c7f2ea"/>
              <path id="Trazado_818764" data-name="Trazado 818764" d="M625.863,233.926a50.119,50.119,0,1,1-50.119-50.119,50.119,50.119,0,0,1,50.119,50.119" transform="translate(195.651 68.418)" fill="#c7f2ea"/>
              <path id="Trazado_818765" data-name="Trazado 818765" d="M382.515,235.5A50.119,50.119,0,1,1,332.4,185.38,50.119,50.119,0,0,1,382.515,235.5" transform="translate(105.071 69.003)" fill="#c7f2ea"/>
              <path id="Trazado_818766" data-name="Trazado 818766" d="M330.754,264.961a5.868,5.868,0,0,1-3.5-2.189,5.814,5.814,0,0,1-3.49,2.189c-14.231.933-43.08-39.575-25.389-54.481,14.723-12.365,25.206-3.06,28.878,1.286,3.689-4.346,14.171-13.651,28.879-1.286,17.706,14.907-11.141,55.415-25.374,54.481" transform="translate(108.988 76.048)" fill="#2bd126"/>
              <path id="Trazado_818767" data-name="Trazado 818767" d="M326.669,214.367s-10.642-17.544-27.292-2.989c-15.927,13.923,10.025,51.764,22.837,50.9,0,0,4.084-.593,4.456-5.984Z" transform="translate(109.568 76.531)" fill="#c0f0e2"/>
              <path id="Trazado_818768" data-name="Trazado 818768" d="M314.476,227.258c0,2.3-.923,4.161-2.064,4.161s-2.062-1.862-2.062-4.161.923-4.161,2.062-4.161,2.064,1.862,2.064,4.161" transform="translate(115.52 83.042)" fill="#2bd126"/>
              <path id="Trazado_818769" data-name="Trazado 818769" d="M318.108,211.827s-2.783-14.509,12.443-20.542c0,0,3.952,15.55-12.443,20.542" transform="translate(118.334 71.201)" fill="#2bd126"/>
              <rect id="Rectángulo_377125" data-name="Rectángulo 377125" width="50.405" height="62.006" transform="translate(480.317 118.68) rotate(-13.477)" fill="#66b7b7"/>
              <rect id="Rectángulo_377126" data-name="Rectángulo 377126" width="50.406" height="62.007" transform="matrix(0.972, -0.233, 0.233, 0.972, 475.5, 114.547)" fill="#fff"/>
              <rect id="Rectángulo_377127" data-name="Rectángulo 377127" width="38.938" height="2.001" transform="matrix(0.972, -0.233, 0.233, 0.972, 483.198, 121.203)" fill="#c0f0e2"/>
              <rect id="Rectángulo_377128" data-name="Rectángulo 377128" width="38.938" height="2.001" transform="matrix(0.972, -0.233, 0.233, 0.972, 485.063, 128.983)" fill="#c0f0e2"/>
              <rect id="Rectángulo_377129" data-name="Rectángulo 377129" width="38.938" height="2.001" transform="matrix(0.972, -0.233, 0.233, 0.972, 487.206, 137.924)" fill="#c0f0e2"/>
              <rect id="Rectángulo_377130" data-name="Rectángulo 377130" width="38.938" height="2.001" transform="matrix(0.972, -0.233, 0.233, 0.972, 489.07, 145.705)" fill="#c0f0e2"/>
              <rect id="Rectángulo_377131" data-name="Rectángulo 377131" width="27.403" height="1.999" transform="translate(491.31 155.048) rotate(-13.477)" fill="#c0f0e2"/>
              <path id="Trazado_818770" data-name="Trazado 818770" d="M571.66,114.2a50.119,50.119,0,1,1-50.119-50.119A50.119,50.119,0,0,1,571.66,114.2" transform="translate(175.476 23.851)" fill="#c7f2ea"/>
              <rect id="Rectángulo_377132" data-name="Rectángulo 377132" width="258.246" height="14.97" transform="translate(474.316 594.06)" fill="#3d2c2e"/>
              <path id="Trazado_818771" data-name="Trazado 818771" d="M350.247,505.217h-23.4a3.851,3.851,0,0,1-3.84-3.84V398.926a3.85,3.85,0,0,1,3.84-3.838h23.4a3.85,3.85,0,0,1,3.838,3.838V501.378a3.85,3.85,0,0,1-3.838,3.84" transform="translate(120.231 147.062)" fill="#5c4749"/>
              <rect id="Rectángulo_377133" data-name="Rectángulo 377133" width="17.024" height="110.129" transform="translate(450.263 542.15)" fill="#3d2c2e"/>
              <path id="Trazado_818772" data-name="Trazado 818772" d="M561.09,505.217h-23.4a3.851,3.851,0,0,1-3.839-3.84V398.926a3.85,3.85,0,0,1,3.839-3.838h23.4a3.849,3.849,0,0,1,3.84,3.838V501.378a3.851,3.851,0,0,1-3.84,3.84" transform="translate(198.713 147.062)" fill="#5c4749"/>
              <rect id="Rectángulo_377134" data-name="Rectángulo 377134" width="17.024" height="110.129" transform="translate(739.59 542.15)" fill="#3d2c2e"/>
              <path id="Trazado_818773" data-name="Trazado 818773" d="M564.9,527.553H383.98c-12.08,0-22.039-6.716-22.65-15.273L346.561,305.493H602.319L587.55,512.28c-.612,8.557-10.57,15.273-22.65,15.273" transform="translate(128.999 113.712)" fill="#3f9196"/>
              <rect id="Rectángulo_377135" data-name="Rectángulo 377135" width="275.432" height="15.169" transform="translate(465.723 404.035)" fill="#3f9196"/>
              <path id="Trazado_818774" data-name="Trazado 818774" d="M602.319,305.492,348.181,328.183l-1.621-22.691Z" transform="translate(128.999 113.712)" fill="#2a7475"/>
              <path id="Trazado_818775" data-name="Trazado 818775" d="M583.545,225.144c.7.241,1.378.55,2.06.862a6.957,6.957,0,0,1,1.573.729c.247.2.587.338.535.873a1.013,1.013,0,0,1-.486.929,1.248,1.248,0,0,1-1.072-.008c-1.074-.375-2.108-.841-3.142-1.308-.231-.1-.324-.044-.419.18-.339.812-.685,1.621-1.057,2.416-.13.279-.1.4.193.524.958.387,1.906.8,2.856,1.209a4.275,4.275,0,0,1,.5.248,1,1,0,0,1,.441,1.306,1.09,1.09,0,0,1-1.324.591c-.808-.313-1.616-.633-2.4-1a7.193,7.193,0,0,1-1.04-.49c-.152-.106-.211-.023-.292.107a3.22,3.22,0,0,0-.309.757c-.2.642-.552,1.212-.8,1.825-.118.281-.056.392.2.5q1.443.6,2.882,1.225a3.9,3.9,0,0,1,.5.248,1.007,1.007,0,0,1,.357,1.4,1.076,1.076,0,0,1-1.291.454,26.285,26.285,0,0,1-3.355-1.449c-.213-.1-.288-.06-.373.158-.344.881-.7,1.756-1.077,2.622-.117.272-.037.366.2.471,1.81.777,3.616,1.564,5.423,2.348,1.432.617,2.868,1.225,4.3,1.852.237.1.333.075.438-.17q3.083-7.252,6.183-14.5a3.6,3.6,0,0,1,.188-.379,1,1,0,0,1,1.326-.446,1.037,1.037,0,0,1,.517,1.363q-.9,2.126-1.807,4.247-1.54,3.608-3.079,7.215c-.482,1.125-.958,2.255-1.457,3.372-.106.236-.03.3.165.377a6.973,6.973,0,0,1,1.869.933,3.376,3.376,0,0,1,1.088,3.765,3.511,3.511,0,0,1-2.9,2.471,3.124,3.124,0,0,1-1.762-.266c-1.448-.622-2.878-1.284-4.355-1.839-.2-.074-.391-.189-.6-.255s-.365-.058-.468.232c-.3.855-.665,1.685-1.05,2.507-.213.456-.349.962-.6,1.4s-.331.929-.557,1.371c-.237.461-.4.959-.618,1.431-.11.236-.069.339.181.428a11.414,11.414,0,0,1,2.718,1.234,2.951,2.951,0,0,1,1.371,2.182,3.537,3.537,0,0,1-2.293,3.713,3.4,3.4,0,0,1-2.618-.254c-.795-.34-1.568-.73-2.39-1.007a6.087,6.087,0,0,1-.9-.427.325.325,0,0,0-.407.071A7.167,7.167,0,0,1,572.456,265a8.407,8.407,0,0,1-2.3.273H548.088a7.338,7.338,0,0,1-4.88-1.825,6.294,6.294,0,0,1-1.588-1.9c-.236-.461-.482-.922-.681-1.408a13.479,13.479,0,0,1-.585-2.358,3.138,3.138,0,0,1,0-.631q0-14.03,0-28.057a8.4,8.4,0,0,1,1.493-4.749,17.37,17.37,0,0,1,2.434-2.685c1.155-1.139,2.3-2.3,3.444-3.443.306-.307.283-.266-.107-.456a3.533,3.533,0,0,1-1.6-1.26,3.344,3.344,0,0,1-.5-1.839c-.021-1.894-.022-3.786.012-5.68a2.977,2.977,0,0,1,.6-1.939,3.052,3.052,0,0,1,1.275-.906,4.286,4.286,0,0,1,1.57-.221q10.434.01,20.867.015a3.138,3.138,0,0,1,2.471.987,2.729,2.729,0,0,1,.73,1.7c.13,2.045.055,4.088.047,6.132A3.016,3.016,0,0,1,571,217.731a3.511,3.511,0,0,1-.473.119c.388.4.8.775,1.154,1.2.538.65,1.212,1.158,1.787,1.773q1.138,1.217,2.316,2.4a7.6,7.6,0,0,1,2,3.383c.139.509.235,1.017.333,1.531a26.927,26.927,0,0,1,.126,3.8c0,.008.012.015.021.026.121.023.119-.077.151-.148q3.024-7.062,6.05-14.127c.392-.919.755-1.851,1.169-2.76a2.456,2.456,0,0,1,2.329-1.466,2.326,2.326,0,0,1,1.4.376c.25.166.351.007.416-.148.247-.6.5-1.19.786-1.766a2.972,2.972,0,0,1,3.693-1.409c.252.084.369.047.465-.183q.562-1.324,1.129-2.647c.438-1.028.895-2.05,1.311-3.086.376-.94.8-1.858,1.18-2.8.277-.69.59-1.371.893-2.053.318-.719.615-1.449.923-2.174s.631-1.467.948-2.2c.246-.564.48-1.138.745-1.693a1.018,1.018,0,0,1,1.438-.538,1.049,1.049,0,0,1,.44,1.444c-.475,1.1-.944,2.211-1.416,3.313q-1.478,3.456-2.957,6.908-1.27,2.972-2.545,5.939c-.078.182-.045.4-.233.56-.137.119.059.2.172.255a3.52,3.52,0,0,1,1.461,1.113,2.914,2.914,0,0,1,.318,3c-.232.53-.409,1.084-.682,1.6-.066.125.008.231.189.285a2.683,2.683,0,0,1,1.939,1.936,2.885,2.885,0,0,1-.28,2c-.726,1.64-1.416,3.295-2.126,4.943-.193.447-.427.855-1.01.866a1,1,0,0,1-1.02-1.375c.34-.9.738-1.774,1.114-2.659s.751-1.744,1.116-2.621c.259-.627.191-.8-.428-1.058-1.724-.72-3.44-1.46-5.162-2.187-1.261-.532-2.518-1.08-3.772-1.632-.535-.233-.7-.169-.939.339-.586,1.223-1.065,2.5-1.682,3.706-.1.2.018.287.192.36q1.478.622,2.948,1.254c.423.181.843.368.973.875a.941.941,0,0,1-.28,1,1.007,1.007,0,0,1-1.047.261,35.979,35.979,0,0,1-3.422-1.437c-.222-.1-.291-.084-.4.154a19.2,19.2,0,0,1-1.18,2.661.517.517,0,0,0-.034.2m-31.18,5.619c.269-.8.51-.977,1.385-1.031.118-.007.236-.008.353-.008q6.9,0,13.8,0,3.954,0,7.905.007c.128,0,.276.033.273-.172a5.918,5.918,0,0,0-1.238-4.154c-1.1-1.223-2.272-2.371-3.443-3.525q-1.643-1.622-3.186-3.335a2.05,2.05,0,0,0-1.688-.708c-4.753.023-9.507.011-14.26.011q-.44,0-.882.005a.635.635,0,0,0-.45.165c-.3.283-.611.55-.9.84-.722.723-1.431,1.461-2.15,2.189-1.165,1.177-2.338,2.349-3.5,3.532a6.214,6.214,0,0,0-1.16,1.614,7.114,7.114,0,0,0-.746,2.838c-.038.816-.147.683.628.688,1.976.012,3.953,0,5.93.007a2.978,2.978,0,0,1,.844.1c.48.139.638.564.847.943-.034.1-.071.195-.1.294a1.165,1.165,0,0,1-1.16.822c-2.237,0-4.472.007-6.709,0-.206,0-.281.051-.281.277q0,8.752-.014,17.5c0,.244.064.318.318.318,10.746.047,21.49-.049,32.235.045.118,0,.225.011.285-.137.277-.672.565-1.341.852-2.01.032-.076.085-.129-.044-.184a4.827,4.827,0,0,0-1.855-.642c-9.227-.006-18.454.033-27.68-.008a.866.866,0,0,1-.611-.218,1.019,1.019,0,0,1-.442-1.039,1.041,1.041,0,0,1,.93-.837,7.008,7.008,0,0,1,.74-.045q5.261,0,10.521,0,5.492,0,10.98,0a7.855,7.855,0,0,0,1.3.018,1.762,1.762,0,0,0-.125-.2,4.384,4.384,0,0,1-.832-1.5c-.1-.313-.021-.784-.258-.921-.266-.154-.686-.038-1.039-.038q-10.5,0-21.007-.01a1.153,1.153,0,0,1-1.228-1.035,1.093,1.093,0,0,1,1.147-1.077c.351-.016.705-.022,1.058-.022q10.786,0,21.573.008a.61.61,0,0,0,.528-.2,3.5,3.5,0,0,1,2.587-1.19,5.442,5.442,0,0,1,2.406.722c.237.1.333.062.423-.156q.354-.862.727-1.717a1.523,1.523,0,0,0,.13-.644c-.007-1.541-.014-3.082,0-4.624,0-.328-.064-.435-.417-.434q-10.732.01-21.466-.005a7.92,7.92,0,0,1-.845-.038.98.98,0,0,1-.811-.63c-.071-.143-.121-.3-.18-.449m5.954,21.385v0q-6.126,0-12.253,0c-1.083,0-2.165.011-3.248,0-.283-.005-.37.089-.358.366.023.468,0,.941.018,1.412a39.692,39.692,0,0,0,.114,4.178,5.847,5.847,0,0,0,5.746,5.062c7.225-.07,14.452-.029,21.678-.032a1.808,1.808,0,0,1,.211,0,5.19,5.19,0,0,0,2.723-.541c.081-.04.213-.058.215-.158,0-.125-.139-.147-.23-.177a15.968,15.968,0,0,1-1.726-.671c-1.078-.494-2.185-.925-3.245-1.46a3.341,3.341,0,0,1-.272-5.888,2.938,2.938,0,0,1,2.3-.412,13.8,13.8,0,0,1,2.8,1.149c.375.174.327-.078.387-.222.274-.646.512-1.309.8-1.95.291-.656.309-.655-.406-.655q-7.626-.006-15.252,0m32.232-2.816a.838.838,0,0,0-.235-.725,2.215,2.215,0,0,0-.859-.534Q582.281,245,575.1,241.938a20.948,20.948,0,0,0-2.34-.955,1.134,1.134,0,0,0-1.258.265,1.4,1.4,0,0,0,.526,2.353c.932.416,1.847.876,2.8,1.25.991.4,1.962.834,2.948,1.242,1.255.52,2.5,1.065,3.753,1.6L585.1,249.2c1.2.512,2.407,1.029,3.614,1.531a1.108,1.108,0,0,0,.628.132,1.416,1.416,0,0,0,1.213-1.535m-9.943,13.755a1.215,1.215,0,0,0,1.125-1.493,1.113,1.113,0,0,0-.758-.811q-3.75-1.6-7.5-3.206c-1.257-.537-2.515-1.074-3.794-1.562a.926.926,0,0,0-.859.073c-.674.513-.989,1.287-.115,1.96a1.957,1.957,0,0,0,.432.235q5.405,2.326,10.814,4.644a1.4,1.4,0,0,0,.655.16m.064-13.276c.052-.163-.06-.21-.174-.257-.683-.285-1.385-.542-2.046-.877-.355-.178-.432.019-.516.247-.5,1.361-1.143,2.663-1.689,4.007-.362.893-.766,1.773-1.155,2.655-.08.183-.058.354.125.409.766.231,1.47.608,2.209.9.137.053.22.034.28-.106.206-.475.472-.936.638-1.418.354-1.028.869-1.984,1.257-3,.254-.657.567-1.3.828-1.955.081-.2.162-.406.244-.609m-28.879-37.969h.007c0,1.187.005,2.375-.006,3.561,0,.233.077.317.3.313.528-.005,1.058-.005,1.588.005.2.005.268-.07.266-.266q0-3.579.008-7.158c0-.188-.067-.247-.248-.243-.553.011-1.106.016-1.658.005-.228-.005-.266.082-.265.291.012,1.164.005,2.326.005,3.491m10.728.074c0-1.188-.007-2.377.005-3.564,0-.237-.068-.309-.3-.3-.376.014-.753,0-1.131-.005-.76-.012-.76-.015-.744.725,0,.048,0,.095,0,.141.011,2.117.026,4.235.026,6.352,0,.325.091.462.438.447a12.765,12.765,0,0,1,1.375.021c.265.018.339-.056.336-.325-.015-1.165-.007-2.33-.007-3.492m-4.3-.048h0c0-1.175-.007-2.351.005-3.528,0-.213-.041-.292-.266-.287-.517.012-1.036.01-1.553-.005-.254-.01-.34.059-.339.333q.027,3.509.015,7.019c0,.257.077.328.318.322.494-.012.988-.019,1.482,0,.262.011.343-.063.339-.329-.014-1.177-.005-2.353-.005-3.528m8.542.01h0c0-1.175,0-2.351,0-3.527,0-.118.088-.306-.166-.3q-.864,0-1.729,0c-.169,0-.221.081-.22.243q.014,3.563.021,7.127c0,.243.117.3.324.3.483,0,.966-.01,1.448.018.261.014.339-.049.335-.322-.016-1.177-.007-2.353-.007-3.531m-17.094.011h0c0-1.153-.01-2.305.007-3.457,0-.3-.1-.388-.384-.377a6.207,6.207,0,0,0-.984.055.787.787,0,0,0-.686.829q0,2.966,0,5.929a.821.821,0,0,0,.875.86c.235,0,.472-.018.705,0,.442.043.468.026.468-.419v-3.425m19.279-.043h0c0,.974,0,1.949,0,2.923,0,.93,0,.93.947.939.794,0,1.05-.242,1.057-1.051.007-.774,0-1.549-.005-2.325-.007-1.14,0-2.278-.027-3.418a.758.758,0,0,0-.783-.811c-.292-.025-.589,0-.88-.029-.257-.023-.317.075-.314.32.011,1.15,0,2.3,0,3.453m27.748,2.6a.813.813,0,0,0-.509-.815,26.2,26.2,0,0,0-2.562-1.077.885.885,0,0,0-1.212.527c-.214.458-.408.926-.639,1.372-.132.255-.075.366.18.473,1.223.515,2.443,1.035,3.656,1.571.215.095.3.084.39-.141.158-.416.344-.822.515-1.235a1.853,1.853,0,0,0,.183-.675" transform="translate(201.128 71.85)" fill="#1e1f21"/>
              <path id="Trazado_818776" data-name="Trazado 818776" d="M551.79,220.527c.059.151.108.3.178.45a.983.983,0,0,0,.812.627,7.914,7.914,0,0,0,.844.04q10.734.008,21.467,0c.351,0,.421.106.417.435-.018,1.541-.011,3.082,0,4.623a1.557,1.557,0,0,1-.132.646c-.248.568-.49,1.142-.726,1.717-.089.218-.185.259-.423.155a5.429,5.429,0,0,0-2.406-.722,3.5,3.5,0,0,0-2.587,1.19.614.614,0,0,1-.528.2q-10.788-.006-21.573-.007c-.353,0-.707,0-1.059.022a1.09,1.09,0,0,0-1.146,1.076,1.152,1.152,0,0,0,1.227,1.036l21.009.01c.353,0,.773-.114,1.037.038.239.137.159.607.259.921a4.374,4.374,0,0,0,.832,1.5,2.109,2.109,0,0,1,.125.2,7.563,7.563,0,0,1-1.3-.018q-5.49.006-10.981,0-5.261,0-10.521,0a7.4,7.4,0,0,0-.74.045,1.043,1.043,0,0,0-.93.838,1.018,1.018,0,0,0,.44,1.039.857.857,0,0,0,.612.217c9.227.041,18.454,0,27.681.01a4.826,4.826,0,0,1,1.855.642c.129.055.076.108.044.184-.287.668-.575,1.337-.852,2.009-.062.148-.167.14-.285.139-10.745-.1-21.49,0-32.235-.045-.254,0-.32-.075-.318-.318q.014-8.752.012-17.5c0-.226.076-.277.283-.277,2.237,0,4.472-.008,6.709-.005a1.161,1.161,0,0,0,1.158-.821c.03-.1.067-.195.1-.292a4.873,4.873,0,0,0,1.64,0m6.931,4.578v0H547.775c-.587,0-1.176-.006-1.765.007a1.154,1.154,0,0,0-1.072.81,1.247,1.247,0,0,0,.5,1.113,1.489,1.489,0,0,0,.944.188q12.358.006,24.717.008a2.162,2.162,0,0,0,.663-.077.926.926,0,0,0,.686-.693,1.016,1.016,0,0,0-.287-1.065,1.688,1.688,0,0,0-1.187-.294H558.721" transform="translate(201.705 82.086)" fill="#f8f9fb"/>
              <path id="Trazado_818777" data-name="Trazado 818777" d="M551.794,224.034a4.837,4.837,0,0,1-1.64,0c-.21-.38-.366-.8-.848-.944a3.019,3.019,0,0,0-.843-.1c-1.977,0-3.953,0-5.931-.007-.774,0-.666.128-.627-.687a7.112,7.112,0,0,1,.746-2.838,6.2,6.2,0,0,1,1.159-1.614c1.162-1.183,2.336-2.355,3.5-3.534.719-.727,1.428-1.464,2.15-2.189.29-.29.6-.557.9-.84a.633.633,0,0,1,.451-.163c.294-.005.589-.007.882-.007,4.753,0,9.507.014,14.26-.01a2.038,2.038,0,0,1,1.686.709c1.026,1.143,2.093,2.253,3.186,3.332,1.171,1.154,2.346,2.3,3.444,3.527a5.919,5.919,0,0,1,1.238,4.152c0,.2-.145.173-.273.172q-3.952,0-7.905-.007-6.9,0-13.8,0c-.118,0-.235,0-.353.008-.875.055-1.116.235-1.385,1.032" transform="translate(201.701 78.579)" fill="#d090b4"/>
              <path id="Trazado_818778" data-name="Trazado 818778" d="M557.744,236.112q7.626,0,15.254,0c.714,0,.7,0,.4.655s-.523,1.3-.8,1.951c-.06.143-.012.4-.387.221a13.876,13.876,0,0,0-2.8-1.149,2.933,2.933,0,0,0-2.3.413,3.34,3.34,0,0,0,.272,5.887c1.061.537,2.167.967,3.245,1.46a15.982,15.982,0,0,0,1.726.672c.092.03.235.051.232.176,0,.1-.135.119-.217.158a5.163,5.163,0,0,1-2.723.541c-.07-.007-.14,0-.211,0-7.226,0-14.454-.037-21.678.033a5.849,5.849,0,0,1-5.746-5.062,40.484,40.484,0,0,1-.114-4.18c-.014-.471.005-.941-.018-1.412-.012-.277.075-.37.358-.366,1.083.012,2.165,0,3.248,0q6.128,0,12.253,0Z" transform="translate(201.704 87.885)" fill="#d090b4"/>
              <path id="Trazado_818779" data-name="Trazado 818779" d="M582.218,236.345a1.416,1.416,0,0,1-1.212,1.537,1.122,1.122,0,0,1-.63-.132c-1.208-.5-2.41-1.021-3.614-1.533s-2.382-1.009-3.573-1.515c-1.252-.532-2.5-1.076-3.753-1.594-.985-.408-1.956-.848-2.948-1.242-.948-.376-1.862-.834-2.794-1.251a1.4,1.4,0,0,1-.526-2.353,1.138,1.138,0,0,1,1.258-.266,21.076,21.076,0,0,1,2.34.956q7.184,3.057,14.358,6.135a2.218,2.218,0,0,1,.86.534.839.839,0,0,1,.233.725" transform="translate(209.462 84.837)" fill="#f8f9fb"/>
              <path id="Trazado_818780" data-name="Trazado 818780" d="M573.058,246.021a1.4,1.4,0,0,1-.655-.162q-5.409-2.316-10.814-4.642a2.028,2.028,0,0,1-.432-.235c-.874-.674-.558-1.448.115-1.961a.935.935,0,0,1,.859-.073c1.279.489,2.537,1.025,3.8,1.562l7.5,3.206a1.111,1.111,0,0,1,.756.811,1.216,1.216,0,0,1-1.125,1.494" transform="translate(208.679 88.917)" fill="#f8f9fb"/>
              <path id="Trazado_818781" data-name="Trazado 818781" d="M571.258,234.734c-.081.2-.163.4-.244.608-.261.66-.574,1.3-.828,1.958-.388,1.011-.9,1.966-1.257,2.994-.166.483-.431.943-.638,1.419-.06.139-.143.159-.28.1-.738-.292-1.442-.668-2.208-.9-.183-.055-.206-.228-.125-.41.39-.882.792-1.761,1.154-2.654.546-1.345,1.188-2.647,1.691-4.008.084-.228.159-.425.516-.246.661.333,1.361.589,2.046.875.112.048.225.092.173.257" transform="translate(210.544 86.927)" fill="#d090b4"/>
              <path id="Trazado_818782" data-name="Trazado 818782" d="M548.689,207.765c0-1.164.005-2.327-.005-3.491,0-.209.037-.3.264-.292.553.011,1.106.007,1.659,0,.181,0,.25.055.248.243q-.01,3.577-.008,7.158c0,.2-.066.27-.267.266-.528-.011-1.058-.01-1.586,0-.225,0-.3-.081-.3-.314.01-1.187,0-2.374,0-3.561Z" transform="translate(204.235 75.926)" fill="#d090b4"/>
              <path id="Trazado_818783" data-name="Trazado 818783" d="M557.094,207.841c0,1.165-.008,2.329.007,3.494,0,.268-.071.343-.336.327a12.425,12.425,0,0,0-1.375-.022c-.347.015-.438-.122-.438-.447,0-2.117-.015-4.235-.026-6.352,0-.047,0-.093,0-.141-.016-.74-.016-.738.744-.726.377.007.755.019,1.129.005.232-.01.3.063.3.3-.012,1.187-.005,2.375-.005,3.564" transform="translate(206.557 75.923)" fill="#d090b4"/>
              <path id="Trazado_818784" data-name="Trazado 818784" d="M553.953,207.794c0,1.176-.008,2.352.005,3.527,0,.268-.077.342-.339.331-.494-.022-.988-.014-1.482,0-.242.006-.32-.067-.32-.324q.01-3.509-.014-7.02c0-.274.085-.342.339-.333.517.018,1.036.019,1.552.007.226-.005.27.074.268.288-.012,1.175-.005,2.351-.005,3.527Z" transform="translate(205.396 75.923)" fill="#d090b4"/>
              <path id="Trazado_818785" data-name="Trazado 818785" d="M560.17,207.805c0,1.176-.01,2.353.007,3.529,0,.274-.074.336-.335.321-.482-.026-.965-.018-1.446-.016-.208,0-.325-.055-.325-.3q0-3.565-.021-7.129c0-.162.051-.242.22-.24q.865.006,1.729,0c.254,0,.165.185.166.3.005,1.176,0,2.353,0,3.529Z" transform="translate(207.721 75.923)" fill="#d090b4"/>
              <path id="Trazado_818786" data-name="Trazado 818786" d="M547.694,207.814v3.422c0,.447-.025.461-.468.42-.233-.022-.469,0-.705-.005a.82.82,0,0,1-.875-.859q0-2.964,0-5.928a.788.788,0,0,1,.686-.83,6.371,6.371,0,0,1,.984-.056c.287-.011.388.077.384.379-.016,1.153-.007,2.305-.007,3.458Z" transform="translate(203.103 75.925)" fill="#d090b4"/>
              <path id="Trazado_818787" data-name="Trazado 818787" d="M561.189,207.764c0-1.151.007-2.3-.005-3.452,0-.243.058-.342.314-.32.292.026.589.005.881.029a.76.76,0,0,1,.784.812c.022,1.139.021,2.278.026,3.417,0,.775.012,1.551.005,2.326-.007.808-.262,1.054-1.055,1.05-.943-.005-.945-.005-.947-.937,0-.974,0-1.95,0-2.924Z" transform="translate(208.887 75.93)" fill="#d090b4"/>
              <path id="Trazado_818788" data-name="Trazado 818788" d="M582.762,209.172a1.852,1.852,0,0,1-.182.675c-.17.413-.357.819-.515,1.235-.085.225-.174.236-.39.141-1.213-.537-2.433-1.057-3.656-1.571-.255-.107-.312-.218-.18-.473.232-.446.425-.914.639-1.372a.885.885,0,0,1,1.212-.527,26.165,26.165,0,0,1,2.562,1.077.813.813,0,0,1,.509.815" transform="translate(215.062 77.127)" fill="#d090b4"/>
              <path id="Trazado_818789" data-name="Trazado 818789" d="M557.9,223.863h12.253a1.688,1.688,0,0,1,1.187.294,1.016,1.016,0,0,1,.287,1.065.926.926,0,0,1-.686.693,2.162,2.162,0,0,1-.663.077q-12.358,0-24.716-.008a1.489,1.489,0,0,1-.944-.188,1.247,1.247,0,0,1-.5-1.113,1.154,1.154,0,0,1,1.072-.81c.589-.012,1.177-.007,1.765-.007H557.9Z" transform="translate(202.527 83.328)" fill="#1e1f21"/>
              <path id="Trazado_818790" data-name="Trazado 818790" d="M534.218,82.645,526.364,96.25H510.621l4.818-2.76s-6.5-11.019-8.432-14.617c-1.238-2.309-2.327-2.906-2.95-3.037,2.768-.008,15.129-.026,17.446-.026,2.621,0,3.079,1.35,3.079,1.35l4.818,8.355Z" transform="translate(187.623 28.219)" fill="#2a7475"/>
              <path id="Trazado_818791" data-name="Trazado 818791" d="M509.866,78.253l3.582,6.1L504.633,99.4l-13.839-7.923s4.757-7.984,5.891-9.869,2.4-4.464,6.53-5.337a7.2,7.2,0,0,1,6.651,1.98" transform="translate(182.687 28.329)" fill="#2a7475"/>
              <path id="Trazado_818792" data-name="Trazado 818792" d="M516.73,131.624l-7.693-13.7,8.033-13.538-.086,5.552s12.8.029,16.875.206c2.617.115,3.686-.517,4.115-.987-1.405,2.385-7.7,13.024-8.88,15.016-1.338,2.255-2.732,1.96-2.732,1.96l-9.644-.119Z" transform="translate(189.477 38.856)" fill="#2a7475"/>
              <path id="Trazado_818793" data-name="Trazado 818793" d="M532.427,113.753l-7.071-.032L516.91,98.461,530.786,90.6s4.438,8.165,5.482,10.1,2.611,4.344,1.257,8.339a7.2,7.2,0,0,1-5.1,4.709" transform="translate(192.408 33.724)" fill="#2a7475"/>
              <path id="Trazado_818794" data-name="Trazado 818794" d="M482.953,92.825l15.709-.161,8.01,13.552-4.828-2.744s-6.176,11.207-8.294,14.7c-1.359,2.239-1.317,3.481-1.113,4.084-1.415-2.378-7.719-13.01-8.9-15.005-1.332-2.257-.4-3.339-.4-3.339l4.742-8.4Z" transform="translate(179.718 34.492)" fill="#2a7475"/>
              <path id="Trazado_818795" data-name="Trazado 818795" d="M491.155,114.439l3.428-6.186,17.441-.069.221,15.945s-9.294-.034-11.494-.049-5.066.2-7.916-2.908a7.2,7.2,0,0,1-1.68-6.734" transform="translate(182.732 40.269)" fill="#2a7475"/>
              <line id="Línea_1043" data-name="Línea 1043" y1="60.791" x2="63.404" transform="translate(663.865 106.905)" fill="none" stroke="#ff0606" stroke-linecap="round" stroke-linejoin="round" stroke-width="4"/>
              <line id="Línea_1044" data-name="Línea 1044" x1="57.395" y1="66.495" transform="translate(666.869 104.053)" fill="none" stroke="#ff0606" stroke-linecap="round" stroke-linejoin="round" stroke-width="4"/>
            </g>
          </g>
        </g>
      </g>
      <path id="Trazado_819071" data-name="Trazado 819071" d="M37.32,0H318.914a37.32,37.32,0,0,1,0,74.641H37.32A37.32,37.32,0,0,1,37.32,0Z" transform="translate(243.765 2749.073)" fill="#dbf9bd"/>
      <path id="Trazado_819072" data-name="Trazado 819072" d="M-82.1-5.205h-2.334V0h-2.93V-14.219h5.283A5.972,5.972,0,0,1-78.2-13.1a3.876,3.876,0,0,1,1.367,3.174,4.374,4.374,0,0,1-.63,2.427A4.3,4.3,0,0,1-79.37-5.947l3.076,5.811V0h-3.145Zm-2.334-2.373h2.363a2.42,2.42,0,0,0,1.709-.562,2.007,2.007,0,0,0,.605-1.548,2.148,2.148,0,0,0-.571-1.582,2.374,2.374,0,0,0-1.753-.576h-2.354ZM-69.927.2A5.187,5.187,0,0,1-73.711-1.23a5.068,5.068,0,0,1-1.46-3.8V-5.3a6.383,6.383,0,0,1,.615-2.847,4.515,4.515,0,0,1,1.743-1.934,4.893,4.893,0,0,1,2.573-.679,4.385,4.385,0,0,1,3.413,1.367,5.555,5.555,0,0,1,1.245,3.877v1.152H-72.31a2.622,2.622,0,0,0,.825,1.66,2.5,2.5,0,0,0,1.743.625,3.046,3.046,0,0,0,2.549-1.182l1.387,1.553a4.237,4.237,0,0,1-1.719,1.4A5.639,5.639,0,0,1-69.927.2Zm-.322-8.682a1.764,1.764,0,0,0-1.362.569,2.946,2.946,0,0,0-.669,1.628h3.926v-.226a2.1,2.1,0,0,0-.508-1.457A1.819,1.819,0,0,0-70.249-8.486ZM-58.257-2.92a.909.909,0,0,0-.513-.815,5.824,5.824,0,0,0-1.646-.532q-3.77-.791-3.77-3.2a2.9,2.9,0,0,1,1.167-2.349,4.708,4.708,0,0,1,3.052-.942,5.067,5.067,0,0,1,3.218.947,2.985,2.985,0,0,1,1.206,2.461h-2.822a1.366,1.366,0,0,0-.391-1,1.653,1.653,0,0,0-1.221-.4,1.689,1.689,0,0,0-1.1.322,1.017,1.017,0,0,0-.391.82.87.87,0,0,0,.444.757,4.571,4.571,0,0,0,1.5.5,12.244,12.244,0,0,1,1.777.474,2.92,2.92,0,0,1,2.236,2.842A2.756,2.756,0,0,1-56.753-.7a5.35,5.35,0,0,1-3.2.894,5.588,5.588,0,0,1-2.358-.474,3.957,3.957,0,0,1-1.616-1.3,3.018,3.018,0,0,1-.586-1.782h2.676a1.473,1.473,0,0,0,.557,1.152,2.208,2.208,0,0,0,1.387.4,2.044,2.044,0,0,0,1.226-.308A.957.957,0,0,0-58.257-2.92ZM-50.718,0H-53.55V-10.566h2.832Zm-3-13.3a1.39,1.39,0,0,1,.425-1.045,1.6,1.6,0,0,1,1.157-.41,1.6,1.6,0,0,1,1.152.41,1.382,1.382,0,0,1,.43,1.045,1.386,1.386,0,0,1-.435,1.055,1.6,1.6,0,0,1-1.147.41,1.6,1.6,0,0,1-1.147-.41A1.386,1.386,0,0,1-53.716-13.3Zm4.883,7.939A6.368,6.368,0,0,1-47.725-9.3a3.6,3.6,0,0,1,3.032-1.465,3.236,3.236,0,0,1,2.549,1.152V-15h2.832V0H-41.86L-42-1.123A3.321,3.321,0,0,1-44.712.2a3.587,3.587,0,0,1-2.993-1.47A6.573,6.573,0,0,1-48.833-5.361Zm2.822.21a4.171,4.171,0,0,0,.518,2.279,1.686,1.686,0,0,0,1.5.792,1.888,1.888,0,0,0,1.846-1.105V-7.362A1.861,1.861,0,0,0-43.97-8.467Q-46.011-8.467-46.011-5.151ZM-30.8-1.074A3.539,3.539,0,0,1-33.687.2a3.338,3.338,0,0,1-2.593-.977,4.169,4.169,0,0,1-.913-2.861v-6.924h2.822v6.834q0,1.652,1.5,1.652a2.038,2.038,0,0,0,1.973-1v-7.489h2.832V0h-2.656Zm4.424-4.307a6.266,6.266,0,0,1,.605-2.8,4.432,4.432,0,0,1,1.743-1.9,5.086,5.086,0,0,1,2.642-.674,4.812,4.812,0,0,1,3.491,1.309A5.252,5.252,0,0,1-16.382-5.9l.02.723a5.523,5.523,0,0,1-1.357,3.9A4.718,4.718,0,0,1-21.362.2,4.742,4.742,0,0,1-25.01-1.27a5.62,5.62,0,0,1-1.362-3.984Zm2.822.2a3.95,3.95,0,0,0,.566,2.3,1.868,1.868,0,0,0,1.621.8,1.873,1.873,0,0,0,1.6-.787,4.322,4.322,0,0,0,.576-2.518,3.91,3.91,0,0,0-.576-2.289,1.873,1.873,0,0,0-1.621-.812,1.842,1.842,0,0,0-1.6.807A4.395,4.395,0,0,0-23.55-5.181ZM-8.9-2.92a.909.909,0,0,0-.513-.815,5.824,5.824,0,0,0-1.646-.532q-3.77-.791-3.77-3.2a2.9,2.9,0,0,1,1.167-2.349,4.708,4.708,0,0,1,3.052-.942,5.067,5.067,0,0,1,3.218.947A2.985,2.985,0,0,1-6.187-7.354H-9.009a1.366,1.366,0,0,0-.391-1,1.653,1.653,0,0,0-1.221-.4,1.689,1.689,0,0,0-1.1.322,1.017,1.017,0,0,0-.391.82.87.87,0,0,0,.444.757,4.571,4.571,0,0,0,1.5.5,12.244,12.244,0,0,1,1.777.474A2.92,2.92,0,0,1-6.157-3.037,2.756,2.756,0,0,1-7.4-.7,5.35,5.35,0,0,1-10.6.2a5.588,5.588,0,0,1-2.358-.474,3.957,3.957,0,0,1-1.616-1.3,3.018,3.018,0,0,1-.586-1.782h2.676a1.473,1.473,0,0,0,.557,1.152,2.208,2.208,0,0,0,1.387.4,2.044,2.044,0,0,0,1.226-.308A.957.957,0,0,0-8.9-2.92ZM.2-5.381a6.266,6.266,0,0,1,.605-2.8,4.432,4.432,0,0,1,1.743-1.9,5.086,5.086,0,0,1,2.642-.674A4.812,4.812,0,0,1,8.682-9.453,5.252,5.252,0,0,1,10.19-5.9l.02.723a5.523,5.523,0,0,1-1.357,3.9A4.718,4.718,0,0,1,5.21.2,4.742,4.742,0,0,1,1.563-1.27,5.62,5.62,0,0,1,.2-5.254Zm2.822.2a3.95,3.95,0,0,0,.566,2.3,1.868,1.868,0,0,0,1.621.8,1.873,1.873,0,0,0,1.6-.787,4.322,4.322,0,0,0,.576-2.518,3.91,3.91,0,0,0-.576-2.289A1.873,1.873,0,0,0,5.19-8.486a1.842,1.842,0,0,0-1.6.807A4.395,4.395,0,0,0,3.022-5.181ZM17.886-7.92A7.667,7.667,0,0,0,16.87-8a2.067,2.067,0,0,0-2.1,1.084V0H11.948V-10.566h2.666l.078,1.26a2.615,2.615,0,0,1,2.354-1.455,2.957,2.957,0,0,1,.879.127Zm.762,2.559A6.193,6.193,0,0,1,19.8-9.277a3.75,3.75,0,0,1,3.12-1.484A3.289,3.289,0,0,1,25.63-9.57l.117-1h2.559V-.352a4.516,4.516,0,0,1-.63,2.412A4.045,4.045,0,0,1,25.9,3.623a6.231,6.231,0,0,1-2.676.537A5.794,5.794,0,0,1,20.962,3.7a4.021,4.021,0,0,1-1.67-1.2L20.542.781A3.306,3.306,0,0,0,23.1,1.963a2.42,2.42,0,0,0,1.748-.6,2.253,2.253,0,0,0,.625-1.7V-.908A3.264,3.264,0,0,1,22.905.2a3.74,3.74,0,0,1-3.081-1.489,6.191,6.191,0,0,1-1.177-3.95Zm2.822.21A3.856,3.856,0,0,0,22.046-2.9a1.833,1.833,0,0,0,1.582.817,1.96,1.96,0,0,0,1.846-.968V-7.5a1.955,1.955,0,0,0-1.826-.968,1.844,1.844,0,0,0-1.6.831A4.346,4.346,0,0,0,21.47-5.151ZM36.6,0a3.134,3.134,0,0,1-.283-.947A3.415,3.415,0,0,1,33.647.2a3.752,3.752,0,0,1-2.573-.9,2.89,2.89,0,0,1-1.021-2.266A2.986,2.986,0,0,1,31.3-5.547a6.144,6.144,0,0,1,3.6-.908h1.3v-.605a1.741,1.741,0,0,0-.376-1.172,1.479,1.479,0,0,0-1.187-.439,1.682,1.682,0,0,0-1.118.342,1.161,1.161,0,0,0-.405.938H30.288a2.835,2.835,0,0,1,.566-1.7,3.744,3.744,0,0,1,1.6-1.226,5.837,5.837,0,0,1,2.324-.444,4.611,4.611,0,0,1,3.1.981,3.433,3.433,0,0,1,1.147,2.759v4.58a5.052,5.052,0,0,0,.42,2.275V0ZM34.263-1.963a2.431,2.431,0,0,0,1.152-.278,1.828,1.828,0,0,0,.781-.747V-4.8H35.142q-2.119,0-2.256,1.465l-.01.166a1.13,1.13,0,0,0,.371.869A1.441,1.441,0,0,0,34.263-1.963ZM35.337-15h3.076l-2.705,3.027H33.413Zm8.457,4.434.088,1.221a3.689,3.689,0,0,1,3.037-1.416,3.066,3.066,0,0,1,2.5.986,4.6,4.6,0,0,1,.84,2.949V0H47.437V-6.758a1.831,1.831,0,0,0-.391-1.3,1.749,1.749,0,0,0-1.3-.405A1.942,1.942,0,0,0,43.96-7.451V0H41.138V-10.566ZM55.376,0H52.544V-10.566h2.832Zm-3-13.3a1.39,1.39,0,0,1,.425-1.045,1.6,1.6,0,0,1,1.157-.41,1.6,1.6,0,0,1,1.152.41,1.382,1.382,0,0,1,.43,1.045,1.386,1.386,0,0,1-.435,1.055,1.6,1.6,0,0,1-1.147.41,1.6,1.6,0,0,1-1.147-.41A1.386,1.386,0,0,1,52.378-13.3ZM62.095-2.08a1.851,1.851,0,0,0,1.27-.43,1.506,1.506,0,0,0,.508-1.143h2.646a3.62,3.62,0,0,1-.586,1.968A3.866,3.866,0,0,1,64.355-.3,4.936,4.936,0,0,1,62.144.2a4.587,4.587,0,0,1-3.574-1.44,5.7,5.7,0,0,1-1.309-3.979V-5.41a5.635,5.635,0,0,1,1.3-3.9,4.534,4.534,0,0,1,3.564-1.455A4.444,4.444,0,0,1,65.3-9.634a3.994,3.994,0,0,1,1.216,3H63.872a1.939,1.939,0,0,0-.508-1.34,1.693,1.693,0,0,0-1.289-.515,1.7,1.7,0,0,0-1.489.719,4.166,4.166,0,0,0-.5,2.333v.293a4.219,4.219,0,0,0,.5,2.347A1.721,1.721,0,0,0,62.095-2.08Zm5.6-3.3a6.266,6.266,0,0,1,.605-2.8,4.432,4.432,0,0,1,1.743-1.9,5.086,5.086,0,0,1,2.642-.674,4.812,4.812,0,0,1,3.491,1.309A5.252,5.252,0,0,1,77.681-5.9l.02.723a5.523,5.523,0,0,1-1.357,3.9A4.718,4.718,0,0,1,72.7.2,4.742,4.742,0,0,1,69.053-1.27,5.62,5.62,0,0,1,67.69-5.254Zm2.822.2a3.95,3.95,0,0,0,.566,2.3,1.868,1.868,0,0,0,1.621.8,1.873,1.873,0,0,0,1.6-.787,4.322,4.322,0,0,0,.576-2.518A3.91,3.91,0,0,0,74.3-7.675a1.873,1.873,0,0,0-1.621-.812,1.842,1.842,0,0,0-1.6.807A4.395,4.395,0,0,0,70.513-5.181ZM85.161-2.92a.909.909,0,0,0-.513-.815A5.824,5.824,0,0,0,83-4.268q-3.77-.791-3.77-3.2A2.9,2.9,0,0,1,80.4-9.819a4.708,4.708,0,0,1,3.052-.942,5.067,5.067,0,0,1,3.218.947,2.985,2.985,0,0,1,1.206,2.461H85.054a1.366,1.366,0,0,0-.391-1,1.653,1.653,0,0,0-1.221-.4,1.689,1.689,0,0,0-1.1.322,1.017,1.017,0,0,0-.391.82.87.87,0,0,0,.444.757,4.571,4.571,0,0,0,1.5.5,12.244,12.244,0,0,1,1.777.474,2.92,2.92,0,0,1,2.236,2.842A2.756,2.756,0,0,1,86.665-.7a5.35,5.35,0,0,1-3.2.894A5.588,5.588,0,0,1,81.1-.278a3.957,3.957,0,0,1-1.616-1.3A3.018,3.018,0,0,1,78.9-3.359h2.676a1.473,1.473,0,0,0,.557,1.152,2.208,2.208,0,0,0,1.387.4,2.044,2.044,0,0,0,1.226-.308A.957.957,0,0,0,85.161-2.92Z" transform="translate(378.512 2793.354)" fill="#12263f"/>
      <path id="Trazado_819073" data-name="Trazado 819073" d="M37.32,0H318.914a37.32,37.32,0,0,1,0,74.641H37.32A37.32,37.32,0,0,1,37.32,0Z" transform="translate(958.765 2745.462)" fill="#dbf9bd"/>
      <path id="Trazado_819074" data-name="Trazado 819074" d="M-85.571-5.205h-2.334V0h-2.93V-14.219h5.283A5.972,5.972,0,0,1-81.665-13.1,3.876,3.876,0,0,1-80.3-9.922a4.374,4.374,0,0,1-.63,2.427,4.3,4.3,0,0,1-1.909,1.548l3.076,5.811V0h-3.145Zm-2.334-2.373h2.363a2.42,2.42,0,0,0,1.709-.562,2.007,2.007,0,0,0,.605-1.548A2.148,2.148,0,0,0-83.8-11.27a2.374,2.374,0,0,0-1.753-.576h-2.354ZM-73.394.2A5.187,5.187,0,0,1-77.178-1.23a5.068,5.068,0,0,1-1.46-3.8V-5.3a6.383,6.383,0,0,1,.615-2.847,4.515,4.515,0,0,1,1.743-1.934,4.893,4.893,0,0,1,2.573-.679,4.385,4.385,0,0,1,3.413,1.367,5.555,5.555,0,0,1,1.245,3.877v1.152h-6.729a2.622,2.622,0,0,0,.825,1.66,2.5,2.5,0,0,0,1.743.625,3.046,3.046,0,0,0,2.549-1.182l1.387,1.553a4.237,4.237,0,0,1-1.719,1.4A5.639,5.639,0,0,1-73.394.2Zm-.322-8.682a1.764,1.764,0,0,0-1.362.569,2.946,2.946,0,0,0-.669,1.628h3.926v-.226a2.1,2.1,0,0,0-.508-1.457A1.819,1.819,0,0,0-73.716-8.486ZM-61.724-2.92a.909.909,0,0,0-.513-.815,5.824,5.824,0,0,0-1.646-.532q-3.77-.791-3.77-3.2a2.9,2.9,0,0,1,1.167-2.349,4.708,4.708,0,0,1,3.052-.942,5.067,5.067,0,0,1,3.218.947,2.985,2.985,0,0,1,1.206,2.461h-2.822a1.366,1.366,0,0,0-.391-1,1.653,1.653,0,0,0-1.221-.4,1.689,1.689,0,0,0-1.1.322,1.017,1.017,0,0,0-.391.82.87.87,0,0,0,.444.757,4.571,4.571,0,0,0,1.5.5,12.244,12.244,0,0,1,1.777.474,2.92,2.92,0,0,1,2.236,2.842A2.756,2.756,0,0,1-60.22-.7a5.35,5.35,0,0,1-3.2.894,5.588,5.588,0,0,1-2.358-.474,3.957,3.957,0,0,1-1.616-1.3,3.018,3.018,0,0,1-.586-1.782h2.676a1.473,1.473,0,0,0,.557,1.152,2.208,2.208,0,0,0,1.387.4,2.044,2.044,0,0,0,1.226-.308A.957.957,0,0,0-61.724-2.92ZM-54.185,0h-2.832V-10.566h2.832Zm-3-13.3a1.39,1.39,0,0,1,.425-1.045,1.6,1.6,0,0,1,1.157-.41,1.6,1.6,0,0,1,1.152.41,1.382,1.382,0,0,1,.43,1.045,1.386,1.386,0,0,1-.435,1.055,1.6,1.6,0,0,1-1.147.41,1.6,1.6,0,0,1-1.147-.41A1.386,1.386,0,0,1-57.183-13.3ZM-52.3-5.361A6.368,6.368,0,0,1-51.191-9.3a3.6,3.6,0,0,1,3.032-1.465A3.236,3.236,0,0,1-45.61-9.609V-15h2.832V0h-2.549l-.137-1.123A3.321,3.321,0,0,1-48.179.2a3.587,3.587,0,0,1-2.993-1.47A6.573,6.573,0,0,1-52.3-5.361Zm2.822.21a4.171,4.171,0,0,0,.518,2.279,1.686,1.686,0,0,0,1.5.792A1.888,1.888,0,0,0-45.61-3.185V-7.362a1.861,1.861,0,0,0-1.826-1.105Q-49.478-8.467-49.478-5.151Zm15.215,4.077A3.539,3.539,0,0,1-37.153.2a3.338,3.338,0,0,1-2.593-.977,4.169,4.169,0,0,1-.913-2.861v-6.924h2.822v6.834q0,1.652,1.5,1.652a2.038,2.038,0,0,0,1.973-1v-7.489h2.832V0h-2.656Zm4.424-4.307a6.266,6.266,0,0,1,.605-2.8,4.432,4.432,0,0,1,1.743-1.9,5.086,5.086,0,0,1,2.642-.674,4.812,4.812,0,0,1,3.491,1.309A5.252,5.252,0,0,1-19.849-5.9l.02.723a5.523,5.523,0,0,1-1.357,3.9A4.718,4.718,0,0,1-24.829.2,4.742,4.742,0,0,1-28.477-1.27a5.62,5.62,0,0,1-1.362-3.984Zm2.822.2a3.95,3.95,0,0,0,.566,2.3,1.868,1.868,0,0,0,1.621.8,1.873,1.873,0,0,0,1.6-.787,4.322,4.322,0,0,0,.576-2.518,3.91,3.91,0,0,0-.576-2.289,1.873,1.873,0,0,0-1.621-.812,1.842,1.842,0,0,0-1.6.807A4.395,4.395,0,0,0-27.017-5.181ZM-12.368-2.92a.909.909,0,0,0-.513-.815,5.824,5.824,0,0,0-1.646-.532q-3.77-.791-3.77-3.2a2.9,2.9,0,0,1,1.167-2.349,4.708,4.708,0,0,1,3.052-.942,5.067,5.067,0,0,1,3.218.947A2.985,2.985,0,0,1-9.653-7.354h-2.822a1.366,1.366,0,0,0-.391-1,1.653,1.653,0,0,0-1.221-.4,1.689,1.689,0,0,0-1.1.322,1.017,1.017,0,0,0-.391.82.87.87,0,0,0,.444.757,4.571,4.571,0,0,0,1.5.5,12.244,12.244,0,0,1,1.777.474A2.92,2.92,0,0,1-9.624-3.037,2.756,2.756,0,0,1-10.864-.7a5.35,5.35,0,0,1-3.2.894,5.588,5.588,0,0,1-2.358-.474,3.957,3.957,0,0,1-1.616-1.3,3.018,3.018,0,0,1-.586-1.782h2.676A1.473,1.473,0,0,0-15.4-2.207a2.208,2.208,0,0,0,1.387.4,2.044,2.044,0,0,0,1.226-.308A.957.957,0,0,0-12.368-2.92ZM2.036.2A5.187,5.187,0,0,1-1.748-1.23a5.068,5.068,0,0,1-1.46-3.8V-5.3a6.383,6.383,0,0,1,.615-2.847A4.515,4.515,0,0,1-.85-10.083a4.893,4.893,0,0,1,2.573-.679A4.385,4.385,0,0,1,5.137-9.395,5.555,5.555,0,0,1,6.382-5.518v1.152H-.347a2.622,2.622,0,0,0,.825,1.66,2.5,2.5,0,0,0,1.743.625A3.046,3.046,0,0,0,4.771-3.262L6.157-1.709a4.237,4.237,0,0,1-1.719,1.4A5.639,5.639,0,0,1,2.036.2ZM1.714-8.486a1.764,1.764,0,0,0-1.362.569A2.946,2.946,0,0,0-.317-6.289H3.608v-.226A2.1,2.1,0,0,0,3.1-7.971,1.819,1.819,0,0,0,1.714-8.486ZM13.706-2.92a.909.909,0,0,0-.513-.815,5.824,5.824,0,0,0-1.646-.532q-3.77-.791-3.77-3.2A2.9,2.9,0,0,1,8.945-9.819,4.708,4.708,0,0,1,12-10.762a5.067,5.067,0,0,1,3.218.947,2.985,2.985,0,0,1,1.206,2.461H13.6a1.366,1.366,0,0,0-.391-1,1.653,1.653,0,0,0-1.221-.4,1.689,1.689,0,0,0-1.1.322,1.017,1.017,0,0,0-.391.82.87.87,0,0,0,.444.757,4.571,4.571,0,0,0,1.5.5,12.244,12.244,0,0,1,1.777.474A2.92,2.92,0,0,1,16.45-3.037,2.756,2.756,0,0,1,15.21-.7a5.35,5.35,0,0,1-3.2.894A5.588,5.588,0,0,1,9.648-.278a3.957,3.957,0,0,1-1.616-1.3,3.018,3.018,0,0,1-.586-1.782h2.676a1.473,1.473,0,0,0,.557,1.152,2.208,2.208,0,0,0,1.387.4,2.044,2.044,0,0,0,1.226-.308A.957.957,0,0,0,13.706-2.92ZM27.778-5.186A6.337,6.337,0,0,1,26.67-1.274,3.554,3.554,0,0,1,23.677.2,3.292,3.292,0,0,1,21.089-.918v4.98H18.267V-10.566h2.617l.1,1.035a3.317,3.317,0,0,1,2.676-1.23,3.578,3.578,0,0,1,3.037,1.445,6.509,6.509,0,0,1,1.084,3.984Zm-2.822-.205a4.159,4.159,0,0,0-.522-2.275,1.7,1.7,0,0,0-1.519-.8,1.848,1.848,0,0,0-1.826,1.016v4.326A1.879,1.879,0,0,0,22.935-2.08Q24.956-2.08,24.956-5.391ZM34.39.2A5.187,5.187,0,0,1,30.605-1.23a5.068,5.068,0,0,1-1.46-3.8V-5.3a6.383,6.383,0,0,1,.615-2.847A4.515,4.515,0,0,1,31.5-10.083a4.893,4.893,0,0,1,2.573-.679A4.385,4.385,0,0,1,37.49-9.395a5.555,5.555,0,0,1,1.245,3.877v1.152H32.007a2.622,2.622,0,0,0,.825,1.66,2.5,2.5,0,0,0,1.743.625,3.046,3.046,0,0,0,2.549-1.182l1.387,1.553a4.237,4.237,0,0,1-1.719,1.4A5.639,5.639,0,0,1,34.39.2Zm-.322-8.682a1.764,1.764,0,0,0-1.362.569,2.946,2.946,0,0,0-.669,1.628h3.926v-.226a2.1,2.1,0,0,0-.508-1.457A1.819,1.819,0,0,0,34.067-8.486ZM44.731-2.08A1.851,1.851,0,0,0,46-2.51a1.506,1.506,0,0,0,.508-1.143h2.646a3.62,3.62,0,0,1-.586,1.968A3.866,3.866,0,0,1,46.992-.3,4.936,4.936,0,0,1,44.78.2a4.587,4.587,0,0,1-3.574-1.44A5.7,5.7,0,0,1,39.9-5.225V-5.41a5.635,5.635,0,0,1,1.3-3.9,4.534,4.534,0,0,1,3.564-1.455,4.444,4.444,0,0,1,3.179,1.128,3.994,3.994,0,0,1,1.216,3H46.509A1.939,1.939,0,0,0,46-7.971a1.693,1.693,0,0,0-1.289-.515,1.7,1.7,0,0,0-1.489.719,4.166,4.166,0,0,0-.5,2.333v.293a4.219,4.219,0,0,0,.5,2.347A1.721,1.721,0,0,0,44.731-2.08ZM53.745,0H50.913V-10.566h2.832Zm-3-13.3a1.39,1.39,0,0,1,.425-1.045,1.6,1.6,0,0,1,1.157-.41,1.6,1.6,0,0,1,1.152.41,1.382,1.382,0,0,1,.43,1.045,1.386,1.386,0,0,1-.435,1.055,1.6,1.6,0,0,1-1.147.41,1.6,1.6,0,0,1-1.147-.41A1.386,1.386,0,0,1,50.747-13.3ZM62.192,0a3.134,3.134,0,0,1-.283-.947A3.415,3.415,0,0,1,59.243.2,3.752,3.752,0,0,1,56.67-.7a2.89,2.89,0,0,1-1.021-2.266,2.986,2.986,0,0,1,1.245-2.578,6.144,6.144,0,0,1,3.6-.908h1.3v-.605a1.741,1.741,0,0,0-.376-1.172,1.479,1.479,0,0,0-1.187-.439,1.682,1.682,0,0,0-1.118.342,1.161,1.161,0,0,0-.405.938H55.884a2.835,2.835,0,0,1,.566-1.7,3.744,3.744,0,0,1,1.6-1.226,5.837,5.837,0,0,1,2.324-.444,4.611,4.611,0,0,1,3.1.981,3.433,3.433,0,0,1,1.147,2.759v4.58a5.052,5.052,0,0,0,.42,2.275V0ZM59.858-1.963a2.431,2.431,0,0,0,1.152-.278,1.828,1.828,0,0,0,.781-.747V-4.8H60.737q-2.119,0-2.256,1.465l-.01.166a1.13,1.13,0,0,0,.371.869A1.441,1.441,0,0,0,59.858-1.963ZM69.771,0H66.938V-15h2.832Zm7.188.2A5.187,5.187,0,0,1,73.174-1.23a5.068,5.068,0,0,1-1.46-3.8V-5.3a6.383,6.383,0,0,1,.615-2.847,4.515,4.515,0,0,1,1.743-1.934,4.893,4.893,0,0,1,2.573-.679,4.385,4.385,0,0,1,3.413,1.367A5.555,5.555,0,0,1,81.3-5.518v1.152H74.575a2.622,2.622,0,0,0,.825,1.66,2.5,2.5,0,0,0,1.743.625,3.046,3.046,0,0,0,2.549-1.182l1.387,1.553a4.237,4.237,0,0,1-1.719,1.4A5.639,5.639,0,0,1,76.958.2Zm-.322-8.682a1.764,1.764,0,0,0-1.362.569A2.946,2.946,0,0,0,74.6-6.289H78.53v-.226a2.1,2.1,0,0,0-.508-1.457A1.819,1.819,0,0,0,76.636-8.486ZM88.628-2.92a.909.909,0,0,0-.513-.815,5.824,5.824,0,0,0-1.646-.532q-3.77-.791-3.77-3.2a2.9,2.9,0,0,1,1.167-2.349,4.708,4.708,0,0,1,3.052-.942,5.067,5.067,0,0,1,3.218.947,2.985,2.985,0,0,1,1.206,2.461H88.521a1.366,1.366,0,0,0-.391-1,1.653,1.653,0,0,0-1.221-.4,1.689,1.689,0,0,0-1.1.322,1.017,1.017,0,0,0-.391.82.87.87,0,0,0,.444.757,4.571,4.571,0,0,0,1.5.5,12.244,12.244,0,0,1,1.777.474,2.92,2.92,0,0,1,2.236,2.842A2.756,2.756,0,0,1,90.132-.7a5.35,5.35,0,0,1-3.2.894A5.588,5.588,0,0,1,84.57-.278a3.957,3.957,0,0,1-1.616-1.3,3.018,3.018,0,0,1-.586-1.782h2.676A1.473,1.473,0,0,0,85.6-2.207a2.208,2.208,0,0,0,1.387.4,2.044,2.044,0,0,0,1.226-.308A.957.957,0,0,0,88.628-2.92Z" transform="translate(1147.076 2789.743)" fill="#12263f"/>
      <path id="Trazado_819075" data-name="Trazado 819075" d="M37.32,0H318.914a37.32,37.32,0,0,1,0,74.641H37.32A37.32,37.32,0,0,1,37.32,0Z" transform="translate(958.765 2452.014)" fill="#dbf9bd"/>
      <path id="Trazado_819076" data-name="Trazado 819076" d="M-100.19-5.205h-2.334V0h-2.93V-14.219h5.283A5.972,5.972,0,0,1-96.284-13.1a3.876,3.876,0,0,1,1.367,3.174,4.374,4.374,0,0,1-.63,2.427,4.3,4.3,0,0,1-1.909,1.548L-94.38-.137V0h-3.145Zm-2.334-2.373h2.363a2.42,2.42,0,0,0,1.709-.562,2.007,2.007,0,0,0,.605-1.548,2.148,2.148,0,0,0-.571-1.582,2.374,2.374,0,0,0-1.753-.576h-2.354ZM-88.013.2A5.187,5.187,0,0,1-91.8-1.23a5.068,5.068,0,0,1-1.46-3.8V-5.3a6.383,6.383,0,0,1,.615-2.847A4.515,4.515,0,0,1-90.9-10.083a4.893,4.893,0,0,1,2.573-.679,4.385,4.385,0,0,1,3.413,1.367,5.555,5.555,0,0,1,1.245,3.877v1.152H-90.4a2.622,2.622,0,0,0,.825,1.66,2.5,2.5,0,0,0,1.743.625,3.046,3.046,0,0,0,2.549-1.182l1.387,1.553a4.237,4.237,0,0,1-1.719,1.4A5.639,5.639,0,0,1-88.013.2Zm-.322-8.682a1.764,1.764,0,0,0-1.362.569,2.946,2.946,0,0,0-.669,1.628h3.926v-.226a2.1,2.1,0,0,0-.508-1.457A1.819,1.819,0,0,0-88.335-8.486ZM-76.343-2.92a.909.909,0,0,0-.513-.815A5.824,5.824,0,0,0-78.5-4.268q-3.77-.791-3.77-3.2A2.9,2.9,0,0,1-81.1-9.819a4.708,4.708,0,0,1,3.052-.942,5.067,5.067,0,0,1,3.218.947,2.985,2.985,0,0,1,1.206,2.461H-76.45a1.366,1.366,0,0,0-.391-1,1.653,1.653,0,0,0-1.221-.4,1.689,1.689,0,0,0-1.1.322,1.017,1.017,0,0,0-.391.82.87.87,0,0,0,.444.757,4.571,4.571,0,0,0,1.5.5,12.244,12.244,0,0,1,1.777.474A2.92,2.92,0,0,1-73.6-3.037,2.756,2.756,0,0,1-74.839-.7a5.35,5.35,0,0,1-3.2.894A5.588,5.588,0,0,1-80.4-.278a3.957,3.957,0,0,1-1.616-1.3A3.018,3.018,0,0,1-82.6-3.359h2.676a1.473,1.473,0,0,0,.557,1.152,2.208,2.208,0,0,0,1.387.4,2.044,2.044,0,0,0,1.226-.308A.957.957,0,0,0-76.343-2.92ZM-68.8,0h-2.832V-10.566H-68.8Zm-3-13.3a1.39,1.39,0,0,1,.425-1.045,1.6,1.6,0,0,1,1.157-.41,1.6,1.6,0,0,1,1.152.41,1.382,1.382,0,0,1,.43,1.045,1.386,1.386,0,0,1-.435,1.055,1.6,1.6,0,0,1-1.147.41,1.6,1.6,0,0,1-1.147-.41A1.386,1.386,0,0,1-71.8-13.3Zm4.883,7.939A6.368,6.368,0,0,1-65.811-9.3a3.6,3.6,0,0,1,3.032-1.465,3.236,3.236,0,0,1,2.549,1.152V-15H-57.4V0h-2.549l-.137-1.123A3.321,3.321,0,0,1-62.8.2a3.587,3.587,0,0,1-2.993-1.47A6.573,6.573,0,0,1-66.919-5.361Zm2.822.21a4.171,4.171,0,0,0,.518,2.279,1.686,1.686,0,0,0,1.5.792,1.888,1.888,0,0,0,1.846-1.105V-7.362a1.861,1.861,0,0,0-1.826-1.105Q-64.1-8.467-64.1-5.151Zm15.215,4.077A3.539,3.539,0,0,1-51.772.2a3.338,3.338,0,0,1-2.593-.977,4.169,4.169,0,0,1-.913-2.861v-6.924h2.822v6.834q0,1.652,1.5,1.652a2.038,2.038,0,0,0,1.973-1v-7.489h2.832V0H-48.8Zm4.424-4.307a6.267,6.267,0,0,1,.605-2.8,4.432,4.432,0,0,1,1.743-1.9,5.086,5.086,0,0,1,2.642-.674,4.812,4.812,0,0,1,3.491,1.309A5.252,5.252,0,0,1-34.468-5.9l.02.723a5.523,5.523,0,0,1-1.357,3.9A4.718,4.718,0,0,1-39.448.2,4.742,4.742,0,0,1-43.1-1.27a5.62,5.62,0,0,1-1.362-3.984Zm2.822.2a3.95,3.95,0,0,0,.566,2.3,1.868,1.868,0,0,0,1.621.8,1.873,1.873,0,0,0,1.6-.787,4.322,4.322,0,0,0,.576-2.518,3.91,3.91,0,0,0-.576-2.289,1.873,1.873,0,0,0-1.621-.812,1.842,1.842,0,0,0-1.6.807A4.395,4.395,0,0,0-41.636-5.181ZM-26.987-2.92a.909.909,0,0,0-.513-.815,5.824,5.824,0,0,0-1.646-.532q-3.77-.791-3.77-3.2a2.9,2.9,0,0,1,1.167-2.349,4.708,4.708,0,0,1,3.052-.942,5.067,5.067,0,0,1,3.218.947,2.985,2.985,0,0,1,1.206,2.461h-2.822a1.366,1.366,0,0,0-.391-1,1.653,1.653,0,0,0-1.221-.4,1.689,1.689,0,0,0-1.1.322,1.017,1.017,0,0,0-.391.82.87.87,0,0,0,.444.757,4.571,4.571,0,0,0,1.5.5,12.244,12.244,0,0,1,1.777.474,2.92,2.92,0,0,1,2.236,2.842A2.756,2.756,0,0,1-25.483-.7a5.35,5.35,0,0,1-3.2.894,5.588,5.588,0,0,1-2.358-.474,3.957,3.957,0,0,1-1.616-1.3,3.018,3.018,0,0,1-.586-1.782h2.676a1.473,1.473,0,0,0,.557,1.152,2.208,2.208,0,0,0,1.387.4A2.044,2.044,0,0,0-27.4-2.114.957.957,0,0,0-26.987-2.92Zm12.139-7.646.088,1.221a3.689,3.689,0,0,1,3.037-1.416,3.066,3.066,0,0,1,2.5.986,4.6,4.6,0,0,1,.84,2.949V0h-2.822V-6.758a1.831,1.831,0,0,0-.391-1.3,1.749,1.749,0,0,0-1.3-.405,1.942,1.942,0,0,0-1.787,1.016V0H-17.5V-10.566Zm8.164,5.186a6.266,6.266,0,0,1,.605-2.8,4.432,4.432,0,0,1,1.743-1.9,5.086,5.086,0,0,1,2.642-.674A4.812,4.812,0,0,1,1.8-9.453,5.252,5.252,0,0,1,3.306-5.9l.02.723a5.523,5.523,0,0,1-1.357,3.9A4.718,4.718,0,0,1-1.675.2,4.742,4.742,0,0,1-5.322-1.27,5.62,5.62,0,0,1-6.685-5.254Zm2.822.2a3.95,3.95,0,0,0,.566,2.3,1.868,1.868,0,0,0,1.621.8,1.873,1.873,0,0,0,1.6-.787A4.322,4.322,0,0,0,.5-5.386,3.91,3.91,0,0,0-.073-7.675a1.873,1.873,0,0,0-1.621-.812,1.842,1.842,0,0,0-1.6.807A4.395,4.395,0,0,0-3.862-5.181ZM15.981-7.92A7.667,7.667,0,0,0,14.966-8a2.067,2.067,0,0,0-2.1,1.084V0H10.044V-10.566H12.71l.078,1.26a2.615,2.615,0,0,1,2.354-1.455,2.957,2.957,0,0,1,.879.127ZM22.017.2A5.187,5.187,0,0,1,18.232-1.23a5.068,5.068,0,0,1-1.46-3.8V-5.3a6.383,6.383,0,0,1,.615-2.847,4.515,4.515,0,0,1,1.743-1.934,4.893,4.893,0,0,1,2.573-.679,4.385,4.385,0,0,1,3.413,1.367,5.555,5.555,0,0,1,1.245,3.877v1.152H19.634a2.622,2.622,0,0,0,.825,1.66A2.5,2.5,0,0,0,22.2-2.08a3.046,3.046,0,0,0,2.549-1.182l1.387,1.553a4.237,4.237,0,0,1-1.719,1.4A5.639,5.639,0,0,1,22.017.2Zm-.322-8.682a1.764,1.764,0,0,0-1.362.569,2.946,2.946,0,0,0-.669,1.628h3.926v-.226a2.1,2.1,0,0,0-.508-1.457A1.819,1.819,0,0,0,21.694-8.486ZM32.358-2.08a1.851,1.851,0,0,0,1.27-.43,1.506,1.506,0,0,0,.508-1.143h2.646A3.62,3.62,0,0,1,36.2-1.685,3.866,3.866,0,0,1,34.619-.3,4.936,4.936,0,0,1,32.407.2a4.587,4.587,0,0,1-3.574-1.44,5.7,5.7,0,0,1-1.309-3.979V-5.41a5.635,5.635,0,0,1,1.3-3.9,4.534,4.534,0,0,1,3.564-1.455,4.444,4.444,0,0,1,3.179,1.128,3.994,3.994,0,0,1,1.216,3H34.136a1.939,1.939,0,0,0-.508-1.34,1.693,1.693,0,0,0-1.289-.515,1.7,1.7,0,0,0-1.489.719,4.166,4.166,0,0,0-.5,2.333v.293a4.219,4.219,0,0,0,.5,2.347A1.721,1.721,0,0,0,32.358-2.08ZM41.372,0H38.54V-10.566h2.832Zm-3-13.3a1.39,1.39,0,0,1,.425-1.045,1.6,1.6,0,0,1,1.157-.41,1.6,1.6,0,0,1,1.152.41,1.382,1.382,0,0,1,.43,1.045,1.386,1.386,0,0,1-.435,1.055,1.6,1.6,0,0,1-1.147.41,1.6,1.6,0,0,1-1.147-.41A1.386,1.386,0,0,1,38.374-13.3ZM48.091-2.08a1.851,1.851,0,0,0,1.27-.43,1.506,1.506,0,0,0,.508-1.143h2.646a3.62,3.62,0,0,1-.586,1.968A3.866,3.866,0,0,1,50.352-.3,4.936,4.936,0,0,1,48.14.2a4.587,4.587,0,0,1-3.574-1.44,5.7,5.7,0,0,1-1.309-3.979V-5.41a5.635,5.635,0,0,1,1.3-3.9,4.534,4.534,0,0,1,3.564-1.455A4.444,4.444,0,0,1,51.3-9.634a3.994,3.994,0,0,1,1.216,3H49.868a1.939,1.939,0,0,0-.508-1.34,1.693,1.693,0,0,0-1.289-.515,1.7,1.7,0,0,0-1.489.719,4.166,4.166,0,0,0-.5,2.333v.293a4.219,4.219,0,0,0,.5,2.347A1.721,1.721,0,0,0,48.091-2.08ZM57.1,0H54.272V-15H57.1Zm8.447,0a3.134,3.134,0,0,1-.283-.947A3.415,3.415,0,0,1,62.6.2a3.752,3.752,0,0,1-2.573-.9,2.89,2.89,0,0,1-1.021-2.266,2.986,2.986,0,0,1,1.245-2.578,6.144,6.144,0,0,1,3.6-.908h1.3v-.605a1.741,1.741,0,0,0-.376-1.172,1.479,1.479,0,0,0-1.187-.439,1.682,1.682,0,0,0-1.118.342,1.161,1.161,0,0,0-.405.938H59.243a2.835,2.835,0,0,1,.566-1.7,3.744,3.744,0,0,1,1.6-1.226,5.837,5.837,0,0,1,2.324-.444,4.611,4.611,0,0,1,3.1.981,3.433,3.433,0,0,1,1.147,2.759v4.58A5.052,5.052,0,0,0,68.4-.166V0ZM63.218-1.963a2.431,2.431,0,0,0,1.152-.278,1.828,1.828,0,0,0,.781-.747V-4.8H64.1q-2.119,0-2.256,1.465l-.01.166A1.13,1.13,0,0,0,62.2-2.3,1.441,1.441,0,0,0,63.218-1.963ZM79.673-5.186a6.4,6.4,0,0,1-1.084,3.96A3.591,3.591,0,0,1,75.562.2a3.3,3.3,0,0,1-2.744-1.318L72.69,0H70.151V-15h2.822v5.381a3.214,3.214,0,0,1,2.568-1.143,3.62,3.62,0,0,1,3.032,1.421,6.408,6.408,0,0,1,1.1,4Zm-2.822-.205a4.2,4.2,0,0,0-.508-2.339,1.717,1.717,0,0,0-1.514-.737,1.862,1.862,0,0,0-1.855,1.1v4.17A1.887,1.887,0,0,0,74.849-2.08a1.742,1.742,0,0,0,1.8-1.348A6.952,6.952,0,0,0,76.851-5.391ZM84.39,0H81.558V-15H84.39Zm7.188.2A5.187,5.187,0,0,1,87.793-1.23a5.068,5.068,0,0,1-1.46-3.8V-5.3a6.383,6.383,0,0,1,.615-2.847,4.515,4.515,0,0,1,1.743-1.934,4.893,4.893,0,0,1,2.573-.679,4.385,4.385,0,0,1,3.413,1.367,5.555,5.555,0,0,1,1.245,3.877v1.152H89.194a2.622,2.622,0,0,0,.825,1.66,2.5,2.5,0,0,0,1.743.625,3.046,3.046,0,0,0,2.549-1.182L95.7-1.709a4.237,4.237,0,0,1-1.719,1.4A5.639,5.639,0,0,1,91.577.2Zm-.322-8.682a1.764,1.764,0,0,0-1.362.569,2.946,2.946,0,0,0-.669,1.628h3.926v-.226a2.1,2.1,0,0,0-.508-1.457A1.819,1.819,0,0,0,91.255-8.486ZM103.247-2.92a.909.909,0,0,0-.513-.815,5.824,5.824,0,0,0-1.646-.532q-3.77-.791-3.77-3.2a2.9,2.9,0,0,1,1.167-2.349,4.708,4.708,0,0,1,3.052-.942,5.067,5.067,0,0,1,3.218.947,2.985,2.985,0,0,1,1.206,2.461H103.14a1.366,1.366,0,0,0-.391-1,1.653,1.653,0,0,0-1.221-.4,1.689,1.689,0,0,0-1.1.322,1.017,1.017,0,0,0-.391.82.87.87,0,0,0,.444.757,4.571,4.571,0,0,0,1.5.5,12.244,12.244,0,0,1,1.777.474,2.92,2.92,0,0,1,2.236,2.842A2.756,2.756,0,0,1,104.751-.7a5.35,5.35,0,0,1-3.2.894,5.588,5.588,0,0,1-2.358-.474,3.957,3.957,0,0,1-1.616-1.3,3.018,3.018,0,0,1-.586-1.782h2.676a1.473,1.473,0,0,0,.557,1.152,2.208,2.208,0,0,0,1.387.4,2.044,2.044,0,0,0,1.226-.308A.957.957,0,0,0,103.247-2.92Z" transform="translate(1146.425 2496.295)" fill="#12263f"/>
      <path id="Trazado_819077" data-name="Trazado 819077" d="M37.32,0H318.914a37.32,37.32,0,0,1,0,74.641H37.32A37.32,37.32,0,0,1,37.32,0Z" transform="translate(244.765 2459.014)" fill="#dbf9bd"/>
      <path id="Trazado_819078" data-name="Trazado 819078" d="M-86.445-5.205h-2.334V0h-2.93V-14.219h5.283A5.972,5.972,0,0,1-82.539-13.1a3.876,3.876,0,0,1,1.367,3.174A4.374,4.374,0,0,1-81.8-7.5a4.3,4.3,0,0,1-1.909,1.548l3.076,5.811V0h-3.145Zm-2.334-2.373h2.363a2.42,2.42,0,0,0,1.709-.562A2.007,2.007,0,0,0-84.1-9.687a2.148,2.148,0,0,0-.571-1.582,2.374,2.374,0,0,0-1.753-.576h-2.354ZM-74.268.2A5.187,5.187,0,0,1-78.052-1.23a5.068,5.068,0,0,1-1.46-3.8V-5.3A6.383,6.383,0,0,1-78.9-8.149a4.515,4.515,0,0,1,1.743-1.934,4.893,4.893,0,0,1,2.573-.679,4.385,4.385,0,0,1,3.413,1.367,5.555,5.555,0,0,1,1.245,3.877v1.152H-76.65a2.622,2.622,0,0,0,.825,1.66,2.5,2.5,0,0,0,1.743.625,3.046,3.046,0,0,0,2.549-1.182l1.387,1.553a4.237,4.237,0,0,1-1.719,1.4A5.639,5.639,0,0,1-74.268.2Zm-.322-8.682a1.764,1.764,0,0,0-1.362.569,2.946,2.946,0,0,0-.669,1.628H-72.7v-.226A2.1,2.1,0,0,0-73.2-7.971,1.819,1.819,0,0,0-74.59-8.486ZM-62.6-2.92a.909.909,0,0,0-.513-.815,5.824,5.824,0,0,0-1.646-.532q-3.77-.791-3.77-3.2a2.9,2.9,0,0,1,1.167-2.349,4.708,4.708,0,0,1,3.052-.942,5.067,5.067,0,0,1,3.218.947,2.985,2.985,0,0,1,1.206,2.461h-2.822a1.366,1.366,0,0,0-.391-1,1.653,1.653,0,0,0-1.221-.4,1.689,1.689,0,0,0-1.1.322,1.017,1.017,0,0,0-.391.82.87.87,0,0,0,.444.757,4.571,4.571,0,0,0,1.5.5,12.244,12.244,0,0,1,1.777.474,2.92,2.92,0,0,1,2.236,2.842A2.756,2.756,0,0,1-61.094-.7,5.35,5.35,0,0,1-64.3.2a5.588,5.588,0,0,1-2.358-.474,3.957,3.957,0,0,1-1.616-1.3,3.018,3.018,0,0,1-.586-1.782h2.676a1.473,1.473,0,0,0,.557,1.152,2.208,2.208,0,0,0,1.387.4,2.044,2.044,0,0,0,1.226-.308A.957.957,0,0,0-62.6-2.92ZM-55.059,0h-2.832V-10.566h2.832Zm-3-13.3a1.39,1.39,0,0,1,.425-1.045,1.6,1.6,0,0,1,1.157-.41,1.6,1.6,0,0,1,1.152.41,1.382,1.382,0,0,1,.43,1.045,1.386,1.386,0,0,1-.435,1.055,1.6,1.6,0,0,1-1.147.41,1.6,1.6,0,0,1-1.147-.41A1.386,1.386,0,0,1-58.057-13.3Zm4.883,7.939A6.368,6.368,0,0,1-52.065-9.3a3.6,3.6,0,0,1,3.032-1.465,3.236,3.236,0,0,1,2.549,1.152V-15h2.832V0H-46.2l-.137-1.123A3.321,3.321,0,0,1-49.053.2a3.587,3.587,0,0,1-2.993-1.47A6.573,6.573,0,0,1-53.174-5.361Zm2.822.21a4.171,4.171,0,0,0,.518,2.279,1.686,1.686,0,0,0,1.5.792,1.888,1.888,0,0,0,1.846-1.105V-7.362a1.861,1.861,0,0,0-1.826-1.105Q-50.352-8.467-50.352-5.151Zm15.215,4.077A3.539,3.539,0,0,1-38.027.2,3.338,3.338,0,0,1-40.62-.781a4.169,4.169,0,0,1-.913-2.861v-6.924h2.822v6.834q0,1.652,1.5,1.652a2.038,2.038,0,0,0,1.973-1v-7.489H-32.4V0h-2.656Zm4.424-4.307a6.266,6.266,0,0,1,.605-2.8,4.432,4.432,0,0,1,1.743-1.9,5.086,5.086,0,0,1,2.642-.674,4.812,4.812,0,0,1,3.491,1.309A5.252,5.252,0,0,1-20.723-5.9l.02.723a5.523,5.523,0,0,1-1.357,3.9A4.718,4.718,0,0,1-25.7.2,4.742,4.742,0,0,1-29.351-1.27a5.62,5.62,0,0,1-1.362-3.984Zm2.822.2a3.95,3.95,0,0,0,.566,2.3,1.868,1.868,0,0,0,1.621.8,1.873,1.873,0,0,0,1.6-.787,4.322,4.322,0,0,0,.576-2.518A3.91,3.91,0,0,0-24.1-7.675a1.873,1.873,0,0,0-1.621-.812,1.842,1.842,0,0,0-1.6.807A4.395,4.395,0,0,0-27.891-5.181ZM-13.242-2.92a.909.909,0,0,0-.513-.815A5.824,5.824,0,0,0-15.4-4.268q-3.77-.791-3.77-3.2A2.9,2.9,0,0,1-18-9.819a4.708,4.708,0,0,1,3.052-.942,5.067,5.067,0,0,1,3.218.947,2.985,2.985,0,0,1,1.206,2.461H-13.35a1.366,1.366,0,0,0-.391-1,1.653,1.653,0,0,0-1.221-.4,1.689,1.689,0,0,0-1.1.322,1.017,1.017,0,0,0-.391.82.87.87,0,0,0,.444.757,4.571,4.571,0,0,0,1.5.5,12.244,12.244,0,0,1,1.777.474A2.92,2.92,0,0,1-10.5-3.037,2.756,2.756,0,0,1-11.738-.7a5.35,5.35,0,0,1-3.2.894A5.588,5.588,0,0,1-17.3-.278a3.957,3.957,0,0,1-1.616-1.3A3.018,3.018,0,0,1-19.5-3.359h2.676a1.473,1.473,0,0,0,.557,1.152,2.208,2.208,0,0,0,1.387.4,2.044,2.044,0,0,0,1.226-.308A.957.957,0,0,0-13.242-2.92Zm15.479-5A7.667,7.667,0,0,0,1.221-8a2.067,2.067,0,0,0-2.1,1.084V0H-3.7V-10.566h2.666l.078,1.26A2.615,2.615,0,0,1,1.4-10.762a2.957,2.957,0,0,1,.879.127ZM8.271.2A5.187,5.187,0,0,1,4.487-1.23a5.068,5.068,0,0,1-1.46-3.8V-5.3a6.383,6.383,0,0,1,.615-2.847,4.515,4.515,0,0,1,1.743-1.934,4.893,4.893,0,0,1,2.573-.679,4.385,4.385,0,0,1,3.413,1.367,5.555,5.555,0,0,1,1.245,3.877v1.152H5.889a2.622,2.622,0,0,0,.825,1.66,2.5,2.5,0,0,0,1.743.625,3.046,3.046,0,0,0,2.549-1.182l1.387,1.553a4.237,4.237,0,0,1-1.719,1.4A5.639,5.639,0,0,1,8.271.2ZM7.949-8.486a1.764,1.764,0,0,0-1.362.569,2.946,2.946,0,0,0-.669,1.628H9.844v-.226a2.1,2.1,0,0,0-.508-1.457A1.819,1.819,0,0,0,7.949-8.486ZM18.613-2.08a1.851,1.851,0,0,0,1.27-.43,1.506,1.506,0,0,0,.508-1.143h2.646a3.62,3.62,0,0,1-.586,1.968A3.866,3.866,0,0,1,20.874-.3,4.936,4.936,0,0,1,18.662.2a4.587,4.587,0,0,1-3.574-1.44,5.7,5.7,0,0,1-1.309-3.979V-5.41a5.635,5.635,0,0,1,1.3-3.9,4.534,4.534,0,0,1,3.564-1.455,4.444,4.444,0,0,1,3.179,1.128,3.994,3.994,0,0,1,1.216,3H20.391a1.939,1.939,0,0,0-.508-1.34,1.693,1.693,0,0,0-1.289-.515,1.7,1.7,0,0,0-1.489.719,4.166,4.166,0,0,0-.5,2.333v.293a4.219,4.219,0,0,0,.5,2.347A1.721,1.721,0,0,0,18.613-2.08ZM27.627,0H24.795V-10.566h2.832Zm-3-13.3a1.39,1.39,0,0,1,.425-1.045,1.6,1.6,0,0,1,1.157-.41,1.6,1.6,0,0,1,1.152.41,1.382,1.382,0,0,1,.43,1.045,1.386,1.386,0,0,1-.435,1.055,1.6,1.6,0,0,1-1.147.41,1.6,1.6,0,0,1-1.147-.41A1.386,1.386,0,0,1,24.629-13.3ZM34.346-2.08a1.851,1.851,0,0,0,1.27-.43,1.506,1.506,0,0,0,.508-1.143H38.77a3.62,3.62,0,0,1-.586,1.968A3.866,3.866,0,0,1,36.606-.3,4.936,4.936,0,0,1,34.395.2a4.587,4.587,0,0,1-3.574-1.44,5.7,5.7,0,0,1-1.309-3.979V-5.41a5.635,5.635,0,0,1,1.3-3.9,4.534,4.534,0,0,1,3.564-1.455,4.444,4.444,0,0,1,3.179,1.128,3.994,3.994,0,0,1,1.216,3H36.123a1.939,1.939,0,0,0-.508-1.34,1.693,1.693,0,0,0-1.289-.515,1.7,1.7,0,0,0-1.489.719,4.166,4.166,0,0,0-.5,2.333v.293a4.219,4.219,0,0,0,.5,2.347A1.721,1.721,0,0,0,34.346-2.08ZM43.359,0H40.527V-15h2.832Zm8.447,0a3.134,3.134,0,0,1-.283-.947A3.415,3.415,0,0,1,48.857.2a3.752,3.752,0,0,1-2.573-.9,2.89,2.89,0,0,1-1.021-2.266,2.986,2.986,0,0,1,1.245-2.578,6.144,6.144,0,0,1,3.6-.908h1.3v-.605a1.741,1.741,0,0,0-.376-1.172,1.479,1.479,0,0,0-1.187-.439,1.682,1.682,0,0,0-1.118.342,1.161,1.161,0,0,0-.405.938H45.5a2.835,2.835,0,0,1,.566-1.7,3.744,3.744,0,0,1,1.6-1.226,5.837,5.837,0,0,1,2.324-.444,4.611,4.611,0,0,1,3.1.981,3.433,3.433,0,0,1,1.147,2.759v4.58a5.052,5.052,0,0,0,.42,2.275V0ZM49.473-1.963a2.431,2.431,0,0,0,1.152-.278,1.828,1.828,0,0,0,.781-.747V-4.8H50.352Q48.232-4.8,48.1-3.34l-.01.166a1.13,1.13,0,0,0,.371.869A1.441,1.441,0,0,0,49.473-1.963ZM65.928-5.186a6.4,6.4,0,0,1-1.084,3.96A3.591,3.591,0,0,1,61.816.2a3.3,3.3,0,0,1-2.744-1.318L58.945,0H56.406V-15h2.822v5.381A3.214,3.214,0,0,1,61.8-10.762a3.62,3.62,0,0,1,3.032,1.421,6.408,6.408,0,0,1,1.1,4Zm-2.822-.205A4.2,4.2,0,0,0,62.6-7.729a1.717,1.717,0,0,0-1.514-.737,1.862,1.862,0,0,0-1.855,1.1v4.17A1.887,1.887,0,0,0,61.1-2.08a1.742,1.742,0,0,0,1.8-1.348A6.952,6.952,0,0,0,63.105-5.391ZM70.645,0H67.813V-15h2.832Zm7.188.2A5.187,5.187,0,0,1,74.048-1.23a5.068,5.068,0,0,1-1.46-3.8V-5.3A6.383,6.383,0,0,1,73.2-8.149a4.515,4.515,0,0,1,1.743-1.934,4.893,4.893,0,0,1,2.573-.679,4.385,4.385,0,0,1,3.413,1.367,5.555,5.555,0,0,1,1.245,3.877v1.152H75.449a2.622,2.622,0,0,0,.825,1.66,2.5,2.5,0,0,0,1.743.625,3.046,3.046,0,0,0,2.549-1.182l1.387,1.553a4.237,4.237,0,0,1-1.719,1.4A5.639,5.639,0,0,1,77.832.2ZM77.51-8.486a1.764,1.764,0,0,0-1.362.569,2.946,2.946,0,0,0-.669,1.628H79.4v-.226A2.1,2.1,0,0,0,78.9-7.971,1.819,1.819,0,0,0,77.51-8.486ZM89.5-2.92a.909.909,0,0,0-.513-.815,5.824,5.824,0,0,0-1.646-.532q-3.77-.791-3.77-3.2a2.9,2.9,0,0,1,1.167-2.349,4.708,4.708,0,0,1,3.052-.942,5.067,5.067,0,0,1,3.218.947,2.985,2.985,0,0,1,1.206,2.461H89.395a1.366,1.366,0,0,0-.391-1,1.653,1.653,0,0,0-1.221-.4,1.689,1.689,0,0,0-1.1.322,1.017,1.017,0,0,0-.391.82.87.87,0,0,0,.444.757,4.571,4.571,0,0,0,1.5.5,12.244,12.244,0,0,1,1.777.474,2.92,2.92,0,0,1,2.236,2.842A2.756,2.756,0,0,1,91.006-.7,5.35,5.35,0,0,1,87.8.2a5.588,5.588,0,0,1-2.358-.474,3.957,3.957,0,0,1-1.616-1.3,3.018,3.018,0,0,1-.586-1.782h2.676a1.473,1.473,0,0,0,.557,1.152,2.208,2.208,0,0,0,1.387.4,2.044,2.044,0,0,0,1.226-.308A.957.957,0,0,0,89.5-2.92Z" transform="translate(370.27 2503.295)" fill="#12263f"/>
    </g>
    <g id="Grupo_1072542" data-name="Grupo 1072542" transform="translate(526.677 2751.48)">
      <ellipse id="Elipse_5840" data-name="Elipse 5840" cx="33.709" cy="33.709" rx="33.709" ry="33.709" fill="#632059" opacity="0.3"/>
      <ellipse id="Elipse_5841" data-name="Elipse 5841" cx="20.466" cy="20.466" rx="20.466" ry="20.466" transform="translate(13.243 13.243)" fill="#632059"/>
      <text id="_" data-name="+" transform="translate(27.689 40.262)" fill="#fff" font-size="22" font-family="Roboto-Bold, Roboto" font-weight="700"><tspan x="0" y="0">+</tspan></text>
    </g>
    <g id="Grupo_1072542-2" data-name="Grupo 1072542" transform="translate(964.785 2749.073)">
      <ellipse id="Elipse_5840-2" data-name="Elipse 5840" cx="33.709" cy="33.709" rx="33.709" ry="33.709" fill="#632059" opacity="0.3"/>
      <ellipse id="Elipse_5841-2" data-name="Elipse 5841" cx="20.466" cy="20.466" rx="20.466" ry="20.466" transform="translate(13.243 13.243)" fill="#632059"/>
      <text id="_2" data-name="+" transform="translate(27.689 40.262)" fill="#fff" font-size="22" font-family="Roboto-Bold, Roboto" font-weight="700"><tspan x="0" y="0">+</tspan></text>
    </g>
    <g id="Grupo_1072542-3" data-name="Grupo 1072542" transform="translate(964.785 2455.625)">
      <ellipse id="Elipse_5840-3" data-name="Elipse 5840" cx="33.709" cy="33.709" rx="33.709" ry="33.709" fill="#632059" opacity="0.3"/>
      <ellipse id="Elipse_5841-3" data-name="Elipse 5841" cx="20.466" cy="20.466" rx="20.466" ry="20.466" transform="translate(13.243 13.243)" fill="#632059"/>
      <text id="_3" data-name="+" transform="translate(27.689 40.262)" fill="#fff" font-size="22" font-family="Roboto-Bold, Roboto" font-weight="700"><tspan x="0" y="0">+</tspan></text>
    </g>
    <g id="Grupo_1072542-4" data-name="Grupo 1072542" transform="translate(525.27 2462.625)">
      <ellipse id="Elipse_5840-4" data-name="Elipse 5840" cx="33.709" cy="33.709" rx="33.709" ry="33.709" fill="#632059" opacity="0.3"/>
      <ellipse id="Elipse_5841-4" data-name="Elipse 5841" cx="20.466" cy="20.466" rx="20.466" ry="20.466" transform="translate(13.243 13.243)" fill="#632059"/>
      <text id="_4" data-name="+" transform="translate(27.689 40.262)" fill="#fff" font-size="22" font-family="Roboto-Bold, Roboto" font-weight="700"><tspan x="0" y="0">+</tspan></text>
    </g>
  </g>
</svg>
