<svg xmlns="http://www.w3.org/2000/svg" xmlns:xlink="http://www.w3.org/1999/xlink" width="1030" height="626" viewBox="0 0 1030 626">
  <defs>
    <linearGradient id="linear-gradient" x1="0.5" x2="0.5" y2="1" gradientUnits="objectBoundingBox">
      <stop offset="0" stop-color="#f9fef5"/>
      <stop offset="1" stop-color="#e7f7f8"/>
    </linearGradient>
    <clipPath id="clip-path">
      <rect id="Rectángulo_376560" data-name="Rectángulo 376560" width="399.996" height="398.265" fill="none"/>
    </clipPath>
    <clipPath id="clip-path-2">
      <rect id="Rectángulo_376559" data-name="Rectángulo 376559" width="399.998" height="398.264" fill="none"/>
    </clipPath>
    <clipPath id="clip-path-3">
      <rect id="Rectángulo_376558" data-name="Rectángulo 376558" width="386.746" height="223.288" fill="none"/>
    </clipPath>
    <clipPath id="clip-path-4">
      <rect id="Rectángulo_376563" data-name="Rectángulo 376563" width="168.872" height="137.066" fill="none"/>
    </clipPath>
  </defs>
  <g id="Grupo_1072895" data-name="Grupo 1072895" transform="translate(-285 -8679)">
    <g id="Grupo_1072021" data-name="Grupo 1072021">
      <g id="Grupo_1071987" data-name="Grupo 1071987" transform="translate(0 2978)">
        <g id="Grupo_1071427" data-name="Grupo 1071427" transform="translate(0 1414)">
          <rect id="Rectángulo_376022" data-name="Rectángulo 376022" width="1030" height="626" transform="translate(285 4287)" fill="url(#linear-gradient)"/>
        </g>
      </g>
      <g id="Grupo_1072020" data-name="Grupo 1072020">
        <g id="Grupo_1072001" data-name="Grupo 1072001" transform="translate(79.635 25.048)">
          <g id="Grupo_1071997" data-name="Grupo 1071997" transform="translate(520.365 8742.285)">
            <g id="Grupo_1071996" data-name="Grupo 1071996" clip-path="url(#clip-path)">
              <g id="Grupo_1071995" data-name="Grupo 1071995" transform="translate(0 -0.704)">
                <g id="Grupo_1071994" data-name="Grupo 1071994" clip-path="url(#clip-path-2)">
                  <g id="Grupo_1071993" data-name="Grupo 1071993" transform="translate(13.25 174.976)" opacity="0.5">
                    <g id="Grupo_1071992" data-name="Grupo 1071992">
                      <g id="Grupo_1071991" data-name="Grupo 1071991" clip-path="url(#clip-path-3)">
                        <path id="Trazado_816395" data-name="Trazado 816395" d="M113.779,247.988,373.891,97.809c22.832-13.174,19.94-36.407-6.418-51.622S300.88,29.3,278.054,42.478L17.941,192.657c-22.826,13.179-19.935,36.407,6.418,51.622s66.593,16.888,89.42,3.709" transform="translate(-2.546 -33.588)" fill="#087b84" opacity="0.32"/>
                      </g>
                    </g>
                  </g>
                  <path id="Trazado_816396" data-name="Trazado 816396" d="M83.6,84.842c-.073-3.251-.2-6.355-.4-9.22-2.183-31.63-6.454-44.955-6.454-44.955s-35.886-12.653-37.6,16.159L54.26,97.23c13.367,4.4,19.706-4.167,29.338-12.387" transform="translate(164.779 117.437)" fill="#46373b"/>
                  <path id="Trazado_816397" data-name="Trazado 816397" d="M32.727,38.113S61.685,61.84,68.873,66.33,86.6,72.873,94.268,64,77.64,35.873,76.765,35.55s-44.038,2.563-44.038,2.563" transform="translate(137.752 149.529)" fill="#46373b"/>
                  <path id="Trazado_816398" data-name="Trazado 816398" d="M34.217,32.713c-8.309,2.776-9.673,6.418-9.616,16.935.047,8.277-1.787,15.367-1.745,21.06s6.678,14.424,14.83,13.153c13.653-2.12,2.615-7.272,3.87-13.486s1.36-23.764,3.527-27.895S39.52,30.942,34.217,32.713" transform="translate(96.199 136.561)" fill="#46373b"/>
                  <path id="Trazado_816399" data-name="Trazado 816399" d="M41.308,30.475C33,33.252,31.634,36.893,31.692,47.41c.047,8.277-1.787,15.367-1.745,21.06s6.678,14.424,14.83,13.153c13.653-2.12,2.615-7.272,3.87-13.486s1.36-23.764,3.527-27.895S46.611,28.7,41.308,30.475" transform="translate(126.046 127.141)" fill="#46373b"/>
                  <path id="Trazado_816400" data-name="Trazado 816400" d="M69.96,28.732c-3.167,13.8-.547,36.542,4.334,50.68C68.4,75.057,59.77,67.217,57.036,65.274,49.357,59.8,41,53.97,41,53.97s-10.231-1.292-14.4,6.9A22.214,22.214,0,0,0,26.1,79.219s8.3,5.949,15.909,11.934c12.705,9.991,29.9,24.149,41.485,24.285,8.09.094,17.1-1.922,20.685-9.845,3.688-8.142,5.918-22.154,6.579-33.505.969-16.659,1.313-31.552,1.313-31.552s-32.276-4.522-42.111-11.8" transform="translate(102.447 120.936)" fill="#514247"/>
                  <path id="Trazado_816401" data-name="Trazado 816401" d="M59.644,8.645S69.1,12.109,73.172,24.184a170.474,170.474,0,0,1,6.011,24.3S73.39,58.293,59.644,60.288s-17.352-55.055,0-51.643" transform="translate(201.797 35.767)" fill="#a3dfe5"/>
                  <path id="Trazado_816402" data-name="Trazado 816402" d="M123.688,15.316c-2.4.656-27.1-6.136-27.1-6.136s-23.3,9.251-32.114,24.78c-6.34,11.168-13.981,28.39-22.4,50a272.7,272.7,0,0,0-9.3,27.483c-1.146,9.434,21.831,17.445,31.416,18.7,16.211,2.115,31.411-2.657,44.924-11.148,1.578-2.886,2.693-6.037-.047-9.527a6.366,6.366,0,0,1-1.214-2.9c-6.725-9.361,11.017-29.114,15.768-37.474,2.5-4.4,3.657-9.408,4.782-15.377,1.917-10.184,3.219-29.062-4.709-38.4" transform="translate(137.752 38.639)" fill="#fff"/>
                  <path id="Trazado_816403" data-name="Trazado 816403" d="M55.733,36.808C45.466,34.25,36.954,26.666,36.954,26.666s1.912,12.043,14.122,15.315,29.286-2.464,29.286-2.464S66,39.366,55.733,36.808" transform="translate(155.544 112.239)" fill="#a3dfe5"/>
                  <path id="Trazado_816404" data-name="Trazado 816404" d="M39.149,46.281s12.476,5.308,22.222,0S81.744,22.006,81.744,22.006,70.867,33.388,63.413,37.56s-19.451,9.481-24.264,8.72" transform="translate(164.783 92.625)" fill="#a3dfe5"/>
                  <path id="Trazado_816405" data-name="Trazado 816405" d="M70.477,22.81,49.869,7.839S46.4,17.924,43.806,24.56c.229,4.954,9.121,16.1,15.3,19.341,2.474,1.3,5.871,3.047,8.012,1.656,2.323-1.511,3.282-6.261,2.8-7.407-1.5-3.537.563-15.341.563-15.341" transform="translate(184.385 32.994)" fill="#ffad97"/>
                  <path id="Trazado_816406" data-name="Trazado 816406" d="M47.9,8.622c-4.553,5.808-5.97,20.368.307,30.614,5.574,9.1,18.294,14.252,23.946,15.159,10.09,1.63,20.977-26.244,9.46-43.288C70.627-5.151,53.765,1.147,47.9,8.622" transform="translate(185.125 3.822)" fill="#ffc5b3"/>
                  <path id="Trazado_816407" data-name="Trazado 816407" d="M64.106.105c-5.793.948-10.179,4.49-13.273,8.809-10.283,2.193-9.231,17-6.678,22.6,4.928,10.8,10.564,11.543,10.564,11.543s-1.474-5.892-.172-8.46c1.11-2.188,4.61-2.568,5.787,1.328a8.965,8.965,0,0,0,2.86.281l-1.182-7.788a13.942,13.942,0,0,0,12.669-.886c6.246-3.61,12.32-1.505,14.492.542a15.285,15.285,0,0,0,1.021-7.944c4-2.8,7.8-5.313,7.22-7.22a11.584,11.584,0,0,1-9.569-.9,22.758,22.758,0,0,0,5.225-5.954C86.042,6.955,70.873-1,64.106.105" transform="translate(178.613 -0.002)" fill="#33211f"/>
                  <path id="Trazado_816408" data-name="Trazado 816408" d="M51.36,11.058C51,18.851,48.281,32.009,48.281,32.009A37.969,37.969,0,0,1,59.9,29.123a180.171,180.171,0,0,0-2.235-18.065c-.745.537-4.376.688-6.3,0" transform="translate(203.221 46.543)" fill="#a3dfe5"/>
                  <path id="Trazado_816409" data-name="Trazado 816409" d="M49.866,9.18s-6.642,3.48-6.642,8.788c0,6.631,5.24,17.1,8.85,24.842,5.938-1.6,17.727-1.88,17.727-1.88s-5.975-9.053-9.642-13.585C51.553,16.712,49.866,9.18,49.866,9.18" transform="translate(181.935 38.639)" fill="#a3dfe5"/>
                  <path id="Trazado_816410" data-name="Trazado 816410" d="M51.633,16.173S50.982,31.9,50.6,40.635,47.664,67.8,47.664,67.8L55.6,80.032s2.865-7.376,4.881-11.981c.214-9.637,1.229-20.618-1.808-35.083s-4.438-16.794-4.438-16.794Z" transform="translate(200.624 68.073)" fill="#fc8b8b"/>
                  <path id="Trazado_816411" data-name="Trazado 816411" d="M51.119,15.843a23.708,23.708,0,0,0-3.4,1.531A30.6,30.6,0,0,0,49.66,23.4c1.229,2.37,5.121.474,5.688-.854,1.011-2.355-.734-7.736-.734-7.736a23.04,23.04,0,0,0-3.5,1.037" transform="translate(200.847 62.319)" fill="#fc8b8b"/>
                  <path id="Trazado_816412" data-name="Trazado 816412" d="M90.457,31.47a35.612,35.612,0,0,1-16.716,2.667c-14.4-1.422-17.1,11.632-17.9,15.216s2.115,9.778,2.115,9.778,24.827.2,29.89-5.668,7.866-16.268,7.866-16.268Z" transform="translate(234.462 132.46)" fill="#46373b"/>
                  <path id="Trazado_816413" data-name="Trazado 816413" d="M127.719,36.78s-10.392,5.714-17.425,10S89.869,56.064,81.066,58.934,63.1,68.165,53.036,71.718,37.705,79.13,32.8,87.944c-2.959,5.308,3.912,9.246,16.3,4.1,6.157-2.552,7.355-8.569,13.976-11.757C65.762,79,78.243,79.12,91.958,72.2c7.611-3.839,38.256-17.737,42.642-21.727s-6.881-13.695-6.881-13.695" transform="translate(135.175 154.811)" fill="#ffc5b3"/>
                  <path id="Trazado_816414" data-name="Trazado 816414" d="M56.736,59.622l38.407-22S82.24,31.2,67.649,35.7c-6.053,1.87-12.627,5.251-18.716,8.772a37.751,37.751,0,0,1,7.8,15.148" transform="translate(205.965 143.523)" fill="#f2716e"/>
                  <path id="Trazado_816415" data-name="Trazado 816415" d="M41.53,95.627s-5.2,7.413-15.07-4.162-12.84-17.1-6.642-22.446S42.978,80.333,41.53,95.627" transform="translate(69.794 286.221)" fill="#33211f"/>
                  <path id="Trazado_816416" data-name="Trazado 816416" d="M31.559,88.241s-5.209,7.413-15.075-4.162S3.794,65.962,8.566,62.362C15.087,57.429,33,72.947,31.559,88.241" transform="translate(26.513 258.565)" fill="#33211f"/>
                  <path id="Trazado_816417" data-name="Trazado 816417" d="M66.867,85.713A126.792,126.792,0,0,0,57.74,96.491c-1.948,2.579-7.459,6.428-10.611,6.293s-6.4-2.677-11.2-5.73c-9.6-6.11-12.267-9.34-17.872-16.143s-10.2-12.533-3.735-13.6c7.506-1.24,13.9,4.084,21.342,7.2,8.267,3.469,18.67-4.553,18.67-4.553Z" transform="translate(46.989 282.539)" fill="#ffc5b3"/>
                  <path id="Trazado_816418" data-name="Trazado 816418" d="M56.174,79.314a126.794,126.794,0,0,0-9.126,10.778c-1.948,2.573-7.459,6.428-10.611,6.293s-6.4-2.677-11.2-5.735c-9.6-6.105-12.267-9.335-17.873-16.138s-10.2-12.533-3.735-13.6c7.506-1.24,13.9,4.084,21.342,7.2,8.267,3.469,18.67-4.553,18.67-4.553Z" transform="translate(1.981 255.605)" fill="#ffc5b3"/>
                  <path id="Trazado_816419" data-name="Trazado 816419" d="M91.548,89.826C120.505,74.761,187.724,40.448,193.157,43.7L237.018,85.95c-16.049,12.043-42.241,31.718-58.733,40.579-25.957,13.945-44.819,21.691-63.494,37.162-10.892,9.027-25,18.034-34.891,23.988A44.383,44.383,0,0,0,76.983,182c-6.626-10.825-15.711-9.8-15.711-9.8s43.621-37.881,56.17-45.569c19.56-11.981,46.992-31.276,46.992-31.276s-14.091,5.24-28.332,12.226c-5.558,2.724-42.491,24.3-49.086,27.843-12.653,6.8-57.285,28.343-57.285,28.343s-3.037-9.225-6.366-14.455c-7.272-11.424-16.633-11.424-16.633-11.424S66.617,102.8,91.548,89.826" transform="translate(28.34 183.043)" fill="#46373b"/>
                  <path id="Trazado_816420" data-name="Trazado 816420" d="M171.578,51.348c-19.341,16.31-44.074,32.015-61.119,40.959-24.5,12.861-36.115,22.826-54.79,38.3-10.892,9.027-25,18.034-34.891,23.988a37.835,37.835,0,0,1,3.084,11.127s1.38-2.073,14.966-11.5c11.08-7.689,25.764-17.841,38.032-28.249,21.9-18.581,42.762-26.947,56.79-33.667,20.482-9.809,32.135-19.748,40-25.806-.328-2.667-2.177-12.486-2.073-15.153" transform="translate(87.461 216.129)" fill="#33211f"/>
                  <path id="Trazado_816421" data-name="Trazado 816421" d="M132.318,37.137s-5.1-2.355-7.861-2.766c-9.34,1.875-18.722,1.11-24.707,4.225-4.313,2.25-7.913,5.371-9.923,9.47C86.1,55.671,80,61.495,70.35,68.074c-11.736,8-29.791,16.232-29.791,16.232s18.659,12.419,30.062,26.358c13.565,16.586,10.5,36.792,10.5,36.792S88.8,145.2,99.162,135.027c6.381-6.256,14.039-18.06,20.284-24.363,6-6.048,20.138-13.83,24.41-15.231C166.245,88.1,165.7,64.308,165.7,64.308L157.962,53.15l-31.5.875Z" transform="translate(170.718 144.671)" fill="#fc8b8b"/>
                  <path id="Trazado_816422" data-name="Trazado 816422" d="M85.924,33.354S74.781,42.366,64.092,44.882c-.354.083-.792.167-1.266.245-1.25,1.735-8.022,7.517-5.068,10.158,4.4,3.938,20.612,2.829,25.874,2.933,1.875-2.047,5.016-3.589,10.163-5.834,4.792-2.089-7.871-19.029-7.871-19.029" transform="translate(240.001 140.39)" fill="#ffad97"/>
                  <path id="Trazado_816423" data-name="Trazado 816423" d="M126.521,43.953s-11.887,18.091-21.248,25.139C87.9,82.162,76.1,101,69.7,106.728s-22,14.617-24.452,19.18c-3.11,5.8.537,13.424,11.2,12.538s16.508-19.472,24.54-25.7c4.245-3.292,18.409-12.179,28.989-22.779,4.907-4.923,11.293-11.627,17.961-16.961s18.138-11.913,23.743-26.619c.344-.9-25.165-2.433-25.165-2.433" transform="translate(185.949 185.003)" fill="#ffc5b3"/>
                  <path id="Trazado_816424" data-name="Trazado 816424" d="M91.831,40.321C71.526,44.5,65.952,57.657,57.8,68.638,69.484,72.336,72.74,78.91,76.459,89.98c6.7-5.99,14.184-11.252,18.383-18.956,6.4-11.736,2.672-27.181-3.011-30.7" transform="translate(243.308 169.715)" fill="#f2716e"/>
                  <path id="Trazado_816425" data-name="Trazado 816425" d="M90.058,49.581l2.459,3.4s-12,1.99-20,2.453S50.63,52.6,59.116,41.3a40.245,40.245,0,0,1,6.261-6.4l4.709,2.37s-5.97,2.907-8.1,7.413c-2.422,5.141,6.23,6.522,13.721,6.485a86.279,86.279,0,0,0,14.351-1.589" transform="translate(237.658 146.906)" fill="#f2716e"/>
                  <path id="Trazado_816426" data-name="Trazado 816426" d="M151.1,75.561a40.844,40.844,0,0,0,8.9-13c3.063-7.569,4.407-14.19,0-14.617s-4.938,4.381-6.537,7.584-24.254,20.144-36.521,24.681S78.286,102.054,55.09,112.493c-19.206,8.637-44.684,22.394-44.684,22.394l3.86,10.215s41.246-20.873,57.285-28.343,79.549-41.2,79.549-41.2" transform="translate(43.8 201.704)" fill="#33211f"/>
                  <path id="Trazado_816427" data-name="Trazado 816427" d="M93.564,62.8C83.807,70.963,70.8,71.505,64.518,64S61.049,43.787,70.81,35.619s22.759-8.71,29.046-1.209,3.464,20.211-6.293,28.384" transform="translate(257.469 122.565)" fill="#ffc5b3"/>
                  <path id="Trazado_816428" data-name="Trazado 816428" d="M83.97,46.838c-3.178,9.944,0,16.747-16.091,22.128-8.585,2.87-5.777,13.32,1.094,17.862,11.559,7.647,8.585,21.425,8.585,21.425s7.506,2.985,12.4-1.922c3.579-3.594,7.47-6.162,5.694-18.92-1.276-9.137-.526-15.023,2.844-18.268,17.669-17.013,10-34.568,4.98-37.125-7.767-3.954-12.429-7.314-19.5,14.82" transform="translate(263.239 122.625)" fill="#46373b"/>
                  <path id="Trazado_816429" data-name="Trazado 816429" d="M64.135,34.844s.052,4.027,8.892,4.011A38.861,38.861,0,0,1,87.784,41.5l6.131-2.422s.505-7.725-9.96-10.528-19.821,6.293-19.821,6.293" transform="translate(269.952 117.918)" fill="#46373b"/>
                  <path id="Trazado_816430" data-name="Trazado 816430" d="M21.241,67.586s2.657,7.449,7.584,11.309,13.851,11.288,20.2,13.44c-3.391,5.214-7.116,12.038-13.955,7.3A240.773,240.773,0,0,1,13.276,82.947C3.759,74.712-1.512,71.237.384,62.965s20.857,4.62,20.857,4.62" transform="translate(0.002 253.368)" fill="#46373b"/>
                  <path id="Trazado_816431" data-name="Trazado 816431" d="M32.02,73.968s2.651,7.449,7.579,11.309,13.856,11.288,20.206,13.44c-3.4,5.214-7.121,12.038-13.96,7.3a240.753,240.753,0,0,1-21.79-16.685c-9.517-8.236-14.789-11.71-12.9-19.982s20.863,4.62,20.863,4.62" transform="translate(45.357 280.231)" fill="#46373b"/>
                  <path id="Trazado_816432" data-name="Trazado 816432" d="M39.149,26.3s8.788,24.775,15.393,36.75,15.32,20.524,20.435,30.973c2.959,6.037,9.423,11.971,13.32,17.8,2.839,4.256,3.125,9.725,4.407,14.471,2.547,9.429,6.4,13.19,11.4,15.58,9.272,4.433,14.122-2.948,13.789-6.293-.49-4.839-4.021-7.293-9.038-14.924-1.031-1.573,4.146-1.531,6.954-5.428,1.412-1.948-3.032-.453-7.574-.865s-7.517-5.548-9.1-8.652C93.97,95.586,86.745,75.442,80.348,64.29s-15.336-45.95-18.3-46.512-22.9,8.522-22.9,8.522" transform="translate(164.783 74.72)" fill="#ffc5b3"/>
                  <path id="Trazado_816433" data-name="Trazado 816433" d="M46.7,13.5C34.85,21.628,36.1,41.73,44.445,65.119,57.129,64.353,67.2,61.785,74.314,53.7c-1.563-4.667-3.7-15.6-6.043-20.618C62.166,20,54.6,8.079,46.7,13.5" transform="translate(159.925 51.169)" fill="#a3dfe5"/>
                  <path id="Trazado_816434" data-name="Trazado 816434" d="M82.791,112.609c-4.214-6.48-3.318-17.4-4.4-27.462C77.066,72.754,76.279,57.554,69.247,36.5c-1.844-5.527-3.157-13.346-4.3-19.519a29.511,29.511,0,0,1-8.2,4.5c-.906.438-1.782.948-2.719,1.313a54.738,54.738,0,0,1-3.714,11.8s2.391,21.67,6.459,33.484c6.36,18.487,12.4,32.2,10.772,41.027-.74,4.016-.771,7.506-2.422,9.158s-5.782,2.474-2.552,4.339,7.491-3.422,9.585-.583,2.928,13.632,7.256,16.523,14.2,3.672,15.028-4-7.433-15.461-11.648-21.941" transform="translate(211.77 71.491)" fill="#ffc5b3"/>
                </g>
              </g>
            </g>
          </g>
          <g id="Grupo_1072000" data-name="Grupo 1072000" transform="translate(457.667 8872.885)">
            <path id="Trazado_816435" data-name="Trazado 816435" d="M120.615,85.3,66.975,54.327V7.862l53.639,30.969Z" transform="translate(27.391 3.216)" fill="#f2716e"/>
            <path id="Trazado_816436" data-name="Trazado 816436" d="M117.62,80.333,68.391,51.91V10.127L117.62,38.549ZM69.42,51.315,116.59,78.549V39.143L69.42,11.909Z" transform="translate(27.97 4.142)" fill="#d65454"/>
            <path id="Trazado_816437" data-name="Trazado 816437" d="M124.516,21.864,105.045,33.1V79.569l19.471-11.241Z" transform="translate(42.96 8.942)" fill="#e56161"/>
            <path id="Trazado_816438" data-name="Trazado 816438" d="M111.385,26.515V72.98l1.988-1.147V25.367Z" transform="translate(45.553 10.374)" fill="#d65454"/>
            <path id="Trazado_816439" data-name="Trazado 816439" d="M86.571,0l-19.6,11.077,53.639,30.969,19.471-11.241Z" transform="translate(27.391 0)" fill="#fc8b8b"/>
            <path id="Trazado_816440" data-name="Trazado 816440" d="M73.569,4.435l53.553,30.92,1.875-1.1L75.439,3.422Z" transform="translate(30.087 1.4)" fill="#e56161"/>
            <path id="Trazado_816441" data-name="Trazado 816441" d="M87.2,39.163l-2.749-1.586V23.447L87.2,25.033Z" transform="translate(34.536 9.589)" fill="#fff"/>
            <path id="Trazado_816442" data-name="Trazado 816442" d="M81.663,29.217V25.552l10.6,6.118v3.665Z" transform="translate(33.398 10.45)" fill="#fff"/>
            <path id="Trazado_816443" data-name="Trazado 816443" d="M104.843,26.8l10.4-6-4.127-2.383-10.4,6Z" transform="translate(41.189 7.53)" fill="#514247"/>
            <path id="Trazado_816444" data-name="Trazado 816444" d="M103.142,24.279l7.827-4.559-.962-.555-7.825,4.559Z" transform="translate(41.789 7.838)" fill="#fff"/>
            <path id="Trazado_816445" data-name="Trazado 816445" d="M104.365,24.969l7.827-4.559-.961-.555L103.4,24.414Z" transform="translate(42.289 8.12)" fill="#fff"/>
            <path id="Trazado_816446" data-name="Trazado 816446" d="M103.645,26.105V27.43l10.4-6V20.1Z" transform="translate(42.387 8.222)" fill="#44291f"/>
            <path id="Trazado_816447" data-name="Trazado 816447" d="M100.715,22.672V24l4.128,2.383V25.056Z" transform="translate(41.189 9.272)" fill="#46373b"/>
            <path id="Trazado_816448" data-name="Trazado 816448" d="M78.944,11.807l10.4-6L85.212,3.423l-10.4,6Z" transform="translate(30.597 1.4)" fill="#514247"/>
            <path id="Trazado_816449" data-name="Trazado 816449" d="M77.242,9.29,85.069,4.73l-.962-.555L76.281,8.735Z" transform="translate(31.196 1.708)" fill="#fff"/>
            <path id="Trazado_816450" data-name="Trazado 816450" d="M78.465,9.979,86.292,5.42l-.962-.555L77.5,9.424Z" transform="translate(31.696 1.99)" fill="#fff"/>
            <path id="Trazado_816451" data-name="Trazado 816451" d="M77.745,11.116V12.44l10.4-6V5.114Z" transform="translate(31.795 2.092)" fill="#44291f"/>
            <path id="Trazado_816452" data-name="Trazado 816452" d="M74.816,7.682V9.008l4.128,2.383V10.066Z" transform="translate(30.597 3.142)" fill="#46373b"/>
            <g id="Grupo_1071999" data-name="Grupo 1071999" transform="translate(0 0)">
              <g id="Grupo_1071998" data-name="Grupo 1071998" clip-path="url(#clip-path-4)">
                <path id="Trazado_816453" data-name="Trazado 816453" d="M37.736,75.915,73.27,55.4c3.808-2.2,3.327-6.074-1.071-8.612L53.021,35.713c-4.4-2.538-11.11-2.817-14.917-.617L2.568,55.612c-3.807,2.2-3.325,6.073,1.071,8.612L22.82,75.3c4.4,2.539,11.11,2.817,14.917.619" transform="translate(0 13.746)" fill="#d65454"/>
                <path id="Trazado_816454" data-name="Trazado 816454" d="M37.736,74.692,73.27,54.176c3.808-2.2,3.327-6.074-1.071-8.612L53.021,34.49c-4.4-2.538-11.11-2.817-14.917-.617L2.568,54.389C-1.239,56.587-.757,60.461,3.639,63L22.82,74.073c4.4,2.539,11.11,2.817,14.917.619" transform="translate(0 13.246)" fill="#e56161"/>
                <path id="Trazado_816455" data-name="Trazado 816455" d="M75.826,32.818V51.97L.031,59.535V40.955Z" transform="translate(0.013 13.422)" fill="#e56161"/>
                <path id="Trazado_816456" data-name="Trazado 816456" d="M75.826,28.891v5.533L.031,42.56V36.486Z" transform="translate(0.013 11.816)" fill="#d3c7ba"/>
                <path id="Trazado_816457" data-name="Trazado 816457" d="M37.736,62.557,73.27,42.041c3.808-2.2,3.327-6.074-1.071-8.612L53.021,22.356c-4.4-2.539-11.11-2.817-14.917-.619L2.568,42.253c-3.807,2.2-3.325,6.073,1.071,8.612L22.82,61.938c4.4,2.539,11.11,2.817,14.917.619" transform="translate(0 8.284)" fill="#514247"/>
                <path id="Trazado_816458" data-name="Trazado 816458" d="M37.736,61.406,73.27,40.89c3.808-2.2,3.327-6.074-1.071-8.612L53.021,21.2c-4.4-2.538-11.11-2.817-14.917-.617L2.568,41.1c-3.807,2.2-3.325,6.073,1.071,8.612L22.82,60.787c4.4,2.539,11.11,2.817,14.917.619" transform="translate(0 7.813)" fill="#d3c7ba"/>
                <path id="Trazado_816459" data-name="Trazado 816459" d="M37.736,58.418,73.27,37.9c3.808-2.2,3.327-6.074-1.071-8.612L53.021,18.216c-4.4-2.538-11.11-2.817-14.917-.617L2.568,38.115c-3.807,2.2-3.325,6.073,1.071,8.612L22.82,57.8c4.4,2.539,11.11,2.817,14.917.619" transform="translate(0 6.591)" fill="#fff"/>
                <path id="Trazado_816460" data-name="Trazado 816460" d="M15.3,32.729c0,4.807,7.327,8.7,16.364,8.7s16.362-3.9,16.362-8.7-7.325-8.7-16.362-8.7-16.364,3.9-16.364,8.7" transform="translate(6.257 9.826)" fill="#e56161"/>
                <path id="Trazado_816461" data-name="Trazado 816461" d="M36.642,38.27l4.244-2.45L23.471,25.766l-4.244,2.45Z" transform="translate(7.863 10.538)" fill="#fff"/>
                <path id="Trazado_816462" data-name="Trazado 816462" d="M39.8,28.939l-4.9-2.829L19.822,34.817l4.9,2.829Z" transform="translate(8.107 10.678)" fill="#fff"/>
                <path id="Trazado_816463" data-name="Trazado 816463" d="M14.789,62l-1.733,1V51.562l1.733-1Z" transform="translate(5.34 20.678)" fill="#e5dbcf"/>
                <path id="Trazado_816464" data-name="Trazado 816464" d="M7.32,57.685l-1.733,1V47.248l1.733-1Z" transform="translate(2.285 18.914)" fill="#e5dbcf"/>
                <path id="Trazado_816465" data-name="Trazado 816465" d="M6.058,47.231v9.239l8.906,5.141V52.372l1.615.933V64.743L4.442,57.735V46.3Z" transform="translate(1.817 18.935)" fill="#d3c7ba"/>
                <path id="Trazado_816466" data-name="Trazado 816466" d="M14.5,58.962l-8.909-5.15L7.32,52.775,14.5,56.923Z" transform="translate(2.285 21.583)" fill="#fff"/>
                <path id="Trazado_816467" data-name="Trazado 816467" d="M11.91,50.9l1.616.933,1.733-1L13.643,49.9Z" transform="translate(4.871 20.408)" fill="#fff"/>
                <path id="Trazado_816468" data-name="Trazado 816468" d="M4.44,46.586l1.616.933,1.733-1-1.616-.933Z" transform="translate(1.816 18.645)" fill="#fff"/>
                <path id="Trazado_816469" data-name="Trazado 816469" d="M40.07,80.786c0,2.925-4.458,5.294-9.954,5.294s-9.953-2.368-9.953-5.294,4.457-5.293,9.953-5.293,9.954,2.37,9.954,5.293" transform="translate(8.246 30.874)" fill="#d3c7ba"/>
                <rect id="Rectángulo_376561" data-name="Rectángulo 376561" width="19.906" height="25.528" transform="translate(28.409 86.132)" fill="#d3c7ba"/>
                <path id="Trazado_816470" data-name="Trazado 816470" d="M40.07,62.667c0,2.925-4.458,5.293-9.954,5.293s-9.953-2.368-9.953-5.293,4.457-5.293,9.953-5.293,9.954,2.37,9.954,5.293" transform="translate(8.246 23.464)" fill="#e5dbcf"/>
                <path id="Trazado_816471" data-name="Trazado 816471" d="M37.852,62.4c0,2.419-3.687,4.379-8.235,4.379s-8.233-1.96-8.233-4.379,3.686-4.38,8.233-4.38,8.235,1.961,8.235,4.38" transform="translate(8.745 23.729)" fill="#d3c7ba"/>
                <path id="Trazado_816472" data-name="Trazado 816472" d="M35.574,62.132c0,1.9-2.9,3.449-6.485,3.449S22.6,64.037,22.6,62.132s2.9-3.449,6.485-3.449,6.485,1.543,6.485,3.449" transform="translate(9.244 24)" fill="#e5dbcf"/>
                <path id="Trazado_816473" data-name="Trazado 816473" d="M32.964,61.817c0,1.306-1.991,2.364-4.447,2.364s-4.447-1.058-4.447-2.364,1.991-2.364,4.447-2.364,4.447,1.058,4.447,2.364" transform="translate(9.844 24.315)" fill="#d3c7ba"/>
                <path id="Trazado_816474" data-name="Trazado 816474" d="M30.672,61.543c0,.785-1.195,1.42-2.67,1.42s-2.669-.635-2.669-1.42,1.195-1.42,2.669-1.42,2.67.635,2.67,1.42" transform="translate(10.36 24.589)" fill="#e5dbcf"/>
                <path id="Trazado_816475" data-name="Trazado 816475" d="M77.116,83.365c-2.057,1.186-3.434.938-4.848,1.257l22.2,12.815c1.37-.268,2.762-.141,4.769-1.3.056-.032.113-.075.169-.108L77.283,83.257c-.056.034-.111.076-.166.108" transform="translate(29.555 34.05)" fill="#c1b4a8"/>
                <path id="Trazado_816476" data-name="Trazado 816476" d="M123.955,82.2,101.74,69.487S97.19,71,94.688,72.129l22.146,12.786c2.662-1.186,7.121-2.714,7.121-2.714" transform="translate(38.724 28.418)" fill="#c1b4a8"/>
                <path id="Trazado_816477" data-name="Trazado 816477" d="M88.786,76.723a56.933,56.933,0,0,1-5.753,2.018l22.15,12.788a42.422,42.422,0,0,0,5.734-2.028Z" transform="translate(33.958 31.377)" fill="#c1b4a8"/>
                <path id="Trazado_816478" data-name="Trazado 816478" d="M92.421,73.428,114.5,86.173a16.474,16.474,0,0,1,1.925-1.367c.338-.2.806-.421,1.34-.659L95.614,71.361c-.406.185-.764.359-1.033.514a17.949,17.949,0,0,0-2.16,1.553" transform="translate(37.797 29.185)" fill="#e5dbcf"/>
                <path id="Trazado_816479" data-name="Trazado 816479" d="M81.823,79.109c-.306.176-.6.373-.9.576l22.117,12.767c.266-.179.533-.359.806-.517a13.286,13.286,0,0,1,2.2-.992L83.9,78.155a13.553,13.553,0,0,0-2.073.954" transform="translate(33.094 31.963)" fill="#e5dbcf"/>
                <path id="Trazado_816480" data-name="Trazado 816480" d="M71.9,84.752a15.865,15.865,0,0,0-2.074,1.46L91.935,98.974a14.22,14.22,0,0,1,1.9-1.34,5.087,5.087,0,0,1,1.63-.593l-22.2-12.815a4.751,4.751,0,0,0-1.36.526" transform="translate(28.558 34.446)" fill="#e5dbcf"/>
                <path id="Trazado_816481" data-name="Trazado 816481" d="M67.182,89.329,89.4,102.044A28.606,28.606,0,0,1,93.018,98.4L70.913,85.635a30.226,30.226,0,0,0-3.731,3.694" transform="translate(27.475 35.022)" fill="#d3c7ba"/>
                <path id="Trazado_816482" data-name="Trazado 816482" d="M75.828,84.9,97.946,97.67c2.367-1.424,4.65-3.968,7.173-5.663L83.005,79.241c-2.521,1.712-4.81,4.235-7.177,5.658" transform="translate(31.011 32.407)" fill="#d3c7ba"/>
                <path id="Trazado_816483" data-name="Trazado 816483" d="M109.526,90.953a57.534,57.534,0,0,0,7.139-5.379L94.59,72.828a54.555,54.555,0,0,1-6.969,5.231c-.165.094-.337.17-.506.256l22.132,12.778c.092-.049.187-.089.279-.141" transform="translate(35.627 29.785)" fill="#d3c7ba"/>
                <path id="Trazado_816484" data-name="Trazado 816484" d="M126.415,69.924,106.057,58.259,98.3,75.515l20.264,11.618Z" transform="translate(40.2 23.826)" fill="#e5dbcf"/>
                <path id="Trazado_816485" data-name="Trazado 816485" d="M123.435,71.693c0,4.541-2.76,9.816-6.166,11.782s-6.167-.121-6.167-4.661,2.762-9.816,6.167-11.782,6.166.12,6.166,4.661" transform="translate(45.437 27.111)" fill="#d3c7ba"/>
                <path id="Trazado_816486" data-name="Trazado 816486" d="M122.326,71.879c0,3.92-2.383,8.472-5.322,10.169s-5.322-.1-5.322-4.023,2.383-8.472,5.322-10.169,5.322.1,5.322,4.023" transform="translate(45.675 27.49)" fill="#e5dbcf"/>
                <path id="Trazado_816487" data-name="Trazado 816487" d="M121.267,71.955c0,3.3-2.008,7.142-4.486,8.572s-4.486-.089-4.486-3.391,2.009-7.142,4.486-8.572,4.486.089,4.486,3.391" transform="translate(45.925 27.82)" fill="#d3c7ba"/>
                <path id="Trazado_816488" data-name="Trazado 816488" d="M119.992,72.163c0,2.576-1.565,5.568-3.5,6.683S113,78.778,113,76.2s1.565-5.568,3.5-6.684,3.5.069,3.5,2.645" transform="translate(46.212 28.26)" fill="#e5dbcf"/>
                <path id="Trazado_816489" data-name="Trazado 816489" d="M118.506,72.288a5.617,5.617,0,0,1-2.346,4.483c-1.3.748-2.347-.046-2.347-1.774a5.62,5.62,0,0,1,2.347-4.483c1.3-.748,2.346.046,2.346,1.774" transform="translate(46.546 28.723)" fill="#d3c7ba"/>
                <path id="Trazado_816490" data-name="Trazado 816490" d="M117.38,72.423a3.526,3.526,0,0,1-1.474,2.815c-.813.471-1.474-.028-1.474-1.113a3.533,3.533,0,0,1,1.474-2.817c.814-.469,1.474.03,1.474,1.114" transform="translate(46.799 29.091)" fill="#e5dbcf"/>
                <path id="Trazado_816491" data-name="Trazado 816491" d="M109.031,63.434c0,4.541-2.76,9.816-6.166,11.782S96.7,75.094,96.7,70.555s2.762-9.816,6.167-11.782,6.166.12,6.166,4.661" transform="translate(39.546 23.734)" fill="#e5dbcf"/>
                <path id="Trazado_816492" data-name="Trazado 816492" d="M93.783,70.917,76.3,60.822c-1.665-1.119-1.777-3.062-1.192-3.677.33-.5,1.065-.614,1.777-1.024,2.4-1.386,6.066-1.539,8.144-.338l17.485,10.1c2.08,1.2,1.833,2.786-.566,4.171h-.018c-2.4,1.386-6.066,2.07-8.144.869" transform="translate(30.584 22.482)" fill="#d8b480"/>
                <path id="Trazado_816493" data-name="Trazado 816493" d="M93.75,70.4,76.265,60.3c-2.08-1.2-1.816-3.317.585-4.7s6.066-1.539,8.144-.338l17.485,10.1c2.08,1.2,1.816,3.317-.585,4.7S95.829,71.6,93.75,70.4" transform="translate(30.616 22.269)" fill="#f7d48f"/>
                <path id="Trazado_816494" data-name="Trazado 816494" d="M92.347,66.994l4.514-2.607L83.7,56.768l-4.516,2.607Z" transform="translate(32.386 23.216)" fill="#fff"/>
                <path id="Trazado_816495" data-name="Trazado 816495" d="M70.892,83.376l-10.38-6.125a4.071,4.071,0,0,1-1.865-3.211c.049-1.46.65-2.073,2.731-3.248L73.5,63.949c3.318-1.874,8.361-2.035,11.2-.358l10.38,6.126c1.512.892,1.891.761,1.9,2.037a5.44,5.44,0,0,1-2.763,4.421L82.094,83.018c-3.32,1.875-8.361,2.036-11.2.358" transform="translate(23.984 25.533)" fill="#d8b480"/>
                <path id="Trazado_816496" data-name="Trazado 816496" d="M70.9,82.787l-10.38-6.125c-2.843-1.678-2.453-4.585.865-6.459L73.506,63.36c3.318-1.874,8.361-2.035,11.2-.358l10.38,6.126c2.842,1.678,2.453,4.585-.867,6.459L82.1,82.429c-3.32,1.875-8.361,2.036-11.2.358" transform="translate(23.974 25.292)" fill="#f7d48f"/>
                <path id="Trazado_816497" data-name="Trazado 816497" d="M75.173,79.382,62.7,72.177,77.1,63.86l12.476,7.2Z" transform="translate(25.641 26.117)" fill="#fff"/>
                <path id="Trazado_816498" data-name="Trazado 816498" d="M63.154,73.259,46.56,82.839V53.89l16.593-9.58Z" transform="translate(19.042 18.122)" fill="#709be0"/>
                <path id="Trazado_816499" data-name="Trazado 816499" d="M47.6,54.767V56.93l14.133-8.161V46.608Z" transform="translate(19.468 19.061)" fill="#514247"/>
                <path id="Trazado_816500" data-name="Trazado 816500" d="M53.9,65.36,47.6,69v1.158l6.3-3.637Z" transform="translate(19.469 26.73)" fill="#fff"/>
                <path id="Trazado_816501" data-name="Trazado 816501" d="M53.9,59.2l-6.3,3.638V64l6.3-3.638Z" transform="translate(19.469 24.211)" fill="#fff"/>
                <path id="Trazado_816502" data-name="Trazado 816502" d="M53.9,57.5l-6.3,3.638v1.16l6.3-3.638Z" transform="translate(19.469 23.515)" fill="#fff"/>
                <path id="Trazado_816503" data-name="Trazado 816503" d="M53.9,61.049l-6.3,3.638v4.358l6.3-3.638Z" transform="translate(19.469 24.967)" fill="#fff"/>
                <path id="Trazado_816504" data-name="Trazado 816504" d="M55.538,70.682h0c-1.207.7-2.2-.049-2.2-1.66V55a5.28,5.28,0,0,1,2.2-4.2c1.207-.7,2.2.049,2.2,1.66V66.485a5.281,5.281,0,0,1-2.2,4.2" transform="translate(21.815 20.67)" fill="#fff"/>
                <path id="Trazado_816505" data-name="Trazado 816505" d="M56.019,53.791l-1.734,1V66.149l1.734-1Z" transform="translate(22.201 21.999)" fill="#709be0"/>
                <path id="Trazado_816506" data-name="Trazado 816506" d="M39.023,46.743V75.692l10.657,6.153V52.9Z" transform="translate(15.959 19.117)" fill="#5586ce"/>
                <path id="Trazado_816507" data-name="Trazado 816507" d="M40.57,52.848l6.3,3.638V75.957l-6.3-3.638Z" transform="translate(16.592 21.614)" fill="#514247"/>
                <path id="Trazado_816508" data-name="Trazado 816508" d="M40.57,49.717l6.3,3.638v2.157l-6.3-3.638Z" transform="translate(16.592 20.333)" fill="#514247"/>
                <path id="Trazado_816509" data-name="Trazado 816509" d="M39.023,49.524l10.657,6.153L66.236,46.1,55.59,39.944Z" transform="translate(15.959 16.336)" fill="#88b1ed"/>
                <path id="Trazado_816510" data-name="Trazado 816510" d="M47.424,79a16.113,16.113,0,0,0-3.866,4.254v6.969a16.1,16.1,0,0,1,3.866-4.252,34.981,34.981,0,0,1,7.249-3.807V75.2A34.947,34.947,0,0,0,47.424,79" transform="translate(17.814 30.754)" fill="#c19457"/>
                <path id="Trazado_816511" data-name="Trazado 816511" d="M66.071,83.736c0,2.4-3.649,4.335-8.151,4.335s-8.149-1.94-8.149-4.335S53.42,79.4,57.92,79.4s8.151,1.942,8.151,4.335" transform="translate(20.355 32.473)" fill="#d8b480"/>
                <rect id="Rectángulo_376562" data-name="Rectángulo 376562" width="16.3" height="6.911" transform="translate(70.126 108.954)" fill="#d8b480"/>
                <path id="Trazado_816512" data-name="Trazado 816512" d="M66.071,78.587c0,2.4-3.649,4.335-8.151,4.335s-8.149-1.94-8.149-4.335,3.649-4.335,8.149-4.335,8.151,1.942,8.151,4.335" transform="translate(20.355 30.367)" fill="#f7d48f"/>
                <path id="Trazado_816513" data-name="Trazado 816513" d="M60.57,77.929C60.57,79.07,58.83,80,56.684,80S52.8,79.07,52.8,77.929s1.74-2.067,3.887-2.067,3.886.926,3.886,2.067" transform="translate(21.592 31.025)" fill="#514247"/>
              </g>
            </g>
          </g>
        </g>
        <path id="Trazado_819023" data-name="Trazado 819023" d="M31,0H227a31,31,0,0,1,0,62H31A31,31,0,0,1,31,0Z" transform="translate(495 8719)" fill="#dbf9bd"/>
        <path id="Trazado_819024" data-name="Trazado 819024" d="M31,0H227a31,31,0,0,1,0,62H31A31,31,0,0,1,31,0Z" transform="translate(887 8719)" fill="#dbf9bd"/>
        <path id="Trazado_819025" data-name="Trazado 819025" d="M31,0H227a31,31,0,0,1,0,62H31A31,31,0,0,1,31,0Z" transform="translate(342 8837)" fill="#dbf9bd"/>
        <path id="Trazado_819026" data-name="Trazado 819026" d="M31,0H227a31,31,0,0,1,0,62H31A31,31,0,0,1,31,0Z" transform="translate(342 9032)" fill="#dbf9bd"/>
        <path id="Trazado_819027" data-name="Trazado 819027" d="M31,0H227a31,31,0,0,1,0,62H31A31,31,0,0,1,31,0Z" transform="translate(495 9204)" fill="#dbf9bd"/>
        <path id="Trazado_819028" data-name="Trazado 819028" d="M31,0H227a31,31,0,0,1,0,62H31A31,31,0,0,1,31,0Z" transform="translate(820 9204)" fill="#dbf9bd"/>
        <path id="Trazado_819029" data-name="Trazado 819029" d="M31,0H227a31,31,0,0,1,0,62H31A31,31,0,0,1,31,0Z" transform="translate(972 9043)" fill="#dbf9bd"/>
        <path id="Trazado_819030" data-name="Trazado 819030" d="M31,0H227a31,31,0,0,1,0,62H31A31,31,0,0,1,31,0Z" transform="translate(972 8840)" fill="#dbf9bd"/>
        <path id="Trazado_819031" data-name="Trazado 819031" d="M-32.744,0V-12.8h4.482a5.886,5.886,0,0,1,3.533.892,3.05,3.05,0,0,1,1.2,2.615,2.891,2.891,0,0,1-.483,1.657,2.792,2.792,0,0,1-1.345,1.05A2.7,2.7,0,0,1-23.8-5.59a2.936,2.936,0,0,1,.567,1.828A3.377,3.377,0,0,1-24.412-.967,5.3,5.3,0,0,1-27.769,0Zm2.637-5.572v3.454h2.259a2.18,2.18,0,0,0,1.455-.444,1.522,1.522,0,0,0,.523-1.226A1.607,1.607,0,0,0-27.69-5.572Zm0-1.863h1.951q2-.035,2-1.591a1.47,1.47,0,0,0-.505-1.252,2.658,2.658,0,0,0-1.6-.382h-1.846Zm8.288,2.593a5.64,5.64,0,0,1,.545-2.522,3.989,3.989,0,0,1,1.569-1.714,4.577,4.577,0,0,1,2.377-.606,4.33,4.33,0,0,1,3.142,1.178,4.727,4.727,0,0,1,1.358,3.2l.018.65a4.97,4.97,0,0,1-1.222,3.511A4.247,4.247,0,0,1-17.31.176a4.268,4.268,0,0,1-3.283-1.318,5.058,5.058,0,0,1-1.226-3.586Zm2.54.18a3.555,3.555,0,0,0,.51,2.073,1.682,1.682,0,0,0,1.459.717,1.686,1.686,0,0,0,1.441-.709,3.89,3.89,0,0,0,.519-2.267,3.519,3.519,0,0,0-.519-2.06,1.686,1.686,0,0,0-1.459-.731,1.658,1.658,0,0,0-1.441.726A3.955,3.955,0,0,0-19.279-4.662ZM-8.2-11.848V-9.51h1.626v1.863H-8.2V-2.9a1.133,1.133,0,0,0,.2.756,1.015,1.015,0,0,0,.773.229,4.051,4.051,0,0,0,.747-.062V-.053A5.229,5.229,0,0,1-8.02.176a2.425,2.425,0,0,1-2.725-2.7V-7.646h-1.389V-9.51h1.389v-2.338ZM-2.483,0H-5.032V-9.51h2.549Zm-2.7-11.971a1.251,1.251,0,0,1,.382-.94,1.436,1.436,0,0,1,1.042-.369,1.44,1.44,0,0,1,1.037.369,1.244,1.244,0,0,1,.387.94,1.247,1.247,0,0,1-.391.949,1.443,1.443,0,0,1-1.033.369,1.443,1.443,0,0,1-1.033-.369A1.247,1.247,0,0,1-5.181-11.971ZM-.787-4.843a5.684,5.684,0,0,1,1-3.542,3.261,3.261,0,0,1,2.738-1.3A2.92,2.92,0,0,1,5.383-8.517L5.55-9.51H7.783V3.656H5.234V-.817a2.928,2.928,0,0,1-2.3.993A3.237,3.237,0,0,1,.224-1.143,5.963,5.963,0,0,1-.787-4.843Zm2.54.18a3.729,3.729,0,0,0,.479,2.077,1.533,1.533,0,0,0,1.349.713,1.708,1.708,0,0,0,1.652-.933V-6.74a1.694,1.694,0,0,0-1.635-.9,1.552,1.552,0,0,0-1.362.713A4.118,4.118,0,0,0,1.753-4.662Zm13.72,3.7a3.185,3.185,0,0,1-2.6,1.143A3,3,0,0,1,10.538-.7a3.752,3.752,0,0,1-.822-2.575V-9.51h2.54v6.151q0,1.487,1.354,1.487a1.834,1.834,0,0,0,1.775-.9V-9.51h2.549V0H15.543ZM22.592,0h-2.54V-9.51h2.54Zm-.747-13.368h2.769l-2.435,2.725H20.114ZM27.119-9.51l.079,1.1a3.32,3.32,0,0,1,2.733-1.274,2.759,2.759,0,0,1,2.25.888,4.142,4.142,0,0,1,.756,2.654V0H30.4V-6.082a1.648,1.648,0,0,0-.352-1.173,1.574,1.574,0,0,0-1.169-.365,1.747,1.747,0,0,0-1.608.914V0h-2.54V-9.51Z" transform="translate(634 8756)" fill="#12263f"/>
        <path id="Trazado_819032" data-name="Trazado 819032" d="M-48.955-3.357A1.353,1.353,0,0,0-49.482-4.5a6.917,6.917,0,0,0-1.9-.844,13.458,13.458,0,0,1-2.171-.875A3.547,3.547,0,0,1-55.731-9.4a3.09,3.09,0,0,1,.584-1.85,3.812,3.812,0,0,1,1.679-1.27,6.318,6.318,0,0,1,2.457-.457,5.751,5.751,0,0,1,2.443.5,3.891,3.891,0,0,1,1.666,1.4,3.668,3.668,0,0,1,.593,2.057h-2.637a1.726,1.726,0,0,0-.554-1.367,2.276,2.276,0,0,0-1.556-.488,2.432,2.432,0,0,0-1.5.409,1.289,1.289,0,0,0-.536,1.077,1.235,1.235,0,0,0,.628,1.046,7.1,7.1,0,0,0,1.85.791,7.994,7.994,0,0,1,3.278,1.679,3.343,3.343,0,0,1,1.028,2.5A3.08,3.08,0,0,1-47.566-.769,5.5,5.5,0,0,1-50.95.176,6.534,6.534,0,0,1-53.64-.365a4.256,4.256,0,0,1-1.85-1.481,3.793,3.793,0,0,1-.637-2.18h2.646q0,2.118,2.531,2.118a2.462,2.462,0,0,0,1.468-.382A1.244,1.244,0,0,0-48.955-3.357ZM-42.012,0h-2.549V-9.51h2.549Zm-2.7-11.971a1.251,1.251,0,0,1,.382-.94,1.436,1.436,0,0,1,1.042-.369,1.44,1.44,0,0,1,1.037.369,1.244,1.244,0,0,1,.387.94,1.247,1.247,0,0,1-.391.949,1.443,1.443,0,0,1-1.033.369,1.443,1.443,0,0,1-1.033-.369A1.247,1.247,0,0,1-44.71-11.971Zm4.421,7.146A5.573,5.573,0,0,1-39.248-8.35a3.375,3.375,0,0,1,2.808-1.336A2.96,2.96,0,0,1-34-8.613l.105-.9h2.3V-.316a4.064,4.064,0,0,1-.567,2.171,3.641,3.641,0,0,1-1.6,1.406,5.608,5.608,0,0,1-2.408.483,5.215,5.215,0,0,1-2.039-.417,3.619,3.619,0,0,1-1.5-1.077L-38.584.7a2.975,2.975,0,0,0,2.3,1.063,2.178,2.178,0,0,0,1.573-.541,2.027,2.027,0,0,0,.563-1.534v-.51a2.938,2.938,0,0,1-2.312.993,3.366,3.366,0,0,1-2.773-1.34A5.572,5.572,0,0,1-40.289-4.72Zm2.54.189a3.47,3.47,0,0,0,.519,2.029,1.65,1.65,0,0,0,1.424.735,1.764,1.764,0,0,0,1.661-.871V-6.749a1.76,1.76,0,0,0-1.644-.871,1.66,1.66,0,0,0-1.437.748A3.911,3.911,0,0,0-37.749-4.636ZM-27.308-9.51l.079,1.1A3.32,3.32,0,0,1-24.5-9.686a2.759,2.759,0,0,1,2.25.888,4.142,4.142,0,0,1,.756,2.654V0h-2.54V-6.082a1.648,1.648,0,0,0-.352-1.173A1.574,1.574,0,0,0-25.55-7.62a1.747,1.747,0,0,0-1.608.914V0H-29.7V-9.51Zm7.348,4.667a5.64,5.64,0,0,1,.545-2.522,3.989,3.989,0,0,1,1.569-1.714,4.577,4.577,0,0,1,2.377-.606,4.33,4.33,0,0,1,3.142,1.178,4.727,4.727,0,0,1,1.358,3.2l.018.65a4.97,4.97,0,0,1-1.222,3.511A4.247,4.247,0,0,1-15.451.176a4.268,4.268,0,0,1-3.283-1.318A5.058,5.058,0,0,1-19.96-4.729Zm2.54.18a3.555,3.555,0,0,0,.51,2.073,1.682,1.682,0,0,0,1.459.717,1.686,1.686,0,0,0,1.441-.709,3.89,3.89,0,0,0,.519-2.267,3.519,3.519,0,0,0-.519-2.06,1.686,1.686,0,0,0-1.459-.731,1.658,1.658,0,0,0-1.441.726A3.955,3.955,0,0,0-17.42-4.662ZM-4.236-2.628A.818.818,0,0,0-4.7-3.362a5.241,5.241,0,0,0-1.481-.479q-3.393-.712-3.393-2.883a2.613,2.613,0,0,1,1.05-2.114,4.237,4.237,0,0,1,2.747-.848,4.56,4.56,0,0,1,2.9.853A2.687,2.687,0,0,1-1.793-6.618h-2.54a1.229,1.229,0,0,0-.352-.9,1.488,1.488,0,0,0-1.1-.356,1.52,1.52,0,0,0-.993.29.916.916,0,0,0-.352.738.783.783,0,0,0,.4.681,4.114,4.114,0,0,0,1.349.448,11.019,11.019,0,0,1,1.6.426A2.628,2.628,0,0,1-1.767-2.733a2.481,2.481,0,0,1-1.116,2.1,4.815,4.815,0,0,1-2.883.8A5.029,5.029,0,0,1-7.888-.25,3.561,3.561,0,0,1-9.343-1.419a2.716,2.716,0,0,1-.527-1.6h2.408a1.326,1.326,0,0,0,.5,1.037,1.987,1.987,0,0,0,1.248.36A1.839,1.839,0,0,0-4.61-1.9.861.861,0,0,0-4.236-2.628ZM7.91-3.1,9.677-9.51h2.654L9.123,0H6.7L3.489-9.51H6.144ZM16.128,0H13.579V-9.51h2.549Zm-2.7-11.971a1.251,1.251,0,0,1,.382-.94,1.436,1.436,0,0,1,1.042-.369,1.44,1.44,0,0,1,1.037.369,1.244,1.244,0,0,1,.387.94,1.247,1.247,0,0,1-.391.949,1.443,1.443,0,0,1-1.033.369,1.443,1.443,0,0,1-1.033-.369A1.247,1.247,0,0,1,13.43-11.971Zm7.831.123V-9.51h1.626v1.863H21.261V-2.9a1.133,1.133,0,0,0,.2.756,1.015,1.015,0,0,0,.773.229,4.051,4.051,0,0,0,.747-.062V-.053a5.229,5.229,0,0,1-1.538.229,2.425,2.425,0,0,1-2.725-2.7V-7.646H17.332V-9.51h1.389v-2.338ZM29.813,0a2.821,2.821,0,0,1-.255-.853,3.073,3.073,0,0,1-2.4,1.028,3.376,3.376,0,0,1-2.316-.809,2.6,2.6,0,0,1-.918-2.039,2.687,2.687,0,0,1,1.121-2.32,5.529,5.529,0,0,1,3.239-.817h1.169v-.545a1.567,1.567,0,0,0-.338-1.055,1.331,1.331,0,0,0-1.068-.4A1.513,1.513,0,0,0,27.04-7.5a1.045,1.045,0,0,0-.365.844h-2.54a2.551,2.551,0,0,1,.51-1.529,3.37,3.37,0,0,1,1.441-1.1,5.253,5.253,0,0,1,2.092-.4,4.15,4.15,0,0,1,2.791.883A3.09,3.09,0,0,1,32-6.319V-2.2a4.546,4.546,0,0,0,.378,2.048V0Zm-2.1-1.767a2.188,2.188,0,0,0,1.037-.25,1.645,1.645,0,0,0,.7-.672V-4.324H28.5q-1.907,0-2.03,1.318l-.009.149a1.017,1.017,0,0,0,.334.782A1.3,1.3,0,0,0,27.712-1.767ZM36.633,0H34.084V-13.5h2.549ZM43.1.176A4.668,4.668,0,0,1,39.7-1.107a4.561,4.561,0,0,1-1.314-3.419v-.246a5.745,5.745,0,0,1,.554-2.562A4.064,4.064,0,0,1,40.5-9.075a4.4,4.4,0,0,1,2.316-.611,3.947,3.947,0,0,1,3.072,1.23,5,5,0,0,1,1.121,3.489v1.037H40.957A2.36,2.36,0,0,0,41.7-2.435a2.245,2.245,0,0,0,1.569.563,2.742,2.742,0,0,0,2.294-1.063l1.248,1.4A3.813,3.813,0,0,1,45.264-.277,5.075,5.075,0,0,1,43.1.176Zm-.29-7.813a1.587,1.587,0,0,0-1.226.512,2.651,2.651,0,0,0-.6,1.466h3.533v-.2a1.891,1.891,0,0,0-.457-1.311A1.638,1.638,0,0,0,42.812-7.638ZM53.6-2.628a.818.818,0,0,0-.461-.734,5.241,5.241,0,0,0-1.481-.479Q48.27-4.553,48.27-6.724a2.613,2.613,0,0,1,1.05-2.114,4.237,4.237,0,0,1,2.747-.848,4.56,4.56,0,0,1,2.9.853,2.687,2.687,0,0,1,1.085,2.215h-2.54a1.229,1.229,0,0,0-.352-.9,1.488,1.488,0,0,0-1.1-.356,1.52,1.52,0,0,0-.993.29.916.916,0,0,0-.352.738.783.783,0,0,0,.4.681,4.114,4.114,0,0,0,1.349.448,11.019,11.019,0,0,1,1.6.426,2.628,2.628,0,0,1,2.013,2.558,2.481,2.481,0,0,1-1.116,2.1,4.815,4.815,0,0,1-2.883.8A5.029,5.029,0,0,1,49.953-.25,3.561,3.561,0,0,1,48.5-1.419a2.716,2.716,0,0,1-.527-1.6h2.408a1.326,1.326,0,0,0,.5,1.037,1.987,1.987,0,0,0,1.248.36,1.839,1.839,0,0,0,1.1-.277A.861.861,0,0,0,53.6-2.628Z" transform="translate(993 8756)" fill="#12263f"/>
        <path id="Trazado_819033" data-name="Trazado 819033" d="M-49.047-4.685h-2.1V0h-2.637V-12.8h4.755a5.375,5.375,0,0,1,3.5,1.011A3.488,3.488,0,0,1-44.3-8.93a3.937,3.937,0,0,1-.567,2.184,3.866,3.866,0,0,1-1.718,1.393l2.769,5.229V0h-2.83Zm-2.1-2.136h2.127a2.178,2.178,0,0,0,1.538-.505,1.806,1.806,0,0,0,.545-1.393,1.933,1.933,0,0,0-.514-1.424,2.137,2.137,0,0,0-1.578-.519h-2.118Zm13.061,7a4.668,4.668,0,0,1-3.406-1.283,4.561,4.561,0,0,1-1.314-3.419v-.246a5.745,5.745,0,0,1,.554-2.562,4.064,4.064,0,0,1,1.569-1.74,4.4,4.4,0,0,1,2.316-.611A3.947,3.947,0,0,1-35.3-8.455a5,5,0,0,1,1.121,3.489v1.037h-6.056a2.36,2.36,0,0,0,.743,1.494,2.245,2.245,0,0,0,1.569.563,2.742,2.742,0,0,0,2.294-1.063l1.248,1.4A3.813,3.813,0,0,1-35.925-.277,5.075,5.075,0,0,1-38.087.176Zm-.29-7.813a1.587,1.587,0,0,0-1.226.512,2.651,2.651,0,0,0-.6,1.466h3.533v-.2a1.891,1.891,0,0,0-.457-1.311A1.638,1.638,0,0,0-38.377-7.638ZM-27.224,0a2.821,2.821,0,0,1-.255-.853,3.073,3.073,0,0,1-2.4,1.028,3.376,3.376,0,0,1-2.316-.809,2.6,2.6,0,0,1-.918-2.039,2.687,2.687,0,0,1,1.121-2.32,5.529,5.529,0,0,1,3.239-.817h1.169v-.545a1.567,1.567,0,0,0-.338-1.055,1.331,1.331,0,0,0-1.068-.4A1.513,1.513,0,0,0-30-7.5a1.045,1.045,0,0,0-.365.844H-32.9a2.551,2.551,0,0,1,.51-1.529,3.37,3.37,0,0,1,1.441-1.1,5.253,5.253,0,0,1,2.092-.4,4.15,4.15,0,0,1,2.791.883,3.09,3.09,0,0,1,1.033,2.483V-2.2a4.546,4.546,0,0,0,.378,2.048V0Zm-2.1-1.767a2.188,2.188,0,0,0,1.037-.25,1.645,1.645,0,0,0,.7-.672V-4.324h-.949q-1.907,0-2.03,1.318l-.009.149a1.017,1.017,0,0,0,.334.782A1.3,1.3,0,0,0-29.325-1.767Zm8.578-7.743.079,1.1a3.32,3.32,0,0,1,2.733-1.274,2.759,2.759,0,0,1,2.25.888,4.142,4.142,0,0,1,.756,2.654V0h-2.54V-6.082a1.648,1.648,0,0,0-.352-1.173,1.574,1.574,0,0,0-1.169-.365,1.747,1.747,0,0,0-1.608.914V0h-2.54V-9.51ZM-10.323,0h-2.549V-9.51h2.549Zm-2.7-11.971a1.251,1.251,0,0,1,.382-.94A1.436,1.436,0,0,1-11.6-13.28a1.44,1.44,0,0,1,1.037.369,1.244,1.244,0,0,1,.387.94,1.247,1.247,0,0,1-.391.949,1.443,1.443,0,0,1-1.033.369,1.443,1.443,0,0,1-1.033-.369A1.247,1.247,0,0,1-13.021-11.971ZM-5.849-9.51l.079,1.063A3.342,3.342,0,0,1-3.037-9.686,2.536,2.536,0,0,1-.514-8.235a3.265,3.265,0,0,1,2.856-1.45,2.836,2.836,0,0,1,2.3.9A4.141,4.141,0,0,1,5.4-6.073V0H2.852V-6.064a1.811,1.811,0,0,0-.316-1.182A1.4,1.4,0,0,0,1.419-7.62,1.585,1.585,0,0,0-.163-6.53L-.154,0h-2.54V-6.056a1.789,1.789,0,0,0-.325-1.2A1.416,1.416,0,0,0-4.126-7.62a1.646,1.646,0,0,0-1.564.9V0h-2.54V-9.51ZM12.863,0a2.821,2.821,0,0,1-.255-.853,3.073,3.073,0,0,1-2.4,1.028A3.376,3.376,0,0,1,7.893-.633a2.6,2.6,0,0,1-.918-2.039,2.687,2.687,0,0,1,1.121-2.32,5.529,5.529,0,0,1,3.239-.817H12.5v-.545a1.567,1.567,0,0,0-.338-1.055A1.331,1.331,0,0,0,11.1-7.8,1.513,1.513,0,0,0,10.09-7.5a1.045,1.045,0,0,0-.365.844H7.185a2.551,2.551,0,0,1,.51-1.529,3.37,3.37,0,0,1,1.441-1.1,5.253,5.253,0,0,1,2.092-.4,4.15,4.15,0,0,1,2.791.883,3.09,3.09,0,0,1,1.033,2.483V-2.2a4.546,4.546,0,0,0,.378,2.048V0Zm-2.1-1.767a2.188,2.188,0,0,0,1.037-.25,1.645,1.645,0,0,0,.7-.672V-4.324h-.949q-1.907,0-2.03,1.318l-.009.149a1.017,1.017,0,0,0,.334.782A1.3,1.3,0,0,0,10.762-1.767Zm10.2-.105A1.666,1.666,0,0,0,22.1-2.259a1.355,1.355,0,0,0,.457-1.028h2.382a3.258,3.258,0,0,1-.527,1.771A3.48,3.48,0,0,1,22.992-.268,4.442,4.442,0,0,1,21,.176a4.129,4.129,0,0,1-3.217-1.3A5.13,5.13,0,0,1,16.607-4.7v-.167a5.071,5.071,0,0,1,1.169-3.507,4.08,4.08,0,0,1,3.208-1.31A4,4,0,0,1,23.845-8.67a3.594,3.594,0,0,1,1.094,2.7H22.557A1.745,1.745,0,0,0,22.1-7.174a1.524,1.524,0,0,0-1.16-.464,1.53,1.53,0,0,0-1.34.647,3.749,3.749,0,0,0-.453,2.1v.264A3.8,3.8,0,0,0,19.6-2.515,1.549,1.549,0,0,0,20.958-1.872ZM29.07,0H26.521V-9.51H29.07Zm-2.7-11.971a1.251,1.251,0,0,1,.382-.94A1.436,1.436,0,0,1,27.8-13.28a1.44,1.44,0,0,1,1.037.369,1.244,1.244,0,0,1,.387.94,1.247,1.247,0,0,1-.391.949,1.443,1.443,0,0,1-1.033.369,1.443,1.443,0,0,1-1.033-.369A1.247,1.247,0,0,1,26.372-11.971Zm4.395,7.128a5.64,5.64,0,0,1,.545-2.522A3.989,3.989,0,0,1,32.88-9.079a4.577,4.577,0,0,1,2.377-.606A4.33,4.33,0,0,1,38.4-8.508a4.727,4.727,0,0,1,1.358,3.2l.018.65a4.97,4.97,0,0,1-1.222,3.511A4.247,4.247,0,0,1,35.275.176a4.268,4.268,0,0,1-3.283-1.318,5.058,5.058,0,0,1-1.226-3.586Zm2.54.18a3.555,3.555,0,0,0,.51,2.073,1.682,1.682,0,0,0,1.459.717,1.686,1.686,0,0,0,1.441-.709,3.89,3.89,0,0,0,.519-2.267,3.519,3.519,0,0,0-.519-2.06,1.686,1.686,0,0,0-1.459-.731,1.658,1.658,0,0,0-1.441.726A3.955,3.955,0,0,0,33.306-4.662ZM35.758-13.5h2.769l-2.435,2.725H34.027Zm7.919,3.99.079,1.1A3.32,3.32,0,0,1,46.49-9.686a2.759,2.759,0,0,1,2.25.888A4.142,4.142,0,0,1,49.5-6.144V0h-2.54V-6.082A1.648,1.648,0,0,0,46.6-7.255a1.574,1.574,0,0,0-1.169-.365,1.747,1.747,0,0,0-1.608.914V0h-2.54V-9.51ZM-78.53,18.128a1.666,1.666,0,0,0,1.143-.387,1.355,1.355,0,0,0,.457-1.028h2.382a3.258,3.258,0,0,1-.527,1.771A3.48,3.48,0,0,1-76.5,19.732a4.442,4.442,0,0,1-1.991.444,4.129,4.129,0,0,1-3.217-1.3A5.13,5.13,0,0,1-82.881,15.3v-.167a5.071,5.071,0,0,1,1.169-3.507,4.08,4.08,0,0,1,3.208-1.31,4,4,0,0,1,2.861,1.015,3.594,3.594,0,0,1,1.094,2.7h-2.382a1.745,1.745,0,0,0-.457-1.206,1.524,1.524,0,0,0-1.16-.464,1.53,1.53,0,0,0-1.34.647,3.749,3.749,0,0,0-.453,2.1v.264a3.8,3.8,0,0,0,.448,2.113A1.549,1.549,0,0,0-78.53,18.128ZM-67.588,20a2.821,2.821,0,0,1-.255-.853,3.073,3.073,0,0,1-2.4,1.028,3.376,3.376,0,0,1-2.316-.809,2.6,2.6,0,0,1-.918-2.039,2.687,2.687,0,0,1,1.121-2.32,5.529,5.529,0,0,1,3.239-.817h1.169v-.545a1.567,1.567,0,0,0-.338-1.055,1.331,1.331,0,0,0-1.068-.4,1.513,1.513,0,0,0-1.006.308,1.045,1.045,0,0,0-.365.844h-2.54a2.551,2.551,0,0,1,.51-1.529,3.37,3.37,0,0,1,1.441-1.1,5.253,5.253,0,0,1,2.092-.4,4.15,4.15,0,0,1,2.791.883A3.09,3.09,0,0,1-65.4,13.681V17.8a4.546,4.546,0,0,0,.378,2.048V20Zm-2.1-1.767a2.188,2.188,0,0,0,1.037-.25,1.645,1.645,0,0,0,.7-.672V15.676H-68.9q-1.907,0-2.03,1.318l-.009.149a1.017,1.017,0,0,0,.334.782A1.3,1.3,0,0,0-69.688,18.233ZM-58.1,12.872a6.9,6.9,0,0,0-.914-.07,1.86,1.86,0,0,0-1.89.976V20h-2.54V10.49h2.4l.07,1.134a2.354,2.354,0,0,1,2.118-1.31,2.662,2.662,0,0,1,.791.114Zm.659,2.3a5.731,5.731,0,0,1,1-3.542,3.237,3.237,0,0,1,2.729-1.318,2.913,2.913,0,0,1,2.294,1.037V6.5h2.549V20H-51.17l-.123-1.011a2.989,2.989,0,0,1-2.443,1.187,3.228,3.228,0,0,1-2.694-1.323A5.916,5.916,0,0,1-57.445,15.175Zm2.54.189a3.754,3.754,0,0,0,.466,2.051,1.517,1.517,0,0,0,1.354.713,1.7,1.7,0,0,0,1.661-.995V13.375a1.675,1.675,0,0,0-1.644-.995Q-54.905,12.38-54.905,15.364ZM-44.227,20h-2.549V10.49h2.549Zm-2.7-11.971a1.251,1.251,0,0,1,.382-.94A1.436,1.436,0,0,1-45.5,6.72a1.44,1.44,0,0,1,1.037.369,1.244,1.244,0,0,1,.387.94,1.247,1.247,0,0,1-.391.949,1.443,1.443,0,0,1-1.033.369,1.443,1.443,0,0,1-1.033-.369A1.247,1.247,0,0,1-46.925,8.029Zm4.395,7.128a5.64,5.64,0,0,1,.545-2.522,3.989,3.989,0,0,1,1.569-1.714,4.577,4.577,0,0,1,2.377-.606A4.33,4.33,0,0,1-34.9,11.492a4.727,4.727,0,0,1,1.358,3.2l.018.65a4.97,4.97,0,0,1-1.222,3.511,4.247,4.247,0,0,1-3.278,1.323A4.268,4.268,0,0,1-41.3,18.857a5.058,5.058,0,0,1-1.226-3.586Zm2.54.18a3.555,3.555,0,0,0,.51,2.073,1.682,1.682,0,0,0,1.459.717,1.686,1.686,0,0,0,1.441-.709,3.89,3.89,0,0,0,.519-2.267,3.519,3.519,0,0,0-.519-2.06,1.686,1.686,0,0,0-1.459-.731,1.658,1.658,0,0,0-1.441.726A3.955,3.955,0,0,0-39.99,15.338Zm16.594,0a5.7,5.7,0,0,1-1,3.52,3.2,3.2,0,0,1-2.694,1.323,2.963,2.963,0,0,1-2.329-1v4.482h-2.54V10.49H-29.6l.088.932a2.985,2.985,0,0,1,2.408-1.107,3.22,3.22,0,0,1,2.733,1.3A5.858,5.858,0,0,1-23.4,15.2Zm-2.54-.185a3.743,3.743,0,0,0-.47-2.048,1.532,1.532,0,0,0-1.367-.721,1.663,1.663,0,0,0-1.644.914v3.894a1.692,1.692,0,0,0,1.661.94Q-25.937,18.128-25.937,15.148Zm9.809,3.885a3.185,3.185,0,0,1-2.6,1.143,3,3,0,0,1-2.333-.879,3.752,3.752,0,0,1-.822-2.575V10.49h2.54v6.151q0,1.487,1.354,1.487a1.834,1.834,0,0,0,1.775-.9V10.49h2.549V20h-2.391ZM-9.07,20h-2.549V6.5H-9.07ZM-4.6,10.49l.079,1.063a3.342,3.342,0,0,1,2.733-1.239,2.536,2.536,0,0,1,2.522,1.45,3.265,3.265,0,0,1,2.856-1.45,2.836,2.836,0,0,1,2.3.9,4.141,4.141,0,0,1,.756,2.711V20H4.1V13.936a1.811,1.811,0,0,0-.316-1.182,1.4,1.4,0,0,0-1.116-.374A1.585,1.585,0,0,0,1.09,13.47L1.1,20h-2.54V13.944a1.789,1.789,0,0,0-.325-1.2,1.416,1.416,0,0,0-1.107-.369,1.646,1.646,0,0,0-1.564.9V20h-2.54V10.49ZM8.209,15.157a5.64,5.64,0,0,1,.545-2.522,3.989,3.989,0,0,1,1.569-1.714,4.577,4.577,0,0,1,2.377-.606,4.33,4.33,0,0,1,3.142,1.178,4.727,4.727,0,0,1,1.358,3.2l.018.65A4.97,4.97,0,0,1,16,18.853a4.247,4.247,0,0,1-3.278,1.323,4.268,4.268,0,0,1-3.283-1.318,5.058,5.058,0,0,1-1.226-3.586Zm2.54.18a3.555,3.555,0,0,0,.51,2.073,1.682,1.682,0,0,0,1.459.717,1.686,1.686,0,0,0,1.441-.709,3.89,3.89,0,0,0,.519-2.267,3.519,3.519,0,0,0-.519-2.06,1.686,1.686,0,0,0-1.459-.731,1.658,1.658,0,0,0-1.441.726A3.955,3.955,0,0,0,10.749,15.338ZM21.12,10.49l.079,1.1a3.32,3.32,0,0,1,2.733-1.274,2.759,2.759,0,0,1,2.25.888,4.142,4.142,0,0,1,.756,2.654V20H24.4V13.918a1.648,1.648,0,0,0-.352-1.173,1.574,1.574,0,0,0-1.169-.365,1.747,1.747,0,0,0-1.608.914V20h-2.54V10.49ZM34.374,20a2.821,2.821,0,0,1-.255-.853,3.073,3.073,0,0,1-2.4,1.028,3.376,3.376,0,0,1-2.316-.809,2.6,2.6,0,0,1-.918-2.039,2.687,2.687,0,0,1,1.121-2.32,5.529,5.529,0,0,1,3.239-.817h1.169v-.545a1.567,1.567,0,0,0-.338-1.055,1.331,1.331,0,0,0-1.068-.4A1.513,1.513,0,0,0,31.6,12.5a1.045,1.045,0,0,0-.365.844H28.7a2.551,2.551,0,0,1,.51-1.529,3.37,3.37,0,0,1,1.441-1.1,5.253,5.253,0,0,1,2.092-.4,4.15,4.15,0,0,1,2.791.883,3.09,3.09,0,0,1,1.033,2.483V17.8a4.546,4.546,0,0,0,.378,2.048V20Zm-2.1-1.767a2.188,2.188,0,0,0,1.037-.25,1.645,1.645,0,0,0,.7-.672V15.676h-.949q-1.907,0-2.03,1.318l-.009.149a1.017,1.017,0,0,0,.334.782A1.3,1.3,0,0,0,32.273,18.233Zm11.584-5.361a6.9,6.9,0,0,0-.914-.07,1.86,1.86,0,0,0-1.89.976V20h-2.54V10.49h2.4l.07,1.134a2.354,2.354,0,0,1,2.118-1.31,2.662,2.662,0,0,1,.791.114Zm10.608,2.443h-2.1V20H49.729V7.2h4.755a5.375,5.375,0,0,1,3.5,1.011,3.488,3.488,0,0,1,1.23,2.856,3.937,3.937,0,0,1-.567,2.184,3.866,3.866,0,0,1-1.718,1.393L59.7,19.877V20h-2.83Zm-2.1-2.136h2.127a2.178,2.178,0,0,0,1.538-.505,1.806,1.806,0,0,0,.545-1.393,1.933,1.933,0,0,0-.514-1.424,2.137,2.137,0,0,0-1.578-.519H52.365Zm18.9,2.558a4.528,4.528,0,0,1-1.525,3.252,5.355,5.355,0,0,1-3.625,1.187,4.816,4.816,0,0,1-3.872-1.657,6.793,6.793,0,0,1-1.411-4.548v-.782a7.671,7.671,0,0,1,.65-3.252,4.874,4.874,0,0,1,1.859-2.158,5.809,5.809,0,0,1,6.376.435,4.866,4.866,0,0,1,1.564,3.331H68.643a2.673,2.673,0,0,0-.69-1.8,2.555,2.555,0,0,0-1.806-.558,2.24,2.24,0,0,0-1.973.945,5.3,5.3,0,0,0-.672,2.931v.967a5.667,5.667,0,0,0,.628,3.032,2.2,2.2,0,0,0,1.982.958,2.6,2.6,0,0,0,1.824-.558,2.521,2.521,0,0,0,.69-1.727Zm4.368-.246V20H72.993V7.2h4.992a5.776,5.776,0,0,1,2.536.527,3.886,3.886,0,0,1,1.683,1.5,4.178,4.178,0,0,1,.589,2.21,3.674,3.674,0,0,1-1.288,2.966,5.363,5.363,0,0,1-3.564,1.085Zm0-2.136h2.355a2.316,2.316,0,0,0,1.6-.492,1.79,1.79,0,0,0,.549-1.406,2.111,2.111,0,0,0-.554-1.521,2.068,2.068,0,0,0-1.529-.6H75.63Z" transform="translate(499 8864)" fill="#12263f"/>
        <path id="Trazado_819034" data-name="Trazado 819034" d="M-37.516-6.108a7.725,7.725,0,0,1-.668,3.313A5.03,5.03,0,0,1-40.1-.6a5.288,5.288,0,0,1-2.852.773,5.324,5.324,0,0,1-2.839-.765A5.08,5.08,0,0,1-47.72-2.773a7.5,7.5,0,0,1-.694-3.265v-.633A7.685,7.685,0,0,1-47.733-10,5.072,5.072,0,0,1-45.809-12.2a5.3,5.3,0,0,1,2.843-.769,5.3,5.3,0,0,1,2.843.769A5.072,5.072,0,0,1-38.2-10a7.663,7.663,0,0,1,.681,3.318Zm-2.672-.58a5.385,5.385,0,0,0-.721-3.059,2.349,2.349,0,0,0-2.057-1.046A2.349,2.349,0,0,0-45.013-9.76a5.324,5.324,0,0,0-.729,3.028v.624a5.453,5.453,0,0,0,.721,3.041,2.342,2.342,0,0,0,2.074,1.081,2.321,2.321,0,0,0,2.039-1.042,5.421,5.421,0,0,0,.721-3.037ZM-27.2-4.667A5.758,5.758,0,0,1-28.173-1.1,3.231,3.231,0,0,1-30.9.176a2.969,2.969,0,0,1-2.47-1.187L-33.482,0h-2.285V-13.5h2.54v4.843a2.893,2.893,0,0,1,2.312-1.028,3.258,3.258,0,0,1,2.729,1.279,5.767,5.767,0,0,1,.989,3.6Zm-2.54-.185a3.783,3.783,0,0,0-.457-2.1,1.545,1.545,0,0,0-1.362-.664,1.676,1.676,0,0,0-1.67.993v3.753a1.7,1.7,0,0,0,1.688,1,1.568,1.568,0,0,0,1.617-1.213A6.257,6.257,0,0,0-29.738-4.852Zm9.255,2.224a.818.818,0,0,0-.461-.734,5.241,5.241,0,0,0-1.481-.479q-3.393-.712-3.393-2.883a2.613,2.613,0,0,1,1.05-2.114,4.237,4.237,0,0,1,2.747-.848,4.56,4.56,0,0,1,2.9.853A2.687,2.687,0,0,1-18.04-6.618h-2.54a1.229,1.229,0,0,0-.352-.9,1.488,1.488,0,0,0-1.1-.356,1.52,1.52,0,0,0-.993.29.916.916,0,0,0-.352.738.783.783,0,0,0,.4.681,4.114,4.114,0,0,0,1.349.448,11.019,11.019,0,0,1,1.6.426,2.628,2.628,0,0,1,2.013,2.558,2.481,2.481,0,0,1-1.116,2.1,4.815,4.815,0,0,1-2.883.8A5.029,5.029,0,0,1-24.135-.25a3.561,3.561,0,0,1-1.455-1.169,2.716,2.716,0,0,1-.527-1.6h2.408a1.326,1.326,0,0,0,.5,1.037,1.987,1.987,0,0,0,1.248.36,1.839,1.839,0,0,0,1.1-.277A.861.861,0,0,0-20.483-2.628Zm7.146-9.22V-9.51h1.626v1.863h-1.626V-2.9a1.133,1.133,0,0,0,.2.756,1.015,1.015,0,0,0,.773.229,4.051,4.051,0,0,0,.747-.062V-.053a5.229,5.229,0,0,1-1.538.229,2.425,2.425,0,0,1-2.725-2.7V-7.646h-1.389V-9.51h1.389v-2.338Zm8.385,4.72a6.9,6.9,0,0,0-.914-.07,1.86,1.86,0,0,0-1.89.976V0H-10.3V-9.51h2.4l.07,1.134a2.354,2.354,0,0,1,2.118-1.31,2.662,2.662,0,0,1,.791.114ZM1.964-.967A3.185,3.185,0,0,1-.637.176,3,3,0,0,1-2.971-.7a3.752,3.752,0,0,1-.822-2.575V-9.51h2.54v6.151q0,1.487,1.354,1.487a1.834,1.834,0,0,0,1.775-.9V-9.51H4.425V0H2.035ZM10.3-1.872a1.666,1.666,0,0,0,1.143-.387A1.355,1.355,0,0,0,11.9-3.287h2.382a3.258,3.258,0,0,1-.527,1.771A3.48,3.48,0,0,1,12.331-.268,4.442,4.442,0,0,1,10.34.176a4.129,4.129,0,0,1-3.217-1.3A5.13,5.13,0,0,1,5.946-4.7v-.167A5.071,5.071,0,0,1,7.115-8.376a4.08,4.08,0,0,1,3.208-1.31A4,4,0,0,1,13.184-8.67a3.594,3.594,0,0,1,1.094,2.7H11.9a1.745,1.745,0,0,0-.457-1.206,1.524,1.524,0,0,0-1.16-.464,1.53,1.53,0,0,0-1.34.647,3.749,3.749,0,0,0-.453,2.1v.264a3.8,3.8,0,0,0,.448,2.113A1.549,1.549,0,0,0,10.3-1.872Zm9.387,0a1.666,1.666,0,0,0,1.143-.387,1.355,1.355,0,0,0,.457-1.028h2.382a3.258,3.258,0,0,1-.527,1.771A3.48,3.48,0,0,1,21.718-.268a4.442,4.442,0,0,1-1.991.444,4.129,4.129,0,0,1-3.217-1.3A5.13,5.13,0,0,1,15.333-4.7v-.167A5.071,5.071,0,0,1,16.5-8.376a4.08,4.08,0,0,1,3.208-1.31A4,4,0,0,1,22.57-8.67a3.594,3.594,0,0,1,1.094,2.7H21.283a1.745,1.745,0,0,0-.457-1.206,1.524,1.524,0,0,0-1.16-.464,1.53,1.53,0,0,0-1.34.647,3.749,3.749,0,0,0-.453,2.1v.264a3.8,3.8,0,0,0,.448,2.113A1.549,1.549,0,0,0,19.683-1.872ZM27.8,0H25.247V-9.51H27.8ZM25.1-11.971a1.251,1.251,0,0,1,.382-.94,1.436,1.436,0,0,1,1.042-.369,1.44,1.44,0,0,1,1.037.369,1.244,1.244,0,0,1,.387.94,1.247,1.247,0,0,1-.391.949,1.443,1.443,0,0,1-1.033.369,1.443,1.443,0,0,1-1.033-.369A1.247,1.247,0,0,1,25.1-11.971Zm4.395,7.128a5.64,5.64,0,0,1,.545-2.522,3.989,3.989,0,0,1,1.569-1.714,4.577,4.577,0,0,1,2.377-.606,4.33,4.33,0,0,1,3.142,1.178,4.727,4.727,0,0,1,1.358,3.2l.018.65a4.97,4.97,0,0,1-1.222,3.511A4.247,4.247,0,0,1,34,.176a4.268,4.268,0,0,1-3.283-1.318,5.058,5.058,0,0,1-1.226-3.586Zm2.54.18a3.555,3.555,0,0,0,.51,2.073A1.682,1.682,0,0,0,34-1.872a1.686,1.686,0,0,0,1.441-.709,3.89,3.89,0,0,0,.519-2.267,3.519,3.519,0,0,0-.519-2.06,1.686,1.686,0,0,0-1.459-.731,1.658,1.658,0,0,0-1.441.726A3.955,3.955,0,0,0,32.032-4.662ZM34.484-13.5h2.769l-2.435,2.725H32.752ZM42.4-9.51l.079,1.1a3.32,3.32,0,0,1,2.733-1.274,2.759,2.759,0,0,1,2.25.888,4.142,4.142,0,0,1,.756,2.654V0h-2.54V-6.082a1.648,1.648,0,0,0-.352-1.173,1.574,1.574,0,0,0-1.169-.365,1.747,1.747,0,0,0-1.608.914V0h-2.54V-9.51ZM-55.27,15.175a5.731,5.731,0,0,1,1-3.542,3.237,3.237,0,0,1,2.729-1.318,2.913,2.913,0,0,1,2.294,1.037V6.5H-46.7V20h-2.294l-.123-1.011a2.989,2.989,0,0,1-2.443,1.187,3.228,3.228,0,0,1-2.694-1.323A5.916,5.916,0,0,1-55.27,15.175Zm2.54.189a3.754,3.754,0,0,0,.466,2.051,1.517,1.517,0,0,0,1.354.713,1.7,1.7,0,0,0,1.661-.995V13.375a1.675,1.675,0,0,0-1.644-.995Q-52.73,12.38-52.73,15.364Zm12.375,4.812a4.668,4.668,0,0,1-3.406-1.283,4.561,4.561,0,0,1-1.314-3.419v-.246a5.745,5.745,0,0,1,.554-2.562,4.064,4.064,0,0,1,1.569-1.74,4.4,4.4,0,0,1,2.316-.611,3.947,3.947,0,0,1,3.072,1.23,5,5,0,0,1,1.121,3.489v1.037H-42.5a2.36,2.36,0,0,0,.743,1.494,2.245,2.245,0,0,0,1.569.563,2.742,2.742,0,0,0,2.294-1.063l1.248,1.4a3.813,3.813,0,0,1-1.547,1.261A5.075,5.075,0,0,1-40.355,20.176Zm-.29-7.813a1.587,1.587,0,0,0-1.226.512,2.651,2.651,0,0,0-.6,1.466h3.533v-.2a1.891,1.891,0,0,0-.457-1.311A1.638,1.638,0,0,0-40.645,12.362ZM-26.96,16.9l1.767-6.407h2.654L-25.748,20h-2.426l-3.208-9.51h2.654Zm8.279,3.1h-2.54V10.49h2.54Zm-.747-13.368h2.769l-2.435,2.725H-21.16ZM-10.982,20a2.821,2.821,0,0,1-.255-.853,3.073,3.073,0,0,1-2.4,1.028,3.376,3.376,0,0,1-2.316-.809,2.6,2.6,0,0,1-.918-2.039,2.687,2.687,0,0,1,1.121-2.32,5.529,5.529,0,0,1,3.239-.817h1.169v-.545a1.567,1.567,0,0,0-.338-1.055,1.331,1.331,0,0,0-1.068-.4,1.513,1.513,0,0,0-1.006.308,1.045,1.045,0,0,0-.365.844h-2.54a2.551,2.551,0,0,1,.51-1.529,3.37,3.37,0,0,1,1.441-1.1,5.253,5.253,0,0,1,2.092-.4,4.15,4.15,0,0,1,2.791.883,3.09,3.09,0,0,1,1.033,2.483V17.8a4.546,4.546,0,0,0,.378,2.048V20Zm-2.1-1.767a2.188,2.188,0,0,0,1.037-.25,1.645,1.645,0,0,0,.7-.672V15.676h-.949q-1.907,0-2.03,1.318l-.009.149a1.017,1.017,0,0,0,.334.782A1.3,1.3,0,0,0-13.083,18.233Zm11.391-.861a.818.818,0,0,0-.461-.734,5.241,5.241,0,0,0-1.481-.479q-3.393-.712-3.393-2.883a2.613,2.613,0,0,1,1.05-2.114,4.237,4.237,0,0,1,2.747-.848,4.56,4.56,0,0,1,2.9.853A2.687,2.687,0,0,1,.751,13.382h-2.54a1.229,1.229,0,0,0-.352-.9,1.488,1.488,0,0,0-1.1-.356,1.52,1.52,0,0,0-.993.29.916.916,0,0,0-.352.738.783.783,0,0,0,.4.681,4.114,4.114,0,0,0,1.349.448,11.019,11.019,0,0,1,1.6.426A2.628,2.628,0,0,1,.778,17.267a2.481,2.481,0,0,1-1.116,2.1,4.815,4.815,0,0,1-2.883.8,5.029,5.029,0,0,1-2.123-.426A3.561,3.561,0,0,1-6.8,18.581a2.716,2.716,0,0,1-.527-1.6h2.408a1.326,1.326,0,0,0,.5,1.037,1.987,1.987,0,0,0,1.248.36,1.839,1.839,0,0,0,1.1-.277A.861.861,0,0,0-1.692,17.372ZM12.406,20a2.821,2.821,0,0,1-.255-.853,3.073,3.073,0,0,1-2.4,1.028,3.376,3.376,0,0,1-2.316-.809,2.6,2.6,0,0,1-.918-2.039,2.687,2.687,0,0,1,1.121-2.32,5.529,5.529,0,0,1,3.239-.817h1.169v-.545a1.567,1.567,0,0,0-.338-1.055,1.331,1.331,0,0,0-1.068-.4,1.513,1.513,0,0,0-1.006.308,1.045,1.045,0,0,0-.365.844H6.728a2.551,2.551,0,0,1,.51-1.529,3.37,3.37,0,0,1,1.441-1.1,5.253,5.253,0,0,1,2.092-.4,4.15,4.15,0,0,1,2.791.883,3.09,3.09,0,0,1,1.033,2.483V17.8a4.546,4.546,0,0,0,.378,2.048V20Zm-2.1-1.767a2.188,2.188,0,0,0,1.037-.25,1.645,1.645,0,0,0,.7-.672V15.676H11.1q-1.907,0-2.03,1.318l-.009.149a1.017,1.017,0,0,0,.334.782A1.3,1.3,0,0,0,10.305,18.233Zm10.617,1.942a4.668,4.668,0,0,1-3.406-1.283A4.561,4.561,0,0,1,16.2,15.474v-.246a5.745,5.745,0,0,1,.554-2.562,4.064,4.064,0,0,1,1.569-1.74,4.4,4.4,0,0,1,2.316-.611,3.947,3.947,0,0,1,3.072,1.23,5,5,0,0,1,1.121,3.489v1.037H18.778a2.36,2.36,0,0,0,.743,1.494,2.245,2.245,0,0,0,1.569.563,2.742,2.742,0,0,0,2.294-1.063l1.248,1.4a3.813,3.813,0,0,1-1.547,1.261A5.075,5.075,0,0,1,20.922,20.176Zm-.29-7.813a1.587,1.587,0,0,0-1.226.512,2.651,2.651,0,0,0-.6,1.466h3.533v-.2a1.891,1.891,0,0,0-.457-1.311A1.638,1.638,0,0,0,20.632,12.362ZM20.861,6.5h2.769L21.195,9.225H19.129Zm10.758,6.372a6.9,6.9,0,0,0-.914-.07,1.86,1.86,0,0,0-1.89.976V20h-2.54V10.49h2.4l.07,1.134a2.354,2.354,0,0,1,2.118-1.31,2.662,2.662,0,0,1,.791.114Zm5.432,7.3a4.668,4.668,0,0,1-3.406-1.283,4.561,4.561,0,0,1-1.314-3.419v-.246a5.745,5.745,0,0,1,.554-2.562,4.064,4.064,0,0,1,1.569-1.74,4.4,4.4,0,0,1,2.316-.611,3.947,3.947,0,0,1,3.072,1.23,5,5,0,0,1,1.121,3.489v1.037H34.906a2.36,2.36,0,0,0,.743,1.494,2.245,2.245,0,0,0,1.569.563,2.742,2.742,0,0,0,2.294-1.063l1.248,1.4a3.813,3.813,0,0,1-1.547,1.261A5.075,5.075,0,0,1,37.05,20.176Zm-.29-7.813a1.587,1.587,0,0,0-1.226.512,2.651,2.651,0,0,0-.6,1.466h3.533v-.2a1.891,1.891,0,0,0-.457-1.311A1.638,1.638,0,0,0,36.76,12.362ZM47.914,20a2.821,2.821,0,0,1-.255-.853,3.073,3.073,0,0,1-2.4,1.028,3.376,3.376,0,0,1-2.316-.809,2.6,2.6,0,0,1-.918-2.039,2.687,2.687,0,0,1,1.121-2.32,5.529,5.529,0,0,1,3.239-.817h1.169v-.545a1.567,1.567,0,0,0-.338-1.055,1.331,1.331,0,0,0-1.068-.4,1.513,1.513,0,0,0-1.006.308,1.045,1.045,0,0,0-.365.844h-2.54a2.551,2.551,0,0,1,.51-1.529,3.37,3.37,0,0,1,1.441-1.1,5.253,5.253,0,0,1,2.092-.4,4.15,4.15,0,0,1,2.791.883A3.09,3.09,0,0,1,50.1,13.681V17.8a4.546,4.546,0,0,0,.378,2.048V20Zm-2.1-1.767a2.188,2.188,0,0,0,1.037-.25,1.645,1.645,0,0,0,.7-.672V15.676H46.6q-1.907,0-2.03,1.318l-.009.149a1.017,1.017,0,0,0,.334.782A1.3,1.3,0,0,0,45.813,18.233ZM57.2,17.372a.818.818,0,0,0-.461-.734,5.241,5.241,0,0,0-1.481-.479q-3.393-.712-3.393-2.883a2.613,2.613,0,0,1,1.05-2.114,4.237,4.237,0,0,1,2.747-.848,4.56,4.56,0,0,1,2.9.853,2.687,2.687,0,0,1,1.085,2.215h-2.54a1.229,1.229,0,0,0-.352-.9,1.488,1.488,0,0,0-1.1-.356,1.52,1.52,0,0,0-.993.29.916.916,0,0,0-.352.738.783.783,0,0,0,.4.681,4.114,4.114,0,0,0,1.349.448,11.019,11.019,0,0,1,1.6.426,2.628,2.628,0,0,1,2.013,2.558,2.481,2.481,0,0,1-1.116,2.1,4.815,4.815,0,0,1-2.883.8,5.029,5.029,0,0,1-2.123-.426A3.561,3.561,0,0,1,52.1,18.581a2.716,2.716,0,0,1-.527-1.6h2.408a1.326,1.326,0,0,0,.5,1.037,1.987,1.987,0,0,0,1.248.36,1.839,1.839,0,0,0,1.1-.277A.861.861,0,0,0,57.2,17.372Z" transform="translate(477 9059)" fill="#12263f"/>
        <path id="Trazado_819035" data-name="Trazado 819035" d="M-23.269,0h-2.637V-12.8h2.637Zm4.614-9.51.079,1.1a3.32,3.32,0,0,1,2.733-1.274,2.759,2.759,0,0,1,2.25.888,4.142,4.142,0,0,1,.756,2.654V0h-2.54V-6.082a1.648,1.648,0,0,0-.352-1.173A1.574,1.574,0,0,0-16.9-7.62a1.747,1.747,0,0,0-1.608.914V0h-2.54V-9.51ZM-10.217,0V-7.646h-1.415V-9.51h1.415v-.809A3.283,3.283,0,0,1-9.3-12.8a3.557,3.557,0,0,1,2.571-.883,5.938,5.938,0,0,1,1.292.176l-.026,1.969a3.238,3.238,0,0,0-.773-.079q-1.433,0-1.433,1.345v.765h1.89v1.863h-1.89V0ZM1.05,0A2.821,2.821,0,0,1,.8-.853,3.073,3.073,0,0,1-1.6.176,3.376,3.376,0,0,1-3.92-.633a2.6,2.6,0,0,1-.918-2.039,2.687,2.687,0,0,1,1.121-2.32A5.529,5.529,0,0,1-.479-5.81H.69v-.545A1.567,1.567,0,0,0,.352-7.409,1.331,1.331,0,0,0-.716-7.8,1.513,1.513,0,0,0-1.723-7.5a1.045,1.045,0,0,0-.365.844h-2.54a2.551,2.551,0,0,1,.51-1.529,3.37,3.37,0,0,1,1.441-1.1,5.253,5.253,0,0,1,2.092-.4A4.15,4.15,0,0,1,2.206-8.8,3.09,3.09,0,0,1,3.239-6.319V-2.2A4.546,4.546,0,0,0,3.617-.149V0Zm-2.1-1.767a2.188,2.188,0,0,0,1.037-.25,1.645,1.645,0,0,0,.7-.672V-4.324H-.259q-1.907,0-2.03,1.318l-.009.149a1.017,1.017,0,0,0,.334.782A1.3,1.3,0,0,0-1.05-1.767ZM10.534-7.128A6.9,6.9,0,0,0,9.62-7.2a1.86,1.86,0,0,0-1.89.976V0H5.19V-9.51h2.4l.07,1.134a2.354,2.354,0,0,1,2.118-1.31,2.662,2.662,0,0,1,.791.114Zm4.7-4.72V-9.51h1.626v1.863H15.236V-2.9a1.133,1.133,0,0,0,.2.756,1.015,1.015,0,0,0,.773.229,4.051,4.051,0,0,0,.747-.062V-.053A5.229,5.229,0,0,1,15.42.176a2.425,2.425,0,0,1-2.725-2.7V-7.646H11.307V-9.51H12.7v-2.338Zm2.382,7a5.64,5.64,0,0,1,.545-2.522,3.989,3.989,0,0,1,1.569-1.714,4.577,4.577,0,0,1,2.377-.606,4.33,4.33,0,0,1,3.142,1.178,4.727,4.727,0,0,1,1.358,3.2l.018.65A4.97,4.97,0,0,1,25.4-1.147,4.247,4.247,0,0,1,22.126.176a4.268,4.268,0,0,1-3.283-1.318,5.058,5.058,0,0,1-1.226-3.586Zm2.54.18a3.555,3.555,0,0,0,.51,2.073,1.682,1.682,0,0,0,1.459.717,1.686,1.686,0,0,0,1.441-.709,3.89,3.89,0,0,0,.519-2.267,3.519,3.519,0,0,0-.519-2.06,1.686,1.686,0,0,0-1.459-.731,1.658,1.658,0,0,0-1.441.726A3.955,3.955,0,0,0,20.158-4.662Z" transform="translate(922 9241)" fill="#12263f"/>
        <path id="Trazado_819036" data-name="Trazado 819036" d="M-40.781,0h-2.637V-5.484H-48.56V0H-51.2V-12.8h2.637v5.186h5.142V-12.8h2.637Zm6.513.176a4.668,4.668,0,0,1-3.406-1.283,4.561,4.561,0,0,1-1.314-3.419v-.246a5.745,5.745,0,0,1,.554-2.562,4.064,4.064,0,0,1,1.569-1.74,4.4,4.4,0,0,1,2.316-.611,3.947,3.947,0,0,1,3.072,1.23,5,5,0,0,1,1.121,3.489v1.037h-6.056a2.36,2.36,0,0,0,.743,1.494,2.245,2.245,0,0,0,1.569.563,2.742,2.742,0,0,0,2.294-1.063l1.248,1.4A3.813,3.813,0,0,1-32.106-.277,5.075,5.075,0,0,1-34.269.176Zm-.29-7.813a1.587,1.587,0,0,0-1.226.512,2.651,2.651,0,0,0-.6,1.466h3.533v-.2a1.891,1.891,0,0,0-.457-1.311A1.638,1.638,0,0,0-34.559-7.638Zm8.024-1.872.079,1.063a3.342,3.342,0,0,1,2.733-1.239A2.536,2.536,0,0,1-21.2-8.235a3.265,3.265,0,0,1,2.856-1.45,2.836,2.836,0,0,1,2.3.9,4.141,4.141,0,0,1,.756,2.711V0h-2.549V-6.064a1.811,1.811,0,0,0-.316-1.182,1.4,1.4,0,0,0-1.116-.374,1.585,1.585,0,0,0-1.582,1.09L-20.839,0h-2.54V-6.056a1.789,1.789,0,0,0-.325-1.2,1.416,1.416,0,0,0-1.107-.369,1.646,1.646,0,0,0-1.564.9V0h-2.54V-9.51Zm12.806,4.667a5.64,5.64,0,0,1,.545-2.522,3.989,3.989,0,0,1,1.569-1.714,4.577,4.577,0,0,1,2.377-.606A4.33,4.33,0,0,1-6.1-8.508a4.727,4.727,0,0,1,1.358,3.2l.018.65A4.97,4.97,0,0,1-5.941-1.147,4.247,4.247,0,0,1-9.22.176,4.268,4.268,0,0,1-12.5-1.143a5.058,5.058,0,0,1-1.226-3.586Zm2.54.18a3.555,3.555,0,0,0,.51,2.073,1.682,1.682,0,0,0,1.459.717,1.686,1.686,0,0,0,1.441-.709A3.89,3.89,0,0,0-7.26-4.847a3.519,3.519,0,0,0-.519-2.06,1.686,1.686,0,0,0-1.459-.731,1.658,1.658,0,0,0-1.441.726A3.955,3.955,0,0,0-11.188-4.662ZM2.188-7.128a6.9,6.9,0,0,0-.914-.07,1.86,1.86,0,0,0-1.89.976V0h-2.54V-9.51h2.4l.07,1.134a2.354,2.354,0,0,1,2.118-1.31,2.662,2.662,0,0,1,.791.114Zm6.565,0A6.9,6.9,0,0,0,7.84-7.2a1.86,1.86,0,0,0-1.89.976V0H3.41V-9.51h2.4l.07,1.134A2.354,2.354,0,0,1,8-9.686a2.662,2.662,0,0,1,.791.114ZM15.223,0a2.821,2.821,0,0,1-.255-.853,3.073,3.073,0,0,1-2.4,1.028,3.376,3.376,0,0,1-2.316-.809,2.6,2.6,0,0,1-.918-2.039,2.687,2.687,0,0,1,1.121-2.32,5.529,5.529,0,0,1,3.239-.817h1.169v-.545a1.567,1.567,0,0,0-.338-1.055,1.331,1.331,0,0,0-1.068-.4A1.513,1.513,0,0,0,12.45-7.5a1.045,1.045,0,0,0-.365.844H9.545a2.551,2.551,0,0,1,.51-1.529,3.37,3.37,0,0,1,1.441-1.1,5.253,5.253,0,0,1,2.092-.4,4.15,4.15,0,0,1,2.791.883,3.09,3.09,0,0,1,1.033,2.483V-2.2a4.546,4.546,0,0,0,.378,2.048V0Zm-2.1-1.767a2.188,2.188,0,0,0,1.037-.25,1.645,1.645,0,0,0,.7-.672V-4.324h-.949q-1.907,0-2.03,1.318l-.009.149a1.017,1.017,0,0,0,.334.782A1.3,1.3,0,0,0,13.122-1.767Zm5.871-3.059A5.573,5.573,0,0,1,20.035-8.35a3.375,3.375,0,0,1,2.808-1.336,2.96,2.96,0,0,1,2.435,1.072l.105-.9h2.3V-.316a4.064,4.064,0,0,1-.567,2.171,3.641,3.641,0,0,1-1.6,1.406,5.608,5.608,0,0,1-2.408.483,5.215,5.215,0,0,1-2.039-.417,3.619,3.619,0,0,1-1.5-1.077L20.7.7A2.975,2.975,0,0,0,23,1.767a2.178,2.178,0,0,0,1.573-.541,2.027,2.027,0,0,0,.563-1.534v-.51a2.938,2.938,0,0,1-2.312.993,3.366,3.366,0,0,1-2.773-1.34A5.572,5.572,0,0,1,18.993-4.72Zm2.54.189a3.47,3.47,0,0,0,.519,2.029,1.65,1.65,0,0,0,1.424.735,1.764,1.764,0,0,0,1.661-.871V-6.749a1.76,1.76,0,0,0-1.644-.871,1.66,1.66,0,0,0-1.437.748A3.911,3.911,0,0,0,21.533-4.636ZM32.317,0H29.769V-9.51h2.549Zm-2.7-11.971a1.251,1.251,0,0,1,.382-.94,1.436,1.436,0,0,1,1.042-.369,1.44,1.44,0,0,1,1.037.369,1.244,1.244,0,0,1,.387.94,1.247,1.247,0,0,1-.391.949,1.443,1.443,0,0,1-1.033.369,1.443,1.443,0,0,1-1.033-.369A1.247,1.247,0,0,1,29.619-11.971ZM39.92,0a2.821,2.821,0,0,1-.255-.853,3.073,3.073,0,0,1-2.4,1.028A3.376,3.376,0,0,1,34.95-.633a2.6,2.6,0,0,1-.918-2.039,2.687,2.687,0,0,1,1.121-2.32,5.529,5.529,0,0,1,3.239-.817H39.56v-.545a1.567,1.567,0,0,0-.338-1.055,1.331,1.331,0,0,0-1.068-.4,1.513,1.513,0,0,0-1.006.308,1.045,1.045,0,0,0-.365.844h-2.54a2.551,2.551,0,0,1,.51-1.529,3.37,3.37,0,0,1,1.441-1.1,5.253,5.253,0,0,1,2.092-.4,4.15,4.15,0,0,1,2.791.883,3.09,3.09,0,0,1,1.033,2.483V-2.2a4.546,4.546,0,0,0,.378,2.048V0Zm-2.1-1.767a2.188,2.188,0,0,0,1.037-.25,1.645,1.645,0,0,0,.7-.672V-4.324H38.61q-1.907,0-2.03,1.318l-.009.149a1.017,1.017,0,0,0,.334.782A1.3,1.3,0,0,0,37.819-1.767ZM49.21-2.628a.818.818,0,0,0-.461-.734,5.241,5.241,0,0,0-1.481-.479q-3.393-.712-3.393-2.883a2.613,2.613,0,0,1,1.05-2.114,4.237,4.237,0,0,1,2.747-.848,4.56,4.56,0,0,1,2.9.853,2.687,2.687,0,0,1,1.085,2.215h-2.54a1.229,1.229,0,0,0-.352-.9,1.488,1.488,0,0,0-1.1-.356,1.52,1.52,0,0,0-.993.29.916.916,0,0,0-.352.738.783.783,0,0,0,.4.681,4.114,4.114,0,0,0,1.349.448,11.019,11.019,0,0,1,1.6.426A2.628,2.628,0,0,1,51.68-2.733a2.481,2.481,0,0,1-1.116,2.1,4.815,4.815,0,0,1-2.883.8A5.029,5.029,0,0,1,45.558-.25,3.561,3.561,0,0,1,44.1-1.419a2.716,2.716,0,0,1-.527-1.6h2.408a1.326,1.326,0,0,0,.5,1.037,1.987,1.987,0,0,0,1.248.36,1.839,1.839,0,0,0,1.1-.277A.861.861,0,0,0,49.21-2.628Z" transform="translate(1070 9080)" fill="#12263f"/>
        <path id="Trazado_819037" data-name="Trazado 819037" d="M-74.61,0h-2.637V-5.484h-5.142V0h-2.637V-12.8h2.637v5.186h5.142V-12.8h2.637ZM-68.1.176A4.668,4.668,0,0,1-71.5-1.107a4.561,4.561,0,0,1-1.314-3.419v-.246a5.745,5.745,0,0,1,.554-2.562,4.064,4.064,0,0,1,1.569-1.74,4.4,4.4,0,0,1,2.316-.611,3.947,3.947,0,0,1,3.072,1.23,5,5,0,0,1,1.121,3.489v1.037h-6.056A2.36,2.36,0,0,0-69.5-2.435a2.245,2.245,0,0,0,1.569.563,2.742,2.742,0,0,0,2.294-1.063l1.248,1.4A3.813,3.813,0,0,1-65.936-.277,5.075,5.075,0,0,1-68.1.176Zm-.29-7.813a1.587,1.587,0,0,0-1.226.512,2.651,2.651,0,0,0-.6,1.466h3.533v-.2a1.891,1.891,0,0,0-.457-1.311A1.638,1.638,0,0,0-68.388-7.638Zm10.986.51a6.9,6.9,0,0,0-.914-.07,1.86,1.86,0,0,0-1.89.976V0h-2.54V-9.51h2.4l.07,1.134a2.354,2.354,0,0,1,2.118-1.31,2.662,2.662,0,0,1,.791.114ZM-53.5,0h-2.549V-9.51H-53.5Zm-2.7-11.971a1.251,1.251,0,0,1,.382-.94,1.436,1.436,0,0,1,1.042-.369,1.44,1.44,0,0,1,1.037.369,1.244,1.244,0,0,1,.387.94,1.247,1.247,0,0,1-.391.949,1.443,1.443,0,0,1-1.033.369,1.443,1.443,0,0,1-1.033-.369A1.247,1.247,0,0,1-56.2-11.971ZM-51.8-4.825a5.731,5.731,0,0,1,1-3.542,3.237,3.237,0,0,1,2.729-1.318,2.913,2.913,0,0,1,2.294,1.037V-13.5h2.549V0h-2.294l-.123-1.011A2.989,2.989,0,0,1-48.094.176a3.228,3.228,0,0,1-2.694-1.323A5.916,5.916,0,0,1-51.8-4.825Zm2.54.189A3.754,3.754,0,0,0-48.8-2.585a1.517,1.517,0,0,0,1.354.713,1.7,1.7,0,0,0,1.661-.995V-6.625a1.675,1.675,0,0,0-1.644-.995Q-49.263-7.62-49.263-4.636ZM-35.754,0a2.821,2.821,0,0,1-.255-.853,3.073,3.073,0,0,1-2.4,1.028,3.376,3.376,0,0,1-2.316-.809,2.6,2.6,0,0,1-.918-2.039,2.687,2.687,0,0,1,1.121-2.32,5.529,5.529,0,0,1,3.239-.817h1.169v-.545a1.567,1.567,0,0,0-.338-1.055,1.331,1.331,0,0,0-1.068-.4,1.513,1.513,0,0,0-1.006.308,1.045,1.045,0,0,0-.365.844h-2.54a2.551,2.551,0,0,1,.51-1.529,3.37,3.37,0,0,1,1.441-1.1,5.253,5.253,0,0,1,2.092-.4A4.15,4.15,0,0,1-34.6-8.8a3.09,3.09,0,0,1,1.033,2.483V-2.2a4.546,4.546,0,0,0,.378,2.048V0Zm-2.1-1.767a2.188,2.188,0,0,0,1.037-.25,1.645,1.645,0,0,0,.7-.672V-4.324h-.949q-1.907,0-2.03,1.318l-.009.149a1.017,1.017,0,0,0,.334.782A1.3,1.3,0,0,0-37.854-1.767Zm11.391-.861a.818.818,0,0,0-.461-.734,5.241,5.241,0,0,0-1.481-.479Q-31.8-4.553-31.8-6.724a2.613,2.613,0,0,1,1.05-2.114A4.237,4.237,0,0,1-28-9.686a4.56,4.56,0,0,1,2.9.853,2.687,2.687,0,0,1,1.085,2.215h-2.54a1.229,1.229,0,0,0-.352-.9,1.488,1.488,0,0,0-1.1-.356,1.52,1.52,0,0,0-.993.29.916.916,0,0,0-.352.738.783.783,0,0,0,.4.681,4.114,4.114,0,0,0,1.349.448,11.019,11.019,0,0,1,1.6.426,2.628,2.628,0,0,1,2.013,2.558,2.481,2.481,0,0,1-1.116,2.1,4.815,4.815,0,0,1-2.883.8A5.029,5.029,0,0,1-30.116-.25,3.561,3.561,0,0,1-31.57-1.419a2.716,2.716,0,0,1-.527-1.6h2.408a1.326,1.326,0,0,0,.5,1.037,1.987,1.987,0,0,0,1.248.36,1.839,1.839,0,0,0,1.1-.277A.861.861,0,0,0-26.464-2.628ZM-21.7,3.208l-1.327-.694.316-.571A4.567,4.567,0,0,0-22.1-.193V-2.162h2.145L-19.969-.4a4.566,4.566,0,0,1-.492,1.969A5.047,5.047,0,0,1-21.7,3.208Zm7.822-8.051a5.684,5.684,0,0,1,1-3.542,3.261,3.261,0,0,1,2.738-1.3A2.92,2.92,0,0,1-7.708-8.517l.167-.993h2.232V3.656H-7.857V-.817a2.928,2.928,0,0,1-2.3.993,3.237,3.237,0,0,1-2.707-1.318A5.963,5.963,0,0,1-13.878-4.843Zm2.54.18a3.729,3.729,0,0,0,.479,2.077,1.533,1.533,0,0,0,1.349.713,1.708,1.708,0,0,0,1.652-.933V-6.74a1.694,1.694,0,0,0-1.635-.9,1.552,1.552,0,0,0-1.362.713A4.118,4.118,0,0,0-11.338-4.662Zm13.72,3.7A3.185,3.185,0,0,1-.22.176,3,3,0,0,1-2.553-.7a3.752,3.752,0,0,1-.822-2.575V-9.51h2.54v6.151q0,1.487,1.354,1.487a1.834,1.834,0,0,0,1.775-.9V-9.51H4.843V0H2.452ZM11.136.176A4.668,4.668,0,0,1,7.73-1.107,4.561,4.561,0,0,1,6.416-4.526v-.246A5.745,5.745,0,0,1,6.97-7.334a4.064,4.064,0,0,1,1.569-1.74,4.4,4.4,0,0,1,2.316-.611,3.947,3.947,0,0,1,3.072,1.23,5,5,0,0,1,1.121,3.489v1.037H8.991a2.36,2.36,0,0,0,.743,1.494,2.245,2.245,0,0,0,1.569.563A2.742,2.742,0,0,0,13.6-2.936l1.248,1.4A3.813,3.813,0,0,1,13.3-.277,5.075,5.075,0,0,1,11.136.176Zm-.29-7.813a1.587,1.587,0,0,0-1.226.512,2.651,2.651,0,0,0-.6,1.466h3.533v-.2a1.891,1.891,0,0,0-.457-1.311A1.638,1.638,0,0,0,10.846-7.638ZM18.87-9.51l.079,1.063a3.342,3.342,0,0,1,2.733-1.239,2.536,2.536,0,0,1,2.522,1.45,3.265,3.265,0,0,1,2.856-1.45,2.836,2.836,0,0,1,2.3.9,4.141,4.141,0,0,1,.756,2.711V0H27.571V-6.064a1.811,1.811,0,0,0-.316-1.182,1.4,1.4,0,0,0-1.116-.374,1.585,1.585,0,0,0-1.582,1.09L24.565,0h-2.54V-6.056a1.789,1.789,0,0,0-.325-1.2,1.416,1.416,0,0,0-1.107-.369,1.646,1.646,0,0,0-1.564.9V0h-2.54V-9.51ZM37.582,0a2.821,2.821,0,0,1-.255-.853,3.073,3.073,0,0,1-2.4,1.028,3.376,3.376,0,0,1-2.316-.809,2.6,2.6,0,0,1-.918-2.039,2.687,2.687,0,0,1,1.121-2.32,5.529,5.529,0,0,1,3.239-.817h1.169v-.545a1.567,1.567,0,0,0-.338-1.055,1.331,1.331,0,0,0-1.068-.4,1.513,1.513,0,0,0-1.006.308,1.045,1.045,0,0,0-.365.844H31.9a2.551,2.551,0,0,1,.51-1.529,3.37,3.37,0,0,1,1.441-1.1,5.253,5.253,0,0,1,2.092-.4,4.15,4.15,0,0,1,2.791.883,3.09,3.09,0,0,1,1.033,2.483V-2.2a4.546,4.546,0,0,0,.378,2.048V0Zm-2.1-1.767a2.188,2.188,0,0,0,1.037-.25,1.645,1.645,0,0,0,.7-.672V-4.324h-.949q-1.907,0-2.03,1.318l-.009.149a1.017,1.017,0,0,0,.334.782A1.3,1.3,0,0,0,35.481-1.767Zm5.845-3.059a5.731,5.731,0,0,1,1-3.542,3.237,3.237,0,0,1,2.729-1.318,2.913,2.913,0,0,1,2.294,1.037V-13.5H49.9V0H47.6l-.123-1.011A2.989,2.989,0,0,1,45.035.176a3.228,3.228,0,0,1-2.694-1.323A5.916,5.916,0,0,1,41.326-4.825Zm2.54.189a3.754,3.754,0,0,0,.466,2.051,1.517,1.517,0,0,0,1.354.713,1.7,1.7,0,0,0,1.661-.995V-6.625A1.675,1.675,0,0,0,45.7-7.62Q43.866-7.62,43.866-4.636ZM57.56-.967a3.185,3.185,0,0,1-2.6,1.143A3,3,0,0,1,52.625-.7,3.752,3.752,0,0,1,51.8-3.278V-9.51h2.54v6.151q0,1.487,1.354,1.487a1.834,1.834,0,0,0,1.775-.9V-9.51h2.549V0H57.63ZM67.28-7.128a6.9,6.9,0,0,0-.914-.07,1.86,1.86,0,0,0-1.89.976V0h-2.54V-9.51h2.4l.07,1.134a2.354,2.354,0,0,1,2.118-1.31,2.662,2.662,0,0,1,.791.114ZM73.749,0a2.821,2.821,0,0,1-.255-.853,3.073,3.073,0,0,1-2.4,1.028,3.376,3.376,0,0,1-2.316-.809,2.6,2.6,0,0,1-.918-2.039,2.687,2.687,0,0,1,1.121-2.32A5.529,5.529,0,0,1,72.22-5.81h1.169v-.545a1.567,1.567,0,0,0-.338-1.055,1.331,1.331,0,0,0-1.068-.4,1.513,1.513,0,0,0-1.006.308,1.045,1.045,0,0,0-.365.844h-2.54a2.551,2.551,0,0,1,.51-1.529,3.37,3.37,0,0,1,1.441-1.1,5.253,5.253,0,0,1,2.092-.4A4.15,4.15,0,0,1,74.9-8.8a3.09,3.09,0,0,1,1.033,2.483V-2.2a4.546,4.546,0,0,0,.378,2.048V0Zm-2.1-1.767a2.188,2.188,0,0,0,1.037-.25,1.645,1.645,0,0,0,.7-.672V-4.324h-.949q-1.907,0-2.03,1.318l-.009.149a1.017,1.017,0,0,0,.334.782A1.3,1.3,0,0,0,71.648-1.767Zm11.391-.861a.818.818,0,0,0-.461-.734A5.241,5.241,0,0,0,81.1-3.841Q77.7-4.553,77.7-6.724a2.613,2.613,0,0,1,1.05-2.114A4.237,4.237,0,0,1,81.5-9.686a4.56,4.56,0,0,1,2.9.853,2.687,2.687,0,0,1,1.085,2.215h-2.54a1.229,1.229,0,0,0-.352-.9,1.488,1.488,0,0,0-1.1-.356,1.52,1.52,0,0,0-.993.29.916.916,0,0,0-.352.738.783.783,0,0,0,.4.681,4.114,4.114,0,0,0,1.349.448,11.019,11.019,0,0,1,1.6.426,2.628,2.628,0,0,1,2.013,2.558,2.481,2.481,0,0,1-1.116,2.1,4.815,4.815,0,0,1-2.883.8A5.029,5.029,0,0,1,79.387-.25a3.561,3.561,0,0,1-1.455-1.169,2.716,2.716,0,0,1-.527-1.6h2.408a1.326,1.326,0,0,0,.5,1.037,1.987,1.987,0,0,0,1.248.36,1.839,1.839,0,0,0,1.1-.277A.861.861,0,0,0,83.039-2.628ZM-36.567,16.405l1.758-5.915h2.725l-3.823,10.986-.211.5a2.9,2.9,0,0,1-2.812,1.863,4,4,0,0,1-1.125-.167V21.749l.387.009a2.09,2.09,0,0,0,1.077-.22,1.443,1.443,0,0,0,.558-.729l.3-.782-3.331-9.536h2.733ZM-25.906,20V12.354h-1.415V10.49h1.415V9.682A3.283,3.283,0,0,1-24.987,7.2a3.557,3.557,0,0,1,2.571-.883,5.938,5.938,0,0,1,1.292.176l-.026,1.969a3.238,3.238,0,0,0-.773-.079q-1.433,0-1.433,1.345v.765h1.89v1.863h-1.89V20Zm11.1-7.128a6.9,6.9,0,0,0-.914-.07,1.86,1.86,0,0,0-1.89.976V20h-2.54V10.49h2.4l.07,1.134a2.354,2.354,0,0,1,2.118-1.31,2.662,2.662,0,0,1,.791.114ZM-8.336,20a2.821,2.821,0,0,1-.255-.853,3.073,3.073,0,0,1-2.4,1.028,3.376,3.376,0,0,1-2.316-.809,2.6,2.6,0,0,1-.918-2.039,2.687,2.687,0,0,1,1.121-2.32,5.529,5.529,0,0,1,3.239-.817H-8.7v-.545a1.567,1.567,0,0,0-.338-1.055,1.331,1.331,0,0,0-1.068-.4,1.513,1.513,0,0,0-1.006.308,1.045,1.045,0,0,0-.365.844h-2.54a2.551,2.551,0,0,1,.51-1.529,3.37,3.37,0,0,1,1.441-1.1,5.253,5.253,0,0,1,2.092-.4,4.15,4.15,0,0,1,2.791.883,3.09,3.09,0,0,1,1.033,2.483V17.8a4.546,4.546,0,0,0,.378,2.048V20Zm-2.1-1.767a2.188,2.188,0,0,0,1.037-.25,1.645,1.645,0,0,0,.7-.672V15.676h-.949q-1.907,0-2.03,1.318l-.009.149a1.017,1.017,0,0,0,.334.782A1.3,1.3,0,0,0-10.437,18.233Zm10.2-.105A1.666,1.666,0,0,0,.9,17.741a1.355,1.355,0,0,0,.457-1.028H3.74a3.258,3.258,0,0,1-.527,1.771,3.48,3.48,0,0,1-1.419,1.248A4.442,4.442,0,0,1-.2,20.176a4.129,4.129,0,0,1-3.217-1.3A5.13,5.13,0,0,1-4.592,15.3v-.167a5.071,5.071,0,0,1,1.169-3.507,4.08,4.08,0,0,1,3.208-1.31A4,4,0,0,1,2.646,11.33a3.594,3.594,0,0,1,1.094,2.7H1.358A1.745,1.745,0,0,0,.9,12.826a1.524,1.524,0,0,0-1.16-.464,1.53,1.53,0,0,0-1.34.647,3.749,3.749,0,0,0-.453,2.1v.264A3.8,3.8,0,0,0-1.6,17.485,1.549,1.549,0,0,0-.242,18.128ZM8.231,8.152V10.49H9.857v1.863H8.231V17.1a1.133,1.133,0,0,0,.2.756,1.015,1.015,0,0,0,.773.229,4.051,4.051,0,0,0,.747-.062v1.925a5.229,5.229,0,0,1-1.538.229,2.425,2.425,0,0,1-2.725-2.7V12.354H4.3V10.49H5.691V8.152Zm8.736,10.881a3.185,3.185,0,0,1-2.6,1.143,3,3,0,0,1-2.333-.879,3.752,3.752,0,0,1-.822-2.575V10.49h2.54v6.151q0,1.487,1.354,1.487a1.834,1.834,0,0,0,1.775-.9V10.49h2.549V20H17.038Zm9.721-6.161a6.9,6.9,0,0,0-.914-.07,1.86,1.86,0,0,0-1.89.976V20h-2.54V10.49h2.4l.07,1.134a2.354,2.354,0,0,1,2.118-1.31,2.662,2.662,0,0,1,.791.114ZM33.157,20a2.821,2.821,0,0,1-.255-.853,3.073,3.073,0,0,1-2.4,1.028,3.376,3.376,0,0,1-2.316-.809,2.6,2.6,0,0,1-.918-2.039,2.687,2.687,0,0,1,1.121-2.32,5.529,5.529,0,0,1,3.239-.817H32.8v-.545a1.567,1.567,0,0,0-.338-1.055,1.331,1.331,0,0,0-1.068-.4,1.513,1.513,0,0,0-1.006.308,1.045,1.045,0,0,0-.365.844h-2.54a2.551,2.551,0,0,1,.51-1.529,3.37,3.37,0,0,1,1.441-1.1,5.253,5.253,0,0,1,2.092-.4,4.15,4.15,0,0,1,2.791.883,3.09,3.09,0,0,1,1.033,2.483V17.8a4.546,4.546,0,0,0,.378,2.048V20Zm-2.1-1.767a2.188,2.188,0,0,0,1.037-.25,1.645,1.645,0,0,0,.7-.672V15.676h-.949q-1.907,0-2.03,1.318l-.009.149a1.017,1.017,0,0,0,.334.782A1.3,1.3,0,0,0,31.056,18.233Zm11.391-.861a.818.818,0,0,0-.461-.734,5.241,5.241,0,0,0-1.481-.479q-3.393-.712-3.393-2.883a2.613,2.613,0,0,1,1.05-2.114,4.237,4.237,0,0,1,2.747-.848,4.56,4.56,0,0,1,2.9.853,2.687,2.687,0,0,1,1.085,2.215H42.35a1.229,1.229,0,0,0-.352-.9,1.488,1.488,0,0,0-1.1-.356,1.52,1.52,0,0,0-.993.29.916.916,0,0,0-.352.738.783.783,0,0,0,.4.681,4.114,4.114,0,0,0,1.349.448,11.019,11.019,0,0,1,1.6.426,2.628,2.628,0,0,1,2.013,2.558,2.481,2.481,0,0,1-1.116,2.1,4.815,4.815,0,0,1-2.883.8,5.029,5.029,0,0,1-2.123-.426,3.561,3.561,0,0,1-1.455-1.169,2.716,2.716,0,0,1-.527-1.6h2.408a1.326,1.326,0,0,0,.5,1.037,1.987,1.987,0,0,0,1.248.36,1.839,1.839,0,0,0,1.1-.277A.861.861,0,0,0,42.447,17.372Z" transform="translate(650 9231)" fill="#12263f"/>
        <path id="Trazado_819038" data-name="Trazado 819038" d="M-57.05,0h-2.637V-12.8h2.637Zm4.614-9.51.079,1.1a3.32,3.32,0,0,1,2.733-1.274,2.759,2.759,0,0,1,2.25.888,4.142,4.142,0,0,1,.756,2.654V0h-2.54V-6.082a1.648,1.648,0,0,0-.352-1.173,1.574,1.574,0,0,0-1.169-.365,1.747,1.747,0,0,0-1.608.914V0h-2.54V-9.51Zm10.784-2.338V-9.51h1.626v1.863h-1.626V-2.9a1.133,1.133,0,0,0,.2.756,1.015,1.015,0,0,0,.773.229,4.051,4.051,0,0,0,.747-.062V-.053a5.229,5.229,0,0,1-1.538.229,2.425,2.425,0,0,1-2.725-2.7V-7.646H-45.58V-9.51h1.389v-2.338Zm2.382,7a5.64,5.64,0,0,1,.545-2.522,3.989,3.989,0,0,1,1.569-1.714,4.577,4.577,0,0,1,2.377-.606,4.33,4.33,0,0,1,3.142,1.178,4.727,4.727,0,0,1,1.358,3.2l.018.65a4.97,4.97,0,0,1-1.222,3.511A4.247,4.247,0,0,1-34.761.176a4.268,4.268,0,0,1-3.283-1.318A5.058,5.058,0,0,1-39.27-4.729Zm2.54.18a3.555,3.555,0,0,0,.51,2.073,1.682,1.682,0,0,0,1.459.717,1.686,1.686,0,0,0,1.441-.709A3.89,3.89,0,0,0-32.8-4.847a3.519,3.519,0,0,0-.519-2.06,1.686,1.686,0,0,0-1.459-.731,1.658,1.658,0,0,0-1.441.726A3.955,3.955,0,0,0-36.729-4.662Zm11.47-2.008,1.6-2.839h2.716l-2.707,4.658L-20.83,0h-2.725l-1.7-2.988L-26.938,0h-2.733l2.821-4.852-2.7-4.658h2.725ZM-17.042,0h-2.549V-9.51h2.549Zm-2.7-11.971a1.251,1.251,0,0,1,.382-.94,1.436,1.436,0,0,1,1.042-.369,1.44,1.44,0,0,1,1.037.369,1.244,1.244,0,0,1,.387.94,1.247,1.247,0,0,1-.391.949,1.443,1.443,0,0,1-1.033.369,1.443,1.443,0,0,1-1.033-.369A1.247,1.247,0,0,1-19.74-11.971ZM-11-1.872a1.666,1.666,0,0,0,1.143-.387A1.355,1.355,0,0,0-9.4-3.287h2.382a3.258,3.258,0,0,1-.527,1.771A3.48,3.48,0,0,1-8.96-.268a4.442,4.442,0,0,1-1.991.444,4.129,4.129,0,0,1-3.217-1.3A5.13,5.13,0,0,1-15.346-4.7v-.167a5.071,5.071,0,0,1,1.169-3.507,4.08,4.08,0,0,1,3.208-1.31A4,4,0,0,1-8.108-8.67a3.594,3.594,0,0,1,1.094,2.7H-9.4a1.745,1.745,0,0,0-.457-1.206,1.524,1.524,0,0,0-1.16-.464,1.53,1.53,0,0,0-1.34.647,3.749,3.749,0,0,0-.453,2.1v.264a3.8,3.8,0,0,0,.448,2.113A1.549,1.549,0,0,0-11-1.872ZM-.053,0A2.821,2.821,0,0,1-.308-.853,3.073,3.073,0,0,1-2.707.176,3.376,3.376,0,0,1-5.023-.633a2.6,2.6,0,0,1-.918-2.039,2.687,2.687,0,0,1,1.121-2.32A5.529,5.529,0,0,1-1.582-5.81H-.413v-.545A1.567,1.567,0,0,0-.751-7.409a1.331,1.331,0,0,0-1.068-.4A1.513,1.513,0,0,0-2.826-7.5a1.045,1.045,0,0,0-.365.844H-5.73a2.551,2.551,0,0,1,.51-1.529,3.37,3.37,0,0,1,1.441-1.1,5.253,5.253,0,0,1,2.092-.4A4.15,4.15,0,0,1,1.1-8.8,3.09,3.09,0,0,1,2.136-6.319V-2.2A4.546,4.546,0,0,0,2.514-.149V0Zm-2.1-1.767a2.188,2.188,0,0,0,1.037-.25,1.645,1.645,0,0,0,.7-.672V-4.324h-.949q-1.907,0-2.03,1.318l-.009.149a1.017,1.017,0,0,0,.334.782A1.3,1.3,0,0,0-2.153-1.767Zm10.2-.105a1.666,1.666,0,0,0,1.143-.387,1.355,1.355,0,0,0,.457-1.028h2.382A3.258,3.258,0,0,1,11.5-1.516,3.48,3.48,0,0,1,10.077-.268,4.442,4.442,0,0,1,8.086.176a4.129,4.129,0,0,1-3.217-1.3A5.13,5.13,0,0,1,3.691-4.7v-.167A5.071,5.071,0,0,1,4.86-8.376a4.08,4.08,0,0,1,3.208-1.31A4,4,0,0,1,10.929-8.67a3.594,3.594,0,0,1,1.094,2.7H9.642a1.745,1.745,0,0,0-.457-1.206,1.524,1.524,0,0,0-1.16-.464,1.53,1.53,0,0,0-1.34.647,3.749,3.749,0,0,0-.453,2.1v.264A3.8,3.8,0,0,0,6.68-2.515,1.549,1.549,0,0,0,8.042-1.872ZM16.154,0H13.605V-9.51h2.549Zm-2.7-11.971a1.251,1.251,0,0,1,.382-.94,1.436,1.436,0,0,1,1.042-.369,1.44,1.44,0,0,1,1.037.369,1.244,1.244,0,0,1,.387.94,1.247,1.247,0,0,1-.391.949,1.443,1.443,0,0,1-1.033.369,1.443,1.443,0,0,1-1.033-.369A1.247,1.247,0,0,1,13.456-11.971Zm4.395,7.128A5.64,5.64,0,0,1,18.4-7.365a3.989,3.989,0,0,1,1.569-1.714,4.577,4.577,0,0,1,2.377-.606,4.33,4.33,0,0,1,3.142,1.178,4.727,4.727,0,0,1,1.358,3.2l.018.65a4.97,4.97,0,0,1-1.222,3.511A4.247,4.247,0,0,1,22.359.176a4.268,4.268,0,0,1-3.283-1.318,5.058,5.058,0,0,1-1.226-3.586Zm2.54.18a3.555,3.555,0,0,0,.51,2.073,1.682,1.682,0,0,0,1.459.717A1.686,1.686,0,0,0,23.8-2.581a3.89,3.89,0,0,0,.519-2.267,3.519,3.519,0,0,0-.519-2.06,1.686,1.686,0,0,0-1.459-.731,1.658,1.658,0,0,0-1.441.726A3.955,3.955,0,0,0,20.391-4.662ZM30.762-9.51l.079,1.1a3.32,3.32,0,0,1,2.733-1.274,2.759,2.759,0,0,1,2.25.888,4.142,4.142,0,0,1,.756,2.654V0H34.04V-6.082a1.648,1.648,0,0,0-.352-1.173A1.574,1.574,0,0,0,32.52-7.62a1.747,1.747,0,0,0-1.608.914V0h-2.54V-9.51ZM42.882.176a4.668,4.668,0,0,1-3.406-1.283,4.561,4.561,0,0,1-1.314-3.419v-.246a5.745,5.745,0,0,1,.554-2.562,4.064,4.064,0,0,1,1.569-1.74A4.4,4.4,0,0,1,42.6-9.686a3.947,3.947,0,0,1,3.072,1.23,5,5,0,0,1,1.121,3.489v1.037H40.737a2.36,2.36,0,0,0,.743,1.494,2.245,2.245,0,0,0,1.569.563,2.742,2.742,0,0,0,2.294-1.063l1.248,1.4A3.813,3.813,0,0,1,45.044-.277,5.075,5.075,0,0,1,42.882.176Zm-.29-7.813a1.587,1.587,0,0,0-1.226.512,2.651,2.651,0,0,0-.6,1.466H44.3v-.2a1.891,1.891,0,0,0-.457-1.311A1.638,1.638,0,0,0,42.592-7.638Zm10.793,5.01a.818.818,0,0,0-.461-.734,5.241,5.241,0,0,0-1.481-.479Q48.05-4.553,48.05-6.724A2.613,2.613,0,0,1,49.1-8.837a4.237,4.237,0,0,1,2.747-.848,4.56,4.56,0,0,1,2.9.853,2.687,2.687,0,0,1,1.085,2.215h-2.54a1.229,1.229,0,0,0-.352-.9,1.488,1.488,0,0,0-1.1-.356,1.52,1.52,0,0,0-.993.29.916.916,0,0,0-.352.738.783.783,0,0,0,.4.681,4.114,4.114,0,0,0,1.349.448,11.019,11.019,0,0,1,1.6.426,2.628,2.628,0,0,1,2.013,2.558,2.481,2.481,0,0,1-1.116,2.1,4.815,4.815,0,0,1-2.883.8A5.029,5.029,0,0,1,49.733-.25a3.561,3.561,0,0,1-1.455-1.169,2.716,2.716,0,0,1-.527-1.6h2.408a1.326,1.326,0,0,0,.5,1.037,1.987,1.987,0,0,0,1.248.36,1.839,1.839,0,0,0,1.1-.277A.861.861,0,0,0,53.385-2.628Z" transform="translate(1081 8877)" fill="#12263f"/>
      </g>
    </g>
    <g id="Grupo_1072002" data-name="Grupo 1072002" transform="translate(252 -345)">
      <circle id="Elipse_5840" data-name="Elipse 5840" cx="28" cy="28" r="28" transform="translate(247 9067)" fill="#632059" opacity="0.3"/>
      <circle id="Elipse_5841" data-name="Elipse 5841" cx="17" cy="17" r="17" transform="translate(258 9078)" fill="#632059"/>
      <text id="_" data-name="+" transform="translate(270 9102)" fill="#fff" font-size="20" font-family="Roboto-Regular, Roboto"><tspan x="0" y="0">+</tspan></text>
    </g>
    <g id="Grupo_1072003" data-name="Grupo 1072003" transform="translate(837 -345)">
      <circle id="Elipse_5840-2" data-name="Elipse 5840" cx="28" cy="28" r="28" transform="translate(247 9067)" fill="#632059" opacity="0.3"/>
      <circle id="Elipse_5841-2" data-name="Elipse 5841" cx="17" cy="17" r="17" transform="translate(258 9078)" fill="#632059"/>
      <text id="_2" data-name="+" transform="translate(270 9102)" fill="#fff" font-size="20" font-family="Roboto-Regular, Roboto"><tspan x="0" y="0">+</tspan></text>
    </g>
    <g id="Grupo_1072004" data-name="Grupo 1072004" transform="translate(99 -227)">
      <circle id="Elipse_5840-3" data-name="Elipse 5840" cx="28" cy="28" r="28" transform="translate(247 9067)" fill="#632059" opacity="0.3"/>
      <circle id="Elipse_5841-3" data-name="Elipse 5841" cx="17" cy="17" r="17" transform="translate(258 9078)" fill="#632059"/>
      <text id="_3" data-name="+" transform="translate(270 9102)" fill="#fff" font-size="20" font-family="Roboto-Regular, Roboto"><tspan x="0" y="0">+</tspan></text>
    </g>
    <g id="Grupo_1072005" data-name="Grupo 1072005" transform="translate(99 -32)">
      <circle id="Elipse_5840-4" data-name="Elipse 5840" cx="28" cy="28" r="28" transform="translate(247 9067)" fill="#632059" opacity="0.3"/>
      <circle id="Elipse_5841-4" data-name="Elipse 5841" cx="17" cy="17" r="17" transform="translate(258 9078)" fill="#632059"/>
      <text id="_4" data-name="+" transform="translate(270 9102)" fill="#fff" font-size="20" font-family="Roboto-Regular, Roboto"><tspan x="0" y="0">+</tspan></text>
    </g>
    <g id="Grupo_1072006" data-name="Grupo 1072006" transform="translate(252 140)">
      <circle id="Elipse_5840-5" data-name="Elipse 5840" cx="28" cy="28" r="28" transform="translate(247 9067)" fill="#632059" opacity="0.3"/>
      <circle id="Elipse_5841-5" data-name="Elipse 5841" cx="17" cy="17" r="17" transform="translate(258 9078)" fill="#632059"/>
      <text id="_5" data-name="+" transform="translate(270 9102)" fill="#fff" font-size="20" font-family="Roboto-Regular, Roboto"><tspan x="0" y="0">+</tspan></text>
    </g>
    <g id="Grupo_1072007" data-name="Grupo 1072007" transform="translate(767 140)">
      <circle id="Elipse_5840-6" data-name="Elipse 5840" cx="28" cy="28" r="28" transform="translate(247 9067)" fill="#632059" opacity="0.3"/>
      <circle id="Elipse_5841-6" data-name="Elipse 5841" cx="17" cy="17" r="17" transform="translate(258 9078)" fill="#632059"/>
      <text id="_6" data-name="+" transform="translate(270 9102)" fill="#fff" font-size="20" font-family="Roboto-Regular, Roboto"><tspan x="0" y="0">+</tspan></text>
    </g>
    <g id="Grupo_1072008" data-name="Grupo 1072008" transform="translate(920 -21)">
      <circle id="Elipse_5840-7" data-name="Elipse 5840" cx="28" cy="28" r="28" transform="translate(247 9067)" fill="#632059" opacity="0.3"/>
      <circle id="Elipse_5841-7" data-name="Elipse 5841" cx="17" cy="17" r="17" transform="translate(258 9078)" fill="#632059"/>
      <text id="_7" data-name="+" transform="translate(270 9102)" fill="#fff" font-size="20" font-family="Roboto-Regular, Roboto"><tspan x="0" y="0">+</tspan></text>
    </g>
    <g id="Grupo_1072010" data-name="Grupo 1072010" transform="translate(922 -224)">
      <circle id="Elipse_5840-8" data-name="Elipse 5840" cx="28" cy="28" r="28" transform="translate(247 9067)" fill="#632059" opacity="0.3"/>
      <circle id="Elipse_5841-8" data-name="Elipse 5841" cx="17" cy="17" r="17" transform="translate(258 9078)" fill="#632059"/>
      <text id="_8" data-name="+" transform="translate(270 9102)" fill="#fff" font-size="20" font-family="Roboto-Regular, Roboto"><tspan x="0" y="0">+</tspan></text>
    </g>
  </g>
</svg>
