<svg xmlns="http://www.w3.org/2000/svg" xmlns:xlink="http://www.w3.org/1999/xlink" width="1030" height="581.049" viewBox="0 0 1030 581.049">
  <defs>
    <linearGradient id="linear-gradient" x1="0.5" x2="0.5" y2="1" gradientUnits="objectBoundingBox">
      <stop offset="0" stop-color="#f9fef5"/>
      <stop offset="1" stop-color="#e7f7f8"/>
    </linearGradient>
    <clipPath id="clip-path">
      <rect id="Rectángulo_376648" data-name="Rectángulo 376648" width="901" height="536.049" fill="none"/>
    </clipPath>
    <clipPath id="clip-path-2">
      <path id="Trazado_816986" data-name="Trazado 816986" d="M106.955,733.741s-1.374,10.547-2.488,17.5h107.6s-.552-12.68-1.435-18.29c-.269-1.711-10.012-2.3-23.424-2.3-30.583,0-80.252,3.09-80.252,3.09" transform="translate(-104.467 -730.651)" fill="none"/>
    </clipPath>
  </defs>
  <g id="Grupo_1072921" data-name="Grupo 1072921" transform="translate(-285 -730)">
    <g id="Grupo_1072319" data-name="Grupo 1072319">
      <g id="Grupo_1072315" data-name="Grupo 1072315" transform="translate(0 -3820)">
        <rect id="Rectángulo_376022" data-name="Rectángulo 376022" width="1030" height="581" transform="translate(285 4550)" fill="url(#linear-gradient)"/>
      </g>
      <g id="Grupo_1072314" data-name="Grupo 1072314" transform="translate(350 774.999)">
        <g id="Grupo_1072309" data-name="Grupo 1072309" transform="translate(0 0.001)">
          <g id="Grupo_1072308" data-name="Grupo 1072308" clip-path="url(#clip-path)">
            <path id="Trazado_816940" data-name="Trazado 816940" d="M1447.221,501.67c-18.626,10.323-34.784,37.7-41.517,154.173h40.843s-1.01-48.474,12.455-82.136-11.782-72.037-11.782-72.037" transform="translate(-705.022 -251.61)" fill="#56756a"/>
            <path id="Trazado_816941" data-name="Trazado 816941" d="M1571.826,484.11c15.484,5.835,24.013,11.221,27.154,14.363,3.03,3.03.9,40.283-2.132,67.212s-3.7,81.126-3.7,81.126H1473.981s1.241-24.884,1.346-50.493c.056-13.6-.893-27.893-1.01-37.7-.336-28.276-5.452-56.281,3.029-63.734,7.406-6.508,21.32-11.221,21.32-11.221Z" transform="translate(-738.515 -242.578)" fill="#56756a"/>
            <path id="Trazado_816942" data-name="Trazado 816942" d="M1536.016,632.913c-7.049-3.847-19.722-19.026-21.927-17.413-3.118,2.282,5.81,9.224,8.276,13.458,0,0-5.156-.115-13.3-4.979s-13.452-9.911-15.079-8.237c-1.718,1.769,5.625,8.108,11.7,12.591,0,0-2.261-.039-8.262-3.5-4.567-2.632-7.892-4.907-9.272-3.224s4.354,6.1,7.281,8.306c4.456,3.358,7.983,5.255,7.634,6.1s-2.48-.229-6.62-2.081c-3.388-1.516-6.351-2.917-7.3-1.518-1.389,2.053,9.194,8.571,16.9,12.426s14.189,6.184,22.232,7.043a77.808,77.808,0,0,1,9.419,4.014l8.542-17.951s-7.32-3.454-10.224-5.039" transform="translate(-746.268 -308.641)" fill="#eeab93"/>
            <path id="Trazado_816943" data-name="Trazado 816943" d="M1599.966,398.662a113.482,113.482,0,0,0-1.416,35.883s-10.161,5.427-21.524,5.821a42,42,0,0,1-19.841-4.265,150.736,150.736,0,0,0,1.145-16.913l37.695-25.041Z" transform="translate(-780.996 -197.683)" fill="#cc807b"/>
            <path id="Trazado_816944" data-name="Trazado 816944" d="M1525.013,476.815a194.405,194.405,0,0,1,31.642-6.508c17.28-2.02,41.517,6.957,41.517,6.957S1583.81,492.3,1558,491.627s-32.99-14.812-32.99-14.812" transform="translate(-764.861 -235.732)" fill="#ded3c7"/>
            <path id="Trazado_816945" data-name="Trazado 816945" d="M1584.5,457.565l6.213,16.775,26.81-13.261-4.917-16.17Z" transform="translate(-794.695 -223.142)" fill="#f4eee9"/>
            <path id="Trazado_816946" data-name="Trazado 816946" d="M1562.567,462.029l-7.038,15.774-14.758-11.358,6.348-12.635Z" transform="translate(-772.764 -227.606)" fill="#f4eee9"/>
            <path id="Trazado_816947" data-name="Trazado 816947" d="M1585.343,604.352a82.648,82.648,0,0,1,10.323-27.379s21.1,4.152,46.679,11.557L1626.86,542.75l23.227-37.028s23.227,11.445,36.692,57.9c12.608,43.5,12.519,76.629-.673,84.829-24.91,15.484-73.384-20.871-100.762-44.1" transform="translate(-795.119 -253.642)" fill="#56756a"/>
            <path id="Trazado_816948" data-name="Trazado 816948" d="M1647.876,693.065a1.006,1.006,0,0,1-.384-.076c-17.58-7.252-39.052-21.581-63.819-42.593a1.01,1.01,0,0,1-.344-.926,82.8,82.8,0,0,1,10.463-27.755,1.013,1.013,0,0,1,1.053-.459c.206.041,20.393,4.04,44.889,11.039l-12.152-34.964a1.01,1.01,0,0,1,1.908-.663l12.791,36.8a1.01,1.01,0,0,1-1.234,1.3c-22.7-6.57-42.068-10.617-45.905-11.4a82.785,82.785,0,0,0-9.721,25.853c24.419,20.67,45.56,34.763,62.841,41.891a1.01,1.01,0,0,1-.386,1.943" transform="translate(-794.103 -298.916)" fill="#4b665c"/>
            <path id="Trazado_816949" data-name="Trazado 816949" d="M1672.465,617.8a1,1,0,0,1-.487-.126,24.787,24.787,0,0,1-10.858-12.113,1.01,1.01,0,1,1,1.864-.778,22.76,22.76,0,0,0,9.97,11.123,1.01,1.01,0,0,1-.488,1.894" transform="translate(-833.085 -303.014)" fill="#4b665c"/>
            <path id="Trazado_816950" data-name="Trazado 816950" d="M1730.818,689.753a1.008,1.008,0,0,1-.688-.271c-8.414-7.829-19.095-13.778-31.745-17.682a1.01,1.01,0,0,1,.6-1.93c12.943,3.994,23.886,10.095,32.525,18.132a1.01,1.01,0,0,1-.688,1.75" transform="translate(-851.458 -335.948)" fill="#4b665c"/>
            <path id="Trazado_816951" data-name="Trazado 816951" d="M1745.469,687.753a1.01,1.01,0,0,1-.464-.113,31.746,31.746,0,0,0-13.485-3.528,1.008,1.008,0,0,1-.975-1.042,1,1,0,0,1,1.042-.976,33.774,33.774,0,0,1,14.348,3.752,1.01,1.01,0,0,1-.466,1.907" transform="translate(-867.943 -342.1)" fill="#4b665c"/>
            <path id="Trazado_816952" data-name="Trazado 816952" d="M1777.444,771.273a1.01,1.01,0,0,1-.478-1.9,15.5,15.5,0,0,0,7.955-12.183,1.01,1.01,0,0,1,2.013.158,17.57,17.57,0,0,1-9.014,13.806,1.008,1.008,0,0,1-.476.12" transform="translate(-890.959 -379.297)" fill="#4b665c"/>
            <path id="Trazado_816953" data-name="Trazado 816953" d="M1556.959,499.37c-23.2,0-32.939-13.763-33.344-14.351a1.01,1.01,0,0,1,1.663-1.147c.094.136,9.6,13.478,31.69,13.478h.24c25.1-.108,38.627-13.479,38.761-13.614a1.01,1.01,0,0,1,1.435,1.421c-.57.576-14.259,14.1-40.188,14.213h-.257" transform="translate(-764.07 -242.465)" fill="#4b665c"/>
            <path id="Trazado_816954" data-name="Trazado 816954" d="M1637.553,288.863c.01-8.623-4.684-16.228-10.292-18.05-4.006-1.3-7.5.407-11.2,2.745-4.134,2.612-34.235,2.512-36.33,6.815s8.733,12.7,7.755,17.266c-1.267,5.912,14.27,6,13.569,11.946-.521,4.414-.793,9.2,1.711,12.61,2.613,3.557-.074,27.042,4.475,25.33,0,0,15.788,1.735,25.476-29.157a108.616,108.616,0,0,0,4.838-29.505" transform="translate(-792.168 -135.6)" fill="#bf7d4f"/>
            <path id="Trazado_816955" data-name="Trazado 816955" d="M1585.324,328.686c-6.9-1.054-7.714-10.26-5.329-16.48,0,0-11.6-8.135-8.3-21.671-10.626-8.7-42.486-13.522-45.15,6.629-4.451,33.678-1.474,52.7,2.387,62.207,4.06,10,15.118,13.882,27.87,9.284,8.377-3.02,17.745-10.555,22.4-23.243,6.684,2.274,12.307-1.912,15.447-7.815,5.385-12.852-5.579-13.231-9.33-8.911" transform="translate(-764.514 -141.947)" fill="#eeab93"/>
            <path id="Trazado_816956" data-name="Trazado 816956" d="M1556.315,348a28.6,28.6,0,0,1,1.372,5.493,16.336,16.336,0,0,1,.2,2.831,10.2,10.2,0,0,1-.141,1.653,12.976,12.976,0,0,1-.309,1.546,19.05,19.05,0,0,1-3.076,6.346,57.221,57.221,0,0,1-4.322,5.1,8.619,8.619,0,0,0-.761.945s-.063.105-.027.031a.874.874,0,0,0,.035-.578c.13.486-.085-.226.012.037a4.482,4.482,0,0,0,1.436,1.127,14.448,14.448,0,0,0,3.214,1.306l1.324.308.027.007a1.187,1.187,0,0,1,.881,1.457,1.257,1.257,0,0,1-1.039.926,9.3,9.3,0,0,1-1.682.017,12.063,12.063,0,0,1-4.3-1.118,7.308,7.308,0,0,1-2.667-2.1,3.588,3.588,0,0,1-.548-1.252,2.461,2.461,0,0,1,.134-1.29,4.111,4.111,0,0,1,.331-.618,11.091,11.091,0,0,1,1.172-1.421,54.686,54.686,0,0,0,4.222-4.718,18.81,18.81,0,0,0,2.817-5.141,10.8,10.8,0,0,0,.366-1.411,7.542,7.542,0,0,0,.172-1.227,21.324,21.324,0,0,0,.01-2.456,28.8,28.8,0,0,0-.482-3.77l-.307-1.4a1.034,1.034,0,0,1,.77-1.224,1,1,0,0,1,1.171.595" transform="translate(-775.336 -174.225)" fill="#cd807c"/>
            <path id="Trazado_816957" data-name="Trazado 816957" d="M1641.748,382.7c-1.9,2.871-1.912,6-.03,6.981s4.949-.544,6.847-3.414,1.912-6,.03-6.98-4.948.543-6.847,3.414" transform="translate(-822.69 -190.081)" fill="#cc807b"/>
            <path id="Trazado_816958" data-name="Trazado 816958" d="M1538.42,334.954c-.239,1.927-4.2,2.058-8.267,2.53-6.01.7-7.5.759-8.077-.852-.281-.781.2-4.549,6.691-5.485,7.589-1.094,9.9,1.83,9.653,3.808" transform="translate(-763.358 -165.966)" fill="#bf7d4f"/>
            <path id="Trazado_816959" data-name="Trazado 816959" d="M1590.985,341.2c4.441,1.251,7.793,2.946,9.037,1.436,1.053-1.279.477-4.8-6.536-7.594-3.871-1.544-10.291-2-11.177,1.47-.826,3.239,4.151,3.413,8.676,4.688" transform="translate(-793.552 -167.453)" fill="#bf7d4f"/>
            <path id="Trazado_816960" data-name="Trazado 816960" d="M1587.456,250.425s-4.623-15.426-19.879-17.641-30.617,2.675-38.55,1.128c-8.35-1.628-3.389-6.475-3.389-6.475s-5.532,1.321-6.206,5.048c-1.042,5.759,2.867,7.2,2.867,7.2s-5.112-.752-6.853-4.212a8.526,8.526,0,0,1,.278-7.494s-11.773,6.161-13.2,15.756c-1.362,9.153,3.636,19.842,20,21.026s40.008-2.641,40.008-2.641Z" transform="translate(-753.474 -114.07)" fill="#bf7d4f"/>
            <path id="Trazado_816961" data-name="Trazado 816961" d="M1656.37,344.51a18.14,18.14,0,0,1-15.269-8.526.875.875,0,0,1,1.493-.915,16.557,16.557,0,0,0,14.413,7.677.875.875,0,0,1,.073,1.749q-.355.015-.71.015" transform="translate(-823.019 -167.842)" fill="#aa663b"/>
            <path id="Trazado_816962" data-name="Trazado 816962" d="M1650.78,357.927c-.027,0-.055,0-.083,0a11.627,11.627,0,0,1-8.289-4.79.875.875,0,1,1,1.428-1.012,9.855,9.855,0,0,0,7.026,4.06.875.875,0,0,1-.081,1.747" transform="translate(-823.659 -176.419)" fill="#aa663b"/>
            <path id="Trazado_816963" data-name="Trazado 816963" d="M1680.762,293.3a.876.876,0,0,1-.87-.786,8.946,8.946,0,0,0-6.25-7.51.875.875,0,1,1,.491-1.68,10.738,10.738,0,0,1,7.5,9.012.875.875,0,0,1-.781.96c-.031,0-.06,0-.09,0" transform="translate(-839.089 -142.081)" fill="#aa663b"/>
            <path id="Trazado_816964" data-name="Trazado 816964" d="M1651.927,260.951a.876.876,0,0,1-.846-.651,17.759,17.759,0,0,0-10.447-11.754.875.875,0,1,1,.645-1.627,19.538,19.538,0,0,1,11.494,12.933.876.876,0,0,1-.846,1.1" transform="translate(-822.572 -123.81)" fill="#aa663b"/>
            <path id="Trazado_816965" data-name="Trazado 816965" d="M1532.012,272.913h-.03a40.351,40.351,0,0,1-12.724-2.081,18.686,18.686,0,0,1-10.108-8.194c-2.295-4.2-2.173-9.4.3-12.946a.875.875,0,1,1,1.436,1,10.792,10.792,0,0,0-.2,11.105,16.946,16.946,0,0,0,9.181,7.392,38.747,38.747,0,0,0,12.174,1.972.875.875,0,0,1-.029,1.75" transform="translate(-756.081 -125.044)" fill="#aa663b"/>
            <path id="Trazado_816966" data-name="Trazado 816966" d="M1517.878,257.186a.874.874,0,0,1-.8-.525,6.472,6.472,0,0,1,3.131-8.222.875.875,0,0,1,.731,1.59,4.731,4.731,0,0,0-2.259,5.931.875.875,0,0,1-.8,1.226" transform="translate(-760.637 -124.563)" fill="#aa663b"/>
            <path id="Trazado_816967" data-name="Trazado 816967" d="M1598.807,289.231a.875.875,0,0,1-.113-1.743,144.687,144.687,0,0,0,14.994-2.778.875.875,0,1,1,.408,1.7,146.685,146.685,0,0,1-15.175,2.812.9.9,0,0,1-.115.008" transform="translate(-801.433 -142.783)" fill="#aa663b"/>
            <path id="Trazado_816968" data-name="Trazado 816968" d="M1627.568,306.49a.876.876,0,0,1-.814-.554,12.052,12.052,0,0,1,.077-8.97.875.875,0,0,1,1.617.671,10.284,10.284,0,0,0-.066,7.656.875.875,0,0,1-.814,1.2" transform="translate(-815.474 -148.671)" fill="#aa663b"/>
            <path id="Trazado_816969" data-name="Trazado 816969" d="M1551.735,247.59a14.006,14.006,0,0,1-9.8-3.958.875.875,0,0,1,1.233-1.243,12.221,12.221,0,0,0,12.445,2.8.875.875,0,0,1,.583,1.651,13.412,13.412,0,0,1-4.463.753" transform="translate(-773.218 -121.442)" fill="#aa663b"/>
            <path id="Trazado_816970" data-name="Trazado 816970" d="M1584.745,359.894c-.131,1.94,1.013,3.594,2.558,3.693s2.9-1.4,3.034-3.337-1.012-3.594-2.557-3.693-2.9,1.4-3.035,3.337" transform="translate(-794.814 -178.827)" fill="#5e5254"/>
            <path id="Trazado_816971" data-name="Trazado 816971" d="M1594.432,362.221a8.61,8.61,0,0,0-7.228-7.205,4,4,0,0,0-4.507,4.18,4.57,4.57,0,0,1,4.283-1.594c2.572.569,7.452,4.619,7.452,4.619" transform="translate(-793.78 -178.03)" fill="#5e5254"/>
            <path id="Trazado_816972" data-name="Trazado 816972" d="M1532.685,356.208c-.126,1.859.935,3.439,2.369,3.531s2.7-1.341,2.824-3.2-.935-3.439-2.369-3.53-2.7,1.341-2.824,3.2" transform="translate(-768.703 -177.048)" fill="#5e5254"/>
            <path id="Trazado_816973" data-name="Trazado 816973" d="M1540.908,358.14c.319-2.908-2.516-6.6-5.982-6.862-2.769-.356-4.885,3.166-4.663,4.718,0,0,1.616-2.652,4.446-2.242,3.176.461,6.2,4.386,6.2,4.386" transform="translate(-767.486 -176.17)" fill="#5e5254"/>
            <path id="Trazado_816974" data-name="Trazado 816974" d="M1572.7,407.135a76.2,76.2,0,0,1-10.715,4.7,34.791,34.791,0,0,1-10.172,1.8s3.576,9.47,13.26,5.982c7.331-2.642,7.627-12.476,7.627-12.476" transform="translate(-778.3 -204.197)" fill="#5e5254"/>
            <path id="Trazado_816975" data-name="Trazado 816975" d="M1569.532,418.1c-5.593,2.014-7.959-.162-7.959-.162a39.292,39.292,0,0,0,7.247-2.1,47.867,47.867,0,0,0,6.53-2.921s-.363,3.217-5.818,5.181" transform="translate(-783.197 -207.097)" fill="#eeebf2"/>
            <path id="Trazado_816976" data-name="Trazado 816976" d="M1585.14,618.777a1,1,0,0,1-.284-.041,48.591,48.591,0,0,1-17.972-9.8,1.01,1.01,0,0,1,1.321-1.528,46.553,46.553,0,0,0,17.219,9.386,1.01,1.01,0,0,1-.284,1.979" transform="translate(-785.685 -304.521)" fill="#4b665c"/>
            <path id="Trazado_816977" data-name="Trazado 816977" d="M1582.5,632.325a1.019,1.019,0,0,1-.117-.007,17.681,17.681,0,0,1-10-4.636,1.01,1.01,0,1,1,1.382-1.474,15.648,15.648,0,0,0,8.853,4.1,1.01,1.01,0,0,1-.114,2.013" transform="translate(-788.456 -313.934)" fill="#4b665c"/>
            <path id="Trazado_816978" data-name="Trazado 816978" d="M106.891,733.742s-3.022,11.782-2.488,17.5H212s-.552-12.679-1.435-18.29-103.677.786-103.677.786" transform="translate(-52.331 -366.454)" fill="#e0d1ca"/>
          </g>
        </g>
        <g id="Grupo_1072311" data-name="Grupo 1072311" transform="translate(52.072 364.198)">
          <g id="Grupo_1072310" data-name="Grupo 1072310" clip-path="url(#clip-path-2)">
            <path id="Trazado_816979" data-name="Trazado 816979" d="M122.068,758.806a1,1,0,0,1-1-1.123l2.286-18.841a1,1,0,1,1,1.989.242l-2.286,18.841a1,1,0,0,1-.993.881" transform="translate(-112.792 -734.317)" fill="#cebfb9"/>
            <path id="Trazado_816980" data-name="Trazado 816980" d="M134.541,761.96a.908.908,0,0,1-.1-.005,1,1,0,0,1-.9-1.093l1.686-17.512a1,1,0,1,1,1.994.192l-1.686,17.512a1,1,0,0,1-1,.906" transform="translate(-119.048 -736.565)" fill="#cebfb9"/>
            <path id="Trazado_816981" data-name="Trazado 816981" d="M171.359,767.407h-.042a1,1,0,0,1-.96-1.042l.688-16.615a1,1,0,1,1,2,.083l-.688,16.615a1,1,0,0,1-1,.961" transform="translate(-137.513 -739.747)" fill="#cebfb9"/>
            <path id="Trazado_816982" data-name="Trazado 816982" d="M193.382,766.067a1.068,1.068,0,0,1-.117-.007,1,1,0,0,1-.88-1.11l1.768-15.26a1,1,0,1,1,1.99.231l-1.767,15.26a1,1,0,0,1-.994.886" transform="translate(-148.559 -739.755)" fill="#cebfb9"/>
            <path id="Trazado_816983" data-name="Trazado 816983" d="M243.821,765.613a1,1,0,0,1-1-1V749.8a1,1,0,0,1,2,0v14.812a1,1,0,0,1-1,1" transform="translate(-173.857 -739.753)" fill="#cebfb9"/>
            <path id="Trazado_816984" data-name="Trazado 816984" d="M255.513,762a1,1,0,0,1-1-.941l-.848-13.916a1,1,0,1,1,2-.122l.847,13.916a1,1,0,0,1-.939,1.061l-.062,0" transform="translate(-179.296 -738.391)" fill="#cebfb9"/>
            <path id="Trazado_816985" data-name="Trazado 816985" d="M298.2,759.76a1.051,1.051,0,0,1-.171-.015,1,1,0,0,1-.817-1.157c1.169-6.792.048-15.358-1.391-21.11a1,1,0,1,1,1.943-.486c1.489,5.949,2.644,14.837,1.422,21.935a1,1,0,0,1-.986.832" transform="translate(-200.426 -733.451)" fill="#cebfb9"/>
          </g>
        </g>
        <g id="Grupo_1072313" data-name="Grupo 1072313" transform="translate(0 0.001)">
          <g id="Grupo_1072312" data-name="Grupo 1072312" clip-path="url(#clip-path)">
            <path id="Trazado_816987" data-name="Trazado 816987" d="M479.872,430.738s4.676-6.8,11.946-16.488,8.727-11.113,14.519-13.932,11.776-7.216,13.833-5.683-8.965,10.443-8.965,10.443a39.932,39.932,0,0,0,13.1.316c7.81-.97,15.32-9.988,18.123-9.326s-.539,4.421-.539,4.421,4.444-4.906,6.462-3.057-3.883,8.179-3.883,8.179,2.758-1.586,3.512.108-4.984,9.327-16.968,12.992-17.075,3.365-20.579,5.821-8.365,13.4-8.365,13.4Z" transform="translate(-240.677 -197.769)" fill="#eeab93"/>
            <path id="Trazado_816988" data-name="Trazado 816988" d="M520.156,435.269a.827.827,0,0,1-.615-1.38c.114-.126,2.824-3.108,5.855-3.612a.827.827,0,0,1,.271,1.632c-2.456.408-4.873,3.06-4.9,3.087a.825.825,0,0,1-.615.273" transform="translate(-260.466 -215.797)" fill="#ce807b"/>
            <path id="Trazado_816989" data-name="Trazado 816989" d="M582.4,413.906a.828.828,0,0,1-.266-1.611c4.292-1.456,10.132-6.972,10.191-7.028a.827.827,0,0,1,1.139,1.2c-.25.238-6.166,5.823-10.8,7.4a.824.824,0,0,1-.266.044" transform="translate(-291.685 -203.146)" fill="#ce807b"/>
            <path id="Trazado_816990" data-name="Trazado 816990" d="M585.005,424.186a.827.827,0,0,1-.231-1.622c5.555-1.618,11.387-6.975,11.446-7.029a.827.827,0,1,1,1.124,1.214c-.249.231-6.173,5.674-12.107,7.4a.816.816,0,0,1-.232.033" transform="translate(-292.991 -208.299)" fill="#ce807b"/>
            <path id="Trazado_816991" data-name="Trazado 816991" d="M278.216,450.06c17.953,5.835,55.655,48.474,55.655,48.474s29.174-27.828,42.639-47.128c0,0,16.494,6.284,24.91,15.036,0,0-31.154,78.657-67.1,79.219-28.725.449-62.836-45.332-62.836-45.332Z" transform="translate(-136.161 -225.725)" fill="#f0e9e2"/>
            <path id="Trazado_816992" data-name="Trazado 816992" d="M123.984,443.961c-10.726,2.4-25.816,12.27-28.2,15.412s-.967,32.765,6.33,58.011c6.275,21.711-4.1,59.921-2.417,68.783,1.79,9.426,38.017,11.894,63.04,11.894s40.8-4.488,43.431-9.874-2.244-22.89-1.8-41.741,7.181-34.111,5.386-47.127-16.808-53.412-20.2-55.207c-7.63-4.039-27.72-5.91-27.72-5.91Z" transform="translate(-47.504 -219.778)" fill="#f0e9e2"/>
            <path id="Trazado_816993" data-name="Trazado 816993" d="M52.183,471.99C26.495,489.158,8.516,550.647,0,621.114H39.189s12.81-47.7,27.258-81.463C75.281,519,64.26,463.918,52.183,471.99" transform="translate(0 -236.322)" fill="#f0e9e2"/>
            <path id="Trazado_816994" data-name="Trazado 816994" d="M131.465,448.56s16.423,14.188,42.19,10.323c22.441-3.366,25.583-17.729,25.583-17.729a98.264,98.264,0,0,0-38.151-2.02c-20.422,3.142-29.623,9.425-29.623,9.425" transform="translate(-65.935 -219.737)" fill="#e19a85"/>
            <path id="Trazado_816995" data-name="Trazado 816995" d="M103.241,224.014s-3.166-6.516-9.816-4.74c-4.66,1.245-5.333,4.037-5.333,4.037S77.6,217.8,72.636,231.24s2.568,24.725,11.111,26.48,19.494-33.706,19.494-33.706" transform="translate(-35.636 -109.822)" fill="#a96861"/>
            <path id="Trazado_816996" data-name="Trazado 816996" d="M131.417,304.847s-27.89-1.644-35.6-35.346c-6.934-30.3,14.3-53.033,37.091-50.545,0,0,14.51-9.855,33.418,8.008s-2.027,48.022-2.027,48.022Z" transform="translate(-47.386 -108.456)" fill="#a96861"/>
            <path id="Trazado_816997" data-name="Trazado 816997" d="M153.425,402.581c5.59-22.233,2.468-43.62,2.468-43.62l17.232-3.264,18.756,1.286c-1.473,11.817-3.635,34.21.687,43.848.8,1.794-8.717,8.055-18.064,8.38-10.509.365-21.425-5.258-21.08-6.63" transform="translate(-76.945 -178.398)" fill="#e19a85"/>
            <path id="Trazado_816998" data-name="Trazado 816998" d="M158.385,358.961l17.232-3.263,9.433.647,9.156,2.016c-1.275,10.587-2.846,28.039-.434,38.462,3.484.3,6.261.749,6.261.749A14.729,14.729,0,0,1,188.717,405c-10.817,1.412-22.6-8.351-29.989-19.416a126.6,126.6,0,0,0-.343-26.619" transform="translate(-79.437 -178.399)" fill="#ce807b"/>
            <path id="Trazado_816999" data-name="Trazado 816999" d="M195.245,331.546c-3.409,1.506-24.289,3.222-38.765-15.713-7.73-10.111-12.071-23.621-12.425-32.443s2.171-37.362,30.413-35.458c0,0,22.935,1.7,30.976,35.573,7.229,30.456-6.382,46.355-10.2,48.042" transform="translate(-72.235 -124.303)" fill="#f0ad95"/>
            <path id="Trazado_817000" data-name="Trazado 817000" d="M171.8,233.894c7.41,16.931-24.051,14.29-27.013,42.736.127,5.154,2.457,11.1-3.709,13.557L131.7,283.8s-8.415-16.8-1.373-35.107c7.032-18.283,33.517-26.941,41.469-14.8" transform="translate(-63.958 -114.483)" fill="#a96861"/>
            <path id="Trazado_817001" data-name="Trazado 817001" d="M232.389,297.29c1.3,1.162,2.826-1.431,8.261-2.622,3.74-.819,6.488,1.366,6.611.385.131-1.046-2.188-4.518-8.134-3.613-6.089.926-8.446,4.319-6.738,5.85" transform="translate(-116.282 -146.095)" fill="#a96861"/>
            <path id="Trazado_817002" data-name="Trazado 817002" d="M191.9,307.729c.163,2.1-4.514,1.055-9.593,3.862-5.278,2.917-6.217,6.558-7.523,5.847-.668-.363-.041-6.206,6.816-9.792,6.1-3.19,10.135-2.03,10.3.083" transform="translate(-87.56 -153.309)" fill="#a96861"/>
            <path id="Trazado_817003" data-name="Trazado 817003" d="M232.114,335.292s.467-.2,1.315-.631a12.829,12.829,0,0,0,3.328-2.451,8.064,8.064,0,0,0,1.627-2.474,6.135,6.135,0,0,0,.421-1.708,3.369,3.369,0,0,0-.024-1,3.117,3.117,0,0,0-.143-.547,1.885,1.885,0,0,0-.117-.3l-.08-.16-.042-.079-.021-.039-.01-.019-.161-.224a2.832,2.832,0,0,0-.694-.509,4.9,4.9,0,0,0-.455-.187l-.764-.255-1.419-.464a17.971,17.971,0,0,1-2.681-1.171,10.853,10.853,0,0,1-4.093-3.787,11.8,11.8,0,0,1-1.581-4.736,19.549,19.549,0,0,1-.056-3.668l.152-1.4,0-.027a.466.466,0,0,0-.921-.137l-.271,1.443a20.7,20.7,0,0,0-.24,3.9,13.331,13.331,0,0,0,1.384,5.483,12.859,12.859,0,0,0,4.468,4.839,20.373,20.373,0,0,0,2.926,1.561l1.451.6.646.272.226.114c-.024.026-.306-.29-.105-.075-.3-.409-.084-.113-.151-.2h0l0,0,0,0v.005s0,.022.006.045a.719.719,0,0,1,.019.16,3.99,3.99,0,0,1,.047.429,3.485,3.485,0,0,1-.117,1,5.673,5.673,0,0,1-.934,1.865,10.9,10.9,0,0,1-2.5,2.349c-.731.492-1.2.765-1.2.765a.8.8,0,0,0,.717,1.431Z" transform="translate(-112.934 -154.948)" fill="#cf807c"/>
            <path id="Trazado_817004" data-name="Trazado 817004" d="M141.943,343.429s-6.628-8.932-11.411-2.634c-2.364,3.112-.3,9.67,3.755,13.4,3.069,2.824,8.893,4.327,11.575.91,0,0,2.814-2-3.92-11.679" transform="translate(-64.967 -169.796)" fill="#f0ad95"/>
            <path id="Trazado_817005" data-name="Trazado 817005" d="M140.322,354.808c2.226,2.4,5.091,2.919,5.988,1.555s-.181-4.414-2.408-6.813-4.758-3.238-5.654-1.875-.153,4.734,2.074,7.133" transform="translate(-69.152 -174.047)" fill="#ce807b"/>
            <path id="Trazado_817006" data-name="Trazado 817006" d="M209.852,372.166a76.219,76.219,0,0,0,11.685-.578,34.79,34.79,0,0,0,9.905-2.928s1.025,10.07-9.2,11.269c-7.74.907-12.392-7.762-12.392-7.762" transform="translate(-105.25 -184.9)" fill="#5e5254"/>
            <path id="Trazado_817007" data-name="Trazado 817007" d="M224.836,380.887c5.9-.693,6.191-5.345,6.191-5.345A39.279,39.279,0,0,1,223.6,376.9a47.792,47.792,0,0,1-7.148.3,8.668,8.668,0,0,0,8.379,3.69" transform="translate(-108.563 -188.351)" fill="#eeebf2"/>
            <path id="Trazado_817008" data-name="Trazado 817008" d="M239.766,314.782a6.492,6.492,0,0,0,6.114,1.056c2.89-.894,1.932-2.949,3.688-4.1a2.544,2.544,0,0,1,3.14,1.076,1.349,1.349,0,0,0-1.822.494c-.546.9-1.093,4.488-4.28,5.224-3.866.893-6.191-1.365-6.839-3.748" transform="translate(-120.253 -156.244)" fill="#5e5254"/>
            <path id="Trazado_817009" data-name="Trazado 817009" d="M196.242,327.281a6.638,6.638,0,0,1-5.16,4.479c-2.86.643-4.058-.862-6.19-.894a2.928,2.928,0,0,0-2.636,2.67,1.534,1.534,0,0,1,2.115-.409c1.029.647,3.985,2.719,7.383,1.743a6.194,6.194,0,0,0,4.487-7.588" transform="translate(-91.409 -164.146)" fill="#5e5254"/>
            <path id="Trazado_817010" data-name="Trazado 817010" d="M149.627,284.43h-.044a.875.875,0,0,1-.83-.918,40.518,40.518,0,0,1,17.128-30.728c.742-.512,1.51-1,2.253-1.479a31.063,31.063,0,0,0,5.044-3.722c2.3-2.235,3.424-4.985,3.01-7.356a.875.875,0,0,1,1.724-.3c.514,2.941-.8,6.273-3.514,8.911a32.836,32.836,0,0,1-5.321,3.941c-.73.468-1.485.952-2.2,1.447A38.733,38.733,0,0,0,150.5,283.6a.875.875,0,0,1-.873.831" transform="translate(-74.605 -119.97)" fill="#94504b"/>
            <path id="Trazado_817011" data-name="Trazado 817011" d="M138.6,315.319a.875.875,0,0,1-.847-.657,20.239,20.239,0,0,1,3.409-17.085.875.875,0,0,1,1.4,1.054,18.73,18.73,0,0,0-3.111,15.6.876.876,0,0,1-.848,1.093" transform="translate(-68.779 -149.074)" fill="#94504b"/>
            <path id="Trazado_817012" data-name="Trazado 817012" d="M101.439,272a.876.876,0,0,1-.868-.772,41.22,41.22,0,0,1,24.886-42.858.875.875,0,0,1,.681,1.612,39.47,39.47,0,0,0-23.829,41.038.876.876,0,0,1-.766.972.927.927,0,0,1-.1.006" transform="translate(-50.297 -114.502)" fill="#94504b"/>
            <path id="Trazado_817013" data-name="Trazado 817013" d="M131.952,365.469a.879.879,0,0,1-.259-.039A26.876,26.876,0,0,1,114.837,349.9a.875.875,0,0,1,1.624-.651,25.111,25.111,0,0,0,15.748,14.512.875.875,0,0,1-.258,1.712" transform="translate(-57.564 -174.887)" fill="#94504b"/>
            <path id="Trazado_817014" data-name="Trazado 817014" d="M139.426,240.214a.875.875,0,0,1-.69-1.412,30.449,30.449,0,0,1,20.9-11.435.875.875,0,1,1,.16,1.743,28.666,28.666,0,0,0-19.681,10.766.875.875,0,0,1-.692.338" transform="translate(-69.49 -114.033)" fill="#94504b"/>
            <path id="Trazado_817015" data-name="Trazado 817015" d="M85.77,263.917a.876.876,0,0,1-.515-.168,17.513,17.513,0,0,1-5.01-22.6.876.876,0,0,1,1.533.846,15.761,15.761,0,0,0,4.509,20.344.875.875,0,0,1-.517,1.582" transform="translate(-39.159 -120.719)" fill="#94504b"/>
            <path id="Trazado_817016" data-name="Trazado 817016" d="M91.308,245.245a.875.875,0,0,1-.873-.831,6.951,6.951,0,0,1,7.548-7.274.875.875,0,0,1-.153,1.744,5.2,5.2,0,0,0-5.647,5.443.875.875,0,0,1-.83.918h-.045" transform="translate(-45.353 -118.924)" fill="#94504b"/>
            <path id="Trazado_817017" data-name="Trazado 817017" d="M118.807,226.626a.874.874,0,0,1-.789-.5,4.2,4.2,0,0,0-7.365-.364.875.875,0,1,1-1.494-.911,5.947,5.947,0,0,1,10.436.516.875.875,0,0,1-.788,1.255" transform="translate(-54.683 -111.346)" fill="#94504b"/>
            <path id="Trazado_817018" data-name="Trazado 817018" d="M233.538,252.607a.876.876,0,0,1-.854-.688,14.722,14.722,0,0,0-13.371-11.251.875.875,0,0,1,.077-1.749,16.52,16.52,0,0,1,15,12.625.875.875,0,0,1-.668,1.042.894.894,0,0,1-.188.02" transform="translate(-109.575 -119.829)" fill="#94504b"/>
            <path id="Trazado_817019" data-name="Trazado 817019" d="M204.613,230.078a.875.875,0,0,1-.552-1.554,9.256,9.256,0,0,1,9.074-1.417.875.875,0,1,1-.638,1.63,7.582,7.582,0,0,0-7.333,1.144.872.872,0,0,1-.551.2" transform="translate(-102.183 -113.599)" fill="#94504b"/>
            <path id="Trazado_817020" data-name="Trazado 817020" d="M114.785,303.1a.875.875,0,0,1-.794-.506,32.044,32.044,0,0,1,1.167-28.89.875.875,0,1,1,1.522.864,30.267,30.267,0,0,0-1.1,27.288.875.875,0,0,1-.793,1.244" transform="translate(-55.724 -137.051)" fill="#94504b"/>
            <path id="Trazado_817021" data-name="Trazado 817021" d="M159.1,642.008c-27.059,0-55.38-4.856-56.894-12.831-1.326-6.985.288-19.741,1.251-27.362l.183-1.453a1.01,1.01,0,1,1,2,.25l-.183,1.456c-.949,7.5-2.537,20.059-1.271,26.731,1.121,5.9,29.034,12.157,62.014,11.073,30.693-1.013,40.121-5.685,42.625-9.427,1.6-2.383.752-9.119-.223-16.919-.868-6.943-1.949-15.586-1.742-24.285.21-8.821,1.807-16.99,3.217-24.2,1.673-8.558,3.119-15.95,2.179-22.768-.5-3.627-2.073-9.637-4.547-17.38a1.01,1.01,0,0,1,1.924-.616c1.75,5.476,3.972,12.995,4.624,17.72.986,7.151-.56,15.059-2.2,23.431-1.461,7.477-2.973,15.208-3.18,23.858-.2,8.549.822,16.751,1.728,23.986,1.11,8.873,1.912,15.284-.1,18.293-4.081,6.1-18.551,9.474-44.237,10.322-2.367.078-4.765.117-7.171.117" transform="translate(-51.011 -262.598)" fill="#cebfb9"/>
            <path id="Trazado_817022" data-name="Trazado 817022" d="M324.494,541.975a1.01,1.01,0,0,1-.671-1.765c1.857-1.651,1.01-7.464.039-10.74a1.01,1.01,0,0,1,1.937-.573c.295.993,2.777,9.792-.634,12.823a1,1,0,0,1-.67.255" transform="translate(-162.241 -264.903)" fill="#cebfb9"/>
            <path id="Trazado_817023" data-name="Trazado 817023" d="M358.138,562.141c-10.91,0-23.681-6.294-37.972-18.716a1.01,1.01,0,0,1,1.325-1.525c14.1,12.253,26.552,18.364,37.055,18.218,34.862-.545,65.867-77.8,66.177-78.581a1.01,1.01,0,1,1,1.878.744,281.608,281.608,0,0,1-20.152,39.56c-16.492,26.5-32.6,40.058-47.872,40.3-.146,0-.293,0-.44,0" transform="translate(-160.403 -241.193)" fill="#cebfb9"/>
            <path id="Trazado_817024" data-name="Trazado 817024" d="M77.6,665.268A1.009,1.009,0,0,1,76.628,664c.128-.478,12.994-48.156,27.3-81.6.048-.123,6-15.283,11.016-24.653a1.01,1.01,0,0,1,1.781.954c-4.963,9.263-10.868,24.314-10.928,24.464C91.535,616.5,78.707,664.044,78.578,664.52a1.011,1.011,0,0,1-.974.748" transform="translate(-38.415 -279.467)" fill="#cebfb9"/>
            <path id="Trazado_817025" data-name="Trazado 817025" d="M143.506,575.085a1.01,1.01,0,0,1-.561-1.85,63.491,63.491,0,0,0,7.252-5.6,1.01,1.01,0,0,1,1.428,1.428,64.1,64.1,0,0,1-7.56,5.848,1,1,0,0,1-.559.17" transform="translate(-71.468 -284.548)" fill="#cebfb9"/>
            <path id="Trazado_817026" data-name="Trazado 817026" d="M256.277,602.072a1.01,1.01,0,0,1-.455-1.912,37.421,37.421,0,0,0,13.444-11.46,1.01,1.01,0,1,1,1.637,1.183,39.447,39.447,0,0,1-14.173,12.081,1,1,0,0,1-.454.108" transform="translate(-128.027 -295.05)" fill="#cebfb9"/>
            <path id="Trazado_817027" data-name="Trazado 817027" d="M269.771,610.881a1.01,1.01,0,0,1-.207-2,7.811,7.811,0,0,0,5.144-3.785,1.01,1.01,0,0,1,1.763.985,9.856,9.856,0,0,1-6.491,4.776,1.035,1.035,0,0,1-.209.022" transform="translate(-134.795 -303.224)" fill="#cebfb9"/>
            <path id="Trazado_817028" data-name="Trazado 817028" d="M392.835,628.747a10.771,10.771,0,0,1-4.584-1,1.01,1.01,0,0,1,.86-1.827,9.194,9.194,0,0,0,9.749-1.391,1.01,1.01,0,1,1,1.337,1.514,11.193,11.193,0,0,1-7.362,2.7" transform="translate(-194.434 -313.103)" fill="#cebfb9"/>
            <path id="Trazado_817029" data-name="Trazado 817029" d="M19.122,692.207c-.03,0-.061,0-.093,0a1.009,1.009,0,0,1-.914-1.1A43.032,43.032,0,0,1,21.438,678a1.01,1.01,0,0,1,1.856.8,41.013,41.013,0,0,0-3.168,12.491,1.01,1.01,0,0,1-1,.919" transform="translate(-9.083 -339.741)" fill="#cebfb9"/>
            <path id="Trazado_817030" data-name="Trazado 817030" d="M1478.117,693.848h-.042a1.01,1.01,0,0,1-.968-1.05c.009-.227.915-22.955,1.009-49.11.027-7.574-.3-16.315-.591-24.026-.193-5.126-.376-9.969-.419-13.66-.1-8.391.036-16.446.4-23.942a1.01,1.01,0,1,1,2.017.1c-.365,7.455-.5,15.469-.4,23.818.044,3.666.226,8.5.418,13.609.291,7.73.62,16.493.593,24.109-.095,26.194-1,48.958-1.011,49.185a1.009,1.009,0,0,1-1.008.969" transform="translate(-740.818 -291.447)" fill="#4b665c"/>
            <path id="Trazado_817032" data-name="Trazado 817032" d="M1224.853,881.817h-16.222a15.354,15.354,0,1,1,0-30.707h16.222a15.354,15.354,0,1,1,0,30.707" transform="translate(-598.481 -426.869)" fill="#f4eee9"/>
            <path id="Trazado_817033" data-name="Trazado 817033" d="M1191.528,896.836l-1.738,13.129,9.652-5.215Z" transform="translate(-596.732 -449.803)" fill="#f4eee9"/>
            <path id="Trazado_817034" data-name="Trazado 817034" d="M1218.538,878.706a3.187,3.187,0,1,1-3.187-3.187,3.187,3.187,0,0,1,3.187,3.187" transform="translate(-607.954 -439.112)" fill="#9bb3ad"/>
            <path id="Trazado_817035" data-name="Trazado 817035" d="M1240.333,878.706a3.187,3.187,0,1,1-3.187-3.187,3.187,3.187,0,0,1,3.187,3.187" transform="translate(-618.885 -439.112)" fill="#9bb3ad"/>
            <path id="Trazado_817036" data-name="Trazado 817036" d="M1262.127,878.706a3.187,3.187,0,1,1-3.187-3.187,3.187,3.187,0,0,1,3.187,3.187" transform="translate(-629.816 -439.112)" fill="#9bb3ad"/>
            <path id="Trazado_817037" data-name="Trazado 817037" d="M1189.207,887.028a.579.579,0,0,1-.575-.655l1.733-13.091v-14.84a8.5,8.5,0,0,1,8.495-8.494h31.1a8.5,8.5,0,0,1,8.494,8.494V873.32a8.5,8.5,0,0,1-8.494,8.494h-30.955l-9.524,5.145a.579.579,0,0,1-.275.069m9.653-35.922a7.343,7.343,0,0,0-7.335,7.335V873.32a.583.583,0,0,1-.005.076l-1.589,12,8.654-4.675a.58.58,0,0,1,.275-.069h31.1a7.344,7.344,0,0,0,7.335-7.335V858.441a7.343,7.343,0,0,0-7.335-7.335Z" transform="translate(-596.149 -426.286)" fill="#e6d7d1"/>
            <g id="Grupo_1072318" data-name="Grupo 1072318" transform="translate(-24.555)">
              <path id="Trazado_817038" data-name="Trazado 817038" d="M933.992,483.415H808.509a15.092,15.092,0,0,1-15.092-15.092V394.3a15.092,15.092,0,0,1,15.092-15.092H933.992A15.092,15.092,0,0,1,949.084,394.3v74.024a15.091,15.091,0,0,1-15.092,15.092" transform="translate(-397.934 -190.189)" fill="#b1c7bf"/>
              <path id="Trazado_817039" data-name="Trazado 817039" d="M831.473,579.234l-4.5,31.519,39.881-28.946Z" transform="translate(-414.762 -290.512)" fill="#b1c7bf"/>
              <path id="Trazado_817040" data-name="Trazado 817040" d="M979.126,421.119H896.154a1.713,1.713,0,1,1,0-3.425h82.972a1.713,1.713,0,1,1,0,3.425" transform="translate(-448.602 -209.492)" fill="#faf6f3"/>
              <path id="Trazado_817041" data-name="Trazado 817041" d="M849.443,421.119h-16.37a1.713,1.713,0,1,1,0-3.425h16.37a1.713,1.713,0,0,1,0,3.425" transform="translate(-416.963 -209.492)" fill="#faf6f3"/>
              <path id="Trazado_817042" data-name="Trazado 817042" d="M1017.731,451.358H973.126a1.713,1.713,0,1,1,0-3.425h44.605a1.713,1.713,0,0,1,0,3.425" transform="translate(-487.207 -224.658)" fill="#faf6f3"/>
              <path id="Trazado_817043" data-name="Trazado 817043" d="M887.811,451.358H833.073a1.713,1.713,0,1,1,0-3.425h54.737a1.713,1.713,0,1,1,0,3.425" transform="translate(-416.963 -224.658)" fill="#faf6f3"/>
              <path id="Trazado_817044" data-name="Trazado 817044" d="M990.156,511.835H918.146a1.713,1.713,0,1,1,0-3.425h72.011a1.713,1.713,0,0,1,0,3.425" transform="translate(-459.631 -254.99)" fill="#faf6f3"/>
              <path id="Trazado_817045" data-name="Trazado 817045" d="M854.924,511.835H833.073a1.713,1.713,0,1,1,0-3.425h21.851a1.713,1.713,0,0,1,0,3.425" transform="translate(-416.963 -254.99)" fill="#faf6f3"/>
              <path id="Trazado_817046" data-name="Trazado 817046" d="M997.1,542.074H973.127a1.713,1.713,0,0,1,0-3.425H997.1a1.713,1.713,0,1,1,0,3.425" transform="translate(-487.207 -270.156)" fill="#faf6f3"/>
              <path id="Trazado_817216" data-name="Trazado 817216" d="M997.1,542.074H973.127a1.713,1.713,0,0,1,0-3.425H997.1a1.713,1.713,0,1,1,0,3.425" transform="translate(-487.207 -300.303)" fill="#faf6f3"/>
              <path id="Trazado_817047" data-name="Trazado 817047" d="M890.551,542.074H833.074a1.713,1.713,0,0,1,0-3.425h57.477a1.713,1.713,0,0,1,0,3.425" transform="translate(-416.965 -270.156)" fill="#faf6f3"/>
              <path id="Trazado_817215" data-name="Trazado 817215" d="M890.551,542.074H833.074a1.713,1.713,0,0,1,0-3.425h57.477a1.713,1.713,0,0,1,0,3.425" transform="translate(-416.965 -300.303)" fill="#faf6f3"/>
            </g>
            <path id="Trazado_817048" data-name="Trazado 817048" d="M1253.148,26.056A26.055,26.055,0,1,1,1227.092,0a26.056,26.056,0,0,1,26.056,26.055" transform="translate(-602.373 -0.001)" fill="#ffcf87"/>
            <path id="Trazado_817049" data-name="Trazado 817049" d="M1222.588,55.941h30.626s-3.885,10.971-15.771,10.971-14.856-10.971-14.856-10.971" transform="translate(-613.182 -28.057)" fill="#5e5254"/>
            <path id="Trazado_817050" data-name="Trazado 817050" d="M1227.631,58.176h25.6a14.22,14.22,0,0,1-13.181,8.743,12.721,12.721,0,0,1-12.417-8.743" transform="translate(-615.711 -29.178)" fill="#fff"/>
            <path id="Trazado_817051" data-name="Trazado 817051" d="M1223.541,38.5a1.047,1.047,0,0,1-.61-1.9l4.8-3.428a1.048,1.048,0,0,1,1.247.022l4.457,3.428a1.047,1.047,0,0,1-1.276,1.659l-3.842-2.955-4.168,2.977a1.041,1.041,0,0,1-.608.2" transform="translate(-613.134 -16.541)" fill="#5e5254"/>
            <path id="Trazado_817052" data-name="Trazado 817052" d="M1262.4,38.5a1.047,1.047,0,0,1-.61-1.9l4.8-3.428a1.047,1.047,0,0,1,1.247.022l4.457,3.428a1.047,1.047,0,0,1-1.277,1.659l-3.842-2.955-4.168,2.977a1.04,1.04,0,0,1-.608.2" transform="translate(-632.624 -16.541)" fill="#5e5254"/>
            <path id="Trazado_817053" data-name="Trazado 817053" d="M1164.56,238.377l7.063-4.867-5.182-5.077,11.477-4.966,29.057,17.889-38.447,2.3Z" transform="translate(-584.078 -112.079)" fill="#9bb3ad"/>
            <path id="Trazado_817054" data-name="Trazado 817054" d="M1162.4,189.579l2.959,21.858,40.45,13.105Z" transform="translate(-582.993 -95.083)" fill="#b1c7bf"/>
            <path id="Trazado_817055" data-name="Trazado 817055" d="M1142.648,272.543l10.922-19.163,42.416,2.979Z" transform="translate(-573.088 -127.082)" fill="#b1c7bf"/>
            <path id="Trazado_817056" data-name="Trazado 817056" d="M689.635,255.31l-5.023-2.761c1.758-1.395,3.6-2.788,5.474-4.139l4.873,2.875c-1.822,1.315-3.614,2.669-5.323,4.025m10.931-7.886-4.719-2.981c1.951-1.283,3.98-2.559,6.034-3.793l4.56,3.08c-2,1.2-3.976,2.444-5.875,3.693m12.007-7.215-4.4-3.174c2.128-1.169,4.328-2.325,6.54-3.436l4.23,3.261c-2.156,1.083-4.3,2.209-6.373,3.349m12.976-6.521-4.059-3.343c2.281-1.048,4.635-2.08,7-3.07l3.885,3.42c-2.3.965-4.6,1.972-6.822,2.993m13.851-5.8-3.706-3.492c2.428-.926,4.92-1.832,7.409-2.693l3.523,3.558c-2.427.84-4.858,1.723-7.226,2.626m14.637-5.066L750.7,219.2c2.543-.795,5.159-1.57,7.777-2.306l3.146,3.676c-2.554.717-5.107,1.475-7.587,2.25m15.338-4.307-2.951-3.728c2.661-.667,5.387-1.309,8.1-1.909l2.753,3.774c-2.649.586-5.309,1.213-7.905,1.862m15.954-3.528-2.552-3.816c2.752-.531,5.573-1.037,8.384-1.5l2.35,3.853c-2.744.456-5.5.949-8.182,1.467m16.486-2.735-2.142-3.884c2.838-.4,5.739-.764,8.624-1.093l1.933,3.91c-2.815.321-5.646.68-8.415,1.066m16.929-1.93-1.722-3.932c2.91-.26,5.876-.488,8.816-.678l1.509,3.948c-2.868.186-5.763.408-8.6.662m17.285-1.121-1.3-3.96c2.957-.121,5.972-.21,8.961-.264l1.084,3.967c-2.918.052-5.862.138-8.748.257m161.255,24.8q-1.655-.558-3.308-1.1l2.132-3.479q1.682.554,3.368,1.122Zm-11.739-3.8c-2.82-.877-5.681-1.739-8.5-2.562l1.823-3.574c2.874.839,5.788,1.717,8.66,2.609ZM853.58,208.883l-.871-3.967c2.991.015,6.039.064,9.061.147l.658,3.964c-2.951-.081-5.927-.129-8.848-.144m114.888,16.329c-2.872-.784-5.779-1.549-8.638-2.275l1.492-3.664c2.915.74,5.878,1.52,8.807,2.319ZM871.31,209.368l-.447-3.956c3.019.149,6.085.334,9.114.549l.237,3.943c-2.96-.211-5.956-.391-8.9-.537m79.822,11.445c-2.907-.682-5.852-1.343-8.752-1.966l1.139-3.747c2.96.636,5.965,1.311,8.932,2.006Zm-62-10.178-.03-3.926c3.026.28,6.1.6,9.125.94l-.175,3.9c-2.962-.336-5.962-.645-8.92-.918m44.449,6.409c-2.934-.572-5.908-1.123-8.841-1.636l.767-3.819c2.995.524,6.034,1.086,9.029,1.671Zm-26.614-4.386.376-3.88c3.01.4,6.071.847,9.1,1.315l-.573,3.852c-2.961-.458-5.956-.891-8.9-1.287" transform="translate(-369.375 -152.804) rotate(3)" fill="#b1c7bf"/>
            <path id="Trazado_817057" data-name="Trazado 817057" d="M1176.561,688.744l7.063,4.868-5.182,5.077,11.476,4.966,29.057-17.889-38.447-2.3Z" transform="translate(-590.097 -342.786)" fill="#9bb3ad"/>
            <path id="Trazado_817058" data-name="Trazado 817058" d="M1174.4,722.682l2.959-21.858,40.45-13.105Z" transform="translate(-589.012 -344.922)" fill="#b1c7bf"/>
            <path id="Trazado_817059" data-name="Trazado 817059" d="M1154.65,655.615l10.921,19.163,42.416-2.979Z" transform="translate(-579.107 -328.82)" fill="#b1c7bf"/>
            <path id="Trazado_817060" data-name="Trazado 817060" d="M627.663,665.476l-4.266,2.517c-1.641-1.184-3.253-2.4-4.793-3.624l4.4-2.417c1.5,1.187,3.065,2.373,4.661,3.524m10.053,6.613-3.992,2.7c-1.8-1.08-3.575-2.2-5.283-3.32l4.131-2.609c1.662,1.094,3.393,2.181,5.144,3.233m10.947,6.015-3.7,2.855c-1.937-.973-3.863-1.985-5.726-3.008l3.85-2.779c1.815,1,3.692,1.984,5.58,2.932m11.753,5.4-3.4,2.994c-2.068-.866-4.129-1.771-6.126-2.688l3.555-2.927c1.947.894,3.956,1.776,5.972,2.62m12.48,4.761-3.085,3.115c-2.178-.754-4.36-1.547-6.486-2.358l3.244-3.057c2.073.791,4.2,1.564,6.326,2.3m13.131,4.105-2.755,3.218c-2.291-.644-4.582-1.323-6.808-2.019l2.921-3.169c2.171.678,4.406,1.341,6.642,1.969m13.707,3.431-2.411,3.3c-2.377-.525-4.764-1.088-7.094-1.671l2.584-3.264c2.273.569,4.6,1.118,6.921,1.631m14.21,2.743-2.057,3.373c-2.461-.409-4.931-.852-7.341-1.317l2.234-3.341c2.351.454,4.761.886,7.163,1.285m14.636,2.043-1.692,3.423c-2.526-.288-5.066-.61-7.55-.957l1.875-3.4c2.424.338,4.9.653,7.367.934m14.985,1.335-1.322,3.457c-2.573-.167-5.17-.366-7.718-.594l1.508-3.442c2.486.222,5.02.416,7.531.579m15.259.627-.949,3.473c-2.617-.047-5.256-.125-7.845-.231l1.137-3.467c2.527.1,5.1.179,7.658.225m135.434-18.906q-1.476.5-2.949.982l-1.866-3.046q1.448-.477,2.9-.965ZM883.8,687.027c-2.515.782-5.066,1.55-7.583,2.284l-1.6-3.129c2.471-.721,4.975-1.475,7.444-2.243Zm-109.52,15.444-.576,3.47c-2.645.073-5.314.116-7.932.129l.763-3.473c2.557-.012,5.163-.055,7.746-.125m94.289-11c-2.564.7-5.158,1.383-7.71,2.03l-1.306-3.208c2.5-.636,5.047-1.306,7.562-1.992ZM789.85,701.7l-.207,3.452c-2.652.188-5.336.35-7.979.481l.391-3.463c2.583-.128,5.2-.286,7.8-.47m63.24-6.3c-2.6.609-5.228,1.2-7.819,1.756l-1-3.281c2.539-.545,5.117-1.124,7.663-1.721Zm-47.625,4.861.154,3.419c-2.652.3-5.34.578-7.989.823l.025-3.437c2.589-.239,5.217-.51,7.809-.8m31.941-1.493c-2.624.512-5.283,1-7.905,1.463l-.672-3.344c2.567-.45,5.172-.932,7.741-1.433Zm-16.344-.6.5,3.372c-2.649.41-5.329.8-7.964,1.151l-.329-3.4c2.578-.346,5.2-.726,7.792-1.126" transform="translate(-310.257 -331.998)" fill="#b1c7bf"/>
            <path id="Trazado_817061" data-name="Trazado 817061" d="M1225.582,605.349a1.979,1.979,0,0,1-1.979-1.979V586.22a1.979,1.979,0,1,1,3.958,0v17.15a1.979,1.979,0,0,1-1.979,1.979" transform="translate(-613.691 -293.023)" fill="#b1c7bf"/>
            <path id="Trazado_817062" data-name="Trazado 817062" d="M1225.529,605.4h-17.15a1.979,1.979,0,1,1,0-3.958h17.15a1.979,1.979,0,0,1,0,3.958" transform="translate(-605.063 -301.651)" fill="#b1c7bf"/>
            <path id="Trazado_817067" data-name="Trazado 817067" d="M442.1,378.815a6.926,6.926,0,1,1-6.926-6.926,6.926,6.926,0,0,1,6.926,6.926" transform="translate(-214.783 -186.519)" fill="#ffcf87"/>
            <path id="Trazado_817068" data-name="Trazado 817068" d="M901.777,92.617a6.926,6.926,0,1,1-6.926-6.926,6.926,6.926,0,0,1,6.926,6.926" transform="translate(-445.333 -42.978)" fill="#b1c7bf"/>
            <path id="Trazado_817069" data-name="Trazado 817069" d="M1320.6,258.228a6.926,6.926,0,1,1-6.926-6.926,6.926,6.926,0,0,1,6.926,6.926" transform="translate(-655.39 -126.04)" fill="#b95a5a"/>
            <path id="Trazado_817070" data-name="Trazado 817070" d="M929.133,268.051a4.617,4.617,0,1,1-4.617-4.617,4.617,4.617,0,0,1,4.617,4.617" transform="translate(-461.369 -132.124)" fill="#b95a5a"/>
            <path id="Trazado_817072" data-name="Trazado 817072" d="M227.167,421.043a4.617,4.617,0,1,1-4.617-4.617,4.617,4.617,0,0,1,4.617,4.617" transform="translate(-31.931 -285.397)" fill="#b1c7bf"/>
            <path id="Trazado_817073" data-name="Trazado 817073" d="M1533.6,148.057a4.617,4.617,0,1,1-4.617-4.617,4.617,4.617,0,0,1,4.617,4.617" transform="translate(-764.537 -71.942)" fill="#b1c7bf"/>
            <path id="Trazado_817075" data-name="Trazado 817075" d="M1290.615,562.036a4.617,4.617,0,1,1-4.618-4.617,4.618,4.618,0,0,1,4.618,4.617" transform="translate(-642.668 -279.571)" fill="#ffcf87"/>
            <path id="Trazado_817076" data-name="Trazado 817076" d="M272.164,205.054a4.617,4.617,0,1,1-4.617-4.617,4.617,4.617,0,0,1,4.617,4.617" transform="translate(-131.871 -100.528)" fill="#ffcf87"/>
            <rect id="Rectángulo_376649" data-name="Rectángulo 376649" width="106.182" height="8.973" transform="translate(197.914 248.839)" fill="#ffcf87"/>
            <path id="Trazado_817077" data-name="Trazado 817077" d="M696.961,486.5,659.577,464.92v43.167Z" transform="translate(-361.961 -233.178)" fill="#ffcf87"/>
            <rect id="Rectángulo_376650" data-name="Rectángulo 376650" width="106.182" height="8.973" transform="translate(576.028 248.839)" fill="#ffcf87"/>
            <path id="Trazado_817078" data-name="Trazado 817078" d="M1393.031,486.5l-37.384-21.584v43.167Z" transform="translate(-679.916 -233.178)" fill="#ffcf87"/>
          </g>
        </g>
      </g>
      <path id="Trazado_819132" data-name="Trazado 819132" d="M29,0H235a29,29,0,0,1,0,58H29A29,29,0,0,1,29,0Z" transform="translate(316 1157)" fill="#1b3f5e"/>
      <path id="Trazado_819133" data-name="Trazado 819133" d="M29,0H235a29,29,0,0,1,0,58H29A29,29,0,0,1,29,0Z" transform="translate(1020 1157)" fill="#1b3f5e"/>
      <path id="Trazado_819134" data-name="Trazado 819134" d="M29,0h81a29,29,0,0,1,0,58H29A29,29,0,0,1,29,0Z" transform="translate(731 900)" fill="#1b3f5e"/>
      <path id="Trazado_819135" data-name="Trazado 819135" d="M93.447,12.838H87.822v3.809h6.6V19H84.893V4.781H94.4V7.154H87.822v3.389h5.625Zm5.156-4.4.088,1.182a3.713,3.713,0,0,1,3.037-1.377,2.818,2.818,0,0,1,2.8,1.611,3.628,3.628,0,0,1,3.174-1.611,3.152,3.152,0,0,1,2.559,1,4.6,4.6,0,0,1,.84,3.013V19h-2.832V12.262a2.012,2.012,0,0,0-.352-1.313,1.558,1.558,0,0,0-1.24-.415,1.762,1.762,0,0,0-1.758,1.211l.01,7.256h-2.822V12.271a1.988,1.988,0,0,0-.361-1.328,1.573,1.573,0,0,0-1.23-.41,1.829,1.829,0,0,0-1.738,1V19H95.957V8.434ZM116.25,19h-2.832V8.434h2.832Zm-3-13.3a1.39,1.39,0,0,1,.425-1.045,1.831,1.831,0,0,1,2.31,0,1.382,1.382,0,0,1,.43,1.045,1.386,1.386,0,0,1-.435,1.055,1.81,1.81,0,0,1-2.295,0A1.386,1.386,0,0,1,113.252,5.7ZM124.3,16.08a.909.909,0,0,0-.513-.815,5.824,5.824,0,0,0-1.646-.532q-3.77-.791-3.77-3.2a2.9,2.9,0,0,1,1.167-2.349,4.708,4.708,0,0,1,3.052-.942,5.067,5.067,0,0,1,3.218.947,2.985,2.985,0,0,1,1.206,2.461h-2.822a1.366,1.366,0,0,0-.391-1,1.653,1.653,0,0,0-1.221-.4,1.689,1.689,0,0,0-1.1.322,1.017,1.017,0,0,0-.391.82.87.87,0,0,0,.444.757,4.571,4.571,0,0,0,1.5.5,12.244,12.244,0,0,1,1.777.474,2.92,2.92,0,0,1,2.236,2.842A2.756,2.756,0,0,1,125.8,18.3a5.35,5.35,0,0,1-3.2.894,5.588,5.588,0,0,1-2.358-.474,3.957,3.957,0,0,1-1.616-1.3,3.018,3.018,0,0,1-.586-1.782h2.676a1.473,1.473,0,0,0,.557,1.152,2.208,2.208,0,0,0,1.387.4,2.044,2.044,0,0,0,1.226-.308A.957.957,0,0,0,124.3,16.08Zm4.121-2.461a6.267,6.267,0,0,1,.605-2.8,4.432,4.432,0,0,1,1.743-1.9,5.086,5.086,0,0,1,2.642-.674A4.812,4.812,0,0,1,136.9,9.547a5.252,5.252,0,0,1,1.509,3.555l.02.723a5.523,5.523,0,0,1-1.357,3.9,5.261,5.261,0,0,1-7.29,0,5.62,5.62,0,0,1-1.362-3.984Zm2.822.2a3.95,3.95,0,0,0,.566,2.3,2.035,2.035,0,0,0,3.223.01,4.322,4.322,0,0,0,.576-2.518,3.91,3.91,0,0,0-.576-2.289,1.873,1.873,0,0,0-1.621-.812,1.842,1.842,0,0,0-1.6.807A4.395,4.395,0,0,0,131.24,13.819ZM146.1,11.08A7.667,7.667,0,0,0,145.088,11a2.067,2.067,0,0,0-2.1,1.084V19h-2.822V8.434h2.666l.078,1.26a2.615,2.615,0,0,1,2.354-1.455,2.957,2.957,0,0,1,.879.127Z" transform="translate(334 1173)" fill="#fff"/>
      <path id="Trazado_819136" data-name="Trazado 819136" d="M80.962,13.795H78.628V19H75.7V4.781h5.283A5.972,5.972,0,0,1,84.868,5.9a3.876,3.876,0,0,1,1.367,3.174,4.374,4.374,0,0,1-.63,2.427A4.3,4.3,0,0,1,83.7,13.053l3.076,5.811V19H83.628Zm-2.334-2.373h2.363A2.42,2.42,0,0,0,82.7,10.86a2.007,2.007,0,0,0,.605-1.548,2.148,2.148,0,0,0-.571-1.582,2.374,2.374,0,0,0-1.753-.576H78.628ZM93.14,19.2a5.187,5.187,0,0,1-3.784-1.426,5.068,5.068,0,0,1-1.46-3.8V13.7a6.383,6.383,0,0,1,.615-2.847,4.515,4.515,0,0,1,1.743-1.934,4.893,4.893,0,0,1,2.573-.679A4.385,4.385,0,0,1,96.24,9.605a5.555,5.555,0,0,1,1.245,3.877v1.152H90.757a2.622,2.622,0,0,0,.825,1.66,2.5,2.5,0,0,0,1.743.625,3.046,3.046,0,0,0,2.549-1.182l1.387,1.553a4.237,4.237,0,0,1-1.719,1.4A5.639,5.639,0,0,1,93.14,19.2Zm-.322-8.682a1.764,1.764,0,0,0-1.362.569,2.946,2.946,0,0,0-.669,1.628h3.926v-.226a2.1,2.1,0,0,0-.508-1.457A1.819,1.819,0,0,0,92.817,10.514Zm10.664,6.406a1.851,1.851,0,0,0,1.27-.43,1.506,1.506,0,0,0,.508-1.143h2.646a3.62,3.62,0,0,1-.586,1.968,3.866,3.866,0,0,1-1.577,1.387,4.936,4.936,0,0,1-2.212.493,4.587,4.587,0,0,1-3.574-1.44,5.7,5.7,0,0,1-1.309-3.979V13.59a5.635,5.635,0,0,1,1.3-3.9,4.534,4.534,0,0,1,3.564-1.455,4.444,4.444,0,0,1,3.179,1.128,3.994,3.994,0,0,1,1.216,3h-2.646a1.939,1.939,0,0,0-.508-1.34,1.887,1.887,0,0,0-2.778.2,4.166,4.166,0,0,0-.5,2.333v.293a4.219,4.219,0,0,0,.5,2.347A1.721,1.721,0,0,0,103.481,16.92Zm10.9,2.275A5.187,5.187,0,0,1,110.6,17.77a5.068,5.068,0,0,1-1.46-3.8V13.7a6.383,6.383,0,0,1,.615-2.847,4.515,4.515,0,0,1,1.743-1.934,4.893,4.893,0,0,1,2.573-.679,4.385,4.385,0,0,1,3.413,1.367,5.555,5.555,0,0,1,1.245,3.877v1.152H112a2.622,2.622,0,0,0,.825,1.66,2.5,2.5,0,0,0,1.743.625,3.046,3.046,0,0,0,2.549-1.182l1.387,1.553a4.237,4.237,0,0,1-1.719,1.4A5.639,5.639,0,0,1,114.38,19.2Zm-.322-8.682a1.764,1.764,0,0,0-1.362.569,2.946,2.946,0,0,0-.669,1.628h3.926v-.226a2.1,2.1,0,0,0-.508-1.457A1.819,1.819,0,0,0,114.058,10.514Zm15.781,3.3a6.337,6.337,0,0,1-1.108,3.911,3.554,3.554,0,0,1-2.993,1.47,3.292,3.292,0,0,1-2.588-1.113v4.98h-2.822V8.434h2.617l.1,1.035a3.317,3.317,0,0,1,2.676-1.23,3.578,3.578,0,0,1,3.037,1.445,6.509,6.509,0,0,1,1.084,3.984Zm-2.822-.205a4.159,4.159,0,0,0-.522-2.275,1.7,1.7,0,0,0-1.519-.8,1.848,1.848,0,0,0-1.826,1.016v4.326A1.879,1.879,0,0,0,125,16.92Q127.017,16.92,127.017,13.609Zm7.949-7.773v2.6h1.807V10.5h-1.807v5.273a1.259,1.259,0,0,0,.225.84,1.128,1.128,0,0,0,.859.254,4.5,4.5,0,0,0,.83-.068v2.139a5.81,5.81,0,0,1-1.709.254q-2.969,0-3.027-3V10.5H130.6V8.434h1.543v-2.6Zm2.646,7.783a6.267,6.267,0,0,1,.605-2.8,4.432,4.432,0,0,1,1.743-1.9,5.086,5.086,0,0,1,2.642-.674,4.812,4.812,0,0,1,3.491,1.309A5.252,5.252,0,0,1,147.6,13.1l.02.723a5.523,5.523,0,0,1-1.357,3.9,5.261,5.261,0,0,1-7.29,0,5.62,5.62,0,0,1-1.362-3.984Zm2.822.2a3.95,3.95,0,0,0,.566,2.3,2.035,2.035,0,0,0,3.223.01,4.322,4.322,0,0,0,.576-2.518,3.91,3.91,0,0,0-.576-2.289,1.873,1.873,0,0,0-1.621-.812,1.842,1.842,0,0,0-1.6.807A4.395,4.395,0,0,0,140.435,13.819ZM155.3,11.08A7.667,7.667,0,0,0,154.282,11a2.067,2.067,0,0,0-2.1,1.084V19H149.36V8.434h2.666l.078,1.26a2.615,2.615,0,0,1,2.354-1.455,2.957,2.957,0,0,1,.879.127Z" transform="translate(1038 1173)" fill="#fff"/>
      <path id="Trazado_819137" data-name="Trazado 819137" d="M36.326,4.781l3.652,10.313L43.611,4.781h3.848V19H44.52V15.113L44.813,8.4,40.975,19H38.963L35.135,8.414l.293,6.7V19H32.5V4.781ZM54.7,19.2a5.187,5.187,0,0,1-3.784-1.426,5.068,5.068,0,0,1-1.46-3.8V13.7a6.383,6.383,0,0,1,.615-2.847A4.515,4.515,0,0,1,51.81,8.917a4.893,4.893,0,0,1,2.573-.679A4.385,4.385,0,0,1,57.8,9.605a5.555,5.555,0,0,1,1.245,3.877v1.152H52.313a2.622,2.622,0,0,0,.825,1.66,2.5,2.5,0,0,0,1.743.625,3.046,3.046,0,0,0,2.549-1.182l1.387,1.553a4.237,4.237,0,0,1-1.719,1.4A5.639,5.639,0,0,1,54.7,19.2Zm-.322-8.682a1.764,1.764,0,0,0-1.362.569,2.946,2.946,0,0,0-.669,1.628h3.926v-.226a2.1,2.1,0,0,0-.508-1.457A1.819,1.819,0,0,0,54.373,10.514Zm8.867-2.08.088,1.221a3.689,3.689,0,0,1,3.037-1.416,3.066,3.066,0,0,1,2.5.986,4.6,4.6,0,0,1,.84,2.949V19H66.883V12.242a1.831,1.831,0,0,0-.391-1.3,1.749,1.749,0,0,0-1.3-.405,1.942,1.942,0,0,0-1.787,1.016V19H60.584V8.434ZM77.566,16.08a.909.909,0,0,0-.513-.815,5.824,5.824,0,0,0-1.646-.532q-3.77-.791-3.77-3.2a2.9,2.9,0,0,1,1.167-2.349,4.708,4.708,0,0,1,3.052-.942,5.067,5.067,0,0,1,3.218.947,2.985,2.985,0,0,1,1.206,2.461H77.459a1.366,1.366,0,0,0-.391-1,1.653,1.653,0,0,0-1.221-.4,1.689,1.689,0,0,0-1.1.322,1.017,1.017,0,0,0-.391.82.87.87,0,0,0,.444.757,4.571,4.571,0,0,0,1.5.5,12.244,12.244,0,0,1,1.777.474,2.92,2.92,0,0,1,2.236,2.842A2.756,2.756,0,0,1,79.07,18.3a5.35,5.35,0,0,1-3.2.894,5.588,5.588,0,0,1-2.358-.474,3.957,3.957,0,0,1-1.616-1.3,3.018,3.018,0,0,1-.586-1.782h2.676a1.473,1.473,0,0,0,.557,1.152,2.208,2.208,0,0,0,1.387.4,2.044,2.044,0,0,0,1.226-.308A.957.957,0,0,0,77.566,16.08ZM88.25,19a3.134,3.134,0,0,1-.283-.947A3.415,3.415,0,0,1,85.3,19.2a3.752,3.752,0,0,1-2.573-.9,2.89,2.89,0,0,1-1.021-2.266,2.986,2.986,0,0,1,1.245-2.578,6.144,6.144,0,0,1,3.6-.908h1.3v-.605a1.741,1.741,0,0,0-.376-1.172,1.479,1.479,0,0,0-1.187-.439,1.682,1.682,0,0,0-1.118.342,1.161,1.161,0,0,0-.405.938H81.941a2.835,2.835,0,0,1,.566-1.7,3.744,3.744,0,0,1,1.6-1.226,5.837,5.837,0,0,1,2.324-.444,4.611,4.611,0,0,1,3.1.981,3.433,3.433,0,0,1,1.147,2.759v4.58a5.052,5.052,0,0,0,.42,2.275V19Zm-2.334-1.963a2.431,2.431,0,0,0,1.152-.278,1.828,1.828,0,0,0,.781-.747V14.2H86.795q-2.119,0-2.256,1.465l-.01.166a1.13,1.13,0,0,0,.371.869A1.441,1.441,0,0,0,85.916,17.037Zm9.922-8.6V19.576a3.78,3.78,0,0,1-.928,2.72,3.526,3.526,0,0,1-2.676.972,5.738,5.738,0,0,1-1.4-.166V20.865a5.3,5.3,0,0,0,.889.088q1.279,0,1.279-1.357V8.434ZM92.781,5.7a1.39,1.39,0,0,1,.425-1.045,1.838,1.838,0,0,1,2.314,0A1.39,1.39,0,0,1,95.945,5.7a1.386,1.386,0,0,1-.435,1.055,1.81,1.81,0,0,1-2.295,0A1.386,1.386,0,0,1,92.781,5.7Zm10.127,13.5a5.187,5.187,0,0,1-3.784-1.426,5.068,5.068,0,0,1-1.46-3.8V13.7a6.383,6.383,0,0,1,.615-2.847,4.515,4.515,0,0,1,1.743-1.934,4.893,4.893,0,0,1,2.573-.679,4.385,4.385,0,0,1,3.413,1.367,5.555,5.555,0,0,1,1.245,3.877v1.152h-6.729a2.622,2.622,0,0,0,.825,1.66,2.5,2.5,0,0,0,1.743.625,3.046,3.046,0,0,0,2.549-1.182l1.387,1.553a4.237,4.237,0,0,1-1.719,1.4A5.639,5.639,0,0,1,102.908,19.2Zm-.322-8.682a1.764,1.764,0,0,0-1.362.569,2.946,2.946,0,0,0-.669,1.628h3.926v-.226a2.1,2.1,0,0,0-.508-1.457A1.819,1.819,0,0,0,102.586,10.514Z" transform="translate(731 916)" fill="#fff"/>
      <path id="Trazado_819138" data-name="Trazado 819138" d="M8,0H324a8,8,0,0,1,8,8V51a8,8,0,0,1-8,8H8a8,8,0,0,1-8-8V8A8,8,0,0,1,8,0Z" transform="translate(600 1185)" fill="#dbf9bd"/>
      <path id="Trazado_819139" data-name="Trazado 819139" d="M8,0H324a8,8,0,0,1,8,8V51a8,8,0,0,1-8,8H8a8,8,0,0,1-8-8V8A8,8,0,0,1,8,0Z" transform="translate(600 775)" fill="#dbf9bd"/>
      <path id="Trazado_819140" data-name="Trazado 819140" d="M-128.646-4.263a4.528,4.528,0,0,1-1.525,3.252A5.355,5.355,0,0,1-133.8.176a4.816,4.816,0,0,1-3.872-1.657,6.793,6.793,0,0,1-1.411-4.548v-.782a7.671,7.671,0,0,1,.65-3.252,4.874,4.874,0,0,1,1.859-2.158,5.207,5.207,0,0,1,2.808-.751,5.217,5.217,0,0,1,3.568,1.187,4.866,4.866,0,0,1,1.564,3.331h-2.637a2.673,2.673,0,0,0-.69-1.8,2.555,2.555,0,0,0-1.806-.558,2.24,2.24,0,0,0-1.973.945,5.3,5.3,0,0,0-.672,2.931v.967a5.667,5.667,0,0,0,.628,3.032,2.2,2.2,0,0,0,1.982.958,2.6,2.6,0,0,0,1.824-.558,2.521,2.521,0,0,0,.69-1.727ZM-121.57,0a2.821,2.821,0,0,1-.255-.853,3.073,3.073,0,0,1-2.4,1.028,3.376,3.376,0,0,1-2.316-.809,2.6,2.6,0,0,1-.918-2.039,2.687,2.687,0,0,1,1.121-2.32A5.529,5.529,0,0,1-123.1-5.81h1.169v-.545a1.567,1.567,0,0,0-.338-1.055,1.331,1.331,0,0,0-1.068-.4,1.513,1.513,0,0,0-1.006.308,1.045,1.045,0,0,0-.365.844h-2.54a2.551,2.551,0,0,1,.51-1.529,3.37,3.37,0,0,1,1.441-1.1,5.253,5.253,0,0,1,2.092-.4,4.15,4.15,0,0,1,2.791.883,3.09,3.09,0,0,1,1.033,2.483V-2.2A4.546,4.546,0,0,0-119-.149V0Zm-2.1-1.767a2.188,2.188,0,0,0,1.037-.25,1.645,1.645,0,0,0,.7-.672V-4.324h-.949q-1.907,0-2.03,1.318l-.009.149a1.017,1.017,0,0,0,.334.782A1.3,1.3,0,0,0-123.671-1.767Zm8.578-7.743.079,1.1a3.32,3.32,0,0,1,2.733-1.274,2.759,2.759,0,0,1,2.25.888,4.142,4.142,0,0,1,.756,2.654V0h-2.54V-6.082a1.648,1.648,0,0,0-.352-1.173,1.574,1.574,0,0,0-1.169-.365,1.747,1.747,0,0,0-1.608.914V0h-2.54V-9.51ZM-101.839,0a2.821,2.821,0,0,1-.255-.853,3.073,3.073,0,0,1-2.4,1.028,3.376,3.376,0,0,1-2.316-.809,2.6,2.6,0,0,1-.918-2.039,2.687,2.687,0,0,1,1.121-2.32,5.529,5.529,0,0,1,3.239-.817h1.169v-.545a1.567,1.567,0,0,0-.338-1.055,1.331,1.331,0,0,0-1.068-.4,1.513,1.513,0,0,0-1.006.308,1.045,1.045,0,0,0-.365.844h-2.54a2.551,2.551,0,0,1,.51-1.529,3.37,3.37,0,0,1,1.441-1.1,5.253,5.253,0,0,1,2.092-.4,4.15,4.15,0,0,1,2.791.883A3.09,3.09,0,0,1-99.65-6.319V-2.2a4.546,4.546,0,0,0,.378,2.048V0Zm-2.1-1.767a2.188,2.188,0,0,0,1.037-.25,1.645,1.645,0,0,0,.7-.672V-4.324h-.949q-1.907,0-2.03,1.318l-.009.149a1.017,1.017,0,0,0,.334.782A1.3,1.3,0,0,0-103.939-1.767ZM-95.019,0h-2.549V-13.5h2.549ZM-92.8-1.248a1.279,1.279,0,0,1,.409-.984,1.45,1.45,0,0,1,1.024-.378,1.462,1.462,0,0,1,1.033.378,1.279,1.279,0,0,1,.409.984,1.261,1.261,0,0,1-.4.971A1.468,1.468,0,0,1-91.371.1,1.456,1.456,0,0,1-92.4-.277,1.261,1.261,0,0,1-92.8-1.248Zm0-7.2a1.279,1.279,0,0,1,.409-.984,1.45,1.45,0,0,1,1.024-.378,1.462,1.462,0,0,1,1.033.378,1.279,1.279,0,0,1,.409.984,1.261,1.261,0,0,1-.4.971,1.468,1.468,0,0,1-1.037.374A1.456,1.456,0,0,1-92.4-7.475,1.261,1.261,0,0,1-92.8-8.446Zm18.712-2.215h-3.92V0h-2.637V-10.661h-3.867V-12.8h10.424Zm6.372,7.488,2.9-9.624h2.936L-66.34,0h-2.751l-4.438-12.8H-70.6Zm5.643,6.381L-63.4,2.514l.316-.571a4.567,4.567,0,0,0,.606-2.136V-2.162h2.145L-60.346-.4a4.566,4.566,0,0,1-.492,1.969A5.047,5.047,0,0,1-62.077,3.208ZM-48.516-7.128a6.9,6.9,0,0,0-.914-.07,1.86,1.86,0,0,0-1.89.976V0h-2.54V-9.51h2.4l.07,1.134a2.354,2.354,0,0,1,2.118-1.31,2.662,2.662,0,0,1,.791.114ZM-42.047,0A2.821,2.821,0,0,1-42.3-.853,3.073,3.073,0,0,1-44.7.176a3.376,3.376,0,0,1-2.316-.809,2.6,2.6,0,0,1-.918-2.039,2.687,2.687,0,0,1,1.121-2.32,5.529,5.529,0,0,1,3.239-.817h1.169v-.545a1.567,1.567,0,0,0-.338-1.055,1.331,1.331,0,0,0-1.068-.4A1.513,1.513,0,0,0-44.82-7.5a1.045,1.045,0,0,0-.365.844h-2.54a2.551,2.551,0,0,1,.51-1.529,3.37,3.37,0,0,1,1.441-1.1,5.253,5.253,0,0,1,2.092-.4,4.15,4.15,0,0,1,2.791.883,3.09,3.09,0,0,1,1.033,2.483V-2.2A4.546,4.546,0,0,0-39.48-.149V0Zm-2.1-1.767a2.188,2.188,0,0,0,1.037-.25,1.645,1.645,0,0,0,.7-.672V-4.324h-.949q-1.907,0-2.03,1.318l-.009.149a1.017,1.017,0,0,0,.334.782A1.3,1.3,0,0,0-44.147-1.767ZM-38.3-4.825a5.731,5.731,0,0,1,1-3.542,3.237,3.237,0,0,1,2.729-1.318,2.913,2.913,0,0,1,2.294,1.037V-13.5h2.549V0h-2.294l-.123-1.011A2.989,2.989,0,0,1-34.594.176a3.228,3.228,0,0,1-2.694-1.323A5.916,5.916,0,0,1-38.3-4.825Zm2.54.189A3.754,3.754,0,0,0-35.3-2.585a1.517,1.517,0,0,0,1.354.713,1.7,1.7,0,0,0,1.661-.995V-6.625a1.675,1.675,0,0,0-1.644-.995Q-35.763-7.62-35.763-4.636ZM-25.084,0h-2.549V-9.51h2.549Zm-2.7-11.971a1.251,1.251,0,0,1,.382-.94,1.436,1.436,0,0,1,1.042-.369,1.44,1.44,0,0,1,1.037.369,1.244,1.244,0,0,1,.387.94,1.247,1.247,0,0,1-.391.949,1.443,1.443,0,0,1-1.033.369,1.443,1.443,0,0,1-1.033-.369A1.247,1.247,0,0,1-27.782-11.971Zm4.395,7.128a5.64,5.64,0,0,1,.545-2.522,3.989,3.989,0,0,1,1.569-1.714A4.577,4.577,0,0,1-18.9-9.686a4.33,4.33,0,0,1,3.142,1.178,4.727,4.727,0,0,1,1.358,3.2l.018.65A4.97,4.97,0,0,1-15.6-1.147,4.247,4.247,0,0,1-18.879.176a4.268,4.268,0,0,1-3.283-1.318,5.058,5.058,0,0,1-1.226-3.586Zm2.54.18a3.555,3.555,0,0,0,.51,2.073,1.682,1.682,0,0,0,1.459.717,1.686,1.686,0,0,0,1.441-.709,3.89,3.89,0,0,0,.519-2.267,3.519,3.519,0,0,0-.519-2.06A1.686,1.686,0,0,0-18.9-7.638a1.658,1.658,0,0,0-1.441.726A3.955,3.955,0,0,0-20.848-4.662Zm8.692,7.87-1.327-.694.316-.571A4.567,4.567,0,0,0-12.56-.193V-2.162h2.145L-10.424-.4a4.566,4.566,0,0,1-.492,1.969A5.047,5.047,0,0,1-12.155,3.208ZM-.378-3.1,1.389-9.51H4.043L.835,0H-1.591L-4.8-9.51h2.654Zm5.01-1.74a5.64,5.64,0,0,1,.545-2.522A3.989,3.989,0,0,1,6.746-9.079a4.577,4.577,0,0,1,2.377-.606,4.33,4.33,0,0,1,3.142,1.178,4.727,4.727,0,0,1,1.358,3.2l.018.65a4.97,4.97,0,0,1-1.222,3.511A4.247,4.247,0,0,1,9.141.176,4.268,4.268,0,0,1,5.858-1.143,5.058,5.058,0,0,1,4.632-4.729Zm2.54.18a3.555,3.555,0,0,0,.51,2.073,1.682,1.682,0,0,0,1.459.717,1.686,1.686,0,0,0,1.441-.709A3.89,3.89,0,0,0,11.1-4.847a3.519,3.519,0,0,0-.519-2.06,1.686,1.686,0,0,0-1.459-.731,1.658,1.658,0,0,0-1.441.726A3.955,3.955,0,0,0,7.172-4.662ZM17.982-2.048h4.649V0H14.739V-1.547l4.474-5.915H14.871V-9.51h7.62v1.5ZM34.216,0a2.821,2.821,0,0,1-.255-.853,3.073,3.073,0,0,1-2.4,1.028,3.376,3.376,0,0,1-2.316-.809,2.6,2.6,0,0,1-.918-2.039,2.687,2.687,0,0,1,1.121-2.32,5.529,5.529,0,0,1,3.239-.817h1.169v-.545a1.567,1.567,0,0,0-.338-1.055,1.331,1.331,0,0,0-1.068-.4,1.513,1.513,0,0,0-1.006.308,1.045,1.045,0,0,0-.365.844h-2.54a2.551,2.551,0,0,1,.51-1.529,3.37,3.37,0,0,1,1.441-1.1,5.253,5.253,0,0,1,2.092-.4,4.15,4.15,0,0,1,2.791.883A3.09,3.09,0,0,1,36.4-6.319V-2.2a4.546,4.546,0,0,0,.378,2.048V0Zm-2.1-1.767a2.188,2.188,0,0,0,1.037-.25,1.645,1.645,0,0,0,.7-.672V-4.324h-.949q-1.907,0-2.03,1.318l-.009.149a1.017,1.017,0,0,0,.334.782A1.3,1.3,0,0,0,32.115-1.767ZM46.4-3.1,48.164-9.51h2.654L47.61,0H45.185L41.977-9.51h2.654Zm5.01-1.74a5.64,5.64,0,0,1,.545-2.522,3.989,3.989,0,0,1,1.569-1.714A4.577,4.577,0,0,1,55.9-9.686a4.33,4.33,0,0,1,3.142,1.178,4.727,4.727,0,0,1,1.358,3.2l.018.65a4.97,4.97,0,0,1-1.222,3.511A4.247,4.247,0,0,1,55.916.176a4.268,4.268,0,0,1-3.283-1.318,5.058,5.058,0,0,1-1.226-3.586Zm2.54.18a3.555,3.555,0,0,0,.51,2.073,1.682,1.682,0,0,0,1.459.717,1.686,1.686,0,0,0,1.441-.709,3.89,3.89,0,0,0,.519-2.267,3.519,3.519,0,0,0-.519-2.06A1.686,1.686,0,0,0,55.9-7.638a1.658,1.658,0,0,0-1.441.726A3.955,3.955,0,0,0,53.947-4.662ZM64.758-2.048h4.649V0H61.515V-1.547l4.474-5.915H61.646V-9.51h7.62v1.5Zm6.9,5.256L70.33,2.514l.316-.571a4.567,4.567,0,0,0,.606-2.136V-2.162H73.4L73.389-.4A4.566,4.566,0,0,1,72.9,1.564,5.047,5.047,0,0,1,71.657,3.208ZM84.252.176a4.668,4.668,0,0,1-3.406-1.283,4.561,4.561,0,0,1-1.314-3.419v-.246a5.745,5.745,0,0,1,.554-2.562,4.064,4.064,0,0,1,1.569-1.74,4.4,4.4,0,0,1,2.316-.611,3.947,3.947,0,0,1,3.072,1.23,5,5,0,0,1,1.121,3.489v1.037H82.107a2.36,2.36,0,0,0,.743,1.494,2.245,2.245,0,0,0,1.569.563,2.742,2.742,0,0,0,2.294-1.063l1.248,1.4A3.813,3.813,0,0,1,86.414-.277,5.075,5.075,0,0,1,84.252.176Zm-.29-7.813a1.587,1.587,0,0,0-1.226.512,2.651,2.651,0,0,0-.6,1.466h3.533v-.2a1.891,1.891,0,0,0-.457-1.311A1.638,1.638,0,0,0,83.962-7.638Zm10.793,5.01a.818.818,0,0,0-.461-.734,5.241,5.241,0,0,0-1.481-.479Q89.42-4.553,89.42-6.724a2.613,2.613,0,0,1,1.05-2.114,4.237,4.237,0,0,1,2.747-.848,4.56,4.56,0,0,1,2.9.853A2.687,2.687,0,0,1,97.2-6.618h-2.54a1.229,1.229,0,0,0-.352-.9,1.488,1.488,0,0,0-1.1-.356,1.52,1.52,0,0,0-.993.29.916.916,0,0,0-.352.738.783.783,0,0,0,.4.681,4.114,4.114,0,0,0,1.349.448,11.019,11.019,0,0,1,1.6.426,2.628,2.628,0,0,1,2.013,2.558,2.481,2.481,0,0,1-1.116,2.1,4.815,4.815,0,0,1-2.883.8A5.029,5.029,0,0,1,91.1-.25a3.561,3.561,0,0,1-1.455-1.169,2.716,2.716,0,0,1-.527-1.6h2.408a1.326,1.326,0,0,0,.5,1.037,1.987,1.987,0,0,0,1.248.36,1.839,1.839,0,0,0,1.1-.277A.861.861,0,0,0,94.755-2.628Zm8.06.756a1.666,1.666,0,0,0,1.143-.387,1.355,1.355,0,0,0,.457-1.028H106.8a3.258,3.258,0,0,1-.527,1.771,3.48,3.48,0,0,1-1.419,1.248,4.442,4.442,0,0,1-1.991.444,4.129,4.129,0,0,1-3.217-1.3A5.13,5.13,0,0,1,98.464-4.7v-.167a5.071,5.071,0,0,1,1.169-3.507,4.08,4.08,0,0,1,3.208-1.31A4,4,0,0,1,105.7-8.67a3.594,3.594,0,0,1,1.094,2.7h-2.382a1.745,1.745,0,0,0-.457-1.206,1.524,1.524,0,0,0-1.16-.464,1.53,1.53,0,0,0-1.34.647,3.749,3.749,0,0,0-.453,2.1v.264a3.8,3.8,0,0,0,.448,2.113A1.549,1.549,0,0,0,102.814-1.872ZM113.59-7.128a6.9,6.9,0,0,0-.914-.07,1.86,1.86,0,0,0-1.89.976V0h-2.54V-9.51h2.4l.07,1.134a2.354,2.354,0,0,1,2.118-1.31,2.662,2.662,0,0,1,.791.114ZM117.492,0h-2.549V-9.51h2.549Zm-2.7-11.971a1.251,1.251,0,0,1,.382-.94,1.436,1.436,0,0,1,1.042-.369,1.44,1.44,0,0,1,1.037.369,1.244,1.244,0,0,1,.387.94,1.247,1.247,0,0,1-.391.949,1.443,1.443,0,0,1-1.033.369,1.443,1.443,0,0,1-1.033-.369A1.247,1.247,0,0,1,114.794-11.971Zm7.831.123V-9.51h1.626v1.863h-1.626V-2.9a1.133,1.133,0,0,0,.2.756,1.015,1.015,0,0,0,.773.229,4.051,4.051,0,0,0,.747-.062V-.053a5.229,5.229,0,0,1-1.538.229,2.425,2.425,0,0,1-2.725-2.7V-7.646H118.7V-9.51h1.389v-2.338Zm2.382,7a5.64,5.64,0,0,1,.545-2.522,3.989,3.989,0,0,1,1.569-1.714,4.577,4.577,0,0,1,2.377-.606,4.33,4.33,0,0,1,3.142,1.178A4.727,4.727,0,0,1,134-5.309l.018.65a4.97,4.97,0,0,1-1.222,3.511A4.247,4.247,0,0,1,129.516.176a4.268,4.268,0,0,1-3.283-1.318,5.058,5.058,0,0,1-1.226-3.586Zm2.54.18a3.555,3.555,0,0,0,.51,2.073,1.682,1.682,0,0,0,1.459.717,1.686,1.686,0,0,0,1.441-.709,3.89,3.89,0,0,0,.519-2.267,3.519,3.519,0,0,0-.519-2.06,1.686,1.686,0,0,0-1.459-.731,1.658,1.658,0,0,0-1.441.726A3.955,3.955,0,0,0,127.547-4.662Zm8.165,3.414a1.279,1.279,0,0,1,.409-.984,1.45,1.45,0,0,1,1.024-.378,1.462,1.462,0,0,1,1.033.378,1.279,1.279,0,0,1,.409.984,1.261,1.261,0,0,1-.4.971A1.468,1.468,0,0,1,137.145.1a1.456,1.456,0,0,1-1.028-.374A1.261,1.261,0,0,1,135.712-1.248Z" transform="translate(759 1221)" fill="#12263f"/>
      <path id="Trazado_819141" data-name="Trazado 819141" d="M-119.413-4.263a4.528,4.528,0,0,1-1.525,3.252A5.355,5.355,0,0,1-124.563.176a4.816,4.816,0,0,1-3.872-1.657,6.793,6.793,0,0,1-1.411-4.548v-.782a7.671,7.671,0,0,1,.65-3.252,4.874,4.874,0,0,1,1.859-2.158,5.207,5.207,0,0,1,2.808-.751,5.217,5.217,0,0,1,3.568,1.187A4.866,4.866,0,0,1-119.4-8.455h-2.637a2.673,2.673,0,0,0-.69-1.8,2.555,2.555,0,0,0-1.806-.558,2.24,2.24,0,0,0-1.973.945,5.3,5.3,0,0,0-.672,2.931v.967a5.667,5.667,0,0,0,.628,3.032,2.2,2.2,0,0,0,1.982.958,2.6,2.6,0,0,0,1.824-.558,2.521,2.521,0,0,0,.69-1.727Zm1.169-.58a5.64,5.64,0,0,1,.545-2.522,3.989,3.989,0,0,1,1.569-1.714,4.577,4.577,0,0,1,2.377-.606,4.33,4.33,0,0,1,3.142,1.178,4.727,4.727,0,0,1,1.358,3.2l.018.65a4.97,4.97,0,0,1-1.222,3.511A4.247,4.247,0,0,1-113.735.176a4.268,4.268,0,0,1-3.283-1.318,5.058,5.058,0,0,1-1.226-3.586Zm2.54.18a3.555,3.555,0,0,0,.51,2.073,1.682,1.682,0,0,0,1.459.717,1.686,1.686,0,0,0,1.441-.709,3.89,3.89,0,0,0,.519-2.267,3.519,3.519,0,0,0-.519-2.06,1.686,1.686,0,0,0-1.459-.731,1.658,1.658,0,0,0-1.441.726A3.955,3.955,0,0,0-115.7-4.662Zm2.452-8.838h2.769l-2.435,2.725h-2.065Zm5.186,8.675a5.731,5.731,0,0,1,1-3.542,3.237,3.237,0,0,1,2.729-1.318,2.913,2.913,0,0,1,2.294,1.037V-13.5H-99.5V0h-2.294l-.123-1.011A2.989,2.989,0,0,1-104.357.176a3.228,3.228,0,0,1-2.694-1.323A5.916,5.916,0,0,1-108.066-4.825Zm2.54.189a3.754,3.754,0,0,0,.466,2.051,1.517,1.517,0,0,0,1.354.713,1.7,1.7,0,0,0,1.661-.995V-6.625a1.675,1.675,0,0,0-1.644-.995Q-105.526-7.62-105.526-4.636ZM-94.847,0H-97.4V-9.51h2.549Zm-2.7-11.971a1.251,1.251,0,0,1,.382-.94,1.436,1.436,0,0,1,1.042-.369,1.44,1.44,0,0,1,1.037.369,1.244,1.244,0,0,1,.387.94,1.247,1.247,0,0,1-.391.949,1.443,1.443,0,0,1-1.033.369,1.443,1.443,0,0,1-1.033-.369A1.247,1.247,0,0,1-97.545-11.971Zm4.421,7.146A5.573,5.573,0,0,1-92.083-8.35a3.375,3.375,0,0,1,2.808-1.336A2.96,2.96,0,0,1-86.84-8.613l.105-.9h2.3V-.316A4.064,4.064,0,0,1-85,1.854a3.641,3.641,0,0,1-1.6,1.406A5.608,5.608,0,0,1-89,3.744a5.215,5.215,0,0,1-2.039-.417,3.619,3.619,0,0,1-1.5-1.077L-91.419.7a2.975,2.975,0,0,0,2.3,1.063,2.178,2.178,0,0,0,1.573-.541,2.027,2.027,0,0,0,.563-1.534v-.51a2.938,2.938,0,0,1-2.312.993,3.366,3.366,0,0,1-2.773-1.34A5.572,5.572,0,0,1-93.125-4.72Zm2.54.189a3.47,3.47,0,0,0,.519,2.029,1.65,1.65,0,0,0,1.424.735,1.764,1.764,0,0,0,1.661-.871V-6.749a1.76,1.76,0,0,0-1.644-.871,1.66,1.66,0,0,0-1.437.748A3.911,3.911,0,0,0-90.584-4.636Zm7.708-.207a5.64,5.64,0,0,1,.545-2.522,3.989,3.989,0,0,1,1.569-1.714,4.577,4.577,0,0,1,2.377-.606,4.33,4.33,0,0,1,3.142,1.178,4.727,4.727,0,0,1,1.358,3.2l.018.65a4.97,4.97,0,0,1-1.222,3.511A4.247,4.247,0,0,1-78.368.176,4.268,4.268,0,0,1-81.65-1.143a5.058,5.058,0,0,1-1.226-3.586Zm2.54.18a3.555,3.555,0,0,0,.51,2.073,1.682,1.682,0,0,0,1.459.717,1.686,1.686,0,0,0,1.441-.709,3.89,3.89,0,0,0,.519-2.267,3.519,3.519,0,0,0-.519-2.06,1.686,1.686,0,0,0-1.459-.731,1.658,1.658,0,0,0-1.441.726A3.955,3.955,0,0,0-80.336-4.662Zm8.156,3.414a1.279,1.279,0,0,1,.409-.984,1.45,1.45,0,0,1,1.024-.378,1.462,1.462,0,0,1,1.033.378,1.279,1.279,0,0,1,.409.984,1.261,1.261,0,0,1-.4.971A1.468,1.468,0,0,1-70.748.1a1.456,1.456,0,0,1-1.028-.374A1.261,1.261,0,0,1-72.18-1.248Zm0-7.2a1.279,1.279,0,0,1,.409-.984,1.45,1.45,0,0,1,1.024-.378,1.462,1.462,0,0,1,1.033.378,1.279,1.279,0,0,1,.409.984,1.261,1.261,0,0,1-.4.971,1.468,1.468,0,0,1-1.037.374,1.456,1.456,0,0,1-1.028-.374A1.261,1.261,0,0,1-72.18-8.446Zm14.59,5.818a.818.818,0,0,0-.461-.734,5.241,5.241,0,0,0-1.481-.479q-3.393-.712-3.393-2.883a2.613,2.613,0,0,1,1.05-2.114,4.237,4.237,0,0,1,2.747-.848,4.56,4.56,0,0,1,2.9.853,2.687,2.687,0,0,1,1.085,2.215h-2.54a1.229,1.229,0,0,0-.352-.9,1.488,1.488,0,0,0-1.1-.356,1.52,1.52,0,0,0-.993.29.916.916,0,0,0-.352.738.783.783,0,0,0,.4.681,4.114,4.114,0,0,0,1.349.448,11.019,11.019,0,0,1,1.6.426,2.628,2.628,0,0,1,2.013,2.558,2.481,2.481,0,0,1-1.116,2.1,4.815,4.815,0,0,1-2.883.8A5.029,5.029,0,0,1-61.242-.25,3.561,3.561,0,0,1-62.7-1.419a2.716,2.716,0,0,1-.527-1.6h2.408a1.326,1.326,0,0,0,.5,1.037,1.987,1.987,0,0,0,1.248.36,1.839,1.839,0,0,0,1.1-.277A.861.861,0,0,0-57.59-2.628Zm8.481,2.8a4.668,4.668,0,0,1-3.406-1.283,4.561,4.561,0,0,1-1.314-3.419v-.246a5.745,5.745,0,0,1,.554-2.562,4.064,4.064,0,0,1,1.569-1.74,4.4,4.4,0,0,1,2.316-.611,3.947,3.947,0,0,1,3.072,1.23A5,5,0,0,1-45.2-4.966v1.037h-6.056a2.36,2.36,0,0,0,.743,1.494,2.245,2.245,0,0,0,1.569.563,2.742,2.742,0,0,0,2.294-1.063l1.248,1.4A3.813,3.813,0,0,1-46.947-.277,5.075,5.075,0,0,1-49.109.176Zm-.29-7.813a1.587,1.587,0,0,0-1.226.512,2.651,2.651,0,0,0-.6,1.466h3.533v-.2a1.891,1.891,0,0,0-.457-1.311A1.638,1.638,0,0,0-49.4-7.638Zm7.98-1.872.079,1.1a3.32,3.32,0,0,1,2.733-1.274,2.759,2.759,0,0,1,2.25.888A4.142,4.142,0,0,1-35.6-6.144V0h-2.54V-6.082a1.648,1.648,0,0,0-.352-1.173,1.574,1.574,0,0,0-1.169-.365,1.747,1.747,0,0,0-1.608.914V0h-2.54V-9.51Zm5.045-3.876a2.46,2.46,0,0,1-.58,1.666,1.8,1.8,0,0,1-1.415.672,2.146,2.146,0,0,1-.593-.075,3.981,3.981,0,0,1-.716-.321,3.864,3.864,0,0,0-.659-.3,1.611,1.611,0,0,0-.439-.057.7.7,0,0,0-.523.22.854.854,0,0,0-.215.624l-1.477-.088a2.5,2.5,0,0,1,.576-1.661,1.776,1.776,0,0,1,1.411-.686,1.816,1.816,0,0,1,.5.066,5.468,5.468,0,0,1,.76.321,4.941,4.941,0,0,0,.729.308,1.665,1.665,0,0,0,.422.053.741.741,0,0,0,.532-.215.819.819,0,0,0,.224-.62ZM-28.165,0a2.821,2.821,0,0,1-.255-.853,3.073,3.073,0,0,1-2.4,1.028,3.376,3.376,0,0,1-2.316-.809,2.6,2.6,0,0,1-.918-2.039,2.687,2.687,0,0,1,1.121-2.32,5.529,5.529,0,0,1,3.239-.817h1.169v-.545a1.567,1.567,0,0,0-.338-1.055,1.331,1.331,0,0,0-1.068-.4,1.513,1.513,0,0,0-1.006.308,1.045,1.045,0,0,0-.365.844h-2.54a2.551,2.551,0,0,1,.51-1.529,3.37,3.37,0,0,1,1.441-1.1,5.253,5.253,0,0,1,2.092-.4,4.15,4.15,0,0,1,2.791.883,3.09,3.09,0,0,1,1.033,2.483V-2.2A4.546,4.546,0,0,0-25.6-.149V0Zm-2.1-1.767a2.188,2.188,0,0,0,1.037-.25,1.645,1.645,0,0,0,.7-.672V-4.324h-.949q-1.907,0-2.03,1.318l-.009.149a1.017,1.017,0,0,0,.334.782A1.3,1.3,0,0,0-30.265-1.767Zm11.391-.861a.818.818,0,0,0-.461-.734,5.241,5.241,0,0,0-1.481-.479q-3.393-.712-3.393-2.883a2.613,2.613,0,0,1,1.05-2.114,4.237,4.237,0,0,1,2.747-.848,4.56,4.56,0,0,1,2.9.853,2.687,2.687,0,0,1,1.085,2.215h-2.54a1.229,1.229,0,0,0-.352-.9,1.488,1.488,0,0,0-1.1-.356,1.52,1.52,0,0,0-.993.29.916.916,0,0,0-.352.738.783.783,0,0,0,.4.681,4.114,4.114,0,0,0,1.349.448,11.019,11.019,0,0,1,1.6.426A2.628,2.628,0,0,1-16.4-2.733a2.481,2.481,0,0,1-1.116,2.1,4.815,4.815,0,0,1-2.883.8A5.029,5.029,0,0,1-22.526-.25a3.561,3.561,0,0,1-1.455-1.169,2.716,2.716,0,0,1-.527-1.6H-22.1a1.326,1.326,0,0,0,.5,1.037,1.987,1.987,0,0,0,1.248.36,1.839,1.839,0,0,0,1.1-.277A.861.861,0,0,0-18.875-2.628Zm4.764,5.836-1.327-.694.316-.571a4.567,4.567,0,0,0,.606-2.136V-2.162h2.145L-12.379-.4a4.566,4.566,0,0,1-.492,1.969A5.047,5.047,0,0,1-14.111,3.208ZM-.743-2.628A.818.818,0,0,0-1.2-3.362a5.241,5.241,0,0,0-1.481-.479q-3.393-.712-3.393-2.883a2.613,2.613,0,0,1,1.05-2.114,4.237,4.237,0,0,1,2.747-.848,4.56,4.56,0,0,1,2.9.853A2.687,2.687,0,0,1,1.7-6.618H-.839a1.229,1.229,0,0,0-.352-.9,1.488,1.488,0,0,0-1.1-.356,1.52,1.52,0,0,0-.993.29.916.916,0,0,0-.352.738.783.783,0,0,0,.4.681,4.114,4.114,0,0,0,1.349.448,11.019,11.019,0,0,1,1.6.426A2.628,2.628,0,0,1,1.727-2.733,2.481,2.481,0,0,1,.611-.628a4.815,4.815,0,0,1-2.883.8A5.029,5.029,0,0,1-4.395-.25,3.561,3.561,0,0,1-5.849-1.419a2.716,2.716,0,0,1-.527-1.6h2.408a1.326,1.326,0,0,0,.5,1.037,1.987,1.987,0,0,0,1.248.36,1.839,1.839,0,0,0,1.1-.277A.861.861,0,0,0-.743-2.628ZM6.042,0H3.494V-9.51H6.042Zm-2.7-11.971a1.251,1.251,0,0,1,.382-.94,1.436,1.436,0,0,1,1.042-.369,1.44,1.44,0,0,1,1.037.369,1.244,1.244,0,0,1,.387.94,1.247,1.247,0,0,1-.391.949,1.443,1.443,0,0,1-1.033.369,1.443,1.443,0,0,1-1.033-.369A1.247,1.247,0,0,1,3.344-11.971ZM7.765-4.825A5.573,5.573,0,0,1,8.807-8.35a3.375,3.375,0,0,1,2.808-1.336,2.96,2.96,0,0,1,2.435,1.072l.105-.9h2.3V-.316a4.064,4.064,0,0,1-.567,2.171,3.641,3.641,0,0,1-1.6,1.406,5.608,5.608,0,0,1-2.408.483,5.215,5.215,0,0,1-2.039-.417,3.619,3.619,0,0,1-1.5-1.077L9.47.7a2.975,2.975,0,0,0,2.3,1.063,2.178,2.178,0,0,0,1.573-.541,2.027,2.027,0,0,0,.563-1.534v-.51A2.938,2.938,0,0,1,11.6.176a3.366,3.366,0,0,1-2.773-1.34A5.572,5.572,0,0,1,7.765-4.72Zm2.54.189a3.47,3.47,0,0,0,.519,2.029,1.65,1.65,0,0,0,1.424.735,1.764,1.764,0,0,0,1.661-.871V-6.749a1.76,1.76,0,0,0-1.644-.871,1.66,1.66,0,0,0-1.437.748A3.911,3.911,0,0,0,10.305-4.636ZM20.747-9.51l.079,1.1a3.32,3.32,0,0,1,2.733-1.274,2.759,2.759,0,0,1,2.25.888,4.142,4.142,0,0,1,.756,2.654V0h-2.54V-6.082a1.648,1.648,0,0,0-.352-1.173A1.574,1.574,0,0,0,22.5-7.62a1.747,1.747,0,0,0-1.608.914V0h-2.54V-9.51Zm7.348,4.667a5.64,5.64,0,0,1,.545-2.522,3.989,3.989,0,0,1,1.569-1.714,4.577,4.577,0,0,1,2.377-.606,4.33,4.33,0,0,1,3.142,1.178,4.727,4.727,0,0,1,1.358,3.2l.018.65a4.97,4.97,0,0,1-1.222,3.511A4.247,4.247,0,0,1,32.6.176,4.268,4.268,0,0,1,29.32-1.143a5.058,5.058,0,0,1-1.226-3.586Zm2.54.18a3.555,3.555,0,0,0,.51,2.073,1.682,1.682,0,0,0,1.459.717,1.686,1.686,0,0,0,1.441-.709,3.89,3.89,0,0,0,.519-2.267,3.519,3.519,0,0,0-.519-2.06,1.686,1.686,0,0,0-1.459-.731,1.658,1.658,0,0,0-1.441.726A3.955,3.955,0,0,0,30.634-4.662ZM43.818-2.628a.818.818,0,0,0-.461-.734,5.241,5.241,0,0,0-1.481-.479q-3.393-.712-3.393-2.883a2.613,2.613,0,0,1,1.05-2.114,4.237,4.237,0,0,1,2.747-.848,4.56,4.56,0,0,1,2.9.853,2.687,2.687,0,0,1,1.085,2.215h-2.54a1.229,1.229,0,0,0-.352-.9,1.488,1.488,0,0,0-1.1-.356,1.52,1.52,0,0,0-.993.29.916.916,0,0,0-.352.738.783.783,0,0,0,.4.681,4.114,4.114,0,0,0,1.349.448,11.019,11.019,0,0,1,1.6.426,2.628,2.628,0,0,1,2.013,2.558,2.481,2.481,0,0,1-1.116,2.1,4.815,4.815,0,0,1-2.883.8A5.029,5.029,0,0,1,40.166-.25a3.561,3.561,0,0,1-1.455-1.169,2.716,2.716,0,0,1-.527-1.6h2.408a1.326,1.326,0,0,0,.5,1.037,1.987,1.987,0,0,0,1.248.36,1.839,1.839,0,0,0,1.1-.277A.861.861,0,0,0,43.818-2.628Zm4.764,5.836-1.327-.694.316-.571a4.567,4.567,0,0,0,.606-2.136V-2.162h2.145L50.313-.4a4.566,4.566,0,0,1-.492,1.969A5.047,5.047,0,0,1,48.582,3.208ZM65.36-4.667a5.7,5.7,0,0,1-1,3.52A3.2,3.2,0,0,1,61.668.176a2.963,2.963,0,0,1-2.329-1V3.656H56.8V-9.51h2.355l.088.932a2.985,2.985,0,0,1,2.408-1.107,3.22,3.22,0,0,1,2.733,1.3A5.858,5.858,0,0,1,65.36-4.8Zm-2.54-.185A3.743,3.743,0,0,0,62.35-6.9a1.532,1.532,0,0,0-1.367-.721,1.663,1.663,0,0,0-1.644.914v3.894A1.692,1.692,0,0,0,61-1.872Q62.82-1.872,62.82-4.852ZM72.444,0a2.821,2.821,0,0,1-.255-.853A3.073,3.073,0,0,1,69.79.176a3.376,3.376,0,0,1-2.316-.809,2.6,2.6,0,0,1-.918-2.039,2.687,2.687,0,0,1,1.121-2.32,5.529,5.529,0,0,1,3.239-.817h1.169v-.545a1.567,1.567,0,0,0-.338-1.055,1.331,1.331,0,0,0-1.068-.4,1.513,1.513,0,0,0-1.006.308,1.045,1.045,0,0,0-.365.844h-2.54a2.551,2.551,0,0,1,.51-1.529,3.37,3.37,0,0,1,1.441-1.1,5.253,5.253,0,0,1,2.092-.4A4.15,4.15,0,0,1,73.6-8.8a3.09,3.09,0,0,1,1.033,2.483V-2.2A4.546,4.546,0,0,0,75.01-.149V0Zm-2.1-1.767a2.188,2.188,0,0,0,1.037-.25,1.645,1.645,0,0,0,.7-.672V-4.324h-.949q-1.907,0-2.03,1.318l-.009.149a1.017,1.017,0,0,0,.334.782A1.3,1.3,0,0,0,70.343-1.767ZM79.264,0H76.715V-13.5h2.549Zm7.6,0a2.821,2.821,0,0,1-.255-.853,3.073,3.073,0,0,1-2.4,1.028A3.376,3.376,0,0,1,81.9-.633a2.6,2.6,0,0,1-.918-2.039A2.687,2.687,0,0,1,82.1-4.992a5.529,5.529,0,0,1,3.239-.817h1.169v-.545a1.567,1.567,0,0,0-.338-1.055A1.331,1.331,0,0,0,85.1-7.8a1.513,1.513,0,0,0-1.006.308,1.045,1.045,0,0,0-.365.844h-2.54a2.551,2.551,0,0,1,.51-1.529,3.37,3.37,0,0,1,1.441-1.1,5.253,5.253,0,0,1,2.092-.4,4.15,4.15,0,0,1,2.791.883,3.09,3.09,0,0,1,1.033,2.483V-2.2a4.546,4.546,0,0,0,.378,2.048V0Zm-2.1-1.767a2.188,2.188,0,0,0,1.037-.25,1.645,1.645,0,0,0,.7-.672V-4.324h-.949q-1.907,0-2.03,1.318l-.009.149a1.017,1.017,0,0,0,.334.782A1.3,1.3,0,0,0,84.766-1.767Zm14.81-2.9A5.758,5.758,0,0,1,98.6-1.1,3.231,3.231,0,0,1,95.875.176a2.969,2.969,0,0,1-2.47-1.187L93.292,0H91.006V-13.5h2.54v4.843a2.893,2.893,0,0,1,2.312-1.028,3.258,3.258,0,0,1,2.729,1.279,5.767,5.767,0,0,1,.989,3.6Zm-2.54-.185a3.783,3.783,0,0,0-.457-2.1,1.545,1.545,0,0,0-1.362-.664,1.676,1.676,0,0,0-1.67.993v3.753a1.7,1.7,0,0,0,1.688,1,1.568,1.568,0,0,0,1.617-1.213A6.257,6.257,0,0,0,97.036-4.852Zm9.448-2.276a6.9,6.9,0,0,0-.914-.07,1.86,1.86,0,0,0-1.89.976V0h-2.54V-9.51h2.4l.07,1.134a2.354,2.354,0,0,1,2.118-1.31,2.662,2.662,0,0,1,.791.114ZM112.953,0a2.821,2.821,0,0,1-.255-.853A3.073,3.073,0,0,1,110.3.176a3.376,3.376,0,0,1-2.316-.809,2.6,2.6,0,0,1-.918-2.039,2.687,2.687,0,0,1,1.121-2.32,5.529,5.529,0,0,1,3.239-.817h1.169v-.545a1.567,1.567,0,0,0-.338-1.055,1.331,1.331,0,0,0-1.068-.4,1.513,1.513,0,0,0-1.006.308,1.045,1.045,0,0,0-.365.844h-2.54a2.551,2.551,0,0,1,.51-1.529,3.37,3.37,0,0,1,1.441-1.1,5.253,5.253,0,0,1,2.092-.4,4.15,4.15,0,0,1,2.791.883,3.09,3.09,0,0,1,1.033,2.483V-2.2a4.546,4.546,0,0,0,.378,2.048V0Zm-2.1-1.767a2.188,2.188,0,0,0,1.037-.25,1.645,1.645,0,0,0,.7-.672V-4.324h-.949q-1.907,0-2.03,1.318l-.009.149a1.017,1.017,0,0,0,.334.782A1.3,1.3,0,0,0,110.852-1.767Zm11.391-.861a.818.818,0,0,0-.461-.734,5.241,5.241,0,0,0-1.481-.479q-3.393-.712-3.393-2.883a2.613,2.613,0,0,1,1.05-2.114,4.237,4.237,0,0,1,2.747-.848,4.56,4.56,0,0,1,2.9.853,2.687,2.687,0,0,1,1.085,2.215h-2.54a1.229,1.229,0,0,0-.352-.9,1.488,1.488,0,0,0-1.1-.356,1.52,1.52,0,0,0-.993.29.916.916,0,0,0-.352.738.783.783,0,0,0,.4.681,4.114,4.114,0,0,0,1.349.448,11.019,11.019,0,0,1,1.6.426,2.628,2.628,0,0,1,2.013,2.558,2.481,2.481,0,0,1-1.116,2.1,4.815,4.815,0,0,1-2.883.8,5.029,5.029,0,0,1-2.123-.426,3.561,3.561,0,0,1-1.455-1.169,2.716,2.716,0,0,1-.527-1.6h2.408a1.326,1.326,0,0,0,.5,1.037,1.987,1.987,0,0,0,1.248.36,1.839,1.839,0,0,0,1.1-.277A.861.861,0,0,0,122.243-2.628Zm4.236,1.38a1.279,1.279,0,0,1,.409-.984,1.45,1.45,0,0,1,1.024-.378,1.462,1.462,0,0,1,1.033.378,1.279,1.279,0,0,1,.409.984,1.261,1.261,0,0,1-.4.971A1.468,1.468,0,0,1,127.912.1a1.456,1.456,0,0,1-1.028-.374A1.261,1.261,0,0,1,126.479-1.248Z" transform="translate(759 811)" fill="#12263f"/>
    </g>
  </g>
</svg>
