<svg xmlns="http://www.w3.org/2000/svg" xmlns:xlink="http://www.w3.org/1999/xlink" width="108.811" height="111.446" viewBox="0 0 108.811 111.446">
  <defs>
    <clipPath id="clip-path">
      <rect id="Rectángulo_377171" data-name="Rectángulo 377171" width="108.811" height="111.446" fill="none"/>
    </clipPath>
  </defs>
  <g id="Grupo_1072743" data-name="Grupo 1072743" clip-path="url(#clip-path)">
    <path id="Trazado_818872" data-name="Trazado 818872" d="M85.239,89.484c.5,1.457.233,1.833-.719,2.56-1.784,1.361-3.494,2.821-5.341,4.1a22.031,22.031,0,0,1-7.734,3.6,22.91,22.91,0,0,1-2.726.414,40.524,40.524,0,0,1-5.361.11c-.056-.162-.125-.157-.205-.016a38.923,38.923,0,0,1-4.217-.111,46.955,46.955,0,0,0-5,.028,71.216,71.216,0,0,1-7.541.07,19.464,19.464,0,0,1-5.445-1.063A18.814,18.814,0,0,1,37.982,97.9a42.708,42.708,0,0,1-5.6-3.89c-1-.813-2.025-1.589-3.021-2.4a.989.989,0,0,0-.989-.192,10.193,10.193,0,0,1-2.847.448,5.679,5.679,0,0,1-2.318-.488,1.128,1.128,0,0,0-1.264.04,6.929,6.929,0,0,1-2.906.9,4.142,4.142,0,0,0-3.58,2.794,13.087,13.087,0,0,0-.4,1.871,6.781,6.781,0,0,1-4.753,5.342c-.918.325-1.92.3-2.839.645a3.607,3.607,0,0,0-2.453,2.879,8.9,8.9,0,0,1-1.722,4.571,2.645,2.645,0,0,1-1.539,1.01.826.826,0,0,1-.506-.062c-1.337-.575-1.651-1.65-.65-2.689.962-1,1.032-2.259,1.265-3.476A7.142,7.142,0,0,1,7.42,99.622c.6-.129,1.233-.169,1.831-.342a3.688,3.688,0,0,0,2.755-3.357,7.083,7.083,0,0,1,6.05-6.664c.493-.075.976-.217,1.469-.291.439-.066.6-.177.366-.658a5.2,5.2,0,0,1-.683-2.919,1.476,1.476,0,0,0-.656-1.5A20.657,20.657,0,0,1,12.7,75.3a50.173,50.173,0,0,1-1.707-5.532c-.4-1.574-.89-3.13-1.408-4.671q-.873-2.595-1.9-5.138a31.68,31.68,0,0,1-1.865-6.61,20.811,20.811,0,0,1-.143-5.082,21.1,21.1,0,0,1,.94-4.7c.866-2.755,1.99-5.419,2.924-8.15.6-1.761,1.079-3.567,1.579-5.362a31.682,31.682,0,0,1,4.246-10.077,25.714,25.714,0,0,1,6-5.707c1.373-1.01,2.8-1.94,4.232-2.855a68.488,68.488,0,0,0,6.255-4.7,41.148,41.148,0,0,1,6.5-4.437,19.372,19.372,0,0,1,5.8-1.912A27.016,27.016,0,0,1,47.722.021,49.85,49.85,0,0,1,53.5.249c.9.067,1.22.782,1.478,1.517-.267,1.27-.9,1.754-2.464,1.762-.438,0-.849-.129-1.283-.135a44.507,44.507,0,0,0-5.259.1,18.227,18.227,0,0,0-3.8.739A22.076,22.076,0,0,0,35.85,7.771c-2.727,2.041-5.307,4.277-8.143,6.176-2.032,1.36-4.089,2.683-6.042,4.161a16.9,16.9,0,0,0-5.538,7.118,64.4,64.4,0,0,0-2.322,7.29,93.594,93.594,0,0,1-3.042,8.929A29.176,29.176,0,0,0,8.87,48.966a15.818,15.818,0,0,0,.469,5.344,31.686,31.686,0,0,0,1.214,3.929A109.9,109.9,0,0,1,14.176,69.09a35.046,35.046,0,0,0,2.832,7.781,15.174,15.174,0,0,0,2.76,3.782c.312.3.509.307.741-.068.192-.31.321-.648.516-.961A15.609,15.609,0,0,1,23.9,76.245c.3-.266.314-.458.074-.769-.765-.989-1.465-2.025-2.13-3.085a42.334,42.334,0,0,1-6.365-19.4,36.228,36.228,0,0,1,.2-7.627c.176-1.343.345-2.683.638-4.01a41.913,41.913,0,0,1,6.02-14.181A41.771,41.771,0,0,1,48.076,9.432,45.33,45.33,0,0,1,55.7,8.4a39.194,39.194,0,0,1,6.362.3,42.274,42.274,0,0,1,4.617.788c.893.2,1.778.449,2.655.712.823.246,1.641.5,2.45.805a42.685,42.685,0,0,1,13.806,8.553A41.512,41.512,0,0,1,96.331,35.5a44.188,44.188,0,0,1,1.786,6.18,44.905,44.905,0,0,1,.833,6.194,33.951,33.951,0,0,1-.215,7.025,43.953,43.953,0,0,1-.818,4.706A42.678,42.678,0,0,1,96.6,64.28a43.052,43.052,0,0,1-9.789,15.368,19.609,19.609,0,0,1-2.155,1.923c-.737.562-1.407,1.212-2.136,1.787a19.968,19.968,0,0,1-1.895,1.4c-.868.529-1.707,1.105-2.583,1.622s-1.761.991-2.656,1.446c-.535.272-1.133.5-1.707.727A43.525,43.525,0,0,1,68.7,90.381c-1.442.383-2.89.718-4.36.987a42.314,42.314,0,0,1-7.168.623c-1.406.016-2.8-.079-4.2-.2a33.064,33.064,0,0,1-4.454-.671,45.115,45.115,0,0,1-6.872-2.107,37.7,37.7,0,0,1-5.5-2.733c-.305-.183-.428-.089-.611.139a13.955,13.955,0,0,1-3.081,2.971c-.3.2-.294.332-.016.553,1.547,1.229,3.081,2.472,4.7,3.613a17.434,17.434,0,0,0,9.163,3.4c1.552.088,3.117.025,4.675.027,1.861,0,3.711-.17,5.568-.22,1.914-.052,3.817.206,5.732.147,1.2-.037,2.4.076,3.611.065a29.8,29.8,0,0,0,3.759-.2c3.7-.5,6.675-2.51,9.582-4.636,1.236-.9,2.413-1.89,3.591-2.87a1.865,1.865,0,0,1,2.426.213M58.22,88.643a30.047,30.047,0,0,0,5.447-.462c.853-.14,1.669-.421,2.511-.608a34.576,34.576,0,0,0,6.16-2.054,41.368,41.368,0,0,0,12.939-8.947,21.3,21.3,0,0,0,1.612-1.9,38.885,38.885,0,0,0,8.07-17.338,48.045,48.045,0,0,0,.725-6.465,28.435,28.435,0,0,0-.2-4.208q-.246-2.323-.632-4.624a29.007,29.007,0,0,0-.994-3.708,31.09,31.09,0,0,0-2.778-6.447A40.765,40.765,0,0,0,78.913,18.4a38.586,38.586,0,0,0-12.062-5.42,30.057,30.057,0,0,0-4.745-.905c-1.275-.131-2.551-.316-3.829-.394a29.32,29.32,0,0,0-4.422.186,39.929,39.929,0,0,0-7.227,1.323,38.846,38.846,0,0,0-16.5,9.585,37.329,37.329,0,0,0-8.146,11.911A42.714,42.714,0,0,0,20,40.284c-.35,1.2-.528,2.437-.8,3.654a21.3,21.3,0,0,0-.436,3.984,44.689,44.689,0,0,0,.061,5.1,35.952,35.952,0,0,0,.481,3.932,39.035,39.035,0,0,0,2.164,7.429,39.661,39.661,0,0,0,2.43,5.13c.866,1.456,1.868,2.831,2.8,4.248.174.264.361.268.622.145a9.961,9.961,0,0,1,3.529-1.049,4.731,4.731,0,0,1,1.431-.071c.659.143,1.312.259,1.969.452a5.521,5.521,0,0,1,3.148,2.4,6.777,6.777,0,0,1,.915,4.227,8.2,8.2,0,0,1-.738,2.915c-.2.445-.015.578.3.735.914.457,1.823.925,2.742,1.371a32.584,32.584,0,0,0,6.3,2.4,50.3,50.3,0,0,0,5.222,1.041,26.619,26.619,0,0,0,3.216.344,20.2,20.2,0,0,0,2.862-.027m-26.9-12.551a6.174,6.174,0,0,0-2.537.727,11.636,11.636,0,0,0-5.105,4.756A6.589,6.589,0,0,0,22.657,86.2a2.845,2.845,0,0,0,2.32,2.3,5.046,5.046,0,0,0,2.315-.211,9.8,9.8,0,0,0,4.756-2.936,10.343,10.343,0,0,0,2.833-4.905A3.949,3.949,0,0,0,34.73,77.7c-.6-1.228-1.7-1.57-3.405-1.6" transform="translate(0 0)" fill="#131415"/>
    <path id="Trazado_818873" data-name="Trazado 818873" d="M96.592,91.612a1.866,1.866,0,0,0-2.427-.213c-1.177.98-2.355,1.966-3.591,2.87C87.668,96.394,84.7,98.4,80.993,98.9a29.805,29.805,0,0,1-3.76.2c-1.206.01-2.41-.1-3.611-.065-1.916.059-3.818-.2-5.733-.147-1.857.05-3.707.221-5.567.22-1.559,0-3.124.062-4.676-.027a17.425,17.425,0,0,1-9.163-3.4c-1.615-1.14-3.149-2.384-4.7-3.613-.278-.221-.287-.351.016-.553a13.973,13.973,0,0,0,3.081-2.971c.183-.228.305-.323.611-.139a37.613,37.613,0,0,0,5.5,2.733,45.056,45.056,0,0,0,6.871,2.107,33.174,33.174,0,0,0,4.455.671c1.4.117,2.8.213,4.2.2a42.265,42.265,0,0,0,7.168-.623c1.471-.269,2.918-.6,4.36-.987a43.551,43.551,0,0,0,4.977-1.827c.574-.23,1.171-.455,1.706-.727.894-.454,1.787-.933,2.656-1.446s1.715-1.092,2.583-1.621a19.961,19.961,0,0,0,1.894-1.4c.729-.574,1.4-1.225,2.136-1.787a19.526,19.526,0,0,0,2.155-1.923,43.064,43.064,0,0,0,9.79-15.368,42.922,42.922,0,0,0,1.319-4.675,43.845,43.845,0,0,0,.818-4.706A33.95,33.95,0,0,0,110.3,50a44.831,44.831,0,0,0-.833-6.194,44.112,44.112,0,0,0-1.786-6.18A41.511,41.511,0,0,0,96.944,21.685a42.681,42.681,0,0,0-13.806-8.552c-.809-.31-1.626-.559-2.449-.805-.878-.262-1.763-.508-2.656-.712a42.378,42.378,0,0,0-4.617-.788,39.241,39.241,0,0,0-6.362-.3,45.354,45.354,0,0,0-7.625,1.029A41.776,41.776,0,0,0,33.685,29.3a41.9,41.9,0,0,0-6.019,14.181c-.294,1.326-.463,2.666-.639,4.01a36.223,36.223,0,0,0-.2,7.626,42.335,42.335,0,0,0,6.364,19.4c.666,1.059,1.366,2.1,2.131,3.085.24.311.223.5-.074.769a15.594,15.594,0,0,0-2.873,3.379c-.195.313-.325.651-.517.961-.231.376-.428.371-.741.069A15.174,15.174,0,0,1,28.361,79a35.062,35.062,0,0,1-2.832-7.781,109.822,109.822,0,0,0-3.623-10.851,31.787,31.787,0,0,1-1.214-3.929,15.832,15.832,0,0,1-.468-5.345,29.159,29.159,0,0,1,1.891-7.521,93.514,93.514,0,0,0,3.042-8.929,64.374,64.374,0,0,1,2.322-7.29,16.889,16.889,0,0,1,5.539-7.118c1.953-1.478,4.01-2.8,6.042-4.161,2.836-1.9,5.416-4.135,8.143-6.176a22.072,22.072,0,0,1,6.325-3.534,18.189,18.189,0,0,1,3.8-.739,44.414,44.414,0,0,1,5.259-.1c.435.006.845.138,1.283.135,1.56-.008,2.2-.493,2.464-1.763a14.251,14.251,0,0,0,1.7.114A7.5,7.5,0,0,1,68.945,4a.419.419,0,0,0,.448-.223c.154.391.07.846.353,1.206a1.863,1.863,0,0,0,1.631.656c1.661-.042,3.32-.114,4.98-.163a24.735,24.735,0,0,1,5.529.46A18.06,18.06,0,0,1,88.33,8.828c2.133,1.411,4.122,3.011,6.123,4.6,2.529,2,5.248,3.745,7.9,5.579a23.556,23.556,0,0,1,4.871,4.228,20.342,20.342,0,0,1,3.614,7.468c1.032,3.519,1.962,7.068,3.273,10.5a38.333,38.333,0,0,1,2.55,8.591,18.557,18.557,0,0,1,.011,5.014,28.589,28.589,0,0,1-1.618,5.9c-1.226,3.341-2.478,6.671-3.41,10.112a46.468,46.468,0,0,1-2.362,7.143,15,15,0,0,1-2.713,4.126,34.688,34.688,0,0,1-6.412,5.075c-1.174.771-1.311,1.14-1.041,2.487A10.025,10.025,0,0,1,96.737,91.4c-.067.038-.1.138-.145.21" transform="translate(-11.353 -2.127)" fill="#e64f35"/>
    <path id="Trazado_818874" data-name="Trazado 818874" d="M162.613,87.532c-.271-1.347-.133-1.716,1.041-2.488a34.7,34.7,0,0,0,6.412-5.075,15.026,15.026,0,0,0,2.713-4.125,46.5,46.5,0,0,0,2.362-7.143c.932-3.441,2.184-6.772,3.41-10.113a28.523,28.523,0,0,0,1.618-5.9,18.539,18.539,0,0,0-.011-5.014,38.407,38.407,0,0,0-2.55-8.592c-1.312-3.433-2.241-6.982-3.273-10.5a20.329,20.329,0,0,0-3.614-7.468,23.541,23.541,0,0,0-4.871-4.228c-2.651-1.834-5.37-3.575-7.9-5.579-2-1.586-3.991-3.187-6.124-4.6a18.045,18.045,0,0,0-6.443-2.891,24.761,24.761,0,0,0-5.529-.461c-1.66.05-3.32.121-4.98.163a1.862,1.862,0,0,1-1.631-.656c-.283-.359-.2-.815-.354-1.206.276-1.246,1.24-1.518,2.3-1.5,1.7.021,3.39-.2,5.089-.125a34,34,0,0,1,7.716,1.032A21.667,21.667,0,0,1,152,2.856a18.639,18.639,0,0,1,2.087,1.371c2.17,1.493,4.128,3.263,6.255,4.811,1.174.853,2.413,1.629,3.585,2.474,2.787,2.009,5.772,3.774,8.152,6.319a19.293,19.293,0,0,1,2.833,3.746,27.872,27.872,0,0,1,2.6,6.574c.329,1.261.777,2.491,1.1,3.752s.713,2.474,1.119,3.693c.45,1.354,1,2.676,1.5,4.012a37.614,37.614,0,0,1,2.123,7.245c.134.842.205,1.7.272,2.558a18.5,18.5,0,0,1-.148,3.2,23.721,23.721,0,0,1-1.106,4.837c-.684,2.193-1.557,4.32-2.344,6.477-.689,1.886-1.238,3.824-1.768,5.765a54.8,54.8,0,0,1-2.1,6.535A20.545,20.545,0,0,1,169,85.273c-1.194.853-2.4,1.688-3.611,2.517a1.806,1.806,0,0,1-2.775-.257" transform="translate(-74.852 -0.008)" fill="#131415"/>
    <path id="Trazado_818875" data-name="Trazado 818875" d="M144.6,229.408c.08-.141.149-.145.205.016-.078.119-.145.1-.205-.016" transform="translate(-81.445 -129.156)" fill="#f6cbbd"/>
    <path id="Trazado_818876" data-name="Trazado 818876" d="M82.367,103.671a20.221,20.221,0,0,1-2.863.026,26.452,26.452,0,0,1-3.217-.344,50.045,50.045,0,0,1-5.221-1.041,32.607,32.607,0,0,1-6.3-2.4c-.919-.447-1.828-.915-2.742-1.371-.314-.157-.5-.291-.3-.735a8.21,8.21,0,0,0,.738-2.916,6.777,6.777,0,0,0-.916-4.227,5.519,5.519,0,0,0-3.148-2.4c-.656-.193-1.31-.309-1.969-.452A4.732,4.732,0,0,0,55,87.88a9.964,9.964,0,0,0-3.529,1.049c-.261.124-.448.119-.622-.145-.933-1.417-1.935-2.793-2.8-4.249a39.657,39.657,0,0,1-2.43-5.13,38.983,38.983,0,0,1-2.163-7.429,35.871,35.871,0,0,1-.481-3.932,44.688,44.688,0,0,1-.062-5.1,21.332,21.332,0,0,1,.436-3.983c.27-1.217.449-2.45.8-3.654a42.68,42.68,0,0,1,1.985-5.6A37.32,37.32,0,0,1,54.276,37.8a38.853,38.853,0,0,1,16.5-9.585A39.914,39.914,0,0,1,78,26.893a29.371,29.371,0,0,1,4.421-.186c1.279.078,2.554.262,3.829.394A30.148,30.148,0,0,1,91,28.006a38.592,38.592,0,0,1,12.062,5.42,40.758,40.758,0,0,1,12.165,13.483A31.1,31.1,0,0,1,118,53.356,28.976,28.976,0,0,1,119,57.063q.384,2.3.632,4.624a28.429,28.429,0,0,1,.2,4.207,47.894,47.894,0,0,1-.725,6.465A38.878,38.878,0,0,1,111.035,89.7a21.382,21.382,0,0,1-1.612,1.9,41.393,41.393,0,0,1-12.939,8.947,34.685,34.685,0,0,1-6.161,2.054c-.842.186-1.658.468-2.511.608a30.124,30.124,0,0,1-5.446.462M73.186,53A12.813,12.813,0,0,0,86.517,65.938a12.2,12.2,0,0,0,8.944-4.375A12.752,12.752,0,0,0,98.41,51.139c-.663-5.629-6.215-10.7-12.9-10.562C78.876,40.711,72.983,46.453,73.186,53" transform="translate(-24.146 -15.027)" fill="#fff"/>
    <path id="Trazado_818877" data-name="Trazado 818877" d="M60.42,174.222c1.708.033,2.8.375,3.405,1.6a3.949,3.949,0,0,1,.151,2.754,10.343,10.343,0,0,1-2.833,4.905,9.8,9.8,0,0,1-4.756,2.936,5.046,5.046,0,0,1-2.315.211,2.845,2.845,0,0,1-2.32-2.3,6.589,6.589,0,0,1,1.026-4.628,11.636,11.636,0,0,1,5.105-4.756,6.175,6.175,0,0,1,2.537-.727" transform="translate(-29.096 -98.13)" fill="#9dd5e4"/>
    <path id="Trazado_818878" data-name="Trazado 818878" d="M112.279,70.922c-.2-6.549,5.69-12.292,12.329-12.426,6.68-.135,12.232,4.933,12.9,10.562a12.751,12.751,0,0,1-2.949,10.424,12.2,12.2,0,0,1-8.944,4.375,12.813,12.813,0,0,1-13.331-12.935m3.34.131a9.369,9.369,0,1,0,8.711-9.243,9.358,9.358,0,0,0-8.711,9.243" transform="translate(-63.239 -32.946)" fill="#131415"/>
    <path id="Trazado_818879" data-name="Trazado 818879" d="M119.934,75.306a9.358,9.358,0,0,1,8.711-9.243,9.4,9.4,0,1,1-8.711,9.243" transform="translate(-67.553 -37.2)" fill="#e77db0"/>
  </g>
</svg>
