<svg xmlns="http://www.w3.org/2000/svg" xmlns:xlink="http://www.w3.org/1999/xlink" width="169" height="169" viewBox="0 0 169 169">
  <defs>
    <clipPath id="clip-path">
      <rect id="Rect치ngulo_377057" data-name="Rect치ngulo 377057" width="95.726" height="95.296" fill="none"/>
    </clipPath>
  </defs>
  <g id="Grupo_1072903" data-name="Grupo 1072903" transform="translate(-385.001 -2058)">
    <g id="Grupo_159182" data-name="Grupo 159182" transform="translate(385.001 2058)">
      <path id="Uni칩n_12" data-name="Uni칩n 12" d="M84.5,0A84.5,84.5,0,1,1,0,84.5,84.5,84.5,0,0,1,84.5,0Z" transform="translate(0 0)" fill="#1b3f5e"/>
    </g>
    <g id="Grupo_1072652" data-name="Grupo 1072652" transform="translate(422.184 2096.049)">
      <g id="Grupo_1072651" data-name="Grupo 1072651" clip-path="url(#clip-path)">
        <path id="Trazado_818630" data-name="Trazado 818630" d="M71.8,104.961q-13.724,0-27.448.01a4.542,4.542,0,0,1-2.311-.471,4.1,4.1,0,0,1-1.828-2.355A3.8,3.8,0,0,1,40.01,101q.006-23.182.007-46.364a3.806,3.806,0,0,1,3.034-3.69,7.794,7.794,0,0,1,1.691-.182H99.188a4.262,4.262,0,0,1,4.15,2.365,4.777,4.777,0,0,1,.427,2.172q.025,22.609,0,45.219a4.18,4.18,0,0,1-1.338,3.333,4.021,4.021,0,0,1-2.635,1.087q-14,.028-28,.011Zm.114-3.188h27.4a4.615,4.615,0,0,0,.547-.012c.11-.014.278-.052.308-.125a2.95,2.95,0,0,0,.437-1.207q-.038-22.612-.015-45.225c0-.9-.232-1.249-1.265-1.249q-27.5,0-55,0c-.925,0-1.134.216-1.134,1.146v45.424c0,1.012.239,1.245,1.271,1.245H71.916" transform="translate(-24.01 -30.466)" fill="#060607"/>
        <path id="Trazado_818631" data-name="Trazado 818631" d="M1.647,188.785c0-1.344-.006-2.689.005-4.033a.727.727,0,0,0-.285-.691,3.068,3.068,0,0,1-1.335-3.152,22.317,22.317,0,0,0,.017-2.935,4.989,4.989,0,0,1,2.767-4.737c.4-.225.575-.3.147-.721a4.169,4.169,0,0,1-1.2-2.192c-.25-1.658-.352-3.387.73-4.872a4.47,4.47,0,0,1,3.257-1.914,4.571,4.571,0,0,1,4.76,2.249,5.136,5.136,0,0,1,.634,2.143,6.733,6.733,0,0,1-.134,2.274c-.079.348-.034.77-.5.953-.1.039.059.314-.075.506a6.966,6.966,0,0,1-.8,1.041c-.177.172-.166.293.066.41a5.851,5.851,0,0,1,2.485,2.24,4.269,4.269,0,0,1,.516,1.693c.221,1.781.059,3.571.108,5.357a.608.608,0,0,1-.213.528.961.961,0,0,0-.072.068c-.436.451-1.042.833-1.259,1.371a5.325,5.325,0,0,0-.052,1.872q0,3.287,0,6.572c0,.487-.208.678-.682.562a2.205,2.205,0,0,0-.535-.045q-3.636-.007-7.271,0c-1.077,0-1.077,0-1.077-1.061v-3.485m3.218-2.14c0,1.029.012,2.059-.008,3.088-.006.313.092.4.395.387.78-.02,1.561-.024,2.341,0,.339.011.412-.107.408-.424-.014-1.594-.021-3.188,0-4.781.023-2.035-.284-1.569,1.215-2.96a1.15,1.15,0,0,0,.381-.927c-.016-1.1-.011-2.191,0-3.287a1.627,1.627,0,0,0-.732-1.443c-.66-.443-1.352-.841-2.021-1.27a.651.651,0,0,0-.779,0c-.659.416-1.33.813-1.994,1.223a1.641,1.641,0,0,0-.792,1.463c-.012.763.062,1.534-.018,2.289a2.543,2.543,0,0,0,1.081,2.581,1.384,1.384,0,0,1,.537,1.271c-.03.929-.008,1.859-.008,2.789m0-17.978a2.072,2.072,0,0,0,1.288,2.183.491.491,0,0,0,.5-.007c1.543-.674,1.559-2.021,1.139-3.24a1.527,1.527,0,0,0-1.511-.925,1.622,1.622,0,0,0-1.324,1.057,2.756,2.756,0,0,0-.09.933" transform="translate(0 -98.115)" fill="#060607"/>
        <path id="Trazado_818632" data-name="Trazado 818632" d="M216.742,172.922a5.8,5.8,0,0,1,2.91,2.731,5.963,5.963,0,0,1,.456,2.286c.042,1.442,0,2.887.017,4.331a.953.953,0,0,1-.343.773c-1.264,1.178-1.256,1.186-1.256,2.923,0,2.29-.006,4.58.007,6.87,0,.338-.032.48-.44.477q-4.357-.034-8.714,0c-.358,0-.429-.1-.427-.439.015-2.7,0-5.41.015-8.114a.825.825,0,0,0-.332-.771,2.98,2.98,0,0,1-1.292-3.022c.114-1.1.012-2.221.027-3.333a4.765,4.765,0,0,1,1.674-3.673,6.268,6.268,0,0,1,1.26-.841c.336-.172.3-.31.1-.531a5.189,5.189,0,0,1-1.438-3.446,6.285,6.285,0,0,1,.391-2.9,4.536,4.536,0,0,1,3.636-2.736,4.8,4.8,0,0,1,3.506.8,4.584,4.584,0,0,1,1.846,3.045,7.141,7.141,0,0,1-.111,3.2,5.661,5.661,0,0,1-1.488,2.371m.16,6.431c0-.547-.008-1.095,0-1.642a1.611,1.611,0,0,0-.731-1.441c-.659-.444-1.349-.841-2.018-1.269a.65.65,0,0,0-.778,0c-.657.416-1.329.811-1.992,1.221a1.666,1.666,0,0,0-.8,1.507,22.571,22.571,0,0,1-.017,2.286,2.493,2.493,0,0,0,1.066,2.53,1.412,1.412,0,0,1,.553,1.263c-.022,1.956,0,3.913-.016,5.87,0,.323.083.428.414.418.762-.024,1.526-.026,2.288,0,.347.012.448-.087.444-.439q-.029-2.412,0-4.825c.021-1.948-.276-1.518,1.185-2.869a1.161,1.161,0,0,0,.412-.963c-.024-.546-.006-1.094-.006-1.641m-1.6-10.608a2.229,2.229,0,0,0-.314-1.4,1.55,1.55,0,0,0-2.549-.038,2.738,2.738,0,0,0-.045,2.59,2.584,2.584,0,0,0,1.211.98c.13.073.222,0,.319-.049a1.934,1.934,0,0,0,1.378-2.086" transform="translate(-124.408 -98.084)" fill="#060607"/>
        <path id="Trazado_818633" data-name="Trazado 818633" d="M9.458,9.487a6.124,6.124,0,0,1,2.755,2.408,5.641,5.641,0,0,1,.61,2.6c.048,1.443.006,2.888.018,4.332a.838.838,0,0,1-.339.773,3.017,3.017,0,0,0-1.292,2.927c.126,1.767.021,3.55.041,5.326,0,.354-.09.432-.436.43q-4.359-.022-8.717,0c-.354,0-.434-.09-.431-.436.018-1.909.013-3.818,0-5.727,0-.184.144-.439-.156-.554-.017-.007-.036-.07-.025-.081.576-.644-.1-.927-.423-1.182a2.535,2.535,0,0,1-1-2.406,32.6,32.6,0,0,0,.016-3.384,4.878,4.878,0,0,1,2.559-4.56A4.821,4.821,0,0,1,3.2,9.639c.224-.1.26-.184.074-.368A5.269,5.269,0,0,1,1.663,5.358,5.384,5.384,0,0,1,2.7,1.776,4.553,4.553,0,0,1,5.511.1a4.682,4.682,0,0,1,5.657,4.355,7.314,7.314,0,0,1-.318,2.976,4.972,4.972,0,0,1-1.1,1.724c-.1.111-.2.221-.3.337m-4.565,12.9c0,.763.016,1.528-.008,2.291-.01.319.1.39.4.384.78-.019,1.561-.024,2.341,0,.344.011.41-.115.406-.427-.017-1.112.058-2.229-.024-3.335a2.7,2.7,0,0,1,1.162-2.75,1.116,1.116,0,0,0,.459-1.042c-.026-1.079-.015-2.158-.006-3.237a1.625,1.625,0,0,0-.736-1.441c-.66-.443-1.352-.839-2.022-1.27a.651.651,0,0,0-.779,0c-.66.416-1.331.813-1.994,1.223A1.642,1.642,0,0,0,3.3,14.256c-.011.763.063,1.534-.018,2.289a2.545,2.545,0,0,0,1.083,2.58A1.33,1.33,0,0,1,4.9,20.347c-.03.679-.007,1.361-.007,2.042M4.887,5.336a1.961,1.961,0,0,0,1.223,2,.686.686,0,0,0,.74.011c1.222-.654,1.42-1.817.992-3.137a1.521,1.521,0,0,0-1.519-.991,1.612,1.612,0,0,0-1.35,1.093,3.6,3.6,0,0,0-.085,1.029" transform="translate(-0.028 -0.002)" fill="#060607"/>
        <path id="Trazado_818634" data-name="Trazado 818634" d="M210.733,9.485a5.2,5.2,0,0,1-1.474-2.248,5.84,5.84,0,0,1,.777-5.521A4.382,4.382,0,0,1,212.779.1a4.74,4.74,0,0,1,3.746.8,4.683,4.683,0,0,1,1.926,3.589,7.266,7.266,0,0,1-.322,2.974,6.034,6.034,0,0,1-1.37,2.016,6.925,6.925,0,0,1,2.619,2.241,5.585,5.585,0,0,1,.726,2.76c.059,1.458.01,2.921.02,4.381a.9.9,0,0,1-.32.731c-1.285,1.192-1.279,1.2-1.279,2.965s-.009,3.552.008,5.327c0,.331-.092.405-.411.4q-4.383-.019-8.765,0c-.326,0-.408-.085-.406-.408.015-2.191,0-4.381.014-6.572a.776.776,0,0,0-.314-.729,3,3,0,0,1-1.308-3.064,23.634,23.634,0,0,0,.018-3.035,4.841,4.841,0,0,1,2.506-4.487c.278-.17.562-.328.866-.5M212.177,22.4c0,.747.012,1.494-.006,2.241-.008.306.052.442.4.43.779-.027,1.561-.027,2.341,0,.352.012.4-.129.4-.432-.015-1.1.059-2.2-.023-3.286a2.733,2.733,0,0,1,1.165-2.8,1.117,1.117,0,0,0,.455-1.043c-.026-1.079-.015-2.158-.006-3.237a1.625,1.625,0,0,0-.739-1.439c-.647-.435-1.327-.818-1.977-1.247a.714.714,0,0,0-.868.01c-.616.391-1.24.769-1.867,1.144a1.714,1.714,0,0,0-.869,1.573,20.683,20.683,0,0,1-.016,2.239,2.543,2.543,0,0,0,1.087,2.579,1.333,1.333,0,0,1,.53,1.224c-.03.679-.007,1.361-.007,2.042m0-17.068a1.968,1.968,0,0,0,1.231,2.014.691.691,0,0,0,.74,0,2.406,2.406,0,0,0,.96-3.191,1.539,1.539,0,0,0-1.513-.93,1.62,1.62,0,0,0-1.326,1.058,3.22,3.22,0,0,0-.092,1.053" transform="translate(-124.408 -0.004)" fill="#060607"/>
        <path id="Trazado_818635" data-name="Trazado 818635" d="M3.443,89.245A5.363,5.363,0,0,1,1.964,86.99a5.941,5.941,0,0,1,.727-5.49,4.224,4.224,0,0,1,2.962-1.653A4.624,4.624,0,0,1,10.535,82.1a5.416,5.416,0,0,1,.632,2.243,6.666,6.666,0,0,1-.344,2.923,5.591,5.591,0,0,1-1.368,1.969,7.873,7.873,0,0,1,2.385,1.874,5.356,5.356,0,0,1,.976,3.17c.051,1.442.007,2.887.016,4.331a.9.9,0,0,1-.316.733c-1.289,1.195-1.282,1.2-1.282,2.963s-.008,3.552.008,5.328c0,.322-.077.411-.406.409-2.689-.014-5.379-.008-8.068-.008-1.1,0-1.1,0-1.1-1.088,0-1.643.008-3.286-.009-4.929,0-.23.166-.53-.164-.7a.094.094,0,0,1-.016-.088c.534-.547-.006-.841-.322-1.076A2.712,2.712,0,0,1,.053,97.5a29.986,29.986,0,0,0,.016-3.284,4.838,4.838,0,0,1,2.512-4.465c.267-.166.543-.317.862-.5m1.442,12.907c0,.747.012,1.494-.006,2.241-.007.3.047.445.4.433.779-.028,1.561-.027,2.341,0,.349.012.407-.124.4-.43q-.024-1.569,0-3.138c.03-2.092-.286-1.606,1.22-3.009a1.1,1.1,0,0,0,.377-.878c-.014-1.113-.012-2.225,0-3.337a1.623,1.623,0,0,0-.737-1.44c-.66-.443-1.352-.839-2.021-1.271a.652.652,0,0,0-.779.007c-.66.415-1.331.812-1.994,1.223a1.644,1.644,0,0,0-.787,1.466c-.01.763.064,1.535-.018,2.289A2.545,2.545,0,0,0,4.36,98.888a1.332,1.332,0,0,1,.532,1.223c-.03.679-.008,1.361-.007,2.042m3.127-17.04c0-.224.012-.375,0-.523A1.661,1.661,0,0,0,6.469,82.98a1.449,1.449,0,0,0-1.5,1.134c-.247,1.5-.145,2.24,1.128,2.975a.692.692,0,0,0,.782-.01,1.968,1.968,0,0,0,1.132-1.967" transform="translate(-0.021 -47.884)" fill="#060607"/>
        <path id="Trazado_818636" data-name="Trazado 818636" d="M210.744,89.16a6.1,6.1,0,0,1-1.764-3.14,5.219,5.219,0,0,1,2.7-5.9,4.741,4.741,0,0,1,4.772.416,4.656,4.656,0,0,1,2.008,3.682,7.117,7.117,0,0,1-.341,2.971,5.562,5.562,0,0,1-1.372,1.969,6.852,6.852,0,0,1,2.633,2.235,5.563,5.563,0,0,1,.728,2.759c.061,1.458.011,2.92.02,4.381a.9.9,0,0,1-.317.733c-1.288,1.194-1.281,1.2-1.281,2.964s-.009,3.552.008,5.328c0,.324-.081.409-.407.408q-4.383-.02-8.765,0c-.32,0-.412-.074-.41-.4.016-2.191,0-4.381.014-6.572a.776.776,0,0,0-.311-.73,3,3,0,0,1-1.311-3.064,23.969,23.969,0,0,0,.018-3.084,4.814,4.814,0,0,1,2.491-4.425c.28-.176.57-.336.892-.525m1.433,12.925c0,.764.011,1.528-.006,2.291-.006.278.071.376.361.37.8-.018,1.594-.02,2.391,0,.307.008.4-.082.391-.39q-.027-1.643,0-3.287c.028-1.928-.28-1.512,1.194-2.87a1.191,1.191,0,0,0,.4-.968c-.018-1.079-.016-2.158,0-3.237a1.68,1.68,0,0,0-.786-1.517c-.665-.437-1.357-.832-2.027-1.26a.582.582,0,0,0-.689.019c-.677.419-1.362.825-2.038,1.245a1.642,1.642,0,0,0-.779,1.47c-.009.747.06,1.5-.017,2.24a2.591,2.591,0,0,0,1.092,2.626,1.328,1.328,0,0,1,.524,1.226c-.029.679-.007,1.361-.007,2.042m0-17.074a1.965,1.965,0,0,0,1.219,2,.721.721,0,0,0,.783-.011,2.376,2.376,0,0,0,.954-3.11,1.528,1.528,0,0,0-1.517-1,1.611,1.611,0,0,0-1.354,1.089,3.53,3.53,0,0,0-.085,1.025" transform="translate(-124.408 -47.807)" fill="#060607"/>
        <path id="Trazado_818637" data-name="Trazado 818637" d="M113.267,194.25c.962,0,1.925,0,2.887-.019.276-.006.323.092.322.339-.009,2.09-.006,4.181,0,6.271a.756.756,0,0,1-.271.6c-1.33,1.242-1.324,1.248-1.324,3.094,0,2.256-.006,4.513.006,6.768,0,.334-.025.482-.438.479-2.9-.023-5.808-.019-8.712,0-.351,0-.434-.087-.432-.434.017-2.405,0-4.811.013-7.216a5.162,5.162,0,0,1-.008-1.089.43.43,0,0,0-.208-.469,3.355,3.355,0,0,1-1.408-3.421c.114-1.5.033-3.018.019-4.527,0-.288.042-.4.37-.394.945.029,1.891.016,2.837.02.006,1.409.08,2.822-.005,4.226a2.587,2.587,0,0,0,1.068,2.531,1.453,1.453,0,0,1,.558,1.311c-.024,1.923,0,3.847-.018,5.77,0,.359.068.495.458.477.728-.034,1.46-.029,2.189,0,.375.014.509-.073.5-.482-.026-1.624.05-3.253-.031-4.874a2.734,2.734,0,0,1,1.163-2.745,1.158,1.158,0,0,0,.46-1.088c-.015-1.707,0-3.415.006-5.123" transform="translate(-62.211 -116.555)" fill="#060607"/>
        <path id="Trazado_818638" data-name="Trazado 818638" d="M61.439,194.25c.962,0,1.925,0,2.887-.019.276-.006.323.093.322.339-.009,2.09-.006,4.181,0,6.271a.755.755,0,0,1-.271.6c-1.33,1.242-1.324,1.248-1.324,3.094,0,2.256-.006,4.513.006,6.768,0,.334-.026.482-.438.479-2.9-.023-5.808-.019-8.712,0-.352,0-.434-.087-.432-.434.017-2.405,0-4.811.013-7.216a5.165,5.165,0,0,1-.008-1.089.43.43,0,0,0-.208-.469,3.355,3.355,0,0,1-1.408-3.421c.114-1.5.033-3.018.019-4.527,0-.288.043-.4.371-.394.945.029,1.891.016,2.837.02.006,1.409.08,2.822-.005,4.226a2.585,2.585,0,0,0,1.068,2.531,1.451,1.451,0,0,1,.557,1.311c-.023,1.923,0,3.847-.017,5.77,0,.359.068.495.458.477.728-.034,1.46-.029,2.189,0,.375.014.509-.072.5-.482-.026-1.624.049-3.253-.031-4.874a2.736,2.736,0,0,1,1.163-2.745,1.157,1.157,0,0,0,.46-1.088c-.015-1.707,0-3.415.006-5.123" transform="translate(-31.109 -116.555)" fill="#060607"/>
        <path id="Trazado_818639" data-name="Trazado 818639" d="M165.1,194.25c.962,0,1.924,0,2.886-.019.275-.006.323.092.322.338-.009,2.09-.006,4.18,0,6.27a.755.755,0,0,1-.27.6c-1.33,1.244-1.325,1.249-1.325,3.093,0,2.273-.009,4.545.009,6.818,0,.356-.1.429-.438.427q-4.356-.022-8.711,0c-.346,0-.438-.077-.436-.43.016-2.7,0-5.408.015-8.111a.831.831,0,0,0-.324-.775,3.059,3.059,0,0,1-1.306-3.017c.124-1.6.037-3.216.024-4.824,0-.289.043-.4.371-.394.945.029,1.891.016,2.836.02.006,1.409.08,2.822-.005,4.226a2.585,2.585,0,0,0,1.068,2.531,1.452,1.452,0,0,1,.558,1.311c-.024,1.923,0,3.847-.018,5.77,0,.359.068.495.458.477.728-.034,1.46-.029,2.189,0,.375.014.509-.072.5-.482-.026-1.624.05-3.253-.031-4.874a2.734,2.734,0,0,1,1.163-2.745,1.158,1.158,0,0,0,.46-1.088c-.015-1.707,0-3.415.006-5.123" transform="translate(-93.314 -116.555)" fill="#060607"/>
        <path id="Trazado_818640" data-name="Trazado 818640" d="M106.959,17.153c-.963,0-1.926,0-2.888.019-.278.006-.324-.1-.321-.34.012-1-.056-2,.021-2.986a4.63,4.63,0,0,1,2.139-3.581c.382-.261.789-.486,1.207-.741a5.186,5.186,0,0,1-1.5-2.305,6.027,6.027,0,0,1,.481-5,4.371,4.371,0,0,1,3.386-2.1,4.5,4.5,0,0,1,5.058,3,5.8,5.8,0,0,1-1.217,6.188,1.446,1.446,0,0,0-.127.152.417.417,0,0,0-.038.081,6.506,6.506,0,0,1,2.65,2.275,5.939,5.939,0,0,1,.687,2.677c.058.775,0,1.559.017,2.339,0,.244-.041.347-.32.341-.962-.022-1.925-.015-2.887-.019,0-.943-.018-1.886-.012-2.829a1.624,1.624,0,0,0-.731-1.438c-.657-.443-1.348-.836-2.013-1.269a.686.686,0,0,0-.821.014c-.645.4-1.3.795-1.945,1.193a1.667,1.667,0,0,0-.81,1.5c-.01.943-.01,1.886-.015,2.829m1.608-11.928a2.025,2.025,0,0,0,1.24,2.167.635.635,0,0,0,.693,0,2.442,2.442,0,0,0,.846-3.474,1.517,1.517,0,0,0-2.693.419,2.573,2.573,0,0,0-.086.886" transform="translate(-62.25 -0.05)" fill="#060607"/>
        <path id="Trazado_818641" data-name="Trazado 818641" d="M158.786,17.1c-.963,0-1.925,0-2.887.019-.276.006-.325-.093-.322-.339.012-1-.055-2,.021-2.985a4.631,4.631,0,0,1,2.137-3.581c.382-.261.789-.486,1.2-.739a5.326,5.326,0,0,1-1.47-2.271,5.857,5.857,0,0,1,.769-5.477A4.37,4.37,0,0,1,160.972.1a4.685,4.685,0,0,1,5.7,4.356,7.349,7.349,0,0,1-.318,2.974,4.948,4.948,0,0,1-1.1,1.722l-.288.329a6.519,6.519,0,0,1,2.673,2.287,5.884,5.884,0,0,1,.685,2.627c.064.791.005,1.592.018,2.388,0,.245-.043.346-.321.34-.962-.022-1.924-.015-2.887-.019-.005-.943-.018-1.886-.012-2.829a1.625,1.625,0,0,0-.731-1.438c-.657-.443-1.348-.836-2.012-1.269a.687.687,0,0,0-.821.014c-.645.4-1.3.795-1.944,1.194a1.667,1.667,0,0,0-.811,1.5c-.01.943-.011,1.886-.015,2.829m4.738-11.756c0-.2,0-.3,0-.4a1.684,1.684,0,0,0-1.676-1.732,1.6,1.6,0,0,0-1.453,1.757c0,.2,0,.4,0,.6a2.123,2.123,0,0,0,1.463,1.883.558.558,0,0,0,.423-.087,1.957,1.957,0,0,0,1.243-2.016" transform="translate(-93.351 0)" fill="#060607"/>
        <path id="Trazado_818642" data-name="Trazado 818642" d="M55.125,17.121c-.963,0-1.926,0-2.889.016-.218,0-.325-.026-.321-.288.015-1.029-.066-2.065.024-3.086a4.631,4.631,0,0,1,2.141-3.531c.383-.259.788-.485,1.2-.737A5.286,5.286,0,0,1,53.8,7.218a5.832,5.832,0,0,1,.783-5.478,4.476,4.476,0,0,1,2.6-1.588,4.738,4.738,0,0,1,5.175,2.179,6.311,6.311,0,0,1,.656,2.287,6.909,6.909,0,0,1-.338,2.875,4.574,4.574,0,0,1-1.087,1.675c-.1.109-.194.222-.293.335a6.49,6.49,0,0,1,2.673,2.276,5.967,5.967,0,0,1,.691,2.677c.058.776.005,1.56.016,2.34,0,.236-.028.353-.316.346-.963-.023-1.926-.015-2.889-.018-.006-.943-.02-1.886-.015-2.829a1.627,1.627,0,0,0-.731-1.438c-.657-.443-1.348-.836-2.013-1.269a.686.686,0,0,0-.821.014c-.645.4-1.3.795-1.945,1.194a1.667,1.667,0,0,0-.811,1.5c-.011.943-.011,1.886-.015,2.829M59.861,5.368c0-.223.011-.374,0-.521a1.613,1.613,0,0,0-1.346-1.564,1.349,1.349,0,0,0-1.564.769,2.74,2.74,0,0,0,.046,2.44,2.581,2.581,0,0,0,1.127.944.456.456,0,0,0,.471-.038,1.974,1.974,0,0,0,1.269-2.03" transform="translate(-31.143 -0.018)" fill="#060607"/>
        <path id="Trazado_818643" data-name="Trazado 818643" d="M66.29,194.094c0,1.708-.022,3.416-.006,5.123a1.157,1.157,0,0,1-.46,1.088,2.736,2.736,0,0,0-1.163,2.745c.08,1.621.005,3.249.031,4.874.006.41-.128.5-.5.482-.729-.027-1.46-.032-2.189,0-.39.018-.461-.118-.458-.477.018-1.923-.006-3.847.017-5.77A1.451,1.451,0,0,0,61,200.85a2.585,2.585,0,0,1-1.068-2.531c.085-1.4.011-2.817.005-4.226a.365.365,0,0,1,.309-.123c1.994.228,4,.025,5.993.113a.294.294,0,0,1,.048.011" transform="translate(-35.96 -116.399)" fill="#dbf9bd"/>
        <path id="Trazado_818644" data-name="Trazado 818644" d="M118.118,194.094c0,1.708-.022,3.416-.006,5.123a1.158,1.158,0,0,1-.46,1.088,2.734,2.734,0,0,0-1.163,2.745c.08,1.621,0,3.249.031,4.874.006.41-.128.5-.5.482-.729-.027-1.46-.032-2.189,0-.39.018-.461-.118-.458-.477.018-1.923-.006-3.847.018-5.77a1.453,1.453,0,0,0-.558-1.311,2.587,2.587,0,0,1-1.068-2.531c.085-1.4.011-2.817.005-4.226a.365.365,0,0,1,.309-.123c1.994.228,4,.025,5.993.113a.293.293,0,0,1,.048.011" transform="translate(-67.062 -116.399)" fill="#4fa86f"/>
        <path id="Trazado_818645" data-name="Trazado 818645" d="M169.945,194.087c0,1.708-.022,3.416-.006,5.123a1.158,1.158,0,0,1-.46,1.088,2.734,2.734,0,0,0-1.163,2.745c.08,1.621,0,3.249.031,4.874.006.41-.128.5-.5.482-.729-.027-1.46-.032-2.189,0-.39.018-.461-.118-.458-.477.018-1.924-.006-3.847.018-5.77a1.452,1.452,0,0,0-.558-1.311,2.585,2.585,0,0,1-1.068-2.531c.085-1.4.011-2.817.005-4.226.27-.29.556,0,.833-.008,1.657-.03,3.315-.016,4.973-.014.182,0,.363.015.545.023" transform="translate(-98.163 -116.392)" fill="#dbf9bd"/>
        <path id="Trazado_818646" data-name="Trazado 818646" d="M59.971,34.267c0-.943,0-1.886.015-2.829a1.666,1.666,0,0,1,.811-1.5c.647-.4,1.3-.79,1.945-1.194a.686.686,0,0,1,.821-.014c.665.433,1.356.825,2.013,1.269a1.626,1.626,0,0,1,.731,1.438c-.006.943.009,1.886.015,2.829-.27.29-.556,0-.833.008-1.657.03-3.315.016-4.973.014-.182,0-.363-.015-.545-.023" transform="translate(-35.988 -17.164)" fill="#dbf9bd"/>
        <path id="Trazado_818647" data-name="Trazado 818647" d="M163.625,34.267c0-.943,0-1.886.015-2.829a1.668,1.668,0,0,1,.811-1.5c.647-.4,1.3-.79,1.945-1.194a.686.686,0,0,1,.821-.014c.665.432,1.355.825,2.013,1.268a1.626,1.626,0,0,1,.731,1.438c-.006.943.008,1.886.012,2.829h-6.348" transform="translate(-98.19 -17.164)" fill="#dbf9bd"/>
        <path id="Trazado_818648" data-name="Trazado 818648" d="M111.8,34.267c0-.943,0-1.886.015-2.829a1.667,1.667,0,0,1,.81-1.5c.648-.4,1.3-.79,1.945-1.193a.686.686,0,0,1,.821-.014c.665.433,1.356.825,2.013,1.269a1.625,1.625,0,0,1,.731,1.438c-.006.943.008,1.886.012,2.829H111.8" transform="translate(-67.089 -17.164)" fill="#4fa86f"/>
        <path id="Trazado_818649" data-name="Trazado 818649" d="M76.694,106.555H49.243c-1.032,0-1.271-.234-1.271-1.246V59.885c0-.931.209-1.146,1.134-1.146l55,0c1.033,0,1.265.353,1.265,1.249q-.011,22.612.015,45.225a2.942,2.942,0,0,1-.438,1.207c-.03.073-.2.112-.308.125a4.537,4.537,0,0,1-.547.012h-27.4M71.887,95.714c0,1.859.012,3.719-.01,5.578,0,.394.1.493.493.491q4.234-.026,8.469,0c.468,0,.627-.112.624-.606-.02-3.553,0-7.106-.02-10.658a1.757,1.757,0,0,1,.653-1.627c.743-.574,1.335-1.339,2.042-1.966a1.218,1.218,0,0,0,.505-1.008c-.066-2.649.07-5.3-.084-7.951a4.566,4.566,0,0,0-2.482-3.918c-.545-.314-1.112-.589-1.68-.86-.33-.157-.445-.286-.122-.593a3.382,3.382,0,0,0,.787-1.255,9.94,9.94,0,0,0,.231-5.2,4.344,4.344,0,0,0-3.345-3.625,4.849,4.849,0,0,0-5.935,3.472,15.977,15.977,0,0,0-.13,3.174,4.746,4.746,0,0,0,1.257,3.509c.222.234.159.362-.09.483-.432.211-.861.427-1.3.634A4.983,4.983,0,0,0,68.7,78.635c.005,2.357.016,4.715-.01,7.072a1.669,1.669,0,0,0,.563,1.315c.766.736,1.5,1.5,2.265,2.242a1.163,1.163,0,0,1,.38.921c-.019,1.842-.008,3.686-.008,5.528m22.847,2.872c1.229,0,2.458-.018,3.686.01.435.01.587-.081.583-.559-.026-2.822.039-5.646-.039-8.466a2.687,2.687,0,0,1,1.085-2.563,1.233,1.233,0,0,0,.543-1.062c-.016-2.556.008-5.113-.015-7.669A4.9,4.9,0,0,0,99.328,74.9a7.118,7.118,0,0,0-1.752-1.3c-.284-.165-.3-.308-.057-.517a3.843,3.843,0,0,0,.694-.841,5.814,5.814,0,0,0,.587-4.667,4.538,4.538,0,0,0-3.906-3.59A4.814,4.814,0,0,0,89.758,67a7.5,7.5,0,0,0-.322,3,4.584,4.584,0,0,0,1.211,2.848c.484.55.486.68-.2,1.011a4.271,4.271,0,0,0-1.394,1.062,5.3,5.3,0,0,0-1.235,3.7c.034,2.008.079,4.021-.017,6.025a3.09,3.09,0,0,0,1.266,3.048,1.266,1.266,0,0,1,.14.142.677.677,0,0,1,.217.532q-.023,4.9-.038,9.806c0,.283.062.445.4.423.466-.03.936-.008,1.4-.008h3.537M54.349,93.3c0,1.61.012,3.22-.009,4.829,0,.372.091.47.466.467q4.308-.025,8.615,0c.439,0,.505-.145.5-.536-.016-2.854.042-5.71-.035-8.562a2.6,2.6,0,0,1,1.065-2.47,1.275,1.275,0,0,0,.564-1.1c-.018-2.539.006-5.078-.015-7.617A4.94,4.94,0,0,0,64.339,75,6.362,6.362,0,0,0,62.57,73.65c-.333-.186-.4-.35-.078-.611a3.386,3.386,0,0,0,.656-.807,5.951,5.951,0,0,0,.587-4.649,4.417,4.417,0,0,0-3.379-3.494,4.514,4.514,0,0,0-4.69,1.355,4.822,4.822,0,0,0-1.181,2.082,7.521,7.521,0,0,0-.135,2.225,4.642,4.642,0,0,0,1.368,3.2c.436.441.443.434-.1.755-.071.042-.142.086-.214.127a4.949,4.949,0,0,0-2.653,4.573c0,2.074-.013,4.149,0,6.223.017,2.183-.268,1.55,1.245,3.056a1.121,1.121,0,0,1,.353.88c-.017,1.576-.007,3.153-.007,4.73" transform="translate(-28.788 -35.248)" fill="#dbf9bd"/>
        <path id="Trazado_818650" data-name="Trazado 818650" d="M9.713,203.753c0-.93-.021-1.86.008-2.789a1.386,1.386,0,0,0-.537-1.271A2.542,2.542,0,0,1,8.1,197.112c.08-.755.006-1.526.018-2.289a1.642,1.642,0,0,1,.792-1.463c.663-.41,1.335-.807,1.994-1.223a.652.652,0,0,1,.779,0c.669.43,1.361.827,2.021,1.27a1.628,1.628,0,0,1,.732,1.443c-.008,1.1-.012,2.191,0,3.287a1.15,1.15,0,0,1-.381.927c-1.5,1.391-1.193.925-1.215,2.96-.018,1.594-.012,3.188,0,4.782,0,.316-.07.434-.408.423-.78-.025-1.561-.021-2.341,0-.3.008-.4-.074-.394-.387.02-1.029.007-2.059.007-3.088" transform="translate(-4.848 -115.223)" fill="#4fa86f"/>
        <path id="Trazado_818651" data-name="Trazado 818651" d="M12.165,173.433a2.746,2.746,0,0,1,.09-.933,1.622,1.622,0,0,1,1.324-1.057,1.528,1.528,0,0,1,1.511.925c.42,1.219.4,2.567-1.139,3.24a.491.491,0,0,1-.5.007,2.071,2.071,0,0,1-1.288-2.183" transform="translate(-7.3 -102.881)" fill="#4fa86f"/>
        <path id="Trazado_818652" data-name="Trazado 818652" d="M221.745,196.491c0,.547-.018,1.1.006,1.641a1.162,1.162,0,0,1-.412.963c-1.46,1.35-1.163.921-1.184,2.869q-.026,2.413,0,4.826c0,.352-.1.451-.444.439-.762-.026-1.526-.024-2.289,0-.33.01-.415-.095-.413-.418.014-1.957-.006-3.913.016-5.87a1.413,1.413,0,0,0-.553-1.263,2.493,2.493,0,0,1-1.067-2.53,22.456,22.456,0,0,0,.017-2.287,1.666,1.666,0,0,1,.8-1.507c.662-.41,1.334-.8,1.992-1.221a.65.65,0,0,1,.778,0c.669.429,1.36.825,2.019,1.269a1.612,1.612,0,0,1,.731,1.441c-.01.547,0,1.095,0,1.642" transform="translate(-129.252 -115.222)" fill="#4fa86f"/>
        <path id="Trazado_818653" data-name="Trazado 818653" d="M222.458,173.565a1.934,1.934,0,0,1-1.378,2.086c-.1.045-.189.122-.319.049a2.585,2.585,0,0,1-1.211-.98,2.738,2.738,0,0,1,.045-2.59,1.55,1.55,0,0,1,2.549.038,2.229,2.229,0,0,1,.314,1.4" transform="translate(-131.569 -102.904)" fill="#4fa86f"/>
        <path id="Trazado_818654" data-name="Trazado 818654" d="M9.712,39.547c0-.681-.023-1.362.007-2.042a1.329,1.329,0,0,0-.534-1.222A2.545,2.545,0,0,1,8.1,33.7c.081-.755.008-1.526.018-2.289a1.643,1.643,0,0,1,.789-1.465c.662-.411,1.333-.808,1.993-1.223a.652.652,0,0,1,.779-.005c.669.431,1.361.827,2.021,1.27a1.623,1.623,0,0,1,.736,1.44c-.009,1.079-.02,2.159.006,3.237a1.118,1.118,0,0,1-.458,1.042,2.7,2.7,0,0,0-1.162,2.749c.082,1.107.007,2.223.024,3.336.005.312-.062.438-.405.427-.78-.026-1.561-.02-2.341,0-.3.007-.408-.064-.4-.384.024-.763.008-1.527.008-2.291" transform="translate(-4.847 -17.16)" fill="#4fa86f"/>
        <path id="Trazado_818655" data-name="Trazado 818655" d="M12.125,10.153a3.6,3.6,0,0,1,.085-1.029,1.612,1.612,0,0,1,1.35-1.093,1.521,1.521,0,0,1,1.519.991c.428,1.32.23,2.483-.992,3.137a.686.686,0,0,1-.74-.011,1.961,1.961,0,0,1-1.223-2" transform="translate(-7.265 -4.819)" fill="#4fa86f"/>
        <path id="Trazado_818656" data-name="Trazado 818656" d="M217.019,39.56c0-.681-.022-1.362.007-2.042a1.333,1.333,0,0,0-.53-1.224,2.542,2.542,0,0,1-1.087-2.578,20.8,20.8,0,0,0,.016-2.239A1.713,1.713,0,0,1,216.3,29.9c.626-.374,1.25-.753,1.866-1.144a.715.715,0,0,1,.868-.01c.651.428,1.331.812,1.977,1.247a1.625,1.625,0,0,1,.74,1.439c-.008,1.079-.02,2.159.006,3.237a1.115,1.115,0,0,1-.455,1.043,2.734,2.734,0,0,0-1.165,2.8c.082,1.089.008,2.19.023,3.286,0,.3-.048.444-.4.432q-1.17-.04-2.341,0c-.349.012-.409-.124-.4-.43.019-.747.006-1.494.006-2.241" transform="translate(-129.25 -17.167)" fill="#4fa86f"/>
        <path id="Trazado_818657" data-name="Trazado 818657" d="M219.442,10.143a3.22,3.22,0,0,1,.092-1.053,1.62,1.62,0,0,1,1.326-1.058,1.539,1.539,0,0,1,1.513.93,2.406,2.406,0,0,1-.96,3.191.691.691,0,0,1-.74,0,1.968,1.968,0,0,1-1.231-2.014" transform="translate(-131.674 -4.819)" fill="#4fa86f"/>
        <path id="Trazado_818658" data-name="Trazado 818658" d="M9.712,119.262c0-.681-.022-1.362.007-2.042A1.331,1.331,0,0,0,9.187,116,2.545,2.545,0,0,1,8.1,113.418c.082-.755.008-1.526.018-2.289a1.641,1.641,0,0,1,.787-1.466c.663-.411,1.334-.808,1.994-1.223a.651.651,0,0,1,.779-.007c.669.431,1.361.827,2.021,1.27a1.625,1.625,0,0,1,.737,1.44c-.009,1.112-.012,2.225,0,3.337a1.1,1.1,0,0,1-.376.879c-1.506,1.4-1.19.917-1.22,3.009q-.023,1.569,0,3.138c0,.306-.053.442-.4.43-.779-.027-1.561-.027-2.341,0-.353.012-.406-.13-.4-.433.018-.747.006-1.494.006-2.241" transform="translate(-4.847 -64.994)" fill="#dbf9bd"/>
        <path id="Trazado_818659" data-name="Trazado 818659" d="M15.258,89.884a1.968,1.968,0,0,1-1.132,1.967.692.692,0,0,1-.782.01c-1.273-.735-1.374-1.471-1.128-2.975a1.449,1.449,0,0,1,1.5-1.134,1.661,1.661,0,0,1,1.541,1.609c.014.148,0,.3,0,.523" transform="translate(-7.267 -52.656)" fill="#dbf9bd"/>
        <path id="Trazado_818660" data-name="Trazado 818660" d="M217.023,119.264c0-.681-.022-1.362.007-2.042a1.328,1.328,0,0,0-.524-1.226,2.591,2.591,0,0,1-1.092-2.626c.077-.739.008-1.492.017-2.239a1.64,1.64,0,0,1,.779-1.47c.676-.42,1.361-.827,2.038-1.245a.582.582,0,0,1,.689-.02c.671.428,1.362.824,2.027,1.261a1.68,1.68,0,0,1,.786,1.517c-.014,1.079-.016,2.158,0,3.237a1.193,1.193,0,0,1-.4.968c-1.474,1.357-1.166.941-1.194,2.87q-.023,1.643,0,3.287c.005.308-.084.4-.392.39-.8-.02-1.594-.018-2.391,0-.289.006-.366-.092-.36-.37.017-.763.006-1.527.006-2.291" transform="translate(-129.254 -64.985)" fill="#dbf9bd"/>
        <path id="Trazado_818661" data-name="Trazado 818661" d="M219.434,89.859a3.529,3.529,0,0,1,.085-1.025,1.611,1.611,0,0,1,1.354-1.089,1.528,1.528,0,0,1,1.517,1,2.376,2.376,0,0,1-.954,3.11.721.721,0,0,1-.783.011,1.965,1.965,0,0,1-1.219-2" transform="translate(-131.67 -52.654)" fill="#dbf9bd"/>
        <path id="Trazado_818662" data-name="Trazado 818662" d="M115.819,10.01a2.574,2.574,0,0,1,.086-.886A1.517,1.517,0,0,1,118.6,8.7a2.442,2.442,0,0,1-.846,3.474.635.635,0,0,1-.693,0,2.025,2.025,0,0,1-1.24-2.167" transform="translate(-69.502 -4.835)" fill="#4fa86f"/>
        <path id="Trazado_818663" data-name="Trazado 818663" d="M170.774,10.168a1.957,1.957,0,0,1-1.243,2.016.558.558,0,0,1-.423.087,2.123,2.123,0,0,1-1.463-1.883c0-.2,0-.4,0-.6A1.6,1.6,0,0,1,169.1,8.034a1.684,1.684,0,0,1,1.676,1.732c0,.1,0,.2,0,.4" transform="translate(-100.601 -4.821)" fill="#dbf9bd"/>
        <path id="Trazado_818664" data-name="Trazado 818664" d="M67.046,10.2a1.974,1.974,0,0,1-1.269,2.03.456.456,0,0,1-.471.038,2.581,2.581,0,0,1-1.127-.944,2.74,2.74,0,0,1-.046-2.44A1.349,1.349,0,0,1,65.7,8.111a1.613,1.613,0,0,1,1.346,1.564c.014.148,0,.3,0,.521" transform="translate(-38.328 -4.847)" fill="#dbf9bd"/>
        <path id="Trazado_818665" data-name="Trazado 818665" d="M102.972,101.082c0-1.843-.01-3.686.008-5.528a1.16,1.16,0,0,0-.38-.921c-.763-.739-1.5-1.506-2.265-2.243a1.669,1.669,0,0,1-.562-1.314c.025-2.357.015-4.715.01-7.072a4.982,4.982,0,0,1,3.059-4.848c.434-.207.863-.423,1.3-.634.25-.121.312-.249.09-.483a4.747,4.747,0,0,1-1.257-3.509,15.974,15.974,0,0,1,.13-3.173,4.85,4.85,0,0,1,5.935-3.472,4.343,4.343,0,0,1,3.344,3.625,9.938,9.938,0,0,1-.231,5.2,3.373,3.373,0,0,1-.787,1.255c-.324.308-.208.436.122.594.567.271,1.135.546,1.68.86a4.563,4.563,0,0,1,2.482,3.917c.155,2.652.018,5.3.085,7.951a1.219,1.219,0,0,1-.505,1.008c-.707.626-1.3,1.391-2.042,1.966a1.758,1.758,0,0,0-.653,1.627c.018,3.553,0,7.106.02,10.658,0,.494-.156.609-.624.606q-4.234-.029-8.469,0c-.39,0-.5-.1-.493-.491.022-1.859.01-3.718.01-5.578" transform="translate(-59.873 -40.616)" fill="#060607"/>
        <path id="Trazado_818666" data-name="Trazado 818666" d="M154.492,106.362h-3.537c-.468,0-.938-.022-1.4.008-.342.022-.405-.14-.4-.423q.021-4.9.038-9.806a.678.678,0,0,0-.217-.533,1.3,1.3,0,0,0-.14-.141,3.09,3.09,0,0,1-1.266-3.048c.1-2,.051-4.017.017-6.025a5.3,5.3,0,0,1,1.235-3.7,4.264,4.264,0,0,1,1.393-1.062c.684-.331.681-.461.2-1.011a4.584,4.584,0,0,1-1.211-2.848,7.51,7.51,0,0,1,.322-3,4.813,4.813,0,0,1,5.136-3.01,4.538,4.538,0,0,1,3.906,3.589,5.814,5.814,0,0,1-.586,4.667,3.838,3.838,0,0,1-.695.841c-.242.21-.228.352.057.517a7.1,7.1,0,0,1,1.752,1.3,4.9,4.9,0,0,1,1.25,3.374c.023,2.557,0,5.113.015,7.67a1.232,1.232,0,0,1-.543,1.062,2.688,2.688,0,0,0-1.085,2.563c.078,2.82.013,5.644.039,8.466,0,.478-.149.569-.583.559-1.229-.027-2.457-.01-3.686-.01" transform="translate(-88.546 -43.024)" fill="#060607"/>
        <path id="Trazado_818667" data-name="Trazado 818667" d="M61.515,101.051c0-1.576-.01-3.153.007-4.73a1.121,1.121,0,0,0-.353-.88c-1.513-1.507-1.228-.874-1.245-3.056-.016-2.074,0-4.149,0-6.223a4.949,4.949,0,0,1,2.653-4.573l.214-.127c.54-.321.533-.314.1-.755a4.64,4.64,0,0,1-1.368-3.2,7.507,7.507,0,0,1,.134-2.225A4.822,4.822,0,0,1,62.832,73.2a4.514,4.514,0,0,1,4.69-1.355A4.417,4.417,0,0,1,70.9,75.336a5.951,5.951,0,0,1-.587,4.649,3.376,3.376,0,0,1-.656.807c-.319.261-.254.424.078.611A6.35,6.35,0,0,1,71.5,82.756a4.938,4.938,0,0,1,1.164,3.306c.021,2.539,0,5.078.015,7.617a1.276,1.276,0,0,1-.564,1.1,2.6,2.6,0,0,0-1.065,2.47c.076,2.853.019,5.708.035,8.562,0,.391-.064.54-.5.536q-4.308-.032-8.615,0c-.375,0-.471-.1-.466-.467.022-1.61.009-3.22.009-4.829" transform="translate(-35.954 -43.001)" fill="#060607"/>
      </g>
    </g>
  </g>
</svg>
