<svg id="Grupo_1072514" data-name="Grupo 1072514" xmlns="http://www.w3.org/2000/svg" xmlns:xlink="http://www.w3.org/1999/xlink" width="176.666" height="132.28" viewBox="0 0 176.666 132.28">
  <defs>
    <clipPath id="clip-path">
      <path id="Trazado_817750" data-name="Trazado 817750" d="M278.422,279.413c-.6,3.569-2.292,4.385-1.924,7.362s2.079,5.777-2.694,6.441-3.037,3.89-1.974,6.241,1.334,11.627,1.652,13.239,1.653,2.669,3.6,1.583a7.043,7.043,0,0,0,3.623-3.945c.8-2.7,1.313-6.426,3.5-7.385s6.785-3.517,6.92-6.72-6.786-7-5.192-7.8,4.468-2.922,1.641-4.655-4.33-2.038-5.078-4.384a2.917,2.917,0,0,0-2.341-2.229c-.761,0-1.467.639-1.738,2.251" transform="translate(-270.627 -277.162)" fill="none"/>
    </clipPath>
    <linearGradient id="linear-gradient" x1="-0.983" y1="2.192" x2="-0.979" y2="2.192" gradientUnits="objectBoundingBox">
      <stop offset="0" stop-color="#3076a1"/>
      <stop offset="1" stop-color="#639c38"/>
    </linearGradient>
    <clipPath id="clip-path-2">
      <path id="Trazado_817751" data-name="Trazado 817751" d="M301.242,365.373a7.824,7.824,0,0,1-3.561.178c-1.73-.193-3.251-.387-4.294,1.447-1.721,3.025-7.475,5.612-9.39,5.092s-3.459-.788-3.928,2.083-2.4,4.631-2.914,6.415-1.186,3.076,3.65,3.352c0,0,6.482-2.447,8.5-2.007s5.768,1.507,7.247-.183,2.673-7.389,7.421-6.752,6.5-.5,6.225-3.333,7.419-7.135,6.032-8.7a2.654,2.654,0,0,0-1.867-.454c-3.521,0-10.646,1.991-13.121,2.857" transform="translate(-276.8 -362.516)" fill="none"/>
    </clipPath>
    <linearGradient id="linear-gradient-2" x1="-1.736" y1="1.535" x2="-1.73" y2="1.535" xlink:href="#linear-gradient"/>
    <clipPath id="clip-path-3">
      <path id="Trazado_817752" data-name="Trazado 817752" d="M235.189,298c-.471,2.2.634,5.116-3.517,7.677s2.194,5.586,3.751,8.66,1.281,6.448,2.576,9.113.992,7.846,3.236,6.664,1.518-4,2.812-7.1,5.616-3.82,2.716-7.13-6.318-5.217-3.506-9.386c1.241-1.84-3.621-2.673-4.337-8.133a2.155,2.155,0,0,0-2.138-1.7A1.553,1.553,0,0,0,235.189,298" transform="translate(-230.285 -296.663)" fill="none"/>
    </clipPath>
    <linearGradient id="linear-gradient-3" x1="-0.875" y1="2.192" x2="-0.869" y2="2.192" xlink:href="#linear-gradient"/>
    <clipPath id="clip-path-4">
      <path id="Trazado_817754" data-name="Trazado 817754" d="M299.578,304.047c-3.154,2.514-6.45,5.027-8.912,4.736-5.386-.635-2.678,10.263-9.529,11s-4.685.874-3.54,5.382-1.1,6.6-1.1,6.6c4.228,4.9,6.314,2.472,9.4.042a10.732,10.732,0,0,1,7.1-2.8c8.478.147,1.823-11.511,8.188-11.707s6.948-3,4.98-6.065,5.564-8.3,2.413-11.458a1.7,1.7,0,0,0-1.256-.5c-1.9,0-4.764,2.38-7.751,4.76" transform="translate(-276.345 -299.287)" fill="none"/>
    </clipPath>
    <linearGradient id="linear-gradient-4" x1="-1.061" y1="1.501" x2="-1.057" y2="1.501" xlink:href="#linear-gradient"/>
    <clipPath id="clip-path-5">
      <path id="Trazado_817755" data-name="Trazado 817755" d="M212.676,371.584c-.6,3.569-2.292,4.385-1.924,7.362s2.079,5.777-2.694,6.441-3.037,3.89-1.974,6.241,1.334,11.627,1.652,13.239,1.653,2.668,3.6,1.583a7.042,7.042,0,0,0,3.624-3.945c.8-2.7,1.313-6.425,3.5-7.384s6.785-3.518,6.92-6.721-6.786-7-5.192-7.8,4.468-2.922,1.64-4.655-4.33-2.038-5.078-4.384a2.916,2.916,0,0,0-2.341-2.229c-.761,0-1.467.639-1.738,2.251" transform="translate(-204.881 -369.333)" fill="none"/>
    </clipPath>
    <linearGradient id="linear-gradient-5" x1="-0.676" y1="1.637" x2="-0.672" y2="1.637" xlink:href="#linear-gradient"/>
    <clipPath id="clip-path-6">
      <path id="Trazado_817756" data-name="Trazado 817756" d="M235.5,457.543a7.82,7.82,0,0,1-3.561.178c-1.73-.193-3.251-.387-4.295,1.448-1.721,3.025-7.475,5.611-9.39,5.092s-3.459-.788-3.928,2.083-2.4,4.631-2.914,6.416-1.186,3.075,3.65,3.351c0,0,6.482-2.447,8.5-2.007s5.768,1.507,7.247-.183,2.673-7.389,7.421-6.752,6.5-.5,6.225-3.334,7.419-7.135,6.032-8.7a2.655,2.655,0,0,0-1.866-.454c-3.521,0-10.646,1.99-13.122,2.857" transform="translate(-211.053 -454.686)" fill="none"/>
    </clipPath>
    <linearGradient id="linear-gradient-6" x1="-1.344" y1="1.133" x2="-1.338" y2="1.133" xlink:href="#linear-gradient"/>
    <clipPath id="clip-path-7">
      <path id="Trazado_817757" data-name="Trazado 817757" d="M169.443,390.165c-.471,2.2.634,5.116-3.518,7.677s2.194,5.586,3.751,8.66,1.281,6.449,2.576,9.114.992,7.846,3.236,6.664,1.518-4,2.812-7.1,5.616-3.82,2.715-7.131-6.318-5.216-3.506-9.386c1.241-1.84-3.621-2.673-4.337-8.133a2.154,2.154,0,0,0-2.138-1.7,1.553,1.553,0,0,0-1.591,1.332" transform="translate(-164.539 -388.833)" fill="none"/>
    </clipPath>
    <linearGradient id="linear-gradient-7" x1="-0.541" y1="1.615" x2="-0.536" y2="1.615" xlink:href="#linear-gradient"/>
    <clipPath id="clip-path-8">
      <path id="Trazado_817759" data-name="Trazado 817759" d="M233.832,396.217c-3.154,2.514-6.45,5.027-8.912,4.736-5.386-.635-2.678,10.263-9.529,11s-4.685.874-3.54,5.382-1.1,6.6-1.1,6.6c4.228,4.9,6.314,2.472,9.4.042a10.736,10.736,0,0,1,7.1-2.8c8.478.147,1.822-11.511,8.187-11.708s6.948-3,4.98-6.064,5.565-8.3,2.413-11.458a1.7,1.7,0,0,0-1.256-.5c-1.9,0-4.764,2.38-7.75,4.759" transform="translate(-210.599 -391.458)" fill="none"/>
    </clipPath>
    <linearGradient id="linear-gradient-8" x1="-0.775" y1="1.147" x2="-0.77" y2="1.147" xlink:href="#linear-gradient"/>
    <clipPath id="clip-path-9">
      <rect id="Rectángulo_376849" data-name="Rectángulo 376849" width="176.666" height="132.28" fill="none"/>
    </clipPath>
    <clipPath id="clip-path-10">
      <path id="Trazado_817761" data-name="Trazado 817761" d="M88.288,418.71c-31.734,1.97-74.506,9.013-82.451,13.085C1.775,433.877.028,436.266,0,438.631v.116c.085,6.956,14.969,13.65,29.5,11.586,12.412-1.761,36.82-.413,56.642,3.375h0c6.633-2.1,4.215-8.893-5.939-15.985S84,430.6,90.509,424.7c6.391-5.795-1.909-5.988-2.214-5.993Z" transform="translate(0 -418.71)" fill="none"/>
    </clipPath>
    <linearGradient id="linear-gradient-9" x1="0.028" y1="1.016" x2="0.029" y2="1.016" xlink:href="#linear-gradient"/>
  </defs>
  <g id="Grupo_1072493" data-name="Grupo 1072493" transform="translate(54.885 56.21)">
    <g id="Grupo_1072492" data-name="Grupo 1072492" clip-path="url(#clip-path)">
      <rect id="Rectángulo_376843" data-name="Rectángulo 376843" width="43.421" height="33.668" transform="translate(-13.572 33.983) rotate(-70.587)" fill="url(#linear-gradient)"/>
    </g>
  </g>
  <g id="Grupo_1072495" data-name="Grupo 1072495" transform="translate(56.136 73.52)">
    <g id="Grupo_1072494" data-name="Grupo 1072494" clip-path="url(#clip-path-2)">
      <rect id="Rectángulo_376844" data-name="Rectángulo 376844" width="34.05" height="46.402" transform="matrix(0.332, -0.943, 0.943, 0.332, -7.547, 19.058)" fill="url(#linear-gradient-2)"/>
    </g>
  </g>
  <g id="Grupo_1072497" data-name="Grupo 1072497" transform="translate(46.703 60.165)">
    <g id="Grupo_1072496" data-name="Grupo 1072496" clip-path="url(#clip-path-3)">
      <rect id="Rectángulo_376845" data-name="Rectángulo 376845" width="40.019" height="32.392" transform="translate(-13.62 30.803) rotate(-70.587)" fill="url(#linear-gradient-3)"/>
    </g>
  </g>
  <g id="Grupo_1072499" data-name="Grupo 1072499" transform="translate(56.044 60.697)">
    <g id="Grupo_1072498" data-name="Grupo 1072498" clip-path="url(#clip-path-4)">
      <path id="Trazado_817753" data-name="Trazado 817753" d="M243.682,305.41l5.53-44.132,41.049,8.673-5.53,44.132Z" transform="translate(-250.306 -268.986)" fill="url(#linear-gradient-4)"/>
    </g>
  </g>
  <g id="Grupo_1072501" data-name="Grupo 1072501" transform="translate(41.551 74.903)">
    <g id="Grupo_1072500" data-name="Grupo 1072500" clip-path="url(#clip-path-5)">
      <rect id="Rectángulo_376846" data-name="Rectángulo 376846" width="43.421" height="33.668" transform="translate(-13.572 33.982) rotate(-70.587)" fill="url(#linear-gradient-5)"/>
    </g>
  </g>
  <g id="Grupo_1072503" data-name="Grupo 1072503" transform="translate(42.803 92.213)">
    <g id="Grupo_1072502" data-name="Grupo 1072502" clip-path="url(#clip-path-6)">
      <rect id="Rectángulo_376847" data-name="Rectángulo 376847" width="34.05" height="46.402" transform="translate(-7.547 19.058) rotate(-70.587)" fill="url(#linear-gradient-6)"/>
    </g>
  </g>
  <g id="Grupo_1072505" data-name="Grupo 1072505" transform="translate(33.369 78.857)">
    <g id="Grupo_1072504" data-name="Grupo 1072504" clip-path="url(#clip-path-7)">
      <rect id="Rectángulo_376848" data-name="Rectángulo 376848" width="40.019" height="32.392" transform="matrix(0.332, -0.943, 0.943, 0.332, -13.62, 30.803)" fill="url(#linear-gradient-7)"/>
    </g>
  </g>
  <g id="Grupo_1072507" data-name="Grupo 1072507" transform="translate(42.711 79.39)">
    <g id="Grupo_1072506" data-name="Grupo 1072506" clip-path="url(#clip-path-8)">
      <path id="Trazado_817758" data-name="Trazado 817758" d="M177.937,397.581l5.53-44.132,41.049,8.673-5.53,44.132Z" transform="translate(-184.561 -361.157)" fill="url(#linear-gradient-8)"/>
    </g>
  </g>
  <g id="Grupo_1072509" data-name="Grupo 1072509">
    <g id="Grupo_1072508" data-name="Grupo 1072508" clip-path="url(#clip-path-9)">
      <path id="Trazado_817760" data-name="Trazado 817760" d="M112.653,460.474c-5.217-3.663-15.106-6.648-26.509-8.826-19.823-3.788-44.23-5.135-56.643-3.375-19.553,2.776-39.742-10.3-23.665-18.539,7.945-4.073,50.717-11.115,82.451-13.085H88.3c17.049-1.056,30.911-.653,34.475,2.464,14.3,12.494,22.013,5.655,48.122,22.106s-43.962,29.286-58.239,19.254" transform="translate(0 -331.733)" fill="#665757"/>
    </g>
  </g>
  <g id="Grupo_1072511" data-name="Grupo 1072511" transform="translate(0 84.916)">
    <g id="Grupo_1072510" data-name="Grupo 1072510" clip-path="url(#clip-path-10)">
      <rect id="Rectángulo_376850" data-name="Rectángulo 376850" width="102.542" height="57.843" transform="translate(-8.375 2.134) rotate(-14.296)" fill="url(#linear-gradient-9)"/>
    </g>
  </g>
  <g id="Grupo_1072513" data-name="Grupo 1072513">
    <g id="Grupo_1072512" data-name="Grupo 1072512" clip-path="url(#clip-path-9)">
      <path id="Trazado_817762" data-name="Trazado 817762" d="M476.547,376.994c.676.128,3.284.4,4.488-2.82a1.734,1.734,0,0,1-1.791.3,2.287,2.287,0,0,0-2.491,1.123,34.552,34.552,0,0,0-.27-5.308c-.012-.283-.013-.539-.008-.776.463-.085,3.279-.75,3.1-4.383a1.734,1.734,0,0,1-1.526.985,2.345,2.345,0,0,0-1.872,2.4,4.353,4.353,0,0,0-.263,1.543,19.891,19.891,0,0,0,.361,2.849,3.854,3.854,0,0,0-.5-.8c-1.167-1.436-2.44-1.611-2.68-1.98a2.525,2.525,0,0,0,1.367,2.738,5.67,5.67,0,0,1,1.905,1.71,7.075,7.075,0,0,1-.493,2.345,7.932,7.932,0,0,0,.427,5.874l.992-.613a5.685,5.685,0,0,1-.818-4.84c.027-.122.04-.229.064-.347" transform="translate(-377.116 -291.081)" fill="#add14d"/>
      <path id="Trazado_817763" data-name="Trazado 817763" d="M450.634,445.028s7.44-8.285,16.417-.028Z" transform="translate(-359.243 -351.832)" fill="#877373"/>
      <path id="Trazado_817764" data-name="Trazado 817764" d="M515.375,420.091c.676.128,3.284.395,4.488-2.82a1.734,1.734,0,0,1-1.791.3,2.287,2.287,0,0,0-2.491,1.122,34.583,34.583,0,0,0-.27-5.308c-.012-.283-.013-.539-.008-.776.463-.085,3.279-.75,3.1-4.383a1.734,1.734,0,0,1-1.526.986,2.344,2.344,0,0,0-1.872,2.4,4.346,4.346,0,0,0-.263,1.543,19.894,19.894,0,0,0,.361,2.849,3.851,3.851,0,0,0-.5-.8c-1.167-1.436-2.439-1.611-2.679-1.98a2.525,2.525,0,0,0,1.367,2.738,5.673,5.673,0,0,1,1.905,1.71,7.074,7.074,0,0,1-.494,2.345,7.933,7.933,0,0,0,.427,5.874l.992-.613a5.685,5.685,0,0,1-.818-4.84c.027-.123.041-.229.064-.347" transform="translate(-408.07 -325.438)" fill="#add14d"/>
      <path id="Trazado_817765" data-name="Trazado 817765" d="M487.649,485.905s7.44-8.285,16.417-.028Z" transform="translate(-388.751 -384.419)" fill="#877373"/>
      <path id="Trazado_817766" data-name="Trazado 817766" d="M547.333,474.04c.676.128,3.284.395,4.488-2.82a1.733,1.733,0,0,1-1.791.3,2.287,2.287,0,0,0-2.491,1.122,34.565,34.565,0,0,0-.27-5.308c-.012-.283-.013-.539-.008-.776.463-.085,3.279-.75,3.1-4.383a1.734,1.734,0,0,1-1.526.985,2.345,2.345,0,0,0-1.872,2.4,4.353,4.353,0,0,0-.263,1.543,19.881,19.881,0,0,0,.361,2.849,3.858,3.858,0,0,0-.5-.8c-1.167-1.435-2.439-1.611-2.679-1.98a2.525,2.525,0,0,0,1.367,2.738,5.674,5.674,0,0,1,1.905,1.711,7.08,7.08,0,0,1-.494,2.345,7.932,7.932,0,0,0,.427,5.874l.992-.613a5.686,5.686,0,0,1-.818-4.84c.027-.123.041-.229.064-.347" transform="translate(-433.547 -368.446)" fill="#add14d"/>
      <path id="Trazado_817767" data-name="Trazado 817767" d="M521.42,542.076s7.44-8.285,16.417-.028Z" transform="translate(-415.673 -429.199)" fill="#877373"/>
      <path id="Trazado_817768" data-name="Trazado 817768" d="M586.161,517.139c.675.129,3.284.4,4.488-2.82a1.733,1.733,0,0,1-1.791.3,2.287,2.287,0,0,0-2.491,1.122,34.57,34.57,0,0,0-.27-5.308c-.012-.282-.013-.539-.008-.776.463-.085,3.279-.75,3.1-4.383a1.734,1.734,0,0,1-1.526.985,2.345,2.345,0,0,0-1.872,2.4,4.353,4.353,0,0,0-.263,1.543,19.881,19.881,0,0,0,.361,2.849,3.835,3.835,0,0,0-.5-.8c-1.166-1.436-2.439-1.611-2.679-1.98a2.525,2.525,0,0,0,1.367,2.739,5.678,5.678,0,0,1,1.905,1.71,7.079,7.079,0,0,1-.494,2.346,7.932,7.932,0,0,0,.427,5.874l.992-.613a5.685,5.685,0,0,1-.818-4.84c.027-.123.041-.229.064-.347" transform="translate(-464.5 -402.804)" fill="#add14d"/>
      <path id="Trazado_817769" data-name="Trazado 817769" d="M558.436,582.953s7.44-8.285,16.417-.028Z" transform="translate(-445.182 -461.785)" fill="#877373"/>
      <path id="Trazado_817770" data-name="Trazado 817770" d="M645.329,439.3c.676.128,3.284.4,4.488-2.82a1.734,1.734,0,0,1-1.791.3,2.287,2.287,0,0,0-2.491,1.122,34.576,34.576,0,0,0-.27-5.308c-.012-.283-.013-.539-.008-.776.463-.085,3.279-.75,3.1-4.383a1.735,1.735,0,0,1-1.526.986,2.344,2.344,0,0,0-1.872,2.4,4.354,4.354,0,0,0-.263,1.543,19.846,19.846,0,0,0,.361,2.849,3.847,3.847,0,0,0-.5-.8c-1.166-1.436-2.439-1.611-2.679-1.98a2.525,2.525,0,0,0,1.367,2.739,5.671,5.671,0,0,1,1.905,1.71,7.08,7.08,0,0,1-.493,2.345,7.931,7.931,0,0,0,.427,5.874l.992-.613a5.685,5.685,0,0,1-.818-4.84c.027-.123.041-.229.064-.347" transform="translate(-511.668 -340.755)" fill="#add14d"/>
      <path id="Trazado_817771" data-name="Trazado 817771" d="M619.416,507.34s7.44-8.285,16.417-.028Z" transform="translate(-493.795 -401.507)" fill="#877373"/>
      <path id="Trazado_817772" data-name="Trazado 817772" d="M684.157,482.4c.675.129,3.284.4,4.488-2.82a1.733,1.733,0,0,1-1.791.3,2.287,2.287,0,0,0-2.491,1.122,34.56,34.56,0,0,0-.27-5.308c-.012-.283-.013-.539-.008-.776.463-.085,3.279-.75,3.1-4.383a1.735,1.735,0,0,1-1.526.986,2.344,2.344,0,0,0-1.871,2.4,4.353,4.353,0,0,0-.263,1.543,19.842,19.842,0,0,0,.361,2.849,3.846,3.846,0,0,0-.5-.8c-1.166-1.435-2.439-1.611-2.679-1.98a2.525,2.525,0,0,0,1.367,2.738,5.675,5.675,0,0,1,1.905,1.71,7.077,7.077,0,0,1-.494,2.345,7.933,7.933,0,0,0,.427,5.874l.992-.613a5.685,5.685,0,0,1-.818-4.84c.027-.123.04-.229.064-.347" transform="translate(-542.622 -375.113)" fill="#add14d"/>
      <path id="Trazado_817773" data-name="Trazado 817773" d="M656.432,548.217s7.44-8.285,16.417-.028Z" transform="translate(-523.304 -434.094)" fill="#877373"/>
      <path id="Trazado_817774" data-name="Trazado 817774" d="M347.536,211.516s1.879-.783,2.17-.894a4.9,4.9,0,0,1,2.088.4,5.688,5.688,0,0,1,2.144,1.321.872.872,0,0,1,.023.73,1.68,1.68,0,0,1-.5.69,1.023,1.023,0,0,1-.4.9.835.835,0,0,1-.5.845.8.8,0,0,1-.466.687,6.753,6.753,0,0,0-1.183-.177,14.2,14.2,0,0,1-3.658-1.27s-1.785-.771.286-3.23" transform="translate(-276.256 -167.882)" fill="#eea886"/>
      <path id="Trazado_817775" data-name="Trazado 817775" d="M360.226,221.069a5,5,0,0,1-1.019.835c-.3.1.792,2.132.792,2.132s1.093-2.074.227-2.966" transform="translate(-286.315 -176.235)" fill="#cf8c6c"/>
      <path id="Trazado_817776" data-name="Trazado 817776" d="M342.947,215.088a5.723,5.723,0,0,0,1.464-.064c.582-.14-.635,2.667-.635,2.667a5.635,5.635,0,0,0-1.952-1.343c-.838-.194,1.123-1.26,1.123-1.26" transform="translate(-272.334 -171.412)" fill="#eea886"/>
      <path id="Trazado_817777" data-name="Trazado 817777" d="M272.2,516.381a8.3,8.3,0,0,0,3.423,2.286c1.723.394,2.929.9,2.944,1.985s-4.954,1.812-6.928.719c-2.945-1.631-3.243-1.137-3.571-1.954s.345-3,.365-3.265c.024-.321,3.766.229,3.766.229" transform="translate(-213.634 -411.394)" fill="#244057"/>
      <path id="Trazado_817778" data-name="Trazado 817778" d="M187.855,519.748a6.087,6.087,0,0,0,2.922,2.266c1.647.417,2.715,1.214,2.8,2.27s-3.877,2.447-6.664.6c-1.831-1.216-2.513-1.146-2.883-1.92s.128-2.938.151-3.2c.027-.313,3.677-.014,3.677-.014" transform="translate(-146.597 -414.238)" fill="#244057"/>
      <path id="Trazado_817779" data-name="Trazado 817779" d="M196.389,235.309s1.748,12.495,2.483,17.147c.86,5.439,1.016,8.437,1.258,11.253.3,3.541-.363,23.688-.152,24.723s-3.346-.528-3.346-.528-3.141-22.071-4.037-25.841c-.834-3.511-3.932-18.627-4.686-17.666s-1.662,17.649-2.217,20.42-2.885,24.133-2.885,24.133-2.367.539-3.394-.328c0,0-1.321-18.125-.973-23.319.132-1.98-2.359-23.727.774-32.489,1.656-4.631,17.175,2.5,17.175,2.5" transform="translate(-141.602 -184.35)" fill="#eea886"/>
      <path id="Trazado_817780" data-name="Trazado 817780" d="M196.389,235.309s1.748,12.495,2.483,17.147c.86,5.439,1.016,8.437,1.258,11.253.3,3.541.211,17.022.218,18.079.008,1.172-5.111.576-5.111.576s-1.747-16.531-2.642-20.3c-.834-3.511-3.932-18.627-4.686-17.666s-1.662,17.649-2.217,20.42-1.772,18.736-1.772,18.736-4.443.63-5.47-.237c0,0-.358-12.82-.01-18.014.132-1.98-2.359-23.727.774-32.489,1.656-4.631,17.175,2.5,17.175,2.5" transform="translate(-141.602 -184.35)" fill="#244057"/>
      <path id="Trazado_817781" data-name="Trazado 817781" d="M270.452,510.6s2.373.9,3.323.26l.295,1.258a3.515,3.515,0,0,1-2.077.28,3.289,3.289,0,0,1-1.767-.593Z" transform="translate(-215.422 -407.05)" fill="#81807e"/>
      <path id="Trazado_817782" data-name="Trazado 817782" d="M185.519,513.015s2.727,1.008,3.449.208l.125,1.411s-.269.438-1.335.386a10.978,10.978,0,0,1-2.453-.524Z" transform="translate(-147.724 -408.973)" fill="#81807e"/>
      <path id="Trazado_817783" data-name="Trazado 817783" d="M193.283,104.668l-.444,3.7c-11.585-5.665-13.105-8.339-13.532-8.882a24.364,24.364,0,0,1-2.209-3.939c-.053-.127-.1-.249-.143-.367l-.558-1.741a.005.005,0,0,0,0,0c-.25,3.55-.147,8.947-.13,16.27l.288,3.6c-3.934,2.344-18.453,1.521-18.453,1.521l.327-8.674s.27-3.047.282-5.685c0-.3,0-.6-.007-.884,0,0-.011-.439-.059-1.11h0a18.108,18.108,0,0,0-1.09-5.509c-1-2.128-4.33-3.268-4.521-3.332l-.009,0s-.024-.145-.061-.394c0-.033-.008-.05-.008-.05a25.608,25.608,0,0,1-.321-6.027,3.765,3.765,0,0,1,2.147-2.752,59.314,59.314,0,0,1,8.14-3.632c1.134.064,4.521.376,5.61.477,0,0,6.715,2.556,8.685,4.685L183.1,95.52Z" transform="translate(-121.607 -61.201)" fill="#ffbf55"/>
      <path id="Trazado_817784" data-name="Trazado 817784" d="M208.171,52.611s-2.259,1.24-6.551-.874a27.314,27.314,0,0,0-.432-7.113c-.739-2.838,5.711,3.985,5.711,3.985-.072.047-.1.326-.074.718.007.128.02.268.038.416.023.185.054.383.094.585.01.056.021.111.034.166.206.947.6,1.932,1.18,2.116" transform="translate(-160.339 -35.024)" fill="#eea886"/>
      <path id="Trazado_817785" data-name="Trazado 817785" d="M196.417,11.621l0,0a14.974,14.974,0,0,0,1.708,2.809c2.221,2.839,7.389,2.9,7.452-4.905a12.071,12.071,0,0,0-.473-3.649c-1.064-3.463-3.55-4.035-3.55-4.035-1.837-.1-5.05.362-6.117,2.755-.758,1.7-.2,4.515.979,7.021" transform="translate(-155.526 -1.461)" fill="#eea987"/>
      <path id="Trazado_817786" data-name="Trazado 817786" d="M196.417,10.16l0,0s.265.07,1.215-1.858c.191-.387.338-.111.421-.282l1.519-.6s-1.508-2.512.458-3.213c2-.715,5.072.2,5.072.2.216-6.259-3.55-4.035-3.55-4.035-1.837-.1-5.05.362-6.117,2.755-.758,1.7-.2,4.515.979,7.021" transform="translate(-155.526 0)" fill="#665249"/>
      <path id="Trazado_817787" data-name="Trazado 817787" d="M204.692,31.657c-.114-.522-1.146-.969-1.582.153s1.031,2.309,1.417,2.062.353-1.352.165-2.215" transform="translate(-161.854 -24.802)" fill="#eea987"/>
      <path id="Trazado_817788" data-name="Trazado 817788" d="M168.115,132.881s-4.47,2.724-5.442,3.112c-.7.279-1.683-.779-2.587-3.288a3.344,3.344,0,0,0-5.516-.222s1.174,7.731,4.635,9.49c1.143.581,11.047-6.36,11.047-6.36s-1.193-1.686-2.136-2.732" transform="translate(-123.222 -104.503)" fill="#ffbf55"/>
      <path id="Trazado_817789" data-name="Trazado 817789" d="M203.024,73.7s4.115,1.707,5.288.419l.375.689,1.352,1.873s-5.786,1.591-7.226-.254Z" transform="translate(-161.682 -58.752)" fill="#ffbf55"/>
      <path id="Trazado_817790" data-name="Trazado 817790" d="M266.783,135.15c-.053-.127-.1-.249-.143-.367l-.558-1.741a.006.006,0,0,0,0,0v0s-.076-.962-.224-2.2c0,0,0,0,0,0a26.555,26.555,0,0,0-.812-4.385,8.068,8.068,0,0,1,1.1,2.587q.1.371.2.8a22.122,22.122,0,0,1,.436,5.309" transform="translate(-211.293 -100.809)" fill="#ab8039"/>
      <path id="Trazado_817791" data-name="Trazado 817791" d="M189.962,162.3a36.4,36.4,0,0,1-7.275,6.347c0-.3,0-.6-.007-.884,0,0-.011-.439-.059-1.11l.017-.007a43.72,43.72,0,0,0,5.64-3.238l1.686-1.108" transform="translate(-145.584 -129.386)" fill="#ab8039"/>
      <path id="Trazado_817792" data-name="Trazado 817792" d="M213.358,65.757c-2.907.352-4.2-2.47-4.2-2.47,1.937,2.373,4.086,1.852,4.136,1.84.023.185.023.429.063.631" transform="translate(-166.74 -50.452)" fill="#a77860"/>
      <path id="Trazado_817793" data-name="Trazado 817793" d="M227.547,125.454a2,2,0,0,1-.214.6s-.259.292-.43.51a1.912,1.912,0,0,0-.125.174,3.654,3.654,0,0,1-.66.965,24.5,24.5,0,0,1-2.391,1.494l-.922-.916-.986-.734a24.7,24.7,0,0,1,1.142-3.447,1.282,1.282,0,0,1,.094-.1,4.666,4.666,0,0,1,.807-.522c.063-.049.726-.5.956-.432a.783.783,0,0,1,.57.5,1.872,1.872,0,0,1,.849.581,1.162,1.162,0,0,1,.732.719s.564.242.579.606" transform="translate(-176.832 -98.086)" fill="#eea886"/>
      <path id="Trazado_817794" data-name="Trazado 817794" d="M366.207,217.068s-2.405-.719-2.569-.346a.638.638,0,0,0,0,.609l-1.124.153a.652.652,0,0,0,.082,1.118s-.692.421.119.908c0,0-.333.481,0,.773a8.361,8.361,0,0,0,1.9.69s.369-.064.417-.7a.829.829,0,0,0,.592-.786.939.939,0,0,0,.435-.893,1.193,1.193,0,0,0,.384-1.437s-.142-.06-.244-.09" transform="translate(-288.771 -172.685)" fill="#db9c7c"/>
      <path id="Trazado_817795" data-name="Trazado 817795" d="M358.253,210.99a8.528,8.528,0,0,1,1.638,2.141c.089.215.136.439-.03.6s-.613.131-1.179-.358a6.3,6.3,0,0,0-1.52-.862s-.434-.672,1.09-1.524" transform="translate(-284.683 -168.2)" fill="#eea886"/>
    </g>
  </g>
</svg>
