<svg id="Grupo_1072534" data-name="Grupo 1072534" xmlns="http://www.w3.org/2000/svg" xmlns:xlink="http://www.w3.org/1999/xlink" width="190" height="106.024" viewBox="0 0 190 106.024">
  <defs>
    <clipPath id="clip-path">
      <rect id="Rectángulo_376870" data-name="Rectángulo 376870" width="190" height="106.024" fill="none"/>
    </clipPath>
    <clipPath id="clip-path-2">
      <rect id="Rectángulo_376872" data-name="Rectángulo 376872" width="190" height="102.486" fill="none"/>
    </clipPath>
  </defs>
  <g id="Grupo_1072529" data-name="Grupo 1072529" transform="translate(0 0)">
    <g id="Grupo_1072528" data-name="Grupo 1072528" clip-path="url(#clip-path)">
      <path id="Trazado_817825" data-name="Trazado 817825" d="M565.348,265.507c-.739-2.532,1.54-5.434,1.54-5.434a8.271,8.271,0,0,0-4-1.944c-.777-.131-2.962-.6-2.962-.6l-1.757,0-1.757,0s-2.256.441-3.009.573A8.79,8.79,0,0,0,549.667,260s2.036,3.414,1.306,5.948c0,0,.6,4.109.959,5.655a26.2,26.2,0,0,1,0,3.947c-.019.936-.157,3.6-.343,5.892,0,0,2.11,1.251,6.627,1.351a20.218,20.218,0,0,0,6.735-1.373c-.288-2.727-.474-5.023-.588-5.91a33.6,33.6,0,0,1,.1-3.927c.1-1.123.892-6.078.892-6.078" transform="translate(-480.211 -224.992)" fill="#ffbf55"/>
      <path id="Trazado_817826" data-name="Trazado 817826" d="M601.263,233.249c-2.574.174-2.689-2.649-2.689-2.649s.182-.1.266-.567a3.536,3.536,0,0,0,.027-.913,8.547,8.547,0,0,0-.161-1.089c-.463-2.243,3.964-1.232,3.964-1.232a13.349,13.349,0,0,0,.6,3.77,2.1,2.1,0,0,1-2.008,2.68" transform="translate(-522.938 -197.942)" fill="#eea886"/>
      <path id="Trazado_817827" data-name="Trazado 817827" d="M565.348,358.142,572.5,356.8s-.456-5.019-.519-5.743a95.971,95.971,0,0,1-.553-9.869,8.575,8.575,0,0,1-1.772-3.937l-4.4-.046h-.042l-4.4.108a7.941,7.941,0,0,1-1.889,3.9c.048,3.417-.33,9.248-.382,9.871-.061.723-.872,5.556-.872,5.556l7.524,1.5v.036l.079-.018.079.018Z" transform="translate(-487.198 -294.599)" fill="#538742"/>
      <path id="Trazado_817828" data-name="Trazado 817828" d="M530.589,768.723a7.527,7.527,0,0,1-.836,1.534c-.383.436-1.851,1.216-1.857,2.507-.006,1.4,2.479,1.008,3.451.955s1.044-.8,1.452-1.6.821-.66.9-1.3a8.149,8.149,0,0,0-.317-2.071Z" transform="translate(-461.19 -671.586)" fill="#163342"/>
      <path id="Trazado_817829" data-name="Trazado 817829" d="M548.871,764.2l.076.72a4.473,4.473,0,0,0,2.757,0l-.01-.907Z" transform="translate(-479.515 -667.465)" fill="#2f6b8c"/>
      <path id="Trazado_817830" data-name="Trazado 817830" d="M643.751,768.526a7.519,7.519,0,0,0,.842,1.531c.385.434,1.855,1.209,1.866,2.5.011,1.4-2.476,1.016-3.448.967s-1.047-.8-1.458-1.59-.823-.658-.9-1.3a8.145,8.145,0,0,1,.31-2.072Z" transform="translate(-559.689 -671.414)" fill="#163342"/>
      <path id="Trazado_817831" data-name="Trazado 817831" d="M646.01,764.066l-.074.721a4.472,4.472,0,0,1-2.757,0l.007-.907Z" transform="translate(-561.906 -667.36)" fill="#2f6b8c"/>
      <path id="Trazado_817832" data-name="Trazado 817832" d="M562.267,445.029c0,1.727-1.552,18.167-1.552,18.167-.172.576-3.159.546-3.735.259s.454-17.439.345-19.18-3.2-13.911-3.7-13.852-3.1,15.087-3.5,16.412-1.48,16.555-1.48,16.555c-1.265.75-3.645.035-3.645.035s.158-17.041.329-17.5.128-1.785.179-6.1c.038-3.227,1.214-12.625,1.807-17.17.021-.162.041-.317.061-.466.116-.884.2-1.534.245-1.846.018-.135.028-.206.028-.206q.242-.112.507-.207c4.214-1.522,12.348.068,12.348.068s0,.04.014.115c.011.091.028.234.05.42.047.4.118,1,.2,1.689,0,0,0,.01,0,.015,0,.021.005.042.007.063.288,2.463.7,6.07.658,6.446-.056.576.831,14.563.834,16.289" transform="translate(-476.132 -366.286)" fill="#538742"/>
      <path id="Trazado_817833" data-name="Trazado 817833" d="M592.247,372.44l-2.054,0-2.054,0-1.912,1.918.01,5.831,3.97-.007,3.969-.007-.01-5.831Z" transform="translate(-512.15 -325.378)" fill="#406933"/>
      <path id="Trazado_817834" data-name="Trazado 817834" d="M659.57,272.061a53.762,53.762,0,0,1,.777,6.3c-.135.921-2.084,10.715-2.084,10.715l2.212,1.034s2.963-10.154,3.01-11.691a52.858,52.858,0,0,0-.862-9.127,9.661,9.661,0,0,0-2.435-5.031,7.177,7.177,0,0,0-3.281-1.468Z" transform="translate(-573.901 -229.586)" fill="#ffbf55"/>
      <path id="Trazado_817835" data-name="Trazado 817835" d="M530.189,272.2a53.8,53.8,0,0,0-.755,6.3c.139.921,2,9.988,2,9.988l-2.088,1.761s-3-10.144-3.05-11.681a52.834,52.834,0,0,1,.831-9.13,9.662,9.662,0,0,1,2.418-5.039,7.181,7.181,0,0,1,3.276-1.479Z" transform="translate(-459.787 -229.702)" fill="#ffbf55"/>
      <path id="Trazado_817836" data-name="Trazado 817836" d="M645.46,273.058s.2-5.325,2.282-8.939a1.866,1.866,0,0,0-1.185-.392,30.681,30.681,0,0,0-2.111,9.321c-.116,4.494,1.013.01,1.013.01" transform="translate(-563.007 -230.402)" fill="#538742"/>
      <path id="Trazado_817837" data-name="Trazado 817837" d="M567.366,272.964s-.208-5.893-2.194-9.024a1.218,1.218,0,0,1,1.02-.37,30.816,30.816,0,0,1,2.176,9.369c.131,4.493-1,.025-1,.025" transform="translate(-493.756 -230.245)" fill="#538742"/>
      <path id="Trazado_817838" data-name="Trazado 817838" d="M649.823,480.27a2.9,2.9,0,0,1-2.39,1.04c-1.774-.093-2.294-.875-2.175-1.221s4.313-.654,4.565.181" transform="translate(-563.708 -419.116)" fill="#eea886"/>
      <path id="Trazado_817839" data-name="Trazado 817839" d="M677.226,481.564s1.324-.442,1.1-.79-1,.181-1,.181Z" transform="translate(-591.651 -419.919)" fill="#eea886"/>
      <path id="Trazado_817840" data-name="Trazado 817840" d="M554.328,480.435a2.9,2.9,0,0,0,2.394,1.032c1.774-.1,2.291-.883,2.171-1.229s-4.315-.639-4.565.2" transform="translate(-484.283 -419.253)" fill="#eea886"/>
      <path id="Trazado_817841" data-name="Trazado 817841" d="M550.922,481.6s-1.312-.469-1.087-.819.983.21.983.21Z" transform="translate(-480.335 -419.925)" fill="#eea886"/>
      <path id="Trazado_817842" data-name="Trazado 817842" d="M657.462,394.033a2.532,2.532,0,1,1-2.536-2.527,2.532,2.532,0,0,1,2.536,2.527" transform="translate(-569.96 -342.035)" fill="#c44a4a"/>
      <path id="Trazado_817843" data-name="Trazado 817843" d="M631.327,387.049a2.532,2.532,0,1,1-2.536-2.527,2.532,2.532,0,0,1,2.536,2.527" transform="translate(-547.129 -335.933)" fill="#cf4d4d"/>
      <path id="Trazado_817844" data-name="Trazado 817844" d="M617.88,377.435a2.532,2.532,0,1,1-2.536-2.527,2.532,2.532,0,0,1,2.536,2.527" transform="translate(-535.38 -327.534)" fill="#c44a4a"/>
      <path id="Trazado_817845" data-name="Trazado 817845" d="M590.859,374.112a2.532,2.532,0,1,1-2.536-2.527,2.531,2.531,0,0,1,2.536,2.527" transform="translate(-511.774 -324.631)" fill="#d85151"/>
      <path id="Trazado_817846" data-name="Trazado 817846" d="M617.911,396.2a2.532,2.532,0,1,1-2.536-2.527,2.532,2.532,0,0,1,2.536,2.527" transform="translate(-535.408 -343.93)" fill="#d85151"/>
      <path id="Trazado_817847" data-name="Trazado 817847" d="M595.513,387.11a2.532,2.532,0,1,1-2.536-2.528,2.532,2.532,0,0,1,2.536,2.528" transform="translate(-515.84 -335.986)" fill="#c44a4a"/>
      <path id="Trazado_817848" data-name="Trazado 817848" d="M575.695,399.283a2.532,2.532,0,1,1-2.536-2.527,2.532,2.532,0,0,1,2.536,2.527" transform="translate(-498.526 -346.622)" fill="#c44a4a"/>
      <path id="Trazado_817849" data-name="Trazado 817849" d="M571.29,391.683a2.532,2.532,0,1,1-2.536-2.527,2.532,2.532,0,0,1,2.536,2.527" transform="translate(-494.678 -339.982)" fill="#d85151"/>
      <path id="Trazado_817850" data-name="Trazado 817850" d="M550.444,392.694a2.532,2.532,0,1,1-2.536-2.527,2.532,2.532,0,0,1,2.536,2.527" transform="translate(-476.465 -340.865)" fill="#c44a4a"/>
      <rect id="Rectángulo_376869" data-name="Rectángulo 376869" width="20.363" height="9.153" transform="translate(67.83 51.84) rotate(-0.097)" fill="#6b4528"/>
      <path id="Trazado_817851" data-name="Trazado 817851" d="M589.8,175.105l0,0a10.428,10.428,0,0,1-1.182,1.959c-1.539,1.982-5.7,1.95-5.2-3.4a14.208,14.208,0,0,1,.321-2.541,3.837,3.837,0,0,1,2.461-2.817c1.278-.073,3.516.24,4.264,1.9.531,1.181.152,3.142-.664,4.889" transform="translate(-509.665 -147.037)" fill="#eea987"/>
      <path id="Trazado_817852" data-name="Trazado 817852" d="M592.306,175.105l0,0s-.184.05-.85-1.29c-.134-.269-.236-.077-.294-.2l-1.059-.411s1.043-1.752-.326-2.235a7.008,7.008,0,0,0-3.53.154,3.837,3.837,0,0,1,2.461-2.817c1.278-.073,3.516.24,4.264,1.9.531,1.181.152,3.142-.664,4.889" transform="translate(-512.167 -147.037)" fill="#665249"/>
      <path id="Trazado_817853" data-name="Trazado 817853" d="M622.791,201.325c.078-.363.8-.677,1.1.1s-.712,1.61-.982,1.439-.249-.94-.12-1.541" transform="translate(-544.015 -175.553)" fill="#eea987"/>
      <path id="Trazado_817854" data-name="Trazado 817854" d="M590.348,164.887a10.434,10.434,0,0,0-7.369-1.5s.227-4.958,4.744-4.117c4.244.791,2.77,5.058,2.625,5.618" transform="translate(-509.313 -139.059)" fill="#c44a4a"/>
      <path id="Trazado_817855" data-name="Trazado 817855" d="M566.39,188.67s-5.612.614-7.773.166,2.652-1.118,2.652-1.118,1.8-.569,5.122.952" transform="translate(-487.542 -163.907)" fill="#c44a4a"/>
      <path id="Trazado_817856" data-name="Trazado 817856" d="M603.925,235.557s-.916,2.465-3.249,2.326a3.538,3.538,0,0,0,.027-.913l0,0a3.327,3.327,0,0,0,3.22-1.41" transform="translate(-524.774 -205.792)" fill="#a77860"/>
    </g>
  </g>
  <g id="Grupo_1072531" data-name="Grupo 1072531" transform="translate(0 0)">
    <g id="Grupo_1072530" data-name="Grupo 1072530" clip-path="url(#clip-path-2)">
      <rect id="Rectángulo_376871" data-name="Rectángulo 376871" width="43.661" height="59.58" transform="translate(95.773 41.734)" fill="#b8c1c9"/>
      <path id="Trazado_817857" data-name="Trazado 817857" d="M879.93,194.294l30.411,19.9H939.7l-15.23-19.9Z" transform="translate(-768.742 -169.742)" fill="#632059"/>
      <path id="Trazado_817858" data-name="Trazado 817858" d="M1118.52,194.873l15.307,19.825h-.873v38.642l-29.5,9.553V212.623Z" transform="translate(-964.024 -170.249)" fill="#d5d6da"/>
      <path id="Trazado_817859" data-name="Trazado 817859" d="M1195.2,273.03h.617a3.793,3.793,0,0,1,3.793,3.793v9.639h-8.078V276.7a3.67,3.67,0,0,1,3.67-3.67" transform="translate(-1040.971 -238.53)" fill="#b8c1c9"/>
      <path id="Trazado_817860" data-name="Trazado 817860" d="M977.093,451.645h.616a3.793,3.793,0,0,1,3.793,3.792h0v9.639h-8.078v-9.762a3.67,3.67,0,0,1,3.67-3.67h0" transform="translate(-850.421 -394.575)" fill="#d5d6da"/>
      <path id="Trazado_817861" data-name="Trazado 817861" d="M842.753,451.645h.616a3.793,3.793,0,0,1,3.793,3.793v9.639h-8.078v-9.762a3.67,3.67,0,0,1,3.67-3.67" transform="translate(-733.057 -394.575)" fill="#d5d6da"/>
      <path id="Trazado_817862" data-name="Trazado 817862" d="M732.676,215.295h47.4l15.753-21h-8.868l-38.071,0Z" transform="translate(-640.094 -169.742)" fill="#632059"/>
      <path id="Trazado_817863" data-name="Trazado 817863" d="M1247.981,485.3l6.881,14.166h20.9l-10.9-14.114Z" transform="translate(-1090.285 -423.976)" fill="#632059"/>
      <path id="Trazado_817864" data-name="Trazado 817864" d="M1305.107,485.708l10.9,14.114.059,26.515c-2.5.667-8-.628-9.922.029-4.178,1.433-3.725-11.431-3.725-11.431s-.118.023-.349.058h-6.921V499.822h-.046Z" transform="translate(-1131.451 -424.333)" fill="#d5d6da"/>
      <path id="Trazado_817865" data-name="Trazado 817865" d="M1158.063,597.4v12.332q1.893.551,3.658.985a75.563,75.563,0,0,0,10.544,1.854h3.461V597.4Z" transform="translate(-1011.729 -521.915)" fill="#b8c1c9"/>
      <path id="Trazado_817866" data-name="Trazado 817866" d="M1142.7,500.657h18.974l11.215-14.952h-5.652l-13,0Z" transform="translate(-998.308 -424.331)" fill="#632059"/>
      <path id="Trazado_817867" data-name="Trazado 817867" d="M1336.047,629.717v17.05h1.032c.328-.049.5-.082.5-.082a101.884,101.884,0,0,0,10.931.244V629.922a6.333,6.333,0,0,0-6.332-6.332,6.128,6.128,0,0,0-6.126,6.127" transform="translate(-1167.223 -544.793)" fill="#b8c1c9"/>
      <path id="Trazado_817868" data-name="Trazado 817868" d="M1362.742,540.139a2.73,2.73,0,1,1-2.73,2.73,2.73,2.73,0,0,1,2.73-2.73" transform="translate(-1188.16 -471.887)" fill="#b8c1c9"/>
      <path id="Trazado_817869" data-name="Trazado 817869" d="M1190.187,666.9c.009-2.078,3.151-4.256,3.151-4.256a6.253,6.253,0,0,0-1.93.658,10.494,10.494,0,0,1,2.1-.872,9.629,9.629,0,0,1,2.4-.6c.1-.029-1.787-.257-1.787-.257l2.266.152s2.037-.252,3.524-.4a36.529,36.529,0,0,1,5.561.465,9.9,9.9,0,0,0-1.686-.465c1.907.193,4.709.715,4.713.715,1.627.108,2.706.2,2.706.2l.986,17.716s-16.383-.086-18.7,0-3.517-3.26-4.031-7.205a12.666,12.666,0,0,1,.723-5.851" transform="translate(-1039.093 -577.734)" fill="#ef6343"/>
      <path id="Trazado_817870" data-name="Trazado 817870" d="M1303.355,667.856a10.724,10.724,0,0,1,8.62,3.843,5.568,5.568,0,0,1,.346.493,4.069,4.069,0,0,0-.452-1.213,4.264,4.264,0,0,1,.926,2.13,8.725,8.725,0,0,1,.595,2.3c.416.51.769.916.769.916l-.743-.68a13.218,13.218,0,0,1-.384,4.592,1.435,1.435,0,0,1,.913.076,1.488,1.488,0,0,0-.952.072,12.737,12.737,0,0,1-.455,1.366,18.081,18.081,0,0,1-.584,2.134,9.841,9.841,0,0,0,.235-1.346c-.939,1.91-2.326,3.26-3.941,3.274-4.374.039-9.762-.634-10.928-6.345s1.279-11.47,6.039-11.614" transform="translate(-1133.137 -583.456)" fill="#ff7955"/>
      <path id="Trazado_817871" data-name="Trazado 817871" d="M1414.534,794.8a2.125,2.125,0,0,1-.082.245c-.007.016.027-.078.082-.245" transform="translate(-1235.72 -694.366)" fill="#00a3fe"/>
      <path id="Trazado_817872" data-name="Trazado 817872" d="M1318.309,699.71a7.544,7.544,0,0,0,3.919-.969,5.84,5.84,0,0,0,2.616-3.951c.661-3.059.336-5.569-.966-7.461a8.48,8.48,0,0,0-5.942-3.33,4.68,4.68,0,0,0-4.513,1.686,8.844,8.844,0,0,0-1.161,8.186,5.077,5.077,0,0,0,4.937,3.3c.068,0,.137,0,.205,0a5.511,5.511,0,0,0,5.235-8.153,5.852,5.852,0,0,0-4.507-2.673,3.276,3.276,0,0,0-3.384,1.4,5.534,5.534,0,0,0-.325,5.064,4.721,4.721,0,0,0,3.961,1.935,2.6,2.6,0,0,0,2.392-1.451,3.239,3.239,0,0,0-.1-3.264,2.427,2.427,0,0,0-2.039-1.155,1.372,1.372,0,0,0-1.27,1.356c-.046.526.133,1.11.564,1.211.8.187,1.087-.251,1.1-.269,0,0,.434-.715-.105-.818-.617-.118-.455.362-.455.362s.153.661-.488.51c-.264-.062-.437-.491-.395-.976a1.149,1.149,0,0,1,1.062-1.155,2.2,2.2,0,0,1,1.843,1.059,3.024,3.024,0,0,1,.084,3.046,2.389,2.389,0,0,1-2.2,1.325,4.485,4.485,0,0,1-3.761-1.824,5.287,5.287,0,0,1,.317-4.832,3.09,3.09,0,0,1,3.173-1.3,5.637,5.637,0,0,1,4.345,2.565,5.472,5.472,0,0,1,.1,4.906c-.737,1.787-2.933,2.983-5.341,2.913a4.864,4.864,0,0,1-4.735-3.152,8.614,8.614,0,0,1,1.122-7.972,4.47,4.47,0,0,1,4.31-1.608,8.271,8.271,0,0,1,5.794,3.237c1.266,1.839,1.579,4.292.931,7.29a5.623,5.623,0,0,1-2.515,3.809c-2.614,1.6-6.738.631-6.774.622l.467.252a10.959,10.959,0,0,0,2.5.283" transform="translate(-1146.003 -597.5)" fill="#ef6343"/>
      <path id="Trazado_817873" data-name="Trazado 817873" d="M1071.116,697.66h0c.007-1.63,2.474-3.341,2.474-3.341a4.9,4.9,0,0,0-1.515.516,8.239,8.239,0,0,1,1.65-.685,7.493,7.493,0,0,1,1.885-.471c.078-.022-1.4-.2-1.4-.2l1.779.118s1.6-.2,2.766-.316a28.453,28.453,0,0,1,4.366.365,7.779,7.779,0,0,0-1.324-.365c1.5.151,3.7.561,3.7.562,1.277.085,2.125.159,2.125.159l.774,13.908s-12.863-.068-14.68,0-2.761-2.559-3.165-5.656a9.945,9.945,0,0,1,.569-4.592" transform="translate(-935.218 -605.66)" fill="#ef6343"/>
      <path id="Trazado_817874" data-name="Trazado 817874" d="M1159.967,698.422a8.421,8.421,0,0,1,6.767,3.019,4.449,4.449,0,0,1,.272.389,3.2,3.2,0,0,0-.355-.955,3.349,3.349,0,0,1,.726,1.672,6.835,6.835,0,0,1,.466,1.806c.327.4.6.719.6.719l-.583-.534a10.374,10.374,0,0,1-.3,3.606,1.127,1.127,0,0,1,.717.06,1.166,1.166,0,0,0-.747.057,10.063,10.063,0,0,1-.357,1.07,14.208,14.208,0,0,1-.46,1.681,7.679,7.679,0,0,0,.186-1.062c-.737,1.5-1.826,2.561-3.094,2.572-3.434.029-7.664-.5-8.58-4.98s1-9,4.741-9.118" transform="translate(-1009.053 -610.161)" fill="#ff7955"/>
      <path id="Trazado_817875" data-name="Trazado 817875" d="M1247.26,798.112a1.733,1.733,0,0,1-.063.188c-.005.012.02-.06.063-.188" transform="translate(-1089.6 -697.262)" fill="#00a3fe"/>
      <path id="Trazado_817876" data-name="Trazado 817876" d="M1171.7,723.425a5.921,5.921,0,0,0,3.077-.76,4.585,4.585,0,0,0,2.053-3.1,7.323,7.323,0,0,0-.758-5.858,6.66,6.66,0,0,0-4.667-2.614,3.674,3.674,0,0,0-3.543,1.323,6.943,6.943,0,0,0-.911,6.427,3.985,3.985,0,0,0,3.876,2.591l.161,0a4.326,4.326,0,0,0,4.108-6.4,4.594,4.594,0,0,0-3.539-2.1,2.573,2.573,0,0,0-2.657,1.1,4.346,4.346,0,0,0-.255,3.976,3.706,3.706,0,0,0,3.109,1.519,2.044,2.044,0,0,0,1.878-1.137,2.542,2.542,0,0,0-.078-2.562,1.906,1.906,0,0,0-1.6-.907,1.079,1.079,0,0,0-1,1.065c-.036.412.1.871.443.95.63.147.854-.2.863-.212,0,0,.34-.562-.083-.642-.485-.093-.357.284-.357.284s.12.519-.383.4c-.207-.049-.343-.385-.31-.767a.9.9,0,0,1,.834-.907,1.725,1.725,0,0,1,1.449.83,2.374,2.374,0,0,1,.066,2.392,1.876,1.876,0,0,1-1.729,1.041,3.523,3.523,0,0,1-2.953-1.432,4.151,4.151,0,0,1,.249-3.794,2.426,2.426,0,0,1,2.491-1.022,4.428,4.428,0,0,1,3.412,2.014,4.164,4.164,0,0,1-4.115,6.139,3.817,3.817,0,0,1-3.717-2.475,6.762,6.762,0,0,1,.881-6.259,3.51,3.51,0,0,1,3.384-1.262,6.49,6.49,0,0,1,4.549,2.541,7.158,7.158,0,0,1,.731,5.723,4.418,4.418,0,0,1-1.974,2.991c-2.052,1.255-5.289.5-5.318.488l.366.2a8.616,8.616,0,0,0,1.965.222" transform="translate(-1019.153 -621.183)" fill="#ef6343"/>
      <path id="Trazado_817877" data-name="Trazado 817877" d="M927.163,693.754s2.123-2.284.8-2.8-.8,1.033-.8,1.635Z" transform="translate(-809.919 -603.553)" fill="#131f2d"/>
      <path id="Trazado_817878" data-name="Trazado 817878" d="M294.283,734.479H270.064l-1.546-11.03h26.108a1.045,1.045,0,0,1,1.035,1.191Z" transform="translate(-234.588 -632.033)" fill="#131f2d"/>
      <path id="Trazado_817879" data-name="Trazado 817879" d="M270.285,734.479H246.066l-1.379-9.839a1.046,1.046,0,0,1,.89-1.18,1.063,1.063,0,0,1,.145-.01H270.63a1.046,1.046,0,0,1,1.035,1.191Z" transform="translate(-213.759 -632.033)" fill="#364154"/>
      <path id="Trazado_817880" data-name="Trazado 817880" d="M1070.844,647.324l-.054-22.58a1.062,1.062,0,0,0-1.064-1.055l-2.727.017a1.062,1.062,0,0,0-1.054,1.064l.054,22.554Z" transform="translate(-931.25 -544.879)" fill="#131f2d"/>
      <path id="Trazado_817881" data-name="Trazado 817881" d="M165.54,647.324l-.054-22.58a1.062,1.062,0,0,0-1.064-1.055l-2.727.017a1.062,1.062,0,0,0-1.054,1.064l.054,22.554Z" transform="translate(-140.341 -544.879)" fill="#131f2d"/>
      <path id="Trazado_817882" data-name="Trazado 817882" d="M148.055,656.026l120.61-.205a1.063,1.063,0,0,0,1.055-1.064l-.016-2.727a1.063,1.063,0,0,0-1.064-1.055l-120.611.205a1.062,1.062,0,0,0-1.054,1.064l.016,2.727a1.062,1.062,0,0,0,1.064,1.054" transform="translate(-128.403 -568.717)" fill="#632059"/>
      <path id="Trazado_817883" data-name="Trazado 817883" d="M148.055,741.671l120.61-.205a1.063,1.063,0,0,0,1.055-1.064l-.016-2.727a1.063,1.063,0,0,0-1.064-1.055l-120.611.206a1.062,1.062,0,0,0-1.054,1.064l.016,2.727a1.062,1.062,0,0,0,1.064,1.055" transform="translate(-128.403 -643.54)" fill="#632059"/>
      <path id="Trazado_817884" data-name="Trazado 817884" d="M176.98,657.9a.515.515,0,1,1-.515-.515.515.515,0,0,1,.515.515" transform="translate(-153.716 -574.319)" fill="#364154"/>
      <path id="Trazado_817885" data-name="Trazado 817885" d="M176.98,676.252a.515.515,0,1,1-.515-.515.515.515,0,0,1,.515.515" transform="translate(-153.716 -590.35)" fill="#364154"/>
      <path id="Trazado_817886" data-name="Trazado 817886" d="M176.98,742.926a.515.515,0,1,1-.515-.515.515.515,0,0,1,.515.515" transform="translate(-153.716 -648.599)" fill="#364154"/>
      <path id="Trazado_817887" data-name="Trazado 817887" d="M176.98,761.277a.515.515,0,1,1-.515-.515.515.515,0,0,1,.515.515" transform="translate(-153.716 -664.631)" fill="#364154"/>
      <path id="Trazado_817888" data-name="Trazado 817888" d="M1081.672,657.9a.515.515,0,1,1-.515-.515.515.515,0,0,1,.515.515" transform="translate(-944.09 -574.319)" fill="#364154"/>
      <path id="Trazado_817889" data-name="Trazado 817889" d="M1081.672,676.252a.515.515,0,1,1-.515-.515.515.515,0,0,1,.515.515" transform="translate(-944.09 -590.35)" fill="#364154"/>
      <path id="Trazado_817890" data-name="Trazado 817890" d="M1081.672,742.926a.515.515,0,1,1-.515-.515.515.515,0,0,1,.515.515" transform="translate(-944.09 -648.599)" fill="#364154"/>
      <path id="Trazado_817891" data-name="Trazado 817891" d="M1081.672,761.277a.515.515,0,1,1-.515-.515.515.515,0,0,1,.515.515" transform="translate(-944.09 -664.631)" fill="#364154"/>
      <path id="Trazado_817892" data-name="Trazado 817892" d="M189.779,807.4H.221a.221.221,0,0,1-.221-.22v-.088a.221.221,0,0,1,.221-.221H189.779a.221.221,0,0,1,.221.221v.088a.221.221,0,0,1-.221.221" transform="translate(0 -704.915)" fill="#364154"/>
    </g>
  </g>
  <g id="Grupo_1072533" data-name="Grupo 1072533" transform="translate(0 0)">
    <g id="Grupo_1072532" data-name="Grupo 1072532" clip-path="url(#clip-path)">
      <path id="Trazado_817893" data-name="Trazado 817893" d="M393.752,367.249l.113.139h0c.125.152.319.386.563.677,1.412,1.682,4.516,5.27,5.7,5.916.837.458.962-.986.129-1.872-.759-.808-3.7-6.025-4.831-7.147-.552-.545-1.3-5.7-1.3-5.7s-.678,4.3-.6,4.8-.254,2.592.229,3.192" transform="translate(-343.762 -313.863)" fill="#ffbf55"/>
      <path id="Trazado_817894" data-name="Trazado 817894" d="M436.925,460.949s.488.64.74.72.545.524.756.638.9.224,1.072.417a6.622,6.622,0,0,0,.449.876c.157.146.513.4.379.534s-.518-.012-.518-.012a.268.268,0,0,1,.053.292c-.159.293-.369.29-.369.29s.041.234-.056.34a.587.587,0,0,1-.418.225.54.54,0,0,1-.215.3.492.492,0,0,1-.473.037s-.239.263-.425.193a1.652,1.652,0,0,1-.409-.312,6.14,6.14,0,0,1-1.2-2.277,4.534,4.534,0,0,0-.832-1.734Z" transform="translate(-380.432 -402.703)" fill="#eea886"/>
      <path id="Trazado_817895" data-name="Trazado 817895" d="M293.684,208.546a2.272,2.272,0,0,0-2.513,1.052c-.823,1.495,2.46,6.144,1.086,8.044-1.213,1.679-2.329.835-2.329.835a2.587,2.587,0,0,0,4.317-.461c1.193-1.789.673-3.734.608-5.346a15.1,15.1,0,0,0-1.169-4.124" transform="translate(-253.292 -182.14)" fill="#292c47"/>
      <path id="Trazado_817896" data-name="Trazado 817896" d="M405.955,789.39s.455,1.205,1.086,1.491,2.06,1.607,2.634,1.7,1.948.2,2.026.926-.069,1.385-2.839,1.007a20.41,20.41,0,0,1-5.388-1.652s-.564-2.8.334-4.192,2.148.718,2.148.718" transform="translate(-352.337 -688.602)" fill="#2f4563"/>
      <path id="Trazado_817897" data-name="Trazado 817897" d="M407.044,785.667l-.521-1.73-1.978,0,0,1.844s2.995,1.119,2.5-.118" transform="translate(-353.426 -684.878)" fill="#eea886"/>
      <path id="Trazado_817898" data-name="Trazado 817898" d="M267.454,765.284a5.155,5.155,0,0,0,.5,1.628c.308.378.755,2.178,1.382,2.752s2.166,1.866,1.7,2.514S267.28,772,266.1,770s-1.58-2.227-1.432-2.77,1.259-2.637,1.232-2.891,1.551.945,1.551.945" transform="translate(-231.201 -667.725)" fill="#2f4563"/>
      <path id="Trazado_817899" data-name="Trazado 817899" d="M276.641,754.632a3.286,3.286,0,0,0-.478.9c-.083.332-.81.464-1.394-.255a1.157,1.157,0,0,1-.158-.69,6.257,6.257,0,0,1,.514-1.446Z" transform="translate(-239.91 -657.973)" fill="#eea886"/>
      <path id="Trazado_817900" data-name="Trazado 817900" d="M450.322,478.2s-.733-.972-1.15-.989-.173.349-.173.349-.235-.365-.552-.208-.007.57-.007.57a.352.352,0,0,0-.505.039c-.251.268.085.551.085.551s-.542-.124-.473.323a1.823,1.823,0,0,0,.911,1.169s.22.123.444-.15a.511.511,0,0,0,.707-.344s.638-.1.5-.58a.416.416,0,0,0,.213-.729" transform="translate(-390.988 -416.906)" fill="#db9c7c"/>
      <path id="Trazado_817901" data-name="Trazado 817901" d="M349.433,475.832c.1.5.769,2.586,1.513,4.9h0c.679,2.114,1.423,4.42,1.87,5.892.167.549.292.982.357,1.246.429,1.743-.046,4.478-.2,6.764s2.332,13.528,2.332,13.528c.582.27,3.159-.452,3.159-.452-.428-.813-1.024-14.811-.793-15.7a13.534,13.534,0,0,0,.147-4.34,3.769,3.769,0,0,1-.077-.777c-.022-1.223.227-3.244.377-5.461.189-2.79-.908-9.723-1.063-10.342-.014-.057-.037-.137-.066-.236-.287-.972-1.211-3.732-1.211-3.732a9.118,9.118,0,0,0-4.315-.434,3.207,3.207,0,0,0-2.527,2.176c-.907,2.523.359,6.318.494,6.965" transform="translate(-304.563 -407.627)" fill="#292c47"/>
      <path id="Trazado_817902" data-name="Trazado 817902" d="M271.662,490.676l2.546,1.076c.317-1.55,7.405-12.327,7.871-13.528a17.54,17.54,0,0,0,.959-4.379c0-.152.01-.409.031-.742.081-1.292.313-3.729.649-5.626.063-.354.129-.689.2-.994.373-1.636.428-7.224.427-10.51,0-1.462-.012-2.469-.012-2.469l-.094-.072c-.707-.534-5.245-3.785-6.819-.736a9.136,9.136,0,0,0-.851,2.571,29.622,29.622,0,0,0-.07,9c.354,2.424,1.515,5.554,1.712,8.1a6.349,6.349,0,0,1-.243,3.08c-.889,1.551-1.758,2.865-3.55,8.336-.583,1.78-2.753,6.9-2.753,6.9" transform="translate(-237.335 -394.367)" fill="#292c47"/>
      <path id="Trazado_817903" data-name="Trazado 817903" d="M319.281,203.06s3.509.114,3.658,5.2-.954,6.165-4.085,5.112-4.128-6.368-4.2-7.192-.2-3.719,4.626-3.116" transform="translate(-274.878 -177.329)" fill="#eea886"/>
      <path id="Trazado_817904" data-name="Trazado 817904" d="M301.4,303.164c-.011,1.75,2.008,5.929,2.32,7.22s.8,1.7.393,3.357-1.682,7.248-1.63,7.739,11.53,2.281,13.26,1.942c0,0-2.129-7.89-2.285-8.794a40.167,40.167,0,0,1,.257-5.249c.076-.956,1.04-3.014,1.006-3.972a5.743,5.743,0,0,0-1.188-2.859c-.208-.323-.427-.652-.646-.971a18.392,18.392,0,0,0-1.772-2.312,5.6,5.6,0,0,0-.713-.567h0a3.3,3.3,0,0,0-.733-.385l-3.075-.485s-1.914.7-3.016.956c0,0-2.15.317-2.175,4.382" transform="translate(-263.318 -260.192)" fill="#ffbf55"/>
      <path id="Trazado_817905" data-name="Trazado 817905" d="M372.621,304.717l1.786,2.8,1.649,2.589c0-.014-.114-.406-.3-1.542-.036-.216-.074-.458-.115-.73a1.918,1.918,0,0,0-.052-.239h0a7.681,7.681,0,0,0-2.964-2.881h0" transform="translate(-325.536 -266.213)" fill="#ffbf55"/>
      <path id="Trazado_817906" data-name="Trazado 817906" d="M331.975,266.6a27.4,27.4,0,0,1,.644,4.218s4.376,1.646,3.927.711a3.575,3.575,0,0,1-.269-1.449,7.017,7.017,0,0,1,.047-.883c.011-.1.02-.151.02-.151s-4.68-3.032-4.369-2.446" transform="translate(-290.014 -232.844)" fill="#eea886"/>
      <path id="Trazado_817907" data-name="Trazado 817907" d="M346.758,284.738a4.157,4.157,0,0,0,2.447,1.253h0a7.028,7.028,0,0,1,.047-.883,5,5,0,0,1-2.494-.37" transform="translate(-302.941 -248.758)" fill="#a77860"/>
      <path id="Trazado_817908" data-name="Trazado 817908" d="M375.593,307.587h0a3.667,3.667,0,0,1,.175.988l-.646-.971s-1.153-1.648-1.548-2.076a6.53,6.53,0,0,0-.937-.8,6.556,6.556,0,0,1,2.956,2.862" transform="translate(-325.55 -266.22)" fill="#ffbf55"/>
      <path id="Trazado_817909" data-name="Trazado 817909" d="M334.213,298.23s2.066,3.165,1.369,3.444-4.475-.362-6.085-3.369a5.657,5.657,0,0,1,4.716-.075" transform="translate(-287.861 -260.111)" fill="#eea886"/>
      <path id="Trazado_817910" data-name="Trazado 817910" d="M435.207,459.855a2.843,2.843,0,0,0-1.374.95,9.822,9.822,0,0,0-.891-1.033l1.592-.693Z" transform="translate(-378.234 -401.07)" fill="#ffbf55"/>
      <path id="Trazado_817911" data-name="Trazado 817911" d="M398.828,389.166c0-.043.007-.068.007-.072a.15.15,0,0,0,0,.02.508.508,0,0,0,0,.052" transform="translate(-348.432 -339.928)" fill="#2f4563"/>
      <path id="Trazado_817912" data-name="Trazado 817912" d="M396.414,393.956h0c.125.152.591.713.836,1,0,0-.565-4.684-.543-5.291a34.335,34.335,0,0,0-.293,4.286" transform="translate(-346.31 -340.431)" fill="#9c7534"/>
      <path id="Trazado_817913" data-name="Trazado 817913" d="M315.925,408.518a24.006,24.006,0,0,0,2.438.678c1.181.248-.037,1.665-.037,1.665s-2.045-.191-3.029-.28c-.361-.032.628-2.063.628-2.063" transform="translate(-275.387 -356.897)" fill="#eea886"/>
      <path id="Trazado_817914" data-name="Trazado 817914" d="M304.494,310.028a25.031,25.031,0,0,0-3.445-.991s.414-4.581,3.126-4.116.319,5.108.319,5.108" transform="translate(-263.008 -266.362)" fill="#ffbf55"/>
      <path id="Trazado_817915" data-name="Trazado 817915" d="M318.918,204.757s-.671,2.492-4.694,3.245c0,0-3.162-5.393,1.273-6.527s5.866,2.278,6,3.957a4.866,4.866,0,0,0-2.581-.675" transform="translate(-273.564 -175.818)" fill="#292c47"/>
      <path id="Trazado_817916" data-name="Trazado 817916" d="M320.026,202.157s-1.783-6.391-7.245-2.819c0,0-2.743,1.826.234,6.3a21.081,21.081,0,0,0,7.012-3.48" transform="translate(-272.251 -173.201)" fill="#292c47"/>
      <path id="Trazado_817917" data-name="Trazado 817917" d="M342.171,414.488a2.054,2.054,0,0,0-.242,1.608s.1.135.452.047a3.3,3.3,0,0,1,.325-1.577.836.836,0,0,0-.535-.078" transform="translate(-298.68 -362.107)" fill="#23344a"/>
      <path id="Trazado_817918" data-name="Trazado 817918" d="M332.675,245.507c-.238-.522-.627-.98-1.2-.626s-.194,1.625.54,1.82.873-.734.663-1.194" transform="translate(-289.343 -213.829)" fill="#eea886"/>
      <path id="Trazado_817919" data-name="Trazado 817919" d="M322.6,252.36a2.552,2.552,0,0,0-.477,1.709s-.911-.947-.846-1.6,1.323-.113,1.323-.113" transform="translate(-280.679 -220.289)" fill="#292c47"/>
      <path id="Trazado_817920" data-name="Trazado 817920" d="M288.44,307.956s.48-3.275,2.881-2.74c2.307.515.153,4.812-.015,5.32s-1.869,4.664-2.016,5.208c-.465,1.721-.027,1.761.679,2.166,2.082,1.194,6.26,1.4,6.754,1.727s.563,1.063-.265,1.1c-1.078.048-7.238-.521-8.1-.6-.833-.08-2.492-.147-2.062-3.109.29-2,2.143-9.068,2.143-9.068" transform="translate(-250.058 -266.597)" fill="#ffbf55"/>
      <path id="Trazado_817921" data-name="Trazado 817921" d="M339.852,405.568s1.284.213,1.4.193.626-.852,1.214-1a12.086,12.086,0,0,0,1.5-.38c.181-.113.232.463-.333.7s-.705.552.353.763c.585.116,2.772-.132,2.591.238a8.581,8.581,0,0,1-2.214.376,13.919,13.919,0,0,1,2.352.123c.153.271-2.128.37-2.223.362,0,0,1.955.109,1.972.284.022.218-1.958.129-1.94.164,0,0,1.554.1,1.539.237-.02.174-1.387.2-1.653.167s-2.945-.331-3.394-.42-1.208-.14-1.208-.14Z" transform="translate(-296.876 -353.269)" fill="#eea886"/>
    </g>
  </g>
</svg>
