<svg xmlns="http://www.w3.org/2000/svg" xmlns:xlink="http://www.w3.org/1999/xlink" width="295" height="259.333" viewBox="0 0 295 259.333">
  <defs>
    <clipPath id="clip-path">
      <rect id="Rectángulo_353777" data-name="Rectángulo 353777" width="295" height="19.072" fill="#4a0606"/>
    </clipPath>
    <clipPath id="clip-path-2">
      <rect id="Rectángulo_353787" data-name="Rectángulo 353787" width="275.523" height="96.723" fill="none"/>
    </clipPath>
    <clipPath id="clip-path-3">
      <rect id="Rectángulo_353788" data-name="Rectángulo 353788" width="278.151" height="97.807" fill="none"/>
    </clipPath>
    <clipPath id="clip-path-4">
      <rect id="Rectángulo_353790" data-name="Rectángulo 353790" width="208.686" height="129.462" fill="none"/>
    </clipPath>
  </defs>
  <g id="Grupo_1072893" data-name="Grupo 1072893" transform="translate(-243.333 -1185.141)">
    <g id="Grupo_1003687" data-name="Grupo 1003687" transform="translate(243.333 1425.401)">
      <g id="Grupo_1003686" data-name="Grupo 1003686">
        <g id="Grupo_1003685" data-name="Grupo 1003685" clip-path="url(#clip-path)">
          <path id="Trazado_716302" data-name="Trazado 716302" d="M9.34,309.22c29.934-2.833,133.113-10.6,277,.212,5.222.394,9.153,3.188,9.151,6.506v.448c0,3.618-4.65,6.552-10.386,6.552H10.946C5.21,322.923.469,319.292.491,315.674c.02-3.234,3.778-5.976,8.849-6.454" transform="translate(-0.491 -303.865)" fill="#4a0606"/>
        </g>
      </g>
    </g>
    <rect id="Rectángulo_353781" data-name="Rectángulo 353781" width="216.567" height="136.158" transform="translate(287.276 1285.638)" fill="#772d0e"/>
    <path id="Trazado_716306" data-name="Trazado 716306" d="M323.983,62.458,248.97,25.485,172.179,54.992,124.54,102.154V270.9l248.135.672V113.132Zm28.967,192.4H144.264V122.143H352.95Z" transform="translate(143.012 1165.323)" fill="#a00011"/>
    <line id="Línea_605" data-name="Línea 605" y2="183.734" transform="translate(273.455 1252.724)" fill="none" stroke="#da0013" stroke-miterlimit="10" stroke-width="1"/>
    <line id="Línea_606" data-name="Línea 606" y2="194.035" transform="translate(287.505 1242.423)" fill="none" stroke="#da0013" stroke-miterlimit="10" stroke-width="1"/>
    <line id="Línea_607" data-name="Línea 607" y2="57.823" transform="translate(301.555 1228.438)" fill="none" stroke="#da0013" stroke-miterlimit="10" stroke-width="1"/>
    <line id="Línea_608" data-name="Línea 608" y2="69.402" transform="translate(315.605 1216.858)" fill="none" stroke="#da0013" stroke-miterlimit="10" stroke-width="1"/>
    <line id="Línea_609" data-name="Línea 609" y2="75.158" transform="translate(329.655 1211.104)" fill="none" stroke="#da0013" stroke-miterlimit="10" stroke-width="1"/>
    <line id="Línea_610" data-name="Línea 610" y2="78.622" transform="translate(343.705 1207.639)" fill="none" stroke="#da0013" stroke-miterlimit="10" stroke-width="1"/>
    <line id="Línea_611" data-name="Línea 611" y2="84.87" transform="translate(357.755 1201.392)" fill="none" stroke="#da0013" stroke-miterlimit="10" stroke-width="1"/>
    <line id="Línea_612" data-name="Línea 612" y2="89.568" transform="translate(371.805 1196.693)" fill="none" stroke="#da0013" stroke-miterlimit="10" stroke-width="1"/>
    <line id="Línea_613" data-name="Línea 613" y2="95.692" transform="translate(385.855 1190.569)" fill="none" stroke="#da0013" stroke-miterlimit="10" stroke-width="1"/>
    <line id="Línea_614" data-name="Línea 614" y2="95.692" transform="translate(399.905 1190.569)" fill="none" stroke="#da0013" stroke-miterlimit="10" stroke-width="1"/>
    <line id="Línea_615" data-name="Línea 615" y2="89.568" transform="translate(413.955 1196.693)" fill="none" stroke="#da0013" stroke-miterlimit="10" stroke-width="1"/>
    <line id="Línea_616" data-name="Línea 616" y2="82.724" transform="translate(428.005 1203.537)" fill="none" stroke="#da0013" stroke-miterlimit="10" stroke-width="1"/>
    <line id="Línea_617" data-name="Línea 617" y2="75.158" transform="translate(442.055 1211.104)" fill="none" stroke="#da0013" stroke-miterlimit="10" stroke-width="1"/>
    <line id="Línea_618" data-name="Línea 618" y2="69.402" transform="translate(456.105 1216.858)" fill="none" stroke="#da0013" stroke-miterlimit="10" stroke-width="1"/>
    <line id="Línea_619" data-name="Línea 619" y2="58.939" transform="translate(470.155 1227.322)" fill="none" stroke="#da0013" stroke-miterlimit="10" stroke-width="1"/>
    <line id="Línea_620" data-name="Línea 620" y2="42.435" transform="translate(484.205 1243.826)" fill="none" stroke="#da0013" stroke-miterlimit="10" stroke-width="1"/>
    <line id="Línea_621" data-name="Línea 621" y2="183.734" transform="translate(498.254 1252.724)" fill="none" stroke="#da0013" stroke-miterlimit="10" stroke-width="1"/>
    <line id="Línea_622" data-name="Línea 622" y2="168.254" transform="translate(512.305 1268.203)" fill="none" stroke="#da0013" stroke-miterlimit="10" stroke-width="1"/>
    <rect id="Rectángulo_353782" data-name="Rectángulo 353782" width="51.404" height="39.766" transform="translate(366.748 1226.349)" fill="#fff"/>
    <rect id="Rectángulo_353783" data-name="Rectángulo 353783" width="21.255" height="15.371" transform="translate(369.975 1229.009)" fill="#1e0f11"/>
    <rect id="Rectángulo_353784" data-name="Rectángulo 353784" width="21.255" height="15.371" transform="translate(369.975 1247.24)" fill="#1e0f11"/>
    <rect id="Rectángulo_353785" data-name="Rectángulo 353785" width="21.255" height="15.371" transform="translate(394.231 1247.24)" fill="#1e0f11"/>
    <rect id="Rectángulo_353786" data-name="Rectángulo 353786" width="21.255" height="15.371" transform="translate(394.231 1229.009)" fill="#1e0f11"/>
    <g id="Grupo_1003696" data-name="Grupo 1003696" transform="translate(250.934 1187.463)" style="isolation: isolate">
      <g id="Grupo_1003695" data-name="Grupo 1003695">
        <g id="Grupo_1003694" data-name="Grupo 1003694" clip-path="url(#clip-path-2)">
          <path id="Trazado_716307" data-name="Trazado 716307" d="M104.819,109.682l61.149-56.171,81.768-32,75.013,36.618,57.593,57.688-4.977,2.416L317.772,62.4,247.914,27.726l-78.036,30.4L108.493,113.2Z" transform="translate(-104.82 -21.515)" fill="#2b120d"/>
        </g>
      </g>
    </g>
    <g id="Grupo_1003699" data-name="Grupo 1003699" transform="translate(249.619 1185.141)" style="isolation: isolate">
      <g id="Grupo_1003698" data-name="Grupo 1003698">
        <g id="Grupo_1003697" data-name="Grupo 1003697" clip-path="url(#clip-path-3)">
          <path id="Trazado_716308" data-name="Trazado 716308" d="M103.26,108.271l62.612-57.516,81.768-32,75.013,36.617,58.757,58.855-5.022,2.335L317.676,59.644,247.819,24.97l-78.036,30.4L107.39,110.418Z" transform="translate(-103.26 -18.759)" fill="#772d0e"/>
        </g>
      </g>
    </g>
    <g id="Grupo_1003703" data-name="Grupo 1003703" transform="translate(290.403 1290.722)">
      <g id="Grupo_1003702" data-name="Grupo 1003702" clip-path="url(#clip-path-4)">
        <path id="Trazado_716309" data-name="Trazado 716309" d="M420.741,300.572H281.176L223,300.531l-110.36-.04S97.81,271.671,97.81,215.634c45.187,2.526,195.222-4.617,260.748,11.254,92.46,22.4,7.637,10.38,46.806,14.4,10.872,1.1,49.85,65.166,15.377,59.286" transform="translate(-140.06 -155.307)" fill="#ffc26f"/>
        <path id="Trazado_716310" data-name="Trazado 716310" d="M432.525,273.955s-147.409-49.678-193.878-54.687-1.954,6.691-1.954,6.691,126.151,40.79,155.663,57.611,40.169-9.615,40.169-9.615" transform="translate(-158.882 -155.683)" fill="#f9b35d"/>
        <path id="Trazado_716311" data-name="Trazado 716311" d="M545.031,273.955s-147.409-49.678-193.878-54.687-1.954,6.691-1.954,6.691,126.151,40.79,155.663,57.611,40.169-9.615,40.169-9.615" transform="translate(-176.578 -155.683)" fill="#f9b35d"/>
        <path id="Trazado_716312" data-name="Trazado 716312" d="M355.515,293.874s-126.667-58.235-168.033-69.165-2.666,4.349-2.666,4.349,108.633,48.633,133.07,65.08,37.629-.264,37.629-.264" transform="translate(-151.16 -156.115)" fill="#f9b35d"/>
        <path id="Trazado_716313" data-name="Trazado 716313" d="M270.823,292.964s-114.967-62.051-152.511-73.7-2.421,4.634-2.421,4.634,98.6,51.82,120.778,69.346,34.154-.281,34.154-.281" transform="translate(-140.558 -155.218)" fill="#f9b35d"/>
        <path id="Trazado_716314" data-name="Trazado 716314" d="M194.427,302.446s-61.786-38.385-81.963-45.591-1.3,2.867-1.3,2.867,52.989,32.056,64.909,42.9,18.355-.174,18.355-.174" transform="translate(-140.899 -161.382)" fill="#f9b35d"/>
      </g>
    </g>
    <path id="Trazado_716315" data-name="Trazado 716315" d="M387.215,207.71c2.925-2.606,1.616-8.011-1.849-9.839s-7.926-.621-10.88,1.952a9.634,9.634,0,1,0-18.513-1.257l1.05,1.1a8.355,8.355,0,1,0,2.092,16.522,8.775,8.775,0,0,0,16.649,3.136,8.174,8.174,0,0,0,11.451-11.617" transform="translate(110.826 1139.915)" fill="#f2f2f2"/>
    <path id="Trazado_716316" data-name="Trazado 716316" d="M301.537,168.46c2.925-2.606,1.616-8.011-1.849-9.839s-7.926-.621-10.88,1.952a9.634,9.634,0,1,0-18.513-1.256l1.05,1.1a8.355,8.355,0,1,0,2.093,16.522,8.775,8.775,0,0,0,16.648,3.136,8.174,8.174,0,0,0,11.451-11.617" transform="translate(124.302 1146.088)" fill="#f2f2f2"/>
    <path id="Trazado_716317" data-name="Trazado 716317" d="M386.554,244.1a3.156,3.156,0,0,0-2.559-.5,3.844,3.844,0,0,0-3.853,3.574,3.991,3.991,0,0,0,3.822,3.931,4.169,4.169,0,0,0,4.029-3.8,3.724,3.724,0,0,0-1.439-3.209" transform="translate(105.935 1131.028)" fill="#f2f2f2"/>
    <path id="Trazado_716318" data-name="Trazado 716318" d="M191.608,157.733c-1.074-4.442-5.076-8.162-9.638-8.413s-9.148,3.39-9.482,7.948a7.246,7.246,0,0,0-14.285,1.042l-.875-2.449a13.352,13.352,0,0,0-10.993,20.583c-5.322.366-9.363,6.172-8.406,11.42s6.2,9.162,11.532,9.213,10.381-3.359,12.945-8.038a9.38,9.38,0,0,0,13.2-13.3,18.966,18.966,0,0,0,12.266-5.409,13.907,13.907,0,0,0,3.734-12.6" transform="translate(144.055 1145.848)" fill="#f2f2f2"/>
    <path id="Trazado_716319" data-name="Trazado 716319" d="M201.913,186.936a6.184,6.184,0,0,0-4.228,6.812,5.943,5.943,0,0,0,6.458,4.638c2.9-.437,4.55-3.453,4.627-6.382.075-2.821-2.6-5.8-6.857-5.068" transform="translate(134.648 1139.946)" fill="#f2f2f2"/>
    <path id="Trazado_716320" data-name="Trazado 716320" d="M327.568,166.229,316.42,180.913l7.315,5.627c.763-.758,3.494-3.891,3.494-3.891s3.239,2.126,5.841-.68c1.263-1.363,3.644-4.39,5.757-7.143a7.083,7.083,0,1,0-11.259-8.6" transform="translate(115.958 1143.626)" fill="#f7ac8b"/>
    <path id="Trazado_716321" data-name="Trazado 716321" d="M328.7,185.427a8.9,8.9,0,0,1-2.749-4.4s-.973,2.834,2.09,5.141Z" transform="translate(114.481 1140.857)" fill="#e88559"/>
    <path id="Trazado_716322" data-name="Trazado 716322" d="M339.616,178.356a.548.548,0,0,1-.762.056.523.523,0,0,1-.087-.743.546.546,0,0,1,.76-.056.524.524,0,0,1,.088.744" transform="translate(112.461 1141.415)" fill="#1c262b"/>
    <path id="Trazado_716323" data-name="Trazado 716323" d="M340.4,177.77c-.1.008-.2-.5-.637-.891s-.954-.464-.953-.561c0-.045.136-.094.367-.069a1.5,1.5,0,0,1,.822.383,1.444,1.444,0,0,1,.447.775c.04.224,0,.361-.046.362" transform="translate(112.436 1141.61)" fill="#1c262b"/>
    <path id="Trazado_716324" data-name="Trazado 716324" d="M334.528,174.145a.547.547,0,0,1-.761.056.523.523,0,0,1-.087-.743.546.546,0,0,1,.76-.056.523.523,0,0,1,.088.744" transform="translate(113.262 1142.078)" fill="#1c262b"/>
    <path id="Trazado_716325" data-name="Trazado 716325" d="M335.23,173.264c-.1.008-.2-.5-.637-.891s-.954-.465-.953-.561c0-.045.136-.094.367-.069a1.5,1.5,0,0,1,.822.383,1.443,1.443,0,0,1,.448.775c.04.224,0,.361-.046.362" transform="translate(113.249 1142.319)" fill="#1c262b"/>
    <path id="Trazado_716326" data-name="Trazado 716326" d="M333.932,178.374a3.891,3.891,0,0,1,.824.513c.121.089.247.163.335.1a.765.765,0,0,0,.224-.4l.438-1.146a19.6,19.6,0,0,1,1.267-2.886,19.693,19.693,0,0,1-1.031,2.982c-.159.4-.311.776-.456,1.139a.866.866,0,0,1-.338.489.378.378,0,0,1-.33,0,1.007,1.007,0,0,1-.213-.144,3.807,3.807,0,0,1-.719-.649" transform="translate(113.203 1141.875)" fill="#1c262b"/>
    <path id="Trazado_716327" data-name="Trazado 716327" d="M331.973,178.066c.075.06-.353.534-.251,1.237s.652,1.106.6,1.176c-.02.035-.2-.009-.414-.2a1.586,1.586,0,0,1-.522-.955,1.385,1.385,0,0,1,.241-1.01c.161-.215.32-.284.35-.252" transform="translate(113.607 1141.324)" fill="#1c262b"/>
    <path id="Trazado_716328" data-name="Trazado 716328" d="M337.088,171.329c-.15.079-.535-.371-1.1-.772s-1.107-.636-1.08-.8c.016-.078.189-.125.459-.088a2.341,2.341,0,0,1,1.663,1.2c.119.245.129.424.06.464" transform="translate(113.05 1142.647)" fill="#1c262b"/>
    <path id="Trazado_716329" data-name="Trazado 716329" d="M341.6,176.106c-.166.029-.373-.345-.731-.677s-.727-.537-.7-.7c.014-.078.153-.134.371-.106a1.442,1.442,0,0,1,1.156,1.112c.035.217-.015.357-.093.375" transform="translate(112.223 1141.867)" fill="#1c262b"/>
    <path id="Trazado_716330" data-name="Trazado 716330" d="M334.986,165.679l-.027,0a3.007,3.007,0,0,0-2.135.693l-.06.051c-.844.709-1.568,1.551-2.419,2.251a4.95,4.95,0,0,1-2.976,1.287c-.453.007-1.031-.229-.99-.681a.929.929,0,0,1,.235-.462c1.616-2.092,2.651-4.309,4.5-6.349a2.324,2.324,0,0,1,1.984-.756c.705.081,1.515.235,1.787.891a10.741,10.741,0,0,1,.109,2.814" transform="translate(114.392 1143.898)" fill="#1c262b"/>
    <path id="Trazado_716331" data-name="Trazado 716331" d="M328.656,169.141c-.029-.065-1.428-2.341-3.121-.345a1.967,1.967,0,0,0,.712,3.23c.052-.054,2.409-2.885,2.409-2.885" transform="translate(114.62 1142.91)" fill="#f7ac8b"/>
    <path id="Trazado_716332" data-name="Trazado 716332" d="M326.415,170.9c0-.013-.056-.005-.137-.028a.462.462,0,0,1-.265-.216,1.129,1.129,0,0,1,.257-1.11,1.508,1.508,0,0,1,.52-.415.528.528,0,0,1,.488-.046.233.233,0,0,1,.125.27c-.021.078-.067.107-.06.12s.071,0,.125-.093a.294.294,0,0,0,.028-.192.346.346,0,0,0-.149-.214.643.643,0,0,0-.626,0,1.552,1.552,0,0,0-.592.454,1.183,1.183,0,0,0-.223,1.292.487.487,0,0,0,.362.217c.1,0,.153-.033.148-.042" transform="translate(114.484 1142.767)" fill="#e88559"/>
    <path id="Trazado_716333" data-name="Trazado 716333" d="M340.339,163.334c0-.005-.04-.047-.128-.111a2.151,2.151,0,0,0-.4-.227,2.553,2.553,0,0,0-2.842.541,2.175,2.175,0,0,0-.292.358.462.462,0,0,0-.078.151c.017.011.142-.2.423-.454a2.64,2.64,0,0,1,2.761-.524c.356.136.549.283.56.266" transform="translate(112.785 1143.729)" fill="#354952"/>
    <path id="Trazado_716334" data-name="Trazado 716334" d="M343.624,171.763c0,.5-.651.715-1.146.664a2.554,2.554,0,0,1-1.552-1.063,4.492,4.492,0,0,1-.357-1.441,1.752,1.752,0,0,1-2.046-1.8c-1.049.595-3.785-.994-3.91-1.577-.008-1.226-.408-4.187,1.206-4.325a7.061,7.061,0,0,1,6.131,2.336c2.466,3.073,2.218,5.66,1.675,7.2" transform="translate(113.104 1143.82)" fill="#1c262b"/>
    <path id="Trazado_716335" data-name="Trazado 716335" d="M329.895,174.358s3.761,2.464,5.206,3.315a6.943,6.943,0,0,1,2.292,3.051l-.384.512s-2.417,2.877-3.01,3.35c-.959.763-3.843.521-4.507.155a6.893,6.893,0,0,1-3.292-7.075s2.16.39,3.063-.913a22.905,22.905,0,0,0,.632-2.393" transform="translate(114.436 1141.907)" fill="#fafafa"/>
    <path id="Trazado_716336" data-name="Trazado 716336" d="M329.881,174.358a.459.459,0,0,1-.012.1c-.016.079-.035.178-.058.3-.053.261-.135.646-.254,1.137a7.751,7.751,0,0,1-.232.814,1.95,1.95,0,0,1-.742.7,3.978,3.978,0,0,1-2.41.327l.083-.058a6.856,6.856,0,0,0,1,4.794,6.543,6.543,0,0,0,.881,1.114,5.7,5.7,0,0,0,1.147.921,2.71,2.71,0,0,0,.321.183,2.031,2.031,0,0,0,.351.112,5.959,5.959,0,0,0,.755.13,9.011,9.011,0,0,0,1.569.039,3.183,3.183,0,0,0,1.68-.487c.432-.392.826-.847,1.213-1.274l1.12-1.284c.366-.421.715-.829,1.021-1.255l-.012.084a6.274,6.274,0,0,0-2.412-3.123l-2.644-1.717-1.732-1.135-.464-.308c-.106-.071-.163-.11-.164-.115a1.3,1.3,0,0,1,.154.088l.458.281,1.75,1.083,2.713,1.695a4.668,4.668,0,0,1,1.449,1.313,8.6,8.6,0,0,1,1.056,1.875l.018.043-.03.041c-.308.431-.661.849-1.023,1.268s-.737.851-1.119,1.29a17.457,17.457,0,0,1-1.232,1.3,3.336,3.336,0,0,1-1.787.532,9.159,9.159,0,0,1-1.6-.041,6.074,6.074,0,0,1-.78-.134,2.265,2.265,0,0,1-.382-.124,2.775,2.775,0,0,1-.343-.2,5.874,5.874,0,0,1-1.18-.953,6.609,6.609,0,0,1-.9-1.148,6.957,6.957,0,0,1-.985-4.916l.013-.068.071.011a3.893,3.893,0,0,0,2.33-.286,1.9,1.9,0,0,0,.706-.637c.108-.277.176-.555.244-.8.123-.476.221-.853.292-1.126.031-.119.056-.216.078-.293a.421.421,0,0,1,.033-.1" transform="translate(114.45 1141.907)" fill="#1c262b"/>
    <path id="Trazado_716337" data-name="Trazado 716337" d="M329.461,173.547c.03-.043.271.074.537.262s.457.376.426.42-.271-.074-.537-.262-.456-.377-.426-.42" transform="translate(113.907 1142.036)" fill="#1c262b"/>
    <path id="Trazado_716338" data-name="Trazado 716338" d="M334.619,184.68a.86.86,0,0,1-.3.064,4.522,4.522,0,0,1-.827.021,5.374,5.374,0,0,1-4.423-2.848,4.5,4.5,0,0,1-.323-.762.823.823,0,0,1-.065-.3c.032-.011.158.4.506.993a5.659,5.659,0,0,0,4.316,2.779c.681.073,1.109.017,1.112.051" transform="translate(114.029 1140.885)" fill="#1c262b"/>
    <path id="Trazado_716339" data-name="Trazado 716339" d="M336.389,183.182c-.029.014-.212-.342-.565-.88a11.1,11.1,0,0,0-3.581-3.448c-.55-.332-.914-.5-.9-.532a3.8,3.8,0,0,1,.968.413,9.426,9.426,0,0,1,3.63,3.5,3.789,3.789,0,0,1,.449.951" transform="translate(113.61 1141.283)" fill="#1c262b"/>
    <path id="Trazado_716340" data-name="Trazado 716340" d="M364.2,280.771l4.421,16.561a4.633,4.633,0,0,0-7.916,3.773,7.017,7.017,0,0,0-8.387,2.708c-1.31,2.124-1.088,5.373,1.071,6.625a7.208,7.208,0,0,0,3.752.627c15.518-.208,31.132.362,46.651.153a9.915,9.915,0,0,0,3.912-.582c2.356-1.044,3.438-4.543,3.663-7.11a13.651,13.651,0,0,0-17.279-14.336c1.189-3.514-1.709-7.519-5.343-8.265s-7.431,1.187-9.768,4.068-3.445,6.56-4.155,10.2c-1.959-3.125-8.117-11.748-10.077-14.873" transform="translate(110.438 1125.24)" fill="#e03848"/>
    <path id="Trazado_716341" data-name="Trazado 716341" d="M364.2,280.771l4.421,16.561a4.633,4.633,0,0,0-7.916,3.773,7.017,7.017,0,0,0-8.387,2.708c-1.31,2.124-1.088,5.373,1.071,6.625a7.208,7.208,0,0,0,3.752.627c15.518-.208,31.132.362,46.651.153a9.915,9.915,0,0,0,3.912-.582c2.356-1.044,3.438-4.543,3.663-7.11a13.651,13.651,0,0,0-17.279-14.336c1.189-3.514-1.709-7.519-5.343-8.265s-7.431,1.187-9.768,4.068-3.445,6.56-4.155,10.2c-1.959-3.125-8.117-11.748-10.077-14.873" transform="translate(110.438 1125.24)" fill="#dceff2"/>
    <path id="Trazado_716342" data-name="Trazado 716342" d="M334.336,163.1c-1.977-2.88-5.773-3.2-5.773-3.2-9.781-.821-11.355,6.282-12.175,8.076-.49,1.07-2.139,4.5-2.753,5.6-.248.445-.856.449-1.445.323l-1.526-1.272-.86-.532-3.592-1.044a4.259,4.259,0,0,0-2.79-.94c-6-.334-9.112,6-9.668,7-.52.938-5.147,7.448-5.719,8.253-.039.052-.076.1-.116.152-.479.586-3.762,4.664-4.277,6.93-.363,1.6,2.036,5.058,3.736,7.255a2.9,2.9,0,0,0,3.741.743l2.333-1.332.06.276-3.544,7.544-3.65,30.947c.291-.655-.348,3.314-.988,8.166a12.755,12.755,0,0,0,.237,4.926s-.073.411-.139,1.033l0,.021c-.015.155-.032.324-.046.5-.11,1.208-.376,4.247-.448,6.247-.048,1.309.3,7.473.646,13.148-.715.8-.592,2.2-.628,3.363-.073,2.291-1.209,4.39-2.146,6.481s-1.7,4.457-1.016,6.643a5.652,5.652,0,0,0,3.494,3.557,5.932,5.932,0,0,0,6.328-1.739c1.31-1.556,1.7-3.662,2.05-5.666.718-4.142,1.412-8.478.953-12.6l2.629-12.446.516-2.2a4.791,4.791,0,0,0,.457-.3c.782-.559,5.816-23.282,5.816-23.282l-1.118,15.776.559,3.245s-.559,1.119-1.434,3.133-1.1,28.58-1.1,28.58-.989,2.794-1.075,3.23a20.985,20.985,0,0,0-.821,4.123l24.47,0c3.147-3.147-10.9-7.356-10.9-7.356h-.408a.281.281,0,0,0,.063-.121c.37-1.6,3.167-27.348,3.166-27.34a6,6,0,0,0,1.7-3.581,10.324,10.324,0,0,0-.894-5.371l.21-5.016c.5-4.349,2.424-26.009,2.759-27.1s-1.672-3.93-1.672-3.93a22.1,22.1,0,0,0,3.279-2.933c.346,2.751.615,5.154.593,5.771-.062,1.623,3.448,2.893,3.448,2.893l6.211-4.728V207.3c0-.072-.635-.846-1.059-1.622S326.22,187.7,326.22,187.7l-.072.122.019-.04-2.023-3.245-2.755-2.053-1.849,1.509c-.683-1.771-1.206-6.663-.838-7.648.41-1.094,3.959-6.914,6.668-8.369a5.685,5.685,0,0,1,7.17,1.023c1.727,1.714.8,5.261.8,5.261a10.259,10.259,0,0,0,2.414-3.633,9.269,9.269,0,0,0-1.416-7.53" transform="translate(121.447 1144.191)" fill="#fff"/>
    <path id="Trazado_716343" data-name="Trazado 716343" d="M287.822,242.451a8.9,8.9,0,0,0,3.322,1.289,3.735,3.735,0,0,0,3.691-.871c1.072-1.193.9-3,1.074-4.592a30.456,30.456,0,0,1,1.4-5.222c1.449-4.935,1.357-10.173,1.252-15.316a1.278,1.278,0,0,0-.21-.825.877.877,0,0,0-1.179,0,2.548,2.548,0,0,0-.671,1.1c-3.007,7.663-5.687,13.132-8.27,20.949" transform="translate(120.456 1135.25)" fill="#e0f1f1"/>
    <path id="Trazado_716344" data-name="Trazado 716344" d="M323.521,188.039a.722.722,0,0,1,.061.126,1.888,1.888,0,0,1,.07.4,8.46,8.46,0,0,1-.1,1.567,50.882,50.882,0,0,1-1.23,5.631c-.157.588-.325,1.2-.511,1.841s-.369,1.3-.639,1.975c-.533,1.341-1.39,2.627-1.921,4.135a29.934,29.934,0,0,0-1.167,4.887,26.184,26.184,0,0,1-1.367,5.25,32.366,32.366,0,0,0-1.839,5.072,36.979,36.979,0,0,0-.57,5,22.846,22.846,0,0,1-.788,4.506,31.73,31.73,0,0,1-1.308,3.764,25.989,25.989,0,0,1-2.751,5.062,11.66,11.66,0,0,1-1,1.205l-.3.28a.835.835,0,0,1-.105.09.861.861,0,0,1,.093-.105l.283-.292a13.282,13.282,0,0,0,.971-1.222,26.931,26.931,0,0,0,2.687-5.071,26.62,26.62,0,0,0,2.044-8.232,36.692,36.692,0,0,1,.562-5.023,32.278,32.278,0,0,1,1.845-5.1,26.249,26.249,0,0,0,1.36-5.214,29.848,29.848,0,0,1,1.186-4.913c.547-1.531,1.411-2.816,1.94-4.134.267-.655.45-1.324.645-1.958s.362-1.248.522-1.835a55.157,55.157,0,0,0,1.287-5.607,9.224,9.224,0,0,0,.136-1.554,2.263,2.263,0,0,0-.05-.4.805.805,0,0,1-.042-.132" transform="translate(117.274 1139.755)" fill="#358e87"/>
    <path id="Trazado_716345" data-name="Trazado 716345" d="M324.038,216.552a2.18,2.18,0,0,1-.146.726,7.406,7.406,0,0,1-1.83,3.036,2.2,2.2,0,0,1-.573.468,11.315,11.315,0,0,0,2.549-4.23" transform="translate(115.161 1135.271)" fill="#358e87"/>
    <path id="Trazado_716346" data-name="Trazado 716346" d="M307.146,215.65a1.712,1.712,0,0,1,.279.086c.181.059.444.161.791.272.69.234,1.7.546,2.984.865a47.007,47.007,0,0,0,10.4,1.312l-.064.024,2.113-1.824.654-.565a2.132,2.132,0,0,0,.517-.627,2.085,2.085,0,0,0,.238-.763,3.192,3.192,0,0,0-.041-.8c-.132-1.086-.26-2.135-.381-3.135l0,.015a61.567,61.567,0,0,1-1.75-7.739c-.152-.962-.249-1.727-.308-2.252-.025-.251-.045-.45-.061-.6a1.086,1.086,0,0,1-.01-.209,1.155,1.155,0,0,1,.04.2c.022.15.051.348.089.6.077.522.191,1.284.358,2.242a67.125,67.125,0,0,0,1.814,7.7l0,.007v.008c.125,1,.256,2.048.391,3.134a3.376,3.376,0,0,1,.044.846,2.282,2.282,0,0,1-.819,1.514l-.654.565-2.114,1.822-.027.024H321.6a45.111,45.111,0,0,1-10.428-1.381c-1.281-.336-2.29-.667-2.975-.922-.345-.121-.6-.234-.782-.3a1.75,1.75,0,0,1-.266-.119" transform="translate(117.417 1137.92)" fill="#358e87"/>
    <path id="Trazado_716347" data-name="Trazado 716347" d="M314.292,221.731a7.092,7.092,0,0,1-.239-4.241c.058.008-.083.957-.013,2.128s.308,2.1.252,2.113" transform="translate(116.365 1135.122)" fill="#358e87"/>
    <path id="Trazado_716348" data-name="Trazado 716348" d="M323.039,233.53a2,2,0,0,1-.38.235c-.252.139-.613.345-1.053.605a30.187,30.187,0,0,0-6.282,4.917c-.359.366-.645.667-.839.877a2.029,2.029,0,0,1-.32.313,2,2,0,0,1,.264-.362c.178-.226.449-.542.8-.921a25.078,25.078,0,0,1,6.314-4.942c.452-.247.823-.435,1.086-.554a2.016,2.016,0,0,1,.415-.169" transform="translate(116.313 1132.6)" fill="#358e87"/>
    <path id="Trazado_716349" data-name="Trazado 716349" d="M321.67,243.164a1.452,1.452,0,0,1-.311.221c-.206.132-.509.316-.887.537-.755.442-1.811,1.031-3,1.644S315.2,246.7,314.4,247.06c-.4.18-.723.321-.95.414a1.507,1.507,0,0,1-.36.126,1.434,1.434,0,0,1,.328-.194l.924-.469c.781-.391,1.86-.931,3.044-1.543s2.248-1.181,3.019-1.592l.916-.483a1.439,1.439,0,0,1,.348-.156" transform="translate(116.481 1131.085)" fill="#358e87"/>
    <path id="Trazado_716350" data-name="Trazado 716350" d="M318.078,257.021c-.037.039-1.359-1.165-2.953-2.689s-2.858-2.791-2.821-2.829,1.358,1.165,2.953,2.69,2.858,2.789,2.821,2.828" transform="translate(116.605 1129.772)" fill="#358e87"/>
    <path id="Trazado_716351" data-name="Trazado 716351" d="M322.185,252.908c0,.057-.839.089-1.848.282s-1.805.462-1.825.409a6.939,6.939,0,0,1,3.673-.691" transform="translate(115.628 1129.559)" fill="#358e87"/>
    <path id="Trazado_716352" data-name="Trazado 716352" d="M319.43,275.912a1.5,1.5,0,0,1-.274.273l-.783.7-2.591,2.292c-1.018.891-1.958,1.677-2.661,2.218-.35.272-.64.484-.845.624a1.483,1.483,0,0,1-.33.2c-.017-.024.413-.362,1.09-.931s1.6-1.367,2.62-2.257,1.942-1.69,2.629-2.251c.343-.281.625-.5.824-.651a1.5,1.5,0,0,1,.321-.215" transform="translate(116.662 1125.934)" fill="#358e87"/>
    <path id="Trazado_716353" data-name="Trazado 716353" d="M288.675,272.382a1.416,1.416,0,0,1-.305-.222,4.254,4.254,0,0,1-.657-.791,11.211,11.211,0,0,1-1.308-3.112,16.766,16.766,0,0,1-.568-3.327,8.442,8.442,0,0,1-.008-1.025,1.373,1.373,0,0,1,.051-.372c.032,0,0,.533.092,1.386a20.389,20.389,0,0,0,.618,3.287,12.664,12.664,0,0,0,1.237,3.09,6.938,6.938,0,0,0,.848,1.087" transform="translate(120.771 1127.881)" fill="#358e87"/>
    <path id="Trazado_716354" data-name="Trazado 716354" d="M299.808,275.355c.012.06-1.177.26-2.526.848s-2.314,1.306-2.349,1.257a2.53,2.53,0,0,1,.606-.507,9.59,9.59,0,0,1,3.485-1.5,2.57,2.57,0,0,1,.785-.094" transform="translate(119.337 1126.022)" fill="#358e87"/>
    <path id="Trazado_716355" data-name="Trazado 716355" d="M296.081,283.393a11.744,11.744,0,0,1-4.656,1.276c-.008-.056,1.061-.228,2.344-.581s2.29-.747,2.312-.694" transform="translate(119.889 1124.758)" fill="#358e87"/>
    <path id="Trazado_716356" data-name="Trazado 716356" d="M302.933,248.8c-.052.014-.978-3.1-2.07-6.96s-1.935-7-1.883-7.012.977,3.1,2.069,6.96,1.935,7,1.884,7.012" transform="translate(118.702 1132.395)" fill="#358e87"/>
    <path id="Trazado_716357" data-name="Trazado 716357" d="M313.293,234.492a5.544,5.544,0,0,1-.611-.914c-.351-.581-.808-1.4-1.267-2.328s-.833-1.79-1.081-2.421a5.578,5.578,0,0,1-.356-1.041,7.068,7.068,0,0,1,.48.987c.281.616.672,1.465,1.129,2.39s.894,1.75,1.214,2.347a7.1,7.1,0,0,1,.492.981" transform="translate(116.971 1133.503)" fill="#358e87"/>
    <path id="Trazado_716358" data-name="Trazado 716358" d="M315.793,201.825a1.6,1.6,0,0,1-.308.244l-.873.614c-.737.519-1.745,1.248-2.829,2.093s-2.034,1.647-2.716,2.237l-.808.7a1.543,1.543,0,0,1-.312.24,1.585,1.585,0,0,1,.26-.295c.176-.181.438-.437.769-.744.661-.616,1.6-1.438,2.689-2.287s2.113-1.562,2.87-2.054c.379-.246.69-.439.908-.565a1.555,1.555,0,0,1,.35-.181" transform="translate(117.291 1137.587)" fill="#358e87"/>
    <path id="Trazado_716359" data-name="Trazado 716359" d="M296.469,196.862c-.03.014-.207-.355-.58-.892a8,8,0,0,0-4-3.014c-.619-.209-1.023-.276-1.017-.31a.83.83,0,0,1,.288.016,5.031,5.031,0,0,1,.769.164A7.215,7.215,0,0,1,296,195.9a4.958,4.958,0,0,1,.371.694.836.836,0,0,1,.1.273" transform="translate(119.977 1139.031)" fill="#358e87"/>
    <path id="Trazado_716360" data-name="Trazado 716360" d="M290.329,196.848c-.008.033-.351-.05-.914-.083A6.3,6.3,0,0,0,285.3,198c-.452.336-.693.595-.717.571a2.616,2.616,0,0,1,.633-.678,5.675,5.675,0,0,1,4.209-1.262,2.61,2.61,0,0,1,.9.218" transform="translate(120.965 1138.409)" fill="#358e87"/>
    <path id="Trazado_716361" data-name="Trazado 716361" d="M296.393,203.274a5.748,5.748,0,0,0-3.164-3.566,1.84,1.84,0,0,1,.7.232,4.633,4.633,0,0,1,2.318,2.612,1.839,1.839,0,0,1,.147.721" transform="translate(119.606 1137.92)" fill="#358e87"/>
    <path id="Trazado_716362" data-name="Trazado 716362" d="M304.569,207.083a4.638,4.638,0,0,1-.109-4.581L308,193.04a65.834,65.834,0,0,0,3.417-11.075c.1-.527.1-1.214-.387-1.433a.844.844,0,0,0-.94.287,2.49,2.49,0,0,0-.426.954q-3.5,12.261-7.712,24.306" transform="translate(118.233 1140.944)" fill="#e0f1f1"/>
    <path id="Trazado_716363" data-name="Trazado 716363" d="M304.553,307.711c.016-.034.618.291,1.66.619a14.069,14.069,0,0,0,4.206.586,18.509,18.509,0,0,0,4.224-.533,3.948,3.948,0,0,0,1.172-.508c.252-.169.367-.3.38-.284s-.02.039-.073.1a2.056,2.056,0,0,1-.263.243,3.63,3.63,0,0,1-1.177.578,16.529,16.529,0,0,1-4.262.6,13,13,0,0,1-4.25-.649,10.092,10.092,0,0,1-1.2-.506,2.287,2.287,0,0,1-.414-.242" transform="translate(117.824 1120.95)" fill="#358e87"/>
    <path id="Trazado_716364" data-name="Trazado 716364" d="M316.885,308.449a.917.917,0,0,1,.3.01,6.562,6.562,0,0,1,.806.139,9.392,9.392,0,0,1,4.642,2.641,6.547,6.547,0,0,1,.532.622c.115.155.173.244.163.253-.025.02-.3-.308-.79-.779a10.8,10.8,0,0,0-4.579-2.6c-.657-.184-1.078-.249-1.074-.281" transform="translate(115.885 1120.816)" fill="#358e87"/>
    <path id="Trazado_716365" data-name="Trazado 716365" d="M318.537,312.3c-.054.02-.41-.865-1.006-1.875s-1.189-1.755-1.145-1.792a8.412,8.412,0,0,1,2.151,3.668" transform="translate(115.963 1120.786)" fill="#358e87"/>
    <path id="Trazado_716366" data-name="Trazado 716366" d="M313.888,313.095a4.272,4.272,0,0,1,.446-3.757,7.307,7.307,0,0,0-.446,3.757" transform="translate(116.396 1120.676)" fill="#358e87"/>
    <path id="Trazado_716367" data-name="Trazado 716367" d="M308.691,313.229a4.643,4.643,0,0,1,.87-4.01,7.513,7.513,0,0,0-.87,4.01" transform="translate(117.197 1120.695)" fill="#358e87"/>
    <path id="Trazado_716368" data-name="Trazado 716368" d="M331.991,196.29c.046.025-1.049,2.135-2.448,4.71s-2.57,4.644-2.617,4.619,1.049-2.134,2.448-4.711,2.571-4.643,2.617-4.618" transform="translate(114.306 1138.457)" fill="#358e87"/>
    <path id="Trazado_716369" data-name="Trazado 716369" d="M295.832,198.77c.008-.01.087.047.221.16a3.875,3.875,0,0,1,.519.537,5.275,5.275,0,0,1,.607.929,6.263,6.263,0,0,1,.469,1.276,6.11,6.11,0,0,1,.153,1.352,5.268,5.268,0,0,1-.124,1.1,3.747,3.747,0,0,1-.222.712c-.069.162-.113.248-.125.243-.035-.013.11-.372.214-.981a6.2,6.2,0,0,0,.08-1.075,6.777,6.777,0,0,0-.165-1.308,6.633,6.633,0,0,0-.441-1.241,6.075,6.075,0,0,0-.555-.924c-.366-.5-.657-.754-.632-.78" transform="translate(119.196 1138.067)" fill="#358e87"/>
    <path id="Trazado_716370" data-name="Trazado 716370" d="M297.513,197.88c.019-.013.149.123.292.39a2.955,2.955,0,0,1,.159,2.3c-.1.285-.214.437-.234.427a4.153,4.153,0,0,0-.217-3.119" transform="translate(118.932 1138.208)" fill="#358e87"/>
    <path id="Trazado_716371" data-name="Trazado 716371" d="M305.565,184.838a3.185,3.185,0,0,1-.249.5c-.171.319-.426.774-.751,1.332-.648,1.117-1.575,2.642-2.613,4.316l-2.66,4.284-.8,1.3a3.315,3.315,0,0,1-.313.466,2.967,2.967,0,0,1,.248-.5c.171-.318.427-.774.752-1.332.647-1.117,1.574-2.642,2.612-4.316,1.03-1.658,1.96-3.158,2.659-4.283.326-.526.6-.963.8-1.3a3.089,3.089,0,0,1,.314-.466" transform="translate(118.828 1140.259)" fill="#358e87"/>
    <path id="Trazado_716372" data-name="Trazado 716372" d="M298.773,202.118a3.175,3.175,0,0,0,.535-2.98,7.476,7.476,0,0,0,1.567-1.076,2.531,2.531,0,0,0,.828-1.665c.013-.343-.068-.686-.038-1.028a3.074,3.074,0,0,1,.43-1.166c.722-1.342,1.516-2.647,2.142-4.036a10.89,10.89,0,0,0,1.088-4.4,8.406,8.406,0,0,0-2.113,3.179c-1.155,2.3-2.728,4.366-4.088,6.554a7.181,7.181,0,0,0-.923,1.919,7.9,7.9,0,0,0-.129,2.43l.076,1.523a.69.69,0,0,0,.13.448c.108.115.344.112.39-.04" transform="translate(118.849 1140.113)" fill="#e0f1f1"/>
    <path id="Trazado_716373" data-name="Trazado 716373" d="M294.721,294.637a.663.663,0,0,1-.009.186c-.012.121-.036.3-.076.528a8.876,8.876,0,0,1-.541,1.886,5.527,5.527,0,0,1-1.735,2.33,4.328,4.328,0,0,1-1.577.727,3.668,3.668,0,0,1-1.865-.028,2.984,2.984,0,0,1-1.535-1.06,4.332,4.332,0,0,1-.728-1.577,9.941,9.941,0,0,1-.169-2.906c.043-.824.06-1.488.035-1.948s-.062-.711-.046-.715a.769.769,0,0,1,.047.18c.024.12.051.3.074.528a16.038,16.038,0,0,1,.027,1.958,10.183,10.183,0,0,0,.2,2.858,4.184,4.184,0,0,0,.705,1.505,2.814,2.814,0,0,0,1.44.991,3.9,3.9,0,0,0,3.282-.658,5.488,5.488,0,0,0,1.715-2.241,9.985,9.985,0,0,0,.592-1.847c.1-.449.143-.7.158-.7" transform="translate(120.671 1123.394)" fill="#358e87"/>
    <path id="Trazado_716374" data-name="Trazado 716374" d="M285.56,309.842a1.158,1.158,0,0,1-.016-.342,9.113,9.113,0,0,1,.064-.928,13.13,13.13,0,0,1,2.1-5.725,9.07,9.07,0,0,1,.55-.75c.14-.169.222-.259.233-.251.025.019-.263.409-.668,1.074a15.356,15.356,0,0,0-2.076,5.671c-.12.769-.151,1.253-.183,1.251" transform="translate(120.814 1121.854)" fill="#358e87"/>
    <path id="Trazado_716375" data-name="Trazado 716375" d="M291.068,308.266a3.7,3.7,0,0,1-.266-.9,14.871,14.871,0,0,1-.319-2.243,15.092,15.092,0,0,1,.021-2.266,3.758,3.758,0,0,1,.147-.927,5.742,5.742,0,0,1-.01.935c-.019.575-.023,1.369.035,2.245s.166,1.662.26,2.23a5.852,5.852,0,0,1,.133.926" transform="translate(120.042 1121.841)" fill="#358e87"/>
    <path id="Trazado_716376" data-name="Trazado 716376" d="M294.741,304.367a7.936,7.936,0,0,0-1.7-3.519,4.588,4.588,0,0,1,1.7,3.519" transform="translate(119.635 1122.012)" fill="#358e87"/>
    <path id="Trazado_716377" data-name="Trazado 716377" d="M327.887,215.437a5.081,5.081,0,0,0,2.149-5.307c-.306-1.293-1.122-2.431-1.349-3.74-.3-1.729,1.276-5.056,1.747-6.682,0,0-1.974,3.924-2.545,4.846s-1.027,1.29-.891,2.367a22.376,22.376,0,0,0,.508,2.391c.581,2.32,1.058,5.215.381,6.124" transform="translate(114.298 1137.92)" fill="#e0f1f1"/>
    <path id="Trazado_716378" data-name="Trazado 716378" d="M307.144,267.519c1.176-1.6,2.393-3.3,2.619-5.276a11.5,11.5,0,0,0-.187-3.017c-.529-3.509-1.173-7.4-1.7-10.915,0,0-.876,15.084-.972,15.117l.56,3.244-.351.73Z" transform="translate(117.455 1130.275)" fill="#e0f1f1"/>
    <path id="Trazado_716379" data-name="Trazado 716379" d="M310.292,260.918c.029.008-.092.525-.145,1.382-.031.427-.051.94-.115,1.51a5.909,5.909,0,0,1-.462,1.814,14.342,14.342,0,0,1-.918,1.621l-.8,1.281c-.231.363-.421.656-.555.855a1.447,1.447,0,0,1-.226.3,1.37,1.37,0,0,1,.162-.339c.115-.212.287-.515.5-.887l.768-1.3a16.323,16.323,0,0,0,.894-1.606,6.077,6.077,0,0,0,.461-1.757c.072-.56.106-1.072.155-1.5a8.145,8.145,0,0,1,.165-1.011,1.238,1.238,0,0,1,.115-.358" transform="translate(117.429 1128.291)" fill="#358e87"/>
    <path id="Trazado_716380" data-name="Trazado 716380" d="M333.4,165.6a.991.991,0,0,1-.185.128c-.122.082-.312.185-.542.342a16.344,16.344,0,0,0-1.875,1.414,15.581,15.581,0,0,0-5.273,13.889,16.249,16.249,0,0,0,.464,2.3c.067.27.141.473.178.614a.986.986,0,0,1,.053.219,1.018,1.018,0,0,1-.089-.206c-.049-.138-.135-.338-.214-.606a14.323,14.323,0,0,1-.527-2.3,15.321,15.321,0,0,1,5.319-14.011,14.25,14.25,0,0,1,1.924-1.375c.237-.148.434-.241.563-.312a.969.969,0,0,1,.2-.094" transform="translate(114.572 1143.284)" fill="#358e87"/>
    <path id="Trazado_716381" data-name="Trazado 716381" d="M321.752,176.084a1.959,1.959,0,0,1-.041-.442,4.659,4.659,0,0,1-.006-.52c.007-.2.005-.434.035-.688a11.719,11.719,0,0,1,.283-1.772,12.274,12.274,0,0,1,1.766-4.01,11.66,11.66,0,0,1,1.116-1.406c.168-.193.34-.348.485-.49a4.744,4.744,0,0,1,.387-.346,1.936,1.936,0,0,1,.354-.268c.024.028-.459.433-1.124,1.195a13.387,13.387,0,0,0-1.069,1.414A13.1,13.1,0,0,0,322.2,172.7a13.375,13.375,0,0,0-.321,1.744c-.113,1.005-.085,1.636-.122,1.637" transform="translate(115.127 1143.2)" fill="#358e87"/>
    <path id="Trazado_716382" data-name="Trazado 716382" d="M323,186.9c-.047.024-1.053-1.885-2.244-4.263s-2.119-4.326-2.072-4.35,1.053,1.885,2.244,4.264,2.119,4.326,2.072,4.349" transform="translate(115.601 1141.29)" fill="#358e87"/>
    <path id="Trazado_716383" data-name="Trazado 716383" d="M308.248,246.465a45.232,45.232,0,0,0,5.6-6.317A14.223,14.223,0,0,1,315.8,237.8a3.962,3.962,0,0,1,2.767-1.106.994.994,0,0,1,.922.51,1.131,1.131,0,0,1-.252.967,22.58,22.58,0,0,1-5.938,5.5,12.229,12.229,0,0,1-5.041,2.564" transform="translate(117.243 1132.103)" fill="#e0f1f1"/>
    <path id="Trazado_716384" data-name="Trazado 716384" d="M287.364,206.516c.4.525-3.371,7.145-3.371,7.145l2.427.421,3.816-6.565Z" transform="translate(121.058 1136.849)" fill="#1c262b"/>
    <path id="Trazado_716385" data-name="Trazado 716385" d="M294.853,216.935a7.964,7.964,0,0,0-9.889-3.855c-1.795.663-3.591,1.33-3.923,2.06-.958,2.115-6.334,19.787-6.334,19.787l15.784,3.729s4.881-16.238,5.142-17.2a6.512,6.512,0,0,0-.78-4.523" transform="translate(122.519 1135.895)" fill="#354952"/>
    <path id="Trazado_716386" data-name="Trazado 716386" d="M312.011,174.209l-3.165-.92c1.077,3.5-8.8,28.6-8.8,28.6l-4.485,9.183,2.161,1.228,4.27-8.908Z" transform="translate(119.238 1142.075)" fill="#1c262b"/>
    <rect id="Rectángulo_353791" data-name="Rectángulo 353791" width="2.179" height="17.319" transform="matrix(0.305, -0.952, 0.952, 0.305, 396.713, 1370.728)" fill="#1c262b"/>
    <rect id="Rectángulo_353792" data-name="Rectángulo 353792" width="9.492" height="7.766" transform="translate(405.389 1367.021) rotate(-72.251)" fill="#d8d8d8"/>
    <path id="Trazado_716387" data-name="Trazado 716387" d="M291.794,235.276l-7.413-2.372,2.9-9.058.009,0,7.4,2.371,0,.009Zm-7.391-2.385,7.379,2.362,2.888-9.023-7.378-2.362Z" transform="translate(120.997 1134.123)" fill="#1c262b"/>
    <path id="Trazado_716388" data-name="Trazado 716388" d="M294.509,202.278s-1.721-.676-2.776,0-2.366,2.858-2.033,3.95,3.3,5.1,3.3,5.1,3.87,4.292,5.347,2.815c0,0,2.747,1.983,3.344,1.307.424-.48-.189-1.312-.107-1.166.175.313,1.266.731,1.732.271.271-.266-.119-1.262-.416-1.594-.316-.351.957.486,1.444-.189.417-.579-1.845-2.359-1.845-2.359a27.381,27.381,0,0,1-3.236-2.955,1.81,1.81,0,0,1,.07-1.477l.287-.749-3.172-1.08a25.135,25.135,0,0,1-1.938-1.872" transform="translate(120.169 1137.563)" fill="#f2f2f2"/>
    <path id="Trazado_716389" data-name="Trazado 716389" d="M294.5,202.272a.479.479,0,0,1,.08.07l.222.216.854.838c.188.179.4.383.635.587a.73.73,0,0,0,.186.126l.241.08.51.169,2.4.8.063.021-.024.063-.284.751h0l0,.005a2.2,2.2,0,0,0-.2.747,1.107,1.107,0,0,0,.188.749,10.752,10.752,0,0,0,1.254,1.234c.46.406.946.815,1.452,1.23a18.9,18.9,0,0,1,1.533,1.326,4.964,4.964,0,0,1,.686.818.875.875,0,0,1,.166.564.39.39,0,0,1-.071.159.787.787,0,0,1-.105.113.721.721,0,0,1-.271.145,2.1,2.1,0,0,1-1.121-.126c-.014-.006-.051-.006-.023-.008a.091.091,0,0,0,.028-.015.1.1,0,0,0,.026-.04.064.064,0,0,0,0-.04v0l.006.008.088.109a2.117,2.117,0,0,1,.154.248,3.088,3.088,0,0,1,.223.533,1.575,1.575,0,0,1,.083.6.527.527,0,0,1-.046.167.391.391,0,0,1-.116.138.781.781,0,0,1-.286.147,1.724,1.724,0,0,1-1.188-.183,1.166,1.166,0,0,1-.26-.18.394.394,0,0,1-.059-.064l-.027-.038a.093.093,0,0,1-.013-.02l-.007-.013a.106.106,0,0,1-.01-.033c-.045-.023.288-.15.162-.082a.8.8,0,0,1,.1.148,1.574,1.574,0,0,1,.192.594.717.717,0,0,1-.222.619.788.788,0,0,1-.65.1,5.336,5.336,0,0,1-1.467-.613,15.33,15.33,0,0,1-1.3-.828l.123-.01a1.188,1.188,0,0,1-.843.334,2.335,2.335,0,0,1-.857-.183,6.591,6.591,0,0,1-1.447-.844,17.4,17.4,0,0,1-2.333-2.13l0,0,0,0q-.89-1.217-1.668-2.363c-.517-.763-1-1.5-1.392-2.23a3.279,3.279,0,0,1-.244-.574,1.621,1.621,0,0,1-.029-.612,3.846,3.846,0,0,1,.324-1.086A6.42,6.42,0,0,1,291,202.844a3.537,3.537,0,0,1,.641-.571,1.952,1.952,0,0,1,.706-.288,3.446,3.446,0,0,1,1.195.012,4.884,4.884,0,0,1,.72.18c.079.027.139.05.179.067a.2.2,0,0,1,.058.029.284.284,0,0,1-.063-.015l-.182-.052a6.018,6.018,0,0,0-.72-.153,3.481,3.481,0,0,0-1.169.013,1.894,1.894,0,0,0-.671.286,3.536,3.536,0,0,0-.616.565,6.393,6.393,0,0,0-1.05,1.644,2.176,2.176,0,0,0-.04,2.152c.393.719.878,1.449,1.4,2.207s1.08,1.543,1.674,2.349l-.005-.006a17.5,17.5,0,0,0,2.312,2.1,6.474,6.474,0,0,0,1.406.817,2.146,2.146,0,0,0,.787.169,1,1,0,0,0,.71-.279l.057-.057.067.047a14.891,14.891,0,0,0,1.285.816,5.182,5.182,0,0,0,1.408.591.615.615,0,0,0,.492-.06.531.531,0,0,0,.153-.456,1.37,1.37,0,0,0-.169-.517l-.034-.06-.018-.027-.008-.013,0,0v0a.183.183,0,0,0,.046-.037c.019-.018.018-.033.036-.029a.1.1,0,0,0,.052-.024c.041-.019.015-.006.023-.009v0l.008.01.016.021a.262.262,0,0,0,.04.043,1,1,0,0,0,.218.149,1.54,1.54,0,0,0,1.046.169.583.583,0,0,0,.218-.111.226.226,0,0,0,.1-.181,1.424,1.424,0,0,0-.075-.518,2.863,2.863,0,0,0-.209-.5,1.89,1.89,0,0,0-.139-.225l-.087-.107a.21.21,0,0,1-.03-.051l-.008-.02a.138.138,0,0,1,0-.056c0-.034.074-.084.078-.075a.253.253,0,0,1,.114.007,1.965,1.965,0,0,0,1.026.132.54.54,0,0,0,.2-.108.325.325,0,0,0,.116-.167.731.731,0,0,0-.142-.435,4.812,4.812,0,0,0-.657-.789,18.931,18.931,0,0,0-1.515-1.321c-.5-.419-.99-.831-1.45-1.241a10.683,10.683,0,0,1-1.27-1.268,1.252,1.252,0,0,1-.208-.844,2.329,2.329,0,0,1,.216-.8l0,.006.292-.748.039.085-2.394-.83-.508-.177-.239-.083a.781.781,0,0,1-.213-.147c-.24-.212-.444-.418-.629-.6-.367-.37-.644-.663-.83-.863l-.209-.228a.508.508,0,0,1-.067-.083" transform="translate(120.182 1137.568)" fill="#1c262b"/>
    <path id="Trazado_716390" data-name="Trazado 716390" d="M299.487,216a4.921,4.921,0,0,1-1.358-1.022,16.654,16.654,0,0,1-1.227-1.164,4.919,4.919,0,0,1,1.358,1.022A16.426,16.426,0,0,1,299.487,216" transform="translate(119.028 1135.701)" fill="#1c262b"/>
    <path id="Trazado_716391" data-name="Trazado 716391" d="M303.139,216.1a3.351,3.351,0,0,1-.589-.419l-1.38-1.055c-1.077-.825-1.969-1.467-1.941-1.511a11.364,11.364,0,0,1,2.058,1.358,10.331,10.331,0,0,1,1.851,1.627" transform="translate(118.662 1135.811)" fill="#1c262b"/>
    <path id="Trazado_716392" data-name="Trazado 716392" d="M304.658,214.432a2.1,2.1,0,0,1-.619-.255,9.117,9.117,0,0,1-1.363-.864,11.574,11.574,0,0,1-1.2-1.076,2.179,2.179,0,0,1-.432-.51c.044-.046.771.667,1.748,1.433s1.894,1.215,1.864,1.271" transform="translate(118.376 1136.029)" fill="#1c262b"/>
    <path id="Trazado_716393" data-name="Trazado 716393" d="M349.137,236.276l-2.515-3.113-.708-.876-7.032-9.014-5.259,4L341,234.241l.848,5.258,5.425-1.952s2.312,2.595,2.682,2.883,1.16-.27.775-1.329c-.147-.4-1.59-2.825-1.59-2.825" transform="translate(113.252 1134.213)" fill="#f2f2f2"/>
    <path id="Trazado_716394" data-name="Trazado 716394" d="M349.109,236.253a.919.919,0,0,1,.093.135l.251.405c.217.359.538.887.93,1.578a2.678,2.678,0,0,1,.469,1.243,1.006,1.006,0,0,1-.271.725.647.647,0,0,1-.381.195.464.464,0,0,1-.23-.034.825.825,0,0,1-.181-.135c-.409-.394-.813-.836-1.246-1.3l-.662-.724-.343-.378-.174-.193-.088-.1-.044-.049c-.005-.006-.021-.023-.016-.019a.023.023,0,0,0,.025-.007l.024,0-5.42,1.964-.1.035-.017-.1c-.265-1.634-.554-3.406-.854-5.256l.028.052-4.743-4.476-2.63-2.486-.082-.077.089-.068,5.263-4,.07-.053.054.069,7.314,9.419,2.126,2.672.559.714.141.186a.321.321,0,0,1,.044.066.314.314,0,0,1-.056-.057l-.153-.177-.581-.7-2.164-2.638c-1.824-2.286-4.37-5.55-7.37-9.378l.124.016-5.254,4.009.008-.145,2.631,2.484,4.739,4.481.023.021.005.031c.3,1.851.58,3.624.841,5.258l-.114-.067,5.43-1.939.019-.006.007,0a.209.209,0,0,1,.069.043l.028.031.044.049.087.1.173.194.34.38.656.728c.429.469.832.917,1.23,1.307a.415.415,0,0,0,.638-.018.909.909,0,0,0,.247-.649,2.611,2.611,0,0,0-.441-1.2c-.381-.7-.69-1.231-.9-1.6l-.233-.416a.9.9,0,0,1-.074-.146" transform="translate(113.279 1134.236)" fill="#1c262b"/>
    <path id="Trazado_716395" data-name="Trazado 716395" d="M365.213,275.759l-.643,1.106L352.838,249.5l.921-.363Z" transform="translate(110.229 1130.146)" fill="#1c262b"/>
    <path id="Trazado_716396" data-name="Trazado 716396" d="M349.927,239.213l-2.66,1.16,3.717,9.227,2.617-1.053Z" transform="translate(111.105 1131.706)" fill="#354952"/>
    <path id="Trazado_716397" data-name="Trazado 716397" d="M341.1,234.837c-.011.013-.085-.024-.218-.105s-.329-.2-.593-.349a3.693,3.693,0,0,0-2.49-.394,7.208,7.208,0,0,0-3.414,2.177,33.765,33.765,0,0,0-3.426,4.376,40.756,40.756,0,0,1-4.36,5.291,22.579,22.579,0,0,1-6.406,4.649,16.608,16.608,0,0,1-4.124,1.312,13.541,13.541,0,0,1-4.539.051,12.434,12.434,0,0,1-10.306-14.018,16.936,16.936,0,0,1,1.273-4.333,38.063,38.063,0,0,1,1.952-3.8,53.96,53.96,0,0,0,3.636-6.836,12.987,12.987,0,0,0,1.045-6.459,10.634,10.634,0,0,0-2.089-4.969,11.452,11.452,0,0,0-3.049-2.784,12.191,12.191,0,0,0-2.391-1.109,3.669,3.669,0,0,1-.886-.3,3.316,3.316,0,0,1,.937.111,10.241,10.241,0,0,1,2.529.972,11.373,11.373,0,0,1,3.282,2.776,11.034,11.034,0,0,1,2.34,5.206,13.544,13.544,0,0,1-.977,6.844,52.669,52.669,0,0,1-3.608,6.983,37.96,37.96,0,0,0-1.878,3.723,16.209,16.209,0,0,0-1.184,4.1,11.541,11.541,0,0,0,9.527,12.959,14.187,14.187,0,0,0,8.139-1.239,22.063,22.063,0,0,0,6.214-4.41,41.645,41.645,0,0,0,4.371-5.124,32.375,32.375,0,0,1,3.6-4.361,7.421,7.421,0,0,1,3.725-2.162,3.587,3.587,0,0,1,1.6.105,3.991,3.991,0,0,1,1.053.491,3.933,3.933,0,0,1,.555.438c.115.109.169.17.158.183" transform="translate(118.428 1136.736)" fill="#1c262b"/>
    <path id="Trazado_716398" data-name="Trazado 716398" d="M348.161,243.5a4.281,4.281,0,0,0-.172-1.078.876.876,0,0,0-.348-.546c-.192-.11-.5-.019-.522.2a1.751,1.751,0,0,0-.025-.854.843.843,0,0,0-.589-.576.562.562,0,0,0-.662.4,2.366,2.366,0,0,0-.075-.919.712.712,0,0,0-1.4.03,2.362,2.362,0,0,0-.029,1,.43.43,0,0,0-.566-.335.788.788,0,0,0-.541.533,5.975,5.975,0,0,0-.052.833c0,.319,0,.359,0,.8a.568.568,0,0,0,.882.409.579.579,0,0,0,.523.6.625.625,0,0,0,.651-.513.832.832,0,0,0,.392.912.9.9,0,0,0,1.027-.158.583.583,0,0,0,.517.692.878.878,0,0,0,.8-.476,1.837,1.837,0,0,0,.185-.958" transform="translate(111.749 1131.65)" fill="#f2f2f2"/>
    <path id="Trazado_716399" data-name="Trazado 716399" d="M348.144,243.478a.66.66,0,0,1,.019.2,1.8,1.8,0,0,1-.084.587,1.032,1.032,0,0,1-.654.671.669.669,0,0,1-.6-.1.606.606,0,0,1-.249-.64l.113.067a.976.976,0,0,1-1.028.215.818.818,0,0,1-.443-.41,1.035,1.035,0,0,1-.078-.623l.166.018a.579.579,0,0,1-.23.423.777.777,0,0,1-.456.175.663.663,0,0,1-.662-.69l.149.077a.651.651,0,0,1-.811-.039.591.591,0,0,1-.222-.39c-.008-.147,0-.266,0-.4,0-.265,0-.533.008-.808.006-.137.014-.276.033-.417a.678.678,0,0,1,.2-.421,1.053,1.053,0,0,1,.269-.2.671.671,0,0,1,.337-.089.509.509,0,0,1,.5.448l-.191.014a2.364,2.364,0,0,1,.044-1.068.885.885,0,0,1,.828-.63.9.9,0,0,1,.745.657,2.506,2.506,0,0,1,.064.919l-.165-.019a.63.63,0,0,1,.605-.473.782.782,0,0,1,.634.332,1.5,1.5,0,0,1,.181,1.2l-.124-.017a.33.33,0,0,1,.2-.256.475.475,0,0,1,.292-.031.588.588,0,0,1,.378.338,2.89,2.89,0,0,1,.2.741,3.532,3.532,0,0,1,.042.474.541.541,0,0,1-.009.164c-.015,0-.019-.224-.1-.626a3.1,3.1,0,0,0-.223-.708.5.5,0,0,0-.313-.274c-.138-.03-.334.045-.345.191l-.123-.017a1.384,1.384,0,0,0-.174-1.085.636.636,0,0,0-.512-.265.473.473,0,0,0-.448.346l-.164-.019a2.411,2.411,0,0,0-.064-.856.73.73,0,0,0-.59-.53.709.709,0,0,0-.641.511,2.231,2.231,0,0,0-.028.983l-.191.014a.319.319,0,0,0-.321-.263.724.724,0,0,0-.46.228.478.478,0,0,0-.146.314c-.018.131-.028.265-.033.4-.013.268-.009.537-.01.8,0,.127,0,.271,0,.383a.4.4,0,0,0,.152.265.469.469,0,0,0,.575.044l.168-.142-.018.218a.488.488,0,0,0,.475.5.537.537,0,0,0,.523-.429l.166.018a.743.743,0,0,0,.412.86.835.835,0,0,0,.876-.169l.2-.193-.082.261a.479.479,0,0,0,.193.5.55.55,0,0,0,.5.093.953.953,0,0,0,.611-.593,2.01,2.01,0,0,0,.118-.561.979.979,0,0,1,.019-.2" transform="translate(111.766 1131.668)" fill="#1c262b"/>
    <path id="Trazado_716400" data-name="Trazado 716400" d="M344.2,243.766a6.027,6.027,0,0,1,.151-1.268c.1-.69.054-1.253.106-1.262a2.269,2.269,0,0,1,.084,1.288,3.4,3.4,0,0,1-.341,1.242" transform="translate(111.591 1131.388)" fill="#1c262b"/>
    <path id="Trazado_716401" data-name="Trazado 716401" d="M346.206,241.186a3.517,3.517,0,0,1-.125,1.342,3.361,3.361,0,0,1-.47,1.263,8.182,8.182,0,0,1,.282-1.305,7.241,7.241,0,0,1,.313-1.3" transform="translate(111.368 1131.396)" fill="#1c262b"/>
    <path id="Trazado_716402" data-name="Trazado 716402" d="M347.818,242.21a2.974,2.974,0,0,1-.552,2.507c-.05-.028.225-.542.373-1.232s.121-1.27.179-1.275" transform="translate(111.107 1131.234)" fill="#1c262b"/>
    <path id="Trazado_716403" data-name="Trazado 716403" d="M298.669,292.482a15.88,15.88,0,0,0-17.163-.459c-.111-4.231-.292-8.7-2.571-12.266s-7.454-5.64-10.883-3.16c1.616-7.064-4.042-14.889-11.257-15.566s-14.231,5.96-13.955,13.2c-5.15-10.208-17.781-16-28.875-13.231s-19.532,13.8-19.29,25.235a18.264,18.264,0,0,0-26.359,16.4c-7.158-4.765-18.144-1.8-22.794,5.436H304.961a15.276,15.276,0,0,0-6.292-15.588" transform="translate(142.839 1128.387)" fill="#e03848"/>
    <path id="Trazado_716404" data-name="Trazado 716404" d="M298.669,292.482a15.88,15.88,0,0,0-17.163-.459c-.111-4.231-.292-8.7-2.571-12.266s-7.454-5.64-10.883-3.16c1.616-7.064-4.042-14.889-11.257-15.566s-14.231,5.96-13.955,13.2c-5.15-10.208-17.781-16-28.875-13.231s-19.532,13.8-19.29,25.235a18.264,18.264,0,0,0-26.359,16.4c-7.158-4.765-18.144-1.8-22.794,5.436H304.961a15.276,15.276,0,0,0-6.292-15.588" transform="translate(142.839 1128.387)" fill="#dceff2"/>
    <path id="Trazado_716405" data-name="Trazado 716405" d="M224.666,166.279c-1.174,1.391-.977,3.453-.584,5.23s.907,3.689.185,5.36a14,14,0,0,1-1.712,2.464,3.43,3.43,0,0,0-.777,2.8c.308,1.116,1.445,1.757,2.478,2.279a2.21,2.21,0,0,0,.373,2.751,3.472,3.472,0,0,0,2.8.831,8.531,8.531,0,0,0,2.842-.978c1.467-.735,2.984-1.7,3.531-3.248a6.918,6.918,0,0,0-.22-4.042,94.805,94.805,0,0,0-5.516-15.26" transform="translate(130.856 1143.462)" fill="#1c262b"/>
    <path id="Trazado_716406" data-name="Trazado 716406" d="M239.27,167.241l2.1,18.085-9.046,1.106c-.267-1.028-1.014-5.064-1.014-5.064s-3.822.18-4.623-3.513c-.389-1.794-.891-5.563-1.3-8.966a6.994,6.994,0,1,1,13.891-1.649" transform="translate(130.286 1144)" fill="#f7ac8b"/>
    <path id="Trazado_716407" data-name="Trazado 716407" d="M232.417,184.732a8.787,8.787,0,0,0,4.547-2.358s-.6,2.9-4.36,3.319Z" transform="translate(129.171 1140.646)" fill="#e88559"/>
    <path id="Trazado_716408" data-name="Trazado 716408" d="M227.331,173.187a.54.54,0,0,0,.619.43.517.517,0,0,0,.448-.588.54.54,0,0,0-.619-.43.516.516,0,0,0-.448.588" transform="translate(129.972 1142.185)" fill="#1c262b"/>
    <path id="Trazado_716409" data-name="Trazado 716409" d="M226.793,172.3c.079.056.42-.323.989-.437s1.044.085,1.091,0c.024-.037-.067-.147-.276-.244a1.48,1.48,0,0,0-.892-.087,1.423,1.423,0,0,0-.77.434c-.147.17-.181.307-.142.331" transform="translate(130.058 1142.355)" fill="#1c262b"/>
    <path id="Trazado_716410" data-name="Trazado 716410" d="M233.773,172.165a.54.54,0,0,0,.619.43.517.517,0,0,0,.448-.588.54.54,0,0,0-.619-.43.516.516,0,0,0-.448.588" transform="translate(128.959 1142.346)" fill="#1c262b"/>
    <path id="Trazado_716411" data-name="Trazado 716411" d="M233.456,171.07c.08.056.421-.323.989-.437s1.044.085,1.092,0c.024-.037-.067-.148-.277-.243a1.472,1.472,0,0,0-.892-.088,1.421,1.421,0,0,0-.769.434c-.147.17-.181.307-.143.331" transform="translate(129.01 1142.549)" fill="#1c262b"/>
    <path id="Trazado_716412" data-name="Trazado 716412" d="M231.742,175.832a3.838,3.838,0,0,0-.958.022c-.148.014-.292.013-.336-.08a.753.753,0,0,1,.008-.451q.1-.569.2-1.194a19.367,19.367,0,0,0,.374-3.091,19.455,19.455,0,0,0-.622,3.054c-.064.418-.126.816-.185,1.2a.858.858,0,0,0,.041.586.373.373,0,0,0,.282.164.982.982,0,0,0,.254-.017,3.794,3.794,0,0,0,.937-.19" transform="translate(129.52 1142.429)" fill="#1c262b"/>
    <path id="Trazado_716413" data-name="Trazado 716413" d="M233.832,176.789c-.094.013.031.631-.408,1.178s-1.111.613-1.1.7c0,.04.171.09.451.041a1.573,1.573,0,0,0,.924-.549,1.371,1.371,0,0,0,.3-.979c-.029-.264-.13-.4-.171-.39" transform="translate(129.185 1141.524)" fill="#1c262b"/>
    <path id="Trazado_716414" data-name="Trazado 716414" d="M232.743,168.478c.087.143.64-.046,1.324-.1s1.262.016,1.322-.141c.025-.074-.1-.2-.346-.307a2.314,2.314,0,0,0-2.017.185c-.225.149-.322.3-.283.364" transform="translate(129.121 1142.941)" fill="#1c262b"/>
    <path id="Trazado_716415" data-name="Trazado 716415" d="M226.64,170.291c.126.109.491-.105.962-.208.466-.119.888-.091.952-.244.027-.074-.062-.19-.262-.277a1.422,1.422,0,0,0-1.542.365c-.139.167-.167.311-.11.365" transform="translate(130.084 1142.676)" fill="#1c262b"/>
    <path id="Trazado_716416" data-name="Trazado 716416" d="M240.813,170.7c.057-.04,2.391-1.272,2.826,1.276a1.943,1.943,0,0,1-2.229,2.388c-.017-.072-.6-3.664-.6-3.664" transform="translate(127.85 1142.535)" fill="#f7ac8b"/>
    <path id="Trazado_716417" data-name="Trazado 716417" d="M242.225,173.411c.01-.01.05.024.131.045a.449.449,0,0,0,.333-.05,1.112,1.112,0,0,0,.34-1.072,1.486,1.486,0,0,0-.233-.614.52.52,0,0,0-.393-.284.23.23,0,0,0-.241.167c-.022.077,0,.125-.009.131s-.062-.033-.06-.142a.284.284,0,0,1,.072-.177.339.339,0,0,1,.235-.107.633.633,0,0,1,.531.316,1.523,1.523,0,0,1,.276.683,1.169,1.169,0,0,1-.459,1.211.485.485,0,0,1-.418,0c-.089-.05-.112-.1-.1-.11" transform="translate(127.649 1142.387)" fill="#e88559"/>
    <path id="Trazado_716418" data-name="Trazado 716418" d="M233.867,163.28a5.3,5.3,0,0,0,2.934,4.48,2.212,2.212,0,0,1,1.066.738,3.134,3.134,0,0,1,.225.966,1.533,1.533,0,0,0,.64,1.012.975.975,0,0,0,1.145-.059,2.345,2.345,0,0,0,.45-.877c.129-.306.381-.619.712-.6.141.007.292.072.414,0a.414.414,0,0,0,.154-.3,5.533,5.533,0,0,0-5.456-6.454,2.754,2.754,0,0,0-1.535.381,1.4,1.4,0,0,0-.652,1.366" transform="translate(128.943 1143.823)" fill="#1c262b"/>
    <path id="Trazado_716419" data-name="Trazado 716419" d="M226.2,163.233a5.289,5.289,0,0,0-1.813,3.523c.021.356.5.683.838.793a1.581,1.581,0,0,0,.948-.077,8,8,0,0,0,2.874-1.82,4.268,4.268,0,0,1,3.1-1.215c.623.088,1.187.417,1.8.559a1.472,1.472,0,0,0,1.664-.54,1.511,1.511,0,0,0-.011-1.164,4.219,4.219,0,0,0-2.617-2.538,5.431,5.431,0,0,0-3.7.13,7.643,7.643,0,0,0-3.008,2.216" transform="translate(130.435 1144.089)" fill="#1c262b"/>
    <path id="Trazado_716420" data-name="Trazado 716420" d="M228.332,175.666a2.222,2.222,0,0,0-1.763,1.76,8.193,8.193,0,0,0-.206,2.918,6.586,6.586,0,0,0,2.524,3.454c.946.619,2.688.369,3.411.244,1.831-.318,3.792-4.11,3.662-4.894s-2.484-3.354-2.92-3.529a16.07,16.07,0,0,0-4.708.046" transform="translate(130.135 1141.732)" fill="#fafafa"/>
    <path id="Trazado_716421" data-name="Trazado 716421" d="M228.318,175.655a1.7,1.7,0,0,1,.29-.067c.191-.035.476-.077.844-.112a18.412,18.412,0,0,1,3.132-.009,1.569,1.569,0,0,1,.519.105,2.62,2.62,0,0,1,.428.34c.268.246.53.517.793.8a12.509,12.509,0,0,1,1.53,1.969,1.06,1.06,0,0,1,.174.681,3.2,3.2,0,0,1-.187.672,8.787,8.787,0,0,1-.608,1.273,8.14,8.14,0,0,1-1.866,2.3l-.319.218c-.111.066-.231.118-.346.177a3.847,3.847,0,0,1-.374.115c-.124.028-.245.043-.367.062a8.725,8.725,0,0,1-1.46.1,3.678,3.678,0,0,1-1.4-.268,4.327,4.327,0,0,1-1.1-.811,6.884,6.884,0,0,1-1.425-2.049c-.079-.18-.155-.357-.217-.537a2.318,2.318,0,0,1-.14-.549,5.462,5.462,0,0,1,.02-1.049,15,15,0,0,1,.3-1.765,2.286,2.286,0,0,1,.733-1.135,2.13,2.13,0,0,1,.754-.405,1.139,1.139,0,0,1,.292-.056c0,.011-.1.026-.281.094a2.263,2.263,0,0,0-.717.425,2.232,2.232,0,0,0-.678,1.106,15.629,15.629,0,0,0-.265,1.75,5.409,5.409,0,0,0-.008,1.02,4.025,4.025,0,0,0,.354,1.036,6.756,6.756,0,0,0,1.4,1.988,4.207,4.207,0,0,0,1.05.771,3.535,3.535,0,0,0,1.33.248,8.572,8.572,0,0,0,1.428-.1c.119-.019.243-.035.36-.061s.227-.058.335-.1.216-.1.32-.163l.3-.206a8.012,8.012,0,0,0,1.819-2.24,8.59,8.59,0,0,0,.6-1.244,3.061,3.061,0,0,0,.18-.63.88.88,0,0,0-.151-.573,12.558,12.558,0,0,0-1.492-1.947c-.259-.287-.516-.558-.776-.8a2.653,2.653,0,0,0-.393-.323,1.491,1.491,0,0,0-.468-.1,20.162,20.162,0,0,0-3.112-.051c-.367.023-.652.053-.845.075a1.636,1.636,0,0,1-.295.03" transform="translate(130.148 1141.742)" fill="#1c262b"/>
    <path id="Trazado_716422" data-name="Trazado 716422" d="M234.174,180.509c.008.011-.066.075-.206.184a4.355,4.355,0,0,1-.636.4,6.266,6.266,0,0,1-4.838.4,4.348,4.348,0,0,1-.694-.29c-.157-.084-.239-.136-.233-.147.015-.031.367.14.967.308a6.9,6.9,0,0,0,4.738-.389c.565-.264.883-.49.9-.462" transform="translate(129.934 1140.94)" fill="#1c262b"/>
    <path id="Trazado_716423" data-name="Trazado 716423" d="M233.7,182.329a3.941,3.941,0,0,1-2.974.655c0-.057.693-.032,1.512-.217s1.435-.49,1.462-.438" transform="translate(129.437 1140.653)" fill="#1c262b"/>
    <path id="Trazado_716424" data-name="Trazado 716424" d="M232.367,176.974c-.007.059-.958-.062-2.117.094s-2.049.5-2.071.449a6.174,6.174,0,0,1,4.187-.543" transform="translate(129.837 1141.52)" fill="#1c262b"/>
    <path id="Trazado_716425" data-name="Trazado 716425" d="M238.582,172.593a31.8,31.8,0,0,1-4.1,2.773,31.945,31.945,0,0,1,4.1-2.773" transform="translate(128.846 1142.185)" fill="#1c262b"/>
    <path id="Trazado_716426" data-name="Trazado 716426" d="M239.208,176.788a14.3,14.3,0,0,1-1.653,2.879,14.408,14.408,0,0,1,1.653-2.879" transform="translate(128.363 1141.525)" fill="#1c262b"/>
    <path id="Trazado_716427" data-name="Trazado 716427" d="M179.587,222.934c-9.142,2.616-21.322,6.221-30.464,8.838a9.958,9.958,0,0,0-17.717-1.224,16.178,16.178,0,0,0-15.634-1.731c-4.983,2.295-8.377,7.959-7.468,13.37s6.463,9.781,11.871,8.86a23.764,23.764,0,0,0-.954,8.855,9.851,9.851,0,0,0,4.475,7.4c2.6,1.479,6.326,1.049,8.055-1.387a10.634,10.634,0,0,0,1.218,9.031,21.618,21.618,0,0,0,6.73,6.5,20.817,20.817,0,0,0,8.009,3.517,10.077,10.077,0,0,0,8.276-2.047c2.2-1.95,3.118-5.411,1.692-7.98a14.9,14.9,0,0,0-.33-28.915c1.995-1.193,2.111-3.98,3.127-6.071.977-2.008,2.846-3.41,4.647-4.731L180.1,224.218" transform="translate(148.716 1134.267)" fill="#e03848"/>
    <path id="Trazado_716428" data-name="Trazado 716428" d="M179.587,222.934c-9.142,2.616-21.322,6.221-30.464,8.838a9.958,9.958,0,0,0-17.717-1.224,16.178,16.178,0,0,0-15.634-1.731c-4.983,2.295-8.377,7.959-7.468,13.37s6.463,9.781,11.871,8.86a23.764,23.764,0,0,0-.954,8.855,9.851,9.851,0,0,0,4.475,7.4c2.6,1.479,6.326,1.049,8.055-1.387a10.634,10.634,0,0,0,1.218,9.031,21.618,21.618,0,0,0,6.73,6.5,20.817,20.817,0,0,0,8.009,3.517,10.077,10.077,0,0,0,8.276-2.047c2.2-1.95,3.118-5.411,1.692-7.98a14.9,14.9,0,0,0-.33-28.915c1.995-1.193,2.111-3.98,3.127-6.071.977-2.008,2.846-3.41,4.647-4.731L180.1,224.218" transform="translate(148.716 1134.267)" fill="#dceff2"/>
    <path id="Trazado_716429" data-name="Trazado 716429" d="M217.671,211.1l-25.178,9.7.613,1.83,25.315-9.933Z" transform="translate(135.451 1136.128)" fill="#1c262b"/>
    <path id="Trazado_716430" data-name="Trazado 716430" d="M187.686,240.865c-1.685-.1-3.462.514-4.08,2.084a4.141,4.141,0,0,0,1.188,4.584,1.859,1.859,0,0,0-1.9,1.6,3.325,3.325,0,0,0,.82,2.541,5.628,5.628,0,0,0,9.937-2.485A3.52,3.52,0,1,0,192.4,242.5a2.495,2.495,0,0,0-4.712-1.637" transform="translate(136.966 1131.699)" fill="#e03848"/>
    <path id="Trazado_716431" data-name="Trazado 716431" d="M187.686,240.865c-1.685-.1-3.462.514-4.08,2.084a4.141,4.141,0,0,0,1.188,4.584,1.859,1.859,0,0,0-1.9,1.6,3.325,3.325,0,0,0,.82,2.541,5.628,5.628,0,0,0,9.937-2.485A3.52,3.52,0,1,0,192.4,242.5a2.495,2.495,0,0,0-4.712-1.637" transform="translate(136.966 1131.699)" fill="#dceff2"/>
    <path id="Trazado_716432" data-name="Trazado 716432" d="M191.99,267.394a1.6,1.6,0,0,0-.247,3.189,1.629,1.629,0,0,0,1.747-1.523,1.6,1.6,0,0,0-1.708-1.549" transform="translate(135.788 1127.273)" fill="#e03848"/>
    <path id="Trazado_716433" data-name="Trazado 716433" d="M191.99,267.394a1.6,1.6,0,0,0-.247,3.189,1.629,1.629,0,0,0,1.747-1.523,1.6,1.6,0,0,0-1.708-1.549" transform="translate(135.788 1127.273)" fill="#dceff2"/>
    <path id="Trazado_716434" data-name="Trazado 716434" d="M265.838,268.739s-13.51-14.185-14.149-14.53-3.819,0-3.819,0-.688-3.352-1.548-3.094-1.633.516-1.633.516l1.891-3.181-.5-4.636c.715-3.211,5.606-14.972,5.606-14.972a10.67,10.67,0,0,0,.473-7.687c-1.3-4.493-4.139-14.191-4.139-14.191s1.578-18.164,1.1-20.41c-.235-1.118-1.565-2.687-2.928-4.026l.737.049s-4.064-5.629-4.589-7.269c-.366-1.145-1.4-5.678-2-8.312-.549-2.439-1.824-5.364-3.8-6.9a9.8,9.8,0,0,0-5.88-2.089c-6.324,0-8.972,7.19-8.972,7.19s2.065-2.562,7.127-1.716c3.791.633,4.929,4.422,5.484,9.416.2,1.78-.754,5.23-1.411,6.945a10.842,10.842,0,0,1-2.457,3.358l-1.655,1.9a4.05,4.05,0,0,0-.869,1.046c-.146.389-.454,4.342-.734,9.014-.719,1.473-1.53,3.125-2.446,4.988l-17.87,9.65,2.6,5.913s11.643-2.328,17.263-4.009c-.023,1.544-.332,7.07-.1,10.108h0s1.492,34.4,1.492,36.674,4.555,26.259,4.555,26.259H244.6s.724-8.825,1.128-16.378l14.345,8.538Z" transform="translate(133.189 1144.479)" fill="#fff"/>
    <path id="Trazado_716435" data-name="Trazado 716435" d="M242.556,173.308a1.954,1.954,0,0,1-.08.437c-.064.278-.163.679-.295,1.171a26.214,26.214,0,0,1-1.288,3.777,13.13,13.13,0,0,1-2.112,3.388,8.408,8.408,0,0,1-.862.853,1.749,1.749,0,0,1-.356.266c-.024-.027.469-.426,1.115-1.208a14.486,14.486,0,0,0,2.039-3.377,33.088,33.088,0,0,0,1.333-3.737l.353-1.154a1.972,1.972,0,0,1,.153-.417" transform="translate(128.361 1142.072)" fill="#358e87"/>
    <path id="Trazado_716436" data-name="Trazado 716436" d="M244.646,180.353a9.781,9.781,0,0,1-1.126.647c-.7.384-1.67.92-2.724,1.54s-1.991,1.206-2.668,1.634a9.864,9.864,0,0,1-1.112.67,1.25,1.25,0,0,1,.265-.228c.179-.137.442-.327.772-.556.659-.458,1.589-1.063,2.646-1.685s2.037-1.141,2.757-1.495c.361-.178.655-.315.86-.4a1.239,1.239,0,0,1,.329-.122" transform="translate(128.447 1140.964)" fill="#358e87"/>
    <path id="Trazado_716437" data-name="Trazado 716437" d="M246.021,221.969a4.191,4.191,0,0,1-.633.162c-.2.043-.454.1-.739.187s-.615.161-.966.292-.742.253-1.144.43c-.411.157-.829.37-1.274.584a17.635,17.635,0,0,0-5.072,3.887c-.323.374-.638.722-.9,1.079-.276.343-.5.682-.712.993s-.378.6-.534.856-.277.479-.372.666a4.067,4.067,0,0,1-.321.568,4.33,4.33,0,0,1,.254-.6,6.882,6.882,0,0,1,.346-.684c.148-.26.3-.566.514-.877a12.262,12.262,0,0,1,.7-1.016c.255-.363.569-.719.891-1.1a16.985,16.985,0,0,1,5.124-3.926c.452-.212.877-.422,1.294-.574.409-.172.8-.3,1.162-.41s.692-.194.981-.268a6.905,6.905,0,0,1,.752-.156,4.222,4.222,0,0,1,.647-.088" transform="translate(129.023 1134.418)" fill="#358e87"/>
    <path id="Trazado_716438" data-name="Trazado 716438" d="M239.336,216.932a.629.629,0,0,1-.1.147l-.305.4c-.271.34-.653.842-1.114,1.468A45.243,45.243,0,0,0,232,229.57c-.28.726-.5,1.317-.637,1.729-.068.187-.125.342-.171.471a.594.594,0,0,1-.072.161.62.62,0,0,1,.035-.172c.037-.132.083-.292.137-.484.12-.42.317-1.02.581-1.754a39.968,39.968,0,0,1,5.839-10.659c.476-.618.876-1.107,1.165-1.433l.334-.376c.078-.084.121-.126.126-.122" transform="translate(129.375 1135.21)" fill="#358e87"/>
    <path id="Trazado_716439" data-name="Trazado 716439" d="M248.414,229.677a.62.62,0,0,1-.14.11l-.421.281c-.367.244-.9.592-1.543,1.04a57.052,57.052,0,0,0-4.856,3.744c-.908.781-1.748,1.555-2.492,2.278a18.678,18.678,0,0,0-1.855,2.028,9.076,9.076,0,0,0-.979,1.567c-.188.4-.268.625-.285.619a.645.645,0,0,1,.042-.172c.031-.113.092-.273.174-.479a8.124,8.124,0,0,1,.938-1.617,17.457,17.457,0,0,1,1.84-2.072c.74-.733,1.579-1.513,2.49-2.3a47.983,47.983,0,0,1,4.9-3.711c.657-.434,1.2-.766,1.58-.99l.441-.251a.621.621,0,0,1,.16-.076" transform="translate(128.632 1133.206)" fill="#358e87"/>
    <path id="Trazado_716440" data-name="Trazado 716440" d="M267.453,297.752s-5.079,6.629-2.585,8.263,3.791.779,4.393.608,12.813-14.136,12.813-14.136,1.063-4.12-1.258-4.12-6.85-.063-6.85-.063Z" transform="translate(124.175 1123.984)" fill="#fff"/>
    <path id="Trazado_716441" data-name="Trazado 716441" d="M246.52,194.617a1.942,1.942,0,0,1-.032.312q-.048.331-.13.89c-.063.386-.164.853-.271,1.4-.136.538-.264,1.158-.469,1.826a32.091,32.091,0,0,1-8.681,14.326,20.61,20.61,0,0,1-3.9,2.984,12.6,12.6,0,0,1-3.05,1.28c-.381.093-.678.157-.881.184a2.03,2.03,0,0,1-.312.038,1.889,1.889,0,0,1,.3-.077c.2-.038.495-.114.869-.217a13.236,13.236,0,0,0,3-1.326,21.033,21.033,0,0,0,3.842-2.994,32.387,32.387,0,0,0,3.906-4.521A32.762,32.762,0,0,0,245.487,199c.213-.662.351-1.278.5-1.812.116-.541.228-1,.3-1.387s.124-.663.164-.882a1.969,1.969,0,0,1,.071-.306" transform="translate(129.74 1138.721)" fill="#358e87"/>
    <path id="Trazado_716442" data-name="Trazado 716442" d="M235.083,208.62a4.565,4.565,0,0,0-.7-1.021,3.877,3.877,0,0,0-2.667-1.118,5.7,5.7,0,0,0-2.84.806c-.67.383-1.04.694-1.061.667-.008-.009.076-.1.242-.238a6.314,6.314,0,0,1,.749-.544,5.451,5.451,0,0,1,2.912-.883,3.848,3.848,0,0,1,2.764,1.219,2.719,2.719,0,0,1,.5.786.93.93,0,0,1,.094.328" transform="translate(129.894 1136.885)" fill="#358e87"/>
    <path id="Trazado_716443" data-name="Trazado 716443" d="M233.22,193.493a2.782,2.782,0,0,1-.189.494c-.136.311-.323.764-.549,1.327-.454,1.124-1.013,2.7-1.642,4.447A38.492,38.492,0,0,1,229,204.14c-.28.541-.519.972-.7,1.259a2.723,2.723,0,0,1-.295.439,2.916,2.916,0,0,1,.229-.476c.162-.3.383-.737.645-1.282.527-1.091,1.157-2.643,1.785-4.385s1.209-3.319,1.7-4.433c.243-.558.45-1,.607-1.307a2.809,2.809,0,0,1,.257-.462" transform="translate(129.866 1138.897)" fill="#358e87"/>
    <path id="Trazado_716444" data-name="Trazado 716444" d="M236.925,209.591a4.177,4.177,0,0,1-.972.005,19.962,19.962,0,0,1-4.611-.822,4.16,4.16,0,0,1-.911-.34,5.817,5.817,0,0,1,.947.21c.58.143,1.383.328,2.28.488s1.713.264,2.306.329a5.838,5.838,0,0,1,.962.131" transform="translate(129.483 1136.548)" fill="#358e87"/>
    <path id="Trazado_716445" data-name="Trazado 716445" d="M248.082,191.628c-.032.01-.141-.33-.4-.84a6.846,6.846,0,0,0-3.131-3.055c-.515-.247-.859-.349-.849-.38a2.7,2.7,0,0,1,.905.256,6.11,6.11,0,0,1,3.2,3.121,2.742,2.742,0,0,1,.278.9" transform="translate(127.396 1139.864)" fill="#358e87"/>
    <path id="Trazado_716446" data-name="Trazado 716446" d="M252.589,201.7a18.575,18.575,0,0,0,1.183,3.021,14.345,14.345,0,0,0,1.966,2.574,3.416,3.416,0,0,1-.738-.619,8.386,8.386,0,0,1-1.4-1.862,9.348,9.348,0,0,1-.851-2.165,3.6,3.6,0,0,1-.163-.949" transform="translate(125.999 1137.605)" fill="#358e87"/>
    <path id="Trazado_716447" data-name="Trazado 716447" d="M254.892,214.712c-.01.009-.1-.073-.255-.23s-.373-.391-.633-.689a17.655,17.655,0,0,1-1.818-2.5,15.4,15.4,0,0,1-1.3-2.8c-.128-.374-.221-.68-.274-.895a1.2,1.2,0,0,1-.067-.338c.029-.008.181.454.468,1.186a19.194,19.194,0,0,0,1.339,2.75,22.959,22.959,0,0,0,1.756,2.508,11.2,11.2,0,0,1,.784,1.005" transform="translate(126.32 1136.731)" fill="#358e87"/>
    <path id="Trazado_716448" data-name="Trazado 716448" d="M245.263,216.185a15.743,15.743,0,0,0,5.251,8.255c2.156,1.765,4.929,3.133,5.9,5.744a4.464,4.464,0,0,0,.544,1.237c.278.357,1.128.281,1.519.056l-2.021-7.162Z" transform="translate(127.15 1135.328)" fill="#e0f1f1"/>
    <path id="Trazado_716449" data-name="Trazado 716449" d="M254.524,193.739a11.948,11.948,0,0,0-.572-4.568,1.945,1.945,0,0,1,.305.617,7.249,7.249,0,0,1,.41,3.277,1.958,1.958,0,0,1-.143.674" transform="translate(125.784 1139.577)" fill="#358e87"/>
    <path id="Trazado_716450" data-name="Trazado 716450" d="M229.95,219.962a20.785,20.785,0,0,0,11.541-7.2,20.419,20.419,0,0,0,4.221-12.8,35.148,35.148,0,0,1-5.946,11.26c-2.692,3.206-5.654,6.133-9.678,7.29" transform="translate(129.559 1137.88)" fill="#e0f1f1"/>
    <path id="Trazado_716451" data-name="Trazado 716451" d="M235.013,286.609a2.45,2.45,0,0,1,.214.455l.538,1.256c.458,1.058,1.128,2.5,1.955,4.055s1.658,2.912,2.282,3.882l.745,1.145a2.558,2.558,0,0,1,.259.431,2.486,2.486,0,0,1-.32-.388c-.2-.256-.47-.636-.8-1.113a42.092,42.092,0,0,1-4.249-7.959c-.215-.538-.378-.976-.482-1.282a2.519,2.519,0,0,1-.144-.482" transform="translate(128.763 1124.251)" fill="#358e87"/>
    <path id="Trazado_716452" data-name="Trazado 716452" d="M238,182.822a15.753,15.753,0,0,0,4.071-7.7c.122-.591.289-1.289.852-1.507a1.1,1.1,0,0,1,1.168.346,2.189,2.189,0,0,1,.478,1.183,6.039,6.039,0,0,1-2.046,4.991,17.86,17.86,0,0,1-4.747,2.929" transform="translate(128.329 1142.033)" fill="#e0f1f1"/>
    <path id="Trazado_716453" data-name="Trazado 716453" d="M239.174,163.667a.6.6,0,0,1,.065.163c.041.132.091.291.15.482.066.208.141.466.21.769s.165.643.233,1.03a24.417,24.417,0,0,1,.393,2.722,25.063,25.063,0,0,1-.318,6.716,24.5,24.5,0,0,1-.648,2.672c-.1.378-.229.71-.33,1s-.2.544-.281.746l-.2.463a.593.593,0,0,1-.08.158.623.623,0,0,1,.045-.172l.161-.476c.073-.2.162-.456.249-.753s.206-.63.3-1.007c.215-.748.422-1.653.6-2.667a26.628,26.628,0,0,0,.315-6.669,27.333,27.333,0,0,0-.349-2.712c-.06-.385-.143-.728-.2-1.031s-.123-.563-.177-.774c-.046-.195-.084-.356-.115-.49a.592.592,0,0,1-.028-.174" transform="translate(128.234 1143.588)" fill="#358e87"/>
    <path id="Trazado_716454" data-name="Trazado 716454" d="M252.73,285.382c.363,1,1.879,1.088,2.671.383a4.157,4.157,0,0,0,1.082-2.9,16.827,16.827,0,0,0-2.911-10.581c-1.115-1.617-2.624-3.539-2.712-5.5.091-.162-1.116,3.483-1.116,3.483.172,1.168,1.026,1.2,1.594,3.057a26.189,26.189,0,0,1,1.1,11.441" transform="translate(126.445 1127.37)" fill="#e0f1f1"/>
    <path id="Trazado_716455" data-name="Trazado 716455" d="M246.03,264.582a5.714,5.714,0,0,0,.523,1.031,23.246,23.246,0,0,0-.487-5.312l-2.184-7.437a22.043,22.043,0,0,0,2.148,11.718" transform="translate(127.385 1129.559)" fill="#e0f1f1"/>
    <path id="Trazado_716456" data-name="Trazado 716456" d="M248.375,311.61c-.089-.447-1.357-3.207-1.357-3.207H235.094s-15.658,4.1-12.443,7.315l27.152-.086c0-1.429-1.34-3.576-1.429-4.022" transform="translate(130.775 1120.822)" fill="#fff"/>
    <path id="Trazado_716457" data-name="Trazado 716457" d="M249.337,307.945a2.381,2.381,0,0,1-.42.249,12.128,12.128,0,0,1-1.212.543,13.982,13.982,0,0,1-4.283.895,13.479,13.479,0,0,1-4.35-.485,3.685,3.685,0,0,1-1.2-.589,2.007,2.007,0,0,1-.267-.247c-.054-.064-.08-.1-.075-.1s.13.117.386.29a4.022,4.022,0,0,0,1.192.519,14.633,14.633,0,0,0,4.3.423,15.272,15.272,0,0,0,4.246-.83c.524-.186.941-.359,1.227-.484a2.368,2.368,0,0,1,.452-.18" transform="translate(128.366 1120.896)" fill="#358e87"/>
    <path id="Trazado_716458" data-name="Trazado 716458" d="M237.819,309.134c.005.032-.426.1-1.1.286a11.021,11.021,0,0,0-4.68,2.662c-.5.482-.78.817-.806.8a.981.981,0,0,1,.167-.258,6.685,6.685,0,0,1,.544-.635,9.618,9.618,0,0,1,4.742-2.7,6.446,6.446,0,0,1,.824-.142.93.93,0,0,1,.307-.012" transform="translate(129.357 1120.709)" fill="#358e87"/>
    <path id="Trazado_716459" data-name="Trazado 716459" d="M236.949,313.067a8.634,8.634,0,0,1,2.2-3.747c.045.037-.569.8-1.172,1.83s-.972,1.937-1.026,1.916" transform="translate(128.459 1120.679)" fill="#358e87"/>
    <path id="Trazado_716460" data-name="Trazado 716460" d="M241.976,313.88a7.4,7.4,0,0,0-.456-3.838,4.379,4.379,0,0,1,.456,3.838" transform="translate(127.74 1120.564)" fill="#358e87"/>
    <path id="Trazado_716461" data-name="Trazado 716461" d="M247.225,314.018a7.629,7.629,0,0,0-.889-4.1,4.756,4.756,0,0,1,.889,4.1" transform="translate(126.982 1120.584)" fill="#358e87"/>
    <path id="Trazado_716462" data-name="Trazado 716462" d="M274.791,288.663a1.651,1.651,0,0,1,.022.438,7.994,7.994,0,0,1-.121,1.19A11.605,11.605,0,0,1,273.383,294a6.111,6.111,0,0,1-2.945,2.574,4.178,4.178,0,0,1-1.165.289,1.489,1.489,0,0,1-.44,0,6.587,6.587,0,0,0,1.552-.416,6.252,6.252,0,0,0,2.832-2.546,12.648,12.648,0,0,0,1.341-3.641c.2-.979.2-1.6.233-1.6" transform="translate(123.443 1123.928)" fill="#358e87"/>
    <path id="Trazado_716463" data-name="Trazado 716463" d="M271.894,302.817a2.2,2.2,0,0,1-.411-.664,5.988,5.988,0,0,1-.448-3.7,2.167,2.167,0,0,1,.241-.742,7.837,7.837,0,0,0,.619,5.105" transform="translate(123.115 1122.505)" fill="#358e87"/>
    <path id="Trazado_716464" data-name="Trazado 716464" d="M267.244,303.146a2.615,2.615,0,0,1,.034-.8,6.942,6.942,0,0,1,.509-1.864,5.888,5.888,0,0,1,1.058-1.618,2.383,2.383,0,0,1,.6-.528,10.3,10.3,0,0,0-1.483,2.223,15.643,15.643,0,0,0-.719,2.585" transform="translate(123.695 1122.405)" fill="#358e87"/>
    <path id="Trazado_716465" data-name="Trazado 716465" d="M277.661,295.725c-.024.02-.167-.142-.437-.348a3.294,3.294,0,0,0-2.491-.624,3.667,3.667,0,0,1-.55.1,1.109,1.109,0,0,1,.522-.234,2.889,2.889,0,0,1,2.606.652c.262.244.367.441.351.452" transform="translate(122.602 1123.003)" fill="#358e87"/>
    <path id="Trazado_716466" data-name="Trazado 716466" d="M279.493,291.4a5,5,0,0,1-.657-.1,4.464,4.464,0,0,0-3.017.686,5.166,5.166,0,0,1-.549.374,1.536,1.536,0,0,1,.471-.485,3.891,3.891,0,0,1,3.118-.709,1.54,1.54,0,0,1,.635.234" transform="translate(122.431 1123.545)" fill="#358e87"/>
    <path id="Trazado_716467" data-name="Trazado 716467" d="M261.155,274.476a1.878,1.878,0,0,1-.3-.285l-.79-.81a11.825,11.825,0,0,0-1.224-1.121.9.9,0,0,0-.185-.107,2.048,2.048,0,0,0-.228-.061,3.228,3.228,0,0,0-.487-.065c-.335-.022-.689-.005-1.053.008-1.458.051-2.778.088-3.733.1l-1.132.01a1.821,1.821,0,0,1-.416-.023,1.729,1.729,0,0,1,.414-.052l1.129-.071c.955-.051,2.274-.109,3.732-.16a10.149,10.149,0,0,1,1.073,0,3.415,3.415,0,0,1,.514.074,2.081,2.081,0,0,1,.246.069,1.05,1.05,0,0,1,.228.132,10.413,10.413,0,0,1,1.221,1.173c.324.352.576.646.747.853a1.635,1.635,0,0,1,.248.335" transform="translate(126.153 1126.575)" fill="#358e87"/>
    <path id="Trazado_716468" data-name="Trazado 716468" d="M248.739,269.462a2.089,2.089,0,0,1-.33-.324c-.206-.214-.485-.543-.811-.963a17.435,17.435,0,0,1-3.326-7.545,12.55,12.55,0,0,1-.164-1.248,2.114,2.114,0,0,1-.016-.462c.035,0,.1.65.314,1.684a19.436,19.436,0,0,0,3.3,7.49c.619.855,1.057,1.345,1.031,1.368" transform="translate(127.335 1128.605)" fill="#358e87"/>
    <path id="Trazado_716469" data-name="Trazado 716469" d="M254.8,252.864a.266.266,0,0,1-.019.081l-.072.233q-.106.327-.29.888c-.258.788-.622,1.9-1.071,3.273-.456,1.39-1,3.039-1.6,4.873-.305.918-.629,1.881-.978,2.877s-.606,2.054-.883,3.137l-.012-.074.311.509c.3.5.587.991.837,1.5s.461,1.024.655,1.536a17.509,17.509,0,0,1,.848,3.037,23.666,23.666,0,0,1,.305,5.317c-.065,1.515-.193,2.735-.284,3.577q-.075.612-.119.968c-.014.1-.026.184-.036.251a.311.311,0,0,1-.019.085.3.3,0,0,1,0-.087c.005-.069.01-.152.017-.254.02-.238.048-.562.083-.971.067-.844.174-2.065.222-3.576a24.172,24.172,0,0,0-.343-5.279,17.538,17.538,0,0,0-.849-3c-.193-.506-.415-1.012-.651-1.519s-.534-.992-.83-1.486l-.308-.506-.022-.035.01-.039c.279-1.088.538-2.151.892-3.153s.674-1.956.989-2.87c.616-1.829,1.17-3.474,1.636-4.859s.854-2.491,1.129-3.254c.136-.369.244-.662.324-.877l.089-.226a.278.278,0,0,1,.036-.075" transform="translate(126.453 1129.559)" fill="#358e87"/>
    <path id="Trazado_716470" data-name="Trazado 716470" d="M252.493,185.647a10.88,10.88,0,0,1,4.776-4.957,3.74,3.74,0,0,1,3.589-.287c1.063.654,1.37,2.038,1.53,3.275a46.084,46.084,0,0,1,.316,8.363h1.428s-.089-7.53-.284-9.152c-.157-1.305-1.161-4.433-3.629-4.626-3.147-.245-6.1,1.439-8.819,6.848" transform="translate(126.185 1141.296)" fill="#3eac9f"/>
    <path id="Trazado_716471" data-name="Trazado 716471" d="M264.5,226.285h0c-4.018,0-7.275-3.257-7.275-8.283V195.209c0-3.011,3.257-6.268,7.275-6.268a7.275,7.275,0,0,1,7.275,7.275V219.01a7.275,7.275,0,0,1-7.275,7.275" transform="translate(125.27 1139.613)" fill="#1d2638"/>
    <path id="Trazado_716472" data-name="Trazado 716472" d="M241.482,183.631a10.022,10.022,0,0,0-8.324,10.228c1.719-3.031,1.873-7.78,9.749-8.491,5.937-.536,11.366,6.3,11.366,6.3l.915-1.24c-1.9-2.569-6.153-8.515-13.707-6.8" transform="translate(129.055 1140.496)" fill="#3eac9f"/>
    <path id="Trazado_716473" data-name="Trazado 716473" d="M244.528,208.6l-1.888,2.845s5.966,12.657,13.713,12.73l.2-.126-1.145-3.4s-8.086-5.54-10.884-12.052" transform="translate(127.563 1136.521)" fill="#3eac9f"/>
    <path id="Trazado_716474" data-name="Trazado 716474" d="M262.8,187.94a1.921,1.921,0,0,1-.109-.485,9.719,9.719,0,0,1-.081-1.348c-.006-.57.027-1.246-.014-1.99a5.415,5.415,0,0,0-.6-2.3,3,3,0,0,0-.788-.927,2.521,2.521,0,0,0-1.03-.46,4.049,4.049,0,0,0-1.932.136,11.54,11.54,0,0,0-1.251.471,2.562,2.562,0,0,1-.461.179,2.337,2.337,0,0,1,.429-.246,8.779,8.779,0,0,1,1.243-.533,4.055,4.055,0,0,1,2.006-.179,2.664,2.664,0,0,1,1.109.483,3.143,3.143,0,0,1,.843.984,5.439,5.439,0,0,1,.613,2.387c.032.758-.015,1.435-.027,2a13.275,13.275,0,0,0,.02,1.339,3.453,3.453,0,0,1,.034.492" transform="translate(125.378 1140.988)" fill="#3eac9f"/>
    <path id="Trazado_716475" data-name="Trazado 716475" d="M268.246,225.955c-.053,0-.1-8.184-.1-18.279s.043-18.281.1-18.281.1,8.184.1,18.281-.043,18.279-.1,18.279" transform="translate(123.55 1139.542)" fill="#0f1619"/>
    <path id="Trazado_716476" data-name="Trazado 716476" d="M271.692,212.866a3.218,3.218,0,0,1-.533.21c-.346.126-.857.282-1.495.451a24.3,24.3,0,0,1-10.234.426c-.65-.115-1.172-.228-1.528-.325a3.266,3.266,0,0,1-.549-.164,3.3,3.3,0,0,1,.565.091c.36.075.883.168,1.532.264a26.928,26.928,0,0,0,10.18-.424c.639-.15,1.153-.287,1.506-.39a3.226,3.226,0,0,1,.555-.138" transform="translate(125.249 1135.851)" fill="#0f1619"/>
    <path id="Trazado_716477" data-name="Trazado 716477" d="M271.742,200.9a2.855,2.855,0,0,1-.489.228c-.319.139-.791.312-1.383.5a19.46,19.46,0,0,1-2.116.535,21.884,21.884,0,0,1-2.651.337,22.119,22.119,0,0,1-2.674-.014,19.531,19.531,0,0,1-2.165-.277c-.611-.115-1.1-.229-1.433-.328a2.832,2.832,0,0,1-.512-.168,2.978,2.978,0,0,1,.531.094c.336.077.828.17,1.438.267s1.34.181,2.153.234a22.015,22.015,0,0,0,5.282-.32c.8-.15,1.516-.319,2.109-.491s1.07-.322,1.395-.438a2.877,2.877,0,0,1,.516-.158" transform="translate(125.097 1137.732)" fill="#0f1619"/>
    <path id="Trazado_716478" data-name="Trazado 716478" d="M205.453,219.05s-2.745-2.471-3.116-2.362-1.718-.17-2.368.2a15.046,15.046,0,0,0-2.044,1.858s.372.607,1.533.3a6.442,6.442,0,0,0,1.672-.629,47.094,47.094,0,0,0-3.2,3.529,1.06,1.06,0,0,0,.544,1.287,2.224,2.224,0,0,0,1.593-.265s-.046,1.205.929,1.439a2.864,2.864,0,0,0,1.579,0s-.139,1.615,1.115,1.6h.789a1.333,1.333,0,0,0,.98.679c.785.186,2.734-1.751,2.734-1.751Z" transform="translate(134.605 1135.25)" fill="#e6e6e6"/>
    <path id="Trazado_716479" data-name="Trazado 716479" d="M205.435,219.039a.481.481,0,0,1,.057.1l.151.3c.136.281.324.672.563,1.167l2.028,4.289.023.046-.037.035a11.621,11.621,0,0,1-1.672,1.387,3.848,3.848,0,0,1-.516.287,1.106,1.106,0,0,1-.625.106,1.5,1.5,0,0,1-1.032-.727l.081.056-.727,0a1.2,1.2,0,0,1-.758-.213,1.251,1.251,0,0,1-.429-.68,2.477,2.477,0,0,1-.082-.8l.126.1a3.111,3.111,0,0,1-1.738-.028,1.179,1.179,0,0,1-.7-.6,1.976,1.976,0,0,1-.2-.9l.146.086a2.328,2.328,0,0,1-1.515.314.957.957,0,0,1-.427-.188,1,1,0,0,1-.275-.372,1.4,1.4,0,0,1-.112-.435.9.9,0,0,1,.057-.465,11.526,11.526,0,0,1,1.064-1.279c.731-.8,1.458-1.552,2.162-2.271l.113.14a7.312,7.312,0,0,1-1.683.632,2.269,2.269,0,0,1-.874.073,1.11,1.11,0,0,1-.766-.414l-.036-.051.046-.049c.475-.5.942-.958,1.415-1.371a3.574,3.574,0,0,1,.755-.541,2.419,2.419,0,0,1,.867-.154c.281-.007.551.008.81.019.129.006.255.012.378.01a1.189,1.189,0,0,0,.176-.012.716.716,0,0,1,.1-.014.306.306,0,0,1,.108.022,3.049,3.049,0,0,1,.6.365c.179.13.345.259.5.383.621.5,1.087.917,1.4,1.2l.357.33a.8.8,0,0,1,.115.121.839.839,0,0,1-.133-.1l-.372-.312c-.327-.272-.8-.678-1.43-1.165a5.9,5.9,0,0,0-1.082-.714.207.207,0,0,0-.15,0,1.252,1.252,0,0,1-.193.016c-.128,0-.255,0-.385-.006-.26-.008-.527-.02-.8-.01a2.3,2.3,0,0,0-.813.15,3.466,3.466,0,0,0-.714.524c-.464.411-.927.876-1.395,1.37l.01-.1a.958.958,0,0,0,.649.332,2.091,2.091,0,0,0,.807-.073,7.231,7.231,0,0,0,1.63-.618l.549-.308-.437.448c-.7.721-1.425,1.476-2.151,2.272a11.978,11.978,0,0,0-1.035,1.244c-.135.426.091,1.125.625,1.18a2.152,2.152,0,0,0,1.379-.29l.147-.081,0,.167a1.292,1.292,0,0,0,.767,1.315,2.964,2.964,0,0,0,1.611.034l.132-.04-.006.134a1.578,1.578,0,0,0,.435,1.321,1.014,1.014,0,0,0,.647.18l.729,0h.054l.028.055a1.351,1.351,0,0,0,.909.627,1.687,1.687,0,0,0,1.015-.364,11.638,11.638,0,0,0,1.657-1.354l-.014.082-1.964-4.306-.529-1.187c-.056-.128-.1-.232-.134-.313a.555.555,0,0,1-.04-.111" transform="translate(134.623 1135.261)" fill="#1c262b"/>
    <path id="Trazado_716480" data-name="Trazado 716480" d="M209.392,224.153a2.853,2.853,0,0,1-.487-.631,14.062,14.062,0,0,1-.945-1.673,13.922,13.922,0,0,1-.713-1.784,2.844,2.844,0,0,1-.188-.774c.056-.018.428,1.135,1.074,2.476s1.306,2.354,1.258,2.387" transform="translate(133.16 1134.84)" fill="#1c262b"/>
    <path id="Trazado_716481" data-name="Trazado 716481" d="M201.783,222.627c.031.045-.314.335-.731.7a3.615,3.615,0,0,1-.794.627,3.6,3.6,0,0,1,1.525-1.326" transform="translate(134.23 1134.315)" fill="#1c262b"/>
    <path id="Trazado_716482" data-name="Trazado 716482" d="M204.8,224.837a16.957,16.957,0,0,1-1.683.935c-.032-.04.286-.349.761-.612a1.865,1.865,0,0,1,.922-.323" transform="translate(133.78 1133.969)" fill="#1c262b"/>
    <path id="Trazado_716483" data-name="Trazado 716483" d="M206.845,226.725c.024.049-.242.226-.545.464s-.543.452-.585.416.142-.317.465-.568.643-.359.665-.313" transform="translate(133.372 1133.672)" fill="#1c262b"/>
  </g>
</svg>
