<svg id="Grupo_1072343" data-name="Grupo 1072343" xmlns="http://www.w3.org/2000/svg" xmlns:xlink="http://www.w3.org/1999/xlink" width="139.602" height="151.181" viewBox="0 0 139.602 151.181">
  <defs>
    <clipPath id="clip-path">
      <rect id="Rectángulo_376691" data-name="Rectángulo 376691" width="139.602" height="151.181" fill="none"/>
    </clipPath>
  </defs>
  <rect id="Rectángulo_376689" data-name="Rectángulo 376689" width="103.922" height="144.648" transform="translate(4.275 3.068)" fill="#fff"/>
  <rect id="Rectángulo_376690" data-name="Rectángulo 376690" width="103.922" height="144.648" transform="translate(4.275 3.068)" fill="none" stroke="#161615" stroke-miterlimit="10" stroke-width="1"/>
  <g id="Grupo_1072342" data-name="Grupo 1072342">
    <g id="Grupo_1072341" data-name="Grupo 1072341" clip-path="url(#clip-path)">
      <path id="Trazado_817224" data-name="Trazado 817224" d="M107,118.114c-2.188.494-4.333.994-6.484,1.459-1.751.379-3.5.774-5.269,1.06-3.034.491-6.416-2.091-6.682-5.888-.038-.544-.14-.687-.712-.672-1.449.037-2.9-.052-4.352-.052q-34.579-.007-69.157,0c-1.229,0-2.461.047-3.686-.019a2.044,2.044,0,0,1-2-2.13,2.14,2.14,0,0,1,2.091-2.151c1.228-.046,2.46,0,3.69,0q37.124,0,74.249.009c.615,0,.857-.169.973-.772.326-1.687.66-3.378,1.113-5.034a5.148,5.148,0,0,1,1.078-2.032c1.162-1.287,2.449-2.463,3.856-3.853H94.633q-41.332,0-82.664,0a7.808,7.808,0,0,1-1.611-.111,2.183,2.183,0,0,1,.267-4.326c.881-.069,1.769-.056,2.654-.056q42.586,0,85.172.023a3.566,3.566,0,0,0,2.888-1.2c1.674-1.8,3.474-3.484,5.183-5.253A1.822,1.822,0,0,0,107,85.957q.024-37.129,0-74.257c0-.935.023-1.87.007-2.8a4.414,4.414,0,0,0-4.443-4.464C92.823,4.4,83.08,4.417,73.338,4.414q-9.153,0-18.3-.013a7.669,7.669,0,0,1-1.394-.108,2.143,2.143,0,0,1-1.7-2.046A2.1,2.1,0,0,1,53.5.17,5.46,5.46,0,0,1,54.809.009Q78.391,0,101.971.007c5.727,0,9.357,3.656,9.544,9.554.029.909.007,1.821.007,2.731q0,33.918.007,67.836c0,.587,0,1.174,0,1.87a4.189,4.189,0,0,0,.43-.319q4.835-4.819,9.667-9.643a7.179,7.179,0,0,1,10.63.018q2.513,2.5,5,5.017c3.118,3.155,3.131,7.277,0,10.419q-11,11.026-22.024,22.026c-1.1,1.1-2.214,2.171-3.264,3.31a1.972,1.972,0,0,0-.5,1.219c0,9.251.047,18.5.051,27.753,0,5.463-3.765,9.254-9.251,9.382-.148,0-.3,0-.443,0q-46.092,0-92.184,0a10,10,0,0,1-5.558-1.453,8.836,8.836,0,0,1-4.051-7.978Q.027,101,.043,60.257q0-25.5-.043-51A8.846,8.846,0,0,1,6.509.4,13.476,13.476,0,0,1,9.574.019Q26.143-.02,42.713.008a4.1,4.1,0,0,1,.945.118,2.228,2.228,0,0,1,1.789,2.362,2.164,2.164,0,0,1-2.159,1.933c-.368.024-.738.011-1.107.011-10.825-.012-21.65,0-32.475-.057-3.321-.019-4.814,1.655-5.237,3.9a9.579,9.579,0,0,0-.143,1.762q.006,20.778.027,41.556.008,44.588.02,89.177a10.106,10.106,0,0,0,.456,3.179,3.982,3.982,0,0,0,3.861,2.8c1.252.06,2.508.023,3.763.024q44.395,0,88.789,0a12.332,12.332,0,0,0,1.914-.073,4.38,4.38,0,0,0,3.852-4.564q0-11.294-.008-22.588v-1.437" transform="translate(0 0)" fill="#161615"/>
      <path id="Trazado_817225" data-name="Trazado 817225" d="M171.347,169.256l22.294-22.273-9.177-9.047-22.076,22.11,8.958,9.21" transform="translate(-66.18 -56.214)" fill="#feb045"/>
      <path id="Trazado_817226" data-name="Trazado 817226" d="M205.177,129.445l9.011,9.057c1.359-1.246,2.8-2.442,4.083-3.789a2.258,2.258,0,0,0-.093-3.168q-2.927-3.062-6.006-5.979a2.358,2.358,0,0,0-3.24-.047c-1.337,1.255-2.545,2.647-3.756,3.926" transform="translate(-83.618 -50.9)" fill="#dc0817"/>
      <path id="Trazado_817227" data-name="Trazado 817227" d="M164.78,189.747l-6.6-6.607c.02-.046-.047.057-.072.17-.4,1.821-.853,3.632-1.17,5.468a1.768,1.768,0,0,0,2.274,2.12c1.876-.366,3.745-.772,5.57-1.151" transform="translate(-63.941 -74.632)" fill="#eccda8"/>
      <path id="Trazado_817228" data-name="Trazado 817228" d="M61.654,36.879q20.886,0,41.772,0a4.966,4.966,0,0,1,5.233,3.959,5.692,5.692,0,0,1,.1,1.244q.007,14.467,0,28.933a4.983,4.983,0,0,1-3.9,4.911,6.684,6.684,0,0,1-1.466.121q-4.65.015-9.3,0a6.668,6.668,0,0,1-1.675-.185,2.123,2.123,0,0,1,.274-4.137,9.9,9.9,0,0,1,1.469-.1c3.1-.012,6.2-.028,9.3-.005.677,0,.934-.248.915-.9-.024-.811-.007-1.624-.007-2.436q0-12.88-.009-25.76c0-1.12-.05-1.155-1.162-1.143s-2.214,0-3.321,0q-39.742,0-79.485,0c-1.588,0-1.5-.164-1.5,1.47q-.019,13.656-.007,27.31c0,1.741,0,1.444,1.441,1.447q18.487.032,36.975.013,11.772,0,23.543,0a8.439,8.439,0,0,1,1.469.1,2.157,2.157,0,0,1-.009,4.262,5.736,5.736,0,0,1-1.029.069q-30.554,0-61.108.016a5.738,5.738,0,0,1-4.451-1.731,5.162,5.162,0,0,1-1.277-3.744q-.021-13.987,0-27.974a5.564,5.564,0,0,1,1.565-4.231,5.371,5.371,0,0,1,3.945-1.514q16.163.019,32.326.007h9.373" transform="translate(-5.883 -15.027)" fill="#161615"/>
      <path id="Trazado_817229" data-name="Trazado 817229" d="M93.057,216.755H62.436c-.344,0-.69.009-1.033-.017a2.183,2.183,0,0,1-2.077-2.03,2.219,2.219,0,0,1,1.68-2.222,5.885,5.885,0,0,1,1.385-.165q30.917-.012,61.834,0a4.647,4.647,0,0,1,1.306.182,2.173,2.173,0,0,1,1.509,2.129,2.014,2.014,0,0,1-1.677,1.971,13.79,13.79,0,0,1-2.349.143q-14.978.013-29.957.006Z" transform="translate(-24.174 -86.526)" fill="#161615"/>
      <path id="Trazado_817230" data-name="Trazado 817230" d="M33.5,135.076q-7.932,0-15.863,0a9.39,9.39,0,0,1-1.324-.065,2.185,2.185,0,0,1-.234-4.273,5.183,5.183,0,0,1,1.238-.15q16.2-.012,32.39,0c1.492,0,2.373.573,2.689,1.705a2.149,2.149,0,0,1-1.855,2.729,15.01,15.01,0,0,1-1.841.061q-7.6.006-15.2,0Z" transform="translate(-5.888 -53.216)" fill="#161615"/>
      <path id="Trazado_817231" data-name="Trazado 817231" d="M41.534,57.493c-.017.27-.041.485-.041.7,0,3.444,0,6.888-.008,10.332,0,.464.052.732.613.866A2.211,2.211,0,0,1,43.7,71.882a2.1,2.1,0,0,1-2.09,1.727c-1.475.031-2.952.03-4.426-.009a2.172,2.172,0,0,1-2.206-1.886,2.066,2.066,0,0,1,1.592-2.335c.488-.153.552-.369.547-.84-.031-3.394-.04-6.79,0-10.184.008-.72-.2-.912-.909-.893a39.382,39.382,0,0,1-3.976-.082,1.82,1.82,0,0,1-1.648-1.565,1.979,1.979,0,0,1,.823-2.271,2.878,2.878,0,0,1,1.452-.427q6.53-.052,13.061-.017a2.165,2.165,0,0,1,2.2,2.057A2.087,2.087,0,0,1,46.2,57.378c-1.293.122-2.6.084-3.9.114-.24.005-.48,0-.763,0" transform="translate(-12.433 -21.636)" fill="#161615"/>
      <path id="Trazado_817232" data-name="Trazado 817232" d="M82.937,84.73c-2.95,0-5.9.006-8.851-.007a4.945,4.945,0,0,1-1.309-.156,2.216,2.216,0,0,1-1.539-2.187A2.088,2.088,0,0,1,73.007,80.4a6.635,6.635,0,0,1,1.174-.083q8.593,0,17.187.009a8.531,8.531,0,0,1,1.248.083,2.293,2.293,0,0,1,1.9,2.29,2.066,2.066,0,0,1-2.064,2c-3.024.038-6.048.016-9.072.018h-.443v.012" transform="translate(-29.031 -32.731)" fill="#161615"/>
      <path id="Trazado_817233" data-name="Trazado 817233" d="M24.635,216.746c-2.629,0-5.259.023-7.888-.008a2.156,2.156,0,0,1-.558-4.261,4.939,4.939,0,0,1,1.236-.158q7.445-.016,14.892,0a2.474,2.474,0,0,1,2.522,1.308,2.1,2.1,0,0,1-1.3,2.949,5.334,5.334,0,0,1-1.383.165c-2.506.015-5.013.007-7.52.009" transform="translate(-5.902 -86.525)" fill="#161615"/>
    </g>
  </g>
</svg>
