<svg id="Grupo_1071859" data-name="Grupo 1071859" xmlns="http://www.w3.org/2000/svg" xmlns:xlink="http://www.w3.org/1999/xlink" width="164" height="115.395" viewBox="0 0 164 115.395">
  <defs>
    <clipPath id="clip-path">
      <rect id="Rect치ngulo_376467" data-name="Rect치ngulo 376467" width="164" height="115.395" fill="none"/>
    </clipPath>
  </defs>
  <g id="Grupo_1071858" data-name="Grupo 1071858" clip-path="url(#clip-path)">
    <path id="Trazado_816070" data-name="Trazado 816070" d="M90.442,110.258a5.38,5.38,0,0,1-5.656,5.116c-1.55.018-3.1.034-4.649,0a5.254,5.254,0,0,1-5.356-4.806,1.908,1.908,0,0,0-.092-.275H16.879a5.28,5.28,0,0,1-1.887,3.805,5.2,5.2,0,0,1-3.374,1.269c-1.71.01-3.421.046-5.13.007a5.257,5.257,0,0,1-5.406-5.51c-.02-2.3,0-4.592,0-6.888q0-14.416,0-28.833c0-3.734,2.175-5.957,5.9-5.984,1.735-.014,3.479-.041,5.2.1A4.934,4.934,0,0,1,16.789,72.8c.052.439.133.67.651.668,4.81-.015,9.62-.006,14.43-.008.181,0,.363-.042.686-.081a27.971,27.971,0,0,1-.92-2.909c-.349-1.709-1.061-2.568-3.057-2.669a24.059,24.059,0,0,1-10.541-3.262A13.861,13.861,0,0,1,13.524,60.4a8.8,8.8,0,0,1,.194-10.92,2.864,2.864,0,0,0,.6-2,26.12,26.12,0,0,1,.033-3.117.816.816,0,0,0-.625-.942Q7.26,40.862.8,38.263c-.268-.107-.524-.239-.8-.369,2.252-4.021,5.117-7.356,9.3-9.347a37.911,37.911,0,0,1,4.323-1.635c.526-.176.7-.38.7-.939-.012-3.256-.039-6.514.057-9.767a6.085,6.085,0,0,1,4.433-5.564,5.792,5.792,0,0,1,6.428,2.652c1.51,2.39,2.937,4.832,4.366,7.272a1.09,1.09,0,0,0,1.156.588c1.3-.047,2.612-.042,3.915.017a.964.964,0,0,0,1.015-.556c1.376-2.346,2.842-4.641,4.16-7.02A6.016,6.016,0,0,1,46.6,10.657a6.3,6.3,0,0,1,4.51,6.037c.01.951,0,1.9,0,2.988a20.662,20.662,0,0,1,7.408-3.351c.535-.14.427-.527.427-.887,0-3.15-.019-6.3-.006-9.449A5.751,5.751,0,0,1,61.6.982a5.847,5.847,0,0,1,7.74,1.123,30.064,30.064,0,0,1,2.132,3.282Q72.9,7.7,74.274,10.05a1.019,1.019,0,0,0,1.03.564c1.357-.025,2.717.049,4.073.006a1.31,1.31,0,0,0,.927-.52c1.423-2.287,2.788-4.611,4.185-6.913A5.927,5.927,0,0,1,95.652,6.121c.056,3.1.029,6.194.006,9.289,0,.6.124.868.773,1.033A19.385,19.385,0,0,1,106.9,23a2.3,2.3,0,0,0,1.687.88q11.955,1.211,23.908,2.435a35.475,35.475,0,0,1,11.013,2.6,26,26,0,0,1,12.1,11.471,24.542,24.542,0,0,1,3.119,12.263c.006,4.886.016,9.771-.007,14.657,0,.66.162.9.857,1.009a5.343,5.343,0,0,1,4.405,5.179c.031.666.012,1.335.012,2q0,17.139,0,34.279a5.205,5.205,0,0,1-3.927,5.449,6.335,6.335,0,0,1-1.582.158c-1.47.017-2.94.008-4.409-.006-3.358-.034-5.308-1.727-5.841-5.121ZM148.235,73.38c.02-.172.04-.353.062-.535a5.182,5.182,0,0,1,4.372-4.57c.653-.085.821-.309.818-.947-.025-5.044.014-10.089-.028-15.133a24.911,24.911,0,0,0-.387-3.811c-.271-1.651-.318-1.642-1.92-1.412-.105.015-.211.032-.317.044a7.343,7.343,0,0,1-1.034.1,11.124,11.124,0,0,0-6.863,2.249,19.293,19.293,0,0,1-4.8,2.662,9.6,9.6,0,0,1-12.1-7.06,6.246,6.246,0,0,0-4.234-4.847,9.114,9.114,0,0,1-5.588-5.8c-.461-1.3-.776-2.657-1.108-4a.819.819,0,0,0-.872-.718c-2-.163-3.984-.407-5.981-.553a5.958,5.958,0,0,0-2.429.12c-3.247,1.207-6.451,2.53-9.655,3.85a1.052,1.052,0,0,0-.477.773c-.063.823.035,1.658-.037,2.479a4.688,4.688,0,0,0,.944,3.253,8.487,8.487,0,0,1,.086,10.167,14.4,14.4,0,0,1-3.826,3.718c-.224.154-.438.32-.687.5A8.3,8.3,0,0,0,102.353,52.6a8.5,8.5,0,0,1,6.795-2.772,7.679,7.679,0,0,1,7.292,9.522,8.477,8.477,0,0,1-3.643,4.99,24.5,24.5,0,0,0-7.624,9.044Zm-70-20.959a20.919,20.919,0,0,0,9.889-2.272,15.213,15.213,0,0,0,3.583-2.493c2.03-2,1.865-4.425-.215-6.389a13.749,13.749,0,0,0-4.825-2.926,28.027,28.027,0,0,0-16.07-.9A14.727,14.727,0,0,0,63,41.47c-1.892,1.97-2,4.155-.087,6.085A15.429,15.429,0,0,0,66.706,50.3c3.6,1.873,7.557,2.118,11.528,2.117M32.411,62.915a27.708,27.708,0,0,0,8.3-1.065,14.625,14.625,0,0,0,6.41-3.778c1.818-1.93,1.831-3.747.118-5.766a14.177,14.177,0,0,0-7.849-4.351,29.641,29.641,0,0,0-12.244-.293,16.432,16.432,0,0,0-8.683,4.15c-2.027,1.928-2.181,4.279-.206,6.257a15.8,15.8,0,0,0,3.6,2.617c3.452,1.885,7.278,2.116,10.551,2.228M19.4,44.715c8.972-3.562,17.671-3.757,26.448.1,0-.515.012-.885,0-1.255a47.318,47.318,0,0,0-.327-6.931,12.931,12.931,0,0,0-12.95-10.354C26.182,26.4,21.009,30.4,19.827,36.635a58.16,58.16,0,0,0-.425,8.08M64.277,34.26a31.981,31.981,0,0,1,26.091-.109,65.489,65.489,0,0,0-.044-7.285A13.1,13.1,0,0,0,78.692,15.728a13.288,13.288,0,0,0-13.937,9.145c-1.047,3.021-.445,6.183-.578,9.282,0,.018.033.038.1.106M78.945,68.276c.019-.135.044-.194.03-.238-1.109-3.308-2.209-6.619-3.358-9.913a1.08,1.08,0,0,0-.8-.567,25.07,25.07,0,0,1-6.975-1.326c-3.349-1.1-6.548-2.5-8.925-5.245-2.271-2.622-3.28-5.578-2.178-9.028a6.417,6.417,0,0,0,.125-.642c-1.876.758-3.652,1.459-5.406,2.209a.9.9,0,0,0-.34.687c-.037,1.014.071,2.037-.041,3.039a3.365,3.365,0,0,0,.719,2.506,8.649,8.649,0,0,1,1.561,7.415,11.364,11.364,0,0,1-4.128,5.939c-.5.421-1.036.807-1.661,1.292a3.293,3.293,0,0,0,.753.415,22.4,22.4,0,0,0,3.6.666,8.034,8.034,0,0,0,6.27-2.844,8.168,8.168,0,0,1,13.172,2.269c1.351,3.065.733,5.858-1.523,8.438.328.034.578.078.828.083,1.095.021,2.193-.01,3.283.064.583.039.792-.108.875-.7a5.01,5.01,0,0,1,3.286-4.183c.29-.118.581-.233.833-.334m40.375,15.686q13.948,0,27.9.017c.781,0,1.106-.15,1.047-1a26.525,26.525,0,0,1-.006-3.361c.041-.734-.174-.968-.924-.961-3.607.032-7.214.008-10.822.008q-22.6,0-45.21-.012c-.7,0-.943.162-.9.888.063,1.09.024,2.188.012,3.282-.013,1.144-.022,1.144,1.093,1.144h27.815m.03,15.719V99.67H114.3q-11.54,0-23.081-.015c-.636,0-.835.175-.812.811q.069,1.879,0,3.762c-.021.578.165.717.724.717q18.834-.027,37.667-.022c6.2,0,12.4-.01,18.594.008.651,0,.9-.185.871-.864-.053-1.092-.014-2.188-.024-3.282s-.015-1.1-1.077-1.1q-13.905,0-27.81,0M90.44,89.137c0,1.26.01,2.4,0,3.55-.019,1.75-.024,1.738,1.719,1.737q27.219-.014,54.438-.022c.32,0,.643-.029.961,0,.524.044.708-.176.7-.693q-.037-1.961,0-3.924c.008-.453-.134-.626-.593-.612-.667.02-1.335-.018-2-.018q-26.859-.01-53.716-.016h-1.5M16.94,78.661v5.252H74.723c0-1.564-.026-3.078.014-4.591.014-.506-.145-.686-.623-.657-.213.013-.427,0-.641,0H16.94ZM45.814,99.68v-.01H34.671q-8.458,0-16.916-.007c-.544,0-.911.015-.862.753.075,1.144.032,2.3.037,3.442,0,1.054,0,1.056,1.093,1.057q13.267.006,26.536.01,14.671,0,29.342.013c.619,0,.85-.131.815-.8a30.607,30.607,0,0,1,0-3.52c.053-.821-.277-.955-1-.954q-13.949.031-27.9.014M74.688,89.152H72.082q-15.506,0-31.012,0c-7.8,0-15.6.015-23.4,0-.616,0-.789.17-.76.765.046.931.012,1.867.01,2.8,0,1.7,0,1.69,1.731,1.69Q45.7,94.4,72.742,94.4a11.668,11.668,0,0,0,1.44-.015c.184-.023.48-.273.484-.425.035-1.567.022-3.134.022-4.811m6.138-31.608c1.143,3.4,2.274,6.726,3.37,10.064.172.523.466.619.95.611a4.786,4.786,0,0,1,4.431,2.527A17.454,17.454,0,0,1,90.6,73.416a2.3,2.3,0,0,0,.4.046c2.538-.011,5.077-.048,7.616-.03a1.08,1.08,0,0,0,1.116-.768,30.226,30.226,0,0,1,5.485-8.41c1.6-1.6,3.377-3.017,5.1-4.483a2.432,2.432,0,0,0,1.015-2.733,2.747,2.747,0,0,0-2.479-1.939,3.425,3.425,0,0,0-2.968,1.234,13.27,13.27,0,0,1-9.6,3.922,13.082,13.082,0,0,1-8.449-2.947,2.985,2.985,0,0,0-2.925-.589c-1.33.359-2.7.554-4.09.827m69.738-15.792c-.919-1.146-1.625-2.151-2.455-3.04a20.6,20.6,0,0,0-13.266-6.876c-3.663-.377-7.321-.8-10.982-1.2-1.126-.121-2.257-.2-3.439-.309.431,2.583,1.461,4.5,4,5.431a9.852,9.852,0,0,1,6.221,6.74c.157.509.3,1.022.484,1.522a4.68,4.68,0,0,0,6.815,2.539c.9-.516,1.738-1.144,2.588-1.744a14.014,14.014,0,0,1,8.339-2.859,14.494,14.494,0,0,0,1.694-.207m8.227,50.141h-.054c0-5.9-.01-11.8.015-17.695,0-.615-.183-.8-.769-.773-.88.033-1.762,0-2.644,0-1.862-.009-1.854-.009-1.854,1.852q0,17.135-.025,34.272c0,.466.091.679.613.67,1.335-.026,2.672-.019,4.007.014.543.013.729-.132.727-.721-.025-5.872-.015-11.744-.015-17.616M6.369,91.906h0c0,5.842.008,11.683-.012,17.525,0,.587.151.812.762.789,1.227-.045,2.46-.087,3.682-.012.722.044.9-.135.9-.854q-.031-15.764-.009-31.529c0-1.2-.039-2.4,0-3.6.02-.624-.166-.85-.812-.822-1.173.051-2.351.068-3.523.01-.761-.038-1,.182-1,.968.032,5.842.017,11.683.017,17.525m73.658,18.285h5.016V73.441H80.027ZM36.2,68.084c.432,1.288.856,2.544,1.275,3.8C38,73.465,38,73.458,39.634,73.46q10.814.013,21.628.021a1.386,1.386,0,0,0,.8-.283c1.293-1.031,2.6-2.045,3.815-3.167a3.239,3.239,0,0,0,.923-1.683,2.2,2.2,0,0,0-1.219-2.476,3.138,3.138,0,0,0-3.475.22c-.446.331-.787.8-1.213,1.16a13.37,13.37,0,0,1-12.346,3.131,19.171,19.171,0,0,1-6.1-3.1,1.581,1.581,0,0,0-1-.346c-1.722.329-3.429.736-5.257,1.144M19.518,26.229c1.766-1.135,3.446-2.2,5.095-3.306.122-.082.129-.535.023-.721-.886-1.546-1.807-3.072-2.727-4.6a11.852,11.852,0,0,0-.965-1.465.979.979,0,0,0-.775-.355c-.239.061-.442.4-.579.668a1.472,1.472,0,0,0-.041.628q-.018,3.955-.032,7.911c0,.415,0,.829,0,1.238m26.1-.109a13.363,13.363,0,0,0,.238-1.661c.038-2.185.042-4.371.045-6.557a7.847,7.847,0,0,0-.094-1.512.94.94,0,0,0-.493-.631,1.111,1.111,0,0,0-.769.222,1.6,1.6,0,0,0-.45.552c-1.214,2.024-2.42,4.052-3.616,6.057l5.139,3.531M69.52,12.1c-.178-.3-.377-.645-.581-.986-1.083-1.806-2.148-3.622-3.269-5.4a1.053,1.053,0,0,0-.873-.426c-.261.064-.486.471-.621.774a2.042,2.042,0,0,0-.036.792q.023,4,.053,8c0,.277.051.553.078.826L69.52,12.1m20.814,3.506a2.276,2.276,0,0,0,.078-.449c.016-3.008.039-6.017.012-9.024a1.031,1.031,0,0,0-.525-.811,1.058,1.058,0,0,0-.9.4c-.712,1.058-1.348,2.167-2.006,3.262-.638,1.062-1.268,2.128-1.858,3.119l5.2,3.507m11.654,9.5a14.942,14.942,0,0,0-7.843-3.937L95.787,27.6l6.2-2.49M7.994,35.607,14.2,38.083c.563-2.209,1.095-4.3,1.64-6.437a15.546,15.546,0,0,0-7.846,3.961M52.638,25.125l6.237,2.437c.547-2.155,1.075-4.239,1.613-6.365a14.758,14.758,0,0,0-7.85,3.928m4.539,10.6c-1.009-1.795-6.332-4.32-7.663-3.9l1.647,6.21,6.015-2.307" transform="translate(0 0)" fill="#161615"/>
    <path id="Trazado_816071" data-name="Trazado 816071" d="M199.365,89.456H156.3a24.489,24.489,0,0,1,7.624-9.044,8.474,8.474,0,0,0,3.643-4.99,7.678,7.678,0,0,0-7.292-9.522,8.5,8.5,0,0,0-6.8,2.772,8.3,8.3,0,0,1-10.174,1.313c.248-.183.463-.349.686-.5a14.4,14.4,0,0,0,3.826-3.718,8.488,8.488,0,0,0-.086-10.167,4.684,4.684,0,0,1-.944-3.253c.073-.821-.026-1.656.037-2.479a1.052,1.052,0,0,1,.477-.773c3.2-1.321,6.408-2.642,9.655-3.85a5.981,5.981,0,0,1,2.429-.12c2,.147,3.986.39,5.981.553a.819.819,0,0,1,.871.718c.333,1.343.647,2.7,1.108,4a9.12,9.12,0,0,0,5.588,5.8,6.244,6.244,0,0,1,4.234,4.847,9.6,9.6,0,0,0,12.1,7.059,19.24,19.24,0,0,0,4.8-2.662,11.124,11.124,0,0,1,6.863-2.249,7.333,7.333,0,0,0,1.034-.1c.106-.012.212-.028.318-.044,1.6-.23,1.649-.238,1.92,1.412a24.842,24.842,0,0,1,.386,3.811c.042,5.044,0,10.089.028,15.134,0,.637-.164.861-.817.946a5.181,5.181,0,0,0-4.372,4.57c-.023.181-.042.363-.062.535" transform="translate(-51.13 -16.077)" fill="#fff"/>
    <path id="Trazado_816072" data-name="Trazado 816072" d="M112.363,72.762c-3.973,0-7.924-.244-11.529-2.117A15.435,15.435,0,0,1,97.041,67.9c-1.918-1.93-1.8-4.116.087-6.085a14.723,14.723,0,0,1,7.594-4.033,28.03,28.03,0,0,1,16.071.9,13.772,13.772,0,0,1,4.824,2.925c2.081,1.965,2.245,4.385.216,6.39a15.243,15.243,0,0,1-3.583,2.493,20.92,20.92,0,0,1-9.888,2.272m-6.114-5.3a2.542,2.542,0,0,0,2.561-2.519,2.573,2.573,0,1,0-5.145.019,2.551,2.551,0,0,0,2.584,2.5m12.981-2.512a2.566,2.566,0,1,0-2.588,2.5,2.568,2.568,0,0,0,2.588-2.5" transform="translate(-34.128 -20.341)" fill="#ec8085"/>
    <path id="Trazado_816073" data-name="Trazado 816073" d="M41.761,89.076c-3.273-.112-7.1-.342-10.551-2.227a15.813,15.813,0,0,1-3.6-2.617c-1.974-1.979-1.822-4.329.206-6.257a16.432,16.432,0,0,1,8.683-4.15,29.629,29.629,0,0,1,12.244.293,14.173,14.173,0,0,1,7.849,4.351c1.713,2.018,1.7,3.835-.118,5.765a14.62,14.62,0,0,1-6.41,3.778,27.685,27.685,0,0,1-8.3,1.064m2.923-7.941a2.546,2.546,0,0,0,2.533,2.719,2.751,2.751,0,0,0,2.644-2.6,2.615,2.615,0,0,0-2.588-2.61,2.521,2.521,0,0,0-2.589,2.492m-5.356.066a2.592,2.592,0,0,0-2.59-2.516,2.658,2.658,0,0,0-2.555,2.572A2.734,2.734,0,0,0,36.8,83.8a2.652,2.652,0,0,0,2.53-2.6" transform="translate(-9.35 -26.161)" fill="#ec8085"/>
    <path id="Trazado_816074" data-name="Trazado 816074" d="M30.164,59.286a58.161,58.161,0,0,1,.425-8.08c1.182-6.231,6.355-10.231,12.745-10.362A12.929,12.929,0,0,1,56.283,51.2a47.412,47.412,0,0,1,.327,6.931c.014.37,0,.741,0,1.255-8.777-3.854-17.476-3.659-26.448-.1M51.389,48.67a2.622,2.622,0,0,0-2.644,2.553,2.667,2.667,0,0,0,2.515,2.613,2.572,2.572,0,0,0,2.668-2.514,2.61,2.61,0,0,0-2.539-2.652m-18.4,2.467a2.637,2.637,0,0,0,2.5,2.7,2.577,2.577,0,1,0,.008-5.152,2.466,2.466,0,0,0-2.508,2.454" transform="translate(-10.762 -14.571)" fill="#fff"/>
    <path id="Trazado_816075" data-name="Trazado 816075" d="M99.845,42.953c-.066-.069-.1-.088-.1-.106.133-3.1-.47-6.262.578-9.282a13.286,13.286,0,0,1,13.937-9.144,13.1,13.1,0,0,1,11.632,11.138,65.5,65.5,0,0,1,.044,7.286,31.973,31.973,0,0,0-26.091.109m5.188-10.65a2.543,2.543,0,0,0-2.618,2.545,2.783,2.783,0,0,0,2.646,2.684,2.659,2.659,0,0,0,2.587-2.621,2.7,2.7,0,0,0-2.615-2.608M118.1,34.909a2.7,2.7,0,0,0,2.59,2.625,2.829,2.829,0,0,0,2.669-2.671,2.63,2.63,0,0,0-5.259.046" transform="translate(-35.568 -8.692)" fill="#fff"/>
    <path id="Trazado_816076" data-name="Trazado 816076" d="M105.332,91.2c-.252.1-.543.217-.833.334a5.009,5.009,0,0,0-3.286,4.183c-.083.592-.292.739-.875.7-1.09-.074-2.188-.042-3.283-.064-.25,0-.5-.049-.828-.083,2.256-2.579,2.875-5.372,1.522-8.437a8.167,8.167,0,0,0-13.172-2.269,8.033,8.033,0,0,1-6.27,2.844,22.31,22.31,0,0,1-3.6-.666,3.305,3.305,0,0,1-.753-.415c.626-.485,1.159-.871,1.661-1.293a11.362,11.362,0,0,0,4.128-5.939,8.651,8.651,0,0,0-1.561-7.414,3.367,3.367,0,0,1-.719-2.506c.112-1,0-2.026.041-3.039a.9.9,0,0,1,.34-.687c1.754-.751,3.53-1.451,5.406-2.209a6.356,6.356,0,0,1-.125.641c-1.1,3.451-.093,6.407,2.178,9.028,2.377,2.743,5.575,4.15,8.925,5.245a25.048,25.048,0,0,0,6.975,1.327,1.077,1.077,0,0,1,.8.567c1.149,3.294,2.249,6.605,3.358,9.913.015.044-.011.1-.03.238" transform="translate(-26.387 -22.918)" fill="#fff"/>
    <path id="Trazado_816077" data-name="Trazado 816077" d="M169.46,127.589H141.645c-1.115,0-1.106,0-1.093-1.145.012-1.093.051-2.191-.012-3.282-.042-.725.206-.888.9-.888q22.6.028,45.21.012c3.607,0,7.214.024,10.821-.008.751-.006.966.227.925.962a26.515,26.515,0,0,0,.006,3.361c.06.854-.265,1.006-1.047,1q-13.948-.039-27.9-.016" transform="translate(-50.14 -43.626)" fill="#b66817"/>
    <path id="Trazado_816078" data-name="Trazado 816078" d="M169.495,154.959q13.905,0,27.81,0c1.063,0,1.068,0,1.077,1.1s-.028,2.19.024,3.282c.033.679-.22.866-.871.864-6.2-.017-12.4-.009-18.594-.008q-18.833,0-37.667.022c-.558,0-.745-.138-.724-.717.045-1.253.048-2.509,0-3.762-.023-.636.176-.813.812-.811q11.54.032,23.081.015h5.049Z" transform="translate(-50.146 -55.277)" fill="#b66817"/>
    <path id="Trazado_816079" data-name="Trazado 816079" d="M140.6,138.579h1.5q26.859.008,53.717.016c.668,0,1.336.038,2,.018.46-.014.6.16.593.612q-.037,1.961,0,3.924c.01.517-.175.737-.7.693-.318-.027-.64,0-.961,0q-27.219.011-54.439.022c-1.744,0-1.737.013-1.719-1.737.013-1.145,0-2.29,0-3.55" transform="translate(-50.162 -49.443)" fill="#fff"/>
    <path id="Trazado_816080" data-name="Trazado 816080" d="M26.337,122.294H82.869c.214,0,.428.016.641,0,.478-.028.637.152.623.658-.04,1.512-.014,3.026-.014,4.59H26.337Z" transform="translate(-9.397 -43.632)" fill="#b66817"/>
    <path id="Trazado_816081" data-name="Trazado 816081" d="M55.182,154.961q13.949,0,27.9-.014c.726,0,1.056.133,1,.954a30.463,30.463,0,0,0,0,3.52c.034.666-.2.8-.815.8Q68.6,160.19,53.926,160.2q-13.268,0-26.536-.009c-1.09,0-1.089,0-1.093-1.057,0-1.148.039-2.3-.037-3.443-.049-.738.318-.754.862-.753q8.459.016,16.916.008H55.182Z" transform="translate(-9.368 -55.281)" fill="#b66817"/>
    <path id="Trazado_816082" data-name="Trazado 816082" d="M93.165,138.6c0,1.677.01,3.244-.015,4.811a.587.587,0,0,1-.347.425,6,6,0,0,1-1.031.015q-19.368,0-38.737.005c-1.242,0-1.242.013-1.239-1.69,0-.934.026-1.87-.006-2.8-.021-.6.1-.767.544-.765,5.586.018,11.171,0,16.757,0q11.1,0,22.208,0h1.866" transform="translate(-18.477 -49.451)" fill="#fff"/>
    <path id="Trazado_816083" data-name="Trazado 816083" d="M125.659,88.092c1.385-.272,2.759-.468,4.09-.827a2.985,2.985,0,0,1,2.925.589,13.086,13.086,0,0,0,8.449,2.948,13.27,13.27,0,0,0,9.6-3.922,3.429,3.429,0,0,1,2.968-1.234,2.748,2.748,0,0,1,2.479,1.941,2.431,2.431,0,0,1-1.015,2.732c-1.726,1.466-3.506,2.885-5.1,4.483a30.226,30.226,0,0,0-5.485,8.41,1.08,1.08,0,0,1-1.116.769c-2.539-.017-5.078.019-7.616.03a2.3,2.3,0,0,1-.4-.046,17.454,17.454,0,0,0-1.025-2.671,4.786,4.786,0,0,0-4.431-2.527c-.484.008-.778-.088-.95-.611-1.1-3.337-2.227-6.664-3.37-10.064" transform="translate(-44.833 -30.548)" fill="#535352"/>
    <path id="Trazado_816084" data-name="Trazado 816084" d="M217.36,58.577a14.78,14.78,0,0,1-1.694.207,14.01,14.01,0,0,0-8.339,2.859c-.85.6-1.688,1.228-2.588,1.744a4.68,4.68,0,0,1-6.815-2.539c-.182-.5-.327-1.014-.484-1.523a9.854,9.854,0,0,0-6.221-6.74c-2.539-.926-3.57-2.848-4-5.43,1.182.1,2.312.188,3.438.308,3.662.393,7.32.82,10.983,1.2a20.611,20.611,0,0,1,13.266,6.876c.83.89,1.536,1.895,2.455,3.041" transform="translate(-66.796 -16.824)" fill="#535352"/>
    <path id="Trazado_816085" data-name="Trazado 816085" d="M243.911,132.621c0,5.872-.01,11.744.015,17.615,0,.589-.184.734-.727.721-1.335-.032-2.671-.039-4.007-.013-.522.01-.614-.2-.614-.67q.026-17.135.026-34.272c0-1.86-.008-1.86,1.854-1.851.882,0,1.765.035,2.645,0,.587-.023.772.158.769.773-.025,5.9-.015,11.8-.015,17.7h.055" transform="translate(-85.12 -40.727)" fill="#b66817"/>
    <path id="Trazado_816086" data-name="Trazado 816086" d="M9.893,132.62c0-5.842.014-11.683-.017-17.524,0-.787.238-1.007,1-.969,1.172.058,2.35.041,3.524-.01.646-.028.832.2.812.822-.038,1.2,0,2.4,0,3.6q0,15.765.008,31.529c0,.718-.177.9-.9.854-1.223-.075-2.456-.033-3.682.012-.611.023-.764-.2-.762-.789.02-5.842.012-11.683.012-17.525Z" transform="translate(-3.524 -40.714)" fill="#b66817"/>
    <rect id="Rect치ngulo_376466" data-name="Rect치ngulo 376466" width="5.016" height="36.75" transform="translate(80.027 73.441)" fill="#b66817"/>
    <path id="Trazado_816087" data-name="Trazado 816087" d="M56.275,104.389c1.828-.407,3.535-.814,5.257-1.143a1.576,1.576,0,0,1,1,.345,19.147,19.147,0,0,0,6.1,3.1,13.369,13.369,0,0,0,12.347-3.131c.426-.361.767-.83,1.213-1.16a3.138,3.138,0,0,1,3.475-.22,2.2,2.2,0,0,1,1.219,2.476,3.239,3.239,0,0,1-.923,1.683c-1.211,1.121-2.522,2.135-3.815,3.165a1.382,1.382,0,0,1-.8.284q-10.814.006-21.628-.021c-1.636,0-1.634,0-2.161-1.575-.419-1.257-.843-2.513-1.276-3.8" transform="translate(-20.078 -36.305)" fill="#535352"/>
    <path id="Trazado_816088" data-name="Trazado 816088" d="M30.344,34.979c0-.409,0-.824,0-1.239q.015-3.955.032-7.91a1.486,1.486,0,0,1,.041-.629c.138-.262.34-.607.579-.668a.978.978,0,0,1,.775.355,11.819,11.819,0,0,1,.965,1.464c.92,1.527,1.841,3.053,2.727,4.6.106.185.1.639-.024.72-1.649,1.108-3.328,2.171-5.095,3.307" transform="translate(-10.826 -8.749)" fill="#fff"/>
    <path id="Trazado_816089" data-name="Trazado 816089" d="M68.064,34.851,62.925,31.32c1.2-2,2.4-4.034,3.616-6.057a1.6,1.6,0,0,1,.449-.553,1.107,1.107,0,0,1,.769-.221.936.936,0,0,1,.493.63,7.9,7.9,0,0,1,.095,1.513c0,2.186-.008,4.371-.045,6.556a13.52,13.52,0,0,1-.239,1.661" transform="translate(-22.451 -8.731)" fill="#fff"/>
    <path id="Trazado_816090" data-name="Trazado 816090" d="M105.085,15.027l-5.249,3.58c-.027-.273-.076-.55-.078-.827q-.034-4-.052-8a2.03,2.03,0,0,1,.035-.792c.135-.3.36-.711.621-.775a1.051,1.051,0,0,1,.873.427c1.121,1.782,2.188,3.6,3.269,5.4.2.34.4.683.581.985" transform="translate(-35.566 -2.926)" fill="#fff"/>
    <path id="Trazado_816091" data-name="Trazado 816091" d="M137.557,18.553l-5.2-3.507c.59-.991,1.221-2.058,1.859-3.12.657-1.094,1.294-2.2,2.006-3.262a1.06,1.06,0,0,1,.9-.4,1.031,1.031,0,0,1,.524.812c.029,3.008.005,6.015-.01,9.024a2.381,2.381,0,0,1-.078.45" transform="translate(-47.223 -2.945)" fill="#fff"/>
    <path id="Trazado_816092" data-name="Trazado 816092" d="M154.208,36.854l-6.2,2.49c-.553-2.162-1.087-4.254-1.643-6.428a14.95,14.95,0,0,1,7.843,3.938" transform="translate(-52.22 -11.744)" fill="#535352"/>
    <path id="Trazado_816093" data-name="Trazado 816093" d="M12.428,53.16A15.546,15.546,0,0,1,20.274,49.2c-.545,2.139-1.077,4.229-1.64,6.437L12.428,53.16" transform="translate(-4.434 -17.553)" fill="#535352"/>
    <path id="Trazado_816094" data-name="Trazado 816094" d="M81.836,36.881a14.77,14.77,0,0,1,7.85-3.928L88.073,39.32l-6.237-2.438" transform="translate(-29.198 -11.757)" fill="#535352"/>
    <path id="Trazado_816095" data-name="Trazado 816095" d="M84.642,53.354l-6.015,2.307-1.647-6.21c1.33-.418,6.653,2.108,7.663,3.9" transform="translate(-27.465 -17.627)" fill="#535352"/>
    <path id="Trazado_816096" data-name="Trazado 816096" d="M110.691,70.416a2.549,2.549,0,0,1-2.583-2.5,2.573,2.573,0,1,1,5.145-.019,2.543,2.543,0,0,1-2.562,2.519" transform="translate(-38.571 -23.297)" fill="#161615"/>
    <path id="Trazado_816097" data-name="Trazado 816097" d="M129.461,67.89a2.568,2.568,0,0,1-2.588,2.5,2.569,2.569,0,1,1,2.588-2.5" transform="translate(-44.359 -23.283)" fill="#161615"/>
    <path id="Trazado_816098" data-name="Trazado 816098" d="M54.934,84.085a2.521,2.521,0,0,1,2.589-2.492,2.615,2.615,0,0,1,2.588,2.61,2.75,2.75,0,0,1-2.644,2.6,2.547,2.547,0,0,1-2.533-2.719" transform="translate(-19.599 -29.111)" fill="#161615"/>
    <path id="Trazado_816099" data-name="Trazado 816099" d="M43.753,84.176a2.652,2.652,0,0,1-2.53,2.6,2.734,2.734,0,0,1-2.614-2.547,2.658,2.658,0,0,1,2.555-2.572,2.592,2.592,0,0,1,2.59,2.516" transform="translate(-13.775 -29.135)" fill="#161615"/>
    <path id="Trazado_816100" data-name="Trazado 816100" d="M61.7,53.013a2.61,2.61,0,0,1,2.539,2.652,2.573,2.573,0,0,1-2.668,2.515,2.668,2.668,0,0,1-2.515-2.614A2.622,2.622,0,0,1,61.7,53.013" transform="translate(-21.069 -18.914)" fill="#161615"/>
    <path id="Trazado_816101" data-name="Trazado 816101" d="M34.558,55.487a2.466,2.466,0,0,1,2.508-2.454,2.577,2.577,0,1,1-.008,5.152,2.637,2.637,0,0,1-2.5-2.7" transform="translate(-12.33 -18.921)" fill="#161615"/>
    <path id="Trazado_816102" data-name="Trazado 816102" d="M106.543,36.708a2.7,2.7,0,0,1,2.615,2.608,2.659,2.659,0,0,1-2.587,2.621,2.782,2.782,0,0,1-2.646-2.684,2.543,2.543,0,0,1,2.618-2.545" transform="translate(-37.079 -13.097)" fill="#161615"/>
    <path id="Trazado_816103" data-name="Trazado 816103" d="M128.318,39.309a2.63,2.63,0,0,1,5.259-.046,2.829,2.829,0,0,1-2.669,2.671,2.7,2.7,0,0,1-2.59-2.625" transform="translate(-45.782 -13.092)" fill="#161615"/>
  </g>
</svg>
