<svg id="Grupo_1071869" data-name="Grupo 1071869" xmlns="http://www.w3.org/2000/svg" xmlns:xlink="http://www.w3.org/1999/xlink" width="112.231" height="106.759" viewBox="0 0 112.231 106.759">
  <defs>
    <clipPath id="clip-path">
      <rect id="Rectángulo_376469" data-name="Rectángulo 376469" width="112.231" height="106.759" fill="none"/>
    </clipPath>
  </defs>
  <g id="Grupo_1071868" data-name="Grupo 1071868" clip-path="url(#clip-path)">
    <path id="Trazado_816109" data-name="Trazado 816109" d="M99.375,33.732a32.892,32.892,0,0,1,3.83,2.343c.023.016.07,0,.106,0-.044.245-.244.424-.226.708a1.95,1.95,0,0,0,.971,1.563c.534.349,1.091.662,1.639.989,1.314.782,1.3.776.595,2.139-.172.331-.52.641-.529.959a5.686,5.686,0,0,1-.466,2.092,17.256,17.256,0,0,1-4.194,6,13.708,13.708,0,0,1-4.561,2.7,18.857,18.857,0,0,1-4.651,1.08c-1.042.106-2.08.249-3.131.287-2.169.079-4.33-.139-6.5-.137a1.944,1.944,0,0,0-1.518.692c-.212.223-.138.557-.367.754-1.493-.1-2.993-.051-4.483-.216a1.777,1.777,0,0,0-1.748-1.564,32.686,32.686,0,0,0-3.93.237A20.581,20.581,0,0,0,64.258,55.9a25.848,25.848,0,0,0-7.187,4.939c-.638.6-.752.582-1.34-.084-1.49-1.688-3.153-3.2-4.793-4.735a3.553,3.553,0,0,0-4.582-.179,17.093,17.093,0,0,0-1.621,1.552c-.51.5-.513.514-.886-.1-1.132-1.855-2.062-3.818-3.042-5.754A61.571,61.571,0,0,1,35.753,36.8c-.246-1.123-.472-2.251-.664-3.384-.267-1.571-.535-3.144-.663-4.736-.033-.412.077-.538.5-.532,1.535.023,3.07.008,4.606.01a4.911,4.911,0,0,0,1.455-.211c.57-.176.593-.167.592.41,0,1.718-.018,3.436,0,5.153a15.272,15.272,0,0,0,.161,2.726,6.343,6.343,0,0,0,6.368,5.172c2.028.043,4.058.029,6.086.006a7.34,7.34,0,0,0,2.556-.476,6.547,6.547,0,0,0,4.217-6.145q.015-4.632,0-9.264a7.918,7.918,0,0,0-.559-2.989,6.423,6.423,0,0,0-5.452-3.813c-1.224-.024-2.45-.04-3.673.007-.575.022-.79-.2-.835-.725a15.438,15.438,0,0,1,1.064-8.2,3.729,3.729,0,0,1,3.6-2.343,14.9,14.9,0,0,1,6.238,1.392,13.026,13.026,0,0,1,4.505,3.036,16.281,16.281,0,0,1,3.017,4.664,14.741,14.741,0,0,1,1.1,7.538,11.556,11.556,0,0,0-.242,2.169,1.61,1.61,0,0,0,2.18,1.454c.79-.286.955-.988,1.122-1.675a15.038,15.038,0,0,0,.25-2.1,13.387,13.387,0,0,0-.1-4.018c-.055-.269-.007-.444.3-.524a7.837,7.837,0,0,1,3.658-.035c2.245.457,4.516.808,6.788,1.11a4.517,4.517,0,0,1,3.842,2.5q.665,1.381,1.294,2.779a16.445,16.445,0,0,0,3,4.742,22.033,22.033,0,0,0,5.01,3.586,1.5,1.5,0,0,0,1.545.187,8.1,8.1,0,0,0,.754-.532M80.5,35.051a2.273,2.273,0,0,1,2.253,1.319,7.751,7.751,0,0,0,.531,1.01,1.364,1.364,0,0,0,1.719.649,1.616,1.616,0,0,0,1.178-1.743,4.959,4.959,0,0,0-.448-1.453,5.51,5.51,0,0,0-10.374,1.378,1.515,1.515,0,0,0,.769,1.635,1.554,1.554,0,0,0,1.707-.061c.561-.359.669-.974.927-1.5A2.03,2.03,0,0,1,80.5,35.051" transform="translate(-19.277 -4.179)" fill="#314948"/>
    <path id="Trazado_816110" data-name="Trazado 816110" d="M80.1,29.553a8.247,8.247,0,0,1-.754.532A1.5,1.5,0,0,1,77.8,29.9a22.042,22.042,0,0,1-5.01-3.586,16.454,16.454,0,0,1-3-4.742q-.628-1.4-1.294-2.778a4.517,4.517,0,0,0-3.842-2.5c-2.272-.3-4.543-.653-6.788-1.111a7.843,7.843,0,0,0-3.658.036c-.3.08-.351.255-.3.524a13.4,13.4,0,0,1,.1,4.018,15.1,15.1,0,0,1-.251,2.1c-.167.687-.333,1.389-1.122,1.675a1.61,1.61,0,0,1-2.18-1.454,11.551,11.551,0,0,1,.241-2.168,14.74,14.74,0,0,0-1.1-7.538A16.294,16.294,0,0,0,46.58,7.71a13.017,13.017,0,0,0-4.505-3.036,14.9,14.9,0,0,0-6.238-1.391,3.729,3.729,0,0,0-3.6,2.343,15.448,15.448,0,0,0-1.064,8.2c.046.523.26.747.835.725,1.223-.047,2.449-.031,3.673-.007a6.425,6.425,0,0,1,5.452,3.814,7.914,7.914,0,0,1,.559,2.989q.01,4.632,0,9.264a6.547,6.547,0,0,1-4.216,6.145,7.322,7.322,0,0,1-2.557.476c-2.029.024-4.058.038-6.086-.006a6.342,6.342,0,0,1-6.368-5.171,15.315,15.315,0,0,1-.16-2.726c-.022-1.717-.006-3.435,0-5.153,0-.576-.023-.586-.593-.41a4.894,4.894,0,0,1-1.454.211c-1.535,0-3.071.014-4.606-.01-.421-.006-.531.12-.5.532.128,1.592.4,3.165.663,4.736.193,1.133.418,2.261.664,3.384a61.594,61.594,0,0,0,5.053,14.742c.98,1.935,1.91,3.9,3.042,5.754.373.611.376.6.886.1a17.091,17.091,0,0,1,1.621-1.552,3.553,3.553,0,0,1,4.582.178c1.641,1.534,3.3,3.047,4.793,4.736.589.667.7.68,1.34.084a25.85,25.85,0,0,1,7.188-4.939,20.576,20.576,0,0,1,5.955-1.543,32.585,32.585,0,0,1,3.93-.237,1.777,1.777,0,0,1,1.747,1.564.606.606,0,0,0-.112.4,1.494,1.494,0,0,1-1.15,1.236c-1.283.176-2.582.125-3.868.308a25.212,25.212,0,0,0-3.921.8,21.3,21.3,0,0,0-7.875,5c-.237.214-.234.359-.01.57q.6.564,1.163,1.162a1.682,1.682,0,0,1,.261,2.448,1.827,1.827,0,0,1-2.771-.388q-2.486-2.475-4.959-4.964c-1.2-1.2-2.409-2.4-3.6-3.612-.337-.344-.63-.384-.967-.035-.088.092-.188.174-.278.264C25.75,57.485,22.959,60.25,20.2,63.05c-1.091,1.109-1.065.714,0,1.792,3.732,3.786,7.516,7.521,11.266,11.29,1.914,1.924,3.893,3.786,5.734,5.784.83.9.863.888,1.79.1.081-.069.2-.1.267-.175,1.294-1.457,2.7-2.8,4.115-4.137,1.448-1.367,2.831-2.8,4.238-4.212.472-.473.477-.659.007-1.139Q46.1,70.8,44.571,69.275a1.624,1.624,0,1,1,2.053-2.49c1.232,1.221,2.484,2.425,3.667,3.693a3.487,3.487,0,0,1,.763,3.422,3.876,3.876,0,0,1-1.174,1.863c.223.093.406.162.582.245,1.795.835,3.629,1.579,5.48,2.273,1.7.637,3.439,1.152,5.161,1.721a.807.807,0,0,0,1.026-.418,17.868,17.868,0,0,1,1.3-1.774,34.162,34.162,0,0,1,12.051-9.54,38.667,38.667,0,0,1,11.412-3.193c2.35-.329,4.683-.78,7.019-1.2.815-.147.924-.279.844-1.124-.074-.781-.167-1.563-.286-2.343a9.863,9.863,0,0,0-1.35-3.706,38.162,38.162,0,0,0-3.464-4.477,14.554,14.554,0,0,1-2.741-4.189c-.2-.527-.375-1.061-.565-1.6a.661.661,0,0,0-.136.078c-.1.108-.192.22-.286.331a18.912,18.912,0,0,1-4.494,3.972,22.088,22.088,0,0,1-10.673,2.964,53.554,53.554,0,0,1-7.683-.2,1.924,1.924,0,0,1-1.79-1.26c-.077-.2,0-.443-.194-.6.23-.2.156-.531.367-.755a1.946,1.946,0,0,1,1.518-.691c2.168,0,4.329.216,6.5.137,1.051-.038,2.089-.181,3.131-.287a18.864,18.864,0,0,0,4.652-1.08,13.712,13.712,0,0,0,4.56-2.7,17.246,17.246,0,0,0,4.194-6,5.683,5.683,0,0,0,.466-2.092c.009-.317.358-.627.53-.958.708-1.363.718-1.357-.595-2.139-.549-.326-1.106-.64-1.64-.989a1.951,1.951,0,0,1-.971-1.563c-.018-.284.182-.464.225-.708a1.725,1.725,0,0,1,2.589-.368q7.262,4.422,14.541,8.816c.922.556,1.84,1.116,2.723,1.729a7.089,7.089,0,0,1,3.189,5.315,58.122,58.122,0,0,1,.12,7.322,7.46,7.46,0,0,1-3.262,6.145c-2.082,1.514-4.12,3.088-6.156,4.663A9.324,9.324,0,0,1,93.143,67.3c-1.106.146-2.2.363-3.3.539-1.634.26-3.277.467-4.9.776a32.976,32.976,0,0,0-6.871,2.018,30.709,30.709,0,0,0-13.85,11.573c-.1.145-.192.273-.146.435a5.285,5.285,0,0,1-.213,2.85c-.18.684-.4,1.359-.548,2.05a3.481,3.481,0,0,1-2.425,2.647.793.793,0,0,0-.554.628,40.079,40.079,0,0,0-.995,5.362,25.818,25.818,0,0,1-.531,3.543,1.627,1.627,0,0,1-1.793,1.226,1.776,1.776,0,0,1-1.29-1.586c0-.128-.01-.255-.015-.383.011-.236,0-.474.037-.706.174-1.206.389-2.406.531-3.616a28.8,28.8,0,0,1,.841-4.215c.107-.392.091-.676-.412-.8A40.849,40.849,0,0,1,52.124,88.1a72.9,72.9,0,0,1-8.855-3.868c-1.245-.663-1.288-.673-2.243.37A3.944,3.944,0,0,1,39.1,85.818a3.475,3.475,0,0,1-3.391-.9c-.944-.874-1.861-1.776-2.778-2.68q-2.369-2.337-4.721-4.692-4.993-5.026-9.965-10.073a1.257,1.257,0,0,0-1.013-.4,21.346,21.346,0,0,1-3.067-.029c-1.1-.136-2.2-.23-3.3-.4a12.744,12.744,0,0,1-1.827-.357,1.561,1.561,0,0,1-.542-2.747c.113-.092.216-.2.323-.293a2.827,2.827,0,0,1,1.56-.069c1.738.337,3.506.393,5.258.6.362.042.589,0,.652-.469a3.3,3.3,0,0,1,.664-1.544.546.546,0,0,0,.011-.738,58.257,58.257,0,0,1-3.87-6.729,77.567,77.567,0,0,1-5.516-13.61,77.213,77.213,0,0,1-2.636-11.7,42.412,42.412,0,0,1-.462-4.446c-.014-.407-.162-.606-.634-.583A13.435,13.435,0,0,1,1.41,23.9a1.816,1.816,0,0,1-1.4-1.367,1.6,1.6,0,0,1,1.165-1.85,12.442,12.442,0,0,1,2.731-.066A1.67,1.67,0,0,0,5.416,20a3.2,3.2,0,0,1,2.641-1.146,25.771,25.771,0,0,1,3.986.126A2.7,2.7,0,0,1,14,20.3c.2.352.657.344,1,.352q2.848.058,5.7.026c.381,0,.757-.221,1.143-.262.631-.068.57-.58.659-.968a5.986,5.986,0,0,1,4.74-4.784c.252-.066.687.183.707-.241.008-.193-.157-.538-.172-.739-.033-.431-.107-.866-.109-1.3a17.87,17.87,0,0,1,.071-3.054,22.058,22.058,0,0,1,.691-2.912,11.738,11.738,0,0,1,1.322-3.211A6.811,6.811,0,0,1,34.717.06a18.082,18.082,0,0,1,3.611.117A16.154,16.154,0,0,1,43.194,1.5a16.139,16.139,0,0,1,6.041,4.325,19.163,19.163,0,0,1,3.251,4.9,4.665,4.665,0,0,1,.352.888c.124.6.5.54.846.4a12.353,12.353,0,0,0,1.575-.524c.184-.1.734.055,1.112.117,1.385.23,2.758.563,4.15.718.839.094,1.678.241,2.521.321a19.907,19.907,0,0,1,2.3.421,16.433,16.433,0,0,1,1.644.232,7.207,7.207,0,0,1,3.275,2.194,19.922,19.922,0,0,1,2.568,5.031A12.034,12.034,0,0,0,75.913,24.8,23.616,23.616,0,0,0,79.1,26.938c1.243.768,1.423,1.133,1,2.615M8,22.2l-.024-.019-.019.026c-.33.022-.29.271-.281.481.037.851.031,1.707.137,2.55.27,2.151.545,4.3.943,6.435a79.554,79.554,0,0,0,2.777,10.713,73.1,73.1,0,0,0,4.728,10.984c.947,1.79,1.984,3.528,3.076,5.233.215.336.378.384.687.048a30.012,30.012,0,0,1,2.136-2.123.638.638,0,0,0,.124-.977c-.571-.912-1.137-1.828-1.663-2.765a70.718,70.718,0,0,1-7.637-20.855c-.312-1.559-.623-3.117-.793-4.7-.161-1.5-.434-2.988-.472-4.5-.005-.22-.041-.507-.382-.5-1.113.03-2.223-.138-3.337-.033m95.909,32.932c.011-2.319.059-4.638.02-6.956a4.115,4.115,0,0,0-2.141-3.641c-3.682-2.229-7.342-4.494-11-6.762-.329-.2-.4-.1-.528.187a13.037,13.037,0,0,0-1.056,5.748c0,.015-.016.03-.014.043a.607.607,0,0,0,.029.085,9.587,9.587,0,0,0,2.509,5.854c1.167,1.33,2.3,2.7,3.346,4.127a12.875,12.875,0,0,1,2.764,6.959c.021.378.22.476.527.242,1.382-1.048,2.771-2.089,4.129-3.168a3.739,3.739,0,0,0,1.4-2.634c.009-.008.026-.016.026-.023a.3.3,0,0,0-.016-.062M25.577,25.915h0c0,1.589.025,3.178-.01,4.765a3.059,3.059,0,0,0,.788,2.26,2.326,2.326,0,0,0,1.487.912c2.407.155,4.817.062,7.226.073a3.073,3.073,0,0,0,2.871-1.584,3.985,3.985,0,0,0,.451-2.043c-.015-3.1.029-6.2-.054-9.3a3.206,3.206,0,0,0-3.171-3.174c-2.081.042-4.166.064-6.245-.012a3.115,3.115,0,0,0-3.345,3.335c.029,1.588.006,3.177.006,4.765m34.143,61.22c.4.068.436-.216.517-.488.249-.841.325-1.726.578-2.555.18-.586-.077-.737-.468-.927-.859-.418-1.822-.5-2.707-.853-1.425-.57-2.912-.973-4.332-1.563-1.8-.747-3.617-1.442-5.359-2.314a.629.629,0,0,0-.859.158c-.583.628-1.213,1.213-1.817,1.822-.813.818-.8.794.228,1.305A80.785,80.785,0,0,0,57.886,86.63a12.644,12.644,0,0,0,1.834.5" transform="translate(0 0)" fill="#060708"/>
    <path id="Trazado_816111" data-name="Trazado 816111" d="M167.389,189.211a10.929,10.929,0,0,1-2.663-4.517,8.881,8.881,0,0,1-.224-4.461,10.42,10.42,0,0,1,3.475-5.564,8.881,8.881,0,0,1,4.407-2.273,10.553,10.553,0,0,1,9.728,3.379.9.9,0,0,1,.1.125c.452.66.575.611,1.106.011a10.885,10.885,0,0,1,4.184-3.149,10.382,10.382,0,0,1,2.714-.659,9.987,9.987,0,0,1,10.228,6.709,11.136,11.136,0,0,1,.5,2.524,10.683,10.683,0,0,1-.635,4.513c-.122.385.012.449.339.431a6.222,6.222,0,0,1,1.529.03,1.568,1.568,0,0,1,1.391,1.872,1.6,1.6,0,0,1-1.6,1.348c-1.15.027-2.3.022-3.453.007a1.341,1.341,0,0,0-1.054.457q-5.6,5.754-11.218,11.487a4.938,4.938,0,0,1-3.882,1.638,3.689,3.689,0,0,1-2.306-.948c-1.3-1.127-2.412-2.442-3.624-3.658-1.883-1.889-3.734-3.809-5.593-5.721a.84.84,0,0,0-.654-.321c-1.754.015-3.508,0-5.262.01a1.787,1.787,0,0,1-1.829-1.554,1.764,1.764,0,0,1,1.767-1.716c.8,0,1.593,0,2.531,0m25.375.38-.885-.016h-.012l-.429-.009h-.887l-.428,0h-1.767c-.128,0-.256,0-.384-.005-.955-.026-.945-.022-1.332.878-.455,1.054-.912,2.107-1.4,3.146a1.6,1.6,0,0,1-2.187.861,2,2,0,0,1-.979-1.385c-.382-1.369-.769-2.736-1.171-4.1-.041-.14.015-.386-.193-.408s-.282.2-.376.352q-.78,1.288-1.558,2.575a1.926,1.926,0,0,1-1.81,1.013c-.457-.011-.913-.005-1.37,0-.1,0-.236-.041-.3.081s.066.194.131.27q.232.27.48.525c1.761,1.8,3.528,3.6,5.284,5.408,1.349,1.389,1.769,1.41,3.106.047,2.864-2.919,5.611-5.953,8.557-8.793.13-.125.221-.244.111-.424-.061-.087-.129-.086-.2-.02m-1.659-3.335v-.013q2.411,0,4.823,0a.678.678,0,0,0,.7-.315,7.088,7.088,0,0,0,.481-6.645,6.6,6.6,0,0,0-7.469-3.771,7.009,7.009,0,0,0-3.524,2.19c-.733.763-1.448,1.549-2.228,2.263a1.5,1.5,0,0,1-2.324-.057c-.828-.8-1.621-1.633-2.45-2.43a6.475,6.475,0,0,0-3.908-1.913,6.4,6.4,0,0,0-4.38.983,6.852,6.852,0,0,0-3.217,5.152,6.03,6.03,0,0,0,1.139,4.019,27.18,27.18,0,0,0,2.96,3.222.9.9,0,0,0,.7.262c1.187-.011,2.375-.013,3.562,0a.592.592,0,0,0,.6-.349q.768-1.357,1.592-2.682c.567-.915,1.14-1.827,1.749-2.714a1.582,1.582,0,0,1,1.756-.632,1.471,1.471,0,0,1,1.132,1.06c.1.271.171.557.254.836q.434,1.466.868,2.933c.035.117.022.28.187.3s.186-.149.233-.26a1.9,1.9,0,0,1,2.166-1.438q2.3,0,4.6,0" transform="translate(-91.34 -96.366)" fill="#060708"/>
    <path id="Trazado_816112" data-name="Trazado 816112" d="M24.708,151.482c1.094.169,2.2.264,3.3.4a21.339,21.339,0,0,0,3.066.029,1.254,1.254,0,0,1,1.013.4q4.97,5.049,9.965,10.073,2.345,2.361,4.721,4.691c.916.9,1.834,1.806,2.777,2.68a3.475,3.475,0,0,0,3.391.9,3.948,3.948,0,0,0,1.922-1.221c.956-1.043,1-1.033,2.243-.37a72.948,72.948,0,0,0,8.856,3.868,40.928,40.928,0,0,0,4.579,1.549c.5.123.519.406.413.8a28.764,28.764,0,0,0-.842,4.215c-.141,1.209-.357,2.41-.531,3.616-.034.233-.026.471-.037.707-1.2-.311-2.4-.6-3.584-.938-1.469-.425-2.936-.862-4.382-1.358a69.493,69.493,0,0,1-7.66-3.048c-.932-.449-1.918-.82-2.818-1.311-1.575-.858-3.165-1.7-4.711-2.615-1.446-.859-2.82-1.82-4.2-2.765-1.494-1.026-2.845-2.259-4.246-3.417a51.143,51.143,0,0,1-4.32-4.108c-1.131-1.183-2.166-2.451-3.212-3.712a55.787,55.787,0,0,1-3.886-5.335c-.524-.81-1.009-1.646-1.5-2.474a2.053,2.053,0,0,1-.311-1.254" transform="translate(-13.834 -84.838)" fill="#ffedda"/>
    <path id="Trazado_816113" data-name="Trazado 816113" d="M3.206,54.328a13.4,13.4,0,0,0,2.445.057c.472-.022.621.177.634.584a42.413,42.413,0,0,0,.462,4.446,77.159,77.159,0,0,0,2.635,11.7A77.614,77.614,0,0,0,14.9,84.72a58.153,58.153,0,0,0,3.871,6.729.547.547,0,0,1-.012.739,3.3,3.3,0,0,0-.664,1.544c-.062.474-.29.511-.652.469-1.752-.2-3.52-.26-5.258-.6a2.831,2.831,0,0,0-1.56.069A62.744,62.744,0,0,1,7.6,86.191a82.622,82.622,0,0,1-2.625-9.929c-.324-1.584-.611-3.174-.837-4.771-.252-1.782-.369-3.583-.576-5.372-.174-1.5-.16-3.008-.234-4.513-.1-1.985-.041-3.967-.027-5.951,0-.436.2-.906-.094-1.328" transform="translate(-1.796 -30.427)" fill="#314948"/>
    <path id="Trazado_816114" data-name="Trazado 816114" d="M111.393,110.836c.2.153.117.4.194.6a1.924,1.924,0,0,0,1.789,1.26,53.557,53.557,0,0,0,7.683.2,22.09,22.09,0,0,0,10.673-2.964,18.92,18.92,0,0,0,4.494-3.972c.094-.112.187-.223.285-.331a.688.688,0,0,1,.136-.078c.19.538.369,1.072.565,1.6a14.559,14.559,0,0,0,2.742,4.188,38.114,38.114,0,0,1,3.464,4.477,9.855,9.855,0,0,1,1.35,3.706c.119.78.212,1.561.286,2.343.081.845-.029.977-.844,1.124-2.336.422-4.669.874-7.019,1.2a38.675,38.675,0,0,0-11.412,3.193,34.164,34.164,0,0,0-12.052,9.54,17.734,17.734,0,0,0-1.3,1.774.807.807,0,0,1-1.026.418c-1.722-.57-3.465-1.085-5.161-1.722-1.85-.694-3.685-1.438-5.48-2.273-.176-.082-.359-.151-.582-.245a3.873,3.873,0,0,0,1.174-1.863,3.484,3.484,0,0,0-.763-3.421c-1.183-1.268-2.434-2.472-3.667-3.693a1.684,1.684,0,0,0-2.179-.143,4.032,4.032,0,0,1-.494-.327,22.246,22.246,0,0,1-2.851-2.874,1.682,1.682,0,0,0-.261-2.448q-.564-.6-1.162-1.161c-.224-.211-.227-.356.01-.571a21.307,21.307,0,0,1,7.876-5,25.208,25.208,0,0,1,3.921-.8c1.287-.183,2.586-.132,3.868-.308a1.494,1.494,0,0,0,1.15-1.237.607.607,0,0,1,.112-.4c1.49.165,2.99.121,4.483.216" transform="translate(-50.295 -59.114)" fill="#ffedda"/>
    <path id="Trazado_816115" data-name="Trazado 816115" d="M132.584,65.918a2.03,2.03,0,0,0-1.736,1.232c-.258.528-.366,1.143-.927,1.5a1.554,1.554,0,0,1-1.707.061,1.515,1.515,0,0,1-.769-1.635A5.51,5.51,0,0,1,137.819,65.7a4.959,4.959,0,0,1,.448,1.453,1.616,1.616,0,0,1-1.178,1.743,1.364,1.364,0,0,1-1.719-.649,7.752,7.752,0,0,1-.531-1.01,2.273,2.273,0,0,0-2.253-1.319" transform="translate(-71.359 -35.046)" fill="#060708"/>
    <path id="Trazado_816116" data-name="Trazado 816116" d="M65.791,132.437a22.161,22.161,0,0,0,2.851,2.874,4.011,4.011,0,0,0,.494.327,1.677,1.677,0,0,0,.126,2.633q1.531,1.53,3.048,3.076c.47.481.465.667-.007,1.139-1.408,1.41-2.791,2.845-4.238,4.211-1.417,1.337-2.822,2.681-4.116,4.137-.068.077-.187.106-.267.175-.928.79-.961.8-1.791-.1-1.842-2-3.82-3.859-5.735-5.783-3.749-3.769-7.534-7.5-11.266-11.29-1.062-1.077-1.087-.683,0-1.792,2.756-2.8,5.547-5.565,8.325-8.344.09-.091.189-.172.278-.264.337-.348.63-.309.966.035,1.189,1.214,2.4,2.409,3.6,3.612q2.478,2.483,4.958,4.964a1.828,1.828,0,0,0,2.772.388M64.728,138.2c.13-.615-.269-1.033-.672-1.437q-3.889-3.9-7.791-7.785a4.9,4.9,0,0,0-.753-.631,1.665,1.665,0,0,0-1.926.22,1.519,1.519,0,0,0-.262,1.936,4.433,4.433,0,0,0,.594.712q2.6,2.63,5.213,5.248c.967.97,1.938,1.937,2.921,2.89a1.471,1.471,0,0,0,1.811.311,1.323,1.323,0,0,0,.864-1.464m-.525,7.891a1.616,1.616,0,0,0-1.553-1.7A1.7,1.7,0,0,0,60.9,145.98a1.834,1.834,0,0,0,1.643,1.714c.61,0,1.778-.771,1.66-1.6m-5.245-2.132a1.462,1.462,0,0,0,1.621-1.579,1.679,1.679,0,0,0-1.606-1.6,1.646,1.646,0,0,0-1.6,1.647,1.483,1.483,0,0,0,1.586,1.533" transform="translate(-24.69 -68.996)" fill="#98c9ce"/>
    <path id="Trazado_816117" data-name="Trazado 816117" d="M58.12,48.588c0-1.589.023-3.178-.006-4.765a3.116,3.116,0,0,1,3.345-3.335c2.08.077,4.165.055,6.245.013a3.206,3.206,0,0,1,3.171,3.174c.083,3.1.039,6.2.054,9.3a4,4,0,0,1-.451,2.043A3.075,3.075,0,0,1,67.608,56.6c-2.409-.01-4.82.083-7.227-.073a2.329,2.329,0,0,1-1.487-.912,3.059,3.059,0,0,1-.788-2.26c.034-1.588.01-3.177.01-4.765Z" transform="translate(-32.542 -22.674)" fill="#e96339"/>
    <path id="Trazado_816118" data-name="Trazado 816118" d="M217.452,103.162a3.739,3.739,0,0,1-1.4,2.634c-1.359,1.079-2.747,2.12-4.129,3.168-.308.234-.507.136-.527-.242a12.879,12.879,0,0,0-2.764-6.959c-1.046-1.432-2.178-2.8-3.346-4.127a9.59,9.59,0,0,1-2.509-5.854c.008-.014.026-.031.022-.042a.51.51,0,0,0-.038-.086,13.043,13.043,0,0,1,1.056-5.748c.124-.289.2-.391.529-.187,3.658,2.268,7.318,4.534,11,6.762a4.116,4.116,0,0,1,2.141,3.641c.038,2.318-.009,4.637-.02,6.955a.069.069,0,0,0-.01.085m-4.637-8.357a1.243,1.243,0,0,0-.668-1.309,17.425,17.425,0,0,0-1.9-1.08,1.552,1.552,0,0,0-2.112.663,1.453,1.453,0,0,0,.543,2.109,17.745,17.745,0,0,0,2,1.117,1.493,1.493,0,0,0,2.133-1.5" transform="translate(-113.549 -47.947)" fill="#e96339"/>
    <path id="Trazado_816119" data-name="Trazado 816119" d="M17.774,50.411c1.113-.106,2.224.062,3.337.032.341-.009.377.278.382.5.037,1.514.31,3,.472,4.5.17,1.582.48,3.14.792,4.7A70.739,70.739,0,0,0,30.395,81c.526.938,1.093,1.853,1.663,2.765a.638.638,0,0,1-.123.976A30.114,30.114,0,0,0,29.8,86.861c-.309.336-.472.289-.687-.047-1.092-1.706-2.128-3.443-3.076-5.233A73.206,73.206,0,0,1,21.307,70.6,79.554,79.554,0,0,1,18.53,59.884c-.4-2.135-.674-4.284-.943-6.435-.106-.842-.1-1.7-.137-2.55-.009-.21-.049-.459.28-.481l.024.011Z" transform="translate(-9.769 -28.213)" fill="#e96339"/>
    <path id="Trazado_816120" data-name="Trazado 816120" d="M116.618,186.85a12.644,12.644,0,0,1-1.834-.5,80.785,80.785,0,0,1-12.385-4.911c-1.026-.511-1.041-.487-.228-1.305.6-.608,1.234-1.194,1.817-1.822a.629.629,0,0,1,.859-.158c1.743.872,3.562,1.567,5.359,2.314,1.42.59,2.907.993,4.332,1.563.885.354,1.848.435,2.707.853.391.19.647.341.468.927-.253.828-.33,1.714-.578,2.555-.081.272-.121.556-.517.488" transform="translate(-56.897 -99.716)" fill="#e96339"/>
    <path id="Trazado_816121" data-name="Trazado 816121" d="M236.161,125.395a.069.069,0,0,1,.01-.085.331.331,0,0,1,.016.062c0,.007-.017.015-.026.023" transform="translate(-132.257 -70.181)" fill="#314948"/>
    <path id="Trazado_816122" data-name="Trazado 816122" d="M202.752,99.344a.593.593,0,0,1,.038.086c0,.011-.015.028-.022.042a.6.6,0,0,1-.029-.085c0-.013.009-.029.014-.043" transform="translate(-113.545 -55.638)" fill="#314948"/>
    <path id="Trazado_816123" data-name="Trazado 816123" d="M18.139,50.431l-.02.018-.024-.011.02-.026Z" transform="translate(-10.134 -28.234)" fill="#314948"/>
    <path id="Trazado_816124" data-name="Trazado 816124" d="M196.821,190.444q-2.3,0-4.6,0a1.9,1.9,0,0,0-2.166,1.438c-.047.11-.063.276-.233.26s-.152-.179-.187-.3q-.434-1.466-.868-2.933c-.083-.279-.15-.564-.254-.836a1.471,1.471,0,0,0-1.132-1.06,1.582,1.582,0,0,0-1.756.632c-.609.887-1.183,1.8-1.749,2.714q-.822,1.325-1.592,2.682a.592.592,0,0,1-.6.349c-1.187-.015-2.375-.014-3.562,0a.9.9,0,0,1-.7-.262,27.182,27.182,0,0,1-2.96-3.222,6.03,6.03,0,0,1-1.139-4.019,6.852,6.852,0,0,1,3.217-5.152,6.4,6.4,0,0,1,4.38-.983,6.475,6.475,0,0,1,3.908,1.913c.829.8,1.622,1.632,2.45,2.43a1.5,1.5,0,0,0,2.324.057c.78-.714,1.495-1.5,2.228-2.263a7.009,7.009,0,0,1,3.524-2.19,6.6,6.6,0,0,1,7.468,3.771,7.088,7.088,0,0,1-.481,6.645.678.678,0,0,1-.7.315q-2.411-.005-4.823,0Z" transform="translate(-97.055 -100.554)" fill="#e96339"/>
    <path id="Trazado_816125" data-name="Trazado 816125" d="M208.489,210.607c.11.18.019.3-.111.424-2.947,2.839-5.693,5.873-8.557,8.793-1.337,1.363-1.757,1.342-3.106-.047-1.755-1.808-3.523-3.6-5.284-5.408q-.248-.255-.48-.525c-.066-.076-.193-.143-.131-.27s.191-.08.3-.08c.457,0,.913-.009,1.37,0a1.926,1.926,0,0,0,1.81-1.013q.775-1.29,1.558-2.575c.093-.154.169-.373.376-.352s.152.268.193.408c.4,1.363.789,2.73,1.171,4.1a2,2,0,0,0,.979,1.385,1.6,1.6,0,0,0,2.187-.861c.489-1.039.947-2.092,1.4-3.146.388-.9.377-.9,1.332-.878.128,0,.256,0,.383.005l.007.026.007-.026h.426l.007.026.007-.026h.425l.007.026.007-.027h.426l.006.026.006-.026h.427l.005.026.006-.026.428,0,0,.026.005-.026h.428l0,.026.006-.026h.428l0,.026.005-.026.429.009,0,.026.007-.025.884.016.206.02" transform="translate(-106.861 -117.362)" fill="#e96339"/>
    <path id="Trazado_816126" data-name="Trazado 816126" d="M230.741,211.861l-.206-.02c.077-.066.145-.067.206.02" transform="translate(-129.112 -118.616)" fill="#314948"/>
    <path id="Trazado_816127" data-name="Trazado 816127" d="M220.53,211.859l-.007.026-.007-.026h.013" transform="translate(-123.502 -118.653)" fill="#314948"/>
    <path id="Trazado_816128" data-name="Trazado 816128" d="M221.529,211.856l-.007.026-.006-.026h.013" transform="translate(-124.061 -118.651)" fill="#314948"/>
    <path id="Trazado_816129" data-name="Trazado 816129" d="M222.525,211.855l-.007.026-.007-.026h.013" transform="translate(-124.619 -118.651)" fill="#314948"/>
    <path id="Trazado_816130" data-name="Trazado 816130" d="M223.523,211.852l-.007.026-.006-.026h.012" transform="translate(-125.178 -118.649)" fill="#314948"/>
    <path id="Trazado_816131" data-name="Trazado 816131" d="M224.52,211.849l-.006.026-.006-.026h.011" transform="translate(-125.737 -118.647)" fill="#314948"/>
    <path id="Trazado_816132" data-name="Trazado 816132" d="M225.517,211.844l-.005.026-.005-.026h.011" transform="translate(-126.296 -118.644)" fill="#314948"/>
    <path id="Trazado_816133" data-name="Trazado 816133" d="M226.514,211.845l-.006.026,0-.026h.011" transform="translate(-126.855 -118.645)" fill="#314948"/>
    <path id="Trazado_816134" data-name="Trazado 816134" d="M227.511,211.844l-.005.026,0-.026h.01" transform="translate(-127.414 -118.644)" fill="#314948"/>
    <path id="Trazado_816135" data-name="Trazado 816135" d="M228.51,211.865l-.008.025,0-.026h.013" transform="translate(-127.971 -118.656)" fill="#314948"/>
    <path id="Trazado_816136" data-name="Trazado 816136" d="M76.187,144.489a1.324,1.324,0,0,1-.865,1.464,1.47,1.47,0,0,1-1.811-.311c-.983-.954-1.954-1.921-2.921-2.89q-2.613-2.618-5.213-5.247a4.457,4.457,0,0,1-.594-.713,1.519,1.519,0,0,1,.262-1.936,1.665,1.665,0,0,1,1.926-.22,4.885,4.885,0,0,1,.753.631q3.9,3.887,7.791,7.785c.4.4.8.822.672,1.437" transform="translate(-36.149 -75.285)" fill="#060708"/>
    <path id="Trazado_816137" data-name="Trazado 816137" d="M85.609,173.079c.117.831-1.05,1.6-1.66,1.6a1.834,1.834,0,0,1-1.643-1.714,1.7,1.7,0,0,1,1.75-1.585,1.615,1.615,0,0,1,1.553,1.7" transform="translate(-46.096 -95.983)" fill="#060708"/>
    <path id="Trazado_816138" data-name="Trazado 816138" d="M75.872,166.347a1.483,1.483,0,0,1-1.586-1.533,1.646,1.646,0,0,1,1.6-1.647,1.679,1.679,0,0,1,1.606,1.6,1.462,1.462,0,0,1-1.621,1.579" transform="translate(-41.604 -91.382)" fill="#060708"/>
    <path id="Trazado_816139" data-name="Trazado 816139" d="M219.366,103.237a1.493,1.493,0,0,1-2.133,1.5,17.75,17.75,0,0,1-2-1.117,1.453,1.453,0,0,1-.543-2.109,1.552,1.552,0,0,1,2.112-.663,17.425,17.425,0,0,1,1.9,1.081,1.243,1.243,0,0,1,.668,1.309" transform="translate(-120.1 -56.379)" fill="#060708"/>
  </g>
</svg>
