<svg xmlns="http://www.w3.org/2000/svg" xmlns:xlink="http://www.w3.org/1999/xlink" width="77.256" height="107.194" viewBox="0 0 77.256 107.194">
  <defs>
    <clipPath id="clip-path">
      <rect id="Rectángulo_376478" data-name="Rectángulo 376478" width="77.256" height="107.194" fill="none"/>
    </clipPath>
  </defs>
  <g id="Grupo_1071899" data-name="Grupo 1071899" clip-path="url(#clip-path)">
    <path id="Trazado_816198" data-name="Trazado 816198" d="M29.385,105.606a4.143,4.143,0,0,1-.349.96,1.591,1.591,0,0,1-1.409.622q-7.622.011-15.243,0a4.654,4.654,0,0,1-4.545-3.755,12.985,12.985,0,0,1-.115-2.165c-.015-.484-.012-.97.007-1.455.01-.267-.063-.365-.35-.359-.9.019-1.808-.021-2.711.013a4.119,4.119,0,0,1-2.412-.7A4.591,4.591,0,0,1,.08,95.429a6.16,6.16,0,0,1-.067-.878Q.008,54.532,0,14.514A4.886,4.886,0,0,1,3.733,9.675a4.61,4.61,0,0,1,1.044-.083c2.105-.007,4.21,0,6.316-.005h.4c0-.172,0-.312,0-.452,0-.882.01-1.764.011-2.647a6.037,6.037,0,0,1,.933-3.126,6.775,6.775,0,0,1,4.327-3.2,6.356,6.356,0,0,1,2.926.01,6.494,6.494,0,0,1,5,4.42,7.536,7.536,0,0,1,.368,2.068c.061.954.015,1.914.015,2.922h.411q19.575,0,39.151,0a4.679,4.679,0,0,1,3.619,1.5A4,4,0,0,1,69.444,13.6c.062,1.2.066,2.393.094,3.59l.052.125c.98.007,1.961,0,2.94.025a4.637,4.637,0,0,1,3.535,1.607,4.366,4.366,0,0,1,1.124,2.8c.024.789.063,1.578.064,2.367q0,39.042,0,78.084a4.723,4.723,0,0,1-2.53,4.443,3.813,3.813,0,0,1-1.834.492c-1.627.012-3.254.059-4.88.06q-16.781.008-33.562,0a2.55,2.55,0,0,1-.945-.14,1.454,1.454,0,0,1-.962-1.441q.015-.216.029-.433a1.775,1.775,0,0,1,1.85-1.143q12.613.014,25.227.008,6.348,0,12.7,0a1.551,1.551,0,0,0,1.748-1.754q0-5.905-.005-11.81,0-34.222,0-68.444a1.507,1.507,0,0,0-1.457-1.53c-.4-.013-.793.007-1.189.012H69.588l-.044.064c0,.088-.007.176-.007.264q0,14.59,0,29.179,0,22.215,0,44.43a6.288,6.288,0,0,1-.119,1.37,4.819,4.819,0,0,1-4.759,3.662q-26.433-.043-52.866-.017c-.286,0-.573.008-.859.013l-.057.045q0,1.058,0,2.116c0,.286-.015.572-.011.858a1.558,1.558,0,0,0,1.374,1.52,6.211,6.211,0,0,0,.692.025q7.351,0,14.7,0a1.613,1.613,0,0,1,1.762,1.435l-.006.132M16.6,12.718H14.623v.3q0,3.257,0,6.514c0,.54.016,1.081,0,1.62a1.109,1.109,0,0,0,1,1.022,1.059,1.059,0,0,0,1.051-1.14q0-4.133,0-8.267l-.066-.047M14.757,9.6h1.92c0-.837,0-1.607,0-2.378a1.073,1.073,0,0,1,.052-.312,1.548,1.548,0,0,1,1.726-1.1,1.514,1.514,0,0,1,1.335,1.473c.008.639.006,1.279.01,1.918,0,.118.012.237.019.384.621,0,1.213-.01,1.806,0,.256.006.354-.07.344-.338-.034-.921-.041-1.842-.075-2.763a2.851,2.851,0,0,0-.118-.767,3.5,3.5,0,0,0-2.594-2.466,3.437,3.437,0,0,0-2.211.126,3.824,3.824,0,0,0-2.406,3.728c-.021.755.032,1.512.062,2.268,0,.076.084.149.129.223M66.4,93.626c0-.176.011-.352.011-.528q0-38.976,0-77.951c0-.382-.03-.764-.064-1.145a1.367,1.367,0,0,0-1.02-1.164,13.965,13.965,0,0,0-1.832-.093q-16.548-.007-33.1,0-5.141,0-10.283.006c-.1,0-.208.092-.311.14,0,.047,0,.094,0,.141q0,3.854-.007,7.709a6.121,6.121,0,0,1-.26,1.794,4.213,4.213,0,0,1-3.727,2.8,3.94,3.94,0,0,1-2.629-.85,3.8,3.8,0,0,1-1.663-3.042c-.042-2.668-.021-5.338-.026-8.007,0-.676,0-.682-.691-.686-1.951-.011-3.9,0-5.852-.028a1.689,1.689,0,0,0-1.828,1.846c0,.315.058.63.058.945q0,35.584,0,71.168,0,3.507.011,7.014c0,.4-.022.794-.01,1.19a1.591,1.591,0,0,0,1.409,1.452q4.05,0,8.1.005,26.071,0,52.142,0a1.493,1.493,0,0,0,1.5-1.2,12.512,12.512,0,0,0,.066-1.513" transform="translate(0 0)"/>
    <path id="Trazado_816199" data-name="Trazado 816199" d="M113.945,396.2q-.014.217-.029.433h-3.153c0-.044,0-.088.005-.132.223-.367.581-.334.94-.337.438,0,.876-.056,1.314-.054.308,0,.615.058.923.09" transform="translate(-81.378 -291.021)" fill="#b2bdd3"/>
    <path id="Trazado_816200" data-name="Trazado 816200" d="M262.172,64.912l-.052-.125.052.125" transform="translate(-192.581 -47.599)" fill="#a4a5a5"/>
    <path id="Trazado_816201" data-name="Trazado 816201" d="M28.445,48.113c.1-.049.208-.14.311-.14q5.141-.011,10.283-.006,16.548,0,33.1,0a13.968,13.968,0,0,1,1.832.093,1.367,1.367,0,0,1,1.02,1.164c.034.381.064.763.064,1.145q0,38.976,0,77.951c0,.176-.007.352-.011.528a5.647,5.647,0,0,1-1.872.408q-29.919-.018-59.838-.02a5.053,5.053,0,0,1-1.049-.226c-.148-.033-.3-.064-.444-.1q-.006-3.507-.011-7.014,0-35.584,0-71.168c0-.315-.062-.63-.058-.945A1.688,1.688,0,0,1,13.6,47.944c1.951.023,3.9.017,5.852.028.691,0,.69.01.691.686,0,2.669-.016,5.338.026,8.007a3.8,3.8,0,0,0,1.663,3.042,3.938,3.938,0,0,0,2.628.85,4.212,4.212,0,0,0,3.728-2.8,6.121,6.121,0,0,0,.259-1.794q0-3.855.007-7.709c0-.047,0-.094,0-.141m26.635,52.83,2.579-.006.141.124a1.747,1.747,0,0,1,.075.175,1.6,1.6,0,0,0,1.733,1.293c2.061,0,4.122-.007,6.182.008a1.63,1.63,0,0,0,1.794-1.782c-.013-4.907,0-9.814-.006-14.721a3.165,3.165,0,0,0-.065-.647A1.434,1.434,0,0,0,66.4,84.314c-.579-.026-1.159-.049-1.738-.05q-18.547,0-37.094,0-3.951,0-7.9-.006A1.538,1.538,0,0,0,17.985,85.9c0,.562.019,1.125.019,1.687q0,6.632-.013,13.265a1.526,1.526,0,0,0,1.241,1.633,2.973,2.973,0,0,0,.657.045q15.952,0,31.9,0c.441,0,.882.014,1.322,0a1.573,1.573,0,0,0,1.586-1.466l.181-.069.121-.007.076-.041M33.465,70.717c-.889.01-1.778.023-2.667.026a1.027,1.027,0,0,1-.288-.088A1.526,1.526,0,0,0,29.353,69.2a4.022,4.022,0,0,0-.9-.1c-1.753-.008-3.5,0-5.257,0-1.179,0-2.359-.01-3.538.006a1.569,1.569,0,0,0-1.667,1.427c-.006,2.569,0,5.138,0,7.708a1.439,1.439,0,0,0,.95,1.448,2.822,2.822,0,0,0,1,.126q21.69.008,43.38,0c.926,0,1.851.007,2.777-.012a1.636,1.636,0,0,0,.626-.163,1.535,1.535,0,0,0,.851-1.567c0-2.448.012-4.9,0-7.345a1.454,1.454,0,0,0-1.147-1.548,3.459,3.459,0,0,0-.938-.084q-4.827-.006-9.654,0-10.216,0-20.433,0a1.616,1.616,0,0,0-1.764,1.517l-.176.1m-4.256,46.942v.006H38.76c.121,0,.243,0,.363,0a1.611,1.611,0,0,0,1.476-1.4,1.549,1.549,0,0,0-1.228-1.7,2.888,2.888,0,0,0-.622-.058q-9.006,0-18.012,0H19.612a1.578,1.578,0,0,0-.186,3.151c3.261.017,6.522.007,9.783.007M56.241,64.987v0q4.909,0,9.818,0a1.42,1.42,0,0,0,1.367-.865,1.555,1.555,0,0,0-.11-1.585,1.734,1.734,0,0,0-1.551-.691l-18.413,0c-.3,0-.6-.009-.891.018A1.6,1.6,0,0,0,44.953,63.5a1.688,1.688,0,0,0,1.47,1.5c3.273-.013,6.545-.006,9.818-.006m0-7.539h6.444c1.1,0,2.2.007,3.3,0A1.607,1.607,0,0,0,67.5,56.411a1.5,1.5,0,0,0-.641-1.851,2.483,2.483,0,0,0-1.153-.277q-9.419-.025-18.837-.011c-.121,0-.242,0-.363.011a1.615,1.615,0,0,0-1.543,1.771,1.657,1.657,0,0,0,1.665,1.393q4.808,0,9.617,0m.015,60.219v0H61.05c1.652,0,3.3.011,4.957-.006a1.467,1.467,0,0,0,1.43-.913,1.533,1.533,0,0,0-.16-1.612,1.79,1.79,0,0,0-1.523-.634q-9.484,0-18.968,0a3,3,0,0,0-.557.051,1.594,1.594,0,0,0-1.263,1.815,1.689,1.689,0,0,0,1.578,1.3h9.716M29.2,125.212q4.745,0,9.489,0a4.2,4.2,0,0,0,.743-.067A1.484,1.484,0,0,0,40.6,123.7a1.464,1.464,0,0,0-1.1-1.523,7.229,7.229,0,0,0-1.321-.126c-2.005-.011-4.011,0-6.016,0q-6.36.021-12.72.053a1.518,1.518,0,0,0-1.462,1.7,1.625,1.625,0,0,0,1.5,1.41q4.86-.011,9.721,0m26.99,0H65.91a1.511,1.511,0,0,0,1.619-1.295,1.444,1.444,0,0,0-1.067-1.749,9.373,9.373,0,0,0-1.189-.12q-9.07-.007-18.139.007a3.454,3.454,0,0,0-1.012.073,1.553,1.553,0,0,0-1.144,1.851,1.616,1.616,0,0,0,1.532,1.239c3.228-.012,6.455-.005,9.683-.005M29.223,106.948H26.38q-3.421,0-6.843,0a1.566,1.566,0,0,0-1.556,1.361,1.532,1.532,0,0,0,1.453,1.749c.627.033,1.255.04,1.883.041q8.575.014,17.15.018a4.416,4.416,0,0,0,.745-.063,1.541,1.541,0,0,0,1.387-1.39,1.558,1.558,0,0,0-1.691-1.715c-3.229-.007-6.457,0-9.686,0m27,0q-4.759,0-9.519,0a2.543,2.543,0,0,0-.608.068,1.55,1.55,0,0,0-1.113,1.785,1.519,1.519,0,0,0,1.4,1.255c.627.022,1.255.041,1.883.042q7.765.012,15.529.013c.789,0,1.579-.013,2.366-.06a1.4,1.4,0,0,0,1.31-.939,1.566,1.566,0,0,0-.215-1.574,1.612,1.612,0,0,0-1.351-.592q-4.842,0-9.684,0" transform="translate(-8.645 -35.225)" fill="#edf1f4"/>
    <path id="Trazado_816202" data-name="Trazado 816202" d="M62.641,161.931c-.308-.032-.615-.089-.923-.09-.438,0-.876.051-1.314.054-.359,0-.717-.03-.94.337A1.613,1.613,0,0,0,57.7,160.8q-7.351,0-14.7,0a6.215,6.215,0,0,1-.693-.025,1.558,1.558,0,0,1-1.374-1.52c0-.286.007-.572.011-.858a6.391,6.391,0,0,1,.652-.065q28.582,0,57.163,0a2.869,2.869,0,0,0,1.906-.778,3.417,3.417,0,0,0,1.107-2.781q0-38.11,0-76.22a1.713,1.713,0,0,0-.263-1.28c.4-.005.794-.026,1.189-.012a1.507,1.507,0,0,1,1.456,1.53q0,34.222,0,68.444,0,5.905.005,11.81a1.551,1.551,0,0,1-1.748,1.754q-6.348.008-12.7,0-12.613,0-25.227-.008a1.775,1.775,0,0,0-1.85,1.143" transform="translate(-30.075 -56.757)" fill="#a2aec4"/>
    <path id="Trazado_816203" data-name="Trazado 816203" d="M101.539,77.312a1.712,1.712,0,0,1,.263,1.28q0,38.11,0,76.219a3.418,3.418,0,0,1-1.107,2.781,2.871,2.871,0,0,1-1.906.778q-28.581,0-57.162,0a6.38,6.38,0,0,0-.652.065q0-1.058,0-2.116l.057-.045c.286,0,.573-.013.859-.013q26.433,0,52.866.017a4.819,4.819,0,0,0,4.759-3.661,6.289,6.289,0,0,0,.119-1.371q.009-22.215,0-44.43,0-14.59,0-29.179c0-.088,0-.176.007-.264l.045-.064h1.849" transform="translate(-30.102 -56.802)" fill="#919cb0"/>
    <path id="Trazado_816204" data-name="Trazado 816204" d="M12,352.982c.148.032.3.063.444.1a5.053,5.053,0,0,0,1.049.226q29.919.017,59.838.02a5.655,5.655,0,0,0,1.872-.408,12.523,12.523,0,0,1-.066,1.513,1.493,1.493,0,0,1-1.5,1.2q-26.071.007-52.142,0-4.05,0-8.1-.005a1.591,1.591,0,0,1-1.409-1.452c-.013-.4.005-.793.009-1.19" transform="translate(-8.808 -259.29)" fill="#dce8ee"/>
    <path id="Trazado_816205" data-name="Trazado 816205" d="M57.164,47.986q0,4.133,0,8.266a1.059,1.059,0,0,1-1.051,1.14,1.108,1.108,0,0,1-1-1.022c.02-.539,0-1.08,0-1.62q0-3.257,0-6.514v-.3H57.1l.066.047" transform="translate(-40.493 -35.221)" fill="#edf1f4"/>
    <path id="Trazado_816206" data-name="Trazado 816206" d="M74.634,48.579c0,.047,0,.094,0,.141,0-.047,0-.094,0-.141" transform="translate(-54.834 -35.691)" fill="#a4a5a5"/>
    <path id="Trazado_816207" data-name="Trazado 816207" d="M262.182,77.312l-.044.064.044-.064" transform="translate(-192.595 -56.802)" fill="#626574"/>
    <path id="Trazado_816208" data-name="Trazado 816208" d="M62.656,47.986l-.066-.047.066.047" transform="translate(-45.985 -35.221)" fill="#545557"/>
    <path id="Trazado_816209" data-name="Trazado 816209" d="M41.029,374.964l-.057.045.057-.045" transform="translate(-30.102 -275.489)" fill="#6d707b"/>
    <path id="Trazado_816210" data-name="Trazado 816210" d="M55.625,36.2h0" transform="translate(-40.868 -26.593)" fill="#202122"/>
    <path id="Trazado_816211" data-name="Trazado 816211" d="M71.922,201.624a1.573,1.573,0,0,1-1.586,1.466c-.44.017-.882,0-1.322,0q-15.952,0-31.9,0a2.992,2.992,0,0,1-.657-.045,1.526,1.526,0,0,1-1.241-1.633q.006-6.632.013-13.265c0-.562-.022-1.125-.019-1.687a1.538,1.538,0,0,1,1.681-1.641q3.951,0,7.9.006,18.547,0,37.094,0c.579,0,1.159.023,1.738.049a1.434,1.434,0,0,1,1.113,1.073,3.167,3.167,0,0,1,.065.647c0,4.907-.007,9.814.006,14.721A1.63,1.63,0,0,1,83.01,203.1c-2.061-.015-4.122,0-6.182-.008a1.6,1.6,0,0,1-1.733-1.293,1.741,1.741,0,0,0-.075-.175l.023-.131a1.556,1.556,0,0,1,.894-1.365,2.911,2.911,0,0,1,1.056-.187c1.452-.02,2.905-.008,4.358-.008l.219-.013c.041-.075.116-.149.117-.224.006-.659,0-1.319-.006-1.978q0-4.86,0-9.721l-.067-.056-.116,0-.279,0c-.176,0-.352.011-.528.011q-17.473,0-34.946,0-3.584,0-7.168-.012l-.261.122.01.189q0,4.47-.007,8.94c0,.042,0,.084,0,.126s0,.093,0,.14c0,.106,0,.213,0,.319q0,1.033-.007,2.066l.045.062.527.033.091-.005.264,0,29.936,0c.407,0,.816-.011,1.222.015a1.522,1.522,0,0,1,1.51,1.545c0,.042,0,.083.007.125" transform="translate(-25.865 -135.789)"/>
    <path id="Trazado_816212" data-name="Trazado 816212" d="M50.868,129.195a1.616,1.616,0,0,1,1.764-1.517q10.216-.006,20.433,0,4.827,0,9.654,0a3.451,3.451,0,0,1,.938.084,1.453,1.453,0,0,1,1.146,1.548c.013,2.448.005,4.9,0,7.345a1.536,1.536,0,0,1-.85,1.567,1.643,1.643,0,0,1-.626.163c-.926.019-1.851.012-2.777.012q-21.69,0-43.379,0a2.823,2.823,0,0,1-1-.126,1.439,1.439,0,0,1-.95-1.448c0-2.569-.009-5.138,0-7.708a1.569,1.569,0,0,1,1.667-1.426c1.179-.016,2.358-.005,3.538-.006,1.752,0,3.5-.007,5.257,0a3.993,3.993,0,0,1,.9.1,1.525,1.525,0,0,1,1.156,1.455,4.3,4.3,0,0,1-.3.913,1.581,1.581,0,0,1-1.472.7q-3.636.007-7.272,0h-.354v1.985c0,.155,0,.31-.007.465,0,.087,0,.174,0,.261,0,.045,0,.091,0,.136q0,.362,0,.724c0,.024,0,.047,0,.071q0,.2,0,.392c0,.024,0,.047,0,.071-.023.14-.032.273.167.28l.486.029c.132,0,.264.009.4.009H69.331q5.488,0,10.977-.007h.073l.456,0,.073,0H81.1l.2,0,.129,0,.147-.03c.039-.064.113-.128.113-.191,0-.6-.016-1.2-.026-1.8l0-.15.011-.111,0-.077q0-.659.009-1.318c0-.088,0-.176,0-.264v-.464H81.13q-14.3,0-28.61,0a1.639,1.639,0,0,1-1.649-1.532l0-.129" transform="translate(-25.873 -93.805)"/>
    <path id="Trazado_816213" data-name="Trazado 816213" d="M90.315,137.287c0,.037-.007.074-.01.111a.053.053,0,0,0-.048.011l-.694,0q-20.956,0-41.912,0c-.207,0-.413-.038-.62-.058l-.055-.2v-1.985h.354q3.636,0,7.272,0a1.58,1.58,0,0,0,1.472-.7,4.286,4.286,0,0,0,.3-.913,1.012,1.012,0,0,0,.289.089c.889,0,1.778-.016,2.666-.026l.179.027a1.64,1.64,0,0,0,1.649,1.532q14.305-.01,28.61,0h.561v.464c0,.088,0,.176,0,.264q0,.659-.009,1.318Z" transform="translate(-34.514 -98.118)" fill="#fed35b"/>
    <path id="Trazado_816214" data-name="Trazado 816214" d="M80.543,237.2a1.523,1.523,0,0,0-1.51-1.545c-.406-.025-.815-.014-1.222-.014l-29.936,0c-.088,0-.176,0-.264,0l-.091.005-.527-.033-.045-.062q0-1.033.007-2.066l.052-.065c.11,0,.22.006.33.006H90.309c0,.659.011,1.319.006,1.978,0,.075-.076.149-.117.224l-.219.013c-1.453,0-2.905-.011-4.358.009a2.915,2.915,0,0,0-1.056.187,1.556,1.556,0,0,0-.894,1.366l-.164.008-2.579.006-.076.041-.12.007-.188-.056" transform="translate(-34.493 -171.487)" fill="#89d1f6"/>
    <path id="Trazado_816215" data-name="Trazado 816215" d="M46.373,301.981c-3.261,0-6.522.01-9.783-.007a1.578,1.578,0,0,1,.187-3.151H37.9q9.006,0,18.012,0a2.87,2.87,0,0,1,.622.059,1.548,1.548,0,0,1,1.228,1.7,1.611,1.611,0,0,1-1.475,1.4c-.121.008-.242,0-.363,0H46.373Z" transform="translate(-25.81 -219.547)"/>
    <path id="Trazado_816216" data-name="Trazado 816216" d="M148.142,103.481c-3.273,0-6.545-.007-9.818.006a1.687,1.687,0,0,1-1.47-1.5,1.6,1.6,0,0,1,1.507-1.632c.3-.027.594-.018.892-.018l18.413,0a1.734,1.734,0,0,1,1.551.692,1.555,1.555,0,0,1,.11,1.585,1.42,1.42,0,0,1-1.367.865q-4.909.01-9.818,0Z" transform="translate(-100.547 -73.72)"/>
    <path id="Trazado_816217" data-name="Trazado 816217" d="M148.153,74.968q-4.808,0-9.617,0a1.657,1.657,0,0,1-1.665-1.393,1.615,1.615,0,0,1,1.543-1.771c.121-.008.242-.011.363-.011q9.419,0,18.837.011a2.483,2.483,0,0,1,1.153.277,1.5,1.5,0,0,1,.641,1.851,1.607,1.607,0,0,1-1.506,1.034c-1.1.01-2.2,0-3.305,0h-6.444" transform="translate(-100.555 -52.746)"/>
    <path id="Trazado_816218" data-name="Trazado 816218" d="M148.162,301.984h-9.715a1.689,1.689,0,0,1-1.578-1.3,1.594,1.594,0,0,1,1.263-1.815,2.989,2.989,0,0,1,.557-.051q9.484,0,18.968,0a1.791,1.791,0,0,1,1.523.634,1.533,1.533,0,0,1,.16,1.612,1.467,1.467,0,0,1-1.429.913c-1.652.017-3.3.006-4.957.006h-4.792Z" transform="translate(-100.549 -219.542)"/>
    <path id="Trazado_816219" data-name="Trazado 816219" d="M46.414,330.425q-4.86,0-9.721,0a1.626,1.626,0,0,1-1.5-1.41,1.518,1.518,0,0,1,1.462-1.7q6.36-.036,12.72-.053c2.005-.007,4.011-.013,6.016,0a7.251,7.251,0,0,1,1.321.126,1.463,1.463,0,0,1,1.1,1.523,1.484,1.484,0,0,1-1.165,1.444,4.171,4.171,0,0,1-.743.067q-4.745.007-9.489,0" transform="translate(-25.856 -240.438)"/>
    <path id="Trazado_816220" data-name="Trazado 816220" d="M148.09,330.433c-3.228,0-6.455-.007-9.683.005a1.615,1.615,0,0,1-1.532-1.239,1.553,1.553,0,0,1,1.144-1.851,3.47,3.47,0,0,1,1.012-.073q9.069-.01,18.139-.007a9.374,9.374,0,0,1,1.189.12,1.444,1.444,0,0,1,1.067,1.749,1.511,1.511,0,0,1-1.619,1.295H148.09" transform="translate(-100.542 -240.446)"/>
    <path id="Trazado_816221" data-name="Trazado 816221" d="M46.428,270.348c3.229,0,6.457,0,9.686,0a1.557,1.557,0,0,1,1.691,1.715,1.54,1.54,0,0,1-1.387,1.39,4.386,4.386,0,0,1-.745.063q-8.575,0-17.15-.018c-.628,0-1.256-.007-1.883-.041a1.532,1.532,0,0,1-1.453-1.749,1.566,1.566,0,0,1,1.556-1.361q3.421-.007,6.843,0h2.843" transform="translate(-25.85 -198.625)"/>
    <path id="Trazado_816222" data-name="Trazado 816222" d="M148.154,270.351q4.842,0,9.684,0a1.612,1.612,0,0,1,1.351.592,1.566,1.566,0,0,1,.215,1.574,1.4,1.4,0,0,1-1.31.939c-.787.047-1.577.06-2.366.06q-7.765,0-15.529-.013c-.627,0-1.255-.02-1.883-.041a1.52,1.52,0,0,1-1.4-1.255,1.55,1.55,0,0,1,1.113-1.785,2.532,2.532,0,0,1,.608-.068q4.759-.006,9.519,0" transform="translate(-100.58 -198.629)"/>
    <path id="Trazado_816223" data-name="Trazado 816223" d="M184.753,247.674l.164-.008-.023.131-.141-.124" transform="translate(-135.739 -181.962)" fill="#dce8ee"/>
    <path id="Trazado_816224" data-name="Trazado 816224" d="M173.581,247.688l.188.056-.182.069c0-.042,0-.083-.006-.125" transform="translate(-127.531 -181.978)" fill="#dce8ee"/>
    <path id="Trazado_816225" data-name="Trazado 816225" d="M93.732,133.529l-.179-.027.176-.1,0,.128" transform="translate(-68.734 -98.011)" fill="#d5d8da"/>
    <path id="Trazado_816226" data-name="Trazado 816226" d="M174.744,247.759l.076-.041-.076.041" transform="translate(-128.386 -182)" fill="#dce8ee"/>
    <path id="Trazado_816227" data-name="Trazado 816227" d="M90.314,206.345H47.342c-.11,0-.22,0-.331-.006l-.055-.254,0-.14c0-.042,0-.084,0-.126l.007-8.94.036-.2.215-.114q3.584.006,7.168.012,17.473,0,34.946,0c.176,0,.352-.007.528-.011l.279,0,.116,0,.067.056q0,4.86,0,9.721" transform="translate(-34.498 -144.417)" fill="#a7daf9"/>
    <path id="Trazado_816228" data-name="Trazado 816228" d="M47.208,196.58l-.215.114-.046.008.261-.122" transform="translate(-34.492 -144.429)" fill="#587081"/>
    <path id="Trazado_816229" data-name="Trazado 816229" d="M46.961,232.452l.055.254-.052.065c0-.107,0-.213,0-.319" transform="translate(-34.503 -170.784)" fill="#919cb0"/>
    <path id="Trazado_816230" data-name="Trazado 816230" d="M208.944,196.564l-.279,0,.279,0" transform="translate(-153.308 -144.417)" fill="#587081"/>
    <path id="Trazado_816231" data-name="Trazado 816231" d="M209.15,241.744l.219-.013-.219.013" transform="translate(-153.664 -177.602)" fill="#477180"/>
    <path id="Trazado_816232" data-name="Trazado 816232" d="M46.946,197.018l.046-.008-.036.2-.01-.189" transform="translate(-34.492 -144.744)" fill="#919cb0"/>
    <path id="Trazado_816233" data-name="Trazado 816233" d="M46.955,231.449c0,.042,0,.084,0,.126,0-.042,0-.084,0-.126" transform="translate(-34.497 -170.047)" fill="#919cb0"/>
    <path id="Trazado_816234" data-name="Trazado 816234" d="M46.947,241.442l.045.062-.045-.062" transform="translate(-34.492 -177.389)" fill="#919cb0"/>
    <path id="Trazado_816235" data-name="Trazado 816235" d="M49.1,241.785l.091-.005-.091.005" transform="translate(-36.077 -177.638)" fill="#477180"/>
    <path id="Trazado_816236" data-name="Trazado 816236" d="M210.22,196.636l-.067-.056.067.056" transform="translate(-154.401 -144.429)" fill="#587081"/>
    <path id="Trazado_816237" data-name="Trazado 816237" d="M46.971,147.893c.207.02.413.058.62.058q20.956,0,41.912,0l.694,0,.052.138c.01.6.025,1.2.026,1.8,0,.064-.073.128-.113.192l-.147.03-.129,0-.2,0H89.49l-.073,0-.456,0h-.073q-5.488,0-10.977.008H47.955c-.132,0-.264-.006-.4-.009l-.486-.029c-.2-.008-.19-.14-.168-.28.007-.007.021-.015.021-.02a.258.258,0,0,0-.016-.051q0-.2,0-.392c.007-.007.022-.016.021-.021a.294.294,0,0,0-.023-.05v-.724c0-.045,0-.091,0-.136,0-.087,0-.174,0-.261l.063-.261" transform="translate(-34.453 -108.658)" fill="#ffc319"/>
    <path id="Trazado_816238" data-name="Trazado 816238" d="M47.011,147.33l-.063.261q0-.232.007-.465l.055.2" transform="translate(-34.493 -108.095)" fill="#be8f17"/>
    <path id="Trazado_816239" data-name="Trazado 816239" d="M47.569,156.174l.486.029-.486-.029" transform="translate(-34.949 -114.742)" fill="#be8f17"/>
    <path id="Trazado_816240" data-name="Trazado 816240" d="M210.385,141.656c0-.088,0-.176,0-.264,0,.088,0,.176,0,.264" transform="translate(-154.571 -103.881)" fill="#be8f17"/>
    <path id="Trazado_816241" data-name="Trazado 816241" d="M208.188,156.254l.2,0-.2,0" transform="translate(-152.957 -114.801)" fill="#be8f17"/>
    <path id="Trazado_816242" data-name="Trazado 816242" d="M209.434,156.176l.147-.03-.147.03" transform="translate(-153.873 -114.722)" fill="#be8f17"/>
    <path id="Trazado_816243" data-name="Trazado 816243" d="M46.953,149.862c0,.045,0,.091,0,.136,0-.045,0-.091,0-.136" transform="translate(-34.497 -110.105)" fill="#be8f17"/>
    <path id="Trazado_816244" data-name="Trazado 816244" d="M210.172,148.208l-.051-.138a.053.053,0,0,1,.048-.011l0,.15" transform="translate(-154.377 -108.779)" fill="#be8f17"/>
    <path id="Trazado_816245" data-name="Trazado 816245" d="M207.184,156.261l.073,0-.073,0" transform="translate(-152.22 -114.804)" fill="#be8f17"/>
    <path id="Trazado_816246" data-name="Trazado 816246" d="M205.19,156.281h0" transform="translate(-150.755 -114.82)" fill="#be8f17"/>
    <path id="Trazado_816247" data-name="Trazado 816247" d="M46.942,154.849a.279.279,0,0,1,.016.051c0,.006-.013.014-.021.02,0-.024,0-.048,0-.071" transform="translate(-34.485 -113.769)" fill="#be8f17"/>
    <path id="Trazado_816248" data-name="Trazado 816248" d="M46.958,153.1a.339.339,0,0,1,.022.05s-.013.014-.02.021c0-.024,0-.048,0-.071" transform="translate(-34.5 -112.487)" fill="#be8f17"/>
    <path id="Trazado_816249" data-name="Trazado 816249" d="M210.338,147.434l0-.077,0,.077" transform="translate(-154.537 -108.264)" fill="#be8f17"/>
  </g>
</svg>
