<svg id="Grupo_1071901" data-name="Grupo 1071901" xmlns="http://www.w3.org/2000/svg" xmlns:xlink="http://www.w3.org/1999/xlink" width="110.87" height="101.35" viewBox="0 0 110.87 101.35">
  <defs>
    <clipPath id="clip-path">
      <rect id="Rectángulo_376479" data-name="Rectángulo 376479" width="110.87" height="101.35" fill="none"/>
    </clipPath>
  </defs>
  <g id="Grupo_1071900" data-name="Grupo 1071900" clip-path="url(#clip-path)">
    <path id="Trazado_816250" data-name="Trazado 816250" d="M104.783,8.271c1.16-1.037,2.327-2.067,3.477-3.115q1.072-.977,2.1-2A1.75,1.75,0,0,0,110.34.7a1.7,1.7,0,0,0-2.359-.077c-1.8,1.522-3.519,3.141-5.22,4.774-.22.212-.376.486-.731.488A6.51,6.51,0,0,0,99.905,1.62,6.43,6.43,0,0,0,95.563.035C91.248-.024,86.931.007,82.615.022a6.194,6.194,0,0,0-2.731.53A6.086,6.086,0,0,0,76.2,6.017c-.082,1.6-.04,3.2-.053,4.8-.011.011-.031.024-.03.031a.43.43,0,0,0,.033.073c.017.337-.217.267-.419.266q-5.11,0-10.218,0a8.259,8.259,0,0,0-2.139.123,1.489,1.489,0,0,0-.887.721,2.809,2.809,0,0,0-.242,1.633q-.024,17.2-.012,34.394c0,.823-.009.824-.87.813-2.308-.031-4.615-.064-6.923-.069-.388,0-.5-.08-.5-.488.015-3.592,0-7.184,0-10.776q0-4.411,0-8.822a2.288,2.288,0,0,0-.508-1.543c-.506-.619-1.059-1.191-1.614-1.756-2.658-2.709-5.263-5.466-7.874-8.218-1.444-1.522-2.941-3-4.362-4.539a2.752,2.752,0,0,0-2.191-.951q-11.558.029-23.117.018-5.891,0-11.781-.009A2.14,2.14,0,0,0,.247,12.957,2.583,2.583,0,0,0,.139,14.09Q.129,48.846.133,83.6c0,.149.055.329-.009.441C-.19,84.588.2,85.1.172,85.637a1.336,1.336,0,0,0,.41.856,2.517,2.517,0,0,0,2.144.643q24.149,0,48.3,0c.428,0,.858,0,1.283-.039a1.632,1.632,0,0,0,1.542-1.366c.03-.865.071-1.733.073-2.6q.043-15.131.017-30.262c0-.445.118-.562.558-.553,2.374.046,4.749,0,7.123.124.512.027.62.147.62.64q-.022,17.587-.009,35.175a1.821,1.821,0,0,0,2.081,1.926q5.723-.008,11.446,0c.123,0,.264-.071.335.1-.007.234-.089.474.052.7.007,1.339.023,2.678.017,4.016a5.627,5.627,0,0,0,.683,2.942,6.049,6.049,0,0,0,5.5,3.409q6.084-.024,12.167,0a9.589,9.589,0,0,0,3.9-.629,5.769,5.769,0,0,0,2.843-2.508,7.714,7.714,0,0,0,.79-3.775c-.024-2.677,0-5.354.009-8.032l.021-.152c-.01-.207.171-.281.291-.376,1.347-1.064,2.569-2.273,3.846-3.413,1.359-1.213,2.721-2.442,4.018-3.733a2.012,2.012,0,0,0,.468-.685,1.758,1.758,0,0,0-.415-1.945,1.91,1.91,0,0,0-2.3-.1c-1.833,1.668-3.749,3.244-5.523,4.977-.11.108-.186.234-.363.184s-.08-.214-.116-.323a7.591,7.591,0,0,0-.78-2.125l-.089-.118a6.222,6.222,0,0,0-2.445-2.438,6.388,6.388,0,0,0-3.068-.714c-2.114.017-4.23-.012-6.344-.021L89.2,75.3l-.058.124-5.468,0q-.17-.374-.34,0a10.481,10.481,0,0,0-2.463.232,6.157,6.157,0,0,0-4.46,4.239,4.458,4.458,0,0,0-.225,1.283c-.006,1.711-.025,3.421-.038,5.132l-.072.193a1.9,1.9,0,0,1-.921.08q-4.269.026-8.538.039c-.277,0-.553-.009-.83-.013.005-.26.015-.52.015-.781q0-9.738,0-19.476,0-6.7,0-13.393c0-.239-.1-.5.347-.5,3.218.019,6.437.01,9.655.013.153,0,.367-.061.329.227-.009.011-.029.025-.027.032a.452.452,0,0,0,.035.071c.01,1.562.028,3.123.026,4.685a5.228,5.228,0,0,0,.575,2.5,6.148,6.148,0,0,0,5.644,3.649c4.465.026,8.931.007,13.4.008a6.211,6.211,0,0,0,6.2-5.982c.125-2.9.066-5.8.005-8.7a.7.7,0,0,1,.205-.641q2.458-2.171,4.879-4.384c1.111-1.013,2.222-2.027,3.289-3.085a1.68,1.68,0,0,0,.045-2.356,1.573,1.573,0,0,0-2.286-.2,18.505,18.505,0,0,0-1.816,1.547c-1.277,1.16-2.594,2.276-3.816,3.5-.208.207-.412.513-.526-.125a7.352,7.352,0,0,0-.877-2.514,6.029,6.029,0,0,0-2.42-2.32,6.581,6.581,0,0,0-2.984-.643q-6.782.017-13.564.008a5.838,5.838,0,0,0-4.368,2.128,6.009,6.009,0,0,0-1.6,4.421c.061,1.484.035,2.971.047,4.457l0-.013a6.77,6.77,0,0,1-1.806.176c-2.64-.018-5.281-.047-7.921-.008-.6.009-.679-.174-.678-.7q.022-16.4.012-32.8c0-.185.017-.37.026-.555l.084-.077.917.031a.107.107,0,0,0,.176.008c.186-.008.371-.022.556-.023,2.679,0,5.358.011,8.036-.013.444,0,.578.1.573.548-.017,1.618-.007,3.236.022,4.853a5.442,5.442,0,0,0,1.136,3.11A6.186,6.186,0,0,0,82.623,25.9c4.3.014,8.595,0,12.892.009a8.623,8.623,0,0,0,1.156-.063,6.084,6.084,0,0,0,3.346-1.621,6.639,6.639,0,0,0,2.029-5.2c-.011-2.455.008-4.911-.016-7.366a1.44,1.44,0,0,1,.634-1.431.58.58,0,0,0,.325-.427l.118-.092c.091-.027.2-.013.245-.132l.09-.087L104.7,8.352l.086-.082" transform="translate(0 0)" fill="#f6f8fa"/>
    <path id="Trazado_816251" data-name="Trazado 816251" d="M83.677,75.423l5.468,0h.116c2.115.009,4.23.038,6.344.021a6.393,6.393,0,0,1,3.068.714,6.224,6.224,0,0,1,2.445,2.438c-.025.081.024.106.089.118a7.591,7.591,0,0,1,.78,2.125c.036.109-.07.27.116.323s.254-.076.363-.184c1.773-1.733,3.69-3.309,5.523-4.977a1.91,1.91,0,0,1,2.3.1,1.758,1.758,0,0,1,.415,1.945,2.015,2.015,0,0,1-.468.684c-1.3,1.29-2.658,2.519-4.018,3.733-1.276,1.139-2.5,2.349-3.846,3.413-.12.1-.3.17-.29.376a.1.1,0,0,0-.022.153c-.006,2.677-.033,5.355-.009,8.032a7.713,7.713,0,0,1-.79,3.775,5.773,5.773,0,0,1-2.842,2.509,9.592,9.592,0,0,1-3.9.629q-6.084-.019-12.167,0a6.049,6.049,0,0,1-5.5-3.409A5.626,5.626,0,0,1,76.165,95c.006-1.339-.011-2.678-.017-4.016.2-.248.246-.485-.052-.7-.071-.17-.212-.1-.335-.1q-5.723,0-11.446,0a1.821,1.821,0,0,1-2.081-1.926q0-17.587.009-35.175c0-.493-.108-.612-.62-.64-2.374-.126-4.749-.078-7.123-.124-.44-.009-.558.108-.558.553q.014,15.131-.017,30.262c0,.862-.043,1.73-.073,2.6A1.632,1.632,0,0,1,52.309,87.1c-.425.039-.855.039-1.283.039q-24.149,0-48.3,0a2.517,2.517,0,0,1-2.144-.643,1.336,1.336,0,0,1-.41-.856C.2,85.1-.19,84.588.123,84.044c.065-.112.009-.293.009-.441q0-34.756.007-69.513a2.583,2.583,0,0,1,.107-1.132A2.14,2.14,0,0,1,2.5,11.715q5.891.014,11.781.009,11.559,0,23.117-.018a2.751,2.751,0,0,1,2.191.951c1.421,1.543,2.918,3.016,4.362,4.539,2.611,2.753,5.217,5.51,7.874,8.218.554.565,1.108,1.137,1.614,1.756a2.288,2.288,0,0,1,.508,1.543q0,4.411,0,8.822c0,3.592.011,7.184,0,10.776,0,.407.114.487.5.488,2.308.005,4.615.039,6.923.069.861.011.87.011.87-.813q0-17.2.012-34.393a2.81,2.81,0,0,1,.242-1.634,1.489,1.489,0,0,1,.887-.721,8.259,8.259,0,0,1,2.139-.123q5.109-.011,10.218,0c.2,0,.436.07.419-.266,0-.035,0-.07,0-.1.013-1.6-.029-3.2.053-4.8A6.086,6.086,0,0,1,79.884.552a6.2,6.2,0,0,1,2.73-.53c4.316-.015,8.633-.046,12.949.013A6.432,6.432,0,0,1,99.906,1.62a6.513,6.513,0,0,1,2.123,4.267c.354,0,.51-.276.731-.488,1.7-1.633,3.418-3.251,5.22-4.774a1.7,1.7,0,0,1,2.36.077,1.751,1.751,0,0,1,.021,2.453q-1.031,1.02-2.1,2c-1.15,1.048-2.317,2.078-3.477,3.115-.079-.026-.1.005-.086.082l-1.254,1.141c-.079-.021-.107.01-.09.088-.041.119-.154.1-.245.132-.073-.013-.135-.011-.118.092a.58.58,0,0,1-.325.427,1.44,1.44,0,0,0-.634,1.431c.024,2.455,0,4.911.016,7.367a6.639,6.639,0,0,1-2.029,5.2,6.088,6.088,0,0,1-3.346,1.622,8.7,8.7,0,0,1-1.156.063c-4.3-.006-8.6.005-12.892-.009a6.187,6.187,0,0,1-5.291-2.635,5.44,5.44,0,0,1-1.136-3.11c-.029-1.618-.039-3.236-.022-4.854,0-.453-.13-.552-.573-.548-2.679.024-5.358.012-8.037.013-.185,0-.37.014-.555.022,0-.073-.008-.159-.111-.138-.03.006-.044.085-.065.13l-.917-.031c-.076-.026-.1,0-.084.077-.009.185-.026.37-.026.555q0,16.4-.012,32.8c0,.528.075.71.678.7,2.64-.039,5.281-.01,7.921.008a6.807,6.807,0,0,0,1.806-.175.158.158,0,0,1-.009.052c-.008.015-.025.024-.039.035l.052-.075c-.013-1.486.014-2.973-.047-4.457a6.009,6.009,0,0,1,1.6-4.421,5.838,5.838,0,0,1,4.368-2.128q6.782,0,13.564-.008a6.581,6.581,0,0,1,2.984.643,6.029,6.029,0,0,1,2.42,2.32,7.342,7.342,0,0,1,.877,2.514c.113.639.317.333.526.125,1.222-1.22,2.539-2.336,3.816-3.5a18.505,18.505,0,0,1,1.816-1.547,1.573,1.573,0,0,1,2.286.2,1.68,1.68,0,0,1-.045,2.356c-1.067,1.058-2.178,2.072-3.289,3.085q-2.423,2.21-4.879,4.384a.7.7,0,0,0-.205.641c.061,2.9.12,5.8-.005,8.7a6.21,6.21,0,0,1-6.2,5.982c-4.466,0-8.932.019-13.4-.008a6.148,6.148,0,0,1-5.644-3.649,5.228,5.228,0,0,1-.575-2.5c0-1.561-.016-3.123-.026-4.685l-.008-.1c.038-.289-.176-.227-.329-.227-3.218,0-6.437.005-9.655-.013-.45,0-.346.263-.346.5q0,6.7,0,13.393,0,9.738,0,19.476c0,.26-.01.521-.015.781.277,0,.553.014.83.013q4.269-.016,8.538-.039a1.9,1.9,0,0,0,.921-.08c.1-.035.1-.108.072-.193.013-1.711.032-3.421.038-5.132a4.458,4.458,0,0,1,.225-1.283,6.155,6.155,0,0,1,4.46-4.239,10.482,10.482,0,0,1,2.463-.232h.34M3.715,49.34q0,16.666,0,33.331c0,.2.049.4.035.6-.021.29.1.324.363.319q2.344-.044,4.689-.043,19.96,0,39.921,0c.428,0,.857-.009,1.283.021.228.015.459-.16.387-.25-.352-.431.03-.808.03-1.2q-.019-25.375-.013-50.75c0-.367.139-.8-.081-1.087-.238-.312-.668.01-.976-.054a18.781,18.781,0,0,0-3.54-.082c-1.9-.037-3.8-.013-5.7-.006-.277,0-.57-.146-.8-.09a8.358,8.358,0,0,1-2.152.071,1.825,1.825,0,0,1-1.624-1.677c.01-4.168-.015-8.337,0-12.506,0-.544-.141-.679-.675-.678q-15.27.03-30.541.014c-.5,0-.631.119-.63.629q.025,16.721.013,33.442M98.421,89.46c-1.279,1.179-2.427,2.262-3.6,3.314-1.222,1.092-1.984,1.057-3.146-.086l-.04-.039q-2.86-2.864-5.719-5.728a3.768,3.768,0,0,1-.726-.912,1.765,1.765,0,0,1,1.257-2.527,2.071,2.071,0,0,1,1.911.8c1.536,1.542,3.073,3.084,4.594,4.64.3.306.508.326.83.027,1.447-1.34,2.913-2.658,4.371-3.984a.8.8,0,0,0,.332-.562,15.318,15.318,0,0,0-.171-3.444c-.268-1.161-1.059-1.953-2.819-1.945-4.261.017-8.522-.009-12.784.014a2.7,2.7,0,0,0-2.969,3.034c-.008,2.308,0,4.615.005,6.922.006,2.1,0,4.205.042,6.307a2.474,2.474,0,0,0,1.988,2.372,8.849,8.849,0,0,0,1.334.092q5.973.011,11.947,0a11.472,11.472,0,0,0,1.335-.086,2.445,2.445,0,0,0,1.988-1.934c.136-2.039.056-4.081.042-6.279m.009-37.54a.949.949,0,0,0-.509.348c-1.124,1-2.234,2.024-3.371,3.013a1.727,1.727,0,0,1-2.621-.068c-1.3-1.255-2.591-2.511-3.856-3.8Q86.625,49.947,85.26,48.4a1.414,1.414,0,0,1-.07-1.664,1.692,1.692,0,0,1,1.45-.985,2.032,2.032,0,0,1,1.612.743c1.582,1.575,3.166,3.148,4.735,4.736.25.254.422.287.692.041q2.226-2.032,4.471-4.043a.63.63,0,0,0,.264-.515c-.014-.929.025-1.858,0-2.787a2.6,2.6,0,0,0-2.638-2.6c-4.448-.025-8.9-.054-13.344.01A2.4,2.4,0,0,0,79.789,44c-.052,4.577-.011,9.155,0,13.733a1.245,1.245,0,0,0,.095.527,2.748,2.748,0,0,0,2.771,1.788c4.373-.018,8.747.017,13.12-.019a2.514,2.514,0,0,0,2.658-2.6v-5.5M98.38,14.183c-.216.174-.377.29-.522.423q-1.5,1.375-3,2.755a1.972,1.972,0,0,1-3.189-.069c-1.563-1.565-3.133-3.124-4.694-4.693-.538-.54-1.082-1.077-1.576-1.655a1.723,1.723,0,0,1,1.372-2.869A2.209,2.209,0,0,1,88.4,8.89q2.3,2.279,4.57,4.588c.29.3.468.295.763.022,1.435-1.325,2.889-2.63,4.334-3.944A.885.885,0,0,0,98.4,9,25.1,25.1,0,0,0,98.4,6.292a2.539,2.539,0,0,0-2.6-2.607c-4.5,0-9.007-.02-13.511,0A2.472,2.472,0,0,0,79.8,6.21q-.019,6.783,0,13.566a2.489,2.489,0,0,0,1.816,2.4,2.645,2.645,0,0,0,.766.117c4.5,0,9.007,0,13.511-.009a2.426,2.426,0,0,0,2.471-2.055c.066-1.981.019-3.966.019-6.041M47.9,26.491C45,23.47,42.165,20.436,39.125,17.432v.35c0,2.714.019,5.429-.005,8.143,0,.48.084.615.591.622,2.369.027,4.739-.109,7.11.043.31.02.738.176,1.081-.1M102.069,43.62c.012-.013.034-.026.033-.039s-.022-.025-.035-.037l-.035.057.037.018" transform="translate(0 0)" fill="#060607"/>
    <path id="Trazado_816252" data-name="Trazado 816252" d="M169.764,201.46c.3.212.248.449.051.7-.14-.223-.058-.463-.051-.7" transform="translate(-93.668 -111.176)" fill="#e7eaed"/>
    <path id="Trazado_816253" data-name="Trazado 816253" d="M186.3,168.068h-.34q.169-.374.34,0" transform="translate(-102.622 -92.646)" fill="#e7eaed"/>
    <path id="Trazado_816254" data-name="Trazado 816254" d="M149.131,32.826c.022-.045.036-.124.065-.13.1-.021.106.064.111.138a.108.108,0,0,1-.176-.008" transform="translate(-82.298 -18.042)" fill="#e7eaed"/>
    <path id="Trazado_816255" data-name="Trazado 816255" d="M199.035,168.153h-.117l.058-.124.058.124" transform="translate(-109.774 -92.727)" fill="#e7eaed"/>
    <path id="Trazado_816256" data-name="Trazado 816256" d="M169.833,192.588c.031.085.03.158-.072.194l.072-.194" transform="translate(-93.683 -106.28)" fill="#e7eaed"/>
    <path id="Trazado_816257" data-name="Trazado 816257" d="M146.892,32.984c-.014-.072.008-.1.084-.077l-.084.077" transform="translate(-81.061 -18.155)" fill="#e7eaed"/>
    <path id="Trazado_816258" data-name="Trazado 816258" d="M169.979,108.729l-.052.076c.013-.012.031-.021.039-.035a.172.172,0,0,0,.009-.052l0,.012" transform="translate(-93.775 -59.996)" fill="#e7eaed"/>
    <path id="Trazado_816259" data-name="Trazado 816259" d="M169.873,24.129c0,.035,0,.07,0,.1a.443.443,0,0,1-.033-.073c0-.008.019-.021.029-.031" transform="translate(-93.729 -13.316)" fill="#e7eaed"/>
    <path id="Trazado_816260" data-name="Trazado 816260" d="M169.858,117.583l.008.1a.419.419,0,0,1-.035-.071c0-.008.017-.021.027-.032" transform="translate(-93.722 -64.889)" fill="#e7eaed"/>
    <path id="Trazado_816261" data-name="Trazado 816261" d="M229.809,21.757c-.017-.1.045-.1.118-.092l-.118.092" transform="translate(-126.82 -11.953)" fill="#e7eaed"/>
    <path id="Trazado_816262" data-name="Trazado 816262" d="M230.616,21.262c-.017-.077.011-.108.09-.088l-.09.088" transform="translate(-127.264 -11.682)" fill="#e7eaed"/>
    <path id="Trazado_816263" data-name="Trazado 816263" d="M225.716,175.505c-.065-.013-.114-.038-.089-.118l.089.118" transform="translate(-124.509 -96.788)" fill="#e7eaed"/>
    <path id="Trazado_816264" data-name="Trazado 816264" d="M227.707,192.617a.1.1,0,0,1,.022-.152l-.022.152" transform="translate(-125.647 -106.212)" fill="#e7eaed"/>
    <path id="Trazado_816265" data-name="Trazado 816265" d="M233.615,18.526c-.018-.076.007-.107.086-.082l-.086.082" transform="translate(-128.918 -10.174)" fill="#e7eaed"/>
    <path id="Trazado_816266" data-name="Trazado 816266" d="M8.274,68.125q0-16.721-.013-33.442c0-.51.131-.63.63-.629q15.27.015,30.541-.014c.534,0,.677.135.674.678-.02,4.169.006,8.337,0,12.506A1.825,1.825,0,0,0,41.725,48.9a8.355,8.355,0,0,0,2.152-.071c.232-.056.525.091.8.09,1.9-.007,3.8-.031,5.7.006a18.787,18.787,0,0,1,3.541.082c.307.064.738-.258.975.054.22.288.081.72.081,1.087q.005,25.375.013,50.75c0,.4-.382.773-.03,1.2.073.089-.159.265-.386.25-.427-.03-.856-.021-1.283-.021q-19.961,0-39.921,0-2.345,0-4.689.043c-.267,0-.384-.029-.363-.319.014-.2-.035-.4-.035-.6q0-16.666,0-33.331M31.435,63.7v.013q7.589,0,15.18,0a9,9,0,0,0,1.225-.058,1.819,1.819,0,0,0,1.518-1.619,1.854,1.854,0,0,0-1.366-1.81,7.5,7.5,0,0,0-1.48-.126q-14.984-.011-29.969,0a7.07,7.07,0,0,0-1.378.111,1.847,1.847,0,0,0-1.232,2.2,2.148,2.148,0,0,0,2.321,1.3c5.06-.019,10.12-.009,15.18-.009M32.549,88.7c4.213.04,9.4-.061,14.593.046a3.969,3.969,0,0,0,.885-.083,1.8,1.8,0,0,0,1.328-1.6,1.767,1.767,0,0,0-.9-1.552,3.807,3.807,0,0,0-1.612-.3q-15.234.011-30.469.009a7.457,7.457,0,0,0-1,.078,1.851,1.851,0,0,0-1.522,1.539A1.882,1.882,0,0,0,14.966,88.6a2.611,2.611,0,0,0,1.04.16c.837-.018,1.672-.055,2.51-.056,4.352-.006,8.7,0,14.034,0M31.479,72.68v.005q-6.753,0-13.506,0c-.818,0-1.637,0-2.455.02a1.8,1.8,0,0,0-1.539,2.348,2,2,0,0,0,2,1.167q15.4-.063,30.806,0a8.766,8.766,0,0,0,1.058-.056,1.7,1.7,0,0,0,.127-3.365,5.088,5.088,0,0,0-1.258-.121q-7.618,0-15.237,0M24.85,51.149h1.729q3.766,0,7.532,0a1.908,1.908,0,0,0,1.636-1.026,1.49,1.49,0,0,0-.066-1.652,2,2,0,0,0-1.914-.883c-5.951-.024-11.9-.015-17.854-.006a2.366,2.366,0,0,0-1.462.465,1.718,1.718,0,0,0-.576,1.733,1.966,1.966,0,0,0,1.713,1.365q4.632.007,9.262,0" transform="translate(-4.559 -18.785)" fill="#e7eaed"/>
    <path id="Trazado_816267" data-name="Trazado 816267" d="M196.608,186.761c.013,2.2.094,4.24-.042,6.279a2.445,2.445,0,0,1-1.988,1.934,11.481,11.481,0,0,1-1.335.086q-5.973.009-11.947,0a8.829,8.829,0,0,1-1.334-.092,2.475,2.475,0,0,1-1.989-2.372c-.041-2.1-.035-4.2-.042-6.307-.007-2.307-.013-4.615-.005-6.922a2.7,2.7,0,0,1,2.969-3.034c4.261-.023,8.523,0,12.784-.014,1.76-.008,2.551.785,2.818,1.945a15.32,15.32,0,0,1,.171,3.444.8.8,0,0,1-.331.562c-1.459,1.326-2.925,2.645-4.372,3.984-.322.3-.53.279-.83-.027-1.521-1.556-3.059-3.1-4.595-4.64a2.071,2.071,0,0,0-1.91-.8,1.765,1.765,0,0,0-1.257,2.527,3.746,3.746,0,0,0,.726.912q2.858,2.866,5.719,5.728l.04.039c1.162,1.143,1.924,1.178,3.146.086,1.176-1.052,2.324-2.135,3.6-3.314" transform="translate(-98.187 -97.302)" fill="#4b9123"/>
    <path id="Trazado_816268" data-name="Trazado 816268" d="M196.65,102.77v5.5a2.515,2.515,0,0,1-2.658,2.6c-4.373.036-8.747,0-13.121.019a2.747,2.747,0,0,1-2.771-1.788,1.253,1.253,0,0,1-.1-.527c-.007-4.577-.049-9.156,0-13.733a2.394,2.394,0,0,1,2.637-2.663c4.447-.065,8.9-.035,13.344-.01a2.6,2.6,0,0,1,2.639,2.6c.03.928-.009,1.858,0,2.786a.631.631,0,0,1-.264.516q-2.24,2.017-4.471,4.042c-.27.246-.442.212-.692-.041-1.569-1.588-3.152-3.161-4.735-4.736a2.033,2.033,0,0,0-1.613-.742,1.691,1.691,0,0,0-1.45.985,1.414,1.414,0,0,0,.07,1.664q1.364,1.547,2.812,3.019c1.266,1.285,2.561,2.542,3.857,3.8a1.726,1.726,0,0,0,2.621.068c1.137-.989,2.247-2.009,3.371-3.012a.946.946,0,0,1,.509-.348" transform="translate(-98.221 -50.85)" fill="#1faab5"/>
    <path id="Trazado_816269" data-name="Trazado 816269" d="M196.632,18.708c0,2.075.048,4.061-.019,6.041a2.426,2.426,0,0,1-2.471,2.055c-4.5.011-9.007,0-13.511.009a2.643,2.643,0,0,1-.766-.118,2.487,2.487,0,0,1-1.816-2.4q-.015-6.784,0-13.566a2.472,2.472,0,0,1,2.5-2.526c4.5-.019,9.007,0,13.511,0a2.539,2.539,0,0,1,2.6,2.607,24.978,24.978,0,0,1-.006,2.711.886.886,0,0,1-.327.553c-1.445,1.314-2.9,2.62-4.334,3.945-.295.272-.472.274-.763-.023q-2.263-2.315-4.57-4.588a2.207,2.207,0,0,0-1.633-.813,1.723,1.723,0,0,0-1.372,2.868c.494.579,1.038,1.115,1.576,1.655,1.561,1.568,3.131,3.127,4.694,4.693a1.972,1.972,0,0,0,3.188.069q1.5-1.379,3-2.755c.145-.133.306-.249.522-.423" transform="translate(-98.252 -4.525)" fill="#ffca00"/>
    <path id="Trazado_816270" data-name="Trazado 816270" d="M96.073,47.957c-.343.274-.771.118-1.081.1-2.371-.152-4.741-.016-7.11-.043-.507-.006-.6-.141-.591-.622.025-2.714.008-5.428.005-8.143V38.9c3.041,3,5.872,6.037,8.777,9.059" transform="translate(-48.172 -21.466)" fill="#e7eaed"/>
    <path id="Trazado_816271" data-name="Trazado 816271" d="M227.712,97.24l-.037-.018.035-.057c.013.012.034.024.035.037s-.021.026-.033.039" transform="translate(-125.643 -53.62)" fill="#e7eaed"/>
    <path id="Trazado_816272" data-name="Trazado 816272" d="M38.326,95.775c-5.06,0-10.12-.011-15.18.009a2.148,2.148,0,0,1-2.321-1.3,1.847,1.847,0,0,1,1.232-2.2,7.038,7.038,0,0,1,1.378-.111q14.984-.008,29.968,0a7.5,7.5,0,0,1,1.481.126,1.853,1.853,0,0,1,1.365,1.81,1.819,1.819,0,0,1-1.517,1.62,9.067,9.067,0,0,1-1.225.058q-7.59,0-15.181,0Z" transform="translate(-11.45 -50.863)" fill="#060607"/>
    <path id="Trazado_816273" data-name="Trazado 816273" d="M39.422,151.727c-5.328,0-9.681,0-14.034,0-.837,0-1.673.038-2.51.056a2.619,2.619,0,0,1-1.04-.16,1.884,1.884,0,0,1-1.115-1.757,1.851,1.851,0,0,1,1.522-1.539,7.453,7.453,0,0,1,1-.078q15.235-.006,30.469-.009a3.818,3.818,0,0,1,1.613.3,1.769,1.769,0,0,1,.9,1.552,1.8,1.8,0,0,1-1.328,1.6,4.026,4.026,0,0,1-.886.083c-5.189-.108-10.379-.007-14.593-.047" transform="translate(-11.432 -81.808)" fill="#060607"/>
    <path id="Trazado_816274" data-name="Trazado 816274" d="M38.365,120.261q7.618,0,15.237,0a5.112,5.112,0,0,1,1.258.121,1.7,1.7,0,0,1-.127,3.365,8.774,8.774,0,0,1-1.058.057q-15.4-.089-30.807,0a2,2,0,0,1-2-1.168,1.8,1.8,0,0,1,1.539-2.348c.818-.02,1.636-.02,2.454-.02q6.754,0,13.507,0Z" transform="translate(-11.444 -66.366)" fill="#060607"/>
    <path id="Trazado_816275" data-name="Trazado 816275" d="M31.689,67.813q-4.631,0-9.262,0a1.966,1.966,0,0,1-1.713-1.365,1.717,1.717,0,0,1,.576-1.732,2.363,2.363,0,0,1,1.462-.466c5.951-.009,11.9-.018,17.854.006a2,2,0,0,1,1.914.883,1.49,1.49,0,0,1,.066,1.652,1.908,1.908,0,0,1-1.636,1.026q-3.766,0-7.532,0H31.689" transform="translate(-11.398 -35.45)" fill="#060607"/>
  </g>
</svg>
