<svg xmlns="http://www.w3.org/2000/svg" xmlns:xlink="http://www.w3.org/1999/xlink" width="124" height="124" viewBox="0 0 124 124">
  <defs>
    <clipPath id="clip-path">
      <rect id="Rect치ngulo_376096" data-name="Rect치ngulo 376096" width="70.163" height="75.983" fill="#fffad0"/>
    </clipPath>
  </defs>
  <g id="Grupo_1072894" data-name="Grupo 1072894" transform="translate(-385.001 -2058)">
    <g id="Grupo_159182" data-name="Grupo 159182" transform="translate(0.001)">
      <path id="Uni칩n_12" data-name="Uni칩n 12" d="M8438,11700a62,62,0,1,1-62,62A62,62,0,0,1,8438,11700Z" transform="translate(-7991 -9642)" fill="#1b3f5e"/>
      <circle id="Elipse_4842" data-name="Elipse 4842" cx="48" cy="48" r="48" transform="translate(399 2072)" fill="#1b3f5e"/>
    </g>
    <g id="Grupo_1071240" data-name="Grupo 1071240" transform="translate(416.417 2082.008)">
      <g id="Grupo_1071239" data-name="Grupo 1071239" clip-path="url(#clip-path)">
        <path id="Trazado_815323" data-name="Trazado 815323" d="M53.778,59.363c-1.1.248-2.177.5-3.259.733-.88.19-1.76.389-2.648.533a3.1,3.1,0,0,1-3.359-2.96c-.019-.273-.071-.345-.358-.338-.729.019-1.458-.026-2.188-.026q-17.379,0-34.758,0c-.618,0-1.237.024-1.853-.01a1.028,1.028,0,0,1-1-1.071A1.075,1.075,0,0,1,5.4,55.143c.617-.023,1.236,0,1.854,0q18.659,0,37.317,0c.309,0,.43-.085.489-.388.164-.848.332-1.7.56-2.53a2.588,2.588,0,0,1,.542-1.021c.584-.647,1.23-1.238,1.938-1.937h-.543q-20.773,0-41.546,0a3.965,3.965,0,0,1-.81-.056,1.1,1.1,0,0,1,.134-2.174c.443-.035.889-.028,1.334-.028q21.4,0,42.807.011a1.791,1.791,0,0,0,1.451-.6c.841-.905,1.746-1.751,2.6-2.641a.915.915,0,0,0,.239-.575q.013-18.661,0-37.321c0-.47.011-.94,0-1.41a2.218,2.218,0,0,0-2.233-2.243c-4.9-.014-9.793-.007-14.689-.008q-4.6,0-9.2-.007a3.876,3.876,0,0,1-.7-.054A1.077,1.077,0,0,1,26.1,1.129,1.056,1.056,0,0,1,26.888.085,2.744,2.744,0,0,1,27.547,0Q39.4,0,51.25,0c2.878,0,4.7,1.837,4.8,4.8.015.457,0,.915,0,1.373q0,17.047,0,34.094v.94a2.1,2.1,0,0,0,.216-.16q2.43-2.423,4.859-4.846a3.608,3.608,0,0,1,5.343.009q1.263,1.255,2.514,2.521a3.5,3.5,0,0,1,0,5.237q-5.528,5.542-11.069,11.07c-.551.551-1.113,1.092-1.641,1.664a.994.994,0,0,0-.25.613c0,4.65.023,9.3.026,13.949a4.521,4.521,0,0,1-4.65,4.715c-.074,0-.149,0-.223,0q-23.166,0-46.331,0a5.028,5.028,0,0,1-2.793-.73,4.441,4.441,0,0,1-2.036-4.01q0-20.478.005-40.956Q.022,17.468,0,4.651A4.447,4.447,0,0,1,3.272.2,6.787,6.787,0,0,1,4.812.01Q13.14-.011,21.468,0a2.081,2.081,0,0,1,.475.06,1.12,1.12,0,0,1,.9,1.187,1.088,1.088,0,0,1-1.085.972c-.185.012-.371.006-.556.005-5.441-.007-10.881,0-16.321-.029A2.33,2.33,0,0,0,2.246,4.16a4.789,4.789,0,0,0-.072.886q0,10.443.014,20.886,0,22.41.01,44.82a5.079,5.079,0,0,0,.229,1.6,2,2,0,0,0,1.941,1.406c.629.03,1.261.012,1.891.012q22.313,0,44.625,0a6.2,6.2,0,0,0,.962-.037,2.2,2.2,0,0,0,1.936-2.294q0-5.676,0-11.352v-.722m-.921-2.549L64.061,45.62l-4.612-4.547-11.1,11.112,4.5,4.629M61.1,39.476l4.529,4.552c.683-.626,1.408-1.227,2.053-1.9a1.135,1.135,0,0,0-.047-1.592q-1.471-1.539-3.018-3a1.185,1.185,0,0,0-1.628-.024c-.672.631-1.279,1.33-1.888,1.973M50.681,57.856l-3.318-3.321c.01-.023-.024.029-.036.085-.2.915-.428,1.826-.588,2.748a.888.888,0,0,0,1.143,1.065c.943-.184,1.882-.388,2.8-.578" transform="translate(0 0)" fill="#fffad0"/>
        <path id="Trazado_815324" data-name="Trazado 815324" d="M38.167,36.875q10.5,0,20.994,0a2.5,2.5,0,0,1,2.63,1.99,2.861,2.861,0,0,1,.052.625q0,7.271,0,14.542a2.5,2.5,0,0,1-1.96,2.468,3.36,3.36,0,0,1-.737.061q-2.337.008-4.674,0a3.351,3.351,0,0,1-.842-.093,1.067,1.067,0,0,1,.138-2.079,4.976,4.976,0,0,1,.738-.05c1.558-.006,3.116-.014,4.673,0,.34,0,.469-.124.46-.453-.012-.408,0-.816,0-1.224q0-6.473,0-12.947c0-.563-.025-.581-.584-.575s-1.113,0-1.669,0q-19.974,0-39.949,0c-.8,0-.752-.082-.753.739q-.009,6.863,0,13.726c0,.875,0,.726.724.727q9.292.016,18.583.007,5.916,0,11.832,0a4.241,4.241,0,0,1,.738.05,1.084,1.084,0,0,1,0,2.142,2.883,2.883,0,0,1-.517.035q-15.356,0-30.713.008a2.884,2.884,0,0,1-2.237-.87,2.594,2.594,0,0,1-.642-1.882q-.011-7.03,0-14.059a2.8,2.8,0,0,1,.787-2.127,2.7,2.7,0,0,1,1.983-.761q8.123.009,16.247,0h4.711" transform="translate(-10.136 -25.893)" fill="#fffad0"/>
        <path id="Trazado_815325" data-name="Trazado 815325" d="M76.275,214.546H60.884c-.173,0-.347,0-.519-.009a1.1,1.1,0,0,1-1.044-1.02,1.115,1.115,0,0,1,.844-1.117,2.958,2.958,0,0,1,.7-.083q15.539-.006,31.077,0a2.336,2.336,0,0,1,.656.092,1.092,1.092,0,0,1,.758,1.07,1.012,1.012,0,0,1-.843.99,6.934,6.934,0,0,1-1.18.072q-7.528.007-15.056,0Z" transform="translate(-41.654 -149.094)" fill="#fffad0"/>
        <path id="Trazado_815326" data-name="Trazado 815326" d="M24.021,132.839q-3.986,0-7.973,0a4.721,4.721,0,0,1-.666-.033,1.1,1.1,0,0,1-.118-2.148,2.605,2.605,0,0,1,.622-.076q8.14-.006,16.279,0c.75,0,1.193.288,1.351.857a1.08,1.08,0,0,1-.932,1.372,7.546,7.546,0,0,1-.925.031q-3.819,0-7.639,0Z" transform="translate(-10.145 -91.696)" fill="#fffad0"/>
        <path id="Trazado_815327" data-name="Trazado 815327" d="M36.049,55.3c-.008.136-.021.244-.021.351,0,1.731,0,3.462,0,5.193,0,.233.026.368.308.435a1.111,1.111,0,0,1,.807,1.253,1.054,1.054,0,0,1-1.051.868c-.741.015-1.483.015-2.225,0a1.092,1.092,0,0,1-1.109-.948,1.038,1.038,0,0,1,.8-1.174c.245-.077.277-.186.275-.422-.016-1.706-.02-3.412,0-5.118,0-.362-.1-.458-.457-.449a19.8,19.8,0,0,1-2-.041.915.915,0,0,1-.828-.787,1,1,0,0,1,.414-1.141,1.446,1.446,0,0,1,.73-.214q3.282-.026,6.564-.009a1.088,1.088,0,0,1,1.106,1.034,1.049,1.049,0,0,1-.964,1.116c-.65.061-1.307.042-1.961.057-.121,0-.241,0-.384,0" transform="translate(-21.423 -37.281)" fill="#fffad0"/>
        <path id="Trazado_815328" data-name="Trazado 815328" d="M77.116,82.533c-1.483,0-2.966,0-4.448,0a2.485,2.485,0,0,1-.658-.079,1.114,1.114,0,0,1-.774-1.1,1.049,1.049,0,0,1,.889-1,3.334,3.334,0,0,1,.59-.042q4.319,0,8.638,0a4.289,4.289,0,0,1,.627.042,1.152,1.152,0,0,1,.954,1.151A1.039,1.039,0,0,1,81.9,82.518c-1.52.019-3.04.008-4.559.009h-.222v.006" transform="translate(-50.024 -56.399)" fill="#fffad0"/>
        <path id="Trazado_815329" data-name="Trazado 815329" d="M19.584,214.539c-1.321,0-2.643.011-3.964,0a1.084,1.084,0,0,1-.28-2.142,2.481,2.481,0,0,1,.621-.079q3.742-.008,7.485,0a1.243,1.243,0,0,1,1.267.657,1.055,1.055,0,0,1-.654,1.482,2.681,2.681,0,0,1-.7.083c-1.26.008-2.519,0-3.779,0" transform="translate(-10.169 -149.091)" fill="#fffad0"/>
      </g>
    </g>
  </g>
</svg>
