<svg xmlns="http://www.w3.org/2000/svg" xmlns:xlink="http://www.w3.org/1999/xlink" width="506" height="898" viewBox="0 0 506 898">
  <defs>
    <linearGradient id="linear-gradient" x1="0.5" x2="0.5" y2="1" gradientUnits="objectBoundingBox">
      <stop offset="0" stop-color="#f9fef5"/>
      <stop offset="1" stop-color="#e7f7f8"/>
    </linearGradient>
    <clipPath id="clip-path">
      <rect id="Rectángulo_376659" data-name="Rectángulo 376659" width="436.823" height="771.011" fill="none"/>
    </clipPath>
    <clipPath id="clip-path-2">
      <path id="Trazado_817126" data-name="Trazado 817126" d="M401.531,509.3s-1.159,8.9-2.1,14.768H490.21s-.466-10.7-1.211-15.43c-.227-1.443-8.446-1.945-19.761-1.945-25.8,0-67.707,2.607-67.707,2.607" transform="translate(-399.432 -506.695)" fill="none"/>
    </clipPath>
  </defs>
  <g id="Grupo_1072922" data-name="Grupo 1072922" transform="translate(-21632 10952)">
    <rect id="Rectángulo_376022" data-name="Rectángulo 376022" width="506" height="898" transform="translate(21632 -10952)" fill="url(#linear-gradient)"/>
    <g id="Grupo_1072329" data-name="Grupo 1072329" transform="translate(-7 -216)">
      <g id="Grupo_1072326" data-name="Grupo 1072326" transform="translate(21667 -10697.529)">
        <g id="Grupo_1072321" data-name="Grupo 1072321" transform="translate(0 -0.001)">
          <g id="Grupo_1072320" data-name="Grupo 1072320" transform="translate(0 0)" clip-path="url(#clip-path)">
            <path id="Trazado_817080" data-name="Trazado 817080" d="M423.922,1548.91c-13.258,7.348-24.759,26.835-29.551,109.738h29.072s-.719-34.5,8.865-58.463-8.386-51.275-8.386-51.275" transform="translate(-226.003 -887.636)" fill="#56756a"/>
            <path id="Trazado_817081" data-name="Trazado 817081" d="M520.577,1534.263c11.022,4.153,17.092,7.986,19.328,10.223,2.156,2.156.639,28.672-1.517,47.84s-2.636,57.744-2.636,57.744H450.933s.883-17.712.958-35.941c.04-9.682-.636-19.853-.719-26.835-.24-20.126-3.88-40.06,2.156-45.365,5.271-4.632,15.175-7.987,15.175-7.987Z" transform="translate(-257.806 -879.06)" fill="#56756a"/>
            <path id="Trazado_817082" data-name="Trazado 817082" d="M496.931,1655.887c-5.017-2.738-14.037-13.543-15.607-12.394-2.219,1.624,4.135,6.566,5.89,9.579,0,0-3.67-.081-9.467-3.544s-9.575-7.055-10.733-5.863c-1.223,1.259,4,5.772,8.33,8.962,0,0-1.61-.028-5.881-2.49-3.25-1.873-5.617-3.492-6.6-2.295s3.1,4.342,5.183,5.912c3.172,2.39,5.682,3.741,5.434,4.344s-1.766-.163-4.712-1.481c-2.411-1.079-4.52-2.076-5.194-1.081-.989,1.461,6.544,6.1,12.026,8.844a44,44,0,0,0,15.825,5.013,55.381,55.381,0,0,1,6.7,2.857l6.079-12.777s-5.211-2.459-7.277-3.587" transform="translate(-265.168 -941.79)" fill="#eeab93"/>
            <path id="Trazado_817083" data-name="Trazado 817083" d="M550.707,1462.769a80.762,80.762,0,0,0-1.008,25.541,39.75,39.75,0,0,1-15.321,4.144,29.9,29.9,0,0,1-14.122-3.036,107.252,107.252,0,0,0,.815-12.038l26.83-17.824Z" transform="translate(-298.144 -836.429)" fill="#cc807b"/>
            <path id="Trazado_817084" data-name="Trazado 817084" d="M493.52,1527.443a138.365,138.365,0,0,1,22.523-4.632c12.3-1.438,29.551,4.952,29.551,4.952s-10.223,10.7-28.592,10.223-23.481-10.543-23.481-10.543" transform="translate(-282.822 -872.559)" fill="#ded3c7"/>
            <path id="Trazado_817085" data-name="Trazado 817085" d="M542.954,1510.748l4.422,11.94,19.083-9.439-3.5-11.509Z" transform="translate(-311.152 -860.604)" fill="#f4eee9"/>
            <path id="Trazado_817086" data-name="Trazado 817086" d="M522.129,1514.987l-5.009,11.228-10.5-8.084,4.519-8.994Z" transform="translate(-290.327 -864.843)" fill="#f4eee9"/>
            <path id="Trazado_817087" data-name="Trazado 817087" d="M543.656,1622.48A58.823,58.823,0,0,1,551,1602.993s15.015,2.955,33.225,8.226l-11.022-32.586,16.533-26.356s16.532,8.146,26.116,41.211c8.974,30.96,8.91,54.543-.479,60.38-17.731,11.022-52.233-14.855-71.721-31.388" transform="translate(-311.554 -889.566)" fill="#56756a"/>
            <path id="Trazado_817088" data-name="Trazado 817088" d="M587.924,1696.389a.724.724,0,0,1-.274-.054c-12.513-5.162-27.8-15.361-45.425-30.317a.719.719,0,0,1-.245-.659,58.922,58.922,0,0,1,7.448-19.756.72.72,0,0,1,.75-.327c.146.029,14.516,2.875,31.951,7.858l-8.65-24.886a.719.719,0,0,1,1.359-.472l9.1,26.2a.719.719,0,0,1-.879.926c-16.155-4.677-29.943-7.557-32.674-8.113a58.918,58.918,0,0,0-6.919,18.4c17.381,14.713,32.429,24.744,44.729,29.817a.719.719,0,0,1-.275,1.384" transform="translate(-310.589 -932.556)" fill="#4b665c"/>
            <path id="Trazado_817089" data-name="Trazado 817089" d="M614.695,1643.792a.713.713,0,0,1-.347-.09,17.641,17.641,0,0,1-7.729-8.622.719.719,0,0,1,1.327-.554,16.2,16.2,0,0,0,7.1,7.917.719.719,0,0,1-.348,1.348" transform="translate(-347.605 -936.448)" fill="#4b665c"/>
            <path id="Trazado_817090" data-name="Trazado 817090" d="M660.6,1702.837a.716.716,0,0,1-.49-.193,57.72,57.72,0,0,0-22.6-12.585.719.719,0,1,1,.424-1.373,59.137,59.137,0,0,1,23.151,12.906.719.719,0,0,1-.49,1.245" transform="translate(-365.05 -967.719)" fill="#4b665c"/>
            <path id="Trazado_817091" data-name="Trazado 817091" d="M674.946,1702.876a.716.716,0,0,1-.33-.081,22.594,22.594,0,0,0-9.6-2.511.718.718,0,0,1-.694-.742.71.71,0,0,1,.742-.694,24.041,24.041,0,0,1,10.213,2.671.719.719,0,0,1-.332,1.357" transform="translate(-380.705 -973.562)" fill="#4b665c"/>
            <path id="Trazado_817092" data-name="Trazado 817092" d="M703.178,1771.168a.719.719,0,0,1-.34-1.353,11.036,11.036,0,0,0,5.662-8.672.719.719,0,1,1,1.433.112,12.506,12.506,0,0,1-6.416,9.827.714.714,0,0,1-.339.085" transform="translate(-402.559 -1008.881)" fill="#4b665c"/>
            <path id="Trazado_817093" data-name="Trazado 817093" d="M516.071,1545.1c-16.512,0-23.446-9.8-23.734-10.215a.719.719,0,0,1,1.183-.816c.067.1,6.833,9.593,22.556,9.593h.171c17.865-.077,27.494-9.594,27.589-9.69a.719.719,0,0,1,1.022,1.011c-.406.41-10.149,10.037-28.6,10.117h-.183" transform="translate(-282.072 -878.952)" fill="#4b665c"/>
            <path id="Trazado_817094" data-name="Trazado 817094" d="M580.116,1369.854c.007-6.138-3.334-11.551-7.325-12.848-2.851-.926-5.341.29-7.974,1.954-2.942,1.86-24.368,1.788-25.859,4.851s6.216,9.039,5.519,12.29c-.9,4.208,10.158,4.271,9.658,8.5-.371,3.141-.564,6.55,1.218,8.976,1.86,2.532-.052,19.248,3.186,18.029,0,0,11.237,1.235,18.133-20.753a77.319,77.319,0,0,0,3.444-21" transform="translate(-308.752 -777.478)" fill="#bf7d4f"/>
            <path id="Trazado_817095" data-name="Trazado 817095" d="M536.366,1399.708c-4.91-.75-5.491-7.3-3.794-11.731,0,0-8.255-5.79-5.907-15.425-7.563-6.193-30.241-9.624-32.137,4.719-3.168,23.971-1.049,37.51,1.7,44.278,2.89,7.12,10.76,9.881,19.837,6.608a27.349,27.349,0,0,0,15.947-16.543c4.757,1.619,8.76-1.361,10.995-5.563,3.833-9.148-3.971-9.417-6.641-6.343" transform="translate(-282.493 -783.505)" fill="#eeab93"/>
            <path id="Trazado_817096" data-name="Trazado 817096" d="M518.291,1421.13a20.341,20.341,0,0,1,.977,3.91,11.539,11.539,0,0,1,.139,2.015,7.218,7.218,0,0,1-.1,1.176,9.209,9.209,0,0,1-.219,1.1,13.563,13.563,0,0,1-2.19,4.517,40.7,40.7,0,0,1-3.076,3.631,6.042,6.042,0,0,0-.542.673s-.045.074-.02.022a.619.619,0,0,0,.025-.411c.092.345-.06-.161.009.026a3.192,3.192,0,0,0,1.022.8,10.261,10.261,0,0,0,2.288.93l.942.219.019,0a.844.844,0,0,1,.627,1.037.9.9,0,0,1-.739.66,6.628,6.628,0,0,1-1.2.012,8.583,8.583,0,0,1-3.06-.8,5.2,5.2,0,0,1-1.9-1.494,2.553,2.553,0,0,1-.39-.891,1.75,1.75,0,0,1,.1-.918,2.944,2.944,0,0,1,.236-.44,7.883,7.883,0,0,1,.834-1.012,38.857,38.857,0,0,0,3-3.358,13.379,13.379,0,0,0,2.005-3.659,7.734,7.734,0,0,0,.261-1,5.36,5.36,0,0,0,.122-.873,15.173,15.173,0,0,0,.007-1.748,20.5,20.5,0,0,0-.343-2.683l-.219-1a.736.736,0,0,1,.548-.872.716.716,0,0,1,.833.423" transform="translate(-292.769 -814.155)" fill="#cd807c"/>
            <path id="Trazado_817097" data-name="Trazado 817097" d="M590.36,1449.6c-1.352,2.043-1.361,4.268-.021,4.969s3.522-.387,4.873-2.431,1.361-4.268.021-4.969-3.522.387-4.874,2.43" transform="translate(-337.734 -829.212)" fill="#cc807b"/>
            <path id="Trazado_817098" data-name="Trazado 817098" d="M502.705,1409.882c-.17,1.372-2.99,1.465-5.885,1.8-4.278.5-5.335.54-5.749-.607-.2-.556.142-3.238,4.762-3.9,5.4-.779,7.046,1.3,6.871,2.71" transform="translate(-281.395 -806.313)" fill="#bf7d4f"/>
            <path id="Trazado_817099" data-name="Trazado 817099" d="M547.3,1414.68c3.161.891,5.547,2.1,6.432,1.022.749-.91.34-3.415-4.652-5.405-2.755-1.1-7.325-1.425-7.955,1.046-.588,2.305,2.955,2.429,6.175,3.337" transform="translate(-310.066 -807.725)" fill="#bf7d4f"/>
            <path id="Trazado_817100" data-name="Trazado 817100" d="M535.258,1337.376s-3.291-10.98-14.149-12.556-21.793,1.9-27.44.8c-5.944-1.16-2.412-4.609-2.412-4.609s-3.938.94-4.417,3.593c-.742,4.1,2.04,5.123,2.04,5.123s-3.638-.535-4.878-3a6.068,6.068,0,0,1,.2-5.334s-8.38,4.385-9.4,11.214c-.969,6.515,2.588,14.124,14.236,14.966s28.477-1.879,28.477-1.879Z" transform="translate(-272.01 -757.036)" fill="#bf7d4f"/>
            <path id="Trazado_817101" data-name="Trazado 817101" d="M600.845,1417.129a12.911,12.911,0,0,1-10.868-6.069.623.623,0,0,1,1.062-.651,11.785,11.785,0,0,0,10.259,5.465.616.616,0,0,1,.648.6.623.623,0,0,1-.6.649q-.252.011-.505.01" transform="translate(-338.047 -808.095)" fill="#aa663b"/>
            <path id="Trazado_817102" data-name="Trazado 817102" d="M597.019,1428.718l-.059,0a8.276,8.276,0,0,1-5.9-3.41.623.623,0,1,1,1.016-.721,7.014,7.014,0,0,0,5,2.89.623.623,0,0,1-.058,1.243" transform="translate(-338.654 -816.239)" fill="#aa663b"/>
            <path id="Trazado_817103" data-name="Trazado 817103" d="M622.028,1374.551a.623.623,0,0,1-.619-.56,6.368,6.368,0,0,0-4.449-5.345.623.623,0,1,1,.35-1.2,7.642,7.642,0,0,1,5.338,6.414.623.623,0,0,1-.557.683.535.535,0,0,1-.064,0" transform="translate(-353.306 -783.633)" fill="#aa663b"/>
            <path id="Trazado_817104" data-name="Trazado 817104" d="M597.577,1347.184a.624.624,0,0,1-.6-.463,12.64,12.64,0,0,0-7.436-8.366A.623.623,0,1,1,590,1337.2a13.906,13.906,0,0,1,8.182,9.2.624.624,0,0,1-.6.783" transform="translate(-337.623 -766.284)" fill="#aa663b"/>
            <path id="Trazado_817105" data-name="Trazado 817105" d="M496.414,1355.992h-.021a28.732,28.732,0,0,1-9.057-1.481,13.3,13.3,0,0,1-7.195-5.832,8.952,8.952,0,0,1,.214-9.215.623.623,0,0,1,1.022.712,7.685,7.685,0,0,0-.143,7.9,12.062,12.062,0,0,0,6.535,5.261,27.577,27.577,0,0,0,8.665,1.4.623.623,0,0,1-.021,1.246" transform="translate(-274.486 -767.456)" fill="#aa663b"/>
            <path id="Trazado_817106" data-name="Trazado 817106" d="M487.437,1344.683a.623.623,0,0,1-.571-.374,4.607,4.607,0,0,1,2.229-5.852.623.623,0,1,1,.52,1.132,3.367,3.367,0,0,0-1.607,4.221.623.623,0,0,1-.57.873" transform="translate(-278.811 -766.999)" fill="#aa663b"/>
            <path id="Trazado_817107" data-name="Trazado 817107" d="M554.742,1371.825a.623.623,0,0,1-.08-1.241,103.17,103.17,0,0,0,10.672-1.977.623.623,0,1,1,.291,1.211,104.38,104.38,0,0,1-10.8,2,.683.683,0,0,1-.082.005" transform="translate(-317.55 -784.3)" fill="#aa663b"/>
            <path id="Trazado_817108" data-name="Trazado 817108" d="M578.552,1385.509a.623.623,0,0,1-.579-.395,8.579,8.579,0,0,1,.055-6.384.623.623,0,0,1,1.151.478,7.32,7.32,0,0,0-.047,5.449.623.623,0,0,1-.579.852" transform="translate(-330.882 -789.891)" fill="#aa663b"/>
            <path id="Trazado_817109" data-name="Trazado 817109" d="M514.527,1337.11a9.967,9.967,0,0,1-6.975-2.818.623.623,0,1,1,.878-.884,8.7,8.7,0,0,0,8.858,1.991.623.623,0,0,1,.415,1.175,9.544,9.544,0,0,1-3.176.536" transform="translate(-290.759 -764.035)" fill="#aa663b"/>
            <path id="Trazado_817110" data-name="Trazado 817110" d="M543.157,1430.691a2.047,2.047,0,1,0,2.16-2.375,2.285,2.285,0,0,0-2.16,2.375" transform="translate(-311.264 -818.525)" fill="#5e5254"/>
            <path id="Trazado_817111" data-name="Trazado 817111" d="M549.808,1432.158a6.128,6.128,0,0,0-5.145-5.128,2.844,2.844,0,0,0-3.208,2.975,3.253,3.253,0,0,1,3.049-1.135c1.831.405,5.3,3.287,5.3,3.287" transform="translate(-310.283 -817.768)" fill="#5e5254"/>
            <path id="Trazado_817112" data-name="Trazado 817112" d="M499.894,1427.645a1.915,1.915,0,1,0,2.01-2.277,2.171,2.171,0,0,0-2.01,2.277" transform="translate(-286.471 -816.836)" fill="#5e5254"/>
            <path id="Trazado_817113" data-name="Trazado 817113" d="M505.458,1428.811a4.887,4.887,0,0,0-4.258-4.884c-1.971-.254-3.477,2.254-3.319,3.358a3.415,3.415,0,0,1,3.164-1.6c2.261.327,4.414,3.122,4.414,3.122" transform="translate(-285.315 -816.002)" fill="#5e5254"/>
            <path id="Trazado_817114" data-name="Trazado 817114" d="M530.654,1470.348a54.245,54.245,0,0,1-7.627,3.343,24.757,24.757,0,0,1-7.24,1.28s2.545,6.74,9.438,4.257c5.218-1.88,5.429-8.88,5.429-8.88" transform="translate(-295.584 -842.615)" fill="#5e5254"/>
            <path id="Trazado_817115" data-name="Trazado 817115" d="M529.567,1478.842c-3.981,1.433-5.665-.115-5.665-.115a27.949,27.949,0,0,0,5.159-1.493,34.1,34.1,0,0,0,4.648-2.08s-.258,2.29-4.142,3.688" transform="translate(-300.234 -845.369)" fill="#eeebf2"/>
            <path id="Trazado_817116" data-name="Trazado 817116" d="M541.268,1644.845a.725.725,0,0,1-.2-.029,34.587,34.587,0,0,1-12.792-6.974.719.719,0,0,1,.94-1.087,33.139,33.139,0,0,0,12.256,6.681.719.719,0,0,1-.2,1.409" transform="translate(-302.596 -937.878)" fill="#4b665c"/>
            <path id="Trazado_817117" data-name="Trazado 817117" d="M540.046,1656.727a.762.762,0,0,1-.083,0,12.581,12.581,0,0,1-7.12-3.3.719.719,0,1,1,.983-1.048,11.138,11.138,0,0,0,6.3,2.92.719.719,0,0,1-.081,1.433" transform="translate(-305.227 -946.817)" fill="#4b665c"/>
            <path id="Trazado_817118" data-name="Trazado 817118" d="M401.459,509.3s-2.55,9.94-2.1,14.768h90.777s-.465-10.7-1.21-15.43-87.468.663-87.468.663" transform="translate(-228.832 -290.372)" fill="#e0d1ca"/>
          </g>
        </g>
        <g id="Grupo_1072323" data-name="Grupo 1072323" transform="translate(170.529 216.322)">
          <g id="Grupo_1072322" data-name="Grupo 1072322" clip-path="url(#clip-path-2)">
            <path id="Trazado_817119" data-name="Trazado 817119" d="M416.628,531.482a.935.935,0,0,1-.1-.006.845.845,0,0,1-.737-.941l1.928-15.9a.845.845,0,1,1,1.678.2l-1.929,15.9a.845.845,0,0,1-.838.743" transform="translate(-408.802 -510.822)" fill="#cebfb9"/>
            <path id="Trazado_817120" data-name="Trazado 817120" d="M428.914,534.776a.763.763,0,0,1-.082,0,.845.845,0,0,1-.76-.922l1.423-14.774a.845.845,0,1,1,1.682.162l-1.423,14.774a.846.846,0,0,1-.84.764" transform="translate(-415.842 -513.352)" fill="#cebfb9"/>
            <path id="Trazado_817121" data-name="Trazado 817121" d="M465.18,540.269h-.035a.845.845,0,0,1-.809-.879l.58-14.018a.845.845,0,1,1,1.688.07l-.58,14.018a.845.845,0,0,1-.844.81" transform="translate(-436.626 -516.933)" fill="#cebfb9"/>
            <path id="Trazado_817122" data-name="Trazado 817122" d="M486.873,539.14a.952.952,0,0,1-.1-.006.846.846,0,0,1-.742-.937l1.491-12.874a.845.845,0,0,1,1.679.195l-1.491,12.874a.845.845,0,0,1-.839.748" transform="translate(-449.057 -516.942)" fill="#cebfb9"/>
            <path id="Trazado_817123" data-name="Trazado 817123" d="M536.556,538.755a.845.845,0,0,1-.845-.845v-12.5a.845.845,0,1,1,1.69,0v12.5a.845.845,0,0,1-.845.845" transform="translate(-477.53 -516.938)" fill="#cebfb9"/>
            <path id="Trazado_817124" data-name="Trazado 817124" d="M547.953,535.327a.845.845,0,0,1-.842-.794l-.715-11.741a.845.845,0,1,1,1.686-.1l.715,11.74a.845.845,0,0,1-.792.895l-.052,0" transform="translate(-483.652 -515.407)" fill="#cebfb9"/>
            <path id="Trazado_817125" data-name="Trazado 817125" d="M589.925,532.043a.87.87,0,0,1-.144-.012.845.845,0,0,1-.689-.976c.987-5.731.041-12.957-1.173-17.81a.845.845,0,1,1,1.639-.41c1.256,5.019,2.23,12.517,1.2,18.506a.845.845,0,0,1-.832.7" transform="translate(-507.433 -509.847)" fill="#cebfb9"/>
          </g>
        </g>
        <g id="Grupo_1072325" data-name="Grupo 1072325" transform="translate(0 -0.001)">
          <g id="Grupo_1072324" data-name="Grupo 1072324" transform="translate(0 0)" clip-path="url(#clip-path)">
            <path id="Trazado_817127" data-name="Trazado 817127" d="M769.209,206.131s3.944-5.737,10.079-13.911,7.362-9.376,12.249-11.754,9.935-6.088,11.67-4.794-7.564,8.811-7.564,8.811a33.694,33.694,0,0,0,11.053.267c6.588-.818,12.924-8.426,15.289-7.867s-.455,3.73-.455,3.73,3.749-4.139,5.451-2.579-3.275,6.9-3.275,6.9,2.326-1.338,2.963.091-4.2,7.868-14.315,10.961-14.405,2.839-17.362,4.911-7.057,11.305-7.057,11.305Z" transform="translate(-440.812 -100.52)" fill="#eeab93"/>
            <path id="Trazado_817128" data-name="Trazado 817128" d="M808.774,215.035a.7.7,0,0,1-.519-1.164c.1-.107,2.383-2.623,4.94-3.047a.7.7,0,1,1,.228,1.376c-2.071.344-4.111,2.582-4.131,2.6a.7.7,0,0,1-.519.231" transform="translate(-463.086 -120.811)" fill="#ce807b"/>
            <path id="Trazado_817129" data-name="Trazado 817129" d="M870.086,193.446a.7.7,0,0,1-.225-1.359c3.621-1.229,8.548-5.883,8.6-5.93a.7.7,0,1,1,.961,1.012c-.21.2-5.2,4.912-9.11,6.239a.7.7,0,0,1-.224.038" transform="translate(-498.222 -106.571)" fill="#ce807b"/>
            <path id="Trazado_817130" data-name="Trazado 817130" d="M872.65,203.571a.7.7,0,0,1-.195-1.368c4.686-1.366,9.607-5.885,9.656-5.93a.7.7,0,0,1,.948,1.024c-.21.195-5.208,4.787-10.214,6.246a.689.689,0,0,1-.2.028" transform="translate(-499.691 -112.372)" fill="#ce807b"/>
            <path id="Trazado_817131" data-name="Trazado 817131" d="M569.625,230.311c15.146,4.922,46.954,40.9,46.954,40.9s24.613-23.477,35.973-39.759c0,0,13.916,5.3,21.016,12.685,0,0-26.283,66.36-56.61,66.833-24.234.379-53.013-38.245-53.013-38.245Z" transform="translate(-323.181 -131.984)" fill="#f0e9e2"/>
            <path id="Trazado_817132" data-name="Trazado 817132" d="M414.519,223.489c-9.049,2.021-21.78,10.352-23.793,13s-.815,27.642,5.341,48.942c5.294,18.317-3.459,50.553-2.039,58.03,1.51,7.952,32.073,10.034,53.185,10.034s34.419-3.786,36.641-8.33-1.893-19.312-1.515-35.216,6.059-28.778,4.544-39.759-14.18-45.062-17.04-46.575c-6.437-3.408-23.387-4.987-23.387-4.987Z" transform="translate(-223.399 -125.291)" fill="#f0e9e2"/>
            <path id="Trazado_817133" data-name="Trazado 817133" d="M340.556,251.8c-21.672,14.484-36.84,66.36-44.024,125.81h33.062s10.807-40.243,23-68.727c7.454-17.419-1.844-63.893-12.033-57.083" transform="translate(-169.934 -143.911)" fill="#f0e9e2"/>
            <path id="Trazado_817134" data-name="Trazado 817134" d="M426.025,227.358s13.856,11.97,35.594,8.709c18.933-2.84,21.583-14.957,21.583-14.957a82.906,82.906,0,0,0-32.186-1.7c-17.229,2.651-24.992,7.952-24.992,7.952" transform="translate(-244.143 -125.245)" fill="#e19a85"/>
            <path id="Trazado_817135" data-name="Trazado 817135" d="M393.675,6.941s-2.671-5.5-8.281-4c-3.932,1.05-4.5,3.406-4.5,3.406s-8.855-4.647-13.039,6.689,2.166,20.859,9.374,22.34S393.675,6.941,393.675,6.941" transform="translate(-210.042 -1.537)" fill="#a96861"/>
            <path id="Trazado_817136" data-name="Trazado 817136" d="M420.757,74.75s-23.53-1.388-30.036-29.82C384.871,19.369,402.783.188,422.012,2.287c0,0,12.241-8.314,28.193,6.756S448.5,49.557,448.5,49.557Z" transform="translate(-223.266 0.001)" fill="#a96861"/>
            <path id="Trazado_817137" data-name="Trazado 817137" d="M447.655,176.917a106.494,106.494,0,0,0,2.083-36.8l14.537-2.754,15.825,1.086c-1.243,9.97-3.067,28.862.58,36.992.679,1.514-7.354,6.8-15.24,7.07-8.866.308-18.076-4.436-17.785-5.594" transform="translate(-256.535 -78.718)" fill="#e19a85"/>
            <path id="Trazado_817138" data-name="Trazado 817138" d="M452.542,140.116l14.537-2.753,7.959.546,7.724,1.7c-1.076,8.932-2.4,23.655-.366,32.449,2.939.253,5.282.632,5.282.632a12.426,12.426,0,0,1-9.546,6.264c-9.126,1.191-19.066-7.045-25.3-16.381a106.826,106.826,0,0,0-.29-22.457" transform="translate(-259.339 -78.718)" fill="#ce807b"/>
            <path id="Trazado_817139" data-name="Trazado 817139" d="M481.611,101.742c-2.877,1.271-20.492,2.718-32.7-13.257-6.521-8.53-10.184-19.929-10.482-27.371s1.832-31.521,25.658-29.915c0,0,19.35,1.433,26.133,30.012,6.1,25.694-5.384,39.108-8.6,40.531" transform="translate(-251.234 -17.835)" fill="#f0ad95"/>
            <path id="Trazado_817140" data-name="Trazado 817140" d="M459.5,16.589c6.252,14.284-20.29,12.056-22.789,36.055.106,4.347,2.072,9.362-3.129,11.437l-7.908-5.389s-7.1-14.172-1.158-29.619C430.446,13.649,452.79,6.345,459.5,16.589" transform="translate(-241.918 -6.783)" fill="#a96861"/>
            <path id="Trazado_817141" data-name="Trazado 817141" d="M525.36,78.983c1.093.981,2.384-1.207,6.97-2.212,3.156-.692,5.474,1.152,5.578.325.111-.883-1.846-3.811-6.862-3.048-5.137.781-7.126,3.644-5.685,4.936" transform="translate(-300.807 -42.362)" fill="#a96861"/>
            <path id="Trazado_817142" data-name="Trazado 817142" d="M483.11,89.823c.137,1.774-3.809.89-8.093,3.258-4.453,2.461-5.246,5.532-6.347,4.933-.563-.306-.035-5.236,5.75-8.261,5.146-2.691,8.551-1.713,8.69.07" transform="translate(-268.482 -50.48)" fill="#a96861"/>
            <path id="Trazado_817143" data-name="Trazado 817143" d="M524.185,113.539s.394-.168,1.11-.532a10.809,10.809,0,0,0,2.808-2.068,6.805,6.805,0,0,0,1.373-2.087,5.185,5.185,0,0,0,.356-1.441,2.841,2.841,0,0,0-.021-.84,2.617,2.617,0,0,0-.12-.462,1.656,1.656,0,0,0-.1-.251l-.068-.135-.035-.067-.018-.033-.009-.016-.136-.189a2.388,2.388,0,0,0-.585-.43c-.141-.065-.276-.121-.383-.158l-.644-.215-1.2-.391a15.213,15.213,0,0,1-2.262-.987,9.164,9.164,0,0,1-3.453-3.2,9.959,9.959,0,0,1-1.334-4,16.49,16.49,0,0,1-.047-3.095c.082-.753.128-1.183.128-1.183l0-.024a.393.393,0,0,0-.777-.115l-.229,1.218a17.462,17.462,0,0,0-.2,3.292,11.255,11.255,0,0,0,1.168,4.626,10.851,10.851,0,0,0,3.77,4.082,17.218,17.218,0,0,0,2.469,1.317l1.224.508.545.229.191.1c-.021.023-.258-.245-.089-.063-.253-.345-.071-.1-.127-.172h0l0,0,0,0v0s0,.019.005.038a.6.6,0,0,1,.017.134,3.446,3.446,0,0,1,.04.362,2.94,2.94,0,0,1-.1.84,4.784,4.784,0,0,1-.788,1.574,9.2,9.2,0,0,1-2.11,1.982c-.616.416-1.012.646-1.012.646a.677.677,0,0,0,.6,1.208Z" transform="translate(-297.039 -52.326)" fill="#cf807c"/>
            <path id="Trazado_817144" data-name="Trazado 817144" d="M434.593,124.588s-5.591-7.536-9.626-2.223c-1.994,2.626-.254,8.159,3.168,11.308,2.589,2.382,7.5,3.65,9.766.768,0,0,2.374-1.686-3.307-9.853" transform="translate(-243.053 -69.037)" fill="#f0ad95"/>
            <path id="Trazado_817145" data-name="Trazado 817145" d="M434.406,135.387c1.878,2.024,4.3,2.463,5.052,1.312s-.153-3.724-2.031-5.748-4.014-2.732-4.77-1.582-.128,3.994,1.75,6.018" transform="translate(-247.764 -73.821)" fill="#ce807b"/>
            <path id="Trazado_817146" data-name="Trazado 817146" d="M503.238,153.089a64.266,64.266,0,0,0,9.858-.487,29.352,29.352,0,0,0,8.357-2.471s.865,8.5-7.76,9.507c-6.53.765-10.455-6.549-10.455-6.549" transform="translate(-288.392 -86.035)" fill="#5e5254"/>
            <path id="Trazado_817147" data-name="Trazado 817147" d="M516.812,161.42c4.98-.585,5.223-4.509,5.223-4.509a33.144,33.144,0,0,1-6.262,1.144,40.4,40.4,0,0,1-6.03.252,7.313,7.313,0,0,0,7.069,3.113" transform="translate(-292.119 -89.921)" fill="#eeebf2"/>
            <path id="Trazado_817148" data-name="Trazado 817148" d="M532.7,96.6a5.478,5.478,0,0,0,5.158.891c2.438-.754,1.63-2.489,3.111-3.461a2.146,2.146,0,0,1,2.649.908,1.138,1.138,0,0,0-1.537.416c-.461.761-.922,3.786-3.611,4.408A4.531,4.531,0,0,1,532.7,96.6" transform="translate(-305.277 -53.784)" fill="#5e5254"/>
            <path id="Trazado_817149" data-name="Trazado 817149" d="M487.855,109.373a5.6,5.6,0,0,1-4.353,3.779c-2.413.542-3.424-.728-5.222-.755a2.47,2.47,0,0,0-2.223,2.252,1.294,1.294,0,0,1,1.785-.345c.869.546,3.362,2.293,6.229,1.47a5.226,5.226,0,0,0,3.786-6.4" transform="translate(-272.814 -62.678)" fill="#5e5254"/>
            <path id="Trazado_817150" data-name="Trazado 817150" d="M443.792,60.772h-.037a.739.739,0,0,1-.7-.774A34.183,34.183,0,0,1,457.5,34.072c.626-.432,1.273-.847,1.9-1.248a26.183,26.183,0,0,0,4.255-3.14c1.94-1.886,2.889-4.206,2.54-6.205a.738.738,0,0,1,1.455-.254c.434,2.482-.675,5.292-2.965,7.519a27.735,27.735,0,0,1-4.488,3.325c-.616.394-1.253.8-1.859,1.22A32.679,32.679,0,0,0,444.529,60.07a.738.738,0,0,1-.737.7" transform="translate(-253.901 -12.958)" fill="#94504b"/>
            <path id="Trazado_817151" data-name="Trazado 817151" d="M432.849,95.033a.737.737,0,0,1-.714-.555,17.074,17.074,0,0,1,2.876-14.414.738.738,0,1,1,1.179.888,15.8,15.8,0,0,0-2.625,13.157.738.738,0,0,1-.531.9.721.721,0,0,1-.184.023" transform="translate(-247.344 -45.714)" fill="#94504b"/>
            <path id="Trazado_817152" data-name="Trazado 817152" d="M396.286,48.74a.739.739,0,0,1-.733-.651,34.777,34.777,0,0,1,21-36.158.739.739,0,0,1,.575,1.361,33.3,33.3,0,0,0-20.1,34.622.739.739,0,0,1-.646.821.774.774,0,0,1-.088.005" transform="translate(-226.542 -6.803)" fill="#94504b"/>
            <path id="Trazado_817153" data-name="Trazado 817153" d="M424.077,144.617a.745.745,0,0,1-.218-.033,22.674,22.674,0,0,1-14.221-13.1.738.738,0,0,1,1.371-.549,21.185,21.185,0,0,0,13.286,12.243.738.738,0,0,1-.218,1.444" transform="translate(-234.722 -74.766)" fill="#94504b"/>
            <path id="Trazado_817154" data-name="Trazado 817154" d="M433.745,21.794a.738.738,0,0,1-.582-1.192A25.689,25.689,0,0,1,450.8,10.955a.738.738,0,0,1,.135,1.471,24.185,24.185,0,0,0-16.6,9.083.737.737,0,0,1-.584.285" transform="translate(-248.144 -6.276)" fill="#94504b"/>
            <path id="Trazado_817155" data-name="Trazado 817155" d="M379.929,43.676a.736.736,0,0,1-.435-.142,14.773,14.773,0,0,1-4.227-19.07.738.738,0,1,1,1.293.713,13.3,13.3,0,0,0,3.8,17.163.738.738,0,0,1-.436,1.335" transform="translate(-214.007 -13.8)" fill="#94504b"/>
            <path id="Trazado_817156" data-name="Trazado 817156" d="M386.346,27.417a.739.739,0,0,1-.737-.7,5.864,5.864,0,0,1,6.368-6.137.738.738,0,1,1-.129,1.471,4.388,4.388,0,0,0-4.764,4.592.739.739,0,0,1-.7.775h-.038" transform="translate(-220.978 -11.78)" fill="#94504b"/>
            <path id="Trazado_817157" data-name="Trazado 817157" d="M412.175,9.573a.739.739,0,0,1-.666-.418,3.541,3.541,0,0,0-6.214-.307.738.738,0,1,1-1.261-.769,5.018,5.018,0,0,1,8.8.435.739.739,0,0,1-.665,1.059" transform="translate(-231.479 -3.251)" fill="#94504b"/>
            <path id="Trazado_817158" data-name="Trazado 817158" d="M524.439,33.884a.739.739,0,0,1-.721-.581,12.42,12.42,0,0,0-11.281-9.491.738.738,0,1,1,.065-1.475,13.937,13.937,0,0,1,12.658,10.651.739.739,0,0,1-.563.879.75.75,0,0,1-.159.017" transform="translate(-293.259 -12.8)" fill="#94504b"/>
            <path id="Trazado_817159" data-name="Trazado 817159" d="M497.953,13.121a.738.738,0,0,1-.466-1.311,7.808,7.808,0,0,1,7.656-1.195.738.738,0,1,1-.538,1.375,6.4,6.4,0,0,0-6.186.965.735.735,0,0,1-.465.166" transform="translate(-284.94 -5.788)" fill="#94504b"/>
            <path id="Trazado_817160" data-name="Trazado 817160" d="M409.076,81.334a.738.738,0,0,1-.67-.427,27.034,27.034,0,0,1,.984-24.374.738.738,0,1,1,1.284.729,25.534,25.534,0,0,0-.93,23.022.739.739,0,0,1-.669,1.05" transform="translate(-232.651 -32.183)" fill="#94504b"/>
            <path id="Trazado_817161" data-name="Trazado 817161" d="M445.137,402.641c-22.829,0-46.722-4.1-48-10.825-1.119-5.893.242-16.654,1.055-23.084l.155-1.226a.852.852,0,1,1,1.691.211l-.155,1.229c-.8,6.329-2.14,16.923-1.072,22.552.946,4.981,24.5,10.257,52.32,9.342,25.894-.854,33.848-4.8,35.961-7.953,1.346-2.01.635-7.693-.188-14.273a138.958,138.958,0,0,1-1.47-20.488,119.553,119.553,0,0,1,2.714-20.414c1.412-7.22,2.631-13.456,1.838-19.209a101.055,101.055,0,0,0-3.836-14.662.852.852,0,0,1,1.623-.519,107.994,107.994,0,0,1,3.9,14.949c.832,6.033-.472,12.7-1.854,19.768a116.523,116.523,0,0,0-2.682,20.128,135.5,135.5,0,0,0,1.458,20.236c.936,7.486,1.613,12.894-.087,15.433-3.443,5.145-15.651,7.993-37.321,8.708-2,.066-4.02.1-6.05.1" transform="translate(-227.346 -173.484)" fill="#cebfb9"/>
            <path id="Trazado_817162" data-name="Trazado 817162" d="M616.018,318.9a.852.852,0,0,1-.566-1.489c1.567-1.393.852-6.3.033-9.061a.852.852,0,1,1,1.634-.484c.248.838,2.343,8.261-.535,10.819a.852.852,0,0,1-.566.215" transform="translate(-352.534 -176.078)" fill="#cebfb9"/>
            <path id="Trazado_817163" data-name="Trazado 817163" d="M643.884,329.229c-9.2,0-19.979-5.31-32.035-15.79a.852.852,0,0,1,1.118-1.286c11.892,10.337,22.4,15.493,31.262,15.37,29.411-.46,55.57-65.637,55.831-66.3a.852.852,0,0,1,1.584.628,237.632,237.632,0,0,1-17,33.375c-13.914,22.357-27.5,33.8-40.387,34-.123,0-.248,0-.371,0" transform="translate(-350.465 -149.393)" fill="#cebfb9"/>
            <path id="Trazado_817164" data-name="Trazado 817164" d="M372.829,427.019a.861.861,0,0,1-.222-.029.853.853,0,0,1-.6-1.044c.108-.4,10.963-40.628,23.036-68.841.04-.1,5.059-12.894,9.293-20.8a.852.852,0,0,1,1.5.8c-4.187,7.815-9.169,20.512-9.219,20.64-12.036,28.128-22.859,68.236-22.967,68.637a.852.852,0,0,1-.822.631" transform="translate(-213.169 -192.469)" fill="#cebfb9"/>
            <path id="Trazado_817165" data-name="Trazado 817165" d="M437.743,352.367a.852.852,0,0,1-.473-1.561,53.639,53.639,0,0,0,6.118-4.721.852.852,0,0,1,1.2,1.2,54.075,54.075,0,0,1-6.378,4.934.848.848,0,0,1-.472.143" transform="translate(-250.37 -198.188)" fill="#cebfb9"/>
            <path id="Trazado_817166" data-name="Trazado 817166" d="M548.823,378.095a.852.852,0,0,1-.384-1.613,31.571,31.571,0,0,0,11.342-9.669.852.852,0,1,1,1.381,1A33.276,33.276,0,0,1,549.206,378a.842.842,0,0,1-.383.091" transform="translate(-314.026 -210.007)" fill="#cebfb9"/>
            <path id="Trazado_817167" data-name="Trazado 817167" d="M562.115,387.831a.852.852,0,0,1-.175-1.686,6.588,6.588,0,0,0,4.34-3.193.852.852,0,0,1,1.487.831,8.316,8.316,0,0,1-5.476,4.03.864.864,0,0,1-.176.018" transform="translate(-321.645 -219.208)" fill="#cebfb9"/>
            <path id="Trazado_817168" data-name="Trazado 817168" d="M682.748,405.688a9.084,9.084,0,0,1-3.868-.843.852.852,0,1,1,.726-1.542,7.758,7.758,0,0,0,8.225-1.173.852.852,0,1,1,1.128,1.277,9.443,9.443,0,0,1-6.211,2.281" transform="translate(-388.767 -230.327)" fill="#cebfb9"/>
            <path id="Trazado_817169" data-name="Trazado 817169" d="M315.224,466.734c-.026,0-.052,0-.079,0a.852.852,0,0,1-.771-.926,36.311,36.311,0,0,1,2.8-11.057.852.852,0,0,1,1.566.673,34.6,34.6,0,0,0-2.673,10.539.852.852,0,0,1-.847.775" transform="translate(-180.157 -260.307)" fill="#cebfb9"/>
            <g id="Grupo_1072327" data-name="Grupo 1072327" transform="translate(-7.766 5.065)">
              <path id="Trazado_817171" data-name="Trazado 817171" d="M62.685,852.437H21.013A13.151,13.151,0,0,1,7.862,839.286V821.111a13.15,13.15,0,0,1,13.151-13.15H62.685a13.15,13.15,0,0,1,13.151,13.15v18.175a13.151,13.151,0,0,1-13.151,13.151" transform="translate(26.309 -463.531)" fill="#f4eee9"/>
              <path id="Trazado_817172" data-name="Trazado 817172" d="M4.483,885.287,1.965,904.3l13.981-7.552Z" transform="translate(29.688 -507.845)" fill="#f4eee9"/>
              <path id="Trazado_817173" data-name="Trazado 817173" d="M49.034,853.854a4.616,4.616,0,1,1-4.616-4.615,4.615,4.615,0,0,1,4.616,4.615" transform="translate(8.004 -487.187)" fill="#9bb3ad"/>
              <path id="Trazado_817174" data-name="Trazado 817174" d="M85.889,853.854a4.616,4.616,0,1,1-4.616-4.615,4.615,4.615,0,0,1,4.616,4.615" transform="translate(-13.115 -487.187)" fill="#9bb3ad"/>
              <path id="Trazado_817175" data-name="Trazado 817175" d="M122.745,853.854a4.616,4.616,0,1,1-4.616-4.615,4.615,4.615,0,0,1,4.616,4.615" transform="translate(-34.236 -487.187)" fill="#9bb3ad"/>
              <path id="Trazado_817176" data-name="Trazado 817176" d="M.839,859.7a.839.839,0,0,1-.832-.95l2.51-18.961V818.3A12.316,12.316,0,0,1,14.82,806H59.866a12.316,12.316,0,0,1,12.3,12.3v21.55a12.316,12.316,0,0,1-12.3,12.3H15.032L1.238,859.6a.842.842,0,0,1-.4.1M14.82,807.674A10.636,10.636,0,0,0,4.2,818.3v21.55a.869.869,0,0,1-.007.11l-2.3,17.386,12.535-6.771a.844.844,0,0,1,.4-.1H59.866A10.636,10.636,0,0,0,70.49,839.848V818.3a10.636,10.636,0,0,0-10.624-10.624Z" transform="translate(30.814 -462.405)" fill="#e6d7d1"/>
            </g>
            <path id="Trazado_817177" data-name="Trazado 817177" d="M546.014,936.689H484.96a16.021,16.021,0,0,1-16.022-16.021V890.389a16.021,16.021,0,0,1,16.022-16.021h61.054a16.021,16.021,0,0,1,16.022,16.021v30.278a16.021,16.021,0,0,1-16.022,16.021" transform="translate(-283.141 -486.136)" fill="#b1c7bf"/>
            <path id="Trazado_817178" data-name="Trazado 817178" d="M490.532,987.052l-2.693,18.85,23.851-17.311Z" transform="translate(-292.04 -539.191)" fill="#b1c7bf"/>
            <path id="Trazado_817179" data-name="Trazado 817179" d="M566.711,897.7H526.676a.826.826,0,0,1,0-1.653h40.035a.826.826,0,1,1,0,1.653" transform="translate(-301.35 -513.501)" fill="#faf6f3"/>
            <path id="Trazado_817180" data-name="Trazado 817180" d="M499.038,897.7h-7.9a.826.826,0,1,1,0-1.653h7.9a.826.826,0,1,1,0,1.653" transform="translate(-280.985 -513.501)" fill="#faf6f3"/>
            <path id="Trazado_817181" data-name="Trazado 817181" d="M596.912,915.133H570.235a1.024,1.024,0,1,1,0-2.049h26.676a1.024,1.024,0,1,1,0,2.049" transform="translate(-330.354 -504.366)" fill="#faf6f3"/>
            <path id="Trazado_817182" data-name="Trazado 817182" d="M524.073,915.133H491.337a1.024,1.024,0,1,1,0-2.049h32.736a1.024,1.024,0,1,1,0,2.049" transform="translate(-293.207 -504.366)" fill="#faf6f3"/>
            <path id="Trazado_817183" data-name="Trazado 817183" d="M582.329,949.2H539.263a1.024,1.024,0,0,1,0-2.048h43.066a1.024,1.024,0,1,1,0,2.048" transform="translate(-315.773 -520.406)" fill="#faf6f3"/>
            <path id="Trazado_817211" data-name="Trazado 817211" d="M582.329,949.2H539.263a1.024,1.024,0,0,1,0-2.048h43.066a1.024,1.024,0,1,1,0,2.048" transform="translate(-315.773 -547.449)" fill="#faf6f3"/>
            <path id="Trazado_817184" data-name="Trazado 817184" d="M504.406,949.2H491.337a1.024,1.024,0,1,1,0-2.048h13.068a1.024,1.024,0,1,1,0,2.048" transform="translate(-293.207 -520.406)" fill="#faf6f3"/>
            <path id="Trazado_817212" data-name="Trazado 817212" d="M504.406,949.2H491.337a1.024,1.024,0,1,1,0-2.048h13.068a1.024,1.024,0,1,1,0,2.048" transform="translate(-293.207 -547.449)" fill="#faf6f3"/>
            <path id="Trazado_817185" data-name="Trazado 817185" d="M584.576,966.237h-14.34a1.024,1.024,0,1,1,0-2.048h14.34a1.024,1.024,0,1,1,0,2.048" transform="translate(-330.354 -528.426)" fill="#faf6f3"/>
            <path id="Trazado_817214" data-name="Trazado 817214" d="M584.576,966.237h-14.34a1.024,1.024,0,1,1,0-2.048h14.34a1.024,1.024,0,1,1,0,2.048" transform="translate(-330.354 -546.454)" fill="#faf6f3"/>
            <path id="Trazado_817186" data-name="Trazado 817186" d="M525.712,966.237H491.337a1.024,1.024,0,0,1,0-2.048h34.375a1.024,1.024,0,1,1,0,2.048" transform="translate(-293.207 -528.426)" fill="#faf6f3"/>
            <path id="Trazado_817213" data-name="Trazado 817213" d="M525.712,966.237H491.337a1.024,1.024,0,0,1,0-2.048h34.375a1.024,1.024,0,1,1,0,2.048" transform="translate(-293.207 -546.454)" fill="#faf6f3"/>
            <g id="Grupo_1072328" data-name="Grupo 1072328" transform="translate(3.201 -8.782)">
              <path id="Trazado_817187" data-name="Trazado 817187" d="M962.557,846.9a30.242,30.242,0,1,1-30.243-30.243A30.243,30.243,0,0,1,962.557,846.9" transform="translate(-540.758 -468.005)" fill="#ffcf87"/>
              <path id="Trazado_817188" data-name="Trazado 817188" d="M927.037,881.463h35.548s-4.51,12.734-18.3,12.734-17.244-12.734-17.244-12.734" transform="translate(-553.254 -500.443)" fill="#5e5254"/>
              <path id="Trazado_817189" data-name="Trazado 817189" d="M932.879,884.052h29.712s-3.769,10.148-15.3,10.148a14.765,14.765,0,0,1-14.412-10.148" transform="translate(-556.178 -501.738)" fill="#fff"/>
              <path id="Trazado_817190" data-name="Trazado 817190" d="M928.144,861.272a1.215,1.215,0,0,1-.707-2.2l5.571-3.979a1.215,1.215,0,0,1,1.447.026l5.173,3.979a1.215,1.215,0,0,1-1.481,1.926l-4.46-3.43-4.838,3.455a1.212,1.212,0,0,1-.705.227" transform="translate(-553.2 -487.127)" fill="#5e5254"/>
              <path id="Trazado_817191" data-name="Trazado 817191" d="M973.16,861.272a1.215,1.215,0,0,1-.707-2.2l5.571-3.979a1.214,1.214,0,0,1,1.447.026l5.173,3.979a1.215,1.215,0,0,1-1.481,1.926l-4.459-3.43-4.838,3.455a1.211,1.211,0,0,1-.705.227" transform="translate(-575.732 -487.127)" fill="#5e5254"/>
            </g>
            <path id="Trazado_817192" data-name="Trazado 817192" d="M653.459,1092.059l3.114,4.519,3.248-3.315L663,1100.6l-11.444,18.59-1.474-24.6Z" transform="translate(-372.542 -625.828)" fill="#9bb3ad"/>
            <path id="Trazado_817193" data-name="Trazado 817193" d="M675.627,1090.443l-13.984,1.893-8.384,25.877Z" transform="translate(-374.364 -624.902)" fill="#b1c7bf"/>
            <path id="Trazado_817194" data-name="Trazado 817194" d="M629.28,1075.692l12.26,6.987-1.906,27.135Z" transform="translate(-360.623 -616.448)" fill="#b1c7bf"/>
            <path id="Trazado_817195" data-name="Trazado 817195" d="M628.084,736.384l1.547-2.813c.781.985,1.561,2.016,2.318,3.066l-1.61,2.729c-.736-1.021-1.495-2.024-2.255-2.982m4.417,6.123,1.669-2.643c.719,1.092,1.433,2.229,2.124,3.38l-1.725,2.554c-.673-1.12-1.369-2.227-2.068-3.29m4.041,6.724,1.778-2.463c.655,1.192,1.3,2.424,1.925,3.664l-1.827,2.369c-.606-1.207-1.237-2.408-1.875-3.569m3.652,7.268,1.872-2.274c.587,1.277,1.166,2.6,1.72,3.919l-1.916,2.176c-.54-1.29-1.1-2.575-1.677-3.821m3.251,7.758,1.956-2.076c.519,1.36,1.026,2.756,1.508,4.149l-1.993,1.973c-.471-1.359-.965-2.721-1.471-4.047m2.837,8.2,2.027-1.869c.445,1.424.88,2.889,1.291,4.356l-2.059,1.762c-.4-1.431-.826-2.86-1.26-4.249m2.412,8.591,2.088-1.653c.373,1.49.733,3.017,1.069,4.539l-2.114,1.542c-.328-1.484-.679-2.973-1.043-4.427m1.976,8.936,2.137-1.43c.3,1.542.581,3.122.842,4.7l-2.158,1.316c-.255-1.537-.532-3.079-.822-4.583m1.532,9.233,2.175-1.2c.222,1.589.428,3.214.612,4.83l-2.191,1.083c-.18-1.577-.381-3.162-.6-4.713m1.081,9.482,2.2-.965c.146,1.63.273,3.291.38,4.937l-2.211.846c-.1-1.607-.228-3.228-.371-4.818m.628,9.681,2.218-.727c.068,1.656.118,3.345.148,5.019l-2.222.607c-.029-1.634-.077-3.283-.144-4.9m-13.888,90.316q.312-.927.617-1.853l1.948,1.194q-.31.942-.628,1.887Zm2.127-6.575c.491-1.58.974-3.182,1.435-4.762l2,1.021c-.47,1.61-.962,3.242-1.462,4.851Zm11.937-73.911,2.222-.488c-.008,1.675-.036,3.383-.082,5.075l-2.22.368c.045-1.653.073-3.32.081-4.955m-9.145,64.347c.439-1.609.868-3.237,1.274-4.838l2.052.836c-.414,1.633-.851,3.292-1.3,4.932Zm8.874-54.417,2.215-.25c-.084,1.691-.187,3.408-.307,5.1l-2.208.133c.118-1.657.219-3.335.3-4.987m-6.41,44.707c.382-1.629.752-3.278,1.1-4.9l2.1.638c-.356,1.657-.734,3.34-1.124,5Zm5.7-34.725,2.2-.016c-.157,1.694-.334,3.414-.526,5.111l-2.187-.1c.188-1.659.361-3.34.515-5m-3.589,24.9c.32-1.643.628-3.309.916-4.952l2.139.429c-.294,1.678-.608,3.379-.936,5.057Zm2.456-14.906,2.173.211c-.226,1.686-.474,3.4-.736,5.1l-2.157-.321c.257-1.658.5-3.336.721-4.985" transform="translate(-359.937 -420.388)" fill="#b1c7bf"/>
            <path id="Trazado_817196" data-name="Trazado 817196" d="M393.419,1061.53l-2.362,3.427-2.464-2.515-2.41,5.569,8.681,14.1,1.118-18.657Z" transform="translate(-221.311 -608.333)" fill="#9bb3ad"/>
            <path id="Trazado_817197" data-name="Trazado 817197" d="M366.984,1060.3l10.607,1.436,6.359,19.629Z" transform="translate(-210.308 -607.63)" fill="#b1c7bf"/>
            <path id="Trazado_817198" data-name="Trazado 817198" d="M412.43,1049.116l-9.3,5.3L404.576,1075Z" transform="translate(-231.023 -601.219)" fill="#b1c7bf"/>
            <path id="Trazado_817199" data-name="Trazado 817199" d="M389.074,749.409l-1.109-1.881c.522-.723,1.059-1.434,1.6-2.113l1.066,1.939c-.523.66-1.046,1.351-1.554,2.055m-2.916,4.433-1.189-1.76c.476-.793.969-1.576,1.464-2.329l1.151,1.822c-.482.733-.962,1.5-1.426,2.268m-2.652,4.826-1.259-1.633c.429-.854.876-1.7,1.327-2.525l1.225,1.7c-.44.8-.875,1.628-1.293,2.46m-2.38,5.183-1.32-1.5c.382-.912.781-1.82,1.185-2.7l1.291,1.567c-.394.858-.783,1.744-1.155,2.634m-2.1,5.5-1.374-1.36c.332-.961.682-1.923,1.04-2.86l1.348,1.431c-.348.914-.69,1.852-1.014,2.789m-1.81,5.79-1.419-1.215c.284-1.01.583-2.02.89-3l1.4,1.288c-.3.957-.592,1.943-.869,2.928m-1.513,6.044-1.457-1.063c.232-1.048.48-2.1.737-3.128l1.439,1.139c-.251,1-.493,2.029-.719,3.051m-1.21,6.265-1.487-.907c.18-1.085.375-2.174.581-3.236l1.473.985c-.2,1.037-.391,2.1-.567,3.158m-.9,6.453-1.509-.746c.127-1.114.269-2.234.422-3.329l1.5.827c-.149,1.069-.287,2.161-.412,3.248m-.589,6.607-1.524-.583c.073-1.135.161-2.28.262-3.4l1.518.665c-.1,1.1-.184,2.213-.256,3.321m-.277,6.728-1.531-.419c.021-1.154.055-2.317.1-3.459l1.528.5c-.046,1.114-.079,2.25-.1,3.376m8.336,59.715q-.219-.65-.433-1.3l1.343-.823q.21.638.425,1.277Zm-1.493-4.612c-.344-1.109-.684-2.234-1.007-3.343l1.38-.7c.318,1.089.651,2.193.989,3.282Zm-6.81-48.289-1.53-.254c-.032-1.166-.051-2.343-.057-3.5l1.531.336c.005,1.127.024,2.276.055,3.415m4.85,41.574c-.308-1.131-.61-2.274-.9-3.4l1.415-.576c.28,1.1.575,2.225.878,3.334ZM373.1,820.92l-1.522-.092c-.083-1.169-.154-2.353-.212-3.518l1.527.173c.056,1.139.126,2.295.207,3.437m2.78,27.884c-.268-1.146-.529-2.305-.774-3.448l1.447-.44c.241,1.119.5,2.256.759,3.378Zm-2.143-21-1.507.068c-.133-1.17-.255-2.355-.363-3.522l1.516.011c.106,1.142.225,2.3.355,3.443m.658,14.083c-.225-1.157-.443-2.329-.645-3.486l1.474-.3c.2,1.132.41,2.28.632,3.413Zm.265-7.206-1.487.221c-.181-1.168-.351-2.35-.507-3.511l1.5-.145c.152,1.137.32,2.293.5,3.436" transform="translate(-210.754 -414.953)" fill="#b1c7bf"/>
            <path id="Trazado_817200" data-name="Trazado 817200" d="M711.729,507.424a4.8,4.8,0,1,1,4.8-4.8,4.8,4.8,0,0,1-4.8,4.8" transform="translate(-405.12 -285.286)" fill="#ffcf87"/>
            <path id="Trazado_817201" data-name="Trazado 817201" d="M809.349,1218.6a4.8,4.8,0,1,1,4.8-4.8,4.8,4.8,0,0,1-4.8,4.8" transform="translate(-461.063 -692.842)" fill="#b95a5a"/>
            <path id="Trazado_817202" data-name="Trazado 817202" d="M805.427,902.233a3.2,3.2,0,1,1,3.2-3.2,3.2,3.2,0,0,1-3.2,3.2" transform="translate(-459.733 -513.375)" fill="#b95a5a"/>
            <path id="Trazado_817203" data-name="Trazado 817203" d="M226.232,1367.288a3.2,3.2,0,1,1,3.2-3.2,3.2,3.2,0,0,1-3.2,3.2" transform="translate(-127.812 -779.885)" fill="#b95a5a"/>
            <path id="Trazado_817204" data-name="Trazado 817204" d="M681.573,333.967a3.2,3.2,0,1,1,3.2-3.2,3.2,3.2,0,0,1-3.2,3.2" transform="translate(-388.756 -187.717)" fill="#b1c7bf"/>
            <path id="Trazado_817205" data-name="Trazado 817205" d="M902.566,1391.573a3.2,3.2,0,1,1,3.2-3.2,3.2,3.2,0,0,1-3.2,3.2" transform="translate(-515.4 -793.802)" fill="#b1c7bf"/>
            <path id="Trazado_817206" data-name="Trazado 817206" d="M163.092,391.036a3.2,3.2,0,1,1,3.2-3.2,3.2,3.2,0,0,1-3.2,3.2" transform="translate(-91.628 -220.422)" fill="#b1c7bf"/>
            <path id="Trazado_817207" data-name="Trazado 817207" d="M567.435,1194.866a3.2,3.2,0,1,1,3.2-3.2,3.2,3.2,0,0,1-3.2,3.2" transform="translate(-323.346 -681.074)" fill="#ffcf87"/>
            <path id="Trazado_817208" data-name="Trazado 817208" d="M856.425,370.394a3.2,3.2,0,1,1,3.2-3.2,3.2,3.2,0,0,1-3.2,3.2" transform="translate(-488.958 -208.593)" fill="#ffcf87"/>
            <rect id="Rectángulo_376660" data-name="Rectángulo 376660" width="5.74" height="67.929" transform="translate(229.476 242.761)" fill="#ffcf87"/>
            <path id="Trazado_817209" data-name="Trazado 817209" d="M525.692,741.941,539.5,718.025H511.884Z" transform="translate(-293.346 -411.479)" fill="#ffcf87"/>
            <rect id="Rectángulo_376661" data-name="Rectángulo 376661" width="5.74" height="67.929" transform="translate(229.476 464.728)" fill="#ffcf87"/>
            <path id="Trazado_817210" data-name="Trazado 817210" d="M525.538,1266.96l14.008-24.261H511.531Z" transform="translate(-293.144 -712.155)" fill="#ffcf87"/>
          </g>
        </g>
      </g>
      <path id="Trazado_819142" data-name="Trazado 819142" d="M29,0H235a29,29,0,0,1,0,58H29A29,29,0,0,1,29,0Z" transform="translate(21762 -10493)" fill="#1b3f5e"/>
      <path id="Trazado_819143" data-name="Trazado 819143" d="M93.447,12.838H87.822v3.809h6.6V19H84.893V4.781H94.4V7.154H87.822v3.389h5.625Zm5.156-4.4.088,1.182a3.713,3.713,0,0,1,3.037-1.377,2.818,2.818,0,0,1,2.8,1.611,3.628,3.628,0,0,1,3.174-1.611,3.152,3.152,0,0,1,2.559,1,4.6,4.6,0,0,1,.84,3.013V19h-2.832V12.262a2.012,2.012,0,0,0-.352-1.313,1.558,1.558,0,0,0-1.24-.415,1.762,1.762,0,0,0-1.758,1.211l.01,7.256h-2.822V12.271a1.988,1.988,0,0,0-.361-1.328,1.573,1.573,0,0,0-1.23-.41,1.829,1.829,0,0,0-1.738,1V19H95.957V8.434ZM116.25,19h-2.832V8.434h2.832Zm-3-13.3a1.39,1.39,0,0,1,.425-1.045,1.831,1.831,0,0,1,2.31,0,1.382,1.382,0,0,1,.43,1.045,1.386,1.386,0,0,1-.435,1.055,1.81,1.81,0,0,1-2.295,0A1.386,1.386,0,0,1,113.252,5.7ZM124.3,16.08a.909.909,0,0,0-.513-.815,5.824,5.824,0,0,0-1.646-.532q-3.77-.791-3.77-3.2a2.9,2.9,0,0,1,1.167-2.349,4.708,4.708,0,0,1,3.052-.942,5.067,5.067,0,0,1,3.218.947,2.985,2.985,0,0,1,1.206,2.461h-2.822a1.366,1.366,0,0,0-.391-1,1.653,1.653,0,0,0-1.221-.4,1.689,1.689,0,0,0-1.1.322,1.017,1.017,0,0,0-.391.82.87.87,0,0,0,.444.757,4.571,4.571,0,0,0,1.5.5,12.244,12.244,0,0,1,1.777.474,2.92,2.92,0,0,1,2.236,2.842A2.756,2.756,0,0,1,125.8,18.3a5.35,5.35,0,0,1-3.2.894,5.588,5.588,0,0,1-2.358-.474,3.957,3.957,0,0,1-1.616-1.3,3.018,3.018,0,0,1-.586-1.782h2.676a1.473,1.473,0,0,0,.557,1.152,2.208,2.208,0,0,0,1.387.4,2.044,2.044,0,0,0,1.226-.308A.957.957,0,0,0,124.3,16.08Zm4.121-2.461a6.267,6.267,0,0,1,.605-2.8,4.432,4.432,0,0,1,1.743-1.9,5.086,5.086,0,0,1,2.642-.674A4.812,4.812,0,0,1,136.9,9.547a5.252,5.252,0,0,1,1.509,3.555l.02.723a5.523,5.523,0,0,1-1.357,3.9,5.261,5.261,0,0,1-7.29,0,5.62,5.62,0,0,1-1.362-3.984Zm2.822.2a3.95,3.95,0,0,0,.566,2.3,2.035,2.035,0,0,0,3.223.01,4.322,4.322,0,0,0,.576-2.518,3.91,3.91,0,0,0-.576-2.289,1.873,1.873,0,0,0-1.621-.812,1.842,1.842,0,0,0-1.6.807A4.395,4.395,0,0,0,131.24,13.819ZM146.1,11.08A7.667,7.667,0,0,0,145.088,11a2.067,2.067,0,0,0-2.1,1.084V19h-2.822V8.434h2.666l.078,1.26a2.615,2.615,0,0,1,2.354-1.455,2.957,2.957,0,0,1,.879.127Z" transform="translate(21779 -10477)" fill="#fff"/>
      <path id="Trazado_819144" data-name="Trazado 819144" d="M29,0H235a29,29,0,0,1,0,58H29A29,29,0,0,1,29,0Z" transform="translate(21762 -9935)" fill="#1b3f5e"/>
      <path id="Trazado_819145" data-name="Trazado 819145" d="M80.962,13.795H78.628V19H75.7V4.781h5.283A5.972,5.972,0,0,1,84.868,5.9a3.876,3.876,0,0,1,1.367,3.174,4.374,4.374,0,0,1-.63,2.427A4.3,4.3,0,0,1,83.7,13.053l3.076,5.811V19H83.628Zm-2.334-2.373h2.363A2.42,2.42,0,0,0,82.7,10.86a2.007,2.007,0,0,0,.605-1.548,2.148,2.148,0,0,0-.571-1.582,2.374,2.374,0,0,0-1.753-.576H78.628ZM93.14,19.2a5.187,5.187,0,0,1-3.784-1.426,5.068,5.068,0,0,1-1.46-3.8V13.7a6.383,6.383,0,0,1,.615-2.847,4.515,4.515,0,0,1,1.743-1.934,4.893,4.893,0,0,1,2.573-.679A4.385,4.385,0,0,1,96.24,9.605a5.555,5.555,0,0,1,1.245,3.877v1.152H90.757a2.622,2.622,0,0,0,.825,1.66,2.5,2.5,0,0,0,1.743.625,3.046,3.046,0,0,0,2.549-1.182l1.387,1.553a4.237,4.237,0,0,1-1.719,1.4A5.639,5.639,0,0,1,93.14,19.2Zm-.322-8.682a1.764,1.764,0,0,0-1.362.569,2.946,2.946,0,0,0-.669,1.628h3.926v-.226a2.1,2.1,0,0,0-.508-1.457A1.819,1.819,0,0,0,92.817,10.514Zm10.664,6.406a1.851,1.851,0,0,0,1.27-.43,1.506,1.506,0,0,0,.508-1.143h2.646a3.62,3.62,0,0,1-.586,1.968,3.866,3.866,0,0,1-1.577,1.387,4.936,4.936,0,0,1-2.212.493,4.587,4.587,0,0,1-3.574-1.44,5.7,5.7,0,0,1-1.309-3.979V13.59a5.635,5.635,0,0,1,1.3-3.9,4.534,4.534,0,0,1,3.564-1.455,4.444,4.444,0,0,1,3.179,1.128,3.994,3.994,0,0,1,1.216,3h-2.646a1.939,1.939,0,0,0-.508-1.34,1.887,1.887,0,0,0-2.778.2,4.166,4.166,0,0,0-.5,2.333v.293a4.219,4.219,0,0,0,.5,2.347A1.721,1.721,0,0,0,103.481,16.92Zm10.9,2.275A5.187,5.187,0,0,1,110.6,17.77a5.068,5.068,0,0,1-1.46-3.8V13.7a6.383,6.383,0,0,1,.615-2.847,4.515,4.515,0,0,1,1.743-1.934,4.893,4.893,0,0,1,2.573-.679,4.385,4.385,0,0,1,3.413,1.367,5.555,5.555,0,0,1,1.245,3.877v1.152H112a2.622,2.622,0,0,0,.825,1.66,2.5,2.5,0,0,0,1.743.625,3.046,3.046,0,0,0,2.549-1.182l1.387,1.553a4.237,4.237,0,0,1-1.719,1.4A5.639,5.639,0,0,1,114.38,19.2Zm-.322-8.682a1.764,1.764,0,0,0-1.362.569,2.946,2.946,0,0,0-.669,1.628h3.926v-.226a2.1,2.1,0,0,0-.508-1.457A1.819,1.819,0,0,0,114.058,10.514Zm15.781,3.3a6.337,6.337,0,0,1-1.108,3.911,3.554,3.554,0,0,1-2.993,1.47,3.292,3.292,0,0,1-2.588-1.113v4.98h-2.822V8.434h2.617l.1,1.035a3.317,3.317,0,0,1,2.676-1.23,3.578,3.578,0,0,1,3.037,1.445,6.509,6.509,0,0,1,1.084,3.984Zm-2.822-.205a4.159,4.159,0,0,0-.522-2.275,1.7,1.7,0,0,0-1.519-.8,1.848,1.848,0,0,0-1.826,1.016v4.326A1.879,1.879,0,0,0,125,16.92Q127.017,16.92,127.017,13.609Zm7.949-7.773v2.6h1.807V10.5h-1.807v5.273a1.259,1.259,0,0,0,.225.84,1.128,1.128,0,0,0,.859.254,4.5,4.5,0,0,0,.83-.068v2.139a5.81,5.81,0,0,1-1.709.254q-2.969,0-3.027-3V10.5H130.6V8.434h1.543v-2.6Zm2.646,7.783a6.267,6.267,0,0,1,.605-2.8,4.432,4.432,0,0,1,1.743-1.9,5.086,5.086,0,0,1,2.642-.674,4.812,4.812,0,0,1,3.491,1.309A5.252,5.252,0,0,1,147.6,13.1l.02.723a5.523,5.523,0,0,1-1.357,3.9,5.261,5.261,0,0,1-7.29,0,5.62,5.62,0,0,1-1.362-3.984Zm2.822.2a3.95,3.95,0,0,0,.566,2.3,2.035,2.035,0,0,0,3.223.01,4.322,4.322,0,0,0,.576-2.518,3.91,3.91,0,0,0-.576-2.289,1.873,1.873,0,0,0-1.621-.812,1.842,1.842,0,0,0-1.6.807A4.395,4.395,0,0,0,140.435,13.819ZM155.3,11.08A7.667,7.667,0,0,0,154.282,11a2.067,2.067,0,0,0-2.1,1.084V19H149.36V8.434h2.666l.078,1.26a2.615,2.615,0,0,1,2.354-1.455,2.957,2.957,0,0,1,.879.127Z" transform="translate(21779 -9919)" fill="#fff"/>
      <path id="Trazado_819146" data-name="Trazado 819146" d="M29,0h81a29,29,0,0,1,0,58H29A29,29,0,0,1,29,0Z" transform="translate(21824 -10370)" fill="#1b3f5e"/>
      <path id="Trazado_819147" data-name="Trazado 819147" d="M36.326,4.781l3.652,10.313L43.611,4.781h3.848V19H44.52V15.113L44.813,8.4,40.975,19H38.963L35.135,8.414l.293,6.7V19H32.5V4.781ZM54.7,19.2a5.187,5.187,0,0,1-3.784-1.426,5.068,5.068,0,0,1-1.46-3.8V13.7a6.383,6.383,0,0,1,.615-2.847A4.515,4.515,0,0,1,51.81,8.917a4.893,4.893,0,0,1,2.573-.679A4.385,4.385,0,0,1,57.8,9.605a5.555,5.555,0,0,1,1.245,3.877v1.152H52.313a2.622,2.622,0,0,0,.825,1.66,2.5,2.5,0,0,0,1.743.625,3.046,3.046,0,0,0,2.549-1.182l1.387,1.553a4.237,4.237,0,0,1-1.719,1.4A5.639,5.639,0,0,1,54.7,19.2Zm-.322-8.682a1.764,1.764,0,0,0-1.362.569,2.946,2.946,0,0,0-.669,1.628h3.926v-.226a2.1,2.1,0,0,0-.508-1.457A1.819,1.819,0,0,0,54.373,10.514Zm8.867-2.08.088,1.221a3.689,3.689,0,0,1,3.037-1.416,3.066,3.066,0,0,1,2.5.986,4.6,4.6,0,0,1,.84,2.949V19H66.883V12.242a1.831,1.831,0,0,0-.391-1.3,1.749,1.749,0,0,0-1.3-.405,1.942,1.942,0,0,0-1.787,1.016V19H60.584V8.434ZM77.566,16.08a.909.909,0,0,0-.513-.815,5.824,5.824,0,0,0-1.646-.532q-3.77-.791-3.77-3.2a2.9,2.9,0,0,1,1.167-2.349,4.708,4.708,0,0,1,3.052-.942,5.067,5.067,0,0,1,3.218.947,2.985,2.985,0,0,1,1.206,2.461H77.459a1.366,1.366,0,0,0-.391-1,1.653,1.653,0,0,0-1.221-.4,1.689,1.689,0,0,0-1.1.322,1.017,1.017,0,0,0-.391.82.87.87,0,0,0,.444.757,4.571,4.571,0,0,0,1.5.5,12.244,12.244,0,0,1,1.777.474,2.92,2.92,0,0,1,2.236,2.842A2.756,2.756,0,0,1,79.07,18.3a5.35,5.35,0,0,1-3.2.894,5.588,5.588,0,0,1-2.358-.474,3.957,3.957,0,0,1-1.616-1.3,3.018,3.018,0,0,1-.586-1.782h2.676a1.473,1.473,0,0,0,.557,1.152,2.208,2.208,0,0,0,1.387.4,2.044,2.044,0,0,0,1.226-.308A.957.957,0,0,0,77.566,16.08ZM88.25,19a3.134,3.134,0,0,1-.283-.947A3.415,3.415,0,0,1,85.3,19.2a3.752,3.752,0,0,1-2.573-.9,2.89,2.89,0,0,1-1.021-2.266,2.986,2.986,0,0,1,1.245-2.578,6.144,6.144,0,0,1,3.6-.908h1.3v-.605a1.741,1.741,0,0,0-.376-1.172,1.479,1.479,0,0,0-1.187-.439,1.682,1.682,0,0,0-1.118.342,1.161,1.161,0,0,0-.405.938H81.941a2.835,2.835,0,0,1,.566-1.7,3.744,3.744,0,0,1,1.6-1.226,5.837,5.837,0,0,1,2.324-.444,4.611,4.611,0,0,1,3.1.981,3.433,3.433,0,0,1,1.147,2.759v4.58a5.052,5.052,0,0,0,.42,2.275V19Zm-2.334-1.963a2.431,2.431,0,0,0,1.152-.278,1.828,1.828,0,0,0,.781-.747V14.2H86.795q-2.119,0-2.256,1.465l-.01.166a1.13,1.13,0,0,0,.371.869A1.441,1.441,0,0,0,85.916,17.037Zm9.922-8.6V19.576a3.78,3.78,0,0,1-.928,2.72,3.526,3.526,0,0,1-2.676.972,5.738,5.738,0,0,1-1.4-.166V20.865a5.3,5.3,0,0,0,.889.088q1.279,0,1.279-1.357V8.434ZM92.781,5.7a1.39,1.39,0,0,1,.425-1.045,1.838,1.838,0,0,1,2.314,0A1.39,1.39,0,0,1,95.945,5.7a1.386,1.386,0,0,1-.435,1.055,1.81,1.81,0,0,1-2.295,0A1.386,1.386,0,0,1,92.781,5.7Zm10.127,13.5a5.187,5.187,0,0,1-3.784-1.426,5.068,5.068,0,0,1-1.46-3.8V13.7a6.383,6.383,0,0,1,.615-2.847,4.515,4.515,0,0,1,1.743-1.934,4.893,4.893,0,0,1,2.573-.679,4.385,4.385,0,0,1,3.413,1.367,5.555,5.555,0,0,1,1.245,3.877v1.152h-6.729a2.622,2.622,0,0,0,.825,1.66,2.5,2.5,0,0,0,1.743.625,3.046,3.046,0,0,0,2.549-1.182l1.387,1.553a4.237,4.237,0,0,1-1.719,1.4A5.639,5.639,0,0,1,102.908,19.2Zm-.322-8.682a1.764,1.764,0,0,0-1.362.569,2.946,2.946,0,0,0-.669,1.628h3.926v-.226a2.1,2.1,0,0,0-.508-1.457A1.819,1.819,0,0,0,102.586,10.514Z" transform="translate(21824 -10354)" fill="#fff"/>
      <path id="Trazado_819148" data-name="Trazado 819148" d="M8,0H139a8,8,0,0,1,8,8V51a8,8,0,0,1-8,8H8a8,8,0,0,1-8-8V8A8,8,0,0,1,8,0Z" transform="translate(21981 -10289)" fill="#dbf9bd"/>
      <path id="Trazado_819149" data-name="Trazado 819149" d="M8,0H139a8,8,0,0,1,8,8V51a8,8,0,0,1-8,8H8a8,8,0,0,1-8-8V8A8,8,0,0,1,8,0Z" transform="translate(21656 -10288)" fill="#dbf9bd"/>
      <path id="Trazado_819150" data-name="Trazado 819150" d="M-43.055-3.789A4.025,4.025,0,0,1-44.41-.9,4.76,4.76,0,0,1-47.633.156a4.28,4.28,0,0,1-3.441-1.473,6.038,6.038,0,0,1-1.254-4.043v-.7a6.819,6.819,0,0,1,.578-2.891A4.332,4.332,0,0,1-50.1-10.863a4.629,4.629,0,0,1,2.5-.668,4.637,4.637,0,0,1,3.172,1.055,4.326,4.326,0,0,1,1.391,2.961h-2.344A2.376,2.376,0,0,0-46-9.113a2.271,2.271,0,0,0-1.605-.5,1.991,1.991,0,0,0-1.754.84,4.707,4.707,0,0,0-.6,2.605V-5.3a5.038,5.038,0,0,0,.559,2.7,1.954,1.954,0,0,0,1.762.852,2.314,2.314,0,0,0,1.621-.5A2.241,2.241,0,0,0-45.4-3.789Zm1.039-.516a5.013,5.013,0,0,1,.484-2.242A3.546,3.546,0,0,1-40.137-8.07a4.069,4.069,0,0,1,2.113-.539A3.849,3.849,0,0,1-35.23-7.562a4.2,4.2,0,0,1,1.207,2.844l.016.578A4.418,4.418,0,0,1-35.094-1.02,3.775,3.775,0,0,1-38.008.156a3.793,3.793,0,0,1-2.918-1.172A4.5,4.5,0,0,1-42.016-4.2Zm2.258.16A3.16,3.16,0,0,0-39.3-2.3a1.5,1.5,0,0,0,1.3.638,1.5,1.5,0,0,0,1.281-.63,3.457,3.457,0,0,0,.461-2.015,3.128,3.128,0,0,0-.461-1.831,1.5,1.5,0,0,0-1.3-.649,1.474,1.474,0,0,0-1.281.646A3.516,3.516,0,0,0-39.758-4.144ZM-37.578-12h2.461l-2.164,2.422h-1.836Zm4.609,7.711a5.094,5.094,0,0,1,.887-3.148,2.877,2.877,0,0,1,2.426-1.172,2.589,2.589,0,0,1,2.039.922V-12h2.266V0h-2.039L-27.5-.9A2.657,2.657,0,0,1-29.672.156,2.869,2.869,0,0,1-32.066-1.02,5.258,5.258,0,0,1-32.969-4.289Zm2.258.168A3.337,3.337,0,0,0-30.3-2.3a1.349,1.349,0,0,0,1.2.634,1.511,1.511,0,0,0,1.477-.884V-5.889a1.489,1.489,0,0,0-1.461-.884Q-30.711-6.773-30.711-4.121ZM-21.219,0h-2.266V-8.453h2.266Zm-2.4-10.641a1.112,1.112,0,0,1,.34-.836,1.277,1.277,0,0,1,.926-.328,1.28,1.28,0,0,1,.922.328,1.105,1.105,0,0,1,.344.836,1.108,1.108,0,0,1-.348.844,1.283,1.283,0,0,1-.918.328A1.283,1.283,0,0,1-23.27-9.8,1.108,1.108,0,0,1-23.617-10.641Zm3.93,6.352a4.954,4.954,0,0,1,.926-3.133,3,3,0,0,1,2.5-1.187,2.631,2.631,0,0,1,2.164.953l.094-.8h2.047V-.281a3.613,3.613,0,0,1-.5,1.93A3.236,3.236,0,0,1-13.883,2.9a4.985,4.985,0,0,1-2.141.43,4.635,4.635,0,0,1-1.812-.371A3.217,3.217,0,0,1-19.172,2l1-1.375a2.645,2.645,0,0,0,2.047.945,1.936,1.936,0,0,0,1.4-.48,1.8,1.8,0,0,0,.5-1.363V-.727a2.612,2.612,0,0,1-2.055.883,2.992,2.992,0,0,1-2.465-1.191,4.953,4.953,0,0,1-.941-3.16Zm2.258.168a3.085,3.085,0,0,0,.461,1.8,1.466,1.466,0,0,0,1.266.653,1.568,1.568,0,0,0,1.477-.775V-6a1.564,1.564,0,0,0-1.461-.775,1.476,1.476,0,0,0-1.277.665A3.477,3.477,0,0,0-17.43-4.121Zm6.852-.184a5.013,5.013,0,0,1,.484-2.242A3.546,3.546,0,0,1-8.7-8.07a4.069,4.069,0,0,1,2.113-.539A3.849,3.849,0,0,1-3.793-7.562,4.2,4.2,0,0,1-2.586-4.719l.016.578A4.418,4.418,0,0,1-3.656-1.02,3.775,3.775,0,0,1-6.57.156,3.793,3.793,0,0,1-9.488-1.016,4.5,4.5,0,0,1-10.578-4.2Zm2.258.16A3.16,3.16,0,0,0-7.867-2.3a1.5,1.5,0,0,0,1.3.638,1.5,1.5,0,0,0,1.281-.63,3.457,3.457,0,0,0,.461-2.015A3.128,3.128,0,0,0-5.289-6.14a1.5,1.5,0,0,0-1.3-.649,1.474,1.474,0,0,0-1.281.646A3.516,3.516,0,0,0-8.32-4.144Zm7.25,3.035a1.137,1.137,0,0,1,.363-.875A1.289,1.289,0,0,1,.2-2.32a1.3,1.3,0,0,1,.918.336,1.137,1.137,0,0,1,.363.875,1.121,1.121,0,0,1-.359.863A1.305,1.305,0,0,1,.2.086,1.294,1.294,0,0,1-.711-.246,1.121,1.121,0,0,1-1.07-1.109Zm0-6.4a1.137,1.137,0,0,1,.363-.875A1.289,1.289,0,0,1,.2-8.719a1.3,1.3,0,0,1,.918.336,1.137,1.137,0,0,1,.363.875,1.121,1.121,0,0,1-.359.863A1.305,1.305,0,0,1,.2-6.312a1.294,1.294,0,0,1-.914-.332A1.121,1.121,0,0,1-1.07-7.508ZM11.9-2.336a.727.727,0,0,0-.41-.652,4.659,4.659,0,0,0-1.316-.426Q7.156-4.047,7.156-5.977A2.323,2.323,0,0,1,8.09-7.855a3.766,3.766,0,0,1,2.441-.754,4.053,4.053,0,0,1,2.574.758,2.388,2.388,0,0,1,.965,1.969H11.813a1.092,1.092,0,0,0-.312-.8A1.322,1.322,0,0,0,10.523-7a1.351,1.351,0,0,0-.883.258.814.814,0,0,0-.312.656.7.7,0,0,0,.355.605,3.657,3.657,0,0,0,1.2.4A9.8,9.8,0,0,1,12.3-4.7,2.336,2.336,0,0,1,14.094-2.43,2.2,2.2,0,0,1,13.1-.559a4.28,4.28,0,0,1-2.562.715A4.47,4.47,0,0,1,8.652-.223,3.166,3.166,0,0,1,7.359-1.262a2.414,2.414,0,0,1-.469-1.426H9.031a1.179,1.179,0,0,0,.445.922,1.766,1.766,0,0,0,1.109.32,1.635,1.635,0,0,0,.98-.246A.766.766,0,0,0,11.9-2.336ZM19.438.156A4.15,4.15,0,0,1,16.41-.984a4.054,4.054,0,0,1-1.168-3.039v-.219a5.106,5.106,0,0,1,.492-2.277,3.612,3.612,0,0,1,1.395-1.547,3.914,3.914,0,0,1,2.059-.543,3.508,3.508,0,0,1,2.73,1.094,4.444,4.444,0,0,1,1,3.1v.922H17.531a2.1,2.1,0,0,0,.66,1.328,2,2,0,0,0,1.395.5,2.437,2.437,0,0,0,2.039-.945l1.109,1.242A3.389,3.389,0,0,1,21.359-.246,4.511,4.511,0,0,1,19.438.156ZM19.18-6.789a1.411,1.411,0,0,0-1.09.455,2.357,2.357,0,0,0-.535,1.3H20.7v-.181a1.681,1.681,0,0,0-.406-1.165A1.456,1.456,0,0,0,19.18-6.789Zm7.094-1.664.07.977a2.951,2.951,0,0,1,2.43-1.133,2.453,2.453,0,0,1,2,.789,3.682,3.682,0,0,1,.672,2.359V0H29.188V-5.406a1.465,1.465,0,0,0-.312-1.043,1.4,1.4,0,0,0-1.039-.324,1.553,1.553,0,0,0-1.43.813V0H24.148V-8.453ZM30.758-11.9a2.187,2.187,0,0,1-.516,1.48,1.6,1.6,0,0,1-1.258.6,1.908,1.908,0,0,1-.527-.066,3.539,3.539,0,0,1-.637-.285,3.435,3.435,0,0,0-.586-.27,1.432,1.432,0,0,0-.391-.051.627.627,0,0,0-.465.2.759.759,0,0,0-.191.555L24.875-9.82a2.22,2.22,0,0,1,.512-1.477,1.578,1.578,0,0,1,1.254-.609,1.614,1.614,0,0,1,.441.059,4.86,4.86,0,0,1,.676.285,4.392,4.392,0,0,0,.648.273,1.48,1.48,0,0,0,.375.047.659.659,0,0,0,.473-.191.728.728,0,0,0,.2-.551ZM38.055,0a2.507,2.507,0,0,1-.227-.758A2.732,2.732,0,0,1,35.7.156a3,3,0,0,1-2.059-.719,2.312,2.312,0,0,1-.816-1.812,2.389,2.389,0,0,1,1-2.062A4.915,4.915,0,0,1,36.7-5.164h1.039v-.484a1.393,1.393,0,0,0-.3-.937,1.183,1.183,0,0,0-.949-.352,1.345,1.345,0,0,0-.895.273.929.929,0,0,0-.324.75H33.008a2.268,2.268,0,0,1,.453-1.359,3,3,0,0,1,1.281-.98A4.669,4.669,0,0,1,36.6-8.609a3.689,3.689,0,0,1,2.48.785A2.747,2.747,0,0,1,40-5.617v3.664a4.041,4.041,0,0,0,.336,1.82V0ZM36.188-1.57a1.945,1.945,0,0,0,.922-.223,1.462,1.462,0,0,0,.625-.6V-3.844h-.844q-1.7,0-1.8,1.172l-.008.133a.9.9,0,0,0,.3.7A1.153,1.153,0,0,0,36.188-1.57Zm10.125-.766a.727.727,0,0,0-.41-.652,4.659,4.659,0,0,0-1.316-.426Q41.57-4.047,41.57-5.977A2.323,2.323,0,0,1,42.5-7.855a3.766,3.766,0,0,1,2.441-.754,4.053,4.053,0,0,1,2.574.758,2.388,2.388,0,0,1,.965,1.969H46.227a1.092,1.092,0,0,0-.312-.8A1.322,1.322,0,0,0,44.938-7a1.351,1.351,0,0,0-.883.258.814.814,0,0,0-.312.656.7.7,0,0,0,.355.605,3.657,3.657,0,0,0,1.2.4,9.8,9.8,0,0,1,1.422.379A2.336,2.336,0,0,1,48.508-2.43a2.2,2.2,0,0,1-.992,1.871,4.28,4.28,0,0,1-2.562.715,4.47,4.47,0,0,1-1.887-.379,3.166,3.166,0,0,1-1.293-1.039A2.414,2.414,0,0,1,41.3-2.687h2.141a1.179,1.179,0,0,0,.445.922A1.766,1.766,0,0,0,45-1.445a1.635,1.635,0,0,0,.98-.246A.766.766,0,0,0,46.313-2.336Zm4.234,5.188-1.18-.617.281-.508a4.059,4.059,0,0,0,.539-1.9v-1.75h1.906L52.086-.359a4.059,4.059,0,0,1-.437,1.75A4.486,4.486,0,0,1,50.547,2.852ZM-53.66,13.664a.727.727,0,0,0-.41-.652,4.659,4.659,0,0,0-1.316-.426q-3.016-.633-3.016-2.562a2.323,2.323,0,0,1,.934-1.879,3.766,3.766,0,0,1,2.441-.754,4.053,4.053,0,0,1,2.574.758,2.388,2.388,0,0,1,.965,1.969h-2.258a1.092,1.092,0,0,0-.312-.8A1.322,1.322,0,0,0-55.035,9a1.351,1.351,0,0,0-.883.258.814.814,0,0,0-.312.656.7.7,0,0,0,.355.605,3.657,3.657,0,0,0,1.2.4,9.8,9.8,0,0,1,1.422.379,2.336,2.336,0,0,1,1.789,2.273,2.2,2.2,0,0,1-.992,1.871,4.28,4.28,0,0,1-2.562.715,4.47,4.47,0,0,1-1.887-.379A3.166,3.166,0,0,1-58.2,14.738a2.414,2.414,0,0,1-.469-1.426h2.141a1.179,1.179,0,0,0,.445.922,1.766,1.766,0,0,0,1.109.32,1.635,1.635,0,0,0,.98-.246A.766.766,0,0,0-53.66,13.664ZM-47.629,16h-2.266V7.547h2.266Zm-2.4-10.641a1.112,1.112,0,0,1,.34-.836,1.277,1.277,0,0,1,.926-.328,1.28,1.28,0,0,1,.922.328,1.105,1.105,0,0,1,.344.836,1.108,1.108,0,0,1-.348.844,1.283,1.283,0,0,1-.918.328A1.283,1.283,0,0,1-49.68,6.2,1.108,1.108,0,0,1-50.027,5.359Zm3.93,6.352a4.954,4.954,0,0,1,.926-3.133,3,3,0,0,1,2.5-1.187,2.631,2.631,0,0,1,2.164.953l.094-.8h2.047v8.172a3.613,3.613,0,0,1-.5,1.93,3.236,3.236,0,0,1-1.418,1.25,4.985,4.985,0,0,1-2.141.43,4.635,4.635,0,0,1-1.812-.371A3.217,3.217,0,0,1-45.582,18l1-1.375a2.645,2.645,0,0,0,2.047.945,1.936,1.936,0,0,0,1.4-.48,1.8,1.8,0,0,0,.5-1.363v-.453a2.612,2.612,0,0,1-2.055.883,2.992,2.992,0,0,1-2.465-1.191A4.953,4.953,0,0,1-46.1,11.8Zm2.258.168a3.085,3.085,0,0,0,.461,1.8,1.466,1.466,0,0,0,1.266.653,1.568,1.568,0,0,0,1.477-.775V10A1.564,1.564,0,0,0-42.1,9.227a1.476,1.476,0,0,0-1.277.665A3.477,3.477,0,0,0-43.84,11.879Zm9.281-4.332.07.977a2.951,2.951,0,0,1,2.43-1.133,2.453,2.453,0,0,1,2,.789,3.682,3.682,0,0,1,.672,2.359V16h-2.258V10.594a1.465,1.465,0,0,0-.312-1.043A1.4,1.4,0,0,0-33,9.227a1.553,1.553,0,0,0-1.43.813V16h-2.258V7.547Zm6.531,4.148a5.013,5.013,0,0,1,.484-2.242A3.546,3.546,0,0,1-26.148,7.93a4.069,4.069,0,0,1,2.113-.539,3.849,3.849,0,0,1,2.793,1.047,4.2,4.2,0,0,1,1.207,2.844l.016.578a4.418,4.418,0,0,1-1.086,3.121,3.775,3.775,0,0,1-2.914,1.176,3.793,3.793,0,0,1-2.918-1.172,4.5,4.5,0,0,1-1.09-3.187Zm2.258.16a3.16,3.16,0,0,0,.453,1.843,1.5,1.5,0,0,0,1.3.638,1.5,1.5,0,0,0,1.281-.63,3.457,3.457,0,0,0,.461-2.015,3.128,3.128,0,0,0-.461-1.831,1.5,1.5,0,0,0-1.3-.649,1.474,1.474,0,0,0-1.281.646A3.516,3.516,0,0,0-25.77,11.856Zm11.719,1.808a.727.727,0,0,0-.41-.652,4.659,4.659,0,0,0-1.316-.426q-3.016-.633-3.016-2.562a2.323,2.323,0,0,1,.934-1.879,3.766,3.766,0,0,1,2.441-.754,4.053,4.053,0,0,1,2.574.758,2.388,2.388,0,0,1,.965,1.969h-2.258a1.092,1.092,0,0,0-.312-.8A1.322,1.322,0,0,0-15.426,9a1.351,1.351,0,0,0-.883.258.814.814,0,0,0-.312.656.7.7,0,0,0,.355.605,3.657,3.657,0,0,0,1.2.4,9.8,9.8,0,0,1,1.422.379,2.336,2.336,0,0,1,1.789,2.273,2.2,2.2,0,0,1-.992,1.871,4.28,4.28,0,0,1-2.562.715,4.47,4.47,0,0,1-1.887-.379,3.166,3.166,0,0,1-1.293-1.039,2.414,2.414,0,0,1-.469-1.426h2.141a1.179,1.179,0,0,0,.445.922,1.766,1.766,0,0,0,1.109.32,1.635,1.635,0,0,0,.98-.246A.766.766,0,0,0-14.051,13.664Zm4.234,5.188L-11,18.234l.281-.508a4.059,4.059,0,0,0,.539-1.9v-1.75H-8.27l-.008,1.563a4.059,4.059,0,0,1-.437,1.75A4.486,4.486,0,0,1-9.816,18.852Zm14.914-7a5.07,5.07,0,0,1-.887,3.129,2.843,2.843,0,0,1-2.395,1.176,2.633,2.633,0,0,1-2.07-.891V19.25H-2.512V7.547H-.418l.078.828A2.654,2.654,0,0,1,1.8,7.391,2.862,2.862,0,0,1,4.23,8.547,5.207,5.207,0,0,1,5.1,11.734ZM2.84,11.688a3.327,3.327,0,0,0-.418-1.82,1.361,1.361,0,0,0-1.215-.641,1.478,1.478,0,0,0-1.461.813V13.5a1.5,1.5,0,0,0,1.477.836Q2.84,14.336,2.84,11.688ZM11.395,16a2.507,2.507,0,0,1-.227-.758,2.732,2.732,0,0,1-2.133.914,3,3,0,0,1-2.059-.719,2.312,2.312,0,0,1-.816-1.812,2.389,2.389,0,0,1,1-2.062,4.915,4.915,0,0,1,2.879-.727h1.039v-.484a1.393,1.393,0,0,0-.3-.937,1.183,1.183,0,0,0-.949-.352,1.345,1.345,0,0,0-.895.273.929.929,0,0,0-.324.75H6.348A2.268,2.268,0,0,1,6.8,8.727a3,3,0,0,1,1.281-.98,4.669,4.669,0,0,1,1.859-.355,3.689,3.689,0,0,1,2.48.785,2.747,2.747,0,0,1,.918,2.207v3.664a4.041,4.041,0,0,0,.336,1.82V16ZM9.527,14.43a1.945,1.945,0,0,0,.922-.223,1.462,1.462,0,0,0,.625-.6V12.156H10.23q-1.7,0-1.8,1.172l-.008.133a.9.9,0,0,0,.3.7A1.153,1.153,0,0,0,9.527,14.43ZM17.457,16H15.191V4h2.266Zm6.758,0a2.507,2.507,0,0,1-.227-.758,2.732,2.732,0,0,1-2.133.914,3,3,0,0,1-2.059-.719,2.312,2.312,0,0,1-.816-1.812,2.389,2.389,0,0,1,1-2.062,4.915,4.915,0,0,1,2.879-.727h1.039v-.484a1.393,1.393,0,0,0-.3-.937,1.183,1.183,0,0,0-.949-.352,1.345,1.345,0,0,0-.895.273.929.929,0,0,0-.324.75H19.168a2.268,2.268,0,0,1,.453-1.359,3,3,0,0,1,1.281-.98,4.669,4.669,0,0,1,1.859-.355,3.689,3.689,0,0,1,2.48.785,2.747,2.747,0,0,1,.918,2.207v3.664a4.041,4.041,0,0,0,.336,1.82V16Zm-1.867-1.57a1.945,1.945,0,0,0,.922-.223,1.462,1.462,0,0,0,.625-.6V12.156h-.844q-1.7,0-1.8,1.172l-.008.133a.9.9,0,0,0,.3.7A1.153,1.153,0,0,0,22.348,14.43Zm13.164-2.578a5.119,5.119,0,0,1-.867,3.168,2.872,2.872,0,0,1-2.422,1.137,2.639,2.639,0,0,1-2.2-1.055l-.1.9H27.895V4h2.258V8.3a2.571,2.571,0,0,1,2.055-.914,2.9,2.9,0,0,1,2.426,1.137,5.126,5.126,0,0,1,.879,3.2Zm-2.258-.164a3.363,3.363,0,0,0-.406-1.871,1.374,1.374,0,0,0-1.211-.59,1.489,1.489,0,0,0-1.484.883v3.336a1.509,1.509,0,0,0,1.5.891,1.394,1.394,0,0,0,1.438-1.078A5.562,5.562,0,0,0,33.254,11.688Zm8.4-2.023A6.134,6.134,0,0,0,40.84,9.6a1.654,1.654,0,0,0-1.68.867V16H36.9V7.547h2.133L39.1,8.555A2.092,2.092,0,0,1,40.98,7.391a2.366,2.366,0,0,1,.7.1ZM47.4,16a2.507,2.507,0,0,1-.227-.758,2.732,2.732,0,0,1-2.133.914,3,3,0,0,1-2.059-.719,2.312,2.312,0,0,1-.816-1.812,2.389,2.389,0,0,1,1-2.062,4.915,4.915,0,0,1,2.879-.727h1.039v-.484a1.393,1.393,0,0,0-.3-.937,1.183,1.183,0,0,0-.949-.352,1.345,1.345,0,0,0-.895.273.929.929,0,0,0-.324.75H42.355a2.268,2.268,0,0,1,.453-1.359,3,3,0,0,1,1.281-.98,4.669,4.669,0,0,1,1.859-.355,3.689,3.689,0,0,1,2.48.785,2.747,2.747,0,0,1,.918,2.207v3.664a4.041,4.041,0,0,0,.336,1.82V16Zm-1.867-1.57a1.945,1.945,0,0,0,.922-.223,1.462,1.462,0,0,0,.625-.6V12.156h-.844q-1.7,0-1.8,1.172l-.008.133a.9.9,0,0,0,.3.7A1.153,1.153,0,0,0,45.535,14.43Zm10.125-.766a.727.727,0,0,0-.41-.652,4.659,4.659,0,0,0-1.316-.426q-3.016-.633-3.016-2.562a2.323,2.323,0,0,1,.934-1.879,3.766,3.766,0,0,1,2.441-.754,4.053,4.053,0,0,1,2.574.758,2.388,2.388,0,0,1,.965,1.969H55.574a1.092,1.092,0,0,0-.312-.8A1.322,1.322,0,0,0,54.285,9a1.351,1.351,0,0,0-.883.258.814.814,0,0,0-.312.656.7.7,0,0,0,.355.605,3.657,3.657,0,0,0,1.2.4,9.8,9.8,0,0,1,1.422.379,2.336,2.336,0,0,1,1.789,2.273,2.2,2.2,0,0,1-.992,1.871,4.28,4.28,0,0,1-2.562.715,4.47,4.47,0,0,1-1.887-.379,3.166,3.166,0,0,1-1.293-1.039,2.414,2.414,0,0,1-.469-1.426h2.141a1.179,1.179,0,0,0,.445.922,1.766,1.766,0,0,0,1.109.32,1.635,1.635,0,0,0,.98-.246A.766.766,0,0,0,55.66,13.664Zm3.766,1.227a1.137,1.137,0,0,1,.363-.875,1.412,1.412,0,0,1,1.828,0,1.137,1.137,0,0,1,.363.875,1.121,1.121,0,0,1-.359.863,1.435,1.435,0,0,1-1.836,0A1.121,1.121,0,0,1,59.426,14.891Z" transform="translate(22052 -10261)" fill="#12263f"/>
      <path id="Trazado_819151" data-name="Trazado 819151" d="M-48.027-3.789A4.025,4.025,0,0,1-49.383-.9,4.76,4.76,0,0,1-52.605.156a4.28,4.28,0,0,1-3.441-1.473A6.038,6.038,0,0,1-57.3-5.359v-.7a6.819,6.819,0,0,1,.578-2.891,4.332,4.332,0,0,1,1.652-1.918,4.629,4.629,0,0,1,2.5-.668A4.637,4.637,0,0,1-49.4-10.477a4.326,4.326,0,0,1,1.391,2.961h-2.344a2.376,2.376,0,0,0-.613-1.6,2.271,2.271,0,0,0-1.605-.5,1.991,1.991,0,0,0-1.754.84,4.707,4.707,0,0,0-.6,2.605V-5.3a5.038,5.038,0,0,0,.559,2.7,1.954,1.954,0,0,0,1.762.852,2.314,2.314,0,0,0,1.621-.5,2.241,2.241,0,0,0,.613-1.535ZM-41.738,0a2.507,2.507,0,0,1-.227-.758A2.732,2.732,0,0,1-44.1.156a3,3,0,0,1-2.059-.719,2.312,2.312,0,0,1-.816-1.812,2.389,2.389,0,0,1,1-2.062A4.915,4.915,0,0,1-43.1-5.164h1.039v-.484a1.393,1.393,0,0,0-.3-.937,1.183,1.183,0,0,0-.949-.352,1.345,1.345,0,0,0-.895.273.929.929,0,0,0-.324.75h-2.258a2.268,2.268,0,0,1,.453-1.359,3,3,0,0,1,1.281-.98,4.669,4.669,0,0,1,1.859-.355,3.689,3.689,0,0,1,2.48.785,2.747,2.747,0,0,1,.918,2.207v3.664a4.041,4.041,0,0,0,.336,1.82V0Zm-1.867-1.57a1.945,1.945,0,0,0,.922-.223,1.462,1.462,0,0,0,.625-.6V-3.844H-42.9q-1.7,0-1.8,1.172l-.008.133a.9.9,0,0,0,.3.7A1.153,1.153,0,0,0-43.605-1.57Zm7.625-6.883.07.977a2.951,2.951,0,0,1,2.43-1.133,2.453,2.453,0,0,1,2,.789,3.682,3.682,0,0,1,.672,2.359V0h-2.258V-5.406a1.465,1.465,0,0,0-.312-1.043,1.4,1.4,0,0,0-1.039-.324,1.553,1.553,0,0,0-1.43.813V0h-2.258V-8.453ZM-24.2,0a2.507,2.507,0,0,1-.227-.758,2.732,2.732,0,0,1-2.133.914,3,3,0,0,1-2.059-.719,2.312,2.312,0,0,1-.816-1.812,2.389,2.389,0,0,1,1-2.062,4.915,4.915,0,0,1,2.879-.727h1.039v-.484a1.393,1.393,0,0,0-.3-.937,1.183,1.183,0,0,0-.949-.352,1.345,1.345,0,0,0-.895.273.929.929,0,0,0-.324.75h-2.258a2.268,2.268,0,0,1,.453-1.359,3,3,0,0,1,1.281-.98,4.669,4.669,0,0,1,1.859-.355,3.689,3.689,0,0,1,2.48.785,2.747,2.747,0,0,1,.918,2.207v3.664a4.041,4.041,0,0,0,.336,1.82V0Zm-1.867-1.57a1.945,1.945,0,0,0,.922-.223,1.462,1.462,0,0,0,.625-.6V-3.844h-.844q-1.7,0-1.8,1.172l-.008.133a.9.9,0,0,0,.3.7A1.153,1.153,0,0,0-26.066-1.57ZM-18.137,0H-20.4V-12h2.266Zm1.969-1.109a1.137,1.137,0,0,1,.363-.875,1.289,1.289,0,0,1,.91-.336,1.3,1.3,0,0,1,.918.336,1.137,1.137,0,0,1,.363.875,1.121,1.121,0,0,1-.359.863,1.305,1.305,0,0,1-.922.332,1.294,1.294,0,0,1-.914-.332A1.121,1.121,0,0,1-16.168-1.109Zm0-6.4a1.137,1.137,0,0,1,.363-.875,1.289,1.289,0,0,1,.91-.336,1.3,1.3,0,0,1,.918.336,1.137,1.137,0,0,1,.363.875,1.121,1.121,0,0,1-.359.863,1.305,1.305,0,0,1-.922.332,1.294,1.294,0,0,1-.914-.332A1.121,1.121,0,0,1-16.168-7.508ZM.465-9.477H-3.02V0H-5.363V-9.477H-8.8v-1.9H.465ZM6.129-2.82l2.578-8.555h2.609L7.355,0H4.91L.965-11.375h2.6Zm5.016,5.672-1.18-.617.281-.508a4.059,4.059,0,0,0,.539-1.9v-1.75h1.906L12.684-.359a4.059,4.059,0,0,1-.437,1.75A4.486,4.486,0,0,1,11.145,2.852ZM23.2-6.336a6.134,6.134,0,0,0-.812-.062,1.654,1.654,0,0,0-1.68.867V0H18.449V-8.453h2.133l.063,1.008a2.092,2.092,0,0,1,1.883-1.164,2.366,2.366,0,0,1,.7.1ZM28.949,0a2.507,2.507,0,0,1-.227-.758A2.732,2.732,0,0,1,26.59.156a3,3,0,0,1-2.059-.719,2.312,2.312,0,0,1-.816-1.812,2.389,2.389,0,0,1,1-2.062,4.915,4.915,0,0,1,2.879-.727h1.039v-.484a1.393,1.393,0,0,0-.3-.937,1.183,1.183,0,0,0-.949-.352,1.345,1.345,0,0,0-.895.273.929.929,0,0,0-.324.75H23.9a2.268,2.268,0,0,1,.453-1.359,3,3,0,0,1,1.281-.98A4.669,4.669,0,0,1,27.5-8.609a3.689,3.689,0,0,1,2.48.785,2.747,2.747,0,0,1,.918,2.207v3.664a4.041,4.041,0,0,0,.336,1.82V0ZM27.082-1.57A1.945,1.945,0,0,0,28-1.793a1.462,1.462,0,0,0,.625-.6V-3.844h-.844q-1.7,0-1.8,1.172l-.008.133a.9.9,0,0,0,.3.7A1.153,1.153,0,0,0,27.082-1.57Zm5.2-2.719a5.094,5.094,0,0,1,.887-3.148A2.877,2.877,0,0,1,35.59-8.609a2.589,2.589,0,0,1,2.039.922V-12h2.266V0H37.855l-.109-.9A2.657,2.657,0,0,1,35.574.156,2.869,2.869,0,0,1,33.18-1.02,5.258,5.258,0,0,1,32.277-4.289Zm2.258.168A3.337,3.337,0,0,0,34.949-2.3a1.349,1.349,0,0,0,1.2.634,1.511,1.511,0,0,0,1.477-.884V-5.889a1.489,1.489,0,0,0-1.461-.884Q34.535-6.773,34.535-4.121ZM44.027,0H41.762V-8.453h2.266Zm-2.4-10.641a1.112,1.112,0,0,1,.34-.836,1.277,1.277,0,0,1,.926-.328,1.28,1.28,0,0,1,.922.328,1.105,1.105,0,0,1,.344.836,1.108,1.108,0,0,1-.348.844,1.283,1.283,0,0,1-.918.328,1.283,1.283,0,0,1-.918-.328A1.108,1.108,0,0,1,41.629-10.641ZM45.535-4.3a5.013,5.013,0,0,1,.484-2.242A3.546,3.546,0,0,1,47.414-8.07a4.069,4.069,0,0,1,2.113-.539A3.849,3.849,0,0,1,52.32-7.562a4.2,4.2,0,0,1,1.207,2.844l.016.578A4.418,4.418,0,0,1,52.457-1.02,3.775,3.775,0,0,1,49.543.156a3.793,3.793,0,0,1-2.918-1.172A4.5,4.5,0,0,1,45.535-4.2Zm2.258.16A3.16,3.16,0,0,0,48.246-2.3a1.5,1.5,0,0,0,1.3.638,1.5,1.5,0,0,0,1.281-.63,3.457,3.457,0,0,0,.461-2.015,3.128,3.128,0,0,0-.461-1.831,1.5,1.5,0,0,0-1.3-.649,1.474,1.474,0,0,0-1.281.646A3.516,3.516,0,0,0,47.793-4.144Zm7.727,7-1.18-.617.281-.508a4.059,4.059,0,0,0,.539-1.9v-1.75h1.906L57.059-.359a4.059,4.059,0,0,1-.437,1.75A4.486,4.486,0,0,1,55.52,2.852ZM-58.309,13.242l1.57-5.7h2.359L-57.23,16h-2.156l-2.852-8.453h2.359Zm4.453-1.547a5.013,5.013,0,0,1,.484-2.242A3.546,3.546,0,0,1-51.977,7.93a4.069,4.069,0,0,1,2.113-.539A3.849,3.849,0,0,1-47.07,8.438a4.2,4.2,0,0,1,1.207,2.844l.016.578a4.418,4.418,0,0,1-1.086,3.121,3.775,3.775,0,0,1-2.914,1.176,3.793,3.793,0,0,1-2.918-1.172,4.5,4.5,0,0,1-1.09-3.187Zm2.258.16a3.16,3.16,0,0,0,.453,1.843,1.5,1.5,0,0,0,1.3.638,1.5,1.5,0,0,0,1.281-.63,3.457,3.457,0,0,0,.461-2.015,3.128,3.128,0,0,0-.461-1.831,1.5,1.5,0,0,0-1.3-.649,1.474,1.474,0,0,0-1.281.646A3.516,3.516,0,0,0-51.6,11.856Zm9.609,2.324h4.133V16h-7.016V14.625l3.977-5.258h-3.859V7.547h6.773v1.33ZM-27.559,16a2.507,2.507,0,0,1-.227-.758,2.732,2.732,0,0,1-2.133.914,3,3,0,0,1-2.059-.719,2.312,2.312,0,0,1-.816-1.812,2.389,2.389,0,0,1,1-2.062,4.915,4.915,0,0,1,2.879-.727h1.039v-.484a1.393,1.393,0,0,0-.3-.937,1.183,1.183,0,0,0-.949-.352,1.345,1.345,0,0,0-.895.273.929.929,0,0,0-.324.75h-2.258a2.268,2.268,0,0,1,.453-1.359,3,3,0,0,1,1.281-.98,4.669,4.669,0,0,1,1.859-.355,3.689,3.689,0,0,1,2.48.785,2.747,2.747,0,0,1,.918,2.207v3.664a4.041,4.041,0,0,0,.336,1.82V16Zm-1.867-1.57a1.945,1.945,0,0,0,.922-.223,1.462,1.462,0,0,0,.625-.6V12.156h-.844q-1.7,0-1.8,1.172l-.008.133a.9.9,0,0,0,.3.7A1.153,1.153,0,0,0-29.426,14.43Zm12.7-1.187,1.57-5.7H-12.8L-15.652,16h-2.156L-20.66,7.547H-18.3Zm4.453-1.547a5.013,5.013,0,0,1,.484-2.242A3.546,3.546,0,0,1-10.4,7.93a4.069,4.069,0,0,1,2.113-.539A3.849,3.849,0,0,1-5.492,8.438a4.2,4.2,0,0,1,1.207,2.844l.016.578A4.418,4.418,0,0,1-5.355,14.98,3.775,3.775,0,0,1-8.27,16.156a3.793,3.793,0,0,1-2.918-1.172,4.5,4.5,0,0,1-1.09-3.187Zm2.258.16A3.16,3.16,0,0,0-9.566,13.7a1.5,1.5,0,0,0,1.3.638,1.5,1.5,0,0,0,1.281-.63,3.457,3.457,0,0,0,.461-2.015A3.128,3.128,0,0,0-6.988,9.86a1.5,1.5,0,0,0-1.3-.649,1.474,1.474,0,0,0-1.281.646A3.516,3.516,0,0,0-10.02,11.856ZM-.41,14.18H3.723V16H-3.293V14.625L.684,9.367H-3.176V7.547H3.6v1.33Zm6.133,4.672-1.18-.617.281-.508a4.059,4.059,0,0,0,.539-1.9v-1.75H7.27l-.008,1.563a4.059,4.059,0,0,1-.437,1.75A4.486,4.486,0,0,1,5.723,18.852Zm11.2-2.7a4.15,4.15,0,0,1-3.027-1.141,4.054,4.054,0,0,1-1.168-3.039v-.219a5.106,5.106,0,0,1,.492-2.277,3.612,3.612,0,0,1,1.395-1.547,3.914,3.914,0,0,1,2.059-.543A3.508,3.508,0,0,1,19.4,8.484a4.444,4.444,0,0,1,1,3.1v.922H15.012a2.1,2.1,0,0,0,.66,1.328,2,2,0,0,0,1.395.5,2.437,2.437,0,0,0,2.039-.945l1.109,1.242a3.389,3.389,0,0,1-1.375,1.121A4.511,4.511,0,0,1,16.918,16.156ZM16.66,9.211a1.411,1.411,0,0,0-1.09.455,2.357,2.357,0,0,0-.535,1.3h3.141v-.181a1.681,1.681,0,0,0-.406-1.165A1.456,1.456,0,0,0,16.66,9.211Zm9.594,4.453a.727.727,0,0,0-.41-.652,4.659,4.659,0,0,0-1.316-.426q-3.016-.633-3.016-2.562a2.323,2.323,0,0,1,.934-1.879,3.766,3.766,0,0,1,2.441-.754,4.053,4.053,0,0,1,2.574.758,2.388,2.388,0,0,1,.965,1.969H26.168a1.092,1.092,0,0,0-.312-.8A1.322,1.322,0,0,0,24.879,9,1.351,1.351,0,0,0,24,9.258a.814.814,0,0,0-.312.656.7.7,0,0,0,.355.605,3.657,3.657,0,0,0,1.2.4,9.8,9.8,0,0,1,1.422.379,2.336,2.336,0,0,1,1.789,2.273,2.2,2.2,0,0,1-.992,1.871,4.28,4.28,0,0,1-2.562.715,4.47,4.47,0,0,1-1.887-.379,3.166,3.166,0,0,1-1.293-1.039,2.414,2.414,0,0,1-.469-1.426h2.141a1.179,1.179,0,0,0,.445.922,1.766,1.766,0,0,0,1.109.32,1.635,1.635,0,0,0,.98-.246A.766.766,0,0,0,26.254,13.664Zm7.164.672a1.481,1.481,0,0,0,1.016-.344,1.2,1.2,0,0,0,.406-.914h2.117a2.9,2.9,0,0,1-.469,1.574,3.093,3.093,0,0,1-1.262,1.109,3.949,3.949,0,0,1-1.77.395A3.67,3.67,0,0,1,30.6,15a4.56,4.56,0,0,1-1.047-3.184v-.148A4.508,4.508,0,0,1,30.59,8.555a3.627,3.627,0,0,1,2.852-1.164,3.555,3.555,0,0,1,2.543.9,3.2,3.2,0,0,1,.973,2.4H34.84a1.551,1.551,0,0,0-.406-1.072,1.51,1.51,0,0,0-2.223.163,3.333,3.333,0,0,0-.4,1.866v.235a3.375,3.375,0,0,0,.4,1.878A1.377,1.377,0,0,0,33.418,14.336ZM43,9.664a6.134,6.134,0,0,0-.812-.062,1.654,1.654,0,0,0-1.68.867V16H38.246V7.547h2.133l.063,1.008a2.092,2.092,0,0,1,1.883-1.164,2.366,2.366,0,0,1,.7.1ZM46.465,16H44.2V7.547h2.266Zm-2.4-10.641a1.112,1.112,0,0,1,.34-.836,1.465,1.465,0,0,1,1.848,0,1.105,1.105,0,0,1,.344.836,1.108,1.108,0,0,1-.348.844,1.448,1.448,0,0,1-1.836,0A1.108,1.108,0,0,1,44.066,5.359Zm6.961.109V7.547h1.445V9.2H51.027v4.219a1.007,1.007,0,0,0,.18.672.9.9,0,0,0,.688.2,3.6,3.6,0,0,0,.664-.055v1.711a4.648,4.648,0,0,1-1.367.2,2.156,2.156,0,0,1-2.422-2.4V9.2H47.535V7.547H48.77V5.469ZM53.145,11.7a5.013,5.013,0,0,1,.484-2.242A3.546,3.546,0,0,1,55.023,7.93a4.069,4.069,0,0,1,2.113-.539A3.849,3.849,0,0,1,59.93,8.438a4.2,4.2,0,0,1,1.207,2.844l.016.578a4.418,4.418,0,0,1-1.086,3.121,4.209,4.209,0,0,1-5.832,0,4.5,4.5,0,0,1-1.09-3.187Zm2.258.16a3.16,3.16,0,0,0,.453,1.843,1.628,1.628,0,0,0,2.578.008,3.457,3.457,0,0,0,.461-2.015,3.128,3.128,0,0,0-.461-1.831,1.5,1.5,0,0,0-1.3-.649,1.474,1.474,0,0,0-1.281.646A3.516,3.516,0,0,0,55.4,11.856Zm7.258,3.035a1.137,1.137,0,0,1,.363-.875,1.412,1.412,0,0,1,1.828,0,1.137,1.137,0,0,1,.363.875,1.121,1.121,0,0,1-.359.863,1.435,1.435,0,0,1-1.836,0A1.121,1.121,0,0,1,62.66,14.891Z" transform="translate(21728 -10262)" fill="#12263f"/>
    </g>
  </g>
</svg>
