<svg id="Grupo_1071927" data-name="Grupo 1071927" xmlns="http://www.w3.org/2000/svg" xmlns:xlink="http://www.w3.org/1999/xlink" width="131.617" height="134.805" viewBox="0 0 131.617 134.805">
  <defs>
    <clipPath id="clip-path">
      <rect id="Rectángulo_376483" data-name="Rectángulo 376483" width="131.617" height="134.805" fill="none"/>
    </clipPath>
  </defs>
  <g id="Grupo_1071926" data-name="Grupo 1071926" clip-path="url(#clip-path)">
    <path id="Trazado_816282" data-name="Trazado 816282" d="M103.105,108.24c.6,1.762.282,2.218-.87,3.1-2.158,1.647-4.226,3.412-6.461,4.956a26.648,26.648,0,0,1-9.355,4.358,27.714,27.714,0,0,1-3.3.5,49.019,49.019,0,0,1-6.484.134c-.068-.2-.152-.19-.248-.02a47.086,47.086,0,0,1-5.1-.135,56.8,56.8,0,0,0-6.051.034,86.142,86.142,0,0,1-9.121.085,23.544,23.544,0,0,1-6.586-1.285,22.757,22.757,0,0,1-3.587-1.543,51.658,51.658,0,0,1-6.778-4.705c-1.207-.983-2.449-1.922-3.654-2.907a1.2,1.2,0,0,0-1.2-.232,12.328,12.328,0,0,1-3.443.542,6.869,6.869,0,0,1-2.8-.59,1.365,1.365,0,0,0-1.528.048,8.382,8.382,0,0,1-3.515,1.091,5.01,5.01,0,0,0-4.33,3.38,15.83,15.83,0,0,0-.489,2.263,8.2,8.2,0,0,1-5.749,6.462c-1.11.394-2.322.368-3.434.78a4.364,4.364,0,0,0-2.967,3.483c-.37,1.964-.679,3.946-2.083,5.529a3.2,3.2,0,0,1-1.862,1.222,1,1,0,0,1-.612-.076c-1.618-.7-2-2-.787-3.253,1.164-1.209,1.248-2.733,1.53-4.2A8.639,8.639,0,0,1,8.975,120.5c.731-.156,1.491-.2,2.215-.414a4.461,4.461,0,0,0,3.332-4.06c.441-4.175,3.047-7.41,7.318-8.061.6-.091,1.181-.262,1.777-.352.531-.079.731-.214.443-.8a6.288,6.288,0,0,1-.826-3.531,1.785,1.785,0,0,0-.793-1.816,24.986,24.986,0,0,1-7.086-10.394,60.686,60.686,0,0,1-2.065-6.692c-.487-1.9-1.077-3.786-1.7-5.651q-1.056-3.139-2.3-6.215a38.32,38.32,0,0,1-2.256-8,25.173,25.173,0,0,1-.173-6.148A25.528,25.528,0,0,1,8,52.69c1.047-3.332,2.407-6.555,3.537-9.858.729-2.13,1.3-4.315,1.91-6.486,1.193-4.283,2.532-8.5,5.136-12.189a31.1,31.1,0,0,1,7.261-6.9c1.661-1.221,3.381-2.347,5.119-3.453A82.843,82.843,0,0,0,38.53,8.121a49.773,49.773,0,0,1,7.857-5.367A23.432,23.432,0,0,1,53.4.441,32.679,32.679,0,0,1,57.724.025,60.3,60.3,0,0,1,64.714.3c1.091.081,1.476.946,1.788,1.835-.323,1.536-1.094,2.122-2.981,2.132-.53,0-1.026-.156-1.552-.164a53.836,53.836,0,0,0-6.361.126,22.047,22.047,0,0,0-4.594.894A26.7,26.7,0,0,0,43.364,9.4c-3.3,2.469-6.419,5.174-9.85,7.471-2.458,1.646-4.946,3.245-7.309,5.033a20.436,20.436,0,0,0-6.7,8.61A77.9,77.9,0,0,0,16.7,39.33a113.211,113.211,0,0,1-3.68,10.8,35.291,35.291,0,0,0-2.288,9.1,19.133,19.133,0,0,0,.567,6.465,38.327,38.327,0,0,0,1.468,4.752,132.932,132.932,0,0,1,4.382,13.125,42.392,42.392,0,0,0,3.426,9.412,18.355,18.355,0,0,0,3.338,4.575c.378.366.615.372.9-.082.232-.375.389-.783.624-1.163a18.881,18.881,0,0,1,3.476-4.087c.359-.322.38-.554.089-.93-.926-1.2-1.772-2.45-2.577-3.731a51.208,51.208,0,0,1-7.7-23.471,43.821,43.821,0,0,1,.239-9.225c.212-1.624.417-3.246.772-4.85a50.7,50.7,0,0,1,7.281-17.153A50.525,50.525,0,0,1,58.153,11.408a54.831,54.831,0,0,1,9.223-1.245,47.409,47.409,0,0,1,7.7.36,51.135,51.135,0,0,1,5.585.953c1.08.247,2.15.544,3.212.861,1,.3,1.985.6,2.963.974a51.632,51.632,0,0,1,16.7,10.345,50.213,50.213,0,0,1,12.99,19.284,53.45,53.45,0,0,1,2.16,7.475,54.32,54.32,0,0,1,1.007,7.492,41.068,41.068,0,0,1-.26,8.5,53.167,53.167,0,0,1-.989,5.693,51.622,51.622,0,0,1-1.6,5.655A52.076,52.076,0,0,1,105,96.342a23.717,23.717,0,0,1-2.607,2.326c-.892.68-1.7,1.467-2.583,2.161a24.149,24.149,0,0,1-2.292,1.7c-1.05.64-2.065,1.337-3.125,1.962s-2.131,1.2-3.213,1.749c-.648.329-1.371.6-2.065.879a52.646,52.646,0,0,1-6.02,2.21c-1.744.464-3.5.868-5.273,1.194a51.182,51.182,0,0,1-8.671.753c-1.7.02-3.391-.1-5.085-.238a40,40,0,0,1-5.388-.811,54.571,54.571,0,0,1-8.313-2.548,45.6,45.6,0,0,1-6.649-3.306c-.369-.222-.517-.108-.739.168a16.88,16.88,0,0,1-3.727,3.594c-.367.245-.356.4-.02.669,1.871,1.487,3.727,2.991,5.681,4.371A21.088,21.088,0,0,0,56,117.282c1.878.106,3.77.031,5.655.032,2.251,0,4.489-.206,6.735-.266,2.315-.063,4.617.249,6.934.178,1.453-.044,2.909.092,4.368.079a36.048,36.048,0,0,0,4.547-.242c4.481-.608,8.074-3.036,11.59-5.608,1.495-1.094,2.919-2.286,4.344-3.471a2.256,2.256,0,0,1,2.935.257m-32.683-1.017a36.343,36.343,0,0,0,6.589-.558c1.032-.169,2.019-.51,3.038-.735a41.824,41.824,0,0,0,7.451-2.485,50.038,50.038,0,0,0,15.651-10.822,25.767,25.767,0,0,0,1.95-2.3,47.035,47.035,0,0,0,9.761-20.971,58.111,58.111,0,0,0,.877-7.82,34.4,34.4,0,0,0-.246-5.09q-.3-2.81-.764-5.593a35.088,35.088,0,0,0-1.2-4.485,37.607,37.607,0,0,0-3.36-7.8A49.309,49.309,0,0,0,95.453,22.255,46.673,46.673,0,0,0,80.863,15.7a36.357,36.357,0,0,0-5.74-1.1c-1.543-.159-3.085-.382-4.632-.476a35.465,35.465,0,0,0-5.348.225,48.3,48.3,0,0,0-8.742,1.6A46.988,46.988,0,0,0,36.446,27.548a45.153,45.153,0,0,0-9.854,14.407,51.667,51.667,0,0,0-2.4,6.773c-.423,1.456-.639,2.948-.966,4.42a25.765,25.765,0,0,0-.528,4.819,54.055,54.055,0,0,0,.074,6.163,43.486,43.486,0,0,0,.582,4.757,47.216,47.216,0,0,0,2.617,8.986,47.973,47.973,0,0,0,2.939,6.206c1.048,1.761,2.259,3.425,3.388,5.139.21.319.437.324.753.175a12.049,12.049,0,0,1,4.269-1.268,5.723,5.723,0,0,1,1.731-.086c.8.173,1.588.314,2.382.547a6.678,6.678,0,0,1,3.807,2.9A8.2,8.2,0,0,1,46.348,96.6a9.925,9.925,0,0,1-.892,3.526c-.245.538-.018.7.362.89,1.105.553,2.205,1.119,3.317,1.659a39.415,39.415,0,0,0,7.619,2.905,60.841,60.841,0,0,0,6.316,1.259,32.2,32.2,0,0,0,3.89.416,24.44,24.44,0,0,0,3.462-.032M37.89,92.041a7.468,7.468,0,0,0-3.068.88,14.075,14.075,0,0,0-6.175,5.753,7.971,7.971,0,0,0-1.241,5.6,3.442,3.442,0,0,0,2.806,2.779,6.1,6.1,0,0,0,2.8-.255,11.849,11.849,0,0,0,5.753-3.551,12.51,12.51,0,0,0,3.426-5.933,4.776,4.776,0,0,0-.182-3.331c-.729-1.485-2.053-1.9-4.119-1.939" transform="translate(0 0)" fill="#131415"/>
    <path id="Trazado_816283" data-name="Trazado 816283" d="M112.613,110.021a2.257,2.257,0,0,0-2.935-.258c-1.424,1.185-2.849,2.378-4.344,3.471-3.516,2.572-7.108,5-11.59,5.608a36.05,36.05,0,0,1-4.548.243c-1.459.013-2.915-.123-4.367-.079-2.318.071-4.619-.241-6.934-.178-2.246.061-4.484.267-6.734.266-1.885,0-3.778.074-5.656-.032a21.077,21.077,0,0,1-11.083-4.111c-1.954-1.379-3.809-2.884-5.681-4.371-.337-.267-.347-.424.02-.669a16.9,16.9,0,0,0,3.727-3.593c.221-.276.369-.39.739-.169a45.5,45.5,0,0,0,6.65,3.306A54.5,54.5,0,0,0,68.188,112a40.127,40.127,0,0,0,5.389.811c1.695.142,3.384.258,5.084.238a51.122,51.122,0,0,0,8.671-.753c1.779-.326,3.529-.73,5.274-1.194a52.679,52.679,0,0,0,6.02-2.21c.694-.278,1.416-.55,2.064-.88,1.082-.549,2.161-1.129,3.213-1.749s2.075-1.321,3.125-1.961a24.144,24.144,0,0,0,2.291-1.7c.882-.695,1.692-1.482,2.583-2.161a23.619,23.619,0,0,0,2.607-2.326,52.091,52.091,0,0,0,11.842-18.589,51.917,51.917,0,0,0,1.6-5.655,53.039,53.039,0,0,0,.99-5.693,41.067,41.067,0,0,0,.26-8.5,54.228,54.228,0,0,0-1.007-7.492,53.356,53.356,0,0,0-2.16-7.475,50.211,50.211,0,0,0-12.99-19.284,51.627,51.627,0,0,0-16.7-10.345c-.978-.375-1.967-.677-2.963-.974-1.062-.318-2.133-.614-3.213-.862a51.262,51.262,0,0,0-5.585-.953,47.466,47.466,0,0,0-7.7-.359A54.86,54.86,0,0,0,67.66,13.19,50.533,50.533,0,0,0,36.521,34.647,50.684,50.684,0,0,0,29.24,51.8c-.356,1.6-.56,3.225-.773,4.85a43.816,43.816,0,0,0-.238,9.225,51.208,51.208,0,0,0,7.7,23.471c.806,1.281,1.652,2.535,2.578,3.731.291.376.27.607-.09.93a18.864,18.864,0,0,0-3.475,4.087c-.236.379-.393.788-.625,1.162-.28.455-.518.449-.9.083a18.355,18.355,0,0,1-3.338-4.575,42.411,42.411,0,0,1-3.426-9.412,132.84,132.84,0,0,0-4.382-13.125A38.448,38.448,0,0,1,20.8,67.475a19.15,19.15,0,0,1-.566-6.465,35.27,35.27,0,0,1,2.287-9.1,113.113,113.113,0,0,0,3.68-10.8,77.868,77.868,0,0,1,2.808-8.818,20.429,20.429,0,0,1,6.7-8.61c2.362-1.788,4.85-3.387,7.308-5.034,3.431-2.3,6.551-5,9.85-7.47a26.7,26.7,0,0,1,7.651-4.275,22,22,0,0,1,4.593-.894,53.723,53.723,0,0,1,6.361-.126c.526.007,1.022.166,1.552.164,1.887-.01,2.657-.6,2.981-2.132a17.238,17.238,0,0,0,2.057.137,9.072,9.072,0,0,1,1.105-.008.507.507,0,0,0,.542-.27c.186.473.085,1.024.427,1.459a2.254,2.254,0,0,0,1.973.794c2.009-.051,4.016-.137,6.024-.2a29.92,29.92,0,0,1,6.688.557,21.845,21.845,0,0,1,7.793,3.5c2.58,1.706,4.985,3.643,7.406,5.561,3.059,2.424,6.347,4.53,9.554,6.748a28.493,28.493,0,0,1,5.892,5.114,24.605,24.605,0,0,1,4.372,9.034c1.248,4.257,2.373,8.55,3.959,12.7a46.366,46.366,0,0,1,3.084,10.392A22.445,22.445,0,0,1,136.9,65.5a34.581,34.581,0,0,1-1.957,7.136c-1.483,4.041-3,8.07-4.125,12.232a56.208,56.208,0,0,1-2.857,8.641,18.147,18.147,0,0,1-3.282,4.991,41.959,41.959,0,0,1-7.756,6.139c-1.42.932-1.586,1.379-1.259,3.009a12.127,12.127,0,0,1-2.875,2.118c-.081.046-.118.167-.175.254" transform="translate(-9.508 -1.782)" fill="#632059"/>
    <path id="Trazado_816284" data-name="Trazado 816284" d="M168.842,105.876c-.328-1.629-.161-2.076,1.259-3.009a41.971,41.971,0,0,0,7.756-6.139,18.175,18.175,0,0,0,3.281-4.99A56.246,56.246,0,0,0,184,83.1c1.127-4.162,2.641-8.191,4.124-12.232a34.5,34.5,0,0,0,1.957-7.135,22.424,22.424,0,0,0-.013-6.065,46.457,46.457,0,0,0-3.084-10.392c-1.586-4.152-2.711-8.445-3.96-12.7a24.589,24.589,0,0,0-4.372-9.034,28.474,28.474,0,0,0-5.891-5.114c-3.207-2.219-6.5-4.325-9.554-6.749-2.422-1.919-4.827-3.855-7.407-5.561A21.827,21.827,0,0,0,148,4.615a29.951,29.951,0,0,0-6.688-.557c-2.008.061-4.016.147-6.024.2a2.252,2.252,0,0,1-1.973-.794c-.342-.435-.241-.986-.428-1.459C133.226.5,134.391.167,135.67.184c2.056.025,4.1-.236,6.156-.152a41.132,41.132,0,0,1,9.333,1.248,26.208,26.208,0,0,1,4.852,2.172,22.545,22.545,0,0,1,2.525,1.658c2.625,1.806,4.993,3.947,7.566,5.82,1.42,1.032,2.918,1.971,4.336,2.993,3.371,2.431,6.982,4.565,9.86,7.643a23.336,23.336,0,0,1,3.426,4.532,33.714,33.714,0,0,1,3.148,7.952c.4,1.525.939,3.013,1.335,4.539.392,1.509.863,2.992,1.353,4.467.545,1.638,1.207,3.236,1.814,4.853a45.5,45.5,0,0,1,2.568,8.764c.162,1.018.248,2.059.329,3.095a22.379,22.379,0,0,1-.179,3.867,28.688,28.688,0,0,1-1.338,5.85c-.828,2.653-1.883,5.226-2.836,7.835-.833,2.281-1.5,4.625-2.139,6.973a66.282,66.282,0,0,1-2.534,7.9,24.852,24.852,0,0,1-8.679,10.947c-1.444,1.032-2.9,2.042-4.367,3.044-1.369.938-2.186.861-3.356-.311" transform="translate(-62.687 -0.007)" fill="#131415"/>
    <path id="Trazado_816285" data-name="Trazado 816285" d="M144.6,229.43c.1-.17.18-.176.248.019-.095.144-.176.12-.248-.019" transform="translate(-68.208 -108.165)" fill="#f6cbbd"/>
    <path id="Trazado_816286" data-name="Trazado 816286" d="M90.645,119.808a24.459,24.459,0,0,1-3.463.031,32,32,0,0,1-3.891-.416,60.528,60.528,0,0,1-6.316-1.259,39.441,39.441,0,0,1-7.619-2.905c-1.112-.54-2.211-1.106-3.317-1.659-.38-.19-.607-.352-.362-.889a9.931,9.931,0,0,0,.893-3.527,8.2,8.2,0,0,0-1.108-5.113,6.676,6.676,0,0,0-3.807-2.9c-.793-.234-1.584-.374-2.382-.547a5.724,5.724,0,0,0-1.731.086,12.052,12.052,0,0,0-4.269,1.268c-.316.15-.542.144-.753-.175-1.129-1.714-2.34-3.378-3.388-5.139a47.97,47.97,0,0,1-2.94-6.205,47.154,47.154,0,0,1-2.617-8.986,43.388,43.388,0,0,1-.582-4.757,54.054,54.054,0,0,1-.074-6.163,25.8,25.8,0,0,1,.528-4.818c.327-1.472.543-2.964.966-4.42a51.626,51.626,0,0,1,2.4-6.773,45.143,45.143,0,0,1,9.853-14.407A47,47,0,0,1,76.622,28.538a48.28,48.28,0,0,1,8.742-1.6,35.528,35.528,0,0,1,5.348-.225c1.547.094,3.089.318,4.632.476a36.466,36.466,0,0,1,5.74,1.1,46.681,46.681,0,0,1,14.59,6.556,49.3,49.3,0,0,1,14.715,16.309,37.619,37.619,0,0,1,3.36,7.8,35.046,35.046,0,0,1,1.2,4.485q.464,2.783.764,5.593a34.39,34.39,0,0,1,.246,5.089,57.927,57.927,0,0,1-.877,7.82,47.027,47.027,0,0,1-9.761,20.971,25.863,25.863,0,0,1-1.95,2.3,50.069,50.069,0,0,1-15.651,10.822,41.954,41.954,0,0,1-7.452,2.484c-1.018.225-2.005.566-3.037.735a36.439,36.439,0,0,1-6.588.559M79.541,58.52A15.5,15.5,0,0,0,95.666,74.166a14.755,14.755,0,0,0,10.819-5.292c3.191-3.637,4.121-7.9,3.567-12.609-.8-6.809-7.518-12.938-15.6-12.776C86.423,43.652,79.3,50.6,79.541,58.52" transform="translate(-20.221 -12.585)" fill="#fff"/>
    <path id="Trazado_816287" data-name="Trazado 816287" d="M62.257,174.223c2.066.04,3.391.454,4.119,1.939a4.776,4.776,0,0,1,.182,3.331,12.51,12.51,0,0,1-3.426,5.933,11.849,11.849,0,0,1-5.753,3.551,6.1,6.1,0,0,1-2.8.255,3.442,3.442,0,0,1-2.806-2.779,7.97,7.97,0,0,1,1.241-5.6,14.075,14.075,0,0,1,6.175-5.753,7.468,7.468,0,0,1,3.068-.88" transform="translate(-24.367 -82.182)" fill="#9dd5e4"/>
    <path id="Trazado_816288" data-name="Trazado 816288" d="M112.281,73.526c-.245-7.922,6.882-14.869,14.913-15.03,8.081-.163,14.8,5.967,15.6,12.776.554,4.706-.376,8.972-3.567,12.609a14.755,14.755,0,0,1-10.819,5.292,15.5,15.5,0,0,1-16.125-15.646m4.04.158A11.333,11.333,0,1,0,126.858,62.5a11.32,11.32,0,0,0-10.537,11.18" transform="translate(-52.961 -27.592)" fill="#131415"/>
    <path id="Trazado_816289" data-name="Trazado 816289" d="M119.934,77.247a11.32,11.32,0,0,1,10.537-11.18,11.369,11.369,0,1,1-10.537,11.18" transform="translate(-56.574 -31.154)" fill="#e77db0"/>
  </g>
</svg>
