<svg xmlns="http://www.w3.org/2000/svg" xmlns:xlink="http://www.w3.org/1999/xlink" width="152.323" height="72.575" viewBox="0 0 152.323 72.575">
  <defs>
    <clipPath id="clip-path">
      <rect id="Rectángulo_376491" data-name="Rectángulo 376491" width="152.323" height="72.575" fill="none"/>
    </clipPath>
  </defs>
  <g id="Grupo_1071931" data-name="Grupo 1071931" transform="translate(0 0)">
    <g id="Grupo_1071930" data-name="Grupo 1071930" transform="translate(0 0)" clip-path="url(#clip-path)">
      <path id="Trazado_816310" data-name="Trazado 816310" d="M0,72.572V66.564H5.01V60.5H.04v-6.03H5.02V48.45h5.092v5.908h7.63V48.433h5.064v5.941h5.1v-.96c0-4.251-.034-8.5.024-12.752a10.3,10.3,0,0,1,.519-3.2C30.8,30.8,33.225,24.17,35.61,17.523a4.193,4.193,0,0,1,1.659-2.191Q48.181,8.127,59.079.894A5.261,5.261,0,0,1,62.108,0c13.672.02,27.344,0,41.016.048a5.23,5.23,0,0,1,2.709.818c6.088,3.912,12.139,7.906,18.195,11.89,1.225.806,2.4,1.709,3.633,2.506a4.52,4.52,0,0,1,1.8,2.411c2.2,6.16,4.4,12.32,6.652,18.453a4.591,4.591,0,0,0,1.307,1.907c3.565,2.876,7.178,5.666,10.768,8.5.924.73,1.815,1.521,2.733,2.264a3.963,3.963,0,0,1,1.406,3.293c-.008,5.6,0,11.211-.006,16.816,0,2.327-1.092,3.627-3.039,3.668-.45.009-.9,0-1.349,0H0m88.846-6.093V65.289c0-7.808-.021-15.615.019-23.423a11.464,11.464,0,0,0-.7-4.016c-2.009-5.573-3.995-11.157-6.038-16.711A3.146,3.146,0,0,0,80.994,19.7c-6.478-4.307-12.98-8.559-19.46-12.859a1,1,0,0,0-1.293,0q-9.86,6.539-19.726,13.067a2.021,2.021,0,0,0-.7.938q-3.286,9.04-6.517,18.108A5.333,5.333,0,0,0,33,40.687q-.027,12.421-.012,24.84v.936H48.223V65.377q0-9.492,0-18.984c0-2.881.992-4.053,3.437-4.053q9.32,0,18.64,0c2.262,0,3.312,1.241,3.313,3.913q0,9.586,0,19.173v1.054Zm-1.29-45.3c.124.371.2.6.276.823,1.6,4.449,3.217,8.89,4.788,13.353.256.728.571.958,1.226.957q18.01-.036,36.019-.017h.851c-.088-.333-.132-.574-.212-.8-1.615-4.475-3.247-8.941-4.838-13.428-.242-.683-.526-.913-1.159-.913q-18.01.04-36.02.02h-.932m29.509-6.048a2.549,2.549,0,0,0-.254-.34q-6.44-4.247-12.888-8.473a1.988,1.988,0,0,0-1.065-.246q-15.617-.018-31.235-.008c-.236,0-.471.038-.845.07,4.443,2.959,8.713,5.826,13.01,8.631a3.124,3.124,0,0,0,1.678.372q14.944.022,29.887-.006h1.711M131.95,54.507H109.2V66.482H131.95ZM99.743,42.393c.359.312.555.5.763.66,1.519,1.2,3.1,2.3,4.544,3.619a6.588,6.588,0,0,0,4.837,1.758c10.181-.095,20.362-.046,30.544-.047h.805a1.978,1.978,0,0,0-.623-.741c-2.028-1.595-4.047-3.208-6.1-4.764a2.436,2.436,0,0,0-1.374-.517q-16.223-.042-32.448-.019c-.251,0-.5.026-.952.05M93.983,44.9V66.475h10.008a.873.873,0,0,0,.073-.213c.007-4.283.018-8.565,0-12.848a1.2,1.2,0,0,0-.413-.781c-1.756-1.4-3.54-2.752-5.3-4.15-1.442-1.148-2.857-2.34-4.368-3.583m53.207,9.6H137.151v12H147.19ZM53.355,66.449h4.983V48.431H53.355ZM63.513,48.431V66.448h5.022V48.431ZM10.2,66.449h7.516V60.52H10.2Zm17.658-5.894H22.877v5.927h4.978Z" transform="translate(0 0)" fill="#161615"/>
      <path id="Trazado_816311" data-name="Trazado 816311" d="M107.71,68.591H92.477V67.536q0-9.586,0-19.173c0-2.672-1.052-3.913-3.313-3.913q-9.32,0-18.64,0c-2.444,0-3.437,1.173-3.437,4.053q0,9.492,0,18.984v1.086H51.854v-.936q0-12.42.012-24.84a5.333,5.333,0,0,1,.291-1.726Q55.387,32,58.675,22.964a2.021,2.021,0,0,1,.7-.938Q69.232,15.475,79.1,8.96a1,1,0,0,1,1.293,0c6.48,4.3,12.982,8.553,19.46,12.859A3.146,3.146,0,0,1,101,23.25c2.043,5.554,4.029,11.138,6.038,16.711a11.464,11.464,0,0,1,.7,4.016c-.04,7.807-.019,15.615-.019,23.422v1.191m-30.434-48.4h5.008V14.271H77.275ZM67.032,26.386h-4.98v5.93h4.98Zm30.489-.007h-4.98v5.928h4.98Z" transform="translate(-18.864 -2.111)" fill="#d9a176"/>
      <path id="Trazado_816312" data-name="Trazado 816312" d="M137.622,27.934h.932q18.01,0,36.02-.02c.632,0,.916.229,1.159.913,1.591,4.487,3.222,8.953,4.838,13.427.08.222.124.462.212.8h-.851q-18.01,0-36.019.018c-.655,0-.97-.229-1.226-.957-1.571-4.464-3.187-8.9-4.788-13.353-.08-.224-.152-.452-.276-.823" transform="translate(-50.066 -6.757)" fill="#d22224"/>
      <path id="Trazado_816313" data-name="Trazado 816313" d="M157.538,17.064h-1.711q-14.944.011-29.887.007a3.122,3.122,0,0,1-1.678-.372c-4.3-2.805-8.567-5.672-13.01-8.632.373-.032.608-.069.844-.07q15.617,0,31.235.009a1.979,1.979,0,0,1,1.064.245c4.3,2.806,8.6,5.642,12.888,8.473a2.479,2.479,0,0,1,.254.34" transform="translate(-40.473 -1.935)" fill="#d22224"/>
      <rect id="Rectángulo_376485" data-name="Rectángulo 376485" width="22.749" height="11.975" transform="translate(109.201 54.508)" fill="#c58a60"/>
      <path id="Trazado_816314" data-name="Trazado 816314" d="M156.777,55.915c.45-.024.7-.05.952-.05q16.224,0,32.448.019a2.438,2.438,0,0,1,1.374.517c2.05,1.555,4.068,3.169,6.1,4.764a1.99,1.99,0,0,1,.623.741h-.805c-10.182,0-20.363-.048-30.544.047a6.587,6.587,0,0,1-4.837-1.758c-1.445-1.315-3.026-2.419-4.545-3.619-.207-.164-.4-.349-.763-.66" transform="translate(-57.034 -13.522)" fill="#d22224"/>
      <path id="Trazado_816315" data-name="Trazado 816315" d="M147.724,59.24c1.51,1.242,2.926,2.434,4.367,3.582,1.757,1.4,3.542,2.749,5.3,4.15a1.2,1.2,0,0,1,.414.781c.022,4.282.01,8.565,0,12.847a.866.866,0,0,1-.073.214H147.724Z" transform="translate(-53.741 -14.34)" fill="#c58a60"/>
      <rect id="Rectángulo_376486" data-name="Rectángulo 376486" width="10.039" height="12.004" transform="translate(137.151 54.502)" fill="#c58a60"/>
      <rect id="Rectángulo_376487" data-name="Rectángulo 376487" width="4.983" height="18.018" transform="translate(53.356 48.431)" fill="#d22224"/>
      <path id="Trazado_816316" data-name="Trazado 816316" d="M99.83,63.9h5.022V81.915H99.83Z" transform="translate(-36.317 -15.467)" fill="#d22224"/>
      <rect id="Rectángulo_376488" data-name="Rectángulo 376488" width="5.008" height="5.924" transform="translate(58.411 12.16)" fill="#161615"/>
      <rect id="Rectángulo_376489" data-name="Rectángulo 376489" width="4.98" height="5.93" transform="translate(43.188 24.274)" fill="#161615"/>
      <rect id="Rectángulo_376490" data-name="Rectángulo 376490" width="4.98" height="5.928" transform="translate(73.677 24.267)" fill="#161615"/>
    </g>
  </g>
</svg>
