<svg id="Grupo_1071939" data-name="Grupo 1071939" xmlns="http://www.w3.org/2000/svg" xmlns:xlink="http://www.w3.org/1999/xlink" width="110.469" height="119.793" viewBox="0 0 110.469 119.793">
  <defs>
    <clipPath id="clip-path">
      <rect id="Rectángulo_376495" data-name="Rectángulo 376495" width="110.469" height="119.793" fill="none"/>
    </clipPath>
  </defs>
  <g id="Grupo_1071938" data-name="Grupo 1071938" clip-path="url(#clip-path)">
    <path id="Trazado_816379" data-name="Trazado 816379" d="M137.171,48.443c-.056.995-.035,1.936-.175,2.854a5.677,5.677,0,0,1-5.85,4.843,5.514,5.514,0,0,1-5.273-5.4c-.037-.753-.006-1.509-.006-2.269-.672.2-1.29.428-1.929.556a5.233,5.233,0,0,1-5.556-2.59,5.106,5.106,0,0,1,.481-5.907,38.526,38.526,0,0,1,3.627-3.214c.926-.776,1.888-1.513,2.864-2.224a1.159,1.159,0,0,0,.459-1.409c-1.51,0-3.028-.009-4.545.013a.731.731,0,0,0-.441.3c-1.515,1.911-2.99,3.853-4.535,5.738a5.315,5.315,0,0,1-5.011,2.075,5.413,5.413,0,0,1-4.183-7.516c.071-.176.143-.35.251-.615-.741,0-1.415.012-2.088,0a5.565,5.565,0,0,1-5.523-4.635,5.423,5.423,0,0,1,4.7-6.482c.945-.114,1.9-.118,2.835-.172a13.891,13.891,0,0,1-.586-2.024,5.326,5.326,0,0,1,5.586-6.04,5.149,5.149,0,0,1,3.906,1.952c1.507,1.866,2.985,3.756,4.453,5.654a1.2,1.2,0,0,0,1.084.519c1.362-.03,2.726-.011,4.1-.011a1.191,1.191,0,0,0-.487-1.428c-1.9-1.469-3.766-2.972-5.623-4.492a5.368,5.368,0,0,1-1.641-6.182A5.241,5.241,0,0,1,123.331,7a16.385,16.385,0,0,1,2.528.546c0-.672-.023-1.4,0-2.135a5.565,5.565,0,0,1,10.881-1.507,18.217,18.217,0,0,1,.37,3.287c.011.114,0,.23,0,.388.492-.14.944-.287,1.4-.4a5.433,5.433,0,0,1,6.053,2.7,5.119,5.119,0,0,1-1.182,6.431c-1.419,1.249-2.925,2.4-4.4,3.591a13.068,13.068,0,0,1-1.248.966,1.227,1.227,0,0,0-.573,1.539c.13.008.3.027.466.028a21.66,21.66,0,0,1,2.69.024,2.475,2.475,0,0,0,2.51-1.23c1.24-1.677,2.573-3.285,3.888-4.9a5.365,5.365,0,0,1,9.565,3.582,14.565,14.565,0,0,1-.63,2.53c.533,0,1.126-.007,1.718,0a5.768,5.768,0,0,1,5.568,3.79,5.589,5.589,0,0,1-4.415,7.321c-.972.137-1.964.129-2.966.189.16.41.333.8.465,1.2a5.366,5.366,0,0,1-8.647,5.6,11.19,11.19,0,0,1-1.18-1.3c-1.371-1.725-2.721-3.468-4.092-5.194a.873.873,0,0,0-.54-.349c-1.462-.029-2.924-.016-4.411-.016a1.071,1.071,0,0,0,.354,1.4c1.808,1.424,3.594,2.875,5.4,4.3a5.453,5.453,0,0,1,2.269,4.055,5.373,5.373,0,0,1-7.67,5.193c-.1-.047-.2-.1-.348-.178M124,29.915c1.171,0,2.341-.008,3.512,0a2,2,0,0,1,2.128,2.128c.01.839-.048,1.682.012,2.517a3.288,3.288,0,0,1-1.528,3.069c-2,1.495-3.934,3.075-5.86,4.664a2.605,2.605,0,0,0-.8,1.228,1.4,1.4,0,0,0,.649,1.572,1.582,1.582,0,0,0,1.816.073c.945-.582,1.835-1.258,2.792-1.817a1.836,1.836,0,0,1,2.814,1.36,5.541,5.541,0,0,1,.071.873c.011,1.678,0,3.356.023,5.034a1.734,1.734,0,0,0,1.653,1.78,1.756,1.756,0,0,0,1.971-1.57,8.706,8.706,0,0,0,.08-1.107c.014-1.6,0-3.2.025-4.8a1.811,1.811,0,0,1,2.735-1.608c.646.358,1.235.818,1.859,1.216a8.834,8.834,0,0,0,1.26.731,1.625,1.625,0,0,0,1.755-2.667,8.049,8.049,0,0,0-.662-.575q-3.007-2.423-6.019-4.84a2.275,2.275,0,0,1-.949-2.019c.051-.973.016-1.951.019-2.926a2.053,2.053,0,0,1,2.3-2.318c2.146,0,4.293.026,6.438-.013a2.669,2.669,0,0,1,2.318,1.1c1.284,1.645,2.6,3.268,3.9,4.895.464.578.923,1.161,1.424,1.706a1.479,1.479,0,0,0,1.714.387,1.428,1.428,0,0,0,1.047-1.406,3.593,3.593,0,0,0-.53-1.507c-.435-.759-.991-1.448-1.448-2.2a1.885,1.885,0,0,1,1.453-2.949,5.435,5.435,0,0,1,.643-.016c1.7,0,3.4.006,5.092,0a1.764,1.764,0,0,0,1.7-1.194,1.734,1.734,0,0,0-.555-1.953,3.176,3.176,0,0,0-1.548-.542c-1.675-.068-3.355-.023-5.033-.026a1.947,1.947,0,0,1-1.846-1.018,1.86,1.86,0,0,1,.148-2.04c.56-.845,1.143-1.676,1.676-2.537a1.65,1.65,0,0,0-2.663-1.94c-.258.292-.5.6-.742.9-1.483,1.861-2.972,3.717-4.443,5.588a2.559,2.559,0,0,1-2.215,1.057c-2.223-.043-4.448-.008-6.673-.016a2.015,2.015,0,0,1-2.162-2.158c-.011-1.054.028-2.109-.017-3.161A2.149,2.149,0,0,1,134.212,19q.888-.717,1.778-1.43c1.626-1.308,3.261-2.6,4.872-3.933a1.514,1.514,0,0,0,.445-1.9,1.59,1.59,0,0,0-1.585-.98,2.923,2.923,0,0,0-1.124.432c-.847.519-1.64,1.129-2.5,1.626a1.83,1.83,0,0,1-2.737-1.552c-.036-1.091-.009-2.185-.021-3.277-.009-.8.01-1.6-.069-2.4a1.944,1.944,0,0,0-2.015-1.857,1.827,1.827,0,0,0-1.635,2.048c-.013,1.619,0,3.239-.007,4.858a4.153,4.153,0,0,1-.1.985,1.816,1.816,0,0,1-2.7,1.192c-.944-.544-1.828-1.192-2.751-1.775a1.671,1.671,0,0,0-2.306.3,1.645,1.645,0,0,0,.291,2.3c.257.239.531.459.805.678,1.9,1.524,3.8,3.056,5.716,4.564a2.6,2.6,0,0,1,1.056,2.171c0,.976.011,1.951.009,2.927a1.975,1.975,0,0,1-2.193,2.214c-2.146,0-4.294-.046-6.438.019a2.981,2.981,0,0,1-2.654-1.263c-1.642-2.108-3.335-4.176-5.022-6.249a2.011,2.011,0,0,0-.721-.567,1.694,1.694,0,0,0-1.866.458,1.734,1.734,0,0,0-.129,1.972c.524.844,1.1,1.654,1.645,2.488a1.913,1.913,0,0,1,.264,2.086,2.063,2.063,0,0,1-2,1.062q-2.6-.025-5.209,0a1.792,1.792,0,0,0-1.907,1.953,1.812,1.812,0,0,0,1.945,1.755c1.756.018,3.512,0,5.268.01a1.9,1.9,0,0,1,2.064,1.794,3.14,3.14,0,0,1-.507,1.447c-.48.824-1.069,1.583-1.567,2.4a1.674,1.674,0,0,0,.41,2.2,1.629,1.629,0,0,0,2.3-.3c.153-.177.3-.363.442-.546,1.57-1.967,3.151-3.924,4.7-5.9a2.613,2.613,0,0,1,2.317-1.1c1.071.045,2.146.01,3.219.01" transform="translate(-52.825 0)" fill="#161615"/>
    <path id="Trazado_816380" data-name="Trazado 816380" d="M43.08,66.05q0,10.627-.01,21.253a2.275,2.275,0,0,0,.763,1.812,25.744,25.744,0,0,1,6.7,9.615,25.248,25.248,0,0,1,1.681,13.131A26.27,26.27,0,0,1,29.6,134.4c-9.623,1.063-17.644-2.095-23.814-9.649a23.833,23.833,0,0,1-4.008-6.833,26.2,26.2,0,0,1-.815-16.475A26.472,26.472,0,0,1,8.407,89.279a2.85,2.85,0,0,0,.968-2.249c-.024-13.973,0-27.946-.03-41.919A16.954,16.954,0,0,1,13.286,34a15.954,15.954,0,0,1,13.231-6.073,15.962,15.962,0,0,1,13.441,7.388,17.935,17.935,0,0,1,3.117,10.3q.015,10.216,0,20.433m-3.747-.176c0-6.888.008-13.775-.011-20.663a14.858,14.858,0,0,0-.235-2.673c-1.115-6.023-6.632-12.015-14.99-10.769a12.969,12.969,0,0,0-10.99,12.853q0,15.951,0,31.9,0,5.268,0,10.536a6.042,6.042,0,0,1-1.94,4.66q-.6.555-1.158,1.158a22.034,22.034,0,0,0-5.7,20.7,22.33,22.33,0,0,0,19.212,17.167c4.925.471,9.612-.175,13.883-2.839,8.238-5.138,12.119-12.525,11.12-22.232a21.125,21.125,0,0,0-6.92-13.619,6.767,6.767,0,0,1-2.284-5.281c.024-6.965.009-13.931.009-20.9" transform="translate(0 -14.805)" fill="#161615"/>
    <path id="Trazado_816381" data-name="Trazado 816381" d="M170.21,166.134c-6-.072-10.024-5.163-10.685-9.878-.763-5.444,4.224-12.332,11.243-11.886a10.33,10.33,0,0,1,6.693,2.665,1.823,1.823,0,0,1-.611,3.177,1.787,1.787,0,0,1-1.745-.4,7.16,7.16,0,1,0-3.8,12.454,7.364,7.364,0,0,0,3.6-1.563,3.027,3.027,0,0,1,1.116-.593,1.761,1.761,0,0,1,1.92.916,1.7,1.7,0,0,1-.281,2.055,8.3,8.3,0,0,1-3.972,2.358c-1.136.314-2.317.468-3.478.693" transform="translate(-84.542 -76.536)" fill="#161615"/>
    <path id="Trazado_816382" data-name="Trazado 816382" d="M143.54,129.091a5.621,5.621,0,1,1,5.538,5.7,5.672,5.672,0,0,1-5.538-5.7m7.5.113a1.829,1.829,0,0,0-1.818-1.933,1.9,1.9,0,1,0-.067,3.794,1.812,1.812,0,0,0,1.885-1.862" transform="translate(-76.107 -65.516)" fill="#161615"/>
    <path id="Trazado_816383" data-name="Trazado 816383" d="M108.18,111.564h6.139a1.9,1.9,0,1,1,.04,3.744q-6.2.015-12.394,0a2.138,2.138,0,0,1-1.6-.587,1.773,1.773,0,0,1,.756-3.02,3.828,3.828,0,0,1,1.037-.132c2.007-.012,4.014-.006,6.022-.006" transform="translate(-52.915 -59.152)" fill="#161615"/>
    <path id="Trazado_816384" data-name="Trazado 816384" d="M108.188,143.469q3.011,0,6.022,0c1.4,0,2.383.79,2.358,1.889s-.959,1.856-2.333,1.857q-6.08,0-12.16,0a2.245,2.245,0,0,1-1.755-.637,1.77,1.77,0,0,1,.754-2.958,3.779,3.779,0,0,1,1.093-.147c2.007-.014,4.014-.007,6.022-.007" transform="translate(-52.914 -76.069)" fill="#161615"/>
    <path id="Trazado_816385" data-name="Trazado 816385" d="M105.42,95.609h3.1c.117,0,.233,0,.35,0a2.023,2.023,0,0,1,2.08,1.815,1.992,1.992,0,0,1-1.966,1.924c-.116.011-.233.008-.35.008q-3.3,0-6.6,0a2.205,2.205,0,0,1-1.7-.625,1.772,1.772,0,0,1,.784-2.982,3.929,3.929,0,0,1,1.035-.134c1.09-.016,2.181-.006,3.272-.006" transform="translate(-52.914 -50.692)" fill="#161615"/>
    <path id="Trazado_816386" data-name="Trazado 816386" d="M105.358,127.515h3.155c.117,0,.234,0,.35,0a2.023,2.023,0,0,1,2.083,1.811,1.991,1.991,0,0,1-1.962,1.928c-.116.011-.233.008-.35.008q-3.3,0-6.6,0a2.217,2.217,0,0,1-1.66-.582,1.774,1.774,0,0,1,.793-3.039,3.682,3.682,0,0,1,.921-.121c1.091-.014,2.181-.006,3.272-.006" transform="translate(-52.914 -67.609)" fill="#161615"/>
    <path id="Trazado_816387" data-name="Trazado 816387" d="M128.259,34.126c-1.073,0-2.148.034-3.219-.01a2.615,2.615,0,0,0-2.317,1.1c-1.552,1.98-3.133,3.938-4.7,5.9-.146.183-.289.368-.442.546a1.628,1.628,0,0,1-2.3.3,1.674,1.674,0,0,1-.41-2.2c.5-.815,1.087-1.574,1.567-2.4a3.136,3.136,0,0,0,.507-1.446,1.9,1.9,0,0,0-2.064-1.794c-1.756-.015-3.512.008-5.268-.01a1.812,1.812,0,0,1-1.945-1.754,1.792,1.792,0,0,1,1.907-1.953q2.6-.021,5.209,0a2.062,2.062,0,0,0,2-1.062,1.913,1.913,0,0,0-.264-2.086c-.542-.834-1.121-1.644-1.645-2.488A1.734,1.734,0,0,1,115,22.805a1.693,1.693,0,0,1,1.866-.457,2.009,2.009,0,0,1,.721.566c1.687,2.073,3.38,4.141,5.022,6.249a2.984,2.984,0,0,0,2.654,1.264c2.145-.065,4.292-.016,6.438-.02a1.974,1.974,0,0,0,2.193-2.213c0-.976-.01-1.951-.009-2.927a2.6,2.6,0,0,0-1.056-2.171c-1.916-1.507-3.813-3.04-5.716-4.564-.274-.219-.548-.44-.805-.677a1.646,1.646,0,0,1-.291-2.3,1.671,1.671,0,0,1,2.306-.3c.922.583,1.806,1.231,2.751,1.775a1.816,1.816,0,0,0,2.7-1.191,4.158,4.158,0,0,0,.1-.985c.009-1.62-.007-3.239.007-4.859a1.827,1.827,0,0,1,1.635-2.048A1.944,1.944,0,0,1,137.533,9.8c.079.793.06,1.6.069,2.4.012,1.092-.015,2.186.021,3.278a1.83,1.83,0,0,0,2.737,1.551c.859-.5,1.651-1.108,2.5-1.626a2.907,2.907,0,0,1,1.124-.432,1.59,1.59,0,0,1,1.585.979,1.514,1.514,0,0,1-.445,1.9c-1.61,1.327-3.246,2.624-4.872,3.933q-.889.715-1.778,1.43a2.151,2.151,0,0,0-.871,1.877c.045,1.052.007,2.107.017,3.161a2.015,2.015,0,0,0,2.162,2.158c2.224.008,4.449-.027,6.673.016a2.556,2.556,0,0,0,2.215-1.057c1.471-1.87,2.96-3.727,4.443-5.588.243-.3.484-.613.742-.9a1.65,1.65,0,0,1,2.663,1.94c-.534.862-1.116,1.693-1.676,2.537a1.861,1.861,0,0,0-.148,2.041,1.947,1.947,0,0,0,1.846,1.017c1.678,0,3.358-.041,5.033.027a3.177,3.177,0,0,1,1.548.542,1.734,1.734,0,0,1,.555,1.953,1.764,1.764,0,0,1-1.7,1.194c-1.7.011-3.395,0-5.092,0a5.435,5.435,0,0,0-.643.017,1.885,1.885,0,0,0-1.453,2.948c.457.748,1.013,1.437,1.448,2.2a3.591,3.591,0,0,1,.53,1.506,1.429,1.429,0,0,1-1.047,1.406A1.479,1.479,0,0,1,154,41.813c-.5-.544-.961-1.128-1.424-1.705-1.307-1.627-2.621-3.249-3.9-4.9a2.667,2.667,0,0,0-2.318-1.1c-2.146.038-4.292.009-6.438.013a2.053,2.053,0,0,0-2.3,2.317c0,.976.032,1.953-.019,2.926a2.276,2.276,0,0,0,.949,2.019q3.016,2.411,6.019,4.84a7.872,7.872,0,0,1,.662.575,1.625,1.625,0,0,1-1.755,2.666,8.784,8.784,0,0,1-1.26-.73c-.624-.4-1.213-.858-1.859-1.216a1.811,1.811,0,0,0-2.735,1.607c-.026,1.6-.012,3.2-.025,4.8a8.721,8.721,0,0,1-.08,1.107,1.756,1.756,0,0,1-1.971,1.57,1.734,1.734,0,0,1-1.653-1.78c-.022-1.678-.011-3.356-.023-5.034a5.534,5.534,0,0,0-.071-.872,1.836,1.836,0,0,0-2.814-1.361c-.957.56-1.847,1.235-2.792,1.817a1.582,1.582,0,0,1-1.816-.072,1.4,1.4,0,0,1-.649-1.572,2.605,2.605,0,0,1,.8-1.228c1.925-1.589,3.862-3.169,5.86-4.664a3.289,3.289,0,0,0,1.528-3.07c-.06-.834,0-1.677-.012-2.516a2,2,0,0,0-2.128-2.128c-1.171-.012-2.341,0-3.512,0" transform="translate(-57.086 -4.211)" fill="#a6d9e9"/>
    <path id="Trazado_816388" data-name="Trazado 816388" d="M43.513,70.026c0,6.966.015,13.932-.009,20.9A6.764,6.764,0,0,0,45.788,96.2a21.125,21.125,0,0,1,6.919,13.62c1,9.707-2.882,17.093-11.12,22.232-4.27,2.664-8.958,3.31-13.883,2.839A22.331,22.331,0,0,1,8.492,117.729a22.032,22.032,0,0,1,5.7-20.7q.555-.6,1.158-1.158a6.042,6.042,0,0,0,1.94-4.66q0-5.268,0-10.537,0-15.951,0-31.9a12.969,12.969,0,0,1,10.99-12.853c8.358-1.246,13.876,4.746,14.991,10.769a14.946,14.946,0,0,1,.235,2.674c.019,6.888.01,13.775.01,20.663m-3.746,2.3q0-11.239,0-22.477a10.578,10.578,0,0,0-2.121-6.616,8.756,8.756,0,0,0-8.111-3.654,9.287,9.287,0,0,0-8.5,9.566q0,22.741.023,45.481a3.039,3.039,0,0,1-1.407,2.726c-5.611,4.118-8.333,9.657-7.865,16.641a17.982,17.982,0,0,0,6.84,13.1,17.923,17.923,0,0,0,15.761,3.739A18.469,18.469,0,0,0,48.86,115.8a17.476,17.476,0,0,0-.735-9.106,18.321,18.321,0,0,0-7.069-9.42,2.791,2.791,0,0,1-1.31-2.589c.041-7.453.021-14.907.021-22.36" transform="translate(-4.181 -18.958)" fill="#fff"/>
    <path id="Trazado_816389" data-name="Trazado 816389" d="M44.108,76.591c0,7.454.02,14.907-.021,22.36a2.79,2.79,0,0,0,1.31,2.589,18.323,18.323,0,0,1,7.069,9.42,17.478,17.478,0,0,1,.735,9.106A18.469,18.469,0,0,1,38.726,135.1a17.92,17.92,0,0,1-15.761-3.739,17.98,17.98,0,0,1-6.84-13.1c-.468-6.984,2.254-12.523,7.865-16.641A3.04,3.04,0,0,0,25.4,98.891q-.054-22.741-.023-45.482a9.288,9.288,0,0,1,8.5-9.566A8.756,8.756,0,0,1,41.985,47.5a10.576,10.576,0,0,1,2.121,6.616q.01,11.239,0,22.477M29.135,86.89v.75c0,3.923.013,7.845-.014,11.767a7.2,7.2,0,0,1-.294,1.893,6.377,6.377,0,0,1-2.719,3.319,14.444,14.444,0,0,0-6.177,14.316,14.806,14.806,0,0,0,14.783,12.875,14.262,14.262,0,0,0,10.418-4.172A14.5,14.5,0,0,0,49.541,114.7a14.317,14.317,0,0,0-6.351-10.218,6.256,6.256,0,0,1-2.859-5.6q.046-20.607.015-41.214V56.96H29.181v3.672c.571,0,1.1-.009,1.622,0a1.977,1.977,0,0,1,2.072,1.942,1.955,1.955,0,0,1-2.1,1.831c-.537,0-1.075,0-1.643,0v3.719c1.252,0,2.421-.022,3.589.006a1.891,1.891,0,0,1,1.788,2.761A1.919,1.919,0,0,1,32.721,71.9c-1.182,0-2.365,0-3.548,0v3.72c.6,0,1.164-.019,1.726,0A1.975,1.975,0,0,1,32.875,77.6a1.949,1.949,0,0,1-2.016,1.793c-.56.008-1.119,0-1.689,0v3.719c1.181,0,2.328-.01,3.475,0a1.9,1.9,0,1,1-.019,3.772c-1.131.005-2.262,0-3.49,0M40.35,53.125a5.944,5.944,0,0,0-6.375-5.578c-2.668.308-5.172,3.208-4.789,5.578Z" transform="translate(-8.522 -23.222)" fill="#161615"/>
    <path id="Trazado_816390" data-name="Trazado 816390" d="M33.319,101.747c1.228,0,2.359,0,3.49,0a1.9,1.9,0,1,0,.019-3.772c-1.147-.013-2.294,0-3.475,0V94.252c.57,0,1.129.007,1.688,0a1.949,1.949,0,0,0,2.017-1.793,1.976,1.976,0,0,0-1.976-1.976c-.562-.023-1.125,0-1.725,0v-3.72c1.183,0,2.365,0,3.548,0A1.919,1.919,0,0,0,38.7,85.749a1.891,1.891,0,0,0-1.788-2.761c-1.168-.027-2.337-.006-3.59-.006V79.264c.568,0,1.106,0,1.643,0a1.956,1.956,0,0,0,2.1-1.832,1.978,1.978,0,0,0-2.072-1.942c-.526-.011-1.051,0-1.622,0V71.817H44.53v.7q0,20.607-.015,41.214a6.256,6.256,0,0,0,2.859,5.6,14.317,14.317,0,0,1,6.351,10.217A14.5,14.5,0,0,1,49.317,142.5,14.259,14.259,0,0,1,38.9,146.668a14.806,14.806,0,0,1-14.783-12.875,14.443,14.443,0,0,1,6.176-14.316,6.378,6.378,0,0,0,2.72-3.319,7.211,7.211,0,0,0,.294-1.893c.026-3.922.013-7.844.013-11.767v-.751m-5.655,29.938a11.338,11.338,0,0,0,2.183,6.6,11.163,11.163,0,0,0,4.526,3.691,1.831,1.831,0,0,0,2.454-.825,1.8,1.8,0,0,0-.741-2.467c-.2-.125-.4-.233-.613-.34a7.237,7.237,0,0,1-3.755-4.631,7.536,7.536,0,0,1,.229-4.764,2.811,2.811,0,0,0,.2-1.294,1.907,1.907,0,0,0-1.672-1.571,1.956,1.956,0,0,0-1.865,1.166,11.742,11.742,0,0,0-.95,4.431" transform="translate(-12.706 -38.079)" fill="#a6d9e9"/>
    <path id="Trazado_816391" data-name="Trazado 816391" d="M55.1,57.32H43.94c-.383-2.37,2.121-5.27,4.789-5.578A5.944,5.944,0,0,1,55.1,57.32" transform="translate(-23.277 -27.417)" fill="#fff"/>
    <path id="Trazado_816392" data-name="Trazado 816392" d="M31.84,192.925a11.742,11.742,0,0,1,.95-4.431,1.956,1.956,0,0,1,1.865-1.166,1.907,1.907,0,0,1,1.672,1.571,2.811,2.811,0,0,1-.2,1.294,7.536,7.536,0,0,0-.229,4.764,7.237,7.237,0,0,0,3.755,4.631c.208.107.416.215.613.34A1.8,1.8,0,0,1,41,202.4a1.831,1.831,0,0,1-2.454.825,11.163,11.163,0,0,1-4.526-3.691,11.338,11.338,0,0,1-2.183-6.6" transform="translate(-16.882 -99.319)" fill="#161615"/>
  </g>
</svg>
