<svg xmlns="http://www.w3.org/2000/svg" xmlns:xlink="http://www.w3.org/1999/xlink" width="124" height="124" viewBox="0 0 124 124">
  <defs>
    <clipPath id="clip-path">
      <rect id="Rect치ngulo_376098" data-name="Rect치ngulo 376098" width="84.5" height="77.649" fill="#fffad0"/>
    </clipPath>
  </defs>
  <g id="Grupo_1072895" data-name="Grupo 1072895" transform="translate(-385 -2058)">
    <path id="Uni칩n_12" data-name="Uni칩n 12" d="M8438,11700a62,62,0,1,1-62,62A62,62,0,0,1,8438,11700Z" transform="translate(-7991 -9642)" fill="#1b3f5e"/>
    <circle id="Elipse_4842" data-name="Elipse 4842" cx="48" cy="48" r="48" transform="translate(399 2072)" fill="#1b3f5e"/>
    <g id="Grupo_1071245" data-name="Grupo 1071245" transform="translate(410.5 2081.176)">
      <g id="Grupo_1071244" data-name="Grupo 1071244" clip-path="url(#clip-path)">
        <path id="Trazado_815332" data-name="Trazado 815332" d="M78.3,35.862c.148.162.271.306.4.44q2.459,2.462,4.92,4.923.218.218.418.454a1.5,1.5,0,0,1,.284,1.749,1.677,1.677,0,0,1-1.587.987q-5.61.005-11.22,0c-.724,0-.584-.109-.775.6a34.658,34.658,0,0,1-5.072,11.116,35.717,35.717,0,0,1-10.286,9.9c-.195.122-.384.253-.6.4.516.911,1.013,1.792,1.513,2.671,1.117,1.964,2.213,3.941,3.362,5.888a1.7,1.7,0,0,1-1.608,2.658q-3.877-.03-7.755,0a2.119,2.119,0,0,1-2.051-1.169c-1-1.81-2.034-3.6-3.023-5.417a.617.617,0,0,0-.835-.359,34.508,34.508,0,0,1-12.4.782c-1.534-.2-3.051-.539-4.57-.842a.413.413,0,0,0-.539.253c-1.063,1.9-2.148,3.788-3.215,5.686a1.956,1.956,0,0,1-1.856,1.061c-2.626-.009-5.253,0-7.879,0-1.074,0-1.84-.581-1.875-1.5a2.448,2.448,0,0,1,.329-1.2c.884-1.608,1.816-3.19,2.724-4.786.7-1.225,1.382-2.455,2.086-3.707-.4-.271-.79-.526-1.173-.787A35.631,35.631,0,0,1,.985,43.9a32.5,32.5,0,0,1-.936-9.537,36.059,36.059,0,0,1,23.5-32.1A36.548,36.548,0,0,1,32.84.162a35.112,35.112,0,0,1,14.7,1.75,35.39,35.39,0,0,1,14.706,9.463A35.125,35.125,0,0,1,70.8,26.9c.089.344.235.413.56.412q5.631-.016,11.261-.006a1.653,1.653,0,0,1,1.827,1.418,2.389,2.389,0,0,1-.284,1.151,2.426,2.426,0,0,1-.556.653q-2.414,2.42-4.835,4.833c-.153.153-.3.316-.465.5M67.566,27.353a32.683,32.683,0,1,0-30.9,41.088C53.25,68.1,64.789,55.786,67.5,44.452a.273.273,0,0,0-.076-.029,2.276,2.276,0,0,0-.288-.007,2.409,2.409,0,0,1-1.975-.831c-1.271-1.309-2.572-2.591-3.862-3.883a1.043,1.043,0,0,0-.186-.115A24.9,24.9,0,0,1,55,52.632a25.284,25.284,0,0,1-17.956,8.538A25.281,25.281,0,0,1,15.265,50.42a25.269,25.269,0,0,1-4.658-13.4,23.989,23.989,0,0,1,1.048-8.359,24.8,24.8,0,0,1,5.529-9.748,24.462,24.462,0,0,1,7.866-5.872,24.993,24.993,0,0,1,15.82-2.014A28.2,28.2,0,0,1,48.1,13.592a1.673,1.673,0,0,1,1.009,1.651,1.6,1.6,0,0,1-2.234,1.385c-.682-.283-1.314-.686-1.989-.985A22.253,22.253,0,0,0,34.8,13.877,21.971,21.971,0,0,0,15.812,26.844a21.506,21.506,0,0,0-1.44,13.69,21.255,21.255,0,0,0,8.362,12.983,21.741,21.741,0,0,0,16.416,4.177,21.669,21.669,0,0,0,13.7-7.514,20.87,20.87,0,0,0,4.6-8.985c.3-1.188.455-2.411.681-3.64-.189-.026-.267-.046-.347-.046-2.241,0-4.482,0-6.724-.007-.268,0-.338.1-.378.35a14.579,14.579,0,0,1-4.314,8.565,14.788,14.788,0,0,1-17.589,2.358A14.146,14.146,0,0,1,22.2,41.2a14.123,14.123,0,0,1,1.42-13.413,14.23,14.23,0,0,1,6.618-5.549A14.816,14.816,0,0,1,50.672,33.8c.055.334.155.423.481.421,2.186-.013,4.373-.006,6.559-.008.116,0,.232-.016.36-.026A20.359,20.359,0,0,0,56.9,28.583c-.456-1.2-1.043-2.349-1.56-3.526a1.608,1.608,0,0,1,2.921-1.345,24.562,24.562,0,0,1,2.414,6.263c.169.708.306,1.423.469,2.189.152-.145.263-.245.368-.35,1.031-1.027,2.076-2.04,3.086-3.087.808-.837,1.592-1.676,2.968-1.375m-20.12,6.841A11.588,11.588,0,0,0,35.435,24.34,11.718,11.718,0,0,0,24.423,36.3,11.775,11.775,0,0,0,36.074,47.4c5.736,0,10.847-4.71,11.35-9.863h-5.9a2.609,2.609,0,0,0,.018.29,1.587,1.587,0,0,1-.712,1.671,1.481,1.481,0,0,1-1.737.03c-1.244-.728-2.494-1.444-3.731-2.183a1.6,1.6,0,0,1,0-2.967c1.012-.607,2.029-1.2,3.047-1.8a7.954,7.954,0,0,1,.942-.5,1.575,1.575,0,0,1,2.191,1.189,5.4,5.4,0,0,1,.008.932Zm16.41,3.313-.04.1c1.138,1.131,2.273,2.266,3.423,3.385a.7.7,0,0,0,.451.126q5.4.009,10.806,0c.112,0,.223-.017.35-.028-1.1-1.115-2.177-2.193-3.237-3.285a.907.907,0,0,0-.716-.309q-5.321.015-10.641.007ZM63.8,34.217c3.81,0,7.561,0,11.311-.008a.622.622,0,0,0,.384-.184c.975-.965,1.94-1.94,2.907-2.913.139-.139.274-.283.437-.452a.941.941,0,0,0-.181-.055q-5.545,0-11.09,0a.623.623,0,0,0-.383.18Q66,31.937,64.847,33.108c-.343.346-.67.707-1.049,1.11M55.554,74.351l-3.6-6.331-3.8,1.617a.882.882,0,0,0,.045.144c.82,1.454,1.637,2.911,2.472,4.357a.528.528,0,0,0,.387.2c.755.019,1.511.009,2.267.009h2.225m-31.67-4.673-3.821-1.651L16.454,74.35c1.579,0,3.076.006,4.573-.012a.543.543,0,0,0,.349-.267c.446-.754.871-1.52,1.3-2.281.4-.7.8-1.4,1.2-2.112" transform="translate(0 0)" fill="#fffad0"/>
        <path id="Trazado_815333" data-name="Trazado 815333" d="M155.1,54.571a1.713,1.713,0,0,1,1.674-1.643,1.745,1.745,0,0,1,1.62,1.659,1.67,1.67,0,0,1-1.652,1.653,1.7,1.7,0,0,1-1.642-1.669" transform="translate(-103.912 -35.46)" fill="#fffad0"/>
      </g>
    </g>
  </g>
</svg>
