<svg xmlns="http://www.w3.org/2000/svg" xmlns:xlink="http://www.w3.org/1999/xlink" width="400" height="311" viewBox="0 0 400 311">
  <defs>
    <clipPath id="clip-path">
      <rect id="Rectángulo_377257" data-name="Rectángulo 377257" width="400" height="311" transform="translate(20454 -10384)" fill="#fff" stroke="#707070" stroke-width="1"/>
    </clipPath>
    <clipPath id="clip-path-2">
      <rect id="Rectángulo_376724" data-name="Rectángulo 376724" width="399.475" height="215.477" fill="none"/>
    </clipPath>
  </defs>
  <g id="Enmascarar_grupo_189" data-name="Enmascarar grupo 189" transform="translate(-20454 10384)" clip-path="url(#clip-path)">
    <g id="Grupo_1072409" data-name="Grupo 1072409" transform="translate(20454 -10342.503)">
      <g id="Grupo_1072408" data-name="Grupo 1072408" clip-path="url(#clip-path-2)">
        <path id="Trazado_817289" data-name="Trazado 817289" d="M399.481,205.4c-.02.352-.046.707-.072,1.065q-.293,3.894-1.042,8.21c0,.009,0,.017-.005.026-.011.07-.025.139-.037.209,0,.005,0,.012,0,.018l-91.293-.183-236.9-.475S38.7,189.575,28.46,150.643c-.009-.033-.017-.065-.025-.1a94.507,94.507,0,0,1-3-29.63c.006-.1.012-.209.02-.313a98.494,98.494,0,0,1,5.986-27.973,117.423,117.423,0,0,1,6.507-14.514q.892-1.681,1.871-3.287c21.17-34.772,71.532-42.842,87.125-35.387,21.19,10.132,49.3-17.238,110.043-36.028,27.78-8.592,76.914-1.3,103.555,25.682.03.03.06.06.088.091,17.06,17.332,24.843,42.768,11.774,77.308-.014.035-.027.072-.042.108-.006.02-.015.04-.022.06-12.724,33.486,13.009,40.615,31.253,57.855.09.084.18.169.27.256a61.041,61.041,0,0,1,5.287,5.688c.353.434.7.874,1.04,1.322a45.334,45.334,0,0,1,5.612,9.562q.326.757.627,1.539a45.953,45.953,0,0,1,2.207,7.7,53.927,53.927,0,0,1,.957,8.9c.054,1.888.021,3.855-.108,5.909" transform="translate(-19.698 0)" fill="#eaeaea"/>
        <path id="Trazado_817290" data-name="Trazado 817290" d="M352.591,209.662l-.233.031L28.435,253.636a94.5,94.5,0,0,1-3-29.63c.006-.1.012-.209.02-.313l315.175-91.415.048-.014c17.2,17.335,25.068,42.8,11.917,77.4" transform="translate(-19.697 -103.091)" fill="#f4f4f4"/>
        <path id="Trazado_817291" data-name="Trazado 817291" d="M253.474,182.9,53.224,235.185a117.4,117.4,0,0,1,6.507-14.513q.892-1.682,1.871-3.287Z" transform="translate(-41.485 -142.556)" fill="#f4f4f4"/>
        <rect id="Rectángulo_376723" data-name="Rectángulo 376723" width="91.796" height="125.267" transform="translate(201.363 87.745)" fill="#b8c1c9"/>
        <path id="Trazado_817292" data-name="Trazado 817292" d="M1059.9,234.033l63.94,41.834h61.732l-32.02-41.835Z" transform="translate(-826.126 -182.413)" fill="#632059"/>
        <path id="Trazado_817293" data-name="Trazado 817293" d="M1360.807,234.728l32.184,41.682h-1.835v81.245l-62.016,20.085V272.046Z" transform="translate(-1035.98 -182.956)" fill="#d5d6da"/>
        <path id="Trazado_817294" data-name="Trazado 817294" d="M1442.935,328.871h1.3a7.975,7.975,0,0,1,7.975,7.975v20.266h-16.987V336.587a7.716,7.716,0,0,1,7.716-7.716" transform="translate(-1118.662 -256.334)" fill="#b8c1c9"/>
        <path id="Trazado_817295" data-name="Trazado 817295" d="M1180.211,544.018h1.3a7.975,7.975,0,0,1,7.975,7.975v20.266h-16.987V551.734a7.716,7.716,0,0,1,7.716-7.716" transform="translate(-913.885 -424.027)" fill="#d5d6da"/>
        <path id="Trazado_817296" data-name="Trazado 817296" d="M1018.4,544.018h1.3a7.975,7.975,0,0,1,7.975,7.975v20.266h-16.987V551.734a7.716,7.716,0,0,1,7.716-7.716" transform="translate(-787.766 -424.027)" fill="#d5d6da"/>
        <path id="Trazado_817297" data-name="Trazado 817297" d="M882.524,278.189h99.655l33.12-44.156-18.645,0-80.045.006Z" transform="translate(-687.871 -182.414)" fill="#632059"/>
        <path id="Trazado_817298" data-name="Trazado 817298" d="M1503.223,584.553l14.467,29.784h43.95l-22.914-29.675Z" transform="translate(-1171.667 -455.622)" fill="#632059"/>
        <path id="Trazado_817299" data-name="Trazado 817299" d="M1581.022,585.046l22.914,29.675h0l.123,55.748c-5.256,1.4-16.828-1.321-20.858.062-8.784,3.013-7.834-24.034-7.834-24.034s-.247.049-.734.121h-14.55v-31.9h-.1Z" transform="translate(-1215.91 -456.006)" fill="#d5d6da"/>
        <path id="Trazado_817300" data-name="Trazado 817300" d="M1394.911,719.586v25.928q3.98,1.16,7.69,2.07a158.851,158.851,0,0,0,22.168,3.9h7.277v-31.9Z" transform="translate(-1087.245 -560.872)" fill="#b8c1c9"/>
        <path id="Trazado_817301" data-name="Trazado 817301" d="M1376.409,616.479H1416.3l23.581-31.437-11.884,0-27.324.006Z" transform="translate(-1072.824 -456.004)" fill="#632059"/>
        <path id="Trazado_817302" data-name="Trazado 817302" d="M1609.3,764.008v35.848h2.17c.69-.1,1.042-.171,1.042-.171a214.215,214.215,0,0,0,22.982.514V764.44a13.315,13.315,0,0,0-13.313-13.313,12.883,12.883,0,0,0-12.881,12.881" transform="translate(-1254.348 -585.456)" fill="#b8c1c9"/>
        <path id="Trazado_817303" data-name="Trazado 817303" d="M1643.9,650.61a5.74,5.74,0,1,1-5.74,5.74,5.741,5.741,0,0,1,5.74-5.74" transform="translate(-1276.844 -507.109)" fill="#b8c1c9"/>
        <path id="Trazado_817304" data-name="Trazado 817304" d="M421.668,847.411c-35-7.734-77.423-14.844-112.273-8.623s-48.241,14.617-86.513-4.7c-8.374-4.226-15.192-4.527-21.335-4.6l-2.323.045c-20.606,1.022-34.553,17.16-77.82,6.155a49.312,49.312,0,0,0-19.974-.545c-4.069-6.7-16.15-24.923-26.141-23.027S90.028,829.791,99.41,835.5q-1.675.323-3.3.72c-5.68-3.122-16.333-8.169-22.419-5.953-5.949,2.166,8.964,5.265,18.671,6.963a94.514,94.514,0,0,0-22.593,10.16Z" transform="translate(-54.377 -632.887)" fill="#d5d6da"/>
        <path id="Trazado_817305" data-name="Trazado 817305" d="M1434.264,808.329c.018-4.366,6.625-8.949,6.625-8.949-1.142-.09-4.058,1.383-4.058,1.383.781-.691,4.418-1.833,4.418-1.833,1.172-.751,4.839-1.2,5.05-1.263s-3.757-.541-3.757-.541l4.764.319s4.283-.529,7.409-.845,11.692.977,11.692.977a20.809,20.809,0,0,0-3.547-.977c4.01.406,9.9,1.5,9.909,1.5,3.42.228,5.691.427,5.691.427l2.073,37.248s-34.445-.18-39.314,0-7.394-6.853-8.476-15.148a26.626,26.626,0,0,1,1.521-12.3" transform="translate(-1116.591 -620.86)" fill="#ef6343"/>
        <path id="Trazado_817306" data-name="Trazado 817306" d="M1575.582,804.46s11.091-.843,18.123,8.083a11.723,11.723,0,0,1,.728,1.036,8.558,8.558,0,0,0-.95-2.551c1.443,1.2,1.946,4.478,1.946,4.478h0a18.321,18.321,0,0,1,1.246,4.838c.876,1.072,1.617,1.925,1.617,1.925l-1.562-1.43a27.791,27.791,0,0,1-.807,9.655,3.017,3.017,0,0,1,1.918.16,3.128,3.128,0,0,0-2,.151,26.787,26.787,0,0,1-.957,2.871,37.972,37.972,0,0,1-1.228,4.488,20.7,20.7,0,0,0,.493-2.83c-1.974,4.016-4.89,6.854-8.286,6.883-9.2.079-20.525-1.334-22.976-13.341s2.688-24.116,12.7-24.418" transform="translate(-1217.698 -627.009)" fill="#ff7955"/>
        <path id="Trazado_817307" data-name="Trazado 817307" d="M1703.915,957.353a4.663,4.663,0,0,1-.172.515c-.014.034.056-.165.172-.515" transform="translate(-1327.958 -746.196)" fill="#00a3fe"/>
        <path id="Trazado_817308" data-name="Trazado 817308" d="M1593.813,857.078a15.859,15.859,0,0,0,8.24-2.036,12.282,12.282,0,0,0,5.5-8.307c1.39-6.433.707-11.711-2.03-15.687-2.558-3.718-6.879-6.138-12.494-7a9.839,9.839,0,0,0-9.489,3.542c-3.494,4.189-4.5,11.267-2.441,17.21,1.453,4.2,5.333,6.794,10.38,6.94q.216.006.431.006c5.083,0,9.666-2.6,11.24-6.418,1.6-3.893,1.521-7.7-.234-10.724-1.782-3.069-5.148-5.065-9.477-5.621-3.919-.5-6.033,1.321-7.116,2.939-2.089,3.123-2.084,8.2-.684,10.647,1.349,2.36,5.083,4.182,8.327,4.068a5.475,5.475,0,0,0,5.03-3.05,6.809,6.809,0,0,0-.209-6.861,5.1,5.1,0,0,0-4.29-2.429,2.889,2.889,0,0,0-2.67,2.851c-.1,1.1.28,2.333,1.187,2.546,1.687.393,2.286-.527,2.311-.567,0,0,.912-1.5-.222-1.72-1.3-.247-.957.76-.957.76-.019.028.321,1.39-1.026,1.075-.555-.13-.92-1.031-.83-2.053a2.416,2.416,0,0,1,2.233-2.428,4.623,4.623,0,0,1,3.879,2.224,6.358,6.358,0,0,1,.177,6.4,5.024,5.024,0,0,1-4.629,2.787c-3.087.106-6.635-1.61-7.907-3.835-1.179-2.063-1.5-6.926.666-10.159a6.5,6.5,0,0,1,6.671-2.737c4.182.537,7.427,2.453,9.135,5.394,1.681,2.894,1.755,6.557.206,10.314s-6.167,6.272-11.229,6.125c-4.846-.14-8.568-2.618-9.955-6.628-2.006-5.8-1.036-12.691,2.359-16.762a9.4,9.4,0,0,1,9.062-3.38c5.485.843,9.7,3.2,12.182,6.805,2.661,3.867,3.32,9.024,1.958,15.327a11.835,11.835,0,0,1-5.288,8.01c-5.5,3.364-14.166,1.328-14.241,1.308l.981.53a23.039,23.039,0,0,0,5.262.594" transform="translate(-1231.541 -642.181)" fill="#ef6343"/>
        <path id="Trazado_817309" data-name="Trazado 817309" d="M1290.715,844.309h0c.014-3.428,5.2-7.026,5.2-7.026a10.31,10.31,0,0,0-3.186,1.085,17.312,17.312,0,0,1,3.469-1.439,15.858,15.858,0,0,1,3.964-.991c.165-.047-2.95-.425-2.95-.425l3.74.251s3.363-.416,5.816-.664,9.179.767,9.179.767a16.361,16.361,0,0,0-2.784-.767c3.148.319,7.772,1.18,7.78,1.181,2.685.179,4.468.335,4.468.335l1.627,29.243s-27.042-.141-30.865,0-5.8-5.38-6.654-11.893a20.906,20.906,0,0,1,1.194-9.657" transform="translate(-1004.989 -650.877)" fill="#ef6343"/>
        <path id="Trazado_817310" data-name="Trazado 817310" d="M1401.661,841.271s8.707-.662,14.228,6.346a9.259,9.259,0,0,1,.572.818,6.719,6.719,0,0,0-.747-2.007c1.133.944,1.527,3.515,1.527,3.515h0a14.369,14.369,0,0,1,.98,3.8c.688.841,1.27,1.512,1.27,1.512l-1.227-1.123a21.817,21.817,0,0,1-.634,7.581,2.368,2.368,0,0,1,1.507.126,2.451,2.451,0,0,0-1.572.119,21.156,21.156,0,0,1-.75,2.251,29.9,29.9,0,0,1-.967,3.535,16.188,16.188,0,0,0,.39-2.234c-1.55,3.154-3.839,5.384-6.505,5.407-7.22.062-16.114-1.047-18.038-10.474s2.111-18.933,9.968-19.17" transform="translate(-1084.366 -655.704)" fill="#ff7955"/>
        <path id="Trazado_817311" data-name="Trazado 817311" d="M1502.411,961.344a3.658,3.658,0,0,1-.132.4c-.011.026.042-.126.132-.4" transform="translate(-1170.93 -749.307)" fill="#00a3fe"/>
        <path id="Trazado_817312" data-name="Trazado 817312" d="M1415.975,882.58a12.448,12.448,0,0,0,6.469-1.6,9.639,9.639,0,0,0,4.317-6.522c1.091-5.051.555-9.194-1.593-12.316-2.009-2.919-5.4-4.819-9.809-5.5a7.725,7.725,0,0,0-7.449,2.781c-2.743,3.289-3.531,8.845-1.917,13.512,1.141,3.3,4.187,5.334,8.149,5.448.113,0,.226,0,.338,0,3.991,0,7.589-2.04,8.824-5.039a9.386,9.386,0,0,0-.184-8.419c-1.4-2.409-4.042-3.977-7.44-4.413a5.41,5.41,0,0,0-5.586,2.308,9.136,9.136,0,0,0-.536,8.359c1.059,1.853,3.99,3.283,6.537,3.194a4.3,4.3,0,0,0,3.949-2.394,5.345,5.345,0,0,0-.164-5.387,4.007,4.007,0,0,0-3.368-1.907,2.269,2.269,0,0,0-2.1,2.238c-.076.867.22,1.832.932,2,1.325.309,1.795-.414,1.814-.445,0,0,.715-1.181-.175-1.351-1.019-.195-.751.6-.751.6-.015.022.252,1.091-.805.844-.436-.1-.722-.81-.652-1.612a1.9,1.9,0,0,1,1.753-1.906,3.629,3.629,0,0,1,3.045,1.746,4.991,4.991,0,0,1,.139,5.027,3.944,3.944,0,0,1-3.634,2.188c-2.423.083-5.209-1.264-6.208-3.011a8.727,8.727,0,0,1,.523-7.976,5.1,5.1,0,0,1,5.238-2.149c3.283.422,5.831,1.925,7.171,4.234a9.034,9.034,0,0,1,.162,8.1c-1.214,2.946-4.841,4.924-8.815,4.808-3.805-.11-6.727-2.055-7.816-5.2-1.575-4.552-.813-9.963,1.852-13.16a7.381,7.381,0,0,1,7.114-2.654c4.307.661,7.614,2.509,9.564,5.343,2.09,3.036,2.607,7.084,1.537,12.032a9.289,9.289,0,0,1-4.152,6.288c-4.314,2.641-11.121,1.042-11.18,1.027l.77.416a18.1,18.1,0,0,0,4.132.467" transform="translate(-1095.234 -667.616)" fill="#ef6343"/>
        <path id="Trazado_817313" data-name="Trazado 817313" d="M1010.7,646.117s12.692,48.975,11.554,52.845-7.513,17.023-7.513,17.023h6.133a4.624,4.624,0,0,0,2.378-4.25c-.1-3.036,8.5-14.875,8.5-14.875s-3.374-18.8,0-26.207c14.53-31.894-9.807-31.591-21.052-24.536" transform="translate(-787.779 -500.595)" fill="#364154"/>
        <path id="Trazado_817314" data-name="Trazado 817314" d="M710.471,736.612s3.643,26.309,3.845,27.928,1.923,3.643,1.822,6.274-1.012,11.535-3.845,13.761a8.058,8.058,0,0,0-3.137,4.958h7.69s1.315-2.631,1.113-4.452,2.125-3.744,2.226-7.488,0-10.726,1.012-13.155.708-19.124,4.047-22.868-14.773-4.958-14.773-4.958" transform="translate(-552.742 -574.142)" fill="#364154"/>
        <path id="Trazado_817315" data-name="Trazado 817315" d="M605.022,601.094a30.451,30.451,0,0,0,1.294-9.068c0-1.13-.042-2.259-.125-3.472,0,0,10.037-18.236,2.885-25.22,0,0-.042-.878-2.342-1.59-2.091-.669-6.064-1.129-13.551-.711-.209,0-.418.042-.627.042-2.8.168-6.148.21-9.829.084-17.9-.5-43.246-3.765-47.428-3.137-.753.126-1.547.251-2.426.418a56.756,56.756,0,0,1-6.859.837c-2.049.126-6.985-2.216-11.125-.92a72.47,72.47,0,0,0-13.341,8.365,99.774,99.774,0,0,0-16.312,16.228,108.7,108.7,0,0,0-10.08,14.722l0,0h-.013c-1.124.118-2.442,1.05-3.785,1.225-1.823.236-2.171,1.134-2.171,1.134a3.081,3.081,0,0,0,1.2,1.429,1.727,1.727,0,0,1-.191.031c-1.823.237-2.171,1.134-2.171,1.134.748,1.774,2.609,2.1,3.951,2.1h0l0,.009c-.418,1.757-.878,4.35-.083,5.563,1.254,1.882-.251,8.866-.125,11.209.167,2.342-.837,4.1-.795,4.685.042.543,1.589,2.8,3.471,2.718,1.882-.125,4.14-.335,5.269-2.676,1.172-2.384,1.84-3.849,2.97-4.057,1.087-.209,7.361-6.315,8.7-8.993.711-1.339,2.8-4.183,10.33-5.729a58.416,58.416,0,0,1,9.076-1c1.166,2.405,2.67,4.366,4.449,4.862.909,6.583,1.817,13.176,1.914,13.962.2,1.619,1.923,3.643,1.822,6.274s-1.012,11.535-3.845,13.762a8.062,8.062,0,0,0-3.137,4.958h7.691s1.315-2.631,1.113-4.452,2.125-3.744,2.226-7.488,0-10.726,1.012-13.155c.651-1.563.758-9.035,1.641-15.161,4.073-.831,8.1-1.554,10.251-.675,4.1,1.672,23.84,6.818,37.934,1.213a6.038,6.038,0,0,1,3.053.669,26.506,26.506,0,0,0,8.369,1.71c2.221,9.318,4.157,18.514,3.627,20.315-1.138,3.87-7.513,17.023-7.513,17.023h6.134a4.625,4.625,0,0,0,2.378-4.25c-.1-3.035,8.5-14.875,8.5-14.875s.541-16.694,4.14-25.008a17.108,17.108,0,0,0,1.623-2.84,3.89,3.89,0,0,0,.851-2.2" transform="translate(-364.794 -434.881)" fill="#657285"/>
        <path id="Trazado_817316" data-name="Trazado 817316" d="M1116.875,838.25s4.463-4.8,1.689-5.889-1.689,2.171-1.689,3.438Z" transform="translate(-870.37 -648.603)" fill="#131f2d"/>
        <path id="Trazado_817317" data-name="Trazado 817317" d="M761.327,607.106c-1.085-4.523-11.941-1.086-22.254,3.075s-14.836.543-23.1,2.9-8.128,13.8-8.392,14.474c-2.906,7.418,19.008,3.257,27.04,6.816s27.611,1.507,26.707-4.282,1.086-18.455,0-22.977" transform="translate(-551.309 -471.534)" fill="#131f2d"/>
        <path id="Trazado_817318" data-name="Trazado 817318" d="M771.623,566.347c8.865-.362,11.4-5.066,22.073-3.076,8.775,1.635,14.985.582,18.221-2.057-17.881-.512-43.249-3.749-47.4-3.119-.756.114-1.574.254-2.435.4.241,1.563,1.724,8.174,9.546,7.856" transform="translate(-593.991 -434.936)" fill="#131f2d"/>
        <path id="Trazado_817319" data-name="Trazado 817319" d="M501.479,597.748a99.787,99.787,0,0,0-16.312,16.227,108.709,108.709,0,0,0-10.08,14.722c-1.129.125-2.468,1.045-3.806,1.213-1.8.251-2.175,1.129-2.175,1.129a3.278,3.278,0,0,0,1.213,1.463h-.209c-1.8.251-2.175,1.171-2.175,1.171.753,1.757,2.635,2.091,3.973,2.091-.418,1.758-.878,4.35-.083,5.563,1.254,1.882-.251,8.866-.125,11.209.167,2.342-.837,4.1-.795,4.685.042.543,1.589,2.8,3.471,2.718,1.882-.126,4.14-.335,5.269-2.676,1.172-2.385,1.84-3.849,2.97-4.057,1.088-.209,7.361-6.315,8.7-8.993.711-1.339,2.8-4.183,10.33-5.73-1.087-6.943-5.563-15.977-.837-23.505a20.805,20.805,0,0,0,1.381-2.718,18.843,18.843,0,0,0,.711-2.51,18.545,18.545,0,0,0,.167-6.064,25.015,25.015,0,0,0-1.589-5.939" transform="translate(-364.726 -465.907)" fill="#131f2d"/>
        <path id="Trazado_817320" data-name="Trazado 817320" d="M1009.973,586.4a20.759,20.759,0,0,0-6.257-12.71s-.148-3.249-15.9-2.315a9.093,9.093,0,0,0-3.018,7.609c.93,7.778-11.756,9.112-10.363,18.551,1.21,8.194,17.318,11.632,26.5,4.82.007-1.1-.025-2.254-.1-3.468a57.364,57.364,0,0,0,3.277-7.428l2.17,38.74,2.065.115s2.533-35.77,1.629-43.912" transform="translate(-759.427 -445.216)" fill="#131f2d"/>
        <path id="Trazado_817321" data-name="Trazado 817321" d="M377.605,894.6h-50.92l-3.25-23.19h54.893a2.2,2.2,0,0,1,2.177,2.5Z" transform="translate(-252.097 -679.209)" fill="#131f2d"/>
        <path id="Trazado_817322" data-name="Trazado 817322" d="M348.56,894.6H297.64l-2.9-20.686a2.2,2.2,0,0,1,2.177-2.5h52.365a2.2,2.2,0,0,1,2.177,2.5Z" transform="translate(-229.715 -679.209)" fill="#364154"/>
        <path id="Trazado_817323" data-name="Trazado 817323" d="M1294.256,800.943l-.114-47.475a2.234,2.234,0,0,0-2.237-2.217l-5.734.035a2.233,2.233,0,0,0-2.217,2.237l.114,47.421Z" transform="translate(-1000.761 -585.552)" fill="#131f2d"/>
        <path id="Trazado_817324" data-name="Trazado 817324" d="M203.794,800.943l-.114-47.475a2.233,2.233,0,0,0-2.237-2.217l-5.734.035a2.233,2.233,0,0,0-2.217,2.237l.114,47.421Z" transform="translate(-150.815 -585.552)" fill="#131f2d"/>
        <path id="Trazado_817325" data-name="Trazado 817325" d="M179.32,794.743l253.582-.431a2.234,2.234,0,0,0,2.218-2.237l-.035-5.733a2.235,2.235,0,0,0-2.236-2.218l-253.584.432a2.234,2.234,0,0,0-2.217,2.237l.035,5.734a2.233,2.233,0,0,0,2.237,2.217" transform="translate(-137.998 -611.175)" fill="#632059"/>
        <path id="Trazado_817326" data-name="Trazado 817326" d="M179.32,897.9l253.582-.431a2.234,2.234,0,0,0,2.218-2.237l-.035-5.733a2.235,2.235,0,0,0-2.236-2.218l-253.584.432a2.234,2.234,0,0,0-2.217,2.237l.035,5.734a2.233,2.233,0,0,0,2.237,2.217" transform="translate(-137.998 -691.575)" fill="#632059"/>
        <path id="Trazado_817327" data-name="Trazado 817327" d="M214.1,792.919a1.083,1.083,0,1,1-1.083-1.083,1.083,1.083,0,0,1,1.083,1.083" transform="translate(-165.189 -617.186)" fill="#364154"/>
        <path id="Trazado_817328" data-name="Trazado 817328" d="M214.1,815.023a1.083,1.083,0,1,1-1.083-1.083,1.083,1.083,0,0,1,1.083,1.083" transform="translate(-165.189 -634.414)" fill="#364154"/>
        <path id="Trazado_817329" data-name="Trazado 817329" d="M214.1,895.334a1.083,1.083,0,1,1-1.083-1.084,1.083,1.083,0,0,1,1.083,1.084" transform="translate(-165.189 -697.012)" fill="#364154"/>
        <path id="Trazado_817330" data-name="Trazado 817330" d="M214.1,917.438a1.083,1.083,0,1,1-1.083-1.083,1.083,1.083,0,0,1,1.083,1.083" transform="translate(-165.189 -714.24)" fill="#364154"/>
        <path id="Trazado_817331" data-name="Trazado 817331" d="M1303.826,792.919a1.083,1.083,0,1,1-1.083-1.083,1.083,1.083,0,0,1,1.083,1.083" transform="translate(-1014.561 -617.186)" fill="#364154"/>
        <path id="Trazado_817332" data-name="Trazado 817332" d="M1303.826,815.023a1.083,1.083,0,1,1-1.083-1.083,1.083,1.083,0,0,1,1.083,1.083" transform="translate(-1014.561 -634.414)" fill="#364154"/>
        <path id="Trazado_817333" data-name="Trazado 817333" d="M1303.826,895.334a1.083,1.083,0,1,1-1.083-1.084,1.083,1.083,0,0,1,1.083,1.084" transform="translate(-1014.561 -697.012)" fill="#364154"/>
        <path id="Trazado_817334" data-name="Trazado 817334" d="M1303.826,917.438a1.083,1.083,0,1,1-1.083-1.083,1.083,1.083,0,0,1,1.083,1.083" transform="translate(-1014.561 -714.24)" fill="#364154"/>
        <path id="Trazado_817335" data-name="Trazado 817335" d="M399.011,973.005H.464A.465.465,0,0,1,0,972.542v-.186a.465.465,0,0,1,.464-.464H399.011a.465.465,0,0,1,.464.464v.186a.465.465,0,0,1-.464.464" transform="translate(0 -757.528)" fill="#364154"/>
        <path id="Trazado_817336" data-name="Trazado 817336" d="M46.9,925.006s-2.07,1.919-1.666,3.282,2.272,2.272,2.525,3.939,1.262,2.575,2.171,2.575h4.333s.669-1.172-.947-1.526-2.225-2.312-2.124-4.13a32.526,32.526,0,0,0-.152-4.241L47.6,924.1Z" transform="translate(-35.213 -720.275)" fill="#131f2d"/>
        <path id="Trazado_817337" data-name="Trazado 817337" d="M168.03,949.821a6.433,6.433,0,0,0,1.6.208h10.158c-.04-.315-.293-1.316-1.86-1.57-1.87-.3-5.151-1.415-5.706-3.888s-4.6.757-4.6.757-.5,4.038.4,4.493" transform="translate(-130.545 -735.506)" fill="#131f2d"/>
        <path id="Trazado_817338" data-name="Trazado 817338" d="M152.068,667.886s-.614,7.654-1.335,16.855c-.98,12.5-2.159,27.851-2.275,30.759-.2,5.051-1.01,13.129-1.01,13.129s-1.918,1.919-5.756,1.111a132.161,132.161,0,0,1-4.4-23.734c-.015-.2-.031-.4-.046-.6-.909-12.421-2.322-38.578-2.322-38.578Z" transform="translate(-105.166 -519.748)" fill="#364154"/>
        <path id="Trazado_817339" data-name="Trazado 817339" d="M152.068,667.886s-.614,7.654-1.335,16.855l-13.439,21.265c-.015-.2-.031-.4-.046-.6-.909-12.421-2.322-38.578-2.322-38.578Z" transform="translate(-105.166 -519.748)" fill="#131f2d"/>
        <path id="Trazado_817340" data-name="Trazado 817340" d="M85.385,658.09s-11.058,27.721-18.329,40.749S57.512,715.5,57.512,715.5s-4.166-1.666-4.544-2.8c0,0,2.78-25.15,7.65-31.281,2.752-3.464,5.983-13.86,6.135-17.5s.985-10.831.985-10.831Z" transform="translate(-41.285 -509.043)" fill="#364154"/>
        <path id="Trazado_817341" data-name="Trazado 817341" d="M290.239,658.361a46.658,46.658,0,0,1,4.427,2.354,10.169,10.169,0,0,1,1.722,3.019c-.1.178-.294.233-.647-.012s-1.346-1.267-1.383-1.077,2.649,3.35,2.174,4.019-3.167.471-4.7-.622-3.072-5.113-3.3-5.332c-1.961-1.861,1.714-2.348,1.714-2.348" transform="translate(-224.438 -513.151)" fill="#ff7955"/>
        <path id="Trazado_817342" data-name="Trazado 817342" d="M215.955,536.23c1.083-.943,1.112-1.181,1.112-1.181s-6.919-11.965-7.519-13.116-4.308-19.121-4.308-19.121L192.419,499.1s9.031,23.351,10.608,26.237c2.606,4.769,11.114,11.788,11.114,11.788a4,4,0,0,0,1.815-.89" transform="translate(-149.978 -389.013)" fill="#632059"/>
        <path id="Trazado_817343" data-name="Trazado 817343" d="M222.028,456.744s4.512,7.939,8.922,8.975a12.05,12.05,0,0,0-1.257-4.491c.44-.519.826-1,1.16-1.422a26.621,26.621,0,0,0,1.638-2.293l-1.5-4.024-1.016-2.73a13.127,13.127,0,0,1-1.587,2.287,10.8,10.8,0,0,1-6.363,3.7" transform="translate(-173.057 -351.338)" fill="#ff7955"/>
        <path id="Trazado_817344" data-name="Trazado 817344" d="M250.747,461.123a8.374,8.374,0,0,0,2.461,6.761,26.707,26.707,0,0,0,1.638-2.293l-1.5-4.024a8.556,8.556,0,0,0-2.6-.444" transform="translate(-195.412 -359.415)" fill="#ef6343"/>
        <path id="Trazado_817345" data-name="Trazado 817345" d="M256.071,438.091s-6.742-2.628-5.04-6.8,1.977-7.323,6.353-5.821,4.558,3.433,4.329,4.964-3.845,8.234-5.642,7.658" transform="translate(-195.448 -331.33)" fill="#ff7955"/>
        <path id="Trazado_817346" data-name="Trazado 817346" d="M115.037,514.719c2.718,3.909,23.052,9.133,22.809,6.428a29.464,29.464,0,0,1,0-5.337q.077-.87.216-1.844a42.563,42.563,0,0,1,4.481-13.423q.308-.6.64-1.2A41.04,41.04,0,0,0,146,493.009c1.409-4.071,1.979-7.967,1.266-10.512a.136.136,0,0,0-.011-.035c-4.249-1.965-5.9-9.586-5.9-9.586s-14.5,2.6-22.623,21.929c0,0-.78,2.122-1.671,5a56.777,56.777,0,0,0-2.546,11.384,5.948,5.948,0,0,0,.513,3.528" transform="translate(-89.238 -368.576)" fill="#632059"/>
        <path id="Trazado_817347" data-name="Trazado 817347" d="M244.366,412.5c-.047-.094-.184-.193-.519-.3a1.4,1.4,0,0,1,.679-.025,1.783,1.783,0,0,1,1.512-1.254,1.062,1.062,0,0,0-.677.624c1.183-.749,3.374-.967,8.846.856,7.211,2.4,3.608,6.588,2.515,6.924s-3.105-1.818-4.915-2.112-2.789,2.227-3.478,2.436-.3-.364-1.02-.939-1.137.777-1.122,1.726-1.407,1.9-1.407,1.9a13.422,13.422,0,0,0-.812-1.565c-.826-1.515-.6-7.017.188-8.007l.21-.265" transform="translate(-189.751 -320.287)" fill="#131f2d"/>
        <path id="Trazado_817348" data-name="Trazado 817348" d="M243.413,400.12s.835-6.707,5.687-6.334,6.91,2.878,7.226,6.6Z" transform="translate(-189.725 -306.919)" fill="#942d84"/>
        <path id="Trazado_817349" data-name="Trazado 817349" d="M226.035,416.871c.178-.038.362-.076.548-.11.07-.014.141-.027.211-.038a29.4,29.4,0,0,1,5.958-.383,30.982,30.982,0,0,1,4.379.44c.229.041.454.081.672.127.3.062.6.127.88.2,3.415.834,5.68,2.235,5.631,3.755-.049,1.606-2.3,2.913-6.074,3.485a5.238,5.238,0,0,0,.232-.851,3.956,3.956,0,0,0,1.4-2.1c.019-.537-.419-1.05-1.18-1.493a14.167,14.167,0,0,0-6.185-1.388,13.3,13.3,0,0,0-6.546,1.147s-.06,2.532-.027,3.107c.027.346.065.675.113.975-3.134-.845-5.175-2.184-5.129-3.628.046-1.407,2.065-2.589,5.116-3.245" transform="translate(-172.192 -324.497)" fill="#632059"/>
        <path id="Trazado_817350" data-name="Trazado 817350" d="M114.645,554.226c17.5-5.278,20.279-26.138,20.279-26.138s-9.962,7.613-17.734,14.754a56.779,56.779,0,0,0-2.546,11.384" transform="translate(-89.358 -411.611)" fill="#4d1845"/>
        <path id="Trazado_817351" data-name="Trazado 817351" d="M23.551,693.549l1.757-16.37,2.531.272a7.914,7.914,0,0,1,15.705,1.686l2.531.272-1.757,16.37a3.307,3.307,0,0,1-3.63,2.926l-14.211-1.526a3.306,3.306,0,0,1-2.926-3.63m12.865-22a7.294,7.294,0,0,0-7.949,5.965l14.451,1.552a7.3,7.3,0,0,0-6.5-7.517" transform="translate(-18.342 -522.909)" fill="#fff59d"/>
        <path id="Trazado_817352" data-name="Trazado 817352" d="M77.566,646.106a35.91,35.91,0,0,1,.3,3.85,6.89,6.89,0,0,1-.882,2.156c-.157.009-.632.028-.62-.3s.228-.64.089-.586-.178,1.3-.809,1.272-2.489-.732-2.413-2.183,2.054-4.109,2.1-4.35c.4-2.043,2.235.145,2.235.145" transform="translate(-57.076 -502.807)" fill="#ff7955"/>
        <path id="Trazado_817353" data-name="Trazado 817353" d="M82.077,527.168c1.388.636,1.9-.013,1.9-.013s8.086-13.5,8.937-14.587,15.778-7.491,15.778-7.491,6.075-2.322,6.315-6.007a6.64,6.64,0,0,0-3.6-6.356,6.72,6.72,0,0,0-7.555.488c-4.9,3.8-14.6,11.451-16.164,13.525-3.477,4.616-7.33,19.086-7.33,19.086a4.806,4.806,0,0,0,1.717,1.354" transform="translate(-62.636 -383.31)" fill="#632059"/>
        <path id="Trazado_817354" data-name="Trazado 817354" d="M320.673,735.512s7.11-3.269,13.935-1.756c0,0-8.288-3.688-13.935,1.756" transform="translate(-249.944 -570.964)" fill="#00a3fe"/>
        <path id="Trazado_817355" data-name="Trazado 817355" d="M317.064,752.027s7.773.9,12.82,5.739c0,0-5.166-7.457-12.82-5.739" transform="translate(-247.131 -585.957)" fill="#00a3fe"/>
        <path id="Trazado_817356" data-name="Trazado 817356" d="M315.077,714.715s7.773.9,12.82,5.739c0,0-5.166-7.457-12.82-5.739" transform="translate(-245.583 -556.874)" fill="#00a3fe"/>
        <path id="Trazado_817357" data-name="Trazado 817357" d="M367.473,750.838a13.067,13.067,0,0,1,6.556-3.272s-4.717-.383-6.556,3.272" transform="translate(-286.422 -582.671)" fill="#00a3fe"/>
        <path id="Trazado_817358" data-name="Trazado 817358" d="M358.338,847.146a13.066,13.066,0,0,1,6.556-3.273s-4.717-.383-6.556,3.273" transform="translate(-279.302 -657.737)" fill="#00a3fe"/>
        <path id="Trazado_817359" data-name="Trazado 817359" d="M285.689,692.726a13.065,13.065,0,0,1,6.556-3.272s-4.717-.383-6.556,3.272" transform="translate(-222.676 -537.376)" fill="#00a3fe"/>
        <path id="Trazado_817360" data-name="Trazado 817360" d="M298.853,765.811a13.065,13.065,0,0,1,6.78,2.778s-2.818-3.8-6.78-2.778" transform="translate(-232.937 -596.765)" fill="#00a3fe"/>
        <path id="Trazado_817361" data-name="Trazado 817361" d="M299.2,724.727a7.046,7.046,0,0,1,3.657,1.5s-1.52-2.05-3.657-1.5" transform="translate(-233.206 -564.805)" fill="#00a3fe"/>
        <path id="Trazado_817362" data-name="Trazado 817362" d="M341.924,702.622a7.046,7.046,0,0,1,3.657,1.5s-1.52-2.05-3.657-1.5" transform="translate(-266.508 -547.575)" fill="#00a3fe"/>
        <path id="Trazado_817363" data-name="Trazado 817363" d="M347.174,773.212a7.045,7.045,0,0,1,3.194-2.326s-2.543.218-3.194,2.326" transform="translate(-270.6 -600.856)" fill="#00a3fe"/>
        <path id="Trazado_817364" data-name="Trazado 817364" d="M403.171,855.11a7.044,7.044,0,0,1,3.379,2.049s-1.182-2.262-3.379-2.049" transform="translate(-314.246 -666.493)" fill="#00a3fe"/>
        <path id="Trazado_817365" data-name="Trazado 817365" d="M391.105,774.291a7.045,7.045,0,0,1,3.379,2.049s-1.182-2.262-3.379-2.049" transform="translate(-304.842 -603.5)" fill="#00a3fe"/>
        <path id="Trazado_817366" data-name="Trazado 817366" d="M343.784,840.959a13.065,13.065,0,0,1,6.78,2.778s-2.818-3.8-6.78-2.778" transform="translate(-267.958 -655.337)" fill="#00a3fe"/>
        <path id="Trazado_817367" data-name="Trazado 817367" d="M392.105,848.358a7.047,7.047,0,0,1,3.194-2.326s-2.543.218-3.194,2.326" transform="translate(-305.621 -659.428)" fill="#00a3fe"/>
        <path id="Trazado_817368" data-name="Trazado 817368" d="M1147.336,91.835a9.29,9.29,0,1,1-9.29-9.29,9.29,9.29,0,0,1,9.29,9.29" transform="translate(-879.794 -64.339)" fill="#f4f4f4"/>
      </g>
    </g>
  </g>
</svg>
