<svg xmlns="http://www.w3.org/2000/svg" xmlns:xlink="http://www.w3.org/1999/xlink" width="295" height="163" viewBox="0 0 295 163">
  <defs>
    <clipPath id="clip-path">
      <rect id="Rect치ngulo_377243" data-name="Rect치ngulo 377243" width="295" height="163" transform="translate(1020 2571)" fill="none" stroke="#707070" stroke-width="1"/>
    </clipPath>
    <clipPath id="clip-path-2">
      <rect id="Rect치ngulo_376983" data-name="Rect치ngulo 376983" width="152.214" height="152.182" fill="none"/>
    </clipPath>
  </defs>
  <g id="Enmascarar_grupo_181" data-name="Enmascarar grupo 181" transform="translate(-1020 -2571)" clip-path="url(#clip-path)">
    <g id="Grupo_1072557" data-name="Grupo 1072557" transform="translate(1098.999 2584)">
      <g id="Grupo_1072556" data-name="Grupo 1072556" transform="translate(-7 -8)" clip-path="url(#clip-path-2)">
        <path id="Trazado_818238" data-name="Trazado 818238" d="M116.7,29.007c.551.965,1.133,1.914,1.648,2.9a66.535,66.535,0,0,1,4.5,9.757q.856,2.567,1.643,5.152a68.575,68.575,0,0,1,1.677,7.541,22.618,22.618,0,0,1,.366,3.938c.012,1.883.506,3.76.27,5.647-.245,1.958-.048,3.926-.28,5.883a59.706,59.706,0,0,1-1.326,7.547c-.443,1.764-.789,3.561-1.389,5.275a54.7,54.7,0,0,1-3.443,8.645c-1.149,2.074-2.245,4.174-3.517,6.178a.525.525,0,0,0,.042.734c.533.542,1,1.147,1.536,1.685,3.566,3.581,7.1,7.2,10.727,10.713,6.312,6.114,12.45,12.4,18.681,18.6a13.854,13.854,0,0,1,3.557,5.575,13.161,13.161,0,0,1-.095,8.606,8.537,8.537,0,0,1-1.835,3.366,17.637,17.637,0,0,1-2.027,2.216,13.623,13.623,0,0,1-2.53,1.693,16.208,16.208,0,0,1-3.965,1.4,13.281,13.281,0,0,1-9.8-2.506,42.947,42.947,0,0,1-5.237-4.978c-1.681-1.675-3.43-3.284-5.081-4.988q-2.5-2.584-5.062-5.112c-1.885-1.869-3.752-3.76-5.659-5.609s-3.721-3.794-5.6-5.674c-1.477-1.479-2.989-2.923-4.481-4.387-.555-.544-1.109-1.089-1.64-1.655a.792.792,0,0,0-1.155-.131,64.231,64.231,0,0,1-6.441,3.549,77.107,77.107,0,0,1-7.479,3,63.262,63.262,0,0,1-7.7,2.117c-1.58.326-3.208.5-4.822.7-2.143.261-4.292.351-6.439.446a31.259,31.259,0,0,1-4.97-.062,55.531,55.531,0,0,1-6.679-.842c-1.935-.465-3.911-.775-5.844-1.27a66.129,66.129,0,0,1-8.651-3.112A64.546,64.546,0,0,1,31.6,118.2a50.616,50.616,0,0,1-6.26-4.04,66.532,66.532,0,0,1-8.889-8.244,63.987,63.987,0,0,1-9.2-13.18,66.746,66.746,0,0,1-3.662-8.515,54.5,54.5,0,0,1-2.361-8.834A60.674,60.674,0,0,1,.26,68.325a59.355,59.355,0,0,1-.225-6.771,53.077,53.077,0,0,1,.681-7.347c.387-2.009.8-4.012,1.2-6.017A49.67,49.67,0,0,1,3.9,41.72,58.863,58.863,0,0,1,7,34.687,65.032,65.032,0,0,1,12.428,25.9,62.328,62.328,0,0,1,23.852,13.873,64.417,64.417,0,0,1,38.973,5a54.286,54.286,0,0,1,8.36-2.786A73.07,73.07,0,0,1,54.619.7c1.964-.287,3.94-.3,5.892-.569A44.3,44.3,0,0,1,67.294.2a47.358,47.358,0,0,1,8.928,1.183A72.688,72.688,0,0,1,83.79,3.457a64.851,64.851,0,0,1,17.277,8.971,41.03,41.03,0,0,1,4.748,3.867,63.525,63.525,0,0,1,7.216,7.765,2.425,2.425,0,0,0,.862.676c-.08.3.178.457.314.624a22.066,22.066,0,0,1,2.488,3.646M5.361,57.6C5.028,95.263,31.19,121.561,62.9,121.726c32.454.169,58.633-25.123,58.861-58A57.941,57.941,0,0,0,64.113,5.368,56.385,56.385,0,0,0,22.58,22.139C11.161,33.44,5.563,47.311,5.361,57.6M147.07,138.78a7.927,7.927,0,0,0-2.3-5.679Q135.6,123.886,126.4,114.71c-.542-.542-1.109-1.061-1.646-1.609-.281-.286-.527-.344-.8-.016-.888,1.061-2.057,1.819-3.007,2.822-2.534,2.674-5.264,5.157-7.755,7.876-.379.414-.477.7-.02,1.093.32.272.6.588.9.885q9.195,9.183,18.4,18.357c2.095,2.076,4.532,3.431,7.638,2.878a7.972,7.972,0,0,0,6.963-8.218m-33.459-36.407c-.146.157-.322.328-.475.517-1.511,1.866-3.094,3.668-4.773,5.385-1.757,1.8-3.7,3.384-5.622,5-.481.4-.487.706-.01,1.038a6.1,6.1,0,0,1,1.263,1.131c1.385,1.7,3.155,3.025,4.549,4.716.347.42.673.435,1.139-.008,3.6-3.423,6.852-7.184,10.537-10.517.341-.308.348-.5.006-.825-2.09-2-4.151-4.037-6.138-6.143a.774.774,0,0,0-.475-.289" transform="translate(0 0)"/>
        <path id="Trazado_818239" data-name="Trazado 818239" d="M215.783,21.618c-.543.913-.886,1.926-1.4,2.846a8.637,8.637,0,0,1-1.321,1.566,10.325,10.325,0,0,1-5.177,2.981,9.718,9.718,0,0,1-6.445-.9,1.722,1.722,0,0,0-.806-.273c-.029-.14,0-.307-.156-.39a11.162,11.162,0,0,1-3.287-3.187,11.059,11.059,0,0,1-1.3-6.384,10.078,10.078,0,0,1,2.468-5.51,9.849,9.849,0,0,1,7.711-3.386,10,10,0,0,1,9.271,6.719,1.751,1.751,0,0,0,.406.846,4.994,4.994,0,0,0,.016.591,7.48,7.48,0,0,1-.126,3.93.567.567,0,0,0,.149.547m-14.877-2.71a5.081,5.081,0,0,0,4.967,5.1,4.986,4.986,0,1,0-4.967-5.1" transform="translate(-79.014 -3.626)" fill="#224f86"/>
        <path id="Trazado_818240" data-name="Trazado 818240" d="M229.179,26.658a.567.567,0,0,1-.149-.547,7.48,7.48,0,0,0,.126-3.93,4.991,4.991,0,0,1-.016-.591c3.559-.157,7.119-.114,10.679-.1,1.406,0,2.812.079,4.219.112.338.008.587.072.586.482q-.005,2.079,0,4.159a.369.369,0,0,1-.236.34l-.718-.013q-4.252.03-8.5.058-2.995.019-5.988.032" transform="translate(-92.41 -8.665)" fill="#134908"/>
        <path id="Trazado_818241" data-name="Trazado 818241" d="M195.22,34.6a11.169,11.169,0,0,0,3.287,3.187c.153.084.127.251.156.39-1.67,1.509-3.256,3.1-4.782,4.754-.028.03-.094.025-.141.037a22.064,22.064,0,0,0-2.488-3.646c-.137-.167-.394-.326-.314-.624,1.129-1.123,2.262-2.241,3.383-3.371a4.28,4.28,0,0,1,.9-.726" transform="translate(-77.043 -13.963)" fill="#134908"/>
        <path id="Trazado_818242" data-name="Trazado 818242" d="M253.593,30.013l.719.013a.864.864,0,0,1-.719-.013" transform="translate(-102.333 -12.111)" fill="#98c8e0"/>
        <path id="Trazado_818243" data-name="Trazado 818243" d="M8.986,61.229c.2-10.289,5.8-24.16,17.219-35.461A56.387,56.387,0,0,1,67.738,9a57.941,57.941,0,0,1,57.646,58.355c-.227,32.88-26.406,58.172-58.861,58C34.815,125.19,8.654,98.892,8.986,61.229m50.5-47.137c-8.251.137-21.208,5.985-31.578,17.29C17.5,42.728,12.992,56.286,14.234,71.595a51.406,51.406,0,0,0,17.97,35.54c11.455,10.053,25.007,14.28,40.111,12.971a50.7,50.7,0,0,0,32.717-15.7c11.091-11.412,16.207-25.211,15.106-41.115C118.285,36.5,95.7,13.727,59.482,14.092" transform="translate(-3.625 -3.63)" fill="#51007c"/>
        <path id="Trazado_818244" data-name="Trazado 818244" d="M223.427,215.136a7.972,7.972,0,0,1-6.963,8.218c-3.107.553-5.544-.8-7.638-2.878q-9.232-9.146-18.4-18.358c-.3-.3-.58-.613-.9-.885-.457-.39-.359-.679.02-1.092,2.491-2.72,5.221-5.2,7.755-7.877.951-1,2.119-1.76,3.007-2.821.275-.329.521-.271.8.016.537.548,1.1,1.066,1.646,1.609q9.19,9.19,18.368,18.391a7.925,7.925,0,0,1,2.3,5.679" transform="translate(-76.357 -76.355)" fill="#51007c"/>
        <path id="Trazado_818245" data-name="Trazado 818245" d="M182.872,171.633a.774.774,0,0,1,.475.289c1.987,2.106,4.048,4.14,6.138,6.143.342.327.335.517-.006.825-3.684,3.332-6.941,7.094-10.537,10.517-.466.443-.792.428-1.139.008-1.394-1.69-3.164-3.016-4.549-4.716a6.1,6.1,0,0,0-1.263-1.131c-.477-.332-.471-.634.01-1.038,1.921-1.612,3.865-3.2,5.622-5,1.679-1.717,3.261-3.519,4.773-5.385.153-.189.329-.36.475-.517" transform="translate(-69.261 -69.259)" fill="#134908"/>
        <path id="Trazado_818246" data-name="Trazado 818246" d="M204.353,22.328a4.987,4.987,0,1,1,4.967,5.1,5.081,5.081,0,0,1-4.967-5.1" transform="translate(-82.461 -7.046)" fill="#f8f9fb"/>
        <path id="Trazado_818247" data-name="Trazado 818247" d="M62.9,17.537c36.222-.364,58.8,22.4,60.657,49.195,1.1,15.9-4.015,29.7-15.106,41.115a50.7,50.7,0,0,1-32.717,15.7c-15.1,1.309-28.656-2.918-40.111-12.971A51.405,51.405,0,0,1,17.65,75.04c-1.242-15.309,3.263-28.867,13.67-40.213,10.37-11.3,23.327-17.153,31.578-17.29m46.9,25.4a1.505,1.505,0,0,0-.342-.716,46.716,46.716,0,0,0-8.021-8.562,21.7,21.7,0,0,0-3.87-2.783c-.143-.122-.277-.256-.43-.364a41.852,41.852,0,0,0-11-5.4,49.288,49.288,0,0,0-6.6-1.73,56.24,56.24,0,0,0-7.847-.831c-1.251-.057-2.512.068-3.762.091a42.378,42.378,0,0,0-7.535.94,45.692,45.692,0,0,0-13.339,5.026A47.741,47.741,0,0,0,32.946,40.592a48.855,48.855,0,0,0-8.168,15.135,45.532,45.532,0,0,0-1.208,4.717c-.083.382-.182.762-.246,1.147-.216,1.292-.42,2.586-.628,3.88a45.836,45.836,0,0,0-.286,5.282c.074,1.389.052,2.787.217,4.181a63.688,63.688,0,0,0,1.07,6.612,47.065,47.065,0,0,0,3.014,8.887,48.891,48.891,0,0,0,9.5,13.945,44.243,44.243,0,0,0,6.272,5.364,33.5,33.5,0,0,0,5.863,3.477,26.032,26.032,0,0,0,4.93,2.332,49.451,49.451,0,0,0,8.893,2.44,49.983,49.983,0,0,0,6.114.694,49.092,49.092,0,0,0,7.679-.261,51.534,51.534,0,0,0,7.95-1.593,51.667,51.667,0,0,0,7.225-2.822,47.285,47.285,0,0,0,7.6-4.456,37.549,37.549,0,0,0,5.492-4.667,51.964,51.964,0,0,0,4.524-5.037,58.215,58.215,0,0,0,3.761-5.751,58.626,58.626,0,0,0,3.428-7.543,49.545,49.545,0,0,0,1.972-7.447,44.969,44.969,0,0,0,.761-7.6A47.575,47.575,0,0,0,118.4,65.7a35.884,35.884,0,0,0-.781-5.211,55.421,55.421,0,0,0-1.85-6.312c-.764-2.175-1.76-4.225-2.712-6.3a1.067,1.067,0,0,0-.479-.538,37.656,37.656,0,0,0-2.773-4.4" transform="translate(-7.041 -7.075)"/>
        <path id="Trazado_818248" data-name="Trazado 818248" d="M27.71,63.832a45.532,45.532,0,0,1,1.208-4.717,48.848,48.848,0,0,1,8.168-15.135A47.732,47.732,0,0,1,51.2,32a45.692,45.692,0,0,1,13.339-5.026,42.378,42.378,0,0,1,7.535-.94c1.25-.023,2.511-.147,3.762-.091a56.239,56.239,0,0,1,7.847.831,49.409,49.409,0,0,1,6.6,1.73,41.86,41.86,0,0,1,11,5.4c.153.108.287.242.43.364a1.3,1.3,0,0,0,.437,1.383c.389.444.8.872,1.148,1.349a45.567,45.567,0,0,1,6.744,13.314c-.16.18-.326.354-.479.54-.536.653-1.315,1.081-1.724,1.851a3.156,3.156,0,0,1-.478-.191,9.306,9.306,0,0,0-6.082-1.126A9.924,9.924,0,0,0,94.094,56c-1.788,2.662-1.795,5.55-1.094,8.51a12.641,12.641,0,0,0,.918,2.116c-.827.361-1.25,1.153-1.851,1.752q-7.023,7-14.025,14.011c-.214.215-.541.37-.554.744-.646-.284-1.284-.588-1.94-.848a12.226,12.226,0,0,0-5.22-.429,4.661,4.661,0,0,0-1.083.258,16.646,16.646,0,0,1-2.326.92c-.187-.222-.36-.457-.563-.664-2.113-2.151-4.216-4.312-6.351-6.441a47.142,47.142,0,0,0-4.522-4.27c.113-.273.215-.549.339-.817a9.823,9.823,0,0,0-.274-9.417,9.542,9.542,0,0,0-5.258-4.352,9.292,9.292,0,0,0-6.221-.33,9.963,9.963,0,0,0-6.533,5.835c-.18.448-.424.87-.639,1.3-.112-.043-.226-.129-.335-.122-2.95.2-5.9.036-8.853.075" transform="translate(-11.182 -10.462)" fill="#b6e4ff"/>
        <path id="Trazado_818249" data-name="Trazado 818249" d="M51.69,142.348a33.516,33.516,0,0,1-5.863-3.477,44.275,44.275,0,0,1-6.272-5.364,48.891,48.891,0,0,1-9.5-13.945,47.107,47.107,0,0,1-3.014-8.887,63.677,63.677,0,0,1-1.07-6.611c-.165-1.394-.143-2.791-.217-4.181a45.84,45.84,0,0,1,.286-5.283l10.073-.007c.325.147.315.489.416.753a9.722,9.722,0,0,0,3.443,4.826,10,10,0,0,0,9.682,1.331,5.016,5.016,0,0,1,1.721-.636.833.833,0,0,0,.119.264c2.242,2.227,4.506,4.431,6.726,6.677,1.471,1.489,3.05,2.877,4.379,4.505-.041.214.014.446-.148.637a4.45,4.45,0,0,0-.812,2.138,9.957,9.957,0,0,0,3.743,10.438,10.143,10.143,0,0,0,5.078,2.059,9.4,9.4,0,0,0,6.38-1.687,10.148,10.148,0,0,0,4.65-8.525A7.548,7.548,0,0,0,80.3,112.94a1.157,1.157,0,0,1-.2-.76c.392-.1.523-.49.774-.74q7.311-7.28,14.593-14.59c.343-.345.848-.533,1.022-1.042a1.907,1.907,0,0,1,1.038.336,9.013,9.013,0,0,0,5.717.895,10.531,10.531,0,0,0,8.247-7.316c.393-.065.419.248.516.494.171.43-.085.823-.1,1.239a72.638,72.638,0,0,1-.545,7.9,53.49,53.49,0,0,1-1.777,7.917,55.072,55.072,0,0,1-4.758,10.751,46.371,46.371,0,0,1-4.175,6,42.64,42.64,0,0,1-4.591,4.881,52.5,52.5,0,0,1-7.051,5.538c-2,1.285-4.128,2.338-6.174,3.535a28.714,28.714,0,0,1-4.7,1.956,50.8,50.8,0,0,1-9.554,2.274c-1.291.207-2.584.315-3.88.444a37,37,0,0,1-6.911.017c-.595-.052-1.149-.307-1.725-.3a13.746,13.746,0,0,1-3.355-.242,1.1,1.1,0,0,0-1.018.221" transform="translate(-10.384 -36.203)" fill="#b6e4ff"/>
        <path id="Trazado_818250" data-name="Trazado 818250" d="M69.251,133.383a1.1,1.1,0,0,1,1.018-.221,13.748,13.748,0,0,0,3.355.242c.576,0,1.13.252,1.725.3a37,37,0,0,0,6.911-.017c1.3-.129,2.589-.237,3.88-.444a50.8,50.8,0,0,0,9.554-2.274,28.716,28.716,0,0,0,4.7-1.956c2.046-1.2,4.17-2.249,6.174-3.535a52.5,52.5,0,0,0,7.051-5.538,42.64,42.64,0,0,0,4.591-4.881,46.372,46.372,0,0,0,4.175-6,55.072,55.072,0,0,0,4.758-10.751,53.49,53.49,0,0,0,1.777-7.917,72.64,72.64,0,0,0,.545-7.9c.018-.416.273-.809.1-1.239-.1-.246-.123-.559-.516-.494a14.8,14.8,0,0,1,.157-1.521,7.747,7.747,0,0,0-.443-4.376,11.06,11.06,0,0,1-.781-2.1,1.78,1.78,0,0,0,.845-.555q2.324-2.357,4.649-4.711a1.067,1.067,0,0,1,.479.538c.952,2.08,1.948,4.13,2.712,6.3a55.3,55.3,0,0,1,1.85,6.312,35.8,35.8,0,0,1,.781,5.211,47.578,47.578,0,0,1,.283,5.811,44.967,44.967,0,0,1-.761,7.6,49.612,49.612,0,0,1-1.971,7.447,58.758,58.758,0,0,1-3.429,7.544,58.2,58.2,0,0,1-3.761,5.75,52.033,52.033,0,0,1-4.523,5.038,37.617,37.617,0,0,1-5.492,4.666,47.333,47.333,0,0,1-7.6,4.457,51.664,51.664,0,0,1-7.225,2.822,51.53,51.53,0,0,1-7.95,1.593,49.1,49.1,0,0,1-7.679.261,50.115,50.115,0,0,1-6.114-.695,49.431,49.431,0,0,1-8.893-2.439,26.059,26.059,0,0,1-4.93-2.332" transform="translate(-27.945 -27.237)" fill="#98c8e0"/>
        <path id="Trazado_818251" data-name="Trazado 818251" d="M160.052,55.948a45.561,45.561,0,0,0-6.744-13.314c-.344-.478-.759-.9-1.148-1.349a1.3,1.3,0,0,1-.437-1.383,21.723,21.723,0,0,1,3.87,2.784,46.732,46.732,0,0,1,8.021,8.561,1.5,1.5,0,0,1,.342.716c-1.194,1.434-2.607,2.654-3.9,3.986" transform="translate(-61.197 -16.101)" fill="#98c8e0"/>
        <path id="Trazado_818252" data-name="Trazado 818252" d="M36.317,94.446l-10.073.007c.209-1.293.412-2.587.628-3.879.064-.386.163-.765.246-1.147,2.951-.038,5.9.122,8.853-.075.108-.007.222.079.334.122a23.845,23.845,0,0,0,.011,4.972" transform="translate(-10.59 -36.056)" fill="#134908"/>
        <path id="Trazado_818253" data-name="Trazado 818253" d="M164.243,64.108c1.3-1.332,2.711-2.552,3.9-3.986a37.669,37.669,0,0,1,2.774,4.4q-2.325,2.355-4.649,4.71a1.781,1.781,0,0,1-.845.555,11.791,11.791,0,0,0-3.389-3.287c.41-.771,1.189-1.2,1.725-1.852.152-.186.319-.36.479-.54" transform="translate(-65.388 -24.261)" fill="#134908"/>
        <path id="Trazado_818254" data-name="Trazado 818254" d="M43.035,89.433a23.809,23.809,0,0,1-.011-4.973c.214-.434.458-.855.639-1.3A9.961,9.961,0,0,1,50.2,77.321a9.293,9.293,0,0,1,6.221.33A9.541,9.541,0,0,1,61.675,82a9.823,9.823,0,0,1,.274,9.417c-.125.267-.227.545-.339.817a9.3,9.3,0,0,1-3.152,3.156c-.085.047-.109.206-.162.313a5.013,5.013,0,0,0-1.721.636,10,10,0,0,1-9.682-1.331,9.721,9.721,0,0,1-3.442-4.826c-.1-.264-.091-.607-.416-.753M57.9,86.983A4.908,4.908,0,0,0,52.932,82a4.986,4.986,0,1,0,.088,9.971c3.122-.06,5.158-2.831,4.876-4.989" transform="translate(-17.308 -31.043)" fill="#224f86"/>
        <path id="Trazado_818255" data-name="Trazado 818255" d="M104.21,124.223a1.16,1.16,0,0,0,.2.76,7.546,7.546,0,0,1,1.189,4.433,10.147,10.147,0,0,1-4.65,8.524,9.4,9.4,0,0,1-6.38,1.687,10.144,10.144,0,0,1-5.078-2.059,9.958,9.958,0,0,1-3.743-10.438,4.45,4.45,0,0,1,.812-2.138c.162-.19.107-.423.148-.637.858-.748,1.366-1.813,2.294-2.5.43-.319.956-.534,1.231-1.04a16.719,16.719,0,0,0,2.326-.919,4.632,4.632,0,0,1,1.083-.258,12.23,12.23,0,0,1,5.221.429c.655.26,1.293.564,1.939.848a16.316,16.316,0,0,1,3.408,3.31m-8.773,10.257a4.969,4.969,0,1,0,.053-9.938,4.848,4.848,0,0,0-5.023,4.973,4.919,4.919,0,0,0,4.97,4.965" transform="translate(-34.496 -48.246)" fill="#224f86"/>
        <path id="Trazado_818256" data-name="Trazado 818256" d="M151.712,69.858a11.793,11.793,0,0,1,3.389,3.288,11.068,11.068,0,0,0,.781,2.1,7.749,7.749,0,0,1,.443,4.377,14.78,14.78,0,0,0-.157,1.52,10.53,10.53,0,0,1-8.247,7.316,9.012,9.012,0,0,1-5.717-.894,1.907,1.907,0,0,0-1.038-.337A17.669,17.669,0,0,1,137.8,83.78a12.641,12.641,0,0,1-.918-2.116c-.7-2.96-.694-5.848,1.094-8.51a9.926,9.926,0,0,1,7.18-4.614,9.306,9.306,0,0,1,6.082,1.126,3.156,3.156,0,0,0,.478.191m-.324,8.677c.18-2.823-2.37-4.92-4.989-5a4.99,4.99,0,1,0,.277,9.974c2.14,0,4.975-2.193,4.712-4.971" transform="translate(-55.06 -27.62)" fill="#224f86"/>
        <path id="Trazado_818257" data-name="Trazado 818257" d="M127.6,94.154a17.6,17.6,0,0,0,3.368,3.445c-.174.51-.68.7-1.022,1.043q-7.283,7.31-14.593,14.59c-.251.251-.382.636-.774.739a16.347,16.347,0,0,0-3.408-3.31c.013-.374.34-.528.554-.743q7-7.016,14.025-14.012c.6-.6,1.025-1.391,1.851-1.752" transform="translate(-44.859 -37.994)" fill="#134908"/>
        <path id="Trazado_818258" data-name="Trazado 818258" d="M83.468,113.969c-.275.505-.8.721-1.231,1.04-.928.689-1.436,1.754-2.294,2.5-1.329-1.628-2.908-3.016-4.379-4.505-2.221-2.247-4.485-4.451-6.726-6.678a.823.823,0,0,1-.119-.263c.052-.107.076-.267.162-.313a9.31,9.31,0,0,0,3.152-3.157,47.127,47.127,0,0,1,4.522,4.269c2.135,2.13,4.238,4.29,6.351,6.441.2.207.376.442.563.664" transform="translate(-27.73 -41.4)" fill="#134908"/>
        <path id="Trazado_818259" data-name="Trazado 818259" d="M61.31,90.416c.282,2.159-1.754,4.929-4.876,4.989a4.986,4.986,0,1,1-.088-9.971,4.908,4.908,0,0,1,4.964,4.982" transform="translate(-20.723 -34.475)" fill="#b6e4ff"/>
        <path id="Trazado_818260" data-name="Trazado 818260" d="M98.808,137.852a4.919,4.919,0,0,1-4.97-4.965,4.848,4.848,0,0,1,5.023-4.973,4.969,4.969,0,1,1-.053,9.938" transform="translate(-37.867 -51.617)" fill="#b6e4ff"/>
        <path id="Trazado_818261" data-name="Trazado 818261" d="M154.751,81.975c.262,2.778-2.572,4.967-4.712,4.971a4.99,4.99,0,1,1-.277-9.974c2.62.083,5.17,2.179,4.989,5" transform="translate(-58.424 -31.06)" fill="#b6e4ff"/>
      </g>
    </g>
  </g>
</svg>
