<svg id="Grupo_260763" data-name="Grupo 260763" xmlns="http://www.w3.org/2000/svg" xmlns:xlink="http://www.w3.org/1999/xlink" width="116.024" height="97.721" viewBox="0 0 116.024 97.721">
  <defs>
    <clipPath id="clip-path">
      <rect id="Rectángulo_325029" data-name="Rectángulo 325029" width="116.024" height="97.721" fill="none"/>
    </clipPath>
  </defs>
  <g id="Grupo_260762" data-name="Grupo 260762" clip-path="url(#clip-path)">
    <path id="Trazado_278543" data-name="Trazado 278543" d="M106.88,72.192c1.414.53,1.751,1.667,1.714,3.022-.014.525.042,1.056-.01,1.576-.192,1.906-.079,3.425,2.208,4.278.96.358,1.834,1.982,2.013,3.144.239,1.549.279,2.771,1.672,4a5.092,5.092,0,0,1,.937,6.147,5.548,5.548,0,0,1-5.155,3.328c-.239.007-.478,0-.717,0q-40.859,0-81.719,0c-1.863,0-2.42-.392-2.769-1.916l1.478-1.522,48.188,0c.378.028.756.079,1.134.08,1.7,0,2.637-.844,2.634-2.375,0-1.748-.606-2.283-2.619-2.3-.57,0-1.14.045-1.709.069-1.807-.026-3.615-.108-5.419-.058-1.362.038-2.415-.3-2.94-1.658a1.992,1.992,0,0,1,2.367-1.789c.84.061,1.692-.03,2.538-.053h5.061c.164-1.805-.852-3.044-2.5-2.777a20.212,20.212,0,0,1-2.844.077c-.658-.018-1.317-.012-1.973-.06A2.5,2.5,0,0,1,65.973,81.8c-.139-.479.473-1.177.744-1.776h4.8a50,50,0,0,0-1.59-15.64,51.315,51.315,0,0,0-5.481-13.971l-.323-.432H59.833a14.852,14.852,0,0,0-1.982-.064A1.714,1.714,0,0,1,55.7,48.14c.184-1.677,1.493-1.6,2.677-1.718,3.343.022,6.686.071,10.028.053,1.614-.008,2.3-.729,2.308-2.217a2.1,2.1,0,0,0-2.317-2.4c-3.343-.025-6.687.023-10.03.041-.19-.018-.38-.051-.569-.051q-21.854,0-43.708,0c-.334,0-.752-.09-.985.072-.625.433-1.492.892-1.661,1.507a2.608,2.608,0,0,0,.561,2.238,4.125,4.125,0,0,0,2.54.792c11.321.049,22.642.032,33.964.034,2.078,0,2.342.241,2.473,2.216-.34,1.186-1.3,1.193-2.266,1.193-9.7,0-19.406.034-29.108-.039a2.486,2.486,0,0,0-2.689,1.686c-.682,1.635-1.461,3.229-2.137,4.867a54.851,54.851,0,0,0-4.319,19.849c-.08,3.691-.018,3.712,3.647,3.7,1.114,0,2.1.206,2.061,1.509-.036,1.172-.9,1.665-2.057,1.656-1.673-.013-3.346-.024-5.019,0-2.027.032-2.745.878-2.559,3.1,2.365,0,4.746.039,7.124-.015,1.35-.031,2.279.4,2.608,1.786a2.4,2.4,0,0,1-2.636,1.661c-2.61-.06-5.223-.022-7.834-.007a1.98,1.98,0,0,0-2.224,1.69,2.239,2.239,0,0,0,1.671,2.8l14.1.081,1.416,1.773a2.3,2.3,0,0,1-2.5,1.709c-4.348-.088-8.7-.006-13.047-.085a5.018,5.018,0,0,1-4.87-3.884c-.581-1.9-.563-3.973,1.121-5.471a4.33,4.33,0,0,0,1.6-3.534,4.268,4.268,0,0,1,2.67-4.1,1.857,1.857,0,0,0,1.3-2.126,59.107,59.107,0,0,1,4.957-24.288c.567-1.321,1.184-2.619,1.818-4.018a6.769,6.769,0,0,1-5.533-3.8,5.642,5.642,0,0,1,4.038-7.757,11.208,11.208,0,0,0,2.2-.325A2.155,2.155,0,0,0,15.6,37.257,15.955,15.955,0,0,1,25.375,28.5c1.083-.376,2.269-.445,3.375-.768a8.6,8.6,0,0,0,2.374-1.022,17.637,17.637,0,0,1,7.51-2.97c.69-.095,1.374-.242,2.2-.39.674-3.7,1.385-7.471,2.006-11.258.05-.308-.441-.861-.81-1.056a5.664,5.664,0,0,1-3.369-5.373c.17-3.057,1.955-5.243,5.478-5.635A10.38,10.38,0,0,1,45.282.006q28.035,0,56.07,0a6.177,6.177,0,0,1,6.256,4.725c.419,1.942-.862,5.063-2.609,5.847a16.767,16.767,0,0,0-1.518.866c.47,2.836.917,5.582,1.382,8.324.636,3.759,1.33,7.509,1.914,11.276.393,2.538.67,5.1.946,7.651.963,8.923.441,17.88.61,26.821.024,1.247-.272,2.059-1.506,2.4-1.5-.188-1.653-1.236-1.69-2.475-.262-8.7-.484-17.4-.885-26.1a93.506,93.506,0,0,0-1.156-10.1c-.86-5.5-1.881-10.98-2.822-16.47-.129-.756-.437-1.148-1.294-1.1-1.287.066-2.579.011-3.869.007a10.463,10.463,0,0,0-1.5-.211q-22.925-.018-45.85-.009H46.415c-.187.984-.379,1.89-.528,2.8-.438,2.681-.858,5.365-1.285,8.048-.452.856-.606,1.409.693,1.771a20.129,20.129,0,0,1,4.619,1.981c1.357.787,2.524,1.825,4.225,1.92a23.99,23.99,0,0,1,3.4.673v-4.9c.022-.857.056-1.714.063-2.571.017-2.206.847-3.1,3.059-3.1q12.524-.028,25.048,0c2.173,0,3.28,1.157,3.3,3.361.018,1.861-.073,3.725.027,5.58.085,1.573-.3,2.706-1.98,3.079A1.876,1.876,0,0,1,85.6,28c0-1.994-.041-3.988-.064-5.982l-.471-.468H61.531l-.468.469q0,1.581.007,3.161,0,2.434,0,4.868a4.213,4.213,0,0,0,.729,1.248,16.209,16.209,0,0,1,5,6.631c.148.369.871.606,1.369.716a14.682,14.682,0,0,1,2.472.327c3.084,1.306,4.177,3.854,3.278,7.45H85.605c0-3.3.033-6.444-.017-9.59-.019-1.2.226-2.119,1.513-2.459a2.211,2.211,0,0,1,1.923,2.375c-.039,3.381.013,6.763-.023,10.144-.022,1.985-1.1,2.989-3.1,3.011q-4.283.046-8.565.09l-8.9-.062-.244.222c1.331,3.192,2.7,6.368,3.964,9.588.278.709.488,1.126,1.323,1.08,1.376-.075,2.757-.065,4.135-.092,4.669.027,9.338.046,14.008.084A2.9,2.9,0,0,1,94.784,64c.014,2.479.02,4.957,0,7.436-.018,2.055-1.088,3.095-3.151,3.106q-5.719.03-11.438.045l-.573-.034a27.531,27.531,0,0,0-2.887-.283,4.611,4.611,0,0,0-1.43.5c-.094,1.433-.266,2.868-.234,4.3a1.887,1.887,0,0,0,.916,1.243c1.779,1.038,3.134,2.4,3.013,4.558a2.824,2.824,0,0,0,1.728,3.161c1.358,1.708,1.282,3.705,1.149,5.714.066.169.126.481.2.485.609.028,1.22,0,1.831-.015l3.463.009h21.214c.52.021,1.042.084,1.559.055A2.616,2.616,0,0,0,112.619,92a2.287,2.287,0,0,0-2.472-2.326c-.708-.025-1.419.032-2.129.052q-2.935-.034-5.871-.068c-1.147-.012-2.1-.284-2.242-1.654.081-1.34.8-1.868,2.12-1.778.84.057,1.689-.028,2.534-.049h5.088c.089-1.88-.831-2.964-2.51-3.018-.953-.031-1.908.035-2.863.057a13.42,13.42,0,0,1-2.392-.105c-.626-.135-1.528-.442-1.7-.9-.222-.6.152-1.428.27-2.157A28.659,28.659,0,0,1,103.591,80c1.3.112,1.671-.426,1.579-1.644-.089-1.183.054-2.383-.038-3.566a2.135,2.135,0,0,1,1.747-2.6M78.468,64.215c-1.54-.067-3.079-.141-4.62-.179-.083,0-.173.3-.259.46.289,1.969.541,3.944.908,5.9a1.3,1.3,0,0,0,1,.7c1.466.061,2.937-.007,4.405-.027H91.284V64.256H78.761l-.293-.041M100.547,3.484H95.977l-1.168-.008c-.285-.021-.57-.061-.855-.061q-24.43-.005-48.86,0a4.742,4.742,0,0,0-1.27.144,2.25,2.25,0,0,0-1.257,3.552c.686,1.009,1.692.919,2.681.919q24.215.007,48.43,0c.38,0,.761-.041,1.141-.062,2.429.018,4.857.047,7.286.05a2.083,2.083,0,0,0,2.16-1.71,2.111,2.111,0,0,0-1.47-2.7,9.3,9.3,0,0,0-2.248-.13M49.8,30.33a10.889,10.889,0,0,0-8.635-3.1,11.558,11.558,0,0,0-9.011,3.04,2.859,2.859,0,0,1-1.491.62,15.552,15.552,0,0,0-8.685,3.323,9.591,9.591,0,0,0-3.05,4.214h1.792q14.462,0,28.925,0c2.719,0,5.437-.04,8.156-.061h5.374c-1.489-4-6.781-7.423-11.4-7.114L49.8,30.33" transform="translate(0 -0.001)" fill="#010101"/>
    <path id="Trazado_278544" data-name="Trazado 278544" d="M74.545,306.722c.525,1.363,1.578,1.7,2.94,1.658,1.8-.05,3.612.032,5.419.058l.564,4.03q-23.365,0-46.73.017a5.031,5.031,0,0,0-1.462.477L33.8,314.484l-4.289.236-1.416-1.773a3.635,3.635,0,0,0-1.175-.462q-5.826-.053-11.653,0a4.713,4.713,0,0,0-1.272.384,2.239,2.239,0,0,1-1.671-2.8,1.98,1.98,0,0,1,2.225-1.69c2.611-.015,5.224-.053,7.834.007a2.4,2.4,0,0,0,2.636-1.661l49.529,0" transform="translate(-8.744 -218.709)" fill="#eaa978"/>
    <path id="Trazado_278545" data-name="Trazado 278545" d="M331.465,40.67c1.29,0,2.583.058,3.869-.007.857-.044,1.164.349,1.294,1.1.941,5.49,1.962,10.967,2.822,16.47a93.5,93.5,0,0,1,1.156,10.1c.4,8.694.622,17.4.885,26.1.037,1.239.191,2.287,1.69,2.475q.027,2.139.053,4.277a2.135,2.135,0,0,0-1.747,2.6c.092,1.182-.051,2.383.038,3.565.092,1.219-.275,1.756-1.579,1.644a28.95,28.95,0,0,0-3.134.051,8.373,8.373,0,0,1-.452-1.819c-.263-12.485.547-24.988-.6-37.458-.34-3.681-.664-7.371-1.224-11.023-.925-6.041-2.036-12.053-3.069-18.077" transform="translate(-236.354 -28.993)" fill="#cb7d50"/>
    <path id="Trazado_278546" data-name="Trazado 278546" d="M81.981,207.521l-49.529,0c-.329-1.386-1.258-1.817-2.608-1.786-2.379.054-4.76.015-7.124.015-.186-2.225.532-3.071,2.559-3.1,1.672-.027,3.346-.016,5.019,0,1.153.009,2.021-.484,2.057-1.656.04-1.3-.947-1.511-2.061-1.509-3.665.009-3.727-.013-3.647-3.7a54.846,54.846,0,0,1,4.319-19.849c.675-1.637,1.455-3.232,2.136-4.867a2.487,2.487,0,0,1,2.689-1.686c9.7.073,19.4.038,29.107.038.966,0,1.926-.007,2.266-1.193,1.468-1.057,3.144-.4,4.719-.57a1.713,1.713,0,0,0,2.147,1.777,14.9,14.9,0,0,1,1.982.065c.467,1.192.938,2.382,1.4,3.576.843,2.175,1.794,4.317,2.5,6.536A65.371,65.371,0,0,1,82.9,199.533c-.271.6-.883,1.3-.744,1.776a2.505,2.505,0,0,0,2.478,1.611c.656.048,1.315.042,1.973.06l.281,2.7c-.846.023-1.7.113-2.538.053a1.993,1.993,0,0,0-2.367,1.788M57.173,194.056q9.105,0,18.21,0c2.3,0,3.365-1.08,3.375-3.41.009-2.246,0-4.493,0-6.739,0-2.551-1.052-3.587-3.633-3.588q-17.78,0-35.56,0c-.43,0-.862-.009-1.289.033a2.282,2.282,0,0,0-2.342,2.576q-.015,3.872-.011,7.743c0,2.7.7,3.384,3.468,3.385q8.89,0,17.78,0" transform="translate(-16.18 -119.508)" fill="#f4b887"/>
    <path id="Trazado_278547" data-name="Trazado 278547" d="M205.951,40.148c1.033,6.024,2.143,12.037,3.069,18.077.559,3.651.884,7.342,1.223,11.023,1.15,12.47.34,24.973.6,37.458a8.372,8.372,0,0,0,.452,1.819c-.118.73-.492,1.553-.27,2.158.167.456,1.069.764,1.7.9a13.421,13.421,0,0,0,2.392.106q.142,1.48.285,2.96c-.845.021-1.694.106-2.534.049-1.32-.09-2.039.439-2.12,1.778l-13.123.013q-.137,0-.274-.012c-.627-1.052-1.264-2.1-1.874-3.16a8.881,8.881,0,0,1-.43-1.017c-.688-1.643-1.269-3.343-2.1-4.911-.743-1.405-2.491-2.337-1.913-4.327q5.719-.022,11.438-.045c2.063-.011,3.133-1.05,3.151-3.106.022-2.478.016-4.957,0-7.436a2.9,2.9,0,0,0-3.168-3.194c-4.669-.038-9.338-.057-14.008-.084-.615-2.168-1.16-4.36-1.877-6.493a1.889,1.889,0,0,1,.5-2.351,7.359,7.359,0,0,0,1.107-1.893q4.283-.044,8.565-.09c2-.022,3.081-1.026,3.1-3.011.037-3.381-.016-6.763.023-10.144a2.211,2.211,0,0,0-1.924-2.375q-.022-2.137-.045-4.275c1.679-.373,2.064-1.506,1.98-3.079-.1-1.855-.009-3.72-.027-5.581-.021-2.2-1.128-3.356-3.3-3.361q-12.524-.024-25.048,0c-2.212,0-3.042.9-3.059,3.1-.007.857-.041,1.714-.063,2.571a4.284,4.284,0,0,0-.945-.281c-3.445-.21-6.893-.376-10.337-.613a6.914,6.914,0,0,1-1.653-.548c.427-2.683.847-5.367,1.285-8.048.149-.913.341-1.819.528-2.8h1.349q22.925,0,45.85.009a10.463,10.463,0,0,1,1.5.211" transform="translate(-110.841 -28.471)" fill="#de955e"/>
    <path id="Trazado_278548" data-name="Trazado 278548" d="M238.8,83.643q.023,2.137.045,4.274c-1.287.339-1.532,1.26-1.513,2.459.05,3.146.017,6.293.017,9.59h-6.282c0-.765-.064-1.536.012-2.293.513-5.064-4.419-10.124-8.744-10.657a2.235,2.235,0,0,1-1.389-.839,24.942,24.942,0,0,0-7.669-7.166l-.463-.285q0-1.581-.007-3.161l.468-.469h23.534l.471.468c.023,1.994.06,3.988.064,5.981a1.877,1.877,0,0,0,1.456,2.1" transform="translate(-151.746 -53.548)" fill="#f5f8f9"/>
    <path id="Trazado_278549" data-name="Trazado 278549" d="M104.845,105.866c-2.718.022-5.437.059-8.156.062q-14.462.011-28.924,0H65.972a9.591,9.591,0,0,1,3.05-4.214,15.555,15.555,0,0,1,8.685-3.323,2.86,2.86,0,0,0,1.491-.62,11.556,11.556,0,0,1,9.011-3.039c2.365,2.463,5.517,2.733,8.635,3.1l1.978.92c.25.208.485.438.752.62a13.92,13.92,0,0,1,5.272,6.493M93.092,101.46a1.459,1.459,0,0,0,1.562,1.765,1.534,1.534,0,0,0,1.6-1.73c-.052-1.1-.584-1.658-1.634-1.623-.986.033-1.754.407-1.528,1.588M81.493,103a1.464,1.464,0,0,0,1.763-1.551A1.561,1.561,0,0,0,81.5,99.862a1.456,1.456,0,0,0-1.6,1.562c-.019,1.013.407,1.731,1.589,1.571m8.146-4.712c.1-1.111-.394-1.613-1.56-1.605-1.035.007-1.638.335-1.6,1.458.033,1.061.546,1.721,1.626,1.7.91-.022,1.683-.352,1.538-1.548" transform="translate(-47.042 -67.503)" fill="#fee177"/>
    <path id="Trazado_278550" data-name="Trazado 278550" d="M199.479,16.448c-.38.022-.761.063-1.141.063q-24.215,0-48.43,0c-.989,0-2,.089-2.681-.919a2.249,2.249,0,0,1,1.257-3.552,4.731,4.731,0,0,1,1.27-.145q24.43-.01,48.86,0c.285,0,.57.04.855.061l.011,4.5" transform="translate(-104.66 -8.477)" fill="#cc7d50"/>
    <path id="Trazado_278551" data-name="Trazado 278551" d="M84,152.076c-1.575.172-3.251-.487-4.719.57-.131-1.974-.4-2.216-2.473-2.216-11.321,0-22.642.015-33.964-.034a4.121,4.121,0,0,1-2.54-.792,2.608,2.608,0,0,1-.561-2.238c.169-.615,1.036-1.074,1.661-1.507.233-.162.651-.071.985-.071q21.854,0,43.708,0c.19,0,.38.033.569.051q.006,2.26.011,4.519c-1.184.117-2.493.041-2.677,1.718" transform="translate(-28.294 -103.938)" fill="#eaa978"/>
    <path id="Trazado_278552" data-name="Trazado 278552" d="M215.4,204.229a65.375,65.375,0,0,0-2.982-19.933c-.708-2.219-1.658-4.36-2.5-6.536-.463-1.193-.933-2.384-1.4-3.576h4.291l.323.432a51.305,51.305,0,0,1,5.481,13.971,49.99,49.99,0,0,1,1.589,15.64Z" transform="translate(-148.687 -124.204)" fill="#eaa978"/>
    <path id="Trazado_278553" data-name="Trazado 278553" d="M213.3,88.738A24.948,24.948,0,0,1,220.97,95.9a2.232,2.232,0,0,0,1.389.84c4.326.533,9.257,5.593,8.744,10.657-.077.757-.012,1.528-.012,2.293h-5.407c.9-3.6-.194-6.144-3.278-7.45a14.709,14.709,0,0,0-2.472-.327c-.5-.11-1.221-.347-1.369-.716a16.209,16.209,0,0,0-5-6.631,4.214,4.214,0,0,1-.729-1.248,4.294,4.294,0,0,0,.437-1.189c.061-1.128.023-2.262.024-3.394" transform="translate(-151.768 -63.276)" fill="#e8edf2"/>
    <path id="Trazado_278554" data-name="Trazado 278554" d="M302.443,306.712l13.123-.013c.144,1.369,1.1,1.642,2.242,1.654q2.935.031,5.871.068l.563,4.5H303.028q-.293-3.1-.585-6.205" transform="translate(-215.66 -218.695)" fill="#cb7d50"/>
    <path id="Trazado_278555" data-name="Trazado 278555" d="M274.457,223.935H286.98v6.814H275.595q-.575-3.293-1.15-6.586.006-.114.012-.228" transform="translate(-195.696 -159.679)" fill="#fee177"/>
    <path id="Trazado_278556" data-name="Trazado 278556" d="M266.734,259.868c-.578,1.99,1.169,2.921,1.913,4.326.83,1.568,1.41,3.269,2.1,4.911a8.937,8.937,0,0,0,.43,1.017c.61,1.062,1.247,2.108,1.874,3.16l-5.784.024a2.824,2.824,0,0,1-1.727-3.161c.121-2.162-1.234-3.52-3.013-4.558a1.886,1.886,0,0,1-.916-1.243c-.031-1.43.14-2.865.234-4.3l4.318-.213.573.034" transform="translate(-186.541 -185.277)" fill="#cb7d50"/>
    <path id="Trazado_278557" data-name="Trazado 278557" d="M246.783,174.06a7.357,7.357,0,0,1-1.107,1.893,1.889,1.889,0,0,0-.5,2.351c.717,2.133,1.262,4.325,1.877,6.493-1.378.026-2.759.016-4.135.092-.835.046-1.045-.372-1.323-1.081-1.262-3.219-2.632-6.4-3.964-9.588l.245-.222,8.9.062" transform="translate(-169.448 -124.071)" fill="#cb7d50"/>
    <path id="Trazado_278558" data-name="Trazado 278558" d="M203.431,150.431l-.011-4.519c3.343-.018,6.687-.065,10.031-.04a2.1,2.1,0,0,1,2.316,2.4c-.006,1.487-.694,2.208-2.308,2.217-3.343.018-6.685-.032-10.028-.053" transform="translate(-145.051 -104.011)" fill="#de955e"/>
    <path id="Trazado_278559" data-name="Trazado 278559" d="M154.634,77.742a6.911,6.911,0,0,0,1.653.548c3.444.236,6.892.4,10.337.613a4.272,4.272,0,0,1,.945.282v4.9a24.007,24.007,0,0,0-3.4-.673c-1.7-.1-2.868-1.134-4.225-1.92a20.115,20.115,0,0,0-4.619-1.982c-1.3-.363-1.145-.915-.693-1.771" transform="translate(-110.031 -55.435)" fill="#cb7d50"/>
    <path id="Trazado_278560" data-name="Trazado 278560" d="M330.424,16.606l-.011-4.5,1.168.008a5.552,5.552,0,0,0,4.57,0,9.3,9.3,0,0,1,2.248.13,2.111,2.111,0,0,1,1.47,2.7,2.082,2.082,0,0,1-2.16,1.71c-2.429,0-4.857-.031-7.286-.05" transform="translate(-235.604 -8.635)" fill="#bf7049"/>
    <path id="Trazado_278561" data-name="Trazado 278561" d="M261.621,224.666l1.15,6.586c-1.469.02-2.94.088-4.406.027a1.3,1.3,0,0,1-1-.7c-.368-1.954-.619-3.93-.908-5.9l4.839-.037.321.025" transform="translate(-182.872 -160.182)" fill="#fed15b"/>
    <path id="Trazado_278562" data-name="Trazado 278562" d="M186.476,115.972a13.918,13.918,0,0,0-5.272-6.493c-.267-.182-.5-.412-.752-.62,4.617-.308,9.909,3.116,11.4,7.114Z" transform="translate(-128.673 -77.608)" fill="#fed15b"/>
    <path id="Trazado_278563" data-name="Trazado 278563" d="M281.332,306.729l5.784-.024c.091,0,.183.009.274.011l.585,6.205-3.463-.009-2.03-.47c.133-2.008.209-4.005-1.149-5.714" transform="translate(-200.607 -218.699)" fill="#bf7049"/>
    <path id="Trazado_278564" data-name="Trazado 278564" d="M92.462,327.243a5.032,5.032,0,0,1,1.462-.477q23.365-.037,46.73-.017l0,.492-48.188,0" transform="translate(-65.931 -232.99)" fill="#f6b27e"/>
    <path id="Trazado_278565" data-name="Trazado 278565" d="M377.014,317.051q-.281-2.248-.563-4.5c.71-.02,1.421-.076,2.129-.052a2.287,2.287,0,0,1,2.472,2.326,2.615,2.615,0,0,1-2.478,2.278c-.517.029-1.039-.034-1.559-.055" transform="translate(-268.432 -222.829)" fill="#bf7049"/>
    <path id="Trazado_278566" data-name="Trazado 278566" d="M259.007,317.059l0-.492-.564-4.029c.57-.024,1.14-.072,1.709-.069,2.014.012,2.616.547,2.619,2.295,0,1.531-.931,2.38-2.634,2.375-.378,0-.756-.052-1.134-.08" transform="translate(-184.288 -222.809)" fill="#de955e"/>
    <path id="Trazado_278567" data-name="Trazado 278567" d="M363.688,292.811q-.143-1.48-.285-2.96c.954-.022,1.91-.088,2.863-.058,1.679.054,2.6,1.139,2.51,3.018Z" transform="translate(-259.128 -206.634)" fill="#cb7d50"/>
    <path id="Trazado_278568" data-name="Trazado 278568" d="M245.713,293.32l-.281-2.7a20.219,20.219,0,0,0,2.844-.077c1.646-.267,2.662.972,2.5,2.777Z" transform="translate(-175.008 -207.149)" fill="#eaa978"/>
    <path id="Trazado_278569" data-name="Trazado 278569" d="M152.1,97.919c-3.118-.364-6.27-.634-8.635-3.1a10.889,10.889,0,0,1,8.635,3.1" transform="translate(-102.3 -67.59)" fill="#fed15b"/>
    <path id="Trazado_278570" data-name="Trazado 278570" d="M18.289,327.129a4.711,4.711,0,0,1,1.272-.384q5.826-.045,11.653,0a3.642,3.642,0,0,1,1.175.462l-14.1-.081" transform="translate(-13.041 -232.972)" fill="#f6b27e"/>
    <path id="Trazado_278571" data-name="Trazado 278571" d="M261.3,223.59l-4.839.037c.087-.16.177-.462.259-.46,1.541.038,3.08.112,4.62.178a.906.906,0,0,1-.04.244" transform="translate(-182.872 -159.131)" fill="#0f0b08"/>
    <path id="Trazado_278572" data-name="Trazado 278572" d="M213.3,88.031c0,1.132.037,2.265-.024,3.394a4.3,4.3,0,0,1-.437,1.189q0-2.434,0-4.867l.463.285" transform="translate(-151.764 -62.568)" fill="#feffff"/>
    <path id="Trazado_278573" data-name="Trazado 278573" d="M339.055,12.138a5.554,5.554,0,0,1-4.571,0h4.571" transform="translate(-238.507 -8.655)" fill="#cc7d50"/>
    <path id="Trazado_278574" data-name="Trazado 278574" d="M266.753,259.132l-4.318.213a4.607,4.607,0,0,1,1.43-.5,27.45,27.45,0,0,1,2.887.283" transform="translate(-187.132 -184.575)" fill="#0f0b08"/>
    <path id="Trazado_278575" data-name="Trazado 278575" d="M285.337,326.7l2.03.47c-.611.012-1.222.042-1.831.015-.073,0-.133-.316-.2-.485" transform="translate(-203.462 -232.957)" fill="#cb7d50"/>
    <path id="Trazado_278576" data-name="Trazado 278576" d="M296.928,75.566l-.471-.468.471.468" transform="translate(-211.392 -53.549)" fill="#feffff"/>
    <path id="Trazado_278577" data-name="Trazado 278577" d="M213.277,75.1l-.468.469.468-.469" transform="translate(-151.746 -53.548)" fill="#feffff"/>
    <path id="Trazado_278578" data-name="Trazado 278578" d="M223.8,174.621l-.323-.432.323.432" transform="translate(-159.35 -124.207)" fill="#f4b887"/>
    <path id="Trazado_278579" data-name="Trazado 278579" d="M273.325,224.033a.907.907,0,0,0,.04-.244l.293.042c0,.076-.008.152-.012.228l-.321-.025" transform="translate(-194.897 -159.575)" fill="#cd9a71"/>
    <path id="Trazado_278580" data-name="Trazado 278580" d="M237.879,174l-.245.222.245-.222" transform="translate(-169.448 -124.07)" fill="#9a5e3c"/>
    <path id="Trazado_278581" data-name="Trazado 278581" d="M90.057,225.659q-8.89,0-17.78,0c-2.771,0-3.467-.681-3.468-3.386q0-3.871.011-7.743a2.281,2.281,0,0,1,2.341-2.576c.427-.042.859-.033,1.289-.033q17.78,0,35.56,0c2.581,0,3.628,1.037,3.632,3.588,0,2.246.008,4.493,0,6.739-.009,2.33-1.076,3.408-3.374,3.41q-9.105.007-18.21,0M72.19,215.61c-.015,1.929-.053,3.858-.02,5.787,0,.264.358.522.551.783q11.79.033,23.58.061c3.81,0,7.62-.039,11.429-.061l.248-.264q0-3.155,0-6.311l-.254-.234-34.412,0-1.119.236" transform="translate(-49.064 -151.111)"/>
    <path id="Trazado_278582" data-name="Trazado 278582" d="M160.389,114.4c-.226-1.181.541-1.555,1.528-1.588,1.05-.035,1.582.525,1.633,1.623a1.533,1.533,0,0,1-1.6,1.73,1.459,1.459,0,0,1-1.562-1.765" transform="translate(-114.338 -80.437)" fill="#010101"/>
    <path id="Trazado_278583" data-name="Trazado 278583" d="M116.112,115.908c-1.182.16-1.608-.559-1.589-1.572a1.456,1.456,0,0,1,1.6-1.562,1.562,1.562,0,0,1,1.756,1.582,1.464,1.464,0,0,1-1.763,1.551" transform="translate(-81.661 -80.415)" fill="#010101"/>
    <path id="Trazado_278584" data-name="Trazado 278584" d="M140.586,103.28c.145,1.2-.628,1.526-1.538,1.548-1.079.026-1.593-.634-1.626-1.7-.035-1.123.568-1.451,1.6-1.458,1.166-.008,1.663.494,1.56,1.605" transform="translate(-97.989 -72.5)" fill="#010101"/>
    <path id="Trazado_278585" data-name="Trazado 278585" d="M117.423,230.756c-3.81.022-7.62.064-11.429.061q-11.79-.011-23.58-.06c0-1.694-.042-3.389.027-5.08a5.114,5.114,0,0,1,.551-1.48.787.787,0,0,0,.01-.246l34.412,0,.254.234q0,3.156,0,6.311l-.248.264" transform="translate(-58.757 -159.688)" fill="#f5f8f9"/>
    <path id="Trazado_278586" data-name="Trazado 278586" d="M81.622,224.79a5.1,5.1,0,0,0-.551,1.48c-.07,1.691-.027,3.386-.027,5.08-.192-.261-.546-.519-.551-.783-.033-1.928,0-3.858.02-5.787l1.109.01" transform="translate(-57.387 -160.282)" fill="#feffff"/>
    <path id="Trazado_278587" data-name="Trazado 278587" d="M81.7,224.2l-1.109-.01,1.119-.236a.788.788,0,0,1-.01.246" transform="translate(-57.469 -159.694)" fill="#cacccd"/>
    <path id="Trazado_278588" data-name="Trazado 278588" d="M204.678,224.182l-.254-.234.254.234" transform="translate(-145.767 -159.688)" fill="#cacccd"/>
    <path id="Trazado_278589" data-name="Trazado 278589" d="M204.455,247.021l.248-.264-.248.264" transform="translate(-145.789 -175.953)" fill="#feffff"/>
  </g>
</svg>
