<svg xmlns="http://www.w3.org/2000/svg" xmlns:xlink="http://www.w3.org/1999/xlink" width="295" height="163" viewBox="0 0 295 163">
  <defs>
    <clipPath id="clip-path">
      <rect id="Rect치ngulo_377247" data-name="Rect치ngulo 377247" width="295" height="163" transform="translate(1020 2571)" fill="none" stroke="#707070" stroke-width="1"/>
    </clipPath>
    <clipPath id="clip-path-2">
      <rect id="Rect치ngulo_376986" data-name="Rect치ngulo 376986" width="159.526" height="163" fill="none"/>
    </clipPath>
  </defs>
  <g id="Enmascarar_grupo_183" data-name="Enmascarar grupo 183" transform="translate(-1020 -2571)" clip-path="url(#clip-path)">
    <g id="Grupo_1072872" data-name="Grupo 1072872" transform="translate(1096 2571)">
      <g id="Grupo_1072571" data-name="Grupo 1072571" clip-path="url(#clip-path-2)">
        <path id="Trazado_818263" data-name="Trazado 818263" d="M128.169,70.314c.082.621-.571.905-.66,1.448a35.3,35.3,0,0,0-7.573-3.506,38.262,38.262,0,0,0-5.987-1.437,22.03,22.03,0,0,0-3.8-.31l-.044-.042-.046.04a23.1,23.1,0,0,0-5.627.2A31.65,31.65,0,0,0,98,68.214a33.013,33.013,0,0,0-9.852,5.108,37.847,37.847,0,0,0-3.732,3.4,34.391,34.391,0,0,0-5.535,7.188,29.232,29.232,0,0,0-3.707,9.609,36.542,36.542,0,0,0-.918,7.173,40.259,40.259,0,0,0,.357,5.866,49.513,49.513,0,0,0,1.423,5.662,22.346,22.346,0,0,0,.975,2.723,38.786,38.786,0,0,0,7.074,10.616,31.809,31.809,0,0,0,3.222,3.044,28.63,28.63,0,0,0,5.117,3.47,37.282,37.282,0,0,0,9.887,3.5,24.206,24.206,0,0,0,4.83.691,38.139,38.139,0,0,0,7.233-.449,38.846,38.846,0,0,0,5.476-1.4c.768-.267,1.406-.439,2,.379a11.458,11.458,0,0,0,2.158,2,10.618,10.618,0,0,0,4.324,2c.33.527-.049.975-.163,1.452a1.826,1.826,0,0,0-1.484,1.905c-.006,5.4.022,10.806-.017,16.209a9.513,9.513,0,0,1-1.93,6.216,7.973,7.973,0,0,1-4.452,2.85,14.562,14.562,0,0,1-3.42.172q-42,.024-84.009.035a8.953,8.953,0,0,1-4.281-.737,8.227,8.227,0,0,1-4.645-6.423,42.881,42.881,0,0,1-.129-6.11q-.026-41.224-.008-82.448,0-12.57.006-25.139c0-1.805-.349-2.241-2.114-2.653-.071-.017-.128-.1-.193-.148.658-1.678.114-3.393.153-5.09A2.135,2.135,0,0,0,23.8,36.621a30.8,30.8,0,0,1,.147-4.9,8.2,8.2,0,0,1,4.444-5.837,9.365,9.365,0,0,1,4.412-.825q23.069.011,46.139.007c.355,0,.709.034,1.064.052a10.011,10.011,0,0,0,1.246,3.095,10.271,10.271,0,0,0,9.386,5.334c8.713.06,17.426.019,26.138.019,1.325,0,1.325,0,1.325,1.29,0,6.232-.021,12.462.008,18.693a10.263,10.263,0,0,0,5.116,9.356c1.045.629,2.114,1.389,3.427.6.01,1.645.013,3.289.032,4.933a1.747,1.747,0,0,0,1.482,1.878M36.587,157.152c.463,1.413.923,1.742,2.49,1.736,3.819-.014,7.638-.043,11.456-.047.873,0,1.746.122,2.618.105,1.844-.036,2.577-.8,2.578-2.639q.006-10.046-.005-20.092c0-1.677-.678-2.379-2.347-2.382q-10.015-.016-20.03.012c-1.986.006-2.619.672-2.621,2.64q-.007,7.359,0,14.718c0,1.929,0,3.858.019,5.787a1.8,1.8,0,0,0,1.819,1.8c1.254.04,1.674-.805,1.967-1.8a8.238,8.238,0,0,0,2.059.161M53.61,94.036q.008-1.014.017-2.028c.232-.314.608-.177.909-.289,1.292-.477,1.171-1.651,1.181-2.626.048-4.519.011-9.038-.01-13.557-.009-1.973-.49-2.737-2.776-2.752-6.456-.043-12.912-.015-19.368-.017a7.938,7.938,0,0,0-1.306.137,2.116,2.116,0,0,0-1.533,1.966c.017,6.834,0,13.668,0,20.5,0,.22.013.441.029.66a2.188,2.188,0,0,0,2.113,1.883c6.786-.024,13.572-.009,20.357,0a3.477,3.477,0,0,0,1.406-.332c.785-.342,1.073-.9.985-1.957a1.526,1.526,0,0,0-1.159-1.345c-.276-.1-.563-.165-.845-.247M51.831,128.4c.31.451.627.449.948.011.384-.018.769-.018,1.151-.057a1.739,1.739,0,0,0,1.673-1.5c.008-.874.084-1.745.093-2.614.038-3.777.013-7.554.017-11.331,0-2.426.019-4.852.021-7.278a1.941,1.941,0,0,0-1.287-2.114,5.043,5.043,0,0,0-1.842-.252q-9.4-.007-18.8.01a9.641,9.641,0,0,0-1.474.116,1.717,1.717,0,0,0-1.606,1.921q.014,10.42,0,20.841a1.94,1.94,0,0,0,2.143,2.214c1.841.027,3.683.007,5.524.011q6.719.012,13.438.027m49.1-90.162c-.749-.275-1.26.214-1.6.751a19.656,19.656,0,0,0-1.325,2.631c-.535,1.23-1.161,2.413-1.779,3.6a.789.789,0,0,1-.567.413c-.8.139-1.6.23-2.406.351-1.542.231-3.086.451-4.623.715a1.49,1.49,0,0,0-1.1.863,1.971,1.971,0,0,0,.6,2.455q2.306,2.338,4.616,4.672c.128.13.324.206.275.457-.418,2.193-.807,4.391-1.253,6.578-.184.9.414,2.294,1.212,2.473a2.538,2.538,0,0,0,1.656-.24c1.715-.831,3.361-1.786,5-2.765A2.042,2.042,0,0,1,101.489,61a41.041,41.041,0,0,1,4.2,2.086,4.573,4.573,0,0,1,1.216.7,1.806,1.806,0,0,0,2.045.283,1.552,1.552,0,0,0,1.085-1.567,46.257,46.257,0,0,0-.812-5.612c-.174-1.311-.287-2.359.917-3.22a14.4,14.4,0,0,0,1.8-1.686,21.481,21.481,0,0,0,2.455-2.543,1.827,1.827,0,0,0,.142-1.877,2.042,2.042,0,0,0-1.677-1.088c-2.018.029-3.957-.588-5.959-.689a1.826,1.826,0,0,1-1.616-1.261c-.793-1.764-1.672-3.49-2.537-5.222-.361-.723-.837-1.317-1.821-1.077M56.705,64.167c1.214.007,1.926-.639,1.847-1.8a27.555,27.555,0,0,0-.906-5.38,2.869,2.869,0,0,1,1-3.377,30.781,30.781,0,0,0,4-4.034,1.8,1.8,0,0,0-1.087-2.924q-3.355-.532-6.72-1a.874.874,0,0,1-.748-.526c-.886-1.847-1.795-3.684-2.636-5.551A2.159,2.159,0,0,0,49.4,38.04a1.949,1.949,0,0,0-1.828,1.29c-.9,1.818-1.8,3.641-2.639,5.486a1.268,1.268,0,0,1-1.089.822q-2.85.407-5.695.854c-.947.15-1.919.314-2.266,1.422-.33,1.051.33,1.711.979,2.365,1.339,1.345,2.67,2.7,4.024,4.028a1.58,1.58,0,0,1,.431,1.4c-.3,2.048-.7,4.082-1.019,6.128a1.808,1.808,0,0,0,.149,1.349,1.955,1.955,0,0,0,2.846.733c1.848-.95,3.676-1.94,5.49-2.951a1.144,1.144,0,0,1,1.273-.013c1.85,1.01,3.733,1.961,5.6,2.94a1.666,1.666,0,0,0,1.046.279m9.308-11.238c.022,1.941,1.43,2.662,2.89,1.985,1.737-.8,3.333-1.86,5.026-2.737,1.4-.723,2.354-.132,3.306.422,1.534.891,3.132,1.645,4.684,2.493a1.461,1.461,0,0,0,1.7-.294,1.645,1.645,0,0,0,.8-1.433c-.324-1.879-.576-3.784-1.049-5.62a2.827,2.827,0,0,1,1.173-3.424c.022-.015.054-.018.073-.036a41.824,41.824,0,0,0,3.908-3.9,1.642,1.642,0,0,0-1.014-2.676,34.341,34.341,0,0,0-5.341-.8c-1.435-.116-2.447-.521-2.987-2.016-.559-1.549-1.363-3.009-2.073-4.5a1.968,1.968,0,0,0-1.632-1.3,1.874,1.874,0,0,0-2.019,1.072Q72,33.019,70.637,35.924a1.024,1.024,0,0,1-.821.645c-2.028.469-4.127.489-6.144.987-.4.1-.845.026-1.224.3a1.707,1.707,0,0,0-.272,2.84c1.551,1.578,3.143,3.116,4.722,4.666.219.216.494.422.4.762-.43,1.5-.518,3.067-.862,4.585-.189.837-.32,1.688-.419,2.218m9.869,96.69v.012c2.992,0,5.984,0,8.977,0a13.127,13.127,0,0,0,1.722-.105,1.816,1.816,0,0,0,1.509-1.7,1.675,1.675,0,0,0-1.324-1.786,7.272,7.272,0,0,0-2.1-.234c-5.709-.044-11.42-.028-17.13-.019a19.259,19.259,0,0,0-1.972.108,1.8,1.8,0,0,0-1.365,2.751,2.325,2.325,0,0,0,2.3.97c3.129.011,6.259,0,9.388,0m0,9.23v.048c2.913,0,5.826.005,8.738,0a18.392,18.392,0,0,0,1.89-.1,1.749,1.749,0,0,0,1.464-1.163,1.808,1.808,0,0,0-1.162-2.33,7.476,7.476,0,0,0-2.02-.206q-8.781-.009-17.562,0c-.521,0-1.044.03-1.564.074a2.091,2.091,0,0,0-1.771,1.379c-.275.626.132,1.158.486,1.644a1.894,1.894,0,0,0,1.691.666q4.9,0,9.811,0m22.211-9.28v.048c.411,0,.823.01,1.233,0,.438-.013.878-.019,1.312-.075a1.794,1.794,0,0,0,1.63-1.821,1.685,1.685,0,0,0-1.613-1.823,24.761,24.761,0,0,0-5.249-.005,1.62,1.62,0,0,0-1.344.756,1.812,1.812,0,0,0,1.406,2.9,23.291,23.291,0,0,0,2.625.018m-.187,5.587c-.849,0-1.7-.042-2.547.011a1.855,1.855,0,0,0-1.666,1.757,1.832,1.832,0,0,0,1.421,1.836,23.647,23.647,0,0,0,5.742.009,1.658,1.658,0,0,0,1.412-1.731c.011-.968-.383-1.408-1.361-1.746a9.415,9.415,0,0,0-3-.136" transform="translate(-7.27 -8.475)" fill="#e2e1e2"/>
        <path id="Trazado_818264" data-name="Trazado 818264" d="M15.39,32.372c-.039,1.7.5,3.412-.153,5.09-1.285.725-1.41,1.9-1.409,3.24q.035,53.165.02,106.331c0,1.5-.34,1.748-1.84,1.336-.158-.043-.322-.062-.48-.1a8.066,8.066,0,0,1-6.546-8.334c0-2.012,0-4.024,0-6.036A2.163,2.163,0,0,0,3,131.417l-.01-2.7a2.154,2.154,0,0,0,1.791-1.274,4.429,4.429,0,0,0,.2-1.795q0-55.782,0-111.563a8.716,8.716,0,0,1,.089-1.4,8.151,8.151,0,0,1,8.279-6.854q42.955,0,85.91-.008a9.366,9.366,0,0,1,2.576.342c3.813,1.1,5.727,4.245,5.947,7.9.035.577-.267.6-.7.6-2.253-.017-4.506-.02-6.759-.02q-36.607,0-73.214-.012A30.837,30.837,0,0,0,24,14.859a8.1,8.1,0,0,0-2.926.714,12.952,12.952,0,0,0-5.546,4.968,10.98,10.98,0,0,0-1.6,4.539c-.12,1.591-.021,3.2-.087,4.793a2.212,2.212,0,0,0,1.549,2.5" transform="translate(-1.012 -1.971)" fill="#89ba54"/>
        <path id="Trazado_818265" data-name="Trazado 818265" d="M14.383,30.4a2.212,2.212,0,0,1-1.549-2.5c.066-1.6-.033-3.2.087-4.793a10.98,10.98,0,0,1,1.6-4.539A12.953,12.953,0,0,1,20.07,13.6,8.1,8.1,0,0,1,23,12.887a30.836,30.836,0,0,1,3.105-.216q36.607.023,73.214.012c2.253,0,4.506,0,6.759.02.437,0,.74-.022.7-.6-.22-3.659-2.134-6.809-5.947-7.9a9.366,9.366,0,0,0-2.576-.342q-42.955.006-85.91.008a8.151,8.151,0,0,0-8.279,6.854,8.716,8.716,0,0,0-.089,1.4q-.006,55.781,0,111.563a4.429,4.429,0,0,1-.2,1.795,2.154,2.154,0,0,1-1.791,1.274C.669,126.707.1,125.765.018,124.307c-.008-.138,0-.275,0-.414q0-56.16.034-112.319a10.753,10.753,0,0,1,4.741-8.99A11.759,11.759,0,0,1,9.886.21,24.853,24.853,0,0,1,13.651,0q30.3,0,60.6,0L97.092,0a15.666,15.666,0,0,1,6.482,1.173,11.881,11.881,0,0,1,4.9,4.306,11.673,11.673,0,0,1,2.018,6.551c.014.546.157.656.682.667a12.027,12.027,0,0,1,10.62,6.451,10.717,10.717,0,0,1,1.391,5.365c.007,10.725.017,21.45-.046,32.174-.005.891.078,1.774.059,2.658-.039,1.788-.465,2.558-2.294,2.495a1.747,1.747,0,0,1-1.482-1.878c-.019-1.644-.022-3.288-.032-4.933.009-.3.026-.6.023-.907-.1-9.877.2-19.757-.152-29.633a7.425,7.425,0,0,0-.822-3.435A8.063,8.063,0,0,0,111.13,16.6c-1.537-.028-3.074-.005-4.611-.005q-15.654,0-31.308,0c-.823,0-1.645.028-2.468.044-.355-.018-.709-.052-1.064-.052q-23.069,0-46.139-.007a9.382,9.382,0,0,0-4.412.825,8.2,8.2,0,0,0-4.444,5.838,30.8,30.8,0,0,0-.147,4.9A2.135,2.135,0,0,1,14.383,30.4" transform="translate(-0.004)"/>
        <path id="Trazado_818266" data-name="Trazado 818266" d="M155.294,159.907a10.622,10.622,0,0,1-4.324-2,11.454,11.454,0,0,1-2.158-2c-.594-.819-1.23-.647-2-.38a38.939,38.939,0,0,1-5.476,1.4,38.137,38.137,0,0,1-7.233.449,24.127,24.127,0,0,1-4.83-.691,37.282,37.282,0,0,1-9.887-3.5,28.648,28.648,0,0,1-5.116-3.47,31.736,31.736,0,0,1-3.223-3.044,38.787,38.787,0,0,1-7.073-10.617,22.414,22.414,0,0,1-.976-2.723,49.665,49.665,0,0,1-1.423-5.663,40.249,40.249,0,0,1-.357-5.865,36.529,36.529,0,0,1,.919-7.173,29.234,29.234,0,0,1,3.706-9.609,34.392,34.392,0,0,1,5.535-7.187,37.855,37.855,0,0,1,3.733-3.4,33,33,0,0,1,9.852-5.108A31.687,31.687,0,0,1,131.4,87.83a23.1,23.1,0,0,1,5.627-.2l.042.115.048-.113a21.969,21.969,0,0,1,3.8.311,38.3,38.3,0,0,1,5.987,1.437,35.27,35.27,0,0,1,7.572,3.506,31.286,31.286,0,0,0,2.868,2.089,41.674,41.674,0,0,1,4.426,4.1,36.856,36.856,0,0,1,4.116,5.5,30.482,30.482,0,0,1,3.324,7.791c.475,1.694.776,3.416,1.208,5.112a5.011,5.011,0,0,1,.059.815,23.679,23.679,0,0,1,.181,5.84c-.144.88-.044,1.792-.148,2.7a23.6,23.6,0,0,1-.411,2.473c-.341,1.519-.819,3.009-1.286,4.5a1.082,1.082,0,0,0,.3,1.292,24.991,24.991,0,0,1,2.38,2.561,8.773,8.773,0,0,1,1.807,4.284,9.87,9.87,0,0,1-.374,4.711.723.723,0,0,0,.249.83c2.14,2.123,4.289,4.236,6.422,6.366,1.089,1.087,2.133,2.218,3.228,3.3.776.765,1.688,1.4,2.391,2.228,1.251,1.465,2.7,2.722,4.008,4.129a22.369,22.369,0,0,1,3.127,3.551,8.323,8.323,0,0,1,.206,8.947,8.437,8.437,0,0,1-8.108,4.384,7.318,7.318,0,0,1-4.956-2.121c-1.829-1.821-3.616-3.686-5.435-5.517q-4.733-4.765-9.484-9.512c-1.207-1.21-2.418-2.416-3.615-3.637-.235-.24-.432-.183-.721-.115a16.262,16.262,0,0,1-3.756.609c-.42,0-.77-.265-1.183-.177M105.1,121.865c-.343.149-.363.306-.011.472.077,1.723.068,3.457.256,5.168a22.276,22.276,0,0,0,1.377,4.948,40.141,40.141,0,0,0,2.476,5.537,28.644,28.644,0,0,0,8.473,9.411,34.538,34.538,0,0,0,7.372,4.1,28.352,28.352,0,0,0,9.13,1.913,23.382,23.382,0,0,0,4.416-.108c1.743-.208,3.476-.433,5.193-.792a24.057,24.057,0,0,0,6.741-2.7,33.546,33.546,0,0,0,7.345-5.35,31.96,31.96,0,0,0,5.369-7.172,29.169,29.169,0,0,0,3.6-12.851,27.437,27.437,0,0,0,.043-4.238c-.127-1.322-.216-2.652-.474-3.949a30.247,30.247,0,0,0-3.361-8.958,32.3,32.3,0,0,0-4.676-6.439,30.333,30.333,0,0,0-6.945-5.392,24.006,24.006,0,0,0-6.848-2.936,43.089,43.089,0,0,0-6.125-1,30.244,30.244,0,0,0-8.465.365,34.612,34.612,0,0,0-7.133,2.355,22.648,22.648,0,0,0-6.088,3.676,33.089,33.089,0,0,0-6.942,7.923A15.824,15.824,0,0,0,108,109.007c-.517,1.748-1.629,3.259-1.963,5.087-.185,1.013-.521,2.014-.673,3.018a46.3,46.3,0,0,0-.265,4.754m80.062,54.55a4.486,4.486,0,0,0,4.286-2.854,4.681,4.681,0,0,0-.976-5.406q-8.513-8.578-17.061-17.122c-.52-.522-.909-.51-1.434.04-1.746,1.83-3.529,3.625-5.322,5.41-.733.731-.759.7-.014,1.445q3.975,3.959,7.947,7.92,4.432,4.435,8.853,8.882a4.76,4.76,0,0,0,3.721,1.685M169.636,143.94a6.3,6.3,0,0,0-2.294-5.239c-.251-.23-.341-.205-.522.107a51.515,51.515,0,0,1-4.017,5.954,37.047,37.047,0,0,1-9.59,8.175c-1.161.739-1.226.673-.158,1.617,2.386,2.109,5.486,2.265,7.728.163,2.384-2.236,4.656-4.6,6.9-6.976a5.876,5.876,0,0,0,1.953-3.8" transform="translate(-34.231 -29.596)"/>
        <path id="Trazado_818267" data-name="Trazado 818267" d="M1.989,147.582a2.164,2.164,0,0,1,1.979,2.481c.006,2.012,0,4.024,0,6.036a8.067,8.067,0,0,0,6.546,8.334c.159.038.323.057.48.1,1.5.412,1.84.161,1.84-1.336q0-53.166-.02-106.331c0-1.342.125-2.514,1.409-3.239.064.05.121.13.193.147,1.765.413,2.114.848,2.114,2.653q0,12.571-.007,25.14,0,41.224.008,82.448a42.785,42.785,0,0,0,.13,6.11,8.228,8.228,0,0,0,4.645,6.423,8.951,8.951,0,0,0,4.281.737q42-.013,84.009-.036a14.592,14.592,0,0,0,3.42-.171,7.977,7.977,0,0,0,4.452-2.85,9.507,9.507,0,0,0,1.93-6.216c.039-5.4.011-10.805.017-16.208A1.827,1.827,0,0,1,120.9,149.9c1.682.083,2.288.712,2.289,2.427,0,5.623.077,11.248-.032,16.869a11.709,11.709,0,0,1-6.646,10.656,11.312,11.312,0,0,1-4.6,1.187c-2.359.172-4.725.069-7.087.07q-39.158.016-78.315.013a18.652,18.652,0,0,1-4.245-.267,12.119,12.119,0,0,1-9.546-11.869c-.009-.355-.036-.553-.477-.54a11.551,11.551,0,0,1-7.7-2.669,12.224,12.224,0,0,1-3.4-4.576,15.048,15.048,0,0,1-1.126-6.756c.031-1.488.009-2.976.014-4.465a2.2,2.2,0,0,1,1.968-2.4" transform="translate(0 -18.137)"/>
        <path id="Trazado_818268" data-name="Trazado 818268" d="M109.911,25.121c.823-.015,1.645-.044,2.468-.044q15.654,0,31.308,0c1.537,0,3.075-.023,4.611.006a8.063,8.063,0,0,1,7.309,4.448,7.427,7.427,0,0,1,.822,3.435c.35,9.877.054,19.756.152,29.633,0,.3-.015.6-.023.907-1.312.791-2.382.03-3.427-.6a10.263,10.263,0,0,1-5.116-9.356c-.029-6.231-.007-12.462-.008-18.693,0-1.29,0-1.29-1.325-1.29-8.713,0-17.426.041-26.138-.019a10.271,10.271,0,0,1-9.386-5.334,10.015,10.015,0,0,1-1.246-3.1" transform="translate(-37.172 -8.478)" fill="#f8f9fb"/>
        <path id="Trazado_818269" data-name="Trazado 818269" d="M56.549,168.355q-6.72-.014-13.438-.027c-1.841,0-3.683.017-5.523-.01a1.941,1.941,0,0,1-2.144-2.214q0-10.42,0-20.841a1.718,1.718,0,0,1,1.606-1.921,9.556,9.556,0,0,1,1.474-.115q9.4-.016,18.8-.01a5.029,5.029,0,0,1,1.842.252,1.94,1.94,0,0,1,1.287,2.114c0,2.426-.019,4.852-.021,7.278,0,3.777.022,7.554-.017,11.331-.009.869-.085,1.74-.093,2.613a1.739,1.739,0,0,1-1.673,1.506c-.381.039-.767.039-1.151.057l-.948-.012m.082-13.4c0-.2,0-.392,0-.588l.028-.037-.028-.037q0-.294,0-.588l.028-.036-.028-.036,0-.588.028-.037-.029-.036c0-.2,0-.394,0-.591l.029-.034-.028-.034c0-.2,0-.4.007-.594l.028-.033-.026-.034v-.594l.027-.034-.028-.033q0-.3-.005-.592l.028-.038-.029-.036.006-1.247.028-.039-.028-.04.006-1.418c.048-.134.1-.268-.071-.358a2.013,2.013,0,0,0-.4-.08c-5.463,0-10.926.005-16.388-.007-.492,0-.582.189-.58.637q.035,7.971.023,15.943c0,.584.118.829.763.826,5.326-.025,10.651-.017,15.977-.024.232,0,.51.087.645-.219l.04-.009-.025-.032q-.006-2.573-.013-5.146c0-.116,0-.232-.005-.347l.016-.429.03-.034-.028-.036,0-1.247.03-.037-.028-.038q0-.294,0-.588l.028-.036-.028-.036c0-.2,0-.393,0-.59l.028-.035-.027-.036c0-.2,0-.393,0-.59l.028-.037Z" transform="translate(-11.987 -48.435)"/>
        <path id="Trazado_818270" data-name="Trazado 818270" d="M58.325,118.413c.283.081.57.148.846.247A1.526,1.526,0,0,1,60.33,120c.088,1.054-.2,1.615-.985,1.958a3.487,3.487,0,0,1-1.406.331c-6.785-.007-13.571-.022-20.357,0a2.189,2.189,0,0,1-2.113-1.884c-.016-.22-.029-.44-.029-.66,0-6.834.017-13.668,0-20.5a2.116,2.116,0,0,1,1.533-1.967,7.938,7.938,0,0,1,1.306-.136c6.456,0,12.912-.026,19.368.017,2.287.016,2.767.779,2.776,2.752.021,4.519.058,9.039.01,13.557-.011.975.111,2.15-1.181,2.627-.3.111-.677-.026-.909.288a2.583,2.583,0,0,1-1.762-2.913c.024-.384,0-.771,0-1.156l.044-.019-.039-.031q.021-5.357.042-10.714c.054-.128.095-.253-.061-.343a10.336,10.336,0,0,0-2.849-.14c-2.714,0-5.427.021-8.141.033l-.022-.038-.021.041c-1.868,0-3.736.023-5.6,0-.524-.008-.721.095-.694.677.056,1.183.017,2.369.017,3.554,0,4.079.007,8.157-.014,12.235,0,.648.146.975.875.906.681-.064,1.373-.019,2.06-.02l16.152-.04" transform="translate(-11.985 -32.852)"/>
        <path id="Trazado_818271" data-name="Trazado 818271" d="M39.243,212.575c-.294,1-.713,1.844-1.968,1.8a1.8,1.8,0,0,1-1.819-1.8c-.019-1.928-.018-3.858-.019-5.787q0-7.359,0-14.718c0-1.967.635-2.634,2.621-2.641q10.015-.031,20.03-.011c1.669,0,2.346.7,2.348,2.382q.014,10.046,0,20.092c0,1.839-.734,2.6-2.578,2.639-.872.017-1.745-.106-2.618-.105-3.819,0-7.637.033-11.456.047-1.566.006-2.027-.323-2.489-1.736a1.942,1.942,0,0,1,2.082-2.05c.518-.034,1.039-.037,1.559-.038q5.665,0,11.329,0l.02.034.011-.038c.4-.078.3-.4.3-.656.013-1.24.028-2.481.029-3.721,0-4.107-.009-8.215.01-12.323,0-.579-.19-.785-.761-.752-.657.038-1.318.009-1.978.009q-6.967,0-13.934.015c-.338,0-.772-.178-.769.5.029,6.284.03,12.57.04,18.855" transform="translate(-11.985 -64.059)"/>
        <path id="Trazado_818272" data-name="Trazado 818272" d="M134.566,44.926c.985-.24,1.46.354,1.821,1.077.864,1.731,1.744,3.457,2.537,5.222a1.826,1.826,0,0,0,1.616,1.261c2,.1,3.94.718,5.959.689a2.043,2.043,0,0,1,1.677,1.088,1.828,1.828,0,0,1-.142,1.877,21.534,21.534,0,0,1-2.455,2.543,14.445,14.445,0,0,1-1.8,1.686c-1.2.861-1.091,1.909-.918,3.22a46.253,46.253,0,0,1,.812,5.612,1.552,1.552,0,0,1-1.085,1.567,1.805,1.805,0,0,1-2.045-.283,4.578,4.578,0,0,0-1.216-.7,40.978,40.978,0,0,0-4.2-2.086,2.043,2.043,0,0,0-1.847.189c-1.636.979-3.282,1.934-5,2.765a2.537,2.537,0,0,1-1.656.24c-.8-.179-1.4-1.572-1.212-2.473.447-2.187.835-4.385,1.253-6.578.048-.251-.147-.328-.275-.457q-2.309-2.336-4.616-4.672a1.971,1.971,0,0,1-.606-2.455,1.491,1.491,0,0,1,1.1-.863c1.537-.263,3.08-.484,4.622-.715.8-.12,1.608-.212,2.406-.351a.792.792,0,0,0,.567-.413c.617-1.189,1.243-2.371,1.779-3.6a19.5,19.5,0,0,1,1.325-2.631c.338-.537.848-1.026,1.6-.751m-4.629,20.511a23.3,23.3,0,0,0,2.84-1.447c.811-.406,1.7-.966,2.6-.48,1.131.614,2.339,1.065,3.435,1.74.15.092.294.2.444.113.207-.116.123-.351.091-.521-.1-.566-.211-1.134-.371-1.686-.537-1.857-.406-3.49,1.335-4.716.578-.406,1.028-.989,1.572-1.449.424-.359.244-.457-.159-.525-1.033-.173-2.061-.4-3.1-.5a2.3,2.3,0,0,1-2.079-1.327q-.72-1.527-1.462-3.043c-.09-.185-.14-.443-.434-.42-.241.02-.28.246-.36.407-.435.878-.868,1.758-1.28,2.647a2.459,2.459,0,0,1-2,1.633c-1.028.123-2.048.308-3.074.451a1.152,1.152,0,0,0-.715.272c.936.964,1.828,1.893,2.732,2.811a2.4,2.4,0,0,1,.609,2.353c-.242,1.173-.4,2.362-.625,3.688" transform="translate(-40.907 -15.167)"/>
        <path id="Trazado_818273" data-name="Trazado 818273" d="M64.013,70.8a1.671,1.671,0,0,1-1.046-.28c-1.868-.979-3.75-1.93-5.6-2.94a1.144,1.144,0,0,0-1.273.013c-1.815,1.011-3.643,2-5.49,2.951a1.955,1.955,0,0,1-2.846-.733,1.811,1.811,0,0,1-.15-1.349c.322-2.046.719-4.079,1.019-6.128a1.58,1.58,0,0,0-.431-1.4c-1.355-1.33-2.685-2.684-4.024-4.029-.65-.653-1.309-1.314-.98-2.365.347-1.108,1.32-1.272,2.266-1.422q2.844-.452,5.7-.854a1.267,1.267,0,0,0,1.088-.822c.843-1.846,1.738-3.668,2.639-5.486a1.949,1.949,0,0,1,1.828-1.29,2.159,2.159,0,0,1,2.052,1.533c.842,1.867,1.75,3.7,2.636,5.551a.873.873,0,0,0,.749.526q3.365.463,6.719,1a1.8,1.8,0,0,1,1.088,2.924,30.738,30.738,0,0,1-4,4.034,2.869,2.869,0,0,0-1,3.377A27.511,27.511,0,0,1,65.86,69c.079,1.163-.633,1.809-1.846,1.8M52.171,65.264a3,3,0,0,0,1.2-.478c.776-.408,1.539-.841,2.318-1.243a1.839,1.839,0,0,1,1.643-.083c1.177.535,2.354,1.075,3.49,1.69.566.306.643.047.592-.381a12.352,12.352,0,0,0-.4-2.345,3.017,3.017,0,0,1,1.02-3.619c.615-.5,1.143-1.109,1.715-1.664.168-.163.475-.3.4-.543-.088-.275-.421-.31-.7-.342-.991-.116-1.985-.219-2.973-.354a2.237,2.237,0,0,1-1.807-1.333q-.674-1.413-1.383-2.807c-.118-.231-.155-.6-.475-.613-.383-.011-.39.408-.518.657-.463.9-.887,1.827-1.351,2.73a2.13,2.13,0,0,1-1.719,1.248c-1.05.127-2.093.316-3.139.474-.215.032-.492-.014-.592.208-.14.31.2.408.356.57.751.765,1.52,1.512,2.268,2.279a1.582,1.582,0,0,1,.586,1.056,8.6,8.6,0,0,1-.23,2.613,7.186,7.186,0,0,0-.3,2.28" transform="translate(-14.577 -15.108)"/>
        <path id="Trazado_818274" data-name="Trazado 818274" d="M86.476,54.98c.1-.531.23-1.381.42-2.218.343-1.518.431-3.083.862-4.585.1-.34-.177-.546-.4-.762-1.579-1.55-3.171-3.088-4.722-4.666a1.707,1.707,0,0,1,.272-2.84c.379-.275.822-.2,1.224-.3,2.017-.5,4.114-.519,6.143-.987a1.025,1.025,0,0,0,.821-.645q1.372-2.9,2.825-5.765a1.873,1.873,0,0,1,2.019-1.072,1.968,1.968,0,0,1,1.632,1.3c.71,1.492,1.514,2.953,2.073,4.5.539,1.494,1.551,1.9,2.987,2.016a34.341,34.341,0,0,1,5.341.8,1.642,1.642,0,0,1,1.014,2.676,41.823,41.823,0,0,1-3.908,3.9c-.019.018-.052.021-.073.036a2.828,2.828,0,0,0-1.173,3.424c.473,1.836.725,3.742,1.049,5.62a1.648,1.648,0,0,1-.8,1.433,1.462,1.462,0,0,1-1.7.293c-1.551-.848-3.15-1.6-4.684-2.493-.952-.553-1.911-1.145-3.306-.422-1.693.878-3.289,1.933-5.026,2.737-1.46.676-2.868-.044-2.891-1.985m16.536-11.9a7.078,7.078,0,0,0-2.733-.687c-1.312-.146-2.418-.521-2.938-1.937a25.908,25.908,0,0,0-1.3-2.663c-.1-.2-.312-.583-.482-.228a13.526,13.526,0,0,0-1.139,2.045,3.22,3.22,0,0,1-2.778,2.649,19.983,19.983,0,0,1-2.674.312c-.28.005-.559.057-.664.342s.22.336.358.478c.692.707,1.4,1.4,2.1,2.1a2.774,2.774,0,0,1,.726,2.765c-.2.937-.281,1.9-.392,2.856-.082.706.216.629.7.357,1.026-.578,2.081-1.1,3.125-1.65a1.754,1.754,0,0,1,1.561.011,25.9,25.9,0,0,1,3.261,1.688c.435.253.62.126.553-.353a21.145,21.145,0,0,0-.43-2.607,2.934,2.934,0,0,1,.939-3.284c.75-.655,1.42-1.4,2.21-2.193" transform="translate(-27.732 -10.526)"/>
        <path id="Trazado_818275" data-name="Trazado 818275" d="M58.2,212.579q-5.663,0-11.329,0c-.52,0-1.04,0-1.559.038a1.942,1.942,0,0,0-2.082,2.05,8.235,8.235,0,0,1-2.059-.161c-.009-6.285-.011-12.57-.04-18.855,0-.682.431-.5.77-.5q6.967-.017,13.934-.015c.659,0,1.32.029,1.977-.009.571-.033.764.173.761.752-.019,4.107-.007,8.215-.01,12.322,0,1.24-.016,2.481-.029,3.721,0,.26.1.578-.3.656l-.02-.036ZM45.1,202.25a1.527,1.527,0,0,0-1.75,1.04,1.787,1.787,0,0,0,.388,2c1.033,1.064,2.065,2.132,3.151,3.14a1.7,1.7,0,0,0,2.629-.007c.611-.551,1.171-1.159,1.751-1.745,1.529-1.542,3.084-3.059,4.574-4.637a1.9,1.9,0,0,0-.86-3.124c-1.025-.343-1.619.256-2.216.837-1.241,1.207-2.429,2.469-3.648,3.7-1.075,1.082-.812,1.106-1.889-.016-.581-.6-1.089-1.366-2.129-1.18" transform="translate(-13.909 -65.989)" fill="#a2caee"/>
        <path id="Trazado_818276" data-name="Trazado 818276" d="M47.514,103.1c2.713-.013,5.427-.037,8.141-.033a10.362,10.362,0,0,1,2.849.14c-.06.128-.075.249.061.343q-.021,5.358-.041,10.715l-.035.02.03.03c0,.385.025.772,0,1.156a2.583,2.583,0,0,0,1.762,2.914q-.008,1.014-.017,2.028l-16.153.04c-.687,0-1.378-.044-2.059.02-.73.068-.878-.258-.875-.906.02-4.078.013-8.157.013-12.235,0-1.185.039-2.372-.017-3.554-.028-.583.169-.685.693-.678,1.868.026,3.736.007,5.6,0l.043,0m-2.346,6.944a1.569,1.569,0,0,0-1.75,1.04,1.768,1.768,0,0,0,.365,2.062c.958,1.024,1.929,2.039,2.939,3.012a1.773,1.773,0,0,0,2.874,0c1.345-1.3,2.639-2.651,3.952-3.985.829-.842,1.7-1.651,2.462-2.551.816-.964.251-2.727-.877-2.858a2.388,2.388,0,0,0-2.244.688c-1.189,1.3-2.464,2.515-3.708,3.762-1.109,1.111-.882,1.169-2-.1-.537-.607-1.052-1.227-2.008-1.068" transform="translate(-13.924 -34.846)" fill="#fdc24d"/>
        <path id="Trazado_818277" data-name="Trazado 818277" d="M97.566,211.309c-3.129,0-6.259.007-9.388,0a2.325,2.325,0,0,1-2.3-.97,1.8,1.8,0,0,1,1.365-2.751,19.234,19.234,0,0,1,1.972-.108c5.71-.009,11.421-.024,17.13.019a7.272,7.272,0,0,1,2.1.234,1.676,1.676,0,0,1,1.324,1.786,1.817,1.817,0,0,1-1.509,1.7,13.127,13.127,0,0,1-1.723.105c-2.992.009-5.984,0-8.976,0v-.011" transform="translate(-28.952 -70.165)"/>
        <path id="Trazado_818278" data-name="Trazado 818278" d="M97.511,225.3q-4.9,0-9.811,0a1.9,1.9,0,0,1-1.691-.666c-.354-.486-.76-1.018-.486-1.644a2.091,2.091,0,0,1,1.771-1.379c.52-.044,1.042-.073,1.564-.074q8.781,0,17.562,0a7.481,7.481,0,0,1,2.021.206,1.808,1.808,0,0,1,1.161,2.33,1.748,1.748,0,0,1-1.463,1.163,18.4,18.4,0,0,1-1.891.1c-2.913.01-5.826,0-8.738,0V225.3" transform="translate(-28.894 -74.922)"/>
        <path id="Trazado_818279" data-name="Trazado 818279" d="M135.009,211.249a23.134,23.134,0,0,1-2.625-.018,1.811,1.811,0,0,1-1.406-2.9,1.616,1.616,0,0,1,1.343-.756,24.716,24.716,0,0,1,5.249.005,1.683,1.683,0,0,1,1.613,1.822,1.794,1.794,0,0,1-1.63,1.821,12.924,12.924,0,0,1-1.311.075c-.411.012-.822,0-1.234,0Z" transform="translate(-44.181 -70.154)"/>
        <path id="Trazado_818280" data-name="Trazado 818280" d="M134.809,221.612a9.415,9.415,0,0,1,3,.136c.978.338,1.372.778,1.361,1.746a1.658,1.658,0,0,1-1.412,1.731,23.647,23.647,0,0,1-5.742-.009,1.832,1.832,0,0,1-1.421-1.836,1.855,1.855,0,0,1,1.666-1.757c.846-.053,1.7-.011,2.547-.011" transform="translate(-44.167 -74.931)"/>
        <path id="Trazado_818281" data-name="Trazado 818281" d="M67.333,181.2l.949.012c-.322.437-.639.44-.949-.012" transform="translate(-22.772 -61.283)" fill="#a2caee"/>
        <path id="Trazado_818282" data-name="Trazado 818282" d="M155.414,87.669l-.048.113-.042-.116.046-.04.044.042" transform="translate(-52.531 -29.635)" fill="#89ba54"/>
        <path id="Trazado_818283" data-name="Trazado 818283" d="M107.08,123.852a46.3,46.3,0,0,1,.265-4.753c.152-1,.488-2.005.673-3.018.334-1.827,1.446-3.338,1.963-5.087a15.824,15.824,0,0,1,1.821-3.157,33.088,33.088,0,0,1,6.942-7.923,22.631,22.631,0,0,1,6.088-3.676,34.6,34.6,0,0,1,7.133-2.355,30.218,30.218,0,0,1,8.465-.365,43.01,43.01,0,0,1,6.125,1,24.015,24.015,0,0,1,6.848,2.936,30.3,30.3,0,0,1,6.946,5.392,32.307,32.307,0,0,1,4.676,6.439,30.213,30.213,0,0,1,3.36,8.958c.257,1.3.347,2.627.475,3.948a27.36,27.36,0,0,1-.044,4.239,29.149,29.149,0,0,1-3.6,12.85,31.924,31.924,0,0,1-5.369,7.173,33.542,33.542,0,0,1-7.344,5.35,24.077,24.077,0,0,1-6.741,2.7c-1.717.359-3.451.584-5.193.792a23.437,23.437,0,0,1-4.416.108,28.369,28.369,0,0,1-9.13-1.913,34.534,34.534,0,0,1-7.372-4.1,28.64,28.64,0,0,1-8.473-9.411,40.1,40.1,0,0,1-2.476-5.536,22.324,22.324,0,0,1-1.378-4.948c-.187-1.711-.179-3.445-.255-5.168a.474.474,0,0,0,.011-.473m10.079-12.411c-2.111-.161-2.16-.136-3.118,1.846a24.454,24.454,0,0,0-2.478,9.724,26.99,26.99,0,0,0,1.41,10.088,28.258,28.258,0,0,0,8.668,12.167,25.23,25.23,0,0,0,7.8,4.325,24.664,24.664,0,0,0,6.672,1.362,28.472,28.472,0,0,0,7.789-.687,23.975,23.975,0,0,0,6.666-2.469,26.256,26.256,0,0,0,12.323-14.443,25.431,25.431,0,0,0,1.341-11.65,35.15,35.15,0,0,0-1.178-5.662,26.788,26.788,0,0,0-8.931-12.671,26.2,26.2,0,0,0-16.141-5.5,22.746,22.746,0,0,0-6.954.854,26.434,26.434,0,0,0-11.308,6.472c-1.083,1.059-1.48,1.383-.53,3.1-.05.236.066.534-.132.707a30.719,30.719,0,0,0-1.9,2.433" transform="translate(-36.211 -31.584)" fill="#f8f9fb"/>
        <path id="Trazado_818284" data-name="Trazado 818284" d="M217.294,208.681A4.758,4.758,0,0,1,213.574,207c-2.957-2.955-5.9-5.925-8.853-8.882q-3.966-3.969-7.948-7.92c-.745-.742-.719-.713.015-1.445,1.792-1.785,3.575-3.58,5.322-5.41.525-.55.915-.562,1.434-.04q8.526,8.565,17.061,17.122a4.68,4.68,0,0,1,.975,5.406,4.485,4.485,0,0,1-4.285,2.854" transform="translate(-66.364 -61.862)" fill="#fdc24d"/>
        <path id="Trazado_818285" data-name="Trazado 818285" d="M195.74,170.022a5.876,5.876,0,0,1-1.953,3.8c-2.243,2.379-4.515,4.74-6.9,6.976-2.242,2.1-5.342,1.945-7.728-.163-1.068-.944-1-.879.158-1.617a37.046,37.046,0,0,0,9.59-8.175,51.517,51.517,0,0,0,4.017-5.954c.181-.312.271-.337.522-.107a6.3,6.3,0,0,1,2.294,5.239" transform="translate(-60.335 -55.678)" fill="#89ba54"/>
        <path id="Trazado_818286" data-name="Trazado 818286" d="M106.949,139.42a.474.474,0,0,1-.011.473c-.353-.166-.333-.323.011-.473" transform="translate(-36.08 -47.152)" fill="#89ba54"/>
        <path id="Trazado_818287" data-name="Trazado 818287" d="M58.54,160.342c-.005.143-.011.287-.016.428-.341.121-.035.233.005.349q.007,2.573.013,5.145l-.042.009.027.033c-.136.306-.413.219-.645.219-5.326.007-10.651,0-15.976.024-.645,0-.764-.242-.764-.825q.017-7.971-.023-15.943c0-.449.089-.639.58-.638,5.463.012,10.926,0,16.388.007a2.043,2.043,0,0,1,.4.079.292.292,0,0,0,.072.359l-.006,1.418-.047.014.046.066-.006,1.246-.056.038.057.037q0,.3.005.591l-.055.034.056.034c0,.2,0,.4,0,.594l-.056.032.054.035q0,.3-.007.594l-.055.033.054.036c0,.2,0,.394,0,.59l-.055.037.056.037,0,.588-.056.037.056.037c0,.2,0,.392,0,.587l-.056.037.056.038q0,.294,0,.587l-.056.037.056.037q0,.295,0,.589l-.056.035.056.036q0,.3,0,.59l-.056.035.056.037c0,.2,0,.392,0,.587l-.056.037.055.04q0,.623,0,1.247l-.056.034ZM56.3,154.7a1.71,1.71,0,0,0-1.224-1.876,2.072,2.072,0,0,0-2.1.639c-1.417,1.423-2.857,2.823-4.264,4.255-.428.435-.74.453-1.138-.027a7.079,7.079,0,0,0-1.165-1.16,1.884,1.884,0,0,0-3.063.825,1.929,1.929,0,0,0,.534,2.1c.934.932,1.844,1.891,2.807,2.793,1.079,1.011,1.895,1.019,2.966-.036,2.038-2.007,4.033-4.059,6.036-6.1A1.573,1.573,0,0,0,56.3,154.7" transform="translate(-13.907 -50.44)" fill="#fdc24d"/>
        <path id="Trazado_818288" data-name="Trazado 818288" d="M67.342,167.061c-.041-.116-.347-.228-.005-.348,0,.116,0,.232.005.348" transform="translate(-22.719 -56.382)" fill="#89ba54"/>
        <path id="Trazado_818289" data-name="Trazado 818289" d="M67.416,149.632a.292.292,0,0,1-.072-.359c.168.091.12.225.072.359" transform="translate(-22.766 -50.484)" fill="#89ba54"/>
        <path id="Trazado_818290" data-name="Trazado 818290" d="M67.415,164.035l-.054-.04.056-.036.028.039Z" transform="translate(-22.781 -55.451)" fill="#89ba54"/>
        <path id="Trazado_818291" data-name="Trazado 818291" d="M67.415,166.029l-.054-.036.056-.035.028.037Z" transform="translate(-22.782 -56.127)" fill="#89ba54"/>
        <path id="Trazado_818292" data-name="Trazado 818292" d="M67.424,163.034,67.369,163l.056-.035.028.037Z" transform="translate(-22.784 -55.114)" fill="#89ba54"/>
        <path id="Trazado_818293" data-name="Trazado 818293" d="M67.411,175.056l-.027-.034.042-.008.025.032Z" transform="translate(-22.789 -59.19)" fill="#89ba54"/>
        <path id="Trazado_818294" data-name="Trazado 818294" d="M67.429,162.034,67.373,162l.056-.036.027.036Z" transform="translate(-22.786 -54.775)" fill="#89ba54"/>
        <path id="Trazado_818295" data-name="Trazado 818295" d="M67.429,161.035,67.373,161l.056-.036.028.037Z" transform="translate(-22.785 -54.437)" fill="#89ba54"/>
        <path id="Trazado_818296" data-name="Trazado 818296" d="M67.428,160.035,67.372,160l.056-.037.028.038Z" transform="translate(-22.785 -54.099)" fill="#89ba54"/>
        <path id="Trazado_818297" data-name="Trazado 818297" d="M67.426,159.035,67.369,159l.056-.036.028.036Z" transform="translate(-22.784 -53.761)" fill="#89ba54"/>
        <path id="Trazado_818298" data-name="Trazado 818298" d="M67.419,158.035,67.364,158l.055-.037.029.037Z" transform="translate(-22.782 -53.422)" fill="#89ba54"/>
        <path id="Trazado_818299" data-name="Trazado 818299" d="M67.417,157.034,67.363,157l.056-.033.028.035Z" transform="translate(-22.782 -53.086)" fill="#89ba54"/>
        <path id="Trazado_818300" data-name="Trazado 818300" d="M67.429,156.034,67.375,156l.056-.033.026.035Z" transform="translate(-22.786 -52.748)" fill="#89ba54"/>
        <path id="Trazado_818301" data-name="Trazado 818301" d="M67.421,154.035,67.365,154l.055-.038.029.037Z" transform="translate(-22.783 -52.069)" fill="#89ba54"/>
        <path id="Trazado_818302" data-name="Trazado 818302" d="M67.434,152.037l-.046-.066.047-.013.027.04Z" transform="translate(-22.791 -51.392)" fill="#89ba54"/>
        <path id="Trazado_818303" data-name="Trazado 818303" d="M67.432,155.034,67.376,155l.055-.034.028.034Z" transform="translate(-22.787 -52.41)" fill="#89ba54"/>
        <path id="Trazado_818304" data-name="Trazado 818304" d="M67.4,103.632c-.136-.094-.12-.216-.061-.344.156.091.116.216.061.344" transform="translate(-22.759 -34.932)" fill="#89ba54"/>
        <path id="Trazado_818305" data-name="Trazado 818305" d="M67.368,120.047l-.03-.03.035-.02.039.031Z" transform="translate(-22.774 -40.583)" fill="#89ba54"/>
        <path id="Trazado_818306" data-name="Trazado 818306" d="M50.733,103.107l-.043,0,.022-.042Z" transform="translate(-17.143 -34.858)" fill="#89ba54"/>
        <path id="Trazado_818307" data-name="Trazado 818307" d="M66.918,221.481l.011-.04.021.036-.011.038Z" transform="translate(-22.632 -74.891)" fill="#89ba54"/>
        <path id="Trazado_818308" data-name="Trazado 818308" d="M133.138,68.67c.221-1.326.384-2.515.625-3.688a2.4,2.4,0,0,0-.61-2.353c-.9-.918-1.8-1.848-2.732-2.811a1.152,1.152,0,0,1,.715-.272c1.026-.143,2.046-.328,3.074-.451a2.458,2.458,0,0,0,2-1.633c.412-.889.845-1.769,1.28-2.647.08-.161.119-.387.36-.407.294-.024.344.234.434.42q.742,1.517,1.462,3.043a2.3,2.3,0,0,0,2.079,1.327c1.04.1,2.068.33,3.1.5.4.068.584.165.16.525-.544.46-.995,1.043-1.572,1.449-1.741,1.226-1.872,2.859-1.335,4.716.16.551.266,1.12.371,1.686.032.171.116.405-.091.521-.15.085-.294-.021-.444-.113-1.1-.674-2.3-1.126-3.435-1.74-.9-.486-1.788.073-2.6.48a23.3,23.3,0,0,1-2.84,1.447" transform="translate(-44.109 -18.4)" fill="#fdc24d"/>
        <path id="Trazado_818309" data-name="Trazado 818309" d="M55.417,68.573a7.186,7.186,0,0,1,.3-2.28,8.6,8.6,0,0,0,.23-2.613,1.582,1.582,0,0,0-.586-1.056c-.748-.768-1.517-1.514-2.268-2.279-.159-.161-.5-.26-.356-.57.1-.222.377-.176.592-.208,1.046-.158,2.089-.347,3.139-.474a2.13,2.13,0,0,0,1.719-1.248c.464-.9.888-1.826,1.351-2.73.128-.249.135-.667.518-.657.32.009.357.382.475.613q.711,1.394,1.383,2.807a2.237,2.237,0,0,0,1.807,1.333c.988.135,1.981.238,2.973.354.278.032.611.067.7.342.077.242-.23.38-.4.543-.572.555-1.1,1.163-1.715,1.664a3.017,3.017,0,0,0-1.02,3.619,12.352,12.352,0,0,1,.4,2.345c.052.428-.025.687-.592.381-1.136-.615-2.313-1.154-3.49-1.69a1.839,1.839,0,0,0-1.643.083c-.779.4-1.543.835-2.318,1.243a3,3,0,0,1-1.2.478" transform="translate(-17.824 -18.418)" fill="#fdc24d"/>
        <path id="Trazado_818310" data-name="Trazado 818310" d="M106.221,46.3c-.79.791-1.46,1.538-2.21,2.193a2.934,2.934,0,0,0-.939,3.284,21.146,21.146,0,0,1,.43,2.607c.068.479-.118.606-.553.353a25.9,25.9,0,0,0-3.261-1.688,1.754,1.754,0,0,0-1.561-.011c-1.044.545-2.1,1.072-3.125,1.65-.482.271-.781.349-.7-.357.111-.955.192-1.919.392-2.856a2.774,2.774,0,0,0-.726-2.765c-.7-.7-1.408-1.392-2.1-2.1-.138-.142-.465-.189-.358-.478s.384-.337.664-.342a19.982,19.982,0,0,0,2.674-.312,3.22,3.22,0,0,0,2.778-2.649,13.524,13.524,0,0,1,1.139-2.045c.169-.355.379.023.482.228a25.908,25.908,0,0,1,1.3,2.663c.52,1.416,1.626,1.791,2.938,1.937a7.078,7.078,0,0,1,2.733.687" transform="translate(-30.942 -13.745)" fill="#fdc24d"/>
        <path id="Trazado_818311" data-name="Trazado 818311" d="M46.158,204.137c1.04-.186,1.548.577,2.129,1.18,1.077,1.122.815,1.1,1.889.016,1.22-1.228,2.408-2.49,3.649-3.7.6-.58,1.191-1.179,2.216-.837a1.9,1.9,0,0,1,.86,3.124c-1.49,1.578-3.045,3.095-4.574,4.637-.58.586-1.14,1.194-1.751,1.745a1.7,1.7,0,0,1-2.629.007c-1.085-1.008-2.118-2.076-3.151-3.14a1.787,1.787,0,0,1-.388-2,1.527,1.527,0,0,1,1.75-1.04" transform="translate(-14.967 -67.877)"/>
        <path id="Trazado_818312" data-name="Trazado 818312" d="M46.222,111.923c.956-.159,1.471.461,2.008,1.068,1.122,1.267.9,1.208,2,.1,1.244-1.247,2.519-2.465,3.708-3.762a2.388,2.388,0,0,1,2.244-.688c1.128.131,1.693,1.894.877,2.858-.762.9-1.633,1.709-2.462,2.551-1.312,1.334-2.607,2.686-3.952,3.985a1.773,1.773,0,0,1-2.874,0c-1.01-.973-1.981-1.987-2.939-3.012a1.768,1.768,0,0,1-.365-2.062,1.569,1.569,0,0,1,1.75-1.04" transform="translate(-14.978 -36.73)"/>
        <path id="Trazado_818313" data-name="Trazado 818313" d="M121.371,115.718c.709-.751,1.111-1.743,1.9-2.433.2-.173.082-.47.132-.707a1.843,1.843,0,0,0,2.818-.006c.251-.214.486-.447.731-.668a21.9,21.9,0,0,1,16.781-5.813l.028,0a26.433,26.433,0,0,1,5.423.983,22.558,22.558,0,0,1,15.607,19.973,22.913,22.913,0,0,1-1.147,9.03,22.2,22.2,0,0,1-5.05,8.312,22.539,22.539,0,0,1-14.975,7.01,20.569,20.569,0,0,1-5.85-.427,22.605,22.605,0,0,1-18.132-20.06,21.8,21.8,0,0,1,2.2-12.13c.7-1.386.587-1.93-.467-3.067m15.943,22.639c.978.16,1.5-.555,2.074-1.127q4.266-4.255,8.505-8.537c2.134-2.146,4.282-4.279,6.388-6.452a1.774,1.774,0,0,0,.059-2.65,1.824,1.824,0,0,0-2.652-.066,9.711,9.711,0,0,0-.78.734q-6.436,6.464-12.855,12.943c-.517.524-.812.58-1.336.012-1.157-1.253-2.382-2.442-3.594-3.643a2.272,2.272,0,0,0-1.3-.811,2.054,2.054,0,0,0-2.063,1.031,1.62,1.62,0,0,0,.353,2.14c1.963,2,3.953,3.982,5.945,5.958a1.325,1.325,0,0,0,1.257.469" transform="translate(-40.423 -35.861)" fill="#a2caee"/>
        <path id="Trazado_818314" data-name="Trazado 818314" d="M141.805,104.1a21.9,21.9,0,0,0-16.781,5.813c-.245.222-.48.455-.731.668a1.843,1.843,0,0,1-2.818.006c-.95-1.717-.552-2.041.531-3.1a26.428,26.428,0,0,1,11.307-6.472,22.747,22.747,0,0,1,6.954-.854,26.2,26.2,0,0,1,16.141,5.5,26.785,26.785,0,0,1,8.93,12.671,35.165,35.165,0,0,1,1.178,5.662,25.426,25.426,0,0,1-1.341,11.651,26.256,26.256,0,0,1-12.323,14.443,23.968,23.968,0,0,1-6.666,2.469,28.469,28.469,0,0,1-7.789.687,24.691,24.691,0,0,1-6.672-1.362,25.22,25.22,0,0,1-7.8-4.326,28.252,28.252,0,0,1-8.669-12.167,27,27,0,0,1-1.41-10.088,24.465,24.465,0,0,1,2.478-9.724c.958-1.982,1.007-2.008,3.118-1.846,1.054,1.136,1.165,1.68.467,3.066a21.8,21.8,0,0,0-2.2,12.13,22.605,22.605,0,0,0,18.132,20.06,20.569,20.569,0,0,0,5.85.427,22.539,22.539,0,0,0,14.974-7.01,22.187,22.187,0,0,0,5.05-8.312,22.917,22.917,0,0,0,1.147-9.03,22.556,22.556,0,0,0-15.606-19.973,26.442,26.442,0,0,0-5.423-.983l-.014-.04Z" transform="translate(-38.493 -33.872)"/>
        <path id="Trazado_818315" data-name="Trazado 818315" d="M57.383,156.55a1.573,1.573,0,0,1-.608,1.407c-2,2.043-4,4.095-6.036,6.1-1.071,1.054-1.887,1.047-2.966.036-.962-.9-1.872-1.861-2.807-2.793a1.929,1.929,0,0,1-.534-2.1,1.884,1.884,0,0,1,3.063-.825,7.079,7.079,0,0,1,1.165,1.16c.4.48.711.462,1.138.027,1.407-1.432,2.847-2.833,4.264-4.255a2.072,2.072,0,0,1,2.1-.639,1.71,1.71,0,0,1,1.224,1.876" transform="translate(-14.989 -52.286)"/>
        <path id="Trazado_818316" data-name="Trazado 818316" d="M142.41,144.976a1.325,1.325,0,0,1-1.257-.469c-1.992-1.976-3.982-3.954-5.945-5.958a1.62,1.62,0,0,1-.353-2.14,2.054,2.054,0,0,1,2.063-1.031,2.271,2.271,0,0,1,1.3.811c1.212,1.2,2.437,2.39,3.594,3.643.524.568.819.512,1.336-.012q6.4-6.5,12.855-12.943a9.709,9.709,0,0,1,.78-.734,1.824,1.824,0,0,1,2.652.066,1.774,1.774,0,0,1-.059,2.65c-2.106,2.173-4.254,4.306-6.388,6.452q-4.249,4.274-8.505,8.537c-.573.572-1.1,1.287-2.074,1.127" transform="translate(-45.519 -42.48)"/>
        <path id="Trazado_818317" data-name="Trazado 818317" d="M156.108,106.1l.015-.038.014.04-.028,0" transform="translate(-52.796 -35.87)" fill="#89ba54"/>
      </g>
    </g>
  </g>
</svg>
