<svg xmlns="http://www.w3.org/2000/svg" xmlns:xlink="http://www.w3.org/1999/xlink" width="124" height="124" viewBox="0 0 124 124">
  <defs>
    <clipPath id="clip-path">
      <rect id="Rect치ngulo_376100" data-name="Rect치ngulo 376100" width="67.504" height="75.524" fill="#fffad0"/>
    </clipPath>
  </defs>
  <g id="Grupo_1072903" data-name="Grupo 1072903" transform="translate(-737.001 -2058)">
    <g id="Grupo_159183" data-name="Grupo 159183" transform="translate(352.001)">
      <g id="Grupo_1072898" data-name="Grupo 1072898">
        <path id="Uni칩n_12" data-name="Uni칩n 12" d="M8438,11700a62,62,0,1,1-62,62A62,62,0,0,1,8438,11700Z" transform="translate(-7991 -9642)" fill="#1b3f5e"/>
        <circle id="Elipse_4842" data-name="Elipse 4842" cx="48" cy="48" r="48" transform="translate(399 2072)" fill="#1b3f5e"/>
      </g>
    </g>
    <g id="Grupo_1071249" data-name="Grupo 1071249" transform="translate(768.914 2082.375)">
      <g id="Grupo_1071248" data-name="Grupo 1071248" clip-path="url(#clip-path)">
        <path id="Trazado_815340" data-name="Trazado 815340" d="M0,37.734V2.082C0,.486.491,0,2.1,0Q29.867,0,57.632,0a3.269,3.269,0,0,1,.8.088,1.476,1.476,0,0,1,1.093,1.56q.013,3.337-.006,6.673a.439.439,0,0,0,.338.508c2.034.718,4.063,1.451,6.093,2.18.173.062.343.132.514.2a1.448,1.448,0,0,1,1.012,1.438c-.053,3.019.215,6.047-.269,9.053a22.245,22.245,0,0,1-3.68,9.18,21.5,21.5,0,0,1-3.7,4.04.785.785,0,0,0-.31.657q.014,13.42.019,26.84a2.286,2.286,0,0,1-.72,1.735q-5.3,5.278-10.577,10.585a2.5,2.5,0,0,1-1.9.784q-22.183-.018-44.366-.012a3.923,3.923,0,0,1-.8-.072A1.392,1.392,0,0,1,.051,74.23,4.985,4.985,0,0,1,0,73.5Q0,55.615,0,37.734ZM56.579,61.356V37.3l-.263.121q-1.517.7-3.035,1.407a1.816,1.816,0,0,1-1.6.009c-.97-.443-1.967-.833-2.911-1.325a19.99,19.99,0,0,1-5.722-4.575,21.484,21.484,0,0,1-5.523-13.009c-.169-2.385-.069-4.79-.077-7.186a1.526,1.526,0,0,1,1.113-1.56c1.04-.367,2.077-.744,3.114-1.118Q46.692,8.247,51.705,6.43a2.1,2.1,0,0,1,1.539,0c.881.338,1.771.653,2.659.975.221.08.445.149.679.227V2.95H4c-.341,0-.827-.11-.986.066-.183.2-.094.666-.094,1.016q0,33.83,0,67.66v.844H45.447c0-.149,0-.27,0-.391q-.013-4.3-.025-8.59c0-.282.013-.566.041-.847a1.372,1.372,0,0,1,1.166-1.287,3.71,3.71,0,0,1,.694-.062q4.4-.006,8.808,0ZM64.567,16.85c0-1.048,0-1.834,0-2.62,0-.637,0-.64-.6-.855q-5.5-1.982-11-3.966a1.267,1.267,0,0,0-.923-.028q-5.7,2.072-11.409,4.118a.388.388,0,0,0-.281.442c.007,1.437-.031,2.876.012,4.312a22.873,22.873,0,0,0,.265,3.3A18.713,18.713,0,0,0,45.79,31.613a19.792,19.792,0,0,0,6.3,4.266.923.923,0,0,0,.654.03,19.761,19.761,0,0,0,4.793-2.846A18.557,18.557,0,0,0,64.21,22.019a23.442,23.442,0,0,0,.358-5.169M54.446,64.339a.553.553,0,0,0-.117-.028c-1.9,0-3.8.01-5.7.008-.248,0-.273.122-.273.322,0,1.853-.005,3.706-.007,5.559a1.286,1.286,0,0,0,.026.208l6.074-6.069" transform="translate(0 0)" fill="#fffad0"/>
        <path id="Trazado_815341" data-name="Trazado 815341" d="M95.13,164.935q4.789,0,9.579,0a1.552,1.552,0,0,1,1.624.957,1.425,1.425,0,0,1-.987,1.931,2.855,2.855,0,0,1-.657.067q-9.579,0-19.158,0a2.664,2.664,0,0,1-.866-.123,1.461,1.461,0,0,1-.927-1.554,1.43,1.43,0,0,1,1.334-1.259,5.072,5.072,0,0,1,.515-.016H95.13Z" transform="translate(-58.952 -116.131)" fill="#fffad0"/>
        <path id="Trazado_815342" data-name="Trazado 815342" d="M92.786,127.568q-3.737,0-7.475,0a1.47,1.47,0,0,1-1.428-2.071,1.62,1.62,0,0,1,1.4-.869,1.89,1.89,0,0,1,.22-.009q7.383,0,14.766,0a1.5,1.5,0,0,1,1.575,1.3,1.468,1.468,0,0,1-1.549,1.647q-3.756.006-7.512,0" transform="translate(-58.962 -87.745)" fill="#fffad0"/>
        <path id="Trazado_815343" data-name="Trazado 815343" d="M39.78,120.362a1.655,1.655,0,0,1-1.274-.508c-.847-.837-1.693-1.676-2.521-2.532-.474-.491-.454-.717.035-1.21s.967-.978,1.462-1.455a.7.7,0,0,1,1.148,0c.321.3.644.607.943.931.175.189.283.155.445-.009.914-.926,1.837-1.844,2.757-2.765.576-.576.824-.574,1.4.009.441.444.889.883,1.323,1.333.494.512.509.742.019,1.24q-2.118,2.153-4.259,4.284a2,2,0,0,1-1.482.683" transform="translate(-25.095 -79.13)" fill="#fffad0"/>
        <path id="Trazado_815344" data-name="Trazado 815344" d="M39.788,35.388c.166-.157.256-.237.341-.321q1.422-1.418,2.842-2.835c.418-.415.687-.43,1.1-.032q.823.79,1.613,1.616c.376.392.388.624.006,1.015-1.484,1.518-2.962,3.043-4.484,4.523a1.822,1.822,0,0,1-2.748-.081q-1.2-1.2-2.374-2.417c-.446-.463-.441-.694.007-1.153.506-.518,1.017-1.032,1.542-1.531.406-.386.645-.379,1.037.018.371.375.721.771,1.118,1.2" transform="translate(-25.174 -22.469)" fill="#fffad0"/>
        <path id="Trazado_815345" data-name="Trazado 815345" d="M39.911,160.552a1.97,1.97,0,0,1-1.355-.569c-.839-.828-1.675-1.66-2.5-2.506-.423-.436-.41-.652.018-1.091q.758-.778,1.537-1.537c.4-.393.656-.381,1.066.019.316.309.642.608.945.93.167.177.273.174.444,0,.965-.98,1.941-1.95,2.914-2.922.438-.437.686-.454,1.123-.028q.8.785,1.574,1.6c.38.4.384.644-.012,1.048q-2.2,2.252-4.43,4.48a1.988,1.988,0,0,1-1.328.572" transform="translate(-25.172 -107.404)" fill="#fffad0"/>
        <path id="Trazado_815346" data-name="Trazado 815346" d="M39.824,200.876a1.717,1.717,0,0,1-1.229-.5q-1.342-1.313-2.655-2.654a.536.536,0,0,1-.014-.871c.554-.591,1.118-1.172,1.7-1.738a.61.61,0,0,1,1,.007c.346.329.677.677,1,1.032.18.2.3.167.473-.011.93-.944,1.87-1.878,2.809-2.814.539-.538.745-.54,1.282-.011q.656.646,1.3,1.3c.6.611.6.789-.006,1.387q-1.762,1.753-3.519,3.509c-.3.294-.585.6-.892.878a1.782,1.782,0,0,1-1.237.487" transform="translate(-25.143 -135.838)" fill="#fffad0"/>
        <path id="Trazado_815347" data-name="Trazado 815347" d="M39.787,75.721c.167-.151.267-.236.361-.329q1.383-1.379,2.765-2.76c.515-.514.752-.518,1.261-.012s1,.985,1.474,1.5c.37.4.377.643.007,1.016-1.505,1.518-3.007,3.04-4.542,4.528a1.723,1.723,0,0,1-2.519.029c-.909-.844-1.771-1.739-2.637-2.627-.334-.343-.325-.584,0-.927q.829-.864,1.688-1.7a.56.56,0,0,1,.9-.01c.421.408.81.849,1.233,1.3" transform="translate(-25.145 -50.868)" fill="#fffad0"/>
        <path id="Trazado_815348" data-name="Trazado 815348" d="M89.234,208.087c-1.288,0-2.577.006-3.865,0a1.526,1.526,0,0,1-1.558-1.053,1.454,1.454,0,0,1,1.111-1.816,3.474,3.474,0,0,1,.658-.06q3.625-.006,7.251,0a3.882,3.882,0,0,1,.8.071,1.424,1.424,0,0,1,.01,2.788,3.234,3.234,0,0,1-.693.069c-1.239.007-2.478,0-3.717,0" transform="translate(-58.974 -144.451)" fill="#fffad0"/>
        <path id="Trazado_815349" data-name="Trazado 815349" d="M88.611,47.118c-1.043,0-2.085-.005-3.128,0a1.643,1.643,0,0,1-1.457-.626,1.391,1.391,0,0,1-.156-1.461,1.5,1.5,0,0,1,1.35-.869,3.379,3.379,0,0,1,.367-.009h6.182a1.646,1.646,0,0,1,1.5.69A1.453,1.453,0,0,1,92.106,47.1c-1.164.04-2.33.009-3.5.009Z" transform="translate(-58.957 -31.089)" fill="#fffad0"/>
        <path id="Trazado_815350" data-name="Trazado 815350" d="M88.646,84.45c1.1,0,2.209-.008,3.313,0a1.449,1.449,0,0,1,1.41.883,1.417,1.417,0,0,1-1.031,2.01,3.066,3.066,0,0,1-.584.051q-3.019,0-6.038,0a5.49,5.49,0,0,1-.588-.029,1.455,1.455,0,0,1-1.4-1.471,1.5,1.5,0,0,1,1.489-1.438c1.141-.025,2.282-.006,3.424-.007" transform="translate(-58.957 -59.458)" fill="#fffad0"/>
        <path id="Trazado_815351" data-name="Trazado 815351" d="M162.6,68.009a2.5,2.5,0,0,1-1.662-.668c-1.073-1.046-2.137-2.1-3.18-3.179a1.231,1.231,0,0,1-.032-1.82c.57-.625,1.171-1.227,1.8-1.8a1.294,1.294,0,0,1,1.91.071c.325.317.648.639.946.981.205.235.33.14.5-.033,1.151-1.16,2.311-2.311,3.462-3.471a1.416,1.416,0,0,1,1.618-.472,1.731,1.731,0,0,1,.541.369c.513.494,1.019,1,1.511,1.512a1.383,1.383,0,0,1,.006,2.121q-2.772,2.83-5.577,5.628a2.673,2.673,0,0,1-1.841.757" transform="translate(-110.789 -40.503)" fill="#fffad0"/>
      </g>
    </g>
  </g>
</svg>
