<svg xmlns="http://www.w3.org/2000/svg" xmlns:xlink="http://www.w3.org/1999/xlink" width="124" height="124" viewBox="0 0 124 124">
  <defs>
    <clipPath id="clip-path">
      <rect id="Rect치ngulo_376099" data-name="Rect치ngulo 376099" width="70" height="69.83" fill="#fffad0"/>
    </clipPath>
  </defs>
  <g id="Grupo_1072897" data-name="Grupo 1072897" transform="translate(-385.001 -2058)">
    <g id="Grupo_159182" data-name="Grupo 159182" transform="translate(0.001)">
      <path id="Uni칩n_12" data-name="Uni칩n 12" d="M8438,11700a62,62,0,1,1-62,62A62,62,0,0,1,8438,11700Z" transform="translate(-7991 -9642)" fill="#1b3f5e"/>
      <circle id="Elipse_4842" data-name="Elipse 4842" cx="48" cy="48" r="48" transform="translate(399 2072)" fill="#1b3f5e"/>
    </g>
    <g id="Grupo_1071247" data-name="Grupo 1071247" transform="translate(415.914 2083.318)">
      <g id="Grupo_1071246" data-name="Grupo 1071246" clip-path="url(#clip-path)">
        <path id="Trazado_815334" data-name="Trazado 815334" d="M82.775,26.839v.005H93.336a5.61,5.61,0,0,0,.614-.023,1.007,1.007,0,0,0,.929-.966.977.977,0,0,0-.872-1.009,5,5,0,0,0-.749-.046q-10.528,0-21.055,0a4.4,4.4,0,0,0-.646.045.981.981,0,0,0-.09,1.926,3.479,3.479,0,0,0,.745.064q5.281.006,10.562,0m.031,5.312H88a4.63,4.63,0,0,0,.478-.014,1.046,1.046,0,0,0,.952-.991,1,1,0,0,0-.934-1.028,2.831,2.831,0,0,0-.341-.015q-5.26,0-10.52.006a3.434,3.434,0,0,0-.678.063.985.985,0,0,0-.083,1.9,2.49,2.49,0,0,0,.674.076c1.753.006,3.507,0,5.26,0" transform="translate(-51.371 -18.016)" fill="#fffad0"/>
        <path id="Trazado_815335" data-name="Trazado 815335" d="M37.553,52.632a18.1,18.1,0,0,1-5.932,1.8,17.115,17.115,0,0,1-9.848-1.7A17.506,17.506,0,0,1,13.3,30.4a17.018,17.018,0,0,1,7.874-8.74,17.139,17.139,0,0,1,9.272-2.12,16.9,16.9,0,0,1,10.1,3.837,17.2,17.2,0,0,1,6.295,10.792,32.683,32.683,0,0,1,.255,3.355c.013.23.083.322.3.364.569.111,1.135.24,1.7.354a3.961,3.961,0,0,1,2.633,5.787.858.858,0,0,0-.05.162l1.543.792v-.4q0-21.1,0-42.2c0-.33-.139-.334-.385-.334q-14.667.006-29.334,0-3.675,0-7.35-.006A3.753,3.753,0,0,1,15.542,2a1.007,1.007,0,0,1-.823-.922.991.991,0,0,1,.7-.98,2.22,2.22,0,0,1,.606-.082Q34.644.011,53.26.014A1.8,1.8,0,0,1,55.252,2q0,21.712-.012,43.425a.838.838,0,0,0,.554.873q5.039,2.5,10.06,5.047a8.448,8.448,0,0,1,2.364,1.473,5.559,5.559,0,0,1,1.1,6.693,40.745,40.745,0,0,1-2.651,4.125,5.658,5.658,0,0,1-8.015,1.1c-1.061-.8-2.078-1.664-3.116-2.5-.069-.056-.145-.1-.243-.173-.034.242-.048.463-.1.676A1.694,1.694,0,0,1,53.5,64.1c-.407.007-.814,0-1.255,0,0,1.155,0,2.277,0,3.4a3.2,3.2,0,0,1-.036.542,1.963,1.963,0,0,1-2.036,1.777c-2.2.024-4.4.017-6.6,0A1.039,1.039,0,0,1,42.46,68.5a.882.882,0,0,1,.737-.672,4.244,4.244,0,0,1,.646-.048c1.994,0,3.988-.009,5.983,0,.275,0,.378-.067.373-.359-.018-.988-.015-1.977,0-2.965,0-.254-.049-.355-.337-.354q-23.47.01-46.941.005H2.779c-.893-.014-.755-.078-.639.743a3.537,3.537,0,0,0,3.274,2.921c.523.022,1.048.012,1.572.012q15.984,0,31.967,0a2.028,2.028,0,0,1,.851.184A.94.94,0,0,1,40.252,69a1.1,1.1,0,0,1-1.017.822c-.091.008-.182,0-.273,0q-16.5,0-32.993,0A5.621,5.621,0,0,1,.335,65.859a6.629,6.629,0,0,1-.321-2Q-.011,34.848,0,5.841A5.747,5.747,0,0,1,3.685.406,8.2,8.2,0,0,1,5.961.031C7.737-.023,9.516.009,11.294.019a2.015,2.015,0,0,1,.7.136,1,1,0,0,1,.588.921,1,1,0,0,1-.79.915,5.3,5.3,0,0,1-.816.062c-.431.01-.861,0-1.328,0-.014.264-.037.5-.037.732q0,10.038,0,20.076a1.146,1.146,0,0,1-.319.935.953.953,0,0,1-1.011.225.993.993,0,0,1-.674-.866,4.97,4.97,0,0,1-.017-.613q0-10.038.005-20.076c0-.317-.066-.439-.408-.42-.557.03-1.117-.011-1.674.012A3.579,3.579,0,0,0,2.063,5.64c0,.647.025,1.295.025,1.943q0,26.655,0,53.31a7.882,7.882,0,0,1-.009.851c-.029.261.053.337.311.334,1.037-.011,2.074-.005,3.111-.006.592,0,1.186-.019,1.777.007.261.012.305-.069.3-.3-.007-1.818,0-3.636,0-5.453q.006-14.35.014-28.7a2.915,2.915,0,0,1,.065-.675.967.967,0,0,1,.962-.72,1,1,0,0,1,.951.828,2.665,2.665,0,0,1,.027.407q0,16.957,0,33.915c0,.214,0,.429,0,.671H53.233c0-.507.01-1.024-.01-1.54,0-.088-.121-.185-.206-.253q-3.765-3-7.531-5.994c-.169-.135-.244-.114-.376.05a3.953,3.953,0,0,1-6.184.1c-.406-.475-.758-.994-1.136-1.492-.074-.1-.156-.189-.236-.287m-7.89-.1A15.489,15.489,0,1,0,13.993,37.051,15.471,15.471,0,0,0,29.664,52.529m16.729-.091c.925.742,1.842,1.486,2.767,2.22q3.89,3.085,7.785,6.163c1.017.8,2.008,1.645,3.063,2.4a3.62,3.62,0,0,0,5.075-.784,38.371,38.371,0,0,0,2.45-3.807,3.6,3.6,0,0,0-1.6-4.96q-6.779-3.443-13.556-6.892c-.594-.3-1.191-.6-1.8-.9l-4.186,6.568m-7-.746a1.644,1.644,0,0,0,.116.2c.23.324.478.636.7.969a2.11,2.11,0,0,0,3.6-.118c.944-1.577,1.977-3.1,2.972-4.648,1.043-1.624,2.112-3.232,3.121-4.876a1.99,1.99,0,0,0-1.312-3.051c-.465-.108-.939-.178-1.4-.292-.234-.058-.308-.017-.353.233A16.879,16.879,0,0,1,42.3,49.053c-.9.926-1.911,1.739-2.912,2.639" transform="translate(0 0)" fill="#fffad0"/>
        <path id="Trazado_815336" data-name="Trazado 815336" d="M82.775,26.839q-5.281,0-10.562,0a3.479,3.479,0,0,1-.745-.064.981.981,0,0,1,.09-1.926A4.4,4.4,0,0,1,72.2,24.8q10.527,0,21.055,0a5,5,0,0,1,.749.046.977.977,0,0,1,.872,1.009,1.007,1.007,0,0,1-.929.966,5.61,5.61,0,0,1-.614.023H82.775Z" transform="translate(-51.371 -18.016)" fill="#fffad0"/>
        <path id="Trazado_815337" data-name="Trazado 815337" d="M97.342,46.238c-1.753,0-3.507,0-5.26,0a2.48,2.48,0,0,1-.674-.076.985.985,0,0,1,.083-1.9,3.434,3.434,0,0,1,.678-.062q5.26-.008,10.52-.006a2.888,2.888,0,0,1,.341.015,1,1,0,0,1,.934,1.028,1.046,1.046,0,0,1-.952.991,4.631,4.631,0,0,1-.478.014q-2.6,0-5.192,0" transform="translate(-65.907 -32.103)" fill="#fffad0"/>
        <path id="Trazado_815338" data-name="Trazado 815338" d="M62.3,101.981a12.5,12.5,0,1,1,11.859,12.782A12.471,12.471,0,0,1,62.3,101.981M74.849,91.915A10.423,10.423,0,1,0,85.27,102.386,10.49,10.49,0,0,0,74.849,91.915" transform="translate(-45.256 -65.294)" fill="#fffad0"/>
        <path id="Trazado_815339" data-name="Trazado 815339" d="M215.709,202.782a1.016,1.016,0,0,1-1.509.862q-1.528-.992-3.061-1.978c-.42-.271-.847-.533-1.252-.823a.947.947,0,0,1-.382-1.053.885.885,0,0,1,.818-.711,1.106,1.106,0,0,1,.645.142c1.446.9,2.88,1.821,4.314,2.74a.906.906,0,0,1,.428.821" transform="translate(-152.176 -144.623)" fill="#fffad0"/>
      </g>
    </g>
  </g>
</svg>
