<svg xmlns="http://www.w3.org/2000/svg" xmlns:xlink="http://www.w3.org/1999/xlink" width="190" height="116" viewBox="0 0 190 116">
  <defs>
    <clipPath id="clip-path">
      <rect id="Rect치ngulo_377229" data-name="Rect치ngulo 377229" width="190" height="116" transform="translate(285 3675)" fill="none" stroke="#707070" stroke-width="1"/>
    </clipPath>
    <clipPath id="clip-path-2">
      <rect id="Rect치ngulo_377169" data-name="Rect치ngulo 377169" width="98.754" height="112.333" fill="none"/>
    </clipPath>
    <linearGradient id="linear-gradient" x1="0.5" x2="0.5" y2="1" gradientUnits="objectBoundingBox">
      <stop offset="0" stop-color="#f9fef5"/>
      <stop offset="1" stop-color="#e7f7f8"/>
    </linearGradient>
  </defs>
  <g id="Enmascarar_grupo_177" data-name="Enmascarar grupo 177" transform="translate(-285 -3675)" clip-path="url(#clip-path)">
    <g id="Grupo_1072740" data-name="Grupo 1072740" transform="translate(331 3677)">
      <g id="Grupo_1072895" data-name="Grupo 1072895">
        <g id="Grupo_1072739" data-name="Grupo 1072739" transform="translate(0 0)" clip-path="url(#clip-path-2)">
          <path id="Trazado_818839" data-name="Trazado 818839" d="M67.178,49.931c1.084.375,2.142.858,3.2,1.34a10.825,10.825,0,0,1,2.445,1.135c.384.307.913.523.832,1.355A1.574,1.574,0,0,1,72.9,55.2a1.948,1.948,0,0,1-1.666-.011c-1.671-.585-3.277-1.308-4.886-2.033-.358-.16-.5-.07-.651.277-.527,1.263-1.065,2.52-1.643,3.759-.2.433-.156.627.3.813,1.489.6,2.963,1.246,4.44,1.88a6.362,6.362,0,0,1,.783.388,1.559,1.559,0,0,1,.685,2.029,1.693,1.693,0,0,1-2.059.92c-1.257-.484-2.513-.981-3.729-1.555a10.963,10.963,0,0,1-1.617-.762c-.237-.164-.329-.036-.454.166a5.063,5.063,0,0,0-.48,1.18c-.316,1-.858,1.882-1.25,2.835-.183.439-.087.612.307.777,1.5.625,2.989,1.263,4.48,1.9a6.071,6.071,0,0,1,.783.388,1.565,1.565,0,0,1,.555,2.18,1.674,1.674,0,0,1-2.008.7,40.716,40.716,0,0,1-5.219-2.251c-.329-.16-.446-.1-.578.243-.536,1.37-1.09,2.731-1.675,4.079-.181.42-.058.57.318.73,2.814,1.208,5.62,2.434,8.432,3.65,2.225.962,4.459,1.905,6.68,2.88.369.16.518.117.681-.265q4.794-11.275,9.614-22.536a5.211,5.211,0,0,1,.292-.589,1.547,1.547,0,0,1,2.061-.7,1.613,1.613,0,0,1,.8,2.119q-1.4,3.306-2.81,6.6Q81,70.623,78.6,76.233c-.749,1.749-1.489,3.505-2.266,5.242-.164.367-.047.463.256.585A10.963,10.963,0,0,1,79.5,83.51a5.251,5.251,0,0,1,1.692,5.856,5.463,5.463,0,0,1-4.515,3.842,4.893,4.893,0,0,1-2.739-.414c-2.251-.966-4.474-2-6.772-2.859-.316-.117-.608-.3-.928-.4s-.568-.087-.728.363c-.472,1.327-1.035,2.618-1.632,3.9-.331.708-.542,1.493-.93,2.168s-.514,1.447-.866,2.131c-.369.717-.621,1.491-.96,2.225-.171.367-.107.529.282.666a17.827,17.827,0,0,1,4.226,1.918,4.6,4.6,0,0,1,2.131,3.392,5.5,5.5,0,0,1-3.565,5.775,5.291,5.291,0,0,1-4.071-.395c-1.235-.529-2.439-1.135-3.717-1.566a9.466,9.466,0,0,1-1.4-.664.508.508,0,0,0-.634.109,11.121,11.121,0,0,1-4.436,2.347,13.074,13.074,0,0,1-3.576.425q-17.157,0-34.311,0a11.409,11.409,0,0,1-7.587-2.838,9.86,9.86,0,0,1-2.471-2.959c-.365-.717-.747-1.432-1.056-2.189a20.989,20.989,0,0,1-.909-3.663A4.895,4.895,0,0,1,.034,99.7q0-21.81-.006-43.622a13.07,13.07,0,0,1,2.321-7.384,27,27,0,0,1,3.785-4.173c1.8-1.773,3.571-3.569,5.355-5.355.476-.478.44-.412-.166-.708A5.474,5.474,0,0,1,8.835,36.5a5.21,5.21,0,0,1-.781-2.859c-.032-2.944-.034-5.888.019-8.833A4.633,4.633,0,0,1,9.01,21.79a4.762,4.762,0,0,1,1.982-1.408,6.709,6.709,0,0,1,2.441-.343q16.222.016,32.444.023A4.893,4.893,0,0,1,49.719,21.6a4.245,4.245,0,0,1,1.135,2.641c.2,3.177.085,6.356.073,9.533a4.687,4.687,0,0,1-3.254,4.636,5.165,5.165,0,0,1-.736.186c.6.623,1.246,1.208,1.794,1.871.836,1.011,1.884,1.8,2.778,2.756q1.77,1.891,3.6,3.732a11.846,11.846,0,0,1,3.117,5.259c.215.792.365,1.581.518,2.381a41.848,41.848,0,0,1,.2,5.912c0,.015.019.026.032.041.188.036.186-.117.235-.228q4.7-10.983,9.407-21.967c.61-1.427,1.171-2.878,1.818-4.288a3.815,3.815,0,0,1,3.621-2.279,3.615,3.615,0,0,1,2.176.582c.388.258.546.011.646-.23.384-.926.77-1.85,1.222-2.744A4.619,4.619,0,0,1,83.841,27.2c.393.13.574.07.723-.284q.874-2.061,1.756-4.118c.681-1.6,1.391-3.185,2.038-4.8.585-1.461,1.248-2.889,1.835-4.35.431-1.073.917-2.131,1.389-3.192.495-1.118.956-2.253,1.436-3.377q.733-1.712,1.474-3.42c.382-.879.747-1.769,1.158-2.635A1.581,1.581,0,0,1,97.885.19a1.631,1.631,0,0,1,.685,2.244c-.738,1.715-1.468,3.435-2.2,5.15q-2.3,5.37-4.6,10.74-1.975,4.618-3.958,9.234c-.122.284-.07.612-.363.868-.213.188.092.314.267.4a5.473,5.473,0,0,1,2.272,1.73,4.529,4.529,0,0,1,.495,4.668c-.361.826-.636,1.685-1.06,2.486-.1.2.013.361.294.446a4.165,4.165,0,0,1,3.015,3.008,4.49,4.49,0,0,1-.435,3.1c-1.129,2.55-2.2,5.123-3.3,7.683-.3.7-.664,1.331-1.57,1.346a1.56,1.56,0,0,1-1.585-2.138c.529-1.4,1.148-2.759,1.732-4.135.576-1.359,1.167-2.712,1.735-4.075.4-.975.3-1.242-.666-1.645-2.68-1.12-5.349-2.268-8.026-3.4-1.961-.83-3.915-1.681-5.865-2.537-.832-.365-1.082-.265-1.459.525-.911,1.9-1.656,3.883-2.616,5.765-.158.309.028.444.3.559q2.3.963,4.583,1.948c.657.282,1.31.574,1.513,1.361a1.462,1.462,0,0,1-.435,1.551A1.561,1.561,0,0,1,75,47.482a54.321,54.321,0,0,1-5.321-2.234c-.346-.16-.452-.13-.617.239a29.591,29.591,0,0,1-1.837,4.137.853.853,0,0,0-.051.307M18.7,58.67c.418-1.24.794-1.521,2.153-1.6.183-.011.367-.013.548-.013q10.73-.006,21.459-.006,6.148,0,12.291.011c.2,0,.429.051.425-.267-.021-2.336-.273-4.619-1.924-6.458-1.707-1.9-3.533-3.687-5.353-5.481q-2.554-2.519-4.954-5.182a3.175,3.175,0,0,0-2.624-1.1c-7.39.036-14.781.015-22.171.013q-.685,0-1.372.013a.975.975,0,0,0-.7.254c-.463.44-.949.856-1.4,1.306-1.122,1.126-2.225,2.272-3.343,3.4C9.923,45.389,8.1,47.211,6.29,49.05a9.592,9.592,0,0,0-1.8,2.509,11.058,11.058,0,0,0-1.161,4.41c-.06,1.269-.228,1.065.977,1.071,3.072.017,6.147,0,9.219.011a4.627,4.627,0,0,1,1.312.149c.747.218.992.877,1.316,1.468-.053.151-.111.3-.156.454a1.811,1.811,0,0,1-1.8,1.278c-3.478,0-6.953.011-10.431.009-.32,0-.437.077-.437.431q0,13.6-.021,27.213c0,.378.1.493.495.495,16.708.073,33.413-.079,50.118.068.183,0,.348.017.444-.213.431-1.045.879-2.084,1.325-3.126.049-.115.132-.2-.068-.286a7.537,7.537,0,0,0-2.885-1c-14.346-.011-28.691.049-43.037-.015a1.328,1.328,0,0,1-.949-.339,1.58,1.58,0,0,1-.687-1.613,1.621,1.621,0,0,1,1.447-1.3,11.512,11.512,0,0,1,1.15-.07q8.18,0,16.358,0,8.538,0,17.072,0a11.982,11.982,0,0,0,2.018.028,2.516,2.516,0,0,0-.194-.309,6.844,6.844,0,0,1-1.293-2.332c-.156-.486-.032-1.216-.4-1.429-.414-.239-1.067-.062-1.615-.062q-16.331-.006-32.664-.015a1.791,1.791,0,0,1-1.907-1.609A1.7,1.7,0,0,1,9.81,73.25c.548-.026,1.1-.032,1.647-.032q16.769,0,33.541.011a.949.949,0,0,0,.821-.311,5.446,5.446,0,0,1,4.022-1.85,8.46,8.46,0,0,1,3.74,1.122c.369.164.518.1.657-.241.367-.892.742-1.784,1.131-2.669a2.383,2.383,0,0,0,.2-1c-.011-2.4-.021-4.792.006-7.188.006-.512-.1-.678-.649-.676q-16.686.016-33.374-.006a12.315,12.315,0,0,1-1.314-.062,1.524,1.524,0,0,1-1.261-.977c-.111-.224-.188-.465-.279-.7m9.257,33.246v0q-9.524,0-19.05,0c-1.683,0-3.367.015-5.05,0-.44-.006-.576.139-.557.57.036.73.006,1.464.028,2.2a61.778,61.778,0,0,0,.177,6.5,9.092,9.092,0,0,0,8.933,7.87c11.233-.109,22.47-.045,33.705-.051.109,0,.22-.006.329,0a8.027,8.027,0,0,0,4.233-.841c.126-.06.331-.09.335-.245.006-.194-.215-.226-.358-.273A24.858,24.858,0,0,1,48,106.593c-1.677-.766-3.4-1.436-5.046-2.27a5.193,5.193,0,0,1-.422-9.153,4.56,4.56,0,0,1,3.576-.642,21.578,21.578,0,0,1,4.357,1.786c.582.273.508-.122.6-.343.427-1,.8-2.035,1.24-3.034.452-1.02.48-1.018-.632-1.018q-11.857-.006-23.714,0m50.114-4.378a1.3,1.3,0,0,0-.365-1.124,3.447,3.447,0,0,0-1.336-.832q-11.163-4.775-22.325-9.539a32.584,32.584,0,0,0-3.638-1.485,1.77,1.77,0,0,0-1.956.412,2.173,2.173,0,0,0,.817,3.659c1.449.649,2.872,1.361,4.344,1.946,1.543.612,3.053,1.3,4.585,1.931,1.952.809,3.889,1.653,5.835,2.479q2.775,1.181,5.556,2.358c1.873.794,3.742,1.6,5.62,2.381a1.74,1.74,0,0,0,.977.2,2.2,2.2,0,0,0,1.886-2.39M62.612,108.927a1.891,1.891,0,0,0,1.749-2.323,1.734,1.734,0,0,0-1.178-1.261q-5.831-2.493-11.662-4.984c-1.954-.834-3.911-1.668-5.9-2.428a1.453,1.453,0,0,0-1.336.113c-1.048.8-1.538,2-.179,3.049a3.049,3.049,0,0,0,.672.365q8.4,3.616,16.814,7.218a2.182,2.182,0,0,0,1.018.252m.1-20.644c.081-.254-.094-.324-.271-.4-1.062-.446-2.153-.845-3.181-1.363-.553-.279-.672.03-.8.382-.781,2.116-1.777,4.143-2.626,6.232-.563,1.389-1.191,2.754-1.8,4.126-.124.284-.09.553.194.638,1.191.358,2.285.943,3.435,1.4.213.083.341.051.435-.164.32-.74.734-1.455.992-2.206.55-1.6,1.35-3.083,1.954-4.655.395-1.024.881-2.018,1.287-3.042.124-.316.252-.632.38-.947m-44.9-59.034h.011c0,1.845.009,3.693-.009,5.539,0,.361.119.491.469.486.821-.009,1.645-.009,2.468.009.311.006.416-.109.414-.416q0-5.565.013-11.128c0-.292-.1-.382-.386-.378-.86.017-1.72.026-2.577.009-.354-.009-.414.128-.412.452.019,1.809.009,3.618.009,5.428m16.68.115c0-1.848-.011-3.7.009-5.541,0-.367-.107-.48-.465-.465-.585.021-1.171,0-1.758-.009-1.182-.019-1.182-.021-1.156,1.129,0,.075,0,.147,0,.22.017,3.292.041,6.584.041,9.876,0,.506.141.719.681.693a20.421,20.421,0,0,1,2.138.034c.412.028.527-.09.523-.506-.023-1.811-.011-3.623-.011-5.432M27.8,29.289h.006c0-1.826-.011-3.655.009-5.483,0-.333-.064-.457-.414-.448-.8.019-1.611.017-2.415-.009-.395-.013-.529.092-.527.518q.042,5.456.023,10.913c0,.4.119.512.495.5.768-.019,1.536-.03,2.3,0,.407.017.533-.1.527-.512-.021-1.828-.009-3.657-.009-5.485m13.281.017h0c0-1.828,0-3.657,0-5.485,0-.181.137-.474-.258-.472-.9.006-1.792,0-2.688,0-.262,0-.343.124-.341.375q.022,5.54.032,11.081c0,.38.179.465.5.465.751,0,1.5-.013,2.251.028.405.021.527-.075.521-.5-.026-1.828-.011-3.657-.011-5.487m-26.577.017h0c0-1.792-.015-3.584.011-5.376.006-.467-.151-.6-.6-.587a9.913,9.913,0,0,0-1.53.085,1.227,1.227,0,0,0-1.067,1.291q0,4.608,0,9.217a1.277,1.277,0,0,0,1.361,1.338c.365,0,.734-.028,1.1.006.687.066.728.043.728-.651V29.323m29.974-.068h0c0,1.515,0,3.032,0,4.547,0,1.447.006,1.447,1.472,1.457,1.235.006,1.632-.375,1.643-1.634.011-1.2,0-2.409-.009-3.614-.011-1.771-.009-3.542-.043-5.312a1.18,1.18,0,0,0-1.218-1.263c-.454-.038-.915,0-1.368-.045-.4-.034-.493.117-.489.5.017,1.788.006,3.578.006,5.368M87.623,33.3a1.261,1.261,0,0,0-.792-1.267,40.216,40.216,0,0,0-3.983-1.677,1.375,1.375,0,0,0-1.884.821c-.333.71-.634,1.438-.994,2.134-.2.4-.117.57.279.736,1.9.8,3.8,1.607,5.684,2.441.335.147.472.13.606-.22.245-.646.536-1.278.8-1.918a2.9,2.9,0,0,0,.284-1.05" transform="translate(0 0.001)" fill="#1e1f21"/>
          <path id="Trazado_818840" data-name="Trazado 818840" d="M16.946,27.5c.092.235.169.474.277.7a1.528,1.528,0,0,0,1.263.975,12.3,12.3,0,0,0,1.312.062q16.689.013,33.377.006c.546,0,.655.164.649.676-.028,2.4-.017,4.792-.006,7.188a2.421,2.421,0,0,1-.2,1c-.386.883-.762,1.775-1.129,2.669-.139.339-.288.4-.657.241a8.441,8.441,0,0,0-3.74-1.122,5.438,5.438,0,0,0-4.022,1.85.955.955,0,0,1-.821.309q-16.773-.01-33.541-.011c-.55,0-1.1.006-1.647.034a1.7,1.7,0,0,0-1.781,1.673,1.791,1.791,0,0,0,1.907,1.611q16.331.006,32.664.015c.548,0,1.2-.177,1.613.06.371.213.247.943.4,1.432a6.8,6.8,0,0,0,1.293,2.33,3.277,3.277,0,0,1,.194.309,11.762,11.762,0,0,1-2.018-.028q-8.535.01-17.072,0-8.18,0-16.358,0a11.512,11.512,0,0,0-1.15.07,1.621,1.621,0,0,0-1.447,1.3,1.582,1.582,0,0,0,.685,1.615,1.332,1.332,0,0,0,.952.337c14.346.064,28.691.006,43.035.015a7.5,7.5,0,0,1,2.887,1c.2.085.117.169.066.286-.444,1.039-.892,2.078-1.323,3.123-.1.23-.26.218-.444.215-16.705-.149-33.413,0-50.118-.07-.395,0-.5-.117-.495-.495q.022-13.608.019-27.213c0-.352.117-.431.44-.431,3.478,0,6.953-.013,10.431-.009a1.806,1.806,0,0,0,1.8-1.276c.047-.154.1-.3.158-.454a7.577,7.577,0,0,0,2.55,0m10.776,7.117v0H10.7c-.913,0-1.828-.009-2.744.011A1.794,1.794,0,0,0,6.293,35.89a1.939,1.939,0,0,0,.777,1.73,2.315,2.315,0,0,0,1.468.292q19.214.01,38.429.013A3.359,3.359,0,0,0,48,37.806a1.44,1.44,0,0,0,1.067-1.077,1.58,1.58,0,0,0-.446-1.656,2.625,2.625,0,0,0-1.845-.457H27.722" transform="translate(1.755 31.171)" fill="#3b5620"/>
          <path id="Trazado_818841" data-name="Trazado 818841" d="M16.956,38.179a7.522,7.522,0,0,1-2.55,0c-.326-.591-.57-1.25-1.319-1.468a4.69,4.69,0,0,0-1.31-.149c-3.074-.006-6.147.006-9.221-.011-1.2-.006-1.035.2-.975-1.069a11.059,11.059,0,0,1,1.161-4.412,9.628,9.628,0,0,1,1.8-2.509C6.353,26.72,8.177,24.9,9.99,23.065c1.118-1.131,2.221-2.276,3.343-3.4.45-.45.937-.866,1.4-1.306a.983.983,0,0,1,.7-.254c.457-.009.915-.011,1.372-.011,7.39,0,14.781.021,22.171-.015a3.169,3.169,0,0,1,2.622,1.1c1.6,1.777,3.254,3.5,4.954,5.18,1.82,1.794,3.648,3.58,5.355,5.483,1.651,1.837,1.9,4.12,1.924,6.456,0,.318-.226.269-.425.267q-6.144-.006-12.291-.011-10.73,0-21.459.006c-.181,0-.365,0-.548.013-1.361.085-1.735.365-2.153,1.6" transform="translate(1.744 20.491)" fill="url(#linear-gradient)"/>
          <path id="Trazado_818842" data-name="Trazado 818842" d="M26.2,43.086q11.857,0,23.716,0c1.109,0,1.082,0,.629,1.018-.444,1-.813,2.029-1.24,3.034-.094.222-.019.617-.6.344A21.576,21.576,0,0,0,44.352,45.7a4.56,4.56,0,0,0-3.576.642,5.193,5.193,0,0,0,.422,9.153c1.649.834,3.369,1.5,5.046,2.27a24.857,24.857,0,0,0,2.684,1.045c.143.047.365.079.361.273,0,.156-.209.186-.337.245a8.027,8.027,0,0,1-4.233.841c-.109-.011-.218,0-.329,0-11.235.006-22.472-.058-33.705.051a9.094,9.094,0,0,1-8.933-7.871,62.953,62.953,0,0,1-.177-6.5c-.021-.732.009-1.464-.026-2.2-.021-.431.115-.576.555-.57,1.683.019,3.367,0,5.052,0q9.524,0,19.048,0Z" transform="translate(1.754 48.831)" fill="url(#linear-gradient)"/>
          <path id="Trazado_818843" data-name="Trazado 818843" d="M52.693,47.991a2.2,2.2,0,0,1-1.884,2.39,1.744,1.744,0,0,1-.979-.2c-1.877-.785-3.746-1.587-5.62-2.383q-2.778-1.178-5.556-2.355c-1.946-.828-3.883-1.673-5.835-2.479-1.532-.634-3.04-1.319-4.583-1.931-1.474-.585-2.9-1.3-4.344-1.946a2.171,2.171,0,0,1-.817-3.659,1.77,1.77,0,0,1,1.956-.414A33.182,33.182,0,0,1,28.67,36.5q11.169,4.752,22.323,9.539a3.45,3.45,0,0,1,1.338.83,1.3,1.3,0,0,1,.363,1.126" transform="translate(25.376 39.55)" fill="#f8f9fb"/>
          <path id="Trazado_818844" data-name="Trazado 818844" d="M39.619,56.954A2.182,2.182,0,0,1,38.6,56.7q-8.41-3.6-16.814-7.218a3.148,3.148,0,0,1-.672-.365c-1.359-1.048-.868-2.251.179-3.049a1.454,1.454,0,0,1,1.336-.113c1.988.76,3.945,1.594,5.9,2.428q5.831,2.49,11.662,4.984a1.727,1.727,0,0,1,1.176,1.261,1.889,1.889,0,0,1-1.749,2.323" transform="translate(22.993 51.973)" fill="#f8f9fb"/>
          <path id="Trazado_818845" data-name="Trazado 818845" d="M34.038,42.373c-.126.316-.254.629-.38.945-.405,1.026-.892,2.018-1.287,3.045-.6,1.572-1.4,3.057-1.954,4.655-.258.751-.67,1.466-.992,2.206-.094.215-.222.247-.435.162-1.148-.454-2.242-1.039-3.433-1.4-.284-.085-.32-.354-.194-.638.606-1.372,1.231-2.737,1.794-4.126.849-2.091,1.848-4.116,2.628-6.232.13-.354.247-.661.8-.382,1.028.518,2.116.915,3.181,1.361.175.075.35.143.269.4" transform="translate(28.672 45.913)" fill="#fff"/>
          <path id="Trazado_818846" data-name="Trazado 818846" d="M8.354,16.839c0-1.809.009-3.618-.009-5.428,0-.324.058-.461.41-.454.86.017,1.72.011,2.579-.006.282,0,.388.085.386.378q-.016,5.562-.013,11.128c0,.307-.1.42-.416.414-.821-.017-1.645-.015-2.466-.006-.35,0-.474-.126-.469-.489.015-1.845.006-3.691.006-5.536Z" transform="translate(9.459 12.413)" fill="#d090b4"/>
          <path id="Trazado_818847" data-name="Trazado 818847" d="M17.961,16.961c0,1.811-.013,3.621.011,5.432,0,.416-.111.533-.523.508a19.318,19.318,0,0,0-2.138-.034c-.54.023-.681-.19-.681-.7,0-3.292-.023-6.584-.041-9.876,0-.073,0-.145,0-.22-.026-1.15-.026-1.148,1.156-1.129.587.011,1.173.03,1.756.009.361-.015.469.1.467.465-.019,1.845-.009,3.693-.009,5.541" transform="translate(16.531 12.404)" fill="#d090b4"/>
          <path id="Trazado_818848" data-name="Trazado 818848" d="M14.807,16.886c0,1.828-.013,3.657.009,5.483.006.416-.119.531-.527.514-.768-.034-1.536-.021-2.3,0-.375.009-.5-.1-.495-.5q.013-5.456-.023-10.915c0-.427.132-.531.527-.518.8.028,1.611.03,2.413.011.352-.009.42.115.416.448-.019,1.826-.009,3.655-.009,5.483h-.006" transform="translate(12.997 12.406)" fill="#d090b4"/>
          <path id="Trazado_818849" data-name="Trazado 818849" d="M21.008,16.9c0,1.828-.015,3.659.011,5.487.006.427-.115.523-.521.5-.749-.043-1.5-.03-2.249-.028-.324,0-.506-.085-.506-.465q0-5.543-.032-11.084c0-.252.079-.375.341-.373q1.344.01,2.688,0c.395,0,.256.288.258.469.009,1.828.006,3.659.006,5.487Z" transform="translate(20.077 12.405)" fill="#d090b4"/>
          <path id="Trazado_818850" data-name="Trazado 818850" d="M8.493,16.915v5.321c0,.7-.038.717-.728.653-.363-.034-.73-.006-1.1-.009a1.275,1.275,0,0,1-1.361-1.336q0-4.608,0-9.217a1.226,1.226,0,0,1,1.067-1.291,9.926,9.926,0,0,1,1.532-.087c.444-.017.6.119.6.589-.026,1.792-.011,3.584-.011,5.376Z" transform="translate(6.015 12.411)" fill="#d090b4"/>
          <path id="Trazado_818851" data-name="Trazado 818851" d="M20.854,16.83c0-1.79.011-3.58-.009-5.368,0-.378.09-.531.489-.5.454.041.915.009,1.37.045a1.182,1.182,0,0,1,1.218,1.263c.034,1.771.032,3.542.041,5.312.006,1.205.019,2.411.009,3.616-.011,1.257-.407,1.639-1.641,1.632-1.466-.009-1.47-.009-1.472-1.457,0-1.515,0-3.032,0-4.547h0" transform="translate(23.628 12.425)" fill="#d090b4"/>
          <path id="Trazado_818852" data-name="Trazado 818852" d="M45.193,17.237a2.9,2.9,0,0,1-.284,1.05c-.265.64-.555,1.272-.8,1.918-.134.35-.271.367-.606.22-1.886-.834-3.783-1.643-5.684-2.441-.4-.166-.484-.339-.279-.736.361-.7.661-1.423.994-2.134a1.375,1.375,0,0,1,1.884-.821A40.219,40.219,0,0,1,44.4,15.969a1.261,1.261,0,0,1,.792,1.267" transform="translate(42.431 16.068)" fill="#fff"/>
          <path id="Trazado_818853" data-name="Trazado 818853" d="M25.219,30.835h19.05a2.625,2.625,0,0,1,1.845.457,1.58,1.58,0,0,1,.446,1.656,1.44,1.44,0,0,1-1.067,1.077,3.359,3.359,0,0,1-1.03.119q-19.214-.006-38.429-.013a2.315,2.315,0,0,1-1.468-.292,1.939,1.939,0,0,1-.777-1.73A1.794,1.794,0,0,1,5.456,30.85c.915-.019,1.831-.011,2.744-.011H25.219Z" transform="translate(4.258 34.953)" fill="#1e1f21"/>
        </g>
      </g>
    </g>
  </g>
</svg>
