<svg xmlns="http://www.w3.org/2000/svg" xmlns:xlink="http://www.w3.org/1999/xlink" width="295" height="163" viewBox="0 0 295 163">
  <defs>
    <clipPath id="clip-path">
      <rect id="Rect치ngulo_377249" data-name="Rect치ngulo 377249" width="295" height="163" transform="translate(1020 2571)" fill="none" stroke="#707070" stroke-width="1"/>
    </clipPath>
    <clipPath id="clip-path-2">
      <rect id="Rect치ngulo_376987" data-name="Rect치ngulo 376987" width="168.037" height="160.313" fill="none"/>
    </clipPath>
  </defs>
  <g id="Grupo_1072911" data-name="Grupo 1072911" transform="translate(-15329 8875)">
    <g id="Enmascarar_grupo_184" data-name="Enmascarar grupo 184" transform="translate(14309 -11446)" clip-path="url(#clip-path)">
      <g id="Grupo_1072875" data-name="Grupo 1072875" transform="translate(1091.999 2571)">
        <g id="Grupo_1072573" data-name="Grupo 1072573" clip-path="url(#clip-path-2)">
          <path id="Trazado_818318" data-name="Trazado 818318" d="M81.275,4.343a26.165,26.165,0,0,1,5.592,6.131c2.183,3.611,4.285,7.27,6.4,10.918,2.349,4.043,4.677,8.1,7.017,12.147,1.292,2.235,2.647,4.437,3.852,6.719.344.65.7,1.261,1.09,1.883,1.661,2.653,3.176,5.4,4.741,8.113,1.388,2.406,2.782,4.809,4.157,7.223,1.75,3.07,3.5,6.142,5.213,9.232a3.368,3.368,0,0,0,1.436,1.4,45.061,45.061,0,0,1,4.111,2.469c4.511,2.933,7.74,7.014,10.476,11.545a24.334,24.334,0,0,1,2.976,6.8c.264,1.091,1.022,2.142.6,3.367a3.446,3.446,0,0,1,.683,2.1,13.38,13.38,0,0,1,.167,2.594c-.036.982.289,1.968.259,2.975a40.355,40.355,0,0,1-1.038,7.824,38.547,38.547,0,0,1-3.714,9.723c-.2.365-.1.552.179.83,2.062,2.022,4.224,3.944,6.157,6.094a1.486,1.486,0,0,0,1.516.529,5.59,5.59,0,0,1,5.285,1.5c3.715,3.605,7.408,7.232,11.117,10.844,2.213,2.154,4.45,4.284,6.658,6.444A5.665,5.665,0,0,1,167.663,150a5.35,5.35,0,0,1-1.279,1.96c-2.024,2.138-4.007,4.319-6.1,6.387a5.641,5.641,0,0,1-8.033.511c-2.932-2.589-5.555-5.5-8.386-8.189-3.183-3.029-6.326-6.1-9.521-9.115a6.676,6.676,0,0,1-2.127-3.993,6.376,6.376,0,0,1,.418-2.6.659.659,0,0,0-.222-.769q-2.919-2.754-5.8-5.55a.874.874,0,0,0-1.334-.095,32.432,32.432,0,0,1-9.472,4.84,37.567,37.567,0,0,1-9.037,1.808c-1.5.078-2.993.121-4.484.1a17.431,17.431,0,0,1-4.1-.374,53.063,53.063,0,0,1-8.469-2.863,41.492,41.492,0,0,1-4.594-2.391,36.791,36.791,0,0,1-4.55-3.557,27.563,27.563,0,0,1-2.175-2.259,1.878,1.878,0,0,0-1.492-.646c-17.841.018-35.683-.02-53.524.054A26,26,0,0,1,15.1,121.84a21.1,21.1,0,0,1-9.395-6.478,23.194,23.194,0,0,1-4.477-7.689,21.041,21.041,0,0,1-1.069-5.145c-.062-.754-.142-1.505-.159-2.263A21.514,21.514,0,0,1,2.915,89.12c2.017-3.6,4.117-7.153,6.173-10.732q4.763-8.287,9.519-16.58c2.009-3.484,4.057-6.946,6.077-10.424,2.461-4.239,4.926-8.476,7.358-12.732,1.674-2.929,3.22-5.934,4.959-8.823,1.942-3.226,3.788-6.506,5.706-9.744,1.416-2.391,2.656-4.89,4.134-7.24a38.742,38.742,0,0,1,3.211-4.7,24.411,24.411,0,0,1,6.877-5.6A19.021,19.021,0,0,1,63.863.3,25.14,25.14,0,0,1,68.134.017c4.691.248,9.112,1.352,12.937,4.251,0,.223.154,0,.2.074M68.746,107.372c.74.009.888-.267.705-1.149a25.24,25.24,0,0,1-.621-5.114c0-1.34-.049-2.682,0-4.021.021-.609-.192-.745-.737-.694a6.89,6.89,0,0,1-3.106-.454,8.338,8.338,0,0,1-4.857-11.1,7.683,7.683,0,0,1,4.293-4.21,9.513,9.513,0,0,1,3.684-.491,6.815,6.815,0,0,1,4.728,1.814c.5.447.608.251.847-.176A30.451,30.451,0,0,1,79.5,74.213a34.833,34.833,0,0,1,19.253-9.691c1.111-.157,1.112-.2.541-1.154-.1-.164-.2-.324-.3-.489q-5.83-10.064-11.659-20.127-2.816-4.863-5.622-9.733c-2.54-4.4-5.093-8.788-7.617-13.195a7.041,7.041,0,0,0-6.818-3.915,6.5,6.5,0,0,0-5.646,3.216c-1.245,2-2.357,4.082-3.536,6.123q-4.618,7.994-9.244,15.984c-1.231,2.128-2.494,4.239-3.678,6.393-1.16,2.11-2.484,4.121-3.64,6.237-1.684,3.084-3.487,6.1-5.252,9.143-1.423,2.451-2.879,4.882-4.293,7.338C29.248,75.1,26.533,79.866,23.8,84.625c-2.325,4.05-4.7,8.075-6.973,12.152a6.688,6.688,0,0,0-.913,4.485,7.5,7.5,0,0,0,7.234,6.126c15.134-.049,30.269-.022,45.4-.022l.2.007m43.476-42.438a10.413,10.413,0,0,0-.47-1.13q-2.87-4.968-5.76-9.924Q100.7,44.745,95.405,35.6C91.192,28.327,87.023,21.022,82.75,13.78a16.949,16.949,0,0,0-7.033-6.622A17.913,17.913,0,0,0,65.428,5.394,17.459,17.459,0,0,0,59,7.418a16.985,16.985,0,0,0-6.96,7.014c-1.921,3.506-3.989,6.931-5.951,10.415-1.142,2.028-2.345,4.042-3.542,6.05-2.283,3.832-4.456,7.73-6.687,11.594Q21.984,66.523,8.094,90.547a17.853,17.853,0,0,0,.662,20.271,17.307,17.307,0,0,0,10.2,6.7,19.678,19.678,0,0,0,4.706.432c7.662.006,15.324-.029,22.986.01,8.805.045,17.613-.177,26.416.13.832.029.686-.352.431-.795a21.541,21.541,0,0,1-1.8-3.671c-.293-.848-.741-1.015-1.558-1.014q-22.946.037-45.891.011a14.565,14.565,0,0,1-2.924-.111,12.508,12.508,0,0,1-7.187-3.667,12.362,12.362,0,0,1-1.866-14.659q7.779-13.492,15.563-26.98c4.083-7.076,8.191-14.138,12.24-21.233,1.537-2.693,3.222-5.3,4.567-8.11.517-1.081,1.324-2.057,1.892-3.149.416-.8.8-1.636,1.282-2.382,1.284-1.977,2.388-4.055,3.569-6.088.638-1.1,1.271-2.207,1.9-3.307.913-1.592,1.875-3.163,2.793-4.757a14.917,14.917,0,0,1,4.221-5.2,12.594,12.594,0,0,1,10.1-2.067,11.413,11.413,0,0,1,7.784,5.605q2.569,4.361,5.1,8.748,4.963,8.578,9.911,17.165Q99.195,52.869,105.2,63.314a1.246,1.246,0,0,0,.991.745,32.214,32.214,0,0,1,6.034.874M74.031,99.705a29.686,29.686,0,0,0,9.4,21.92,30.388,30.388,0,0,0,42.535-.5,30.425,30.425,0,0,0-21.623-51.85A30.292,30.292,0,0,0,74.031,99.705m88.859,48.283c-.067-.381-.373-.587-.625-.829-2.267-2.181-4.548-4.347-6.8-6.542q-5.262-5.124-10.486-10.287c-.474-.469-.768-.413-1.193.034q-2.943,3.092-5.932,6.138c-.445.451-.473.749,0,1.2q8.8,8.489,17.567,17.01c.421.409.728.44,1.156-.007,1.988-2.073,4-4.121,6.011-6.175.154-.157.342-.283.307-.546m-30.918-25.549a2.585,2.585,0,0,0-.272.221c-.5.536-1.01,1.072-1.5,1.618-.247.273-.1.478.134.686,1.9,1.709,3.548,3.682,5.482,5.361.348.3.574.311.88-.03a14.2,14.2,0,0,1,1.328-1.329c.355-.3.3-.507.007-.786q-2.842-2.71-5.675-5.43c-.115-.11-.248-.2-.382-.311m-64.51-31.31A2.939,2.939,0,0,0,70.609,88.3c0-1.89-1.181-2.9-3.4-2.9A2.7,2.7,0,0,0,64.7,88.184a2.928,2.928,0,0,0,2.763,2.945" transform="translate(0 0)"/>
          <path id="Trazado_818319" data-name="Trazado 818319" d="M123.228,6.55c-.05-.073-.208.149-.2-.074l.2.074" transform="translate(-41.953 -2.208)" fill="#ebeef1"/>
          <path id="Trazado_818320" data-name="Trazado 818320" d="M76.743,115.594c-15.134,0-30.269-.026-45.4.022a7.494,7.494,0,0,1-7.234-6.125,6.69,6.69,0,0,1,.912-4.485c2.278-4.077,4.649-8.1,6.974-12.152,2.732-4.759,5.447-9.528,8.185-14.283,1.414-2.456,2.871-4.887,4.293-7.338,1.765-3.04,3.568-6.059,5.252-9.143,1.155-2.115,2.479-4.127,3.639-6.237,1.184-2.154,2.447-4.265,3.678-6.394q4.621-7.992,9.244-15.983c1.179-2.041,2.291-4.124,3.536-6.123a6.5,6.5,0,0,1,5.646-3.216,7.041,7.041,0,0,1,6.818,3.915c2.523,4.407,5.076,8.8,7.617,13.195q2.811,4.866,5.622,9.733,5.826,10.065,11.659,20.127c.1.165.2.326.3.49.571.952.57,1-.542,1.154a34.833,34.833,0,0,0-19.253,9.691A30.452,30.452,0,0,0,81.872,90c-.24.426-.35.623-.848.176A6.81,6.81,0,0,0,76.3,88.367a9.5,9.5,0,0,0-3.684.491,7.683,7.683,0,0,0-4.293,4.21,8.339,8.339,0,0,0,4.857,11.1,6.9,6.9,0,0,0,3.106.454c.545-.051.758.085.737.693-.047,1.339,0,2.68,0,4.02a25.2,25.2,0,0,0,.621,5.114c.183.881.034,1.157-.7,1.149-.061-.1-.126-.117-.2-.007m-1-72.379a8.237,8.237,0,0,0-3.97.65c-2.163,1.115-3.735,2.8-3.916,5.271a63.157,63.157,0,0,0,.084,7.338c.118,2.688.213,5.378.357,8.065.077,1.439,0,2.876.123,4.323.177,2.083.1,4.186.187,6.28s.215,4.172.328,6.258c.188,3.5,3.995,6.878,7.837,6.16a7.011,7.011,0,0,0,5.974-6.27c.225-2.159.227-4.339.287-6.506.1-3.619.285-7.235.359-10.854.051-2.5.206-4.99.312-7.485.093-2.175.2-4.359.152-6.531a6.752,6.752,0,0,0-3.317-5.723c-1.484-.959-3.143-.925-4.8-.977" transform="translate(-8.192 -8.229)" fill="#ffe176"/>
          <path id="Trazado_818321" data-name="Trazado 818321" d="M114.934,67.66a32.279,32.279,0,0,0-6.034-.875,1.246,1.246,0,0,1-.992-.745q-6-10.444-12.016-20.884-4.947-8.586-9.911-17.165-2.533-4.382-5.1-8.749a11.412,11.412,0,0,0-7.784-5.6A12.592,12.592,0,0,0,63,15.7a14.912,14.912,0,0,0-4.221,5.2c-.917,1.594-1.88,3.165-2.793,4.757-.631,1.1-1.263,2.208-1.9,3.307-1.181,2.034-2.285,4.112-3.569,6.089-.484.745-.866,1.581-1.282,2.382-.568,1.092-1.375,2.068-1.892,3.149C46,43.4,44.314,46.007,42.777,48.7,38.728,55.8,34.62,62.857,30.537,69.932q-7.782,13.49-15.564,26.98a12.364,12.364,0,0,0,1.868,14.659,12.5,12.5,0,0,0,7.186,3.667,14.524,14.524,0,0,0,2.925.111q22.945.021,45.891-.012c.817,0,1.265.166,1.558,1.014a21.611,21.611,0,0,0,1.8,3.671c.256.442.4.824-.43.795-8.8-.306-17.61-.085-26.416-.13-7.661-.039-15.324,0-22.987-.011a19.647,19.647,0,0,1-4.705-.432,17.309,17.309,0,0,1-10.2-6.7,17.857,17.857,0,0,1-.662-20.271q13.9-24.017,27.766-48.057c2.231-3.864,4.4-7.762,6.687-11.594,1.2-2.007,2.4-4.021,3.542-6.05,1.962-3.484,4.029-6.908,5.95-10.415a16.985,16.985,0,0,1,6.96-7.014A17.452,17.452,0,0,1,68.14,8.12,17.908,17.908,0,0,1,78.429,9.883a16.954,16.954,0,0,1,7.034,6.622c4.272,7.243,8.442,14.547,12.654,21.825q5.292,9.14,10.587,18.276,2.877,4.963,5.76,9.924a10.554,10.554,0,0,1,.471,1.13" transform="translate(-2.712 -2.726)" fill="#fc636e"/>
          <path id="Trazado_818322" data-name="Trazado 818322" d="M112.338,135.552a30.379,30.379,0,0,1,60.629-2.851,29.823,29.823,0,0,1-8.689,24.27,30.388,30.388,0,0,1-42.535.5,29.687,29.687,0,0,1-9.405-21.92m30.8,26.028a26.171,26.171,0,0,0,25.573-28,26.057,26.057,0,0,0-52.04,1.648c-.23,14.32,11.5,26.159,26.467,26.353" transform="translate(-38.308 -35.847)" fill="#89c7fc"/>
          <path id="Trazado_818323" data-name="Trazado 818323" d="M234.046,215.261c.034.263-.154.389-.307.546-2.009,2.054-4.022,4.1-6.011,6.175-.428.446-.735.416-1.157.007q-8.771-8.518-17.566-17.01c-.471-.455-.443-.752,0-1.2q2.993-3.042,5.931-6.138c.426-.447.72-.5,1.194-.034q5.221,5.166,10.486,10.287c2.254,2.194,4.535,4.361,6.8,6.541.252.243.558.449.625.83" transform="translate(-71.157 -67.273)" fill="#ffe176"/>
          <path id="Trazado_818324" data-name="Trazado 818324" d="M199.278,185.8c.135.109.267.2.382.311q2.838,2.713,5.675,5.429c.293.279.349.484-.007.786A14.046,14.046,0,0,0,204,193.654c-.307.341-.533.332-.88.03-1.934-1.679-3.58-3.652-5.482-5.361-.231-.208-.381-.413-.134-.686.494-.546,1-1.082,1.5-1.618a2.732,2.732,0,0,1,.272-.221" transform="translate(-67.308 -63.359)" fill="#89c7fc"/>
          <path id="Trazado_818325" data-name="Trazado 818325" d="M100.941,135.321a2.928,2.928,0,0,1-2.763-2.945,2.7,2.7,0,0,1,2.508-2.786c2.221.005,3.4,1.014,3.4,2.9a2.939,2.939,0,0,1-3.147,2.827" transform="translate(-33.479 -44.192)" fill="#fc636e"/>
          <path id="Trazado_818326" data-name="Trazado 818326" d="M104.024,162.885c.07-.109.134-.092.2.007l-.2-.007" transform="translate(-35.473 -55.52)" fill="#fc636e"/>
          <path id="Trazado_818327" data-name="Trazado 818327" d="M98.389,53.091c1.653.051,3.313.018,4.8.976A6.754,6.754,0,0,1,106.5,59.79c.046,2.171-.06,4.357-.152,6.531-.107,2.494-.261,4.986-.312,7.485-.074,3.619-.26,7.234-.359,10.854-.059,2.167-.062,4.347-.287,6.506a7.011,7.011,0,0,1-5.973,6.27c-3.843.718-7.649-2.662-7.837-6.16-.113-2.086-.239-4.169-.328-6.257s-.01-4.2-.186-6.281c-.123-1.446-.046-2.884-.123-4.322-.144-2.688-.239-5.377-.357-8.066a63,63,0,0,1-.083-7.337c.181-2.475,1.753-4.156,3.916-5.271a8.22,8.22,0,0,1,3.97-.65m-1.7,35.759c.03,1.98.051,2.23.36,2.637a1.791,1.791,0,0,0,1.67.805,1.682,1.682,0,0,0,1.441-1.46c.055-2.117.2-4.229.27-6.343.11-3.342.157-6.687.356-10.027.089-1.492.049-2.987.121-4.482.112-2.363.266-4.731.239-7.1-.011-.94.175-1.891.135-2.842a1.61,1.61,0,0,0-1.708-1.694c-.656-.021-1.313-.013-1.968,0-1.391.019-1.978.575-1.914,1.949.076,1.657.047,3.313.13,4.972.155,3.12.243,6.247.347,9.371.094,2.8.2,5.589.334,8.383.1,2.092-.034,4.194.187,5.839" transform="translate(-30.835 -18.104)"/>
          <path id="Trazado_818328" data-name="Trazado 818328" d="M145.382,163.818c-14.967-.194-26.7-12.032-26.467-26.352a26.057,26.057,0,0,1,52.04-1.649,26.169,26.169,0,0,1-25.573,28m-.15-5.116c.1.127.214.088.33.034a16.4,16.4,0,0,1,2.647-.314,22.985,22.985,0,0,0,8.894-3.86,20.942,20.942,0,0,0,4.863-4.767,19.76,19.76,0,0,0,3.089-6.662c.248-.928.324-1.877.525-2.8a16.748,16.748,0,0,0-.142-6.432,19.363,19.363,0,0,0-1.691-5.23,20.737,20.737,0,0,0-6.567-7.812,18.806,18.806,0,0,0-7.759-3.406,21.175,21.175,0,0,0-7.53-.325,20.313,20.313,0,0,0-7.5,2.581,21.818,21.818,0,0,0-6.33,5.777,21.415,21.415,0,0,0-1.881,21.287,19.993,19.993,0,0,0,10.539,10.092,16.489,16.489,0,0,0,6.746,1.636,4.034,4.034,0,0,1,1.765.2" transform="translate(-40.55 -38.085)"/>
          <path id="Trazado_818329" data-name="Trazado 818329" d="M99.417,91.561c-.221-1.645-.086-3.746-.187-5.839-.134-2.794-.24-5.588-.334-8.383-.1-3.124-.192-6.251-.347-9.371-.082-1.659-.054-3.315-.13-4.972-.063-1.374.523-1.93,1.914-1.949.656-.009,1.313-.018,1.968,0a1.61,1.61,0,0,1,1.708,1.694c.04.951-.146,1.9-.135,2.842.026,2.374-.127,4.741-.239,7.1-.071,1.5-.032,2.99-.121,4.482-.2,3.34-.246,6.685-.356,10.027-.07,2.114-.215,4.227-.27,6.343A1.682,1.682,0,0,1,101.447,95a1.791,1.791,0,0,1-1.67-.805c-.309-.407-.331-.657-.36-2.637" transform="translate(-33.56 -20.814)" fill="#fc636e"/>
          <path id="Trazado_818330" data-name="Trazado 818330" d="M147.965,161.41a4.034,4.034,0,0,0-1.765-.2,16.49,16.49,0,0,1-6.746-1.636,19.993,19.993,0,0,1-10.539-10.092,21.415,21.415,0,0,1,1.881-21.287,21.818,21.818,0,0,1,6.33-5.777,20.314,20.314,0,0,1,7.5-2.581,21.176,21.176,0,0,1,7.53.325,18.806,18.806,0,0,1,7.759,3.406,20.738,20.738,0,0,1,6.567,7.812,19.363,19.363,0,0,1,1.691,5.23,16.748,16.748,0,0,1,.142,6.432c-.2.921-.277,1.87-.525,2.8A19.761,19.761,0,0,1,164.7,152.5a20.943,20.943,0,0,1-4.863,4.767,22.986,22.986,0,0,1-8.894,3.86,16.52,16.52,0,0,0-2.646.313c.04-.11.022-.193-.108-.21s-.251-.009-.223.178" transform="translate(-43.283 -40.793)" fill="#ebeef1"/>
          <path id="Trazado_818331" data-name="Trazado 818331" d="M158.85,182.939c-.028-.187.092-.2.223-.178s.148.1.108.21c-.118.055-.233.094-.331-.032" transform="translate(-54.168 -62.321)" fill="#fc636e"/>
        </g>
      </g>
    </g>
  </g>
</svg>
