<svg xmlns="http://www.w3.org/2000/svg" xmlns:xlink="http://www.w3.org/1999/xlink" width="295" height="163" viewBox="0 0 295 163">
  <defs>
    <clipPath id="clip-path">
      <rect id="Rect치ngulo_377251" data-name="Rect치ngulo 377251" width="295" height="163" transform="translate(1020 2571)" fill="none" stroke="#707070" stroke-width="1"/>
    </clipPath>
    <clipPath id="clip-path-2">
      <rect id="Rect치ngulo_376988" data-name="Rect치ngulo 376988" width="159" height="159" transform="translate(0 0.113)" fill="none"/>
    </clipPath>
  </defs>
  <g id="Enmascarar_grupo_185" data-name="Enmascarar grupo 185" transform="translate(-1020 -2571)" clip-path="url(#clip-path)">
    <g id="Grupo_1072878" data-name="Grupo 1072878" transform="translate(1088 2572.887)">
      <g id="Grupo_1072575" data-name="Grupo 1072575" clip-path="url(#clip-path-2)">
        <path id="Trazado_818332" data-name="Trazado 818332" d="M96.556,50.314H126.2c.773,0,1.144-.351.944-1.086a4.977,4.977,0,0,1-.1-1.37q-.015-14.548,0-29.1a2.425,2.425,0,0,1,2.635-2.67c1.527,0,2.488.931,2.628,2.7a.979.979,0,0,0,.681.948c5.858,2.705,11.571,5.707,17.355,8.562,1.358.67,2.761,1.277,4.091,1.975a15.711,15.711,0,0,1,3.935,2.388c.435.429.344,1.163.324,1.77-.047,1.483-1.15,2.042-2.318,2.479-1.146.429-2.292.863-3.456,1.247-.654.216-1.345.646-2.035.932-2.335.965-4.684,1.9-7.031,2.83-3.5,1.391-6.984,2.831-10.522,4.121-.89.324-1.1.711-1.006,1.537.1.892-.376,2.1.183,2.6.491.443,1.675.127,2.553.127,4.19,0,8.381-.051,12.57.026a11.3,11.3,0,0,1,5.652,1.289,9.831,9.831,0,0,1,5.187,7.351,29.359,29.359,0,0,1,.328,4.22q0,42.034,0,84.068c0,3.908-1.178,7.291-4.561,9.605a9.418,9.418,0,0,1-5.318,1.729c-45.529.385-91.058.061-136.587.169a11.748,11.748,0,0,1-4.8-.795A12.486,12.486,0,0,1,0,146.074Q.017,114.166.01,82.258c0-12.95-.04-25.9.038-38.85a10.587,10.587,0,0,1,2.318-5.993,12.494,12.494,0,0,1,7.4-5.155,15.573,15.573,0,0,1,4.84-.362,11.581,11.581,0,0,1,4.923,1.467,12.944,12.944,0,0,1,6.43,8.171,31.006,31.006,0,0,1,.5,7.987c-.009.639.147.818.8.808,2.591-.04,5.183-.029,7.774-.007.61.005.662-.212.4-.672A29.919,29.919,0,0,1,32.6,41.862c-.271-1.124-.351-2.307-.616-3.414-.3-1.27,0-2.549-.365-3.789-.161-.543.231-1.1.155-1.69-.134-1.038.129-2.072.078-3.127a7.985,7.985,0,0,1,.437-1.9,39.7,39.7,0,0,1,1.685-5.781,42.431,42.431,0,0,1,2.847-5.752A33.88,33.88,0,0,1,43.088,8.87,32.4,32.4,0,0,1,54.195,2.184,34.257,34.257,0,0,1,60.037.612,25.815,25.815,0,0,1,66.618.054a40.432,40.432,0,0,1,5.745.563A49.824,49.824,0,0,1,77.3,1.978a48.391,48.391,0,0,1,6.037,2.645,23.83,23.83,0,0,1,3.478,2.306,30.1,30.1,0,0,1,4.829,4.452,43.036,43.036,0,0,1,5.281,7.79,30.321,30.321,0,0,1,2.852,8.68,35.072,35.072,0,0,1,.778,6.758,34.009,34.009,0,0,1-.873,6.958,34.106,34.106,0,0,1-3.128,8.746M6.808,150.99a2.77,2.77,0,0,0,.813.914,7.46,7.46,0,0,0,4.935,1.594q67.584-.04,135.169-.021a3.084,3.084,0,0,0,.5,0,5.583,5.583,0,0,0,3.409-1.326,6.514,6.514,0,0,0,1.865-4.733q.015-42.433.017-84.867a11.579,11.579,0,0,0-.368-3.3,4.1,4.1,0,0,0-2.278-2.835,2.968,2.968,0,0,0-2.429-.785c-5.127-.04-10.254-.005-15.381-.038-.658,0-.747.205-.741.784.031,2.645.013,5.29.013,7.935,0,1.874,0,1.823,1.844,1.9a6.634,6.634,0,0,1,3.906,1c1.746,1.294,2.15,3.145,2.183,5.14.034,2.149.005,4.3.009,6.447,0,.38-.054.72.549.8a2.207,2.207,0,0,1,1.955,2.024c.091,1.937-.6,2.519-1.8,2.891a5.1,5.1,0,0,1-1.6.211c-1.847-.031-3.694,0-5.54-.021a2.079,2.079,0,0,0-1.374.441c-1.248.964-2.485,1.945-3.772,2.854-3.415,2.411-6.745,4.939-10.134,7.386-1.657,1.2-3.313,2.425-4.942,3.675-2.437,1.871-4.974,3.612-7.489,5.38a.933.933,0,0,0-.42.968,7.229,7.229,0,0,1-.062,2.052,8.072,8.072,0,0,1-2.327,4.164A7.915,7.915,0,0,1,90,105.165a1,1,0,0,0-.509-1c-1.951-1.316-3.824-2.742-5.786-4.049-1.879-1.253-3.6-2.746-5.416-4.092-2.173-1.61-4.48-3.033-6.585-4.74a.829.829,0,0,0-1.215-.013,6.743,6.743,0,0,1-2.761,1.14,7.007,7.007,0,0,1-5.6-.784,1.263,1.263,0,0,0-1.652.159c-1.8,1.426-3.614,2.827-5.433,4.222q-7.672,5.884-15.355,11.754a38.631,38.631,0,0,1-4.451,3.194,2.487,2.487,0,0,1-3.287-1.461c-.539-1.768,0-2.451,1.433-3.589,1.507-1.2,3.085-2.3,4.6-3.48,1.6-1.238,3.138-2.545,4.744-3.771,2.687-2.051,5.415-4.047,8.106-6.092,2.359-1.792,4.669-3.649,7.053-5.405a1,1,0,0,0,.512-1.131A7.8,7.8,0,0,1,61.9,77.961c3.631-2.089,8.918-1.2,11.165,2.894a6.66,6.66,0,0,1,.888,4.584,1.382,1.382,0,0,0,.7,1.645c1.117.678,2.137,1.516,3.2,2.283q7.12,5.138,14.235,10.283c.324.235.488.358.888.052a7.725,7.725,0,0,1,2-1.127,8.023,8.023,0,0,1,7.263.754,1.494,1.494,0,0,0,2.127-.081c2.72-2.12,5.56-4.087,8.36-6.105,3.051-2.2,6-4.544,9.121-6.643.767-.516,1.492-1.1,2.441-1.8-.524,0-.788,0-1.05,0q-2.231-.024-4.463-.052a2.668,2.668,0,0,1-2.335-2.423,2.5,2.5,0,0,1,1.939-2.628c.528-.159.75-.364.739-.975-.045-2.506-.033-5.014-.01-7.52a5.1,5.1,0,0,1,3.134-4.431,11.668,11.668,0,0,1,4.084-.472c.573.019.733-.125.727-.714q-.05-4.545,0-9.092c.007-.644-.157-.807-.8-.8-5.9.027-11.8.016-17.7.016q-7.36,0-14.72,0c-.347,0-.677-.056-.955.307a28.187,28.187,0,0,1-4.876,5c-1.159.92-2.147,2.211-3.826,2.309a.328.328,0,0,0-.3.336c.016.369-.282.417-.507.553a33.376,33.376,0,0,1-7.81,3.36,31.866,31.866,0,0,1-10.244,1.377,29.308,29.308,0,0,1-5.483-.536c-1.135-.257-2.253-.626-3.375-.932a33.637,33.637,0,0,1-7.074-2.915A30.666,30.666,0,0,1,44.6,61.257a31.436,31.436,0,0,1-4.567-4.585A2.4,2.4,0,0,0,38,55.578c-3.527.068-7.057.058-10.584,0-.82-.013-.961.217-.96.989q.035,33.723.008,67.447a63.445,63.445,0,0,1-.132,6.586,10.18,10.18,0,0,1-3.024,6.6,11.2,11.2,0,0,1-7.428,3.044c-1.957.1-3.921-.229-5.875.318a6.466,6.466,0,0,0-3.2,10.424M37.06,34.567A28.986,28.986,0,0,0,67.549,63.5,27.564,27.564,0,0,0,86.676,55.1a28.675,28.675,0,0,0,8.469-23.083A29.094,29.094,0,0,0,37.06,34.567M5.3,136.952a17.1,17.1,0,0,1,4.112-1.685,28.9,28.9,0,0,1,5.929-.311c3.649-.013,5.826-2.161,5.827-5.792q0-41.946-.01-83.891a9.048,9.048,0,0,0-.256-2.184c-1.209-4.813-5.572-6.613-9.809-5.7a7.887,7.887,0,0,0-5.8,7.527q.02,43.392.008,86.784v5.251M149.568,33.931c-.63-.338-1.076-.593-1.535-.82-4.993-2.482-9.995-4.948-14.976-7.453-.7-.35-.7-.065-.7.484.012,3.111.006,6.221.006,9.331,0,1.541,0,3.083,0,4.623,0,.469.03.738.64.471,1.382-.6,2.8-1.132,4.2-1.692l12.366-4.945M129.654,79.4c1.568,0,3.136-.013,4.7.009.441.007.626-.086.621-.579q-.034-3.382.007-6.764c.005-.464-.123-.606-.6-.6q-4.708.034-9.416.008c-.492,0-.587.17-.583.616.02,2.227.025,4.454,0,6.681-.006.512.137.654.645.643,1.54-.033,3.081-.012,4.621-.011m-29.106,26.41a2.61,2.61,0,1,0-5.219.117,2.806,2.806,0,0,0,2.72,2.546c1.1-.07,2.7-1.2,2.5-2.663M68.788,84.837c-.179-1.855-1.133-2.588-2.87-2.724-1.1-.087-2.382,1.4-2.354,2.632A2.8,2.8,0,0,0,66.2,87.3a2.64,2.64,0,0,0,2.59-2.46" transform="translate(0 0)"/>
        <path id="Trazado_818333" data-name="Trazado 818333" d="M196.724,4.317a4.435,4.435,0,0,1-.184,1.83,2.73,2.73,0,0,1-3.158,1.948,2.73,2.73,0,0,1-1.929-2.4,12.473,12.473,0,0,1,.167-3.738C192.051.691,192.958.2,194.5.323a2.586,2.586,0,0,1,2.077,2.105,8.651,8.651,0,0,1,.146,1.888" transform="translate(-64.398 -0.102)"/>
        <path id="Trazado_818334" data-name="Trazado 818334" d="M214.511,12.054a2.017,2.017,0,0,1-.648,1.679c-.773.819-1.559,1.628-2.372,2.406-.98.938-2.953.455-3.746-.825a2.64,2.64,0,0,1,.562-3.28c.561-.564,1.156-1.1,1.7-1.677a2.778,2.778,0,0,1,3.033-.635,2.384,2.384,0,0,1,1.47,2.332" transform="translate(-69.78 -3.205)"/>
        <path id="Trazado_818335" data-name="Trazado 818335" d="M179.7,13.958a2.29,2.29,0,0,1-1.337,2.28,2.331,2.331,0,0,1-2.5-.129,8.646,8.646,0,0,1-2.772-2.835,2.592,2.592,0,0,1,.64-3.3,2.643,2.643,0,0,1,2.9-.052,10.4,10.4,0,0,1,2.908,3.024,2.13,2.13,0,0,1,.158,1.011" transform="translate(-58.121 -3.203)"/>
        <path id="Trazado_818336" data-name="Trazado 818336" d="M9.47,179.173a6.466,6.466,0,0,1,3.2-10.425c1.953-.546,3.918-.214,5.875-.317a11.2,11.2,0,0,0,7.429-3.045,10.18,10.18,0,0,0,3.024-6.6,63.829,63.829,0,0,0,.132-6.586q.025-33.723-.008-67.446c0-.772.14-1,.96-.989,3.527.054,7.057.064,10.583,0A2.4,2.4,0,0,1,42.7,84.854a31.468,31.468,0,0,0,4.567,4.585,30.718,30.718,0,0,0,4.777,3.213,33.652,33.652,0,0,0,7.074,2.915c1.123.305,2.241.674,3.375.931a29.315,29.315,0,0,0,5.484.536A31.86,31.86,0,0,0,78.22,95.657a33.4,33.4,0,0,0,7.81-3.36c.225-.137.524-.185.507-.554a.328.328,0,0,1,.3-.336c1.68-.1,2.667-1.389,3.826-2.308a28.233,28.233,0,0,0,4.876-5c.277-.364.608-.307.955-.307q7.359,0,14.719,0c5.9,0,11.8.011,17.7-.016.646,0,.811.16.8.8q-.055,4.546,0,9.092c.007.589-.153.733-.727.714a11.664,11.664,0,0,0-4.083.473,5.1,5.1,0,0,0-3.134,4.431c-.023,2.507-.035,5.014.011,7.52.011.61-.212.817-.74.975a2.5,2.5,0,0,0-1.939,2.628,2.67,2.67,0,0,0,2.335,2.423q2.231.028,4.463.052c.263,0,.527,0,1.051,0-.95.7-1.674,1.282-2.442,1.8-3.125,2.1-6.069,4.444-9.121,6.643-2.8,2.018-5.639,3.985-8.36,6.105a1.5,1.5,0,0,1-2.127.082,8.019,8.019,0,0,0-7.263-.754,7.7,7.7,0,0,0-2,1.127c-.4.307-.565.182-.888-.052q-7.107-5.156-14.235-10.282c-1.063-.767-2.083-1.605-3.2-2.283a1.384,1.384,0,0,1-.7-1.646,6.657,6.657,0,0,0-.888-4.583c-2.247-4.1-7.533-4.984-11.165-2.894a7.808,7.808,0,0,0-3.494,8.064,1,1,0,0,1-.512,1.131c-2.384,1.757-4.694,3.614-7.053,5.406-2.691,2.044-5.42,4.04-8.106,6.091-1.606,1.226-3.148,2.533-4.744,3.771-1.52,1.179-3.1,2.285-4.6,3.481-1.433,1.137-1.972,1.821-1.434,3.589a2.488,2.488,0,0,0,3.287,1.461,38.7,38.7,0,0,0,4.452-3.195q7.685-5.867,15.354-11.754c1.82-1.4,3.637-2.8,5.433-4.222a1.262,1.262,0,0,1,1.652-.159,7,7,0,0,0,5.595.784,6.725,6.725,0,0,0,2.761-1.139.828.828,0,0,1,1.215.013c2.105,1.707,4.412,3.13,6.585,4.739,1.819,1.347,3.537,2.839,5.416,4.092,1.961,1.308,3.835,2.734,5.786,4.05a1,1,0,0,1,.508,1,7.915,7.915,0,0,0,13.316,6.447,8.069,8.069,0,0,0,2.327-4.164,7.205,7.205,0,0,0,.062-2.052.934.934,0,0,1,.421-.968c2.514-1.768,5.051-3.509,7.489-5.38,1.629-1.25,3.285-2.478,4.943-3.675,3.389-2.447,6.718-4.975,10.133-7.386,1.288-.908,2.524-1.89,3.772-2.854a2.079,2.079,0,0,1,1.374-.441c1.847.023,3.694-.011,5.54.021a5.119,5.119,0,0,0,1.605-.21c1.191-.372,1.887-.955,1.8-2.891a2.206,2.206,0,0,0-1.954-2.024c-.6-.078-.549-.418-.549-.8,0-2.149.025-4.3-.009-6.447-.033-2-.437-3.846-2.183-5.14a6.644,6.644,0,0,0-3.906-1c-1.841-.074-1.843-.023-1.843-1.9,0-2.645.017-5.29-.014-7.934-.007-.579.083-.788.741-.784,5.127.033,10.254,0,15.381.038a2.968,2.968,0,0,1,2.429.785c0,.524-.011,1.047-.011,1.571q0,42.155,0,84.31a8.873,8.873,0,0,1-1.547,5.02A7.965,7.965,0,0,1,144.977,179q-67.189.025-134.378.015a2,2,0,0,0-1.129.155m63.984-32.882c-.016-.342-.253-.347-.5-.33-.188-.108-.38-.209-.561-.326-1.688-1.083-3.349-2.211-5.072-3.237a2.53,2.53,0,0,0-2.653.066c-1.646,1.013-3.237,2.117-4.832,3.211-1.53,1.049-1.686,1.062-3.229.035-1.472-.979-2.959-1.936-4.424-2.926a3.146,3.146,0,0,0-3.7-.123c-.665.414-1.338.816-1.987,1.254q-2.886,1.95-5.755,3.925a2.445,2.445,0,0,0-.51,3.472,2.347,2.347,0,0,0,3.373.869c.7-.513,1.473-.911,2.182-1.411,1.269-.9,2.576-1.734,3.858-2.612a.909.909,0,0,1,1.064-.1c1.715,1.114,3.391,2.29,5.094,3.42,1.793,1.19,2.475,1.648,4.411.228,1.688-1.237,3.491-2.318,5.233-3.485.364-.244.693-.407,1.111-.135,1.774,1.156,3.577,2.272,5.26,3.561,1.454,1.113,2.483,1.205,4.015.206,1.823-1.188,3.625-2.407,5.428-3.625a1.014,1.014,0,0,1,1.366-.036c1.9,1.336,3.861,2.579,5.8,3.862,1.734,1.149,3.016.285,3.816-.918a2.266,2.266,0,0,0-.373-2.835c-1.023-.861-2.22-1.456-3.244-2.284-1.633-1.32-3.446-2.359-5.178-3.523a2.627,2.627,0,0,0-2.817-.083c-2.024,1.2-3.978,2.527-5.9,3.894a.86.86,0,0,1-1.269-.015m16.485,19.516a2.941,2.941,0,0,0,2.48-1.721,2.212,2.212,0,0,0-.943-2.977c-2.693-1.85-5.366-3.731-8.163-5.428a2.734,2.734,0,0,0-3.181.23c-1.834,1.19-3.638,2.426-5.469,3.62-.256.167-.541.429-.922.181-1.868-1.216-3.778-2.371-5.6-3.651a3.246,3.246,0,0,0-3.641-.33c-1.906,1.221-3.807,2.456-5.636,3.786a.936.936,0,0,1-1.293.042c-.8-.559-1.584-1.166-2.409-1.64-1.012-.581-1.981-1.232-2.923-1.891a2.84,2.84,0,0,0-3.626-.223c-1.316.768-2.541,1.661-3.8,2.5-1.373.917-2.743,1.84-4.1,2.782a2.4,2.4,0,0,0-.774,2.959c.937,1.868,2.4,2.25,4.152,1.074q2.861-1.917,5.708-3.856c.282-.191.5-.367.872-.107,1.838,1.283,3.724,2.5,5.537,3.815,1.43,1.036,2.329,1.116,3.8.12,1.878-1.269,3.768-2.521,5.629-3.813a.789.789,0,0,1,1.08,0c2.04,1.424,4.144,2.756,6.108,4.288a.982.982,0,0,0,.5.2,3.493,3.493,0,0,0,2.6-.707c1.823-1.257,3.685-2.46,5.51-3.713a.892.892,0,0,1,1.227-.013c1.435,1.06,2.963,1.989,4.4,3.056a5.318,5.318,0,0,0,2.876,1.417M99.2,102.625c-.632-.624-1.253-1.175-1.8-1.792a3.075,3.075,0,0,0-2.621-1.03,2.591,2.591,0,0,0-1.975,3.315,9.371,9.371,0,0,0,2.221,2.6c.5.474.408.713-.027,1.132a12.89,12.89,0,0,0-1.959,2.095,2.527,2.527,0,0,0,.391,3.148,2.4,2.4,0,0,0,2.92.492,18.709,18.709,0,0,0,2.344-2.2c.391-.382.632-.395,1,.015a21.126,21.126,0,0,0,1.637,1.634,2.56,2.56,0,0,0,1.762.822,2.665,2.665,0,0,0,2.519-1.66,2.377,2.377,0,0,0-.646-2.784c-.591-.579-1.151-1.19-1.762-1.744-.326-.3-.342-.47-.011-.774.648-.6,1.268-1.226,1.872-1.868a2.419,2.419,0,0,0-.074-3.526,2.682,2.682,0,0,0-3.6-.044c-.74.7-1.446,1.437-2.182,2.172m35.841,23.651A2.456,2.456,0,0,0,132.5,128a2.042,2.042,0,0,0,.524,2.314,15.551,15.551,0,0,0,1.847,1.886c.5.43.439.671-.023,1.074-.642.559-1.22,1.193-1.805,1.814a2.524,2.524,0,0,0,3.541,3.567,22.268,22.268,0,0,0,1.941-1.912c.364-.406.55-.348.887.022.593.65,1.241,1.251,1.887,1.85a2.132,2.132,0,0,0,1.442.7,2.709,2.709,0,0,0,2.513-1.542,2.34,2.34,0,0,0-.446-2.756c-.624-.661-1.259-1.312-1.918-1.937-.267-.253-.372-.36-.021-.669.7-.617,1.344-1.3,1.983-1.989a2.163,2.163,0,0,0,.7-1.71,2.6,2.6,0,0,0-4.438-1.721c-.441.455-.91.882-1.35,1.338-.789.821-.783.826-1.557.05-.448-.449-.887-.906-1.346-1.343a2.024,2.024,0,0,0-1.822-.752m-17.51,31.589a6.452,6.452,0,0,0,2.651-.322,2.548,2.548,0,0,0,1.414-2.915,2.288,2.288,0,0,0-1.726-1.872,11.924,11.924,0,0,0-4.036-.046,2.585,2.585,0,0,0-1.982,1.878,3.227,3.227,0,0,0,.98,2.764c.828.7,1.792.421,2.7.512m13.241-.006a5.947,5.947,0,0,0,2.713-.338,2.636,2.636,0,0,0,1.342-2.977,2.332,2.332,0,0,0-1.733-1.79,12.124,12.124,0,0,0-4.128-.034,2.761,2.761,0,0,0-1.887,1.914,2.948,2.948,0,0,0,.976,2.7c.8.765,1.839.441,2.717.525m13.211,0a6.071,6.071,0,0,0,2.722-.337,2.6,2.6,0,0,0,1.354-2.959,2.294,2.294,0,0,0-1.707-1.8,12.162,12.162,0,0,0-4.036-.055,2.6,2.6,0,0,0-2,1.865c-.338.813.355,2.2,1.035,2.793.84.738,1.807.363,2.629.5" transform="translate(-2.662 -28.183)" fill="#e3eef8"/>
        <path id="Trazado_818337" data-name="Trazado 818337" d="M55.853,37.3a29.094,29.094,0,1,1,49.616,20.536,27.564,27.564,0,0,1-19.127,8.393A28.986,28.986,0,0,1,55.853,37.3M82.333,27.71h-.018c0,3,.011,6-.007,9a3.32,3.32,0,0,0,.973,2.461q3.809,3.842,7.646,7.654a2.748,2.748,0,0,0,1.7.926,2.6,2.6,0,0,0,2.588-1.545,2.772,2.772,0,0,0-.555-3.042c-2.154-2.106-4.272-4.251-6.422-6.363a1.962,1.962,0,0,1-.644-1.521c.022-5.258.031-10.516-.007-15.773a3.623,3.623,0,0,0-.622-2.478,2.738,2.738,0,0,0-2.914-.765,2.686,2.686,0,0,0-1.727,2.28c.016,3.056.007,6.11.007,9.166" transform="translate(-18.793 -2.731)" fill="#ffca27"/>
        <path id="Trazado_818338" data-name="Trazado 818338" d="M7.989,155.8v-5.251q0-43.392-.007-86.784a7.887,7.887,0,0,1,5.8-7.527c4.237-.914,8.6.886,9.809,5.7a9.056,9.056,0,0,1,.256,2.184q.019,41.946.01,83.892c0,3.63-2.178,5.779-5.827,5.792a28.905,28.905,0,0,0-5.929.311A17.136,17.136,0,0,0,7.989,155.8" transform="translate(-2.686 -18.844)" fill="#54d36c"/>
        <path id="Trazado_818339" data-name="Trazado 818339" d="M10.261,179.6a2,2,0,0,1,1.129-.155q67.188,0,134.378-.015a7.965,7.965,0,0,0,6.994-3.511,8.871,8.871,0,0,0,1.547-5.02q0-42.155,0-84.31c0-.524.007-1.047.011-1.571A4.094,4.094,0,0,1,156.6,87.85a11.579,11.579,0,0,1,.368,3.3q-.019,42.433-.017,84.866a6.51,6.51,0,0,1-1.865,4.733,5.574,5.574,0,0,1-3.409,1.326,3,3,0,0,1-.495,0q-67.584,0-135.169.02a7.46,7.46,0,0,1-4.935-1.593,2.776,2.776,0,0,1-.813-.914" transform="translate(-3.453 -28.605)" fill="#c3dbef"/>
        <path id="Trazado_818340" data-name="Trazado 818340" d="M216.687,46.864,204.32,51.808c-1.4.56-2.816,1.088-4.2,1.692-.611.267-.642,0-.64-.47.006-1.541,0-3.083,0-4.624,0-3.111.006-6.221-.006-9.331,0-.55,0-.835.7-.485,4.981,2.505,9.982,4.971,14.975,7.453.459.228.905.482,1.535.82" transform="translate(-67.119 -12.933)" fill="#ffca27"/>
        <path id="Trazado_818341" data-name="Trazado 818341" d="M192.731,115.642c-1.541,0-3.081-.021-4.621.012-.508.011-.651-.132-.644-.643.028-2.227.023-4.454,0-6.681,0-.447.091-.62.583-.616q4.708.028,9.416-.008c.474,0,.6.139.6.6q-.037,3.382-.007,6.764c0,.494-.18.585-.621.579-1.568-.022-3.136-.009-4.7-.009" transform="translate(-63.077 -36.24)" fill="#54d36c"/>
        <path id="Trazado_818342" data-name="Trazado 818342" d="M148.887,158.179c.2,1.462-1.4,2.592-2.5,2.663a2.807,2.807,0,0,1-2.72-2.547,2.61,2.61,0,1,1,5.219-.117" transform="translate(-48.339 -52.366)" fill="#ffca27"/>
        <path id="Trazado_818343" data-name="Trazado 818343" d="M101.021,126.474a2.64,2.64,0,0,1-2.59,2.46,2.8,2.8,0,0,1-2.634-2.553c-.029-1.232,1.249-2.718,2.354-2.632,1.738.136,2.691.87,2.87,2.724" transform="translate(-32.233 -41.637)" fill="#ffca27"/>
        <path id="Trazado_818344" data-name="Trazado 818344" d="M106.065,202.062a5.319,5.319,0,0,1-2.876-1.417c-1.435-1.068-2.962-2-4.4-3.057a.892.892,0,0,0-1.227.013c-1.825,1.254-3.687,2.456-5.51,3.713a3.5,3.5,0,0,1-2.6.707.983.983,0,0,1-.5-.2c-1.964-1.532-4.069-2.864-6.108-4.288a.789.789,0,0,0-1.08,0c-1.862,1.293-3.752,2.544-5.629,3.813-1.474,1-2.373.917-3.8-.12-1.813-1.315-3.7-2.531-5.537-3.815-.372-.259-.591-.084-.872.108q-2.849,1.935-5.708,3.855c-1.756,1.176-3.215.794-4.152-1.074a2.4,2.4,0,0,1,.774-2.959c1.356-.942,2.725-1.865,4.1-2.782,1.262-.843,2.487-1.735,3.8-2.5a2.84,2.84,0,0,1,3.626.223c.943.66,1.912,1.31,2.924,1.891.825.474,1.612,1.082,2.409,1.641a.936.936,0,0,0,1.293-.043c1.829-1.33,3.73-2.565,5.636-3.786a3.245,3.245,0,0,1,3.641.33c1.822,1.28,3.732,2.434,5.6,3.651.382.249.667-.014.923-.181,1.831-1.194,3.635-2.43,5.469-3.62a2.735,2.735,0,0,1,3.181-.23c2.8,1.7,5.47,3.578,8.163,5.428a2.212,2.212,0,0,1,.942,2.977,2.939,2.939,0,0,1-2.48,1.721" transform="translate(-18.787 -64.437)"/>
        <path id="Trazado_818345" data-name="Trazado 818345" d="M89.589,175.847a.861.861,0,0,0,1.269.015c1.918-1.368,3.871-2.695,5.9-3.894a2.626,2.626,0,0,1,2.817.083c1.732,1.165,3.545,2.2,5.178,3.523,1.024.828,2.221,1.423,3.244,2.284a2.266,2.266,0,0,1,.373,2.835c-.8,1.2-2.082,2.067-3.816.918-1.936-1.283-3.9-2.526-5.8-3.862a1.013,1.013,0,0,0-1.366.036c-1.8,1.218-3.6,2.437-5.428,3.625-1.532,1-2.561.906-4.014-.207-1.683-1.289-3.486-2.4-5.26-3.561-.417-.271-.746-.107-1.111.136-1.742,1.166-3.544,2.247-5.233,3.485-1.936,1.42-2.618.961-4.411-.228-1.7-1.131-3.379-2.306-5.094-3.421a.909.909,0,0,0-1.064.1c-1.282.877-2.59,1.717-3.858,2.612-.709.5-1.478.9-2.182,1.411a2.347,2.347,0,0,1-3.373-.869,2.445,2.445,0,0,1,.51-3.472q2.872-1.972,5.755-3.925c.648-.439,1.322-.841,1.987-1.254a3.145,3.145,0,0,1,3.7.123c1.465.989,2.952,1.947,4.424,2.926,1.543,1.026,1.7,1.013,3.229-.036,1.6-1.093,3.186-2.2,4.832-3.211a2.528,2.528,0,0,1,2.653-.066c1.723,1.026,3.384,2.153,5.072,3.237.182.117.374.217.561.325a.812.812,0,0,0,.5.33" transform="translate(-18.796 -57.738)"/>
        <path id="Trazado_818346" data-name="Trazado 818346" d="M142.166,110.749c.736-.735,1.441-1.471,2.182-2.172a2.682,2.682,0,0,1,3.6.044,2.42,2.42,0,0,1,.074,3.526c-.6.642-1.224,1.271-1.872,1.868-.331.3-.315.478.011.774.612.555,1.172,1.166,1.762,1.744a2.377,2.377,0,0,1,.646,2.784,2.666,2.666,0,0,1-2.519,1.66,2.56,2.56,0,0,1-1.762-.822,21.25,21.25,0,0,1-1.638-1.634c-.365-.409-.606-.4-1-.015a18.655,18.655,0,0,1-2.344,2.2,2.4,2.4,0,0,1-2.92-.491,2.527,2.527,0,0,1-.391-3.148,12.89,12.89,0,0,1,1.959-2.095c.435-.42.528-.658.027-1.132a9.36,9.36,0,0,1-2.221-2.6,2.591,2.591,0,0,1,1.975-3.315,3.076,3.076,0,0,1,2.621,1.03c.548.616,1.169,1.168,1.8,1.792" transform="translate(-45.631 -36.307)"/>
        <path id="Trazado_818347" data-name="Trazado 818347" d="M198.123,147.81a2.024,2.024,0,0,1,1.822.752c.459.437.9.894,1.346,1.343.774.776.768.771,1.557-.05.439-.457.908-.884,1.35-1.338a2.6,2.6,0,0,1,4.438,1.721,2.163,2.163,0,0,1-.7,1.71c-.638.685-1.281,1.372-1.982,1.989-.351.309-.247.417.021.67.66.625,1.295,1.276,1.918,1.937a2.341,2.341,0,0,1,.447,2.756,2.71,2.71,0,0,1-2.514,1.542,2.134,2.134,0,0,1-1.442-.7c-.646-.6-1.294-1.2-1.887-1.85-.337-.37-.523-.428-.887-.021a22.363,22.363,0,0,1-1.941,1.912,2.524,2.524,0,0,1-3.541-3.567c.585-.621,1.163-1.255,1.8-1.813.463-.4.52-.644.023-1.074a15.549,15.549,0,0,1-1.847-1.886,2.039,2.039,0,0,1-.523-2.313,2.455,2.455,0,0,1,2.535-1.72" transform="translate(-65.746 -49.717)"/>
        <path id="Trazado_818348" data-name="Trazado 818348" d="M171.211,192.752c-.907-.092-1.872.186-2.7-.512a3.229,3.229,0,0,1-.98-2.764,2.587,2.587,0,0,1,1.983-1.878,11.943,11.943,0,0,1,4.036.047,2.29,2.29,0,0,1,1.726,1.871,2.55,2.55,0,0,1-1.415,2.915,6.444,6.444,0,0,1-2.651.322" transform="translate(-56.345 -63.071)"/>
        <path id="Trazado_818349" data-name="Trazado 818349" d="M191.176,192.746c-.879-.084-1.913.24-2.717-.524a2.946,2.946,0,0,1-.976-2.7,2.762,2.762,0,0,1,1.887-1.913,12.107,12.107,0,0,1,4.128.034,2.329,2.329,0,0,1,1.732,1.79,2.636,2.636,0,0,1-1.342,2.977,5.939,5.939,0,0,1-2.713.338" transform="translate(-63.068 -63.07)"/>
        <path id="Trazado_818350" data-name="Trazado 818350" d="M211.077,192.749c-.821-.134-1.789.241-2.629-.5-.68-.6-1.374-1.979-1.035-2.793a2.6,2.6,0,0,1,2-1.865,12.162,12.162,0,0,1,4.036.055,2.294,2.294,0,0,1,1.707,1.8,2.6,2.6,0,0,1-1.354,2.959,6.071,6.071,0,0,1-2.722.337" transform="translate(-69.759 -63.072)"/>
        <path id="Trazado_818351" data-name="Trazado 818351" d="M106.435,177.832a.812.812,0,0,1-.5-.33c.251-.017.488-.012.5.33" transform="translate(-35.643 -59.722)" fill="#c3dbef"/>
        <path id="Trazado_818352" data-name="Trazado 818352" d="M95.75,31.782c0-3.056.009-6.11-.007-9.166a2.686,2.686,0,0,1,1.727-2.28,2.738,2.738,0,0,1,2.914.765,3.623,3.623,0,0,1,.622,2.478c.038,5.257.029,10.515.007,15.773a1.962,1.962,0,0,0,.644,1.521c2.15,2.112,4.268,4.257,6.422,6.363a2.772,2.772,0,0,1,.555,3.042,2.6,2.6,0,0,1-2.588,1.545,2.749,2.749,0,0,1-1.7-.926q-3.84-3.81-7.646-7.654a3.32,3.32,0,0,1-.973-2.461c.017-3,.007-6,.007-9h.018" transform="translate(-32.209 -6.803)"/>
      </g>
    </g>
  </g>
</svg>
