<svg xmlns="http://www.w3.org/2000/svg" xmlns:xlink="http://www.w3.org/1999/xlink" width="133.693" height="113.507" viewBox="0 0 133.693 113.507">
  <defs>
    <clipPath id="clip-path">
      <rect id="Rectángulo_377170" data-name="Rectángulo 377170" width="133.693" height="113.507" fill="none"/>
    </clipPath>
  </defs>
  <g id="Grupo_1072742" data-name="Grupo 1072742" transform="translate(12 10)">
    <path id="Trazado_819005" data-name="Trazado 819005" d="M2.75,94.75-1.5,93.5-3.25,72.75l3-8.5-4.25-22,1.25-13,13.75-9.5H23.25L35,21.5H80.25L89,10h13l6.5,11.5L102,41l1,10.25H93v10L86.75,69.5H78v9.25l-2.5,8.5L78,93.5H65l2.5-6.25-2.5-23L45,68H35L19,61.25H15.25l-2,11.5L8.5,82.25V93.5Z" fill="#fff"/>
    <g id="Grupo_1072741" data-name="Grupo 1072741" transform="translate(-12 -10)" clip-path="url(#clip-path)">
      <path id="Trazado_818854" data-name="Trazado 818854" d="M22.722,68.262l.171.216a5.819,5.819,0,0,1,.6.042c1.616.278,3.255.465,4.839.87a15.164,15.164,0,0,1,6.352,3.85,6.811,6.811,0,0,0,6.747,1.521c2.907-.765,5.2-2.39,6.113-5.349,1.005-3.258.059-6.158-2.2-8.65a1.336,1.336,0,0,0-.659-.32,29.787,29.787,0,0,0-6.612-.856,16.945,16.945,0,0,0-12.753,5.361,34.974,34.974,0,0,0-2.6,3.317" transform="translate(-11.308 -29.651)" fill="#161615"/>
      <path id="Trazado_818855" data-name="Trazado 818855" d="M132.109,35.27a10.8,10.8,0,0,0-4.748,2.264l-.544.412-2.18-3.163c.158-.14.313-.275.465-.411a32,32,0,0,0,2.409-2.182,9.09,9.09,0,0,0,.4-11.874,1.83,1.83,0,0,0-2.8-.351c-.134.1-.261.208-.389.315-2.475,2.078-4.944,4.163-7.432,6.227a1.89,1.89,0,0,1-1.023.5c-2.523.048-5.047.046-7.571.025a1.545,1.545,0,0,1-.892-.339c-1.13-.923-2.223-1.89-3.338-2.834-1.527-1.293-3.041-2.6-4.6-3.859a1.877,1.877,0,0,0-2.894.369,7.042,7.042,0,0,0-.461.669A9.276,9.276,0,0,0,98.69,33.424c.58.46,1.147.935,1.651,1.347l-2.11,3.092a42.113,42.113,0,0,0-3.813-2.135c-3.337-1.453-7.558-.035-8.415,3.558a.541.541,0,0,1-.389.3c-1.159.132-2.321.3-3.485.333A240.279,240.279,0,0,1,57.553,39.7a115.959,115.959,0,0,1-14.167-1.956c-2.9-.586-5.775-1.32-8.7-1.683A20.558,20.558,0,0,0,18.9,40.558c-.236.186-.476.366-.772.592a16.006,16.006,0,0,1-.963-8.44c.733-3.742,4.16-8.219,9.566-7.845a3.164,3.164,0,0,0,1.225-.168,1.818,1.818,0,0,0,1.109-1.733,1.836,1.836,0,0,0-1.526-1.678,10.852,10.852,0,0,0-6.521.967,13.771,13.771,0,0,0-7.784,12.3,18.232,18.232,0,0,0,1.926,8.826,1.124,1.124,0,0,1-.1,1.338,20.3,20.3,0,0,0-3.937,12.03,38.995,38.995,0,0,0,.6,5.4c.306,2.207.643,4.411,1.023,6.605a1.845,1.845,0,0,0,2.179,1.574,1.782,1.782,0,0,0,1.437-2.146c-.418-2.821-.885-5.635-1.323-8.454a18.49,18.49,0,0,1,.19-6.775c.1-.449.262-.691.781-.642.538.05,1.084.008,1.626.006a11.891,11.891,0,0,1,7.489,2.546c.841.65,1.629,1.367,2.462,2.028a8.628,8.628,0,0,0,5.5,1.928,13.343,13.343,0,0,0,7.6-2.315c3.978-2.7,5.855-6.414,5.052-11.26A32.231,32.231,0,0,0,44.721,41.7c10.684,2.314,21.519,2.265,32.361,2.095l.063.189c-.092.133-.179.269-.276.4-.45.6-.934,1.174-1.348,1.8A10.712,10.712,0,0,0,73.7,52.929a2.672,2.672,0,0,0,.724,1.506,1.6,1.6,0,0,0,1.918.261,1.8,1.8,0,0,0,1.041-1.9,8.06,8.06,0,0,1,2.193-5.874,11.155,11.155,0,0,1,5.479-3.552c.556-.152.894-.1,1.12.558a5.209,5.209,0,0,0,3.941,3.549A7.47,7.47,0,0,0,96.008,46.3c.545-.338,1.065-.714,1.645-1.1.17.437.315.824.47,1.207q2.82,7.009,5.649,14.013a1.209,1.209,0,0,1-.055,1.106,16.716,16.716,0,0,0-.938,2.366,10.8,10.8,0,0,0-.26,1.646.792.792,0,0,1-.21.034,6.962,6.962,0,0,1-4.054-2.029,9.272,9.272,0,0,0-5.981-2.825,23.556,23.556,0,0,0-4.776.317,8.236,8.236,0,0,1-5.744-.819c-.512-.321-1.008-.667-1.519-.988a1.759,1.759,0,0,0-2.493.367,1.833,1.833,0,0,0,.374,2.567,11.188,11.188,0,0,0,7.6,2.7c1.328-.074,2.648-.3,3.97-.47A6.86,6.86,0,0,1,95.6,66.1a10.78,10.78,0,0,0,6.593,3.113.584.584,0,0,1,.386.4,4.21,4.21,0,0,0,4.686,4.126c.639-.01,1.279,0,2.013,0-.175,1.189-.339,2.3-.5,3.4-.2,1.339-.438,2.674-.579,4.019a1.721,1.721,0,0,0,1.288,1.956,1.871,1.871,0,0,0,2.356-1.758q.506-3.367,1.02-6.734c.14-.913.144-.905,1.082-.9,1.481.009,2.963.037,4.442,0a4.031,4.031,0,0,0,3.962-3.7c.1-1.431.046-2.874.047-4.313a8.5,8.5,0,0,0-1.2-4.408.869.869,0,0,1-.046-.669c1.549-3.885,3.121-7.761,4.681-11.642.5-1.247.982-2.5,1.455-3.709,1.09.626,2.125,1.29,3.219,1.834,2.16,1.075,5.864.693,7.607-1.807a6.5,6.5,0,0,0,1.085-3.212c.367-3.883-2.211-7.615-7.083-6.827m-13.4,33.953c.008.574-.266.761-.8.757-1.813-.014-3.627-.005-5.441-.005v.015c-1.834,0-3.669-.01-5.5.007-.475,0-.7-.176-.694-.649.011-1.437-.069-2.881.05-4.309A3.856,3.856,0,0,1,109.8,61.5a33.556,33.556,0,0,1,5.178-.06,3.874,3.874,0,0,1,3.715,3.968c.048,1.269,0,2.542.018,3.813m.671-13.947c-.446,1.027-.842,2.076-1.275,3.157a10.366,10.366,0,0,0-1.654-.452c-1.239-.135-2.488-.222-3.734-.254a13.856,13.856,0,0,0-5.374.578c-.248.094-.485.123-.636-.258q-2.511-6.324-5.067-12.631a6.912,6.912,0,0,1,1-7.5c1.852-2.256,3.683-4.529,5.547-6.775a1.085,1.085,0,0,1,.74-.329c2.44-.025,4.88-.016,7.321-.013.141,0,.345-.014.413.068.488.586.948,1.2,1.463,1.856a10.393,10.393,0,0,0-4.234,2.082,8.379,8.379,0,0,0-2.877,7.8,15.582,15.582,0,0,0,8.109,11.945c.343.2.414.356.252.729" transform="translate(-5.533 -9.691)" fill="#161615"/>
      <path id="Trazado_818856" data-name="Trazado 818856" d="M223.514,67.968c.93-2.347,1.862-4.616,2.718-6.913a6.559,6.559,0,0,0,.31-1.963,7.64,7.64,0,0,0-2.147-5.3,2.136,2.136,0,0,0-2.047-.894c-3.468.25-5.516,2.686-5.026,6.135a12.112,12.112,0,0,0,6.191,8.939" transform="translate(-108.115 -26.318)" fill="#161615"/>
      <path id="Trazado_818857" data-name="Trazado 818857" d="M173.971,60.639a8.589,8.589,0,0,0-4.084-2.536c-1.644-.311-2.937.393-2.906,2.208,0,.188-.006.376,0,.563a2.025,2.025,0,0,0,2.366,2.252c1.93-.043,3.2-1.319,4.623-2.486" transform="translate(-83.097 -28.879)" fill="#161615"/>
      <path id="Trazado_818858" data-name="Trazado 818858" d="M244.873,60.608a9.941,9.941,0,0,0,3.66,2.359c2.11.643,3.344-.3,3.292-2.493,0-.062,0-.125-.005-.187a2.082,2.082,0,0,0-2.724-2.2,8.366,8.366,0,0,0-4.223,2.524" transform="translate(-121.861 -28.876)" fill="#161615"/>
      <path id="Trazado_818859" data-name="Trazado 818859" d="M191.822,33.856l-5.964-4.947a5.144,5.144,0,0,0,.7,5.032,32.256,32.256,0,0,0,2.873,2.784l2.386-2.868" transform="translate(-92.325 -14.387)" fill="#161615"/>
      <path id="Trazado_818860" data-name="Trazado 818860" d="M230.062,36.7c3.262-2,4.816-5.268,3.582-7.648l-5.876,4.89,2.294,2.758" transform="translate(-113.349 -14.457)" fill="#161615"/>
      <path id="Trazado_818861" data-name="Trazado 818861" d="M38.01,129.745c1.766.355,3.443.673,5.11,1.032a22.836,22.836,0,0,1,7.293,3.025A19.418,19.418,0,0,0,60.3,136.7c2.912.091,5.643-.718,8.423-1.336q4.053-.9,8.12-1.741a18.935,18.935,0,0,1,1.982-.2c-.124-1.041-.289-2.042-.354-3.05-.13-2-.243-4-.288-6a1.782,1.782,0,0,1,1.824-2.016,1.9,1.9,0,0,1,1.89,2.053c.013.542.025,1.086,0,1.626-.023.408.157.585.522.719a21.335,21.335,0,0,1,2.777,1.111,11.172,11.172,0,0,1,3.53,16.279c-.675.915-1.545,1.685-2.293,2.55a.951.951,0,0,0-.238.724,26.339,26.339,0,0,1,.359,13.832c-.045.178-.067.361-.113.616h6.637c-.1-.677-.186-1.306-.3-1.928a15.1,15.1,0,0,1,.9-8.4,12.256,12.256,0,0,0,.6-5.53,29.157,29.157,0,0,1,4.484-18.117,6.269,6.269,0,0,1,.75-1,1.708,1.708,0,0,1,2.276-.221,1.727,1.727,0,0,1,.591,2.264c-.407.774-.892,1.505-1.323,2.266a25.808,25.808,0,0,0-2.553,6.622c-.128.517.033.614.483.644a9.349,9.349,0,0,0,5.85-1.406,2.562,2.562,0,0,1,1.384-.433,1.7,1.7,0,0,1,1.6,1.366,1.681,1.681,0,0,1-.74,1.91,11.49,11.49,0,0,1-5.407,2.131c-1.212.149-2.444.138-3.676.2,0,1.2-.1,2.435.021,3.645a13.781,13.781,0,0,1-.85,6.687,15.345,15.345,0,0,0-.614,7.805c.291,2.534,1.5,4.6,2.687,6.718.538.964,1.083,1.924,1.59,2.9.837,1.617.046,2.966-1.771,2.979-3.15.022-6.3.03-9.45-.012a4.893,4.893,0,0,1-4.7-4.5c-.057-.851.008-1.709-.034-2.561a.9.9,0,0,0-.333-.636,3.364,3.364,0,0,1-1.694-4.094,24.3,24.3,0,0,0,.4-10.113c-.4-2.223-1.154-4.381-1.748-6.569-.616-2.269-1.245-4.535-1.829-6.812-.109-.423-.29-.512-.68-.513a28.091,28.091,0,0,0-6.522,1.053c-2.654.625-5.3,1.322-7.974,1.827a20.643,20.643,0,0,1-15.154-2.655,27.261,27.261,0,0,0-10.514-3.719,18.47,18.47,0,0,1-1.964-.366c-.507-.134-.662.063-.75.511-.333,1.7-.69,3.386-1.034,5.079a18.733,18.733,0,0,1-2.951,6.769c-.768,1.139-1.467,2.326-2.157,3.515a12.952,12.952,0,0,0-1.334,8.839c.222,1.4.4,2.807.681,4.194a7.69,7.69,0,0,0,.724,2.037c1,1.9,2.02,3.788,3.118,5.629s-.3,3.164-1.863,3.128c-2.835-.065-5.674,0-8.51-.032a4.839,4.839,0,0,1-5.07-5.141c0-.584.035-1.17,0-1.751a.7.7,0,0,0-.331-.531,3.771,3.771,0,0,1-2.492-4.294,28.023,28.023,0,0,0-.6-10.546c-.648-2.946-1.128-5.93-1.612-8.909a6.4,6.4,0,0,1,1.55-5.484,5.284,5.284,0,0,0,1.2-5.139c-.244-1.139-.381-2.3-.557-3.454a1.847,1.847,0,0,1,1.413-2.328,1.818,1.818,0,0,1,2.174,1.71c.3,1.808.606,3.617.834,5.435a6.5,6.5,0,0,1-1.3,4.827c-.211.284-.415.578-.652.84a4.187,4.187,0,0,0-.957,3.738q.956,5.318,1.983,10.623a27.149,27.149,0,0,1,.3,8.708c-.05.39-.059.647.452.643,1.94-.015,3.88-.006,5.819-.011.182,0,.364-.034.615-.06-.563-3.469-1.225-6.876-.387-10.374s2.95-6.264,4.7-9.178c-.988-1.174-2.033-2.285-2.927-3.505a15.1,15.1,0,0,1-3.2-8.781,11.658,11.658,0,0,1,1.866-6.578,8.485,8.485,0,0,1,9.391-3.6,13.03,13.03,0,0,1,5.444,2.679,1.08,1.08,0,0,0,.822.128c1.945-.441,3.872-.971,5.826-1.363a1.825,1.825,0,0,1,2.244,1.559,1.888,1.888,0,0,1-1.616,2.048c-1.138.25-2.3.392-3.436.654a10.793,10.793,0,0,0-6,3.824c-.076.092-.133.2-.25.378" transform="translate(-6.254 -59.503)" fill="#161615"/>
      <path id="Trazado_818862" data-name="Trazado 818862" d="M51.921,128.518a.494.494,0,0,0-.135-.14,8.259,8.259,0,0,0-3.964-1.394,4.688,4.688,0,0,0-4.689,2.372,8.07,8.07,0,0,0-1.094,4.858,12.7,12.7,0,0,0,3.256,7.156c.2.243.426.473.724.8.258-1.2.5-2.274.716-3.349.466-2.308.876-4.646,2.275-6.617.886-1.248,1.9-2.409,2.912-3.687" transform="translate(-20.904 -63.186)" fill="#161615"/>
      <path id="Trazado_818863" data-name="Trazado 818863" d="M153.914,153.937a7.534,7.534,0,0,0,2.057-7.327,7.618,7.618,0,0,0-4.731-5.265,58.412,58.412,0,0,0,2.674,12.591" transform="translate(-75.265 -70.341)" fill="#161615"/>
      <path id="Trazado_818864" data-name="Trazado 818864" d="M171.517,214.907c-.646-1.189-1.228-2.283-1.843-3.358-.063-.11-.322-.15-.49-.151-1.083-.009-2.165,0-3.247.006-.679,0-1.357,0-2.061,0,0,.83-.043,1.577.012,2.318.062.84.463,1.176,1.3,1.182,1.541.01,3.081,0,4.622,0h1.7" transform="translate(-81.545 -105.2)" fill="#161615"/>
      <path id="Trazado_818865" data-name="Trazado 818865" d="M30.2,211.4c0,.836-.034,1.585.009,2.329.048.825.465,1.178,1.3,1.181q2.658.008,5.317,0a4.668,4.668,0,0,0,.506-.059c-.6-1.088-1.15-2.113-1.73-3.122a.67.67,0,0,0-.458-.315c-1.623-.023-3.246-.014-4.944-.014" transform="translate(-15.024 -105.2)" fill="#161615"/>
      <path id="Trazado_818866" data-name="Trazado 818866" d="M107.366,103.131a15.308,15.308,0,0,1-3.359,9.786,8.593,8.593,0,0,1-9.332,2.848,5.05,5.05,0,0,1-3.623-4.621c-.033-.457-.066-.915-.07-1.373a4.558,4.558,0,0,0-2.377-4.124,7.706,7.706,0,0,1-3.037-2.716,7.8,7.8,0,0,1,2.379-10.016A11.319,11.319,0,0,1,95.1,90.9a11.861,11.861,0,0,1,7.939,3.053,12.824,12.824,0,0,1,4.131,7.117,17.021,17.021,0,0,1,.2,2.056" transform="translate(-42.121 -45.237)" fill="#161615"/>
      <path id="Trazado_818867" data-name="Trazado 818867" d="M62.957,0c1.844.2,3.7.321,5.528.607a3.084,3.084,0,0,1,2.433,4.5c-.7,1.647-1.431,3.283-2.227,4.885a6.683,6.683,0,0,1-10.035,2.46.721.721,0,0,0-.924-.078,23.872,23.872,0,0,1-13.207,3.053,25.555,25.555,0,0,1-2.847-.38,1.873,1.873,0,0,1-1.61-1.988,1.825,1.825,0,0,1,2.012-1.638c1.081.05,2.157.205,3.237.273a19.217,19.217,0,0,0,10.131-2.2.748.748,0,0,0,.461-1.058A6.888,6.888,0,0,1,62.2.069c.25-.009.5,0,.751,0,0-.023,0-.045.006-.067M67.41,4.18c-1.336-.1-2.433-.183-3.531-.249a8.9,8.9,0,0,0-2.041-.045,2.928,2.928,0,0,0-2.372,2.771A3.09,3.09,0,0,0,61.4,9.835a3.01,3.01,0,0,0,3.645-.96c.881-1.438,1.533-3.017,2.363-4.695" transform="translate(-19.935 0)" fill="#161615"/>
      <path id="Trazado_818868" data-name="Trazado 818868" d="M4.94,25.628H4.934a.5.5,0,0,1-.5-.507c0-.1.231-10.37,10.71-10.89a.491.491,0,0,1,.527.477.5.5,0,0,1-.477.526c-9.525.473-9.75,9.514-9.755,9.9a.5.5,0,0,1-.5.5" transform="translate(-2.209 -7.081)" fill="#161615"/>
      <path id="Trazado_818869" data-name="Trazado 818869" d="M.5,17.9H.5a.5.5,0,0,1-.5-.507c0-.072.16-7.2,7.428-7.556a.493.493,0,0,1,.527.477.5.5,0,0,1-.477.526C1.164,11.152,1.008,17.148,1,17.4a.5.5,0,0,1-.5.5" transform="translate(0 -4.894)" fill="#161615"/>
      <path id="Trazado_818870" data-name="Trazado 818870" d="M81.7,31.2a10.672,10.672,0,0,1-4.555-1.1.5.5,0,1,1,.426-.909c7.564,3.55,11.454-3.352,11.616-3.648a.5.5,0,0,1,.882.481c-.035.065-2.9,5.178-8.37,5.178" transform="translate(-38.247 -12.58)" fill="#161615"/>
      <path id="Trazado_818871" data-name="Trazado 818871" d="M87.037,40.052a7.422,7.422,0,0,1-3.167-.767.5.5,0,1,1,.427-.909,5.72,5.72,0,0,0,7.681-2.409.5.5,0,0,1,.882.481c-.025.045-2.018,3.6-5.823,3.6" transform="translate(-41.594 -17.769)" fill="#161615"/>
    </g>
  </g>
</svg>
