<svg xmlns="http://www.w3.org/2000/svg" xmlns:xlink="http://www.w3.org/1999/xlink" width="295" height="163" viewBox="0 0 295 163">
  <defs>
    <clipPath id="clip-path">
      <rect id="Rect치ngulo_377253" data-name="Rect치ngulo 377253" width="295" height="163" transform="translate(1020 2571)" fill="none" stroke="#707070" stroke-width="1"/>
    </clipPath>
    <clipPath id="clip-path-2">
      <rect id="Rect치ngulo_376989" data-name="Rect치ngulo 376989" width="158.153" height="148.393" fill="none"/>
    </clipPath>
  </defs>
  <g id="Enmascarar_grupo_186" data-name="Enmascarar grupo 186" transform="translate(-1020 -2571)" clip-path="url(#clip-path)">
    <g id="Grupo_1072881" data-name="Grupo 1072881" transform="translate(1088 2578)">
      <g id="Grupo_1072577" data-name="Grupo 1072577" clip-path="url(#clip-path-2)">
        <path id="Trazado_818353" data-name="Trazado 818353" d="M155.662,57.536c1.852.391,2.4,1.082,2.468,3.127,0,.1,0,.206,0,.308q0,38.168-.014,76.335a18,18,0,0,1-.635,4.609,8.176,8.176,0,0,1-.732,1.483c-.236.066-.371.186-.242.448l-1.3,1.56c-.23-.045-.326.051-.3.281-.426.14-.551.636-.952.8-.115-.045-.144.038-.175.117l-.6.372c-.113-.082-.129.014-.157.086a7.558,7.558,0,0,1-3.943,1.238c-2.158.076-4.32.042-6.481.042H60.4c-1.132,0-2.264.033-3.4.03a2.46,2.46,0,0,1-2.658-2.23,2.54,2.54,0,0,1,2.741-2.312c3.16,0,6.319,0,9.479,0,.312,0,.666.092.648-.478-.048-1.487-.033-2.976-.042-4.465q0-7.09,0-14.18c0-.068-.061-.136-.094-.2-.077-.17-.183-.126-.295-.039-.154.011-.308.03-.461.03q-17.809,0-35.618,0a10.222,10.222,0,0,0-1.976.011c-.12.01-.139.081-.111.181l.028,14.358c-.017,1.334,0,2.669-.066,4-.031.639.146.819.8.815q7.783-.048,15.566-.02a4.527,4.527,0,0,1,2.069.374,2.61,2.61,0,0,1,1.2,1.779c-.377,1.83-.94,2.361-2.782,2.39-2.134.033-4.27-.033-6.405-.033-9.674,0-19.35-.041-29.023.026a9.961,9.961,0,0,1-9.788-8.07,12.757,12.757,0,0,1-.18-2.811Q.021,75.224.007,12.953c0-1.337-.028-2.677.037-4.009A9.025,9.025,0,0,1,1.971,4.016,9.4,9.4,0,0,1,7.133.445,14.189,14.189,0,0,1,10.98.012q36.937,0,73.873,0,32.035,0,64.07-.015a10.427,10.427,0,0,1,3.812.543,8.236,8.236,0,0,1,3.521,2.643,8.641,8.641,0,0,1,1.731,5.218c.334,13.336.046,26.674.133,40.01a4.747,4.747,0,0,1-.224,1.413,2.239,2.239,0,0,1-2.233,1.425,1.693,1.693,0,0,1-1.538-.7,3.225,3.225,0,0,1-.6-2.516c-.018-3.7,0-7.4,0-11.106,0-2.571-.019-5.142-.014-7.713,0-.416-.035-.682-.564-.665-1.36.043-2.722.041-4.083.058-.256-.012-.512-.034-.769-.034l-59.087-.012q-8.33,0-16.661-.017c-.358,0-.708-.045-.588.5l-.038.037.038.037c-.017.591-.048,1.181-.048,1.772q0,52.85.006,105.7c0,.821.054,1.641.082,2.461q-.035,2.117-.07,4.236v.012c-.111.743.451.542.808.542q36.821.013,73.643.025c.466,0,.878-.266,1.347-.166a5.3,5.3,0,0,0,4.777-2,7.6,7.6,0,0,0,1.234-4.723q0-38.5.016-77.01a2.212,2.212,0,0,1,2.109-2.426M23.975,138.893c.017-.2.05-.408.049-.612q-.008-6.287-.026-12.576c0-1.205-.015-1.212-1.222-1.212q-8.722,0-17.443.015c-.346,0-.692-.111-.693.5-.006,4.68-.072,9.36.043,14.04-.12.44.188.781.3,1.157a5.365,5.365,0,0,0,4.747,3.613q5.941.024,11.881.028c.643,0,1.286-.007,1.929-.016.261,0,.509.016.5-.392-.037-1.514-.046-3.028-.066-4.543m.061-110.067c.046-.074.068-.136-.058-.135-.115-.138-.275-.115-.427-.115l-18.619.012c-.088-.035-.178-.074-.211.066a2.132,2.132,0,0,0-.068.372c-.014,6.147-.015,12.295-.046,18.442,0,.575.291.522.673.52q8.529-.023,17.059-.033c1.687,0,1.675-.007,1.675-1.7q0-8.716.021-17.432M4.68,100.719c-.072.876-.1,1.746-.089,2.632.068,5.3.048,10.6.024,15.9,0,.579.176.7.694.658.717-.051,1.439-.037,2.159-.051l.554,0c5.167.011,10.334.015,15.5.041.547,0,.529-.26.528-.675q-.038-9.02-.028-18.039c0-.551-.122-.7-.672-.695-5.964.017-11.929.007-17.893.009a1.15,1.15,0,0,0-.677.076c-.132-.02-.128.054-.1.145m23.942,18.938.06.105c.213.22.485.122.732.123,1.132.006,2.263,0,3.395,0q16.824.009,33.648.022c.419,0,.794.08.789-.592q-.059-9.063-.051-18.128c0-.621-.23-.7-.767-.7q-18.445.02-36.889.014c-.271,0-.565-.107-.818.09l-.022-.022.025.02c-.2.25-.1.544-.105.816,0,3.158,0,6.317.007,9.475q0,4.388,0,8.777m-.038-90.669-.116.116.116.062q0,.22,0,.439l-.115.116.116.062c0,5.785.019,11.57,0,17.356,0,.668.136.871.844.86,3.034-.05,6.07-.029,9.105-.03q13.891-.008,27.782,0c.7,0,.9-.157.893-.9-.04-3.522.029-7.045-.01-10.567a41.18,41.18,0,0,0-.161-6.517c-.079-.465.273-1.1-.134-1.356-.353-.222-.947-.063-1.435-.07-.18,0-.36,0-.54,0q-9.568,0-19.135,0c-1.92,0-2.857-.784-3.021-2.476a2.285,2.285,0,0,1,2.513-2.136c.333-.024.668-.024,1-.024q28.171,0,56.34,0,25.122,0,50.244.022c.38,0,.64,0,.638-.5-.018-5.066.013-10.133-.046-15.2a3.759,3.759,0,0,0-3.272-3.51,33.784,33.784,0,0,0-4.14-.116q-67.3-.016-134.609,0a13.715,13.715,0,0,0-2.944.259,5.266,5.266,0,0,0-3.84,5.218c.035,4.4.015,8.8-.019,13.193,0,.583.186.671.7.668q8.3-.04,16.593-.038c3.936,0,7.873-.012,11.808.009,1.475.008,2.566.626,2.757,2.155a2.317,2.317,0,0,1-2.581,2.455c-1.594.018-3.189.006-4.784-.006-.325,0-.639-.045-.549.443M47.9,52.616c-6.174,0-12.347.009-18.52-.015-.615,0-.81.1-.8.776.043,5.528.032,11.056.051,16.584,0,.632-.32,1.439.1,1.853s1.223.113,1.857.114q17.786.008,35.572-.009c1.028,0,1.038-.017,1.038-1.093,0-5.811-.017-11.621.012-17.432,0-.649-.145-.8-.782-.793-6.174.025-12.347.015-18.52.015m.065,43.216q9.3,0,18.6.011c.519,0,.694-.094.691-.663q-.062-8.949-.047-17.9c0-.69-.212-.778-.817-.777q-18.447.027-36.892,0c-.734,0-.934.175-.928.928.047,5.812.069,11.624.026,17.436-.006.858.234.983,1,.979,6.123-.029,12.246-.016,18.369-.016M14.229,52.616c-2.959,0-5.918.024-8.875-.017-.721-.01-.9.213-.874.9.02.46.157.893.156,1.354q-.016,7.831,0,15.662c0,1.431,0,1.425,1.438,1.423,5.711-.009,11.422-.027,17.133,0,.661,0,.823-.214.813-.821-.027-1.542,0-3.085,0-4.628,0-4.4-.012-8.795.029-13.192.006-.561-.092-.691-.634-.687-3.061.023-6.123.011-9.184.011m.135,43.216c3.034,0,6.068-.009,9.1.009.49,0,.627-.1.623-.635-.043-5.911-.075-11.823-.033-17.734.006-.847-.232-.969-.969-.966q-8.832.034-17.665,0c-.643,0-.808.167-.8.81q.046,8.945.015,17.89c0,.592.214.642.7.639,3.008-.02,6.017-.01,9.025-.01" transform="translate(0 0)"/>
        <path id="Trazado_818354" data-name="Trazado 818354" d="M115.794,160.827q.035-2.118.07-4.236h3.357q30.72,0,61.44-.008c1.511,0,3.02.037,4.538-.114a8.058,8.058,0,0,0,4.587-1.673,7.437,7.437,0,0,0,2.971-5.889q.045-50.346.012-100.69c0-.7-.246-1.4.16-2.065,1.361-.017,2.723-.015,4.083-.058.529-.017.565.25.564.665-.006,2.571.012,5.142.014,7.713,0,3.7-.015,7.4,0,11.106a3.227,3.227,0,0,0,.6,2.516,1.694,1.694,0,0,0,1.539.7c.33,1.677-.042,3.4.3,5.07.1.471-.429.754-.305,1.213a2.209,2.209,0,0,0-2.109,2.425q-.02,38.505-.017,77.01a7.607,7.607,0,0,1-1.233,4.723,5.3,5.3,0,0,1-4.777,2c-.468-.1-.881.166-1.347.166q-36.821-.025-73.642-.025c-.358,0-.919.2-.808-.541l.046,0Z" transform="translate(-44.065 -17.542)" fill="#d8ecfd"/>
        <path id="Trazado_818355" data-name="Trazado 818355" d="M84.731,224.234c.01,1.488-.006,2.977.042,4.465.018.569-.336.477-.647.478-3.16.006-6.319,0-9.479,0a2.54,2.54,0,0,0-2.741,2.312c-1.642,0-3.285-.008-4.927,0a3.886,3.886,0,0,1-1.21-.156,2.608,2.608,0,0,0-1.2-1.779,4.516,4.516,0,0,0-2.069-.373q-7.782-.016-15.565.02c-.653,0-.83-.176-.8-.815.064-1.331.048-2.667.066-4q18.7,0,37.395.006a3.821,3.821,0,0,0,1.134-.16" transform="translate(-17.558 -85.342)" fill="#d8ecfd"/>
        <path id="Trazado_818356" data-name="Trazado 818356" d="M252.643,231.957c-.13-.263.006-.383.242-.449-.006.19,0,.388-.242.449" transform="translate(-96.135 -88.111)" fill="#e9f5ff"/>
        <path id="Trazado_818357" data-name="Trazado 818357" d="M250.091,235.027c-.032-.23.064-.326.3-.281a.279.279,0,0,1-.3.281" transform="translate(-95.181 -89.339)" fill="#e9f5ff"/>
        <path id="Trazado_818358" data-name="Trazado 818358" d="M248.275,236.613c.032-.079.06-.162.175-.117l-.175.117" transform="translate(-94.492 -90.004)" fill="#e9f5ff"/>
        <path id="Trazado_818359" data-name="Trazado 818359" d="M247.053,237.361c.029-.072.044-.168.157-.087l-.157.087" transform="translate(-94.027 -90.294)" fill="#e9f5ff"/>
        <path id="Trazado_818360" data-name="Trazado 818360" d="M192.927,46.148c-.406.662-.16,1.368-.16,2.065q.014,50.345-.012,100.69a7.434,7.434,0,0,1-2.971,5.889,8.051,8.051,0,0,1-4.587,1.673c-1.518.151-3.026.113-4.537.114q-30.72.018-61.441.008h-3.357c-.028-.82-.082-1.64-.082-2.46q-.008-52.85,0-105.7c0-.59.031-1.181.048-1.771l.042-.012-.043-.063c-.119-.541.23-.5.588-.5q8.33.014,16.662.016l59.087.012c.256,0,.512.022.768.034m-53.4,40.98a6.474,6.474,0,0,0-4.975,2.117c-.684.688-1.308,1.435-1.975,2.133-1.751,1.832-3.7,3.477-5.3,5.454a6.6,6.6,0,0,0-.3,8.043,31.609,31.609,0,0,0,3.836,4.115c4.9,5.035,9.885,9.98,14.881,14.917a11.129,11.129,0,0,0,4.1,2.719,10.082,10.082,0,0,0,5.913.236,11.7,11.7,0,0,0,5.642-3.492q5.8-5.768,11.574-11.566c4.13-4.128,8.228-8.29,12.4-12.373A6.98,6.98,0,0,0,185.9,89.8c-2.4-2.749-5.1-5.222-7.681-7.8a5.367,5.367,0,0,0-2.374-1.418,8.779,8.779,0,0,0-3.037-.232,6.315,6.315,0,0,0-3.234,1.2,21.28,21.28,0,0,0-2.68,2.686c-1.788,1.882-3.648,3.694-5.507,5.507-2.5,2.44-4.954,4.936-7.4,7.437-.482.493-.761.562-1.284.027-2.608-2.668-5.284-5.268-7.886-7.94a6.763,6.763,0,0,0-5.3-2.136" transform="translate(-44.063 -17.539)" fill="#e9f5ff"/>
        <path id="Trazado_818361" data-name="Trazado 818361" d="M39.347,28.935c-.191-1.529-1.282-2.147-2.756-2.155-3.936-.02-7.873-.012-11.808-.009q-8.3.008-16.593.037c-.518,0-.708-.084-.7-.668.033-4.4.053-8.8.018-13.193a5.267,5.267,0,0,1,3.84-5.219,13.715,13.715,0,0,1,2.944-.258q67.3-.018,134.609,0a33.784,33.784,0,0,1,4.14.116,3.76,3.76,0,0,1,3.272,3.511c.059,5.066.028,10.133.046,15.2,0,.5-.258.5-.638.5q-25.122-.02-50.244-.022-28.17,0-56.34,0c-.334,0-.67,0-1,.024a2.285,2.285,0,0,0-2.512,2.136,32.329,32.329,0,0,1-6.27.006" transform="translate(-2.849 -2.84)" fill="#89c9fe"/>
        <path id="Trazado_818362" data-name="Trazado 818362" d="M54.051,42.127a32.329,32.329,0,0,0,6.27-.006c.164,1.693,1.1,2.475,3.021,2.476q9.568.007,19.135,0c.18,0,.36,0,.54,0,.487.007,1.082-.152,1.435.07.407.256.055.891.134,1.356a41.107,41.107,0,0,1,.161,6.517c.04,3.522-.03,7.045.011,10.567.008.738-.2.9-.894.9q-13.891-.026-27.781,0c-3.036,0-6.071-.019-9.106.031-.708.011-.846-.192-.844-.86.023-5.785.007-11.57,0-17.356,0-.059,0-.118,0-.178,0-.146,0-.292,0-.439,0-.059,0-.119,0-.178-.09-.488.224-.446.549-.443,1.595.011,3.19.024,4.784.006a2.317,2.317,0,0,0,2.581-2.455" transform="translate(-17.553 -16.031)" fill="#e9f5ff"/>
        <path id="Trazado_818363" data-name="Trazado 818363" d="M46.29,162.326c.253-.2.547-.09.818-.09q18.445-.008,36.889-.014c.537,0,.767.077.767.7q-.009,9.063.051,18.128c0,.671-.37.592-.789.592q-16.824-.013-33.648-.022c-1.132,0-2.263.011-3.4,0-.246,0-.518.1-.73-.123l0-.069-.064-.037q0-4.388,0-8.777c0-3.158-.011-6.317-.007-9.475,0-.272-.094-.566.105-.816l0,0" transform="translate(-17.57 -61.735)" fill="#e9f5ff"/>
        <path id="Trazado_818364" data-name="Trazado 818364" d="M65.421,84.935c6.173,0,12.347.01,18.52-.015.638,0,.786.145.782.793-.029,5.811-.011,11.622-.012,17.433,0,1.075-.011,1.091-1.038,1.092q-17.787.013-35.573.009c-.633,0-1.444.3-1.857-.113s-.093-1.22-.1-1.853c-.019-5.528-.009-11.056-.051-16.584,0-.673.19-.778.8-.776,6.173.024,12.347.014,18.52.014" transform="translate(-17.519 -32.32)" fill="#e9f5ff"/>
        <path id="Trazado_818365" data-name="Trazado 818365" d="M65.523,142.839c-6.123,0-12.246-.013-18.369.016-.765,0-1-.12-1-.979.042-5.812.02-11.624-.026-17.436-.006-.753.194-.929.928-.928q18.447.032,36.892,0c.6,0,.819.087.817.777q-.027,8.949.047,17.9c0,.57-.172.665-.69.664q-9.3-.026-18.6-.012" transform="translate(-17.557 -47.008)" fill="#e9f5ff"/>
        <path id="Trazado_818366" data-name="Trazado 818366" d="M84.757,215.359a3.82,3.82,0,0,1-1.134.16q-18.7-.009-37.395-.006-.014-7.179-.028-14.358l.111-.181a10.217,10.217,0,0,1,1.975-.011q17.809-.006,35.618,0c.154,0,.307-.02.46-.03l.3.038c.033.068.094.136.094.2q.006,7.09,0,14.18" transform="translate(-17.583 -76.467)" fill="#e9f5ff"/>
        <path id="Trazado_818367" data-name="Trazado 818367" d="M7.6,162.316a1.141,1.141,0,0,1,.677-.076c5.964,0,11.929.007,17.893-.01.55,0,.673.145.672.7q-.02,9.019.028,18.039c0,.414.019.677-.528.675-5.167-.026-10.334-.031-15.5-.041-.217-.338-.336-.338-.555,0-.72.014-1.441,0-2.159.051-.518.037-.7-.08-.694-.659.025-5.3.043-10.6-.024-15.9-.012-.886.017-1.756.089-2.632.077-.018.131-.053.1-.145" transform="translate(-2.819 -61.742)" fill="#e9f5ff"/>
        <path id="Trazado_818368" data-name="Trazado 818368" d="M7.762,46.145l18.619-.013c.152,0,.312-.022.426.115l.059.136q-.012,8.716-.021,17.432c0,1.69.011,1.694-1.675,1.7q-8.53.018-17.059.033c-.382,0-.676.055-.673-.52.03-6.147.032-12.295.046-18.442a2.094,2.094,0,0,1,.068-.372c.094.053.167.039.211-.067" transform="translate(-2.83 -17.557)" fill="#e9f5ff"/>
        <path id="Trazado_818369" data-name="Trazado 818369" d="M16.978,84.934c3.062,0,6.123.012,9.184-.011.543,0,.64.126.634.688-.042,4.4-.025,8.794-.029,13.191,0,1.543-.027,3.087,0,4.629.011.606-.151.823-.813.821-5.711-.022-11.422,0-17.133,0-1.435,0-1.437.008-1.438-1.423q0-7.831,0-15.662c0-.461-.137-.894-.157-1.354-.029-.687.154-.91.874-.9,2.958.041,5.917.017,8.875.017" transform="translate(-2.75 -32.319)" fill="#e9f5ff"/>
        <path id="Trazado_818370" data-name="Trazado 818370" d="M17.2,142.839c-3.008,0-6.017-.01-9.025.01-.491,0-.707-.046-.7-.639q.031-8.945-.015-17.89c0-.642.161-.812.8-.81q8.832.038,17.665,0c.737,0,.975.118.969.966-.042,5.91-.009,11.822.033,17.733,0,.533-.133.639-.623.635-3.034-.019-6.068-.01-9.1-.01" transform="translate(-2.838 -47.008)" fill="#e9f5ff"/>
        <path id="Trazado_818371" data-name="Trazado 818371" d="M7.518,215.54c-.115-4.68-.049-9.36-.043-14.039,0-.609.347-.5.694-.5q8.722-.009,17.443-.015c1.207,0,1.218.007,1.221,1.212q.021,6.287.027,12.576c0,.2-.032.408-.049.611a4.637,4.637,0,0,1-1.287.159q-9-.012-18.005-.006" transform="translate(-2.836 -76.495)" fill="#e9f5ff"/>
        <path id="Trazado_818372" data-name="Trazado 818372" d="M7.542,224.388q9,0,18.005.006a4.637,4.637,0,0,0,1.287-.159c.019,1.514.028,3.029.065,4.543.011.408-.238.388-.5.392-.643.009-1.286.017-1.929.016q-5.94-.011-11.881-.029a5.364,5.364,0,0,1-4.747-3.612c-.115-.377-.422-.717-.3-1.158" transform="translate(-2.86 -85.343)" fill="#d8ecfd"/>
        <path id="Trazado_818373" data-name="Trazado 818373" d="M12.056,193.344c.218-.336.338-.335.555,0l-.555,0" transform="translate(-4.588 -73.49)" fill="#89c9fe"/>
        <path id="Trazado_818374" data-name="Trazado 818374" d="M108.111,200.94l-.3-.038c.113-.088.219-.132.3.038" transform="translate(-41.034 -76.432)" fill="#baeb6b"/>
        <path id="Trazado_818375" data-name="Trazado 818375" d="M7.646,162.369c.03.092-.023.127-.1.145-.028-.091-.032-.165.1-.145" transform="translate(-2.866 -61.796)" fill="#89c9fe"/>
        <path id="Trazado_818376" data-name="Trazado 818376" d="M38.767,46.455l-.059-.136c.127,0,.105.062.059.136" transform="translate(-14.732 -17.629)" fill="#baeb6b"/>
        <path id="Trazado_818377" data-name="Trazado 818377" d="M7.832,46.134c-.044.106-.117.12-.211.067.033-.141.122-.1.211-.067" transform="translate(-2.901 -17.546)" fill="#89c9fe"/>
        <path id="Trazado_818378" data-name="Trazado 818378" d="M46.209,193.18l.064.037,0,.069-.061-.106" transform="translate(-17.587 -73.523)" fill="#89c9fe"/>
        <path id="Trazado_818379" data-name="Trazado 818379" d="M46.353,162.385l0,0-.025-.02Z" transform="translate(-17.633 -61.795)" fill="#89c9fe"/>
        <path id="Trazado_818380" data-name="Trazado 818380" d="M46.3,201.011l-.111.181c-.028-.1-.008-.172.111-.181" transform="translate(-17.576 -76.504)" fill="#d8ecfd"/>
        <path id="Trazado_818381" data-name="Trazado 818381" d="M46.075,47.8c0,.059,0,.118,0,.178l-.116-.062.115-.116" transform="translate(-17.492 -18.191)" fill="#d8ecfd"/>
        <path id="Trazado_818382" data-name="Trazado 818382" d="M115.827,46.885l.043.064-.043.012-.039-.038Z" transform="translate(-44.069 -17.844)" fill="#baeb6b"/>
        <path id="Trazado_818383" data-name="Trazado 818383" d="M115.8,231.326l.046.009-.046,0v-.013" transform="translate(-44.074 -88.041)" fill="#baeb6b"/>
        <path id="Trazado_818384" data-name="Trazado 818384" d="M46.075,46.8c0,.059,0,.119,0,.178l-.116-.062.116-.116" transform="translate(-17.492 -17.812)" fill="#d8ecfd"/>
        <path id="Trazado_818385" data-name="Trazado 818385" d="M145.661,108.156a6.76,6.76,0,0,1,5.3,2.136c2.6,2.672,5.279,5.272,7.886,7.94.523.535.8.466,1.284-.027,2.444-2.5,4.894-5,7.4-7.437,1.859-1.812,3.719-3.625,5.507-5.507a21.279,21.279,0,0,1,2.68-2.686,6.3,6.3,0,0,1,3.234-1.2,8.778,8.778,0,0,1,3.037.232,5.367,5.367,0,0,1,2.374,1.418c2.581,2.582,5.279,5.054,7.681,7.8a6.98,6.98,0,0,1-.573,9.632c-4.175,4.083-8.273,8.244-12.4,12.373q-5.786,5.784-11.574,11.566a11.708,11.708,0,0,1-5.643,3.492,10.082,10.082,0,0,1-5.913-.236,11.137,11.137,0,0,1-4.1-2.719c-5-4.937-9.985-9.882-14.88-14.917a31.616,31.616,0,0,1-3.837-4.115,6.6,6.6,0,0,1,.3-8.043c1.6-1.977,3.547-3.622,5.3-5.454.666-.7,1.291-1.445,1.975-2.133a6.474,6.474,0,0,1,4.975-2.117m.289,4.65a2.154,2.154,0,0,0-1.968.829c-1.259,1.251-2.507,2.511-3.762,3.766-.909.909-1.825,1.811-2.732,2.723-1.3,1.306-1.309,2.462-.027,3.786.5.517,1.029,1.007,1.538,1.516q8.162,8.148,16.315,16.305a5.791,5.791,0,0,0,4.223,1.89,5.616,5.616,0,0,0,4.011-1.8c2.768-2.8,5.567-5.562,8.351-8.342q8.136-8.12,16.269-16.245c1.245-1.244,1.377-2.47.243-3.654-2.24-2.34-4.544-4.619-6.84-6.9a2.361,2.361,0,0,0-1.57-.7,3.112,3.112,0,0,0-2.5,1.269q-7.464,7.483-14.934,14.959c-1.993,2-4.247,2.044-6.221-.042-.777-.821-1.576-1.622-2.378-2.421q-3.059-3.049-6.133-6.084a2.058,2.058,0,0,0-1.882-.849" transform="translate(-50.197 -38.567)"/>
        <path id="Trazado_818386" data-name="Trazado 818386" d="M148.787,115.653a2.058,2.058,0,0,1,1.882.849q3.082,3.027,6.133,6.084c.8.8,1.6,1.6,2.378,2.421,1.973,2.086,4.228,2.038,6.221.041q7.467-7.479,14.934-14.959a3.112,3.112,0,0,1,2.5-1.269,2.362,2.362,0,0,1,1.57.7c2.3,2.286,4.6,4.564,6.84,6.9,1.134,1.184,1,2.409-.243,3.654q-8.131,8.126-16.269,16.245c-2.785,2.78-5.583,5.546-8.351,8.342a5.616,5.616,0,0,1-4.011,1.8,5.791,5.791,0,0,1-4.223-1.89q-8.138-8.171-16.315-16.305c-.509-.509-1.037-1-1.538-1.516-1.282-1.324-1.272-2.48.027-3.786.907-.912,1.823-1.814,2.732-2.723,1.254-1.255,2.5-2.515,3.762-3.766a2.154,2.154,0,0,1,1.968-.829" transform="translate(-53.034 -41.414)" fill="#baeb6b"/>
      </g>
    </g>
  </g>
</svg>
