<svg id="Grupo_1072748" data-name="Grupo 1072748" xmlns="http://www.w3.org/2000/svg" xmlns:xlink="http://www.w3.org/1999/xlink" width="91.59" height="110.622" viewBox="0 0 91.59 110.622">
  <defs>
    <clipPath id="clip-path">
      <rect id="Rectángulo_377173" data-name="Rectángulo 377173" width="91.59" height="110.621" fill="none"/>
    </clipPath>
  </defs>
  <g id="Grupo_1072747" data-name="Grupo 1072747" clip-path="url(#clip-path)">
    <path id="Trazado_818918" data-name="Trazado 818918" d="M9.43,74c-.423.012-.773.314-1.225.27a1.315,1.315,0,0,1-.928-.457A28.633,28.633,0,0,1,1.9,64.924a30.674,30.674,0,0,1-1.58-6.058,29.218,29.218,0,0,1-.279-6.037,26.315,26.315,0,0,1,.777-4.684,21.482,21.482,0,0,1,.962-3.41,32.736,32.736,0,0,1,2.505-4.992,29.451,29.451,0,0,1,9.035-9.327,29.823,29.823,0,0,1,9.373-3.889,27.77,27.77,0,0,1,2.762-.435.784.784,0,0,0,.578-.429A28.664,28.664,0,0,1,30.573,20.2a27.568,27.568,0,0,1,10.814-6.285,48.425,48.425,0,0,1,4.767-1.1,13.028,13.028,0,0,1,1.437-.1,20.229,20.229,0,0,1,3.588-.123,42.529,42.529,0,0,1,4.846.587c.975.2,1.961.429,2.9.705a21.875,21.875,0,0,1,3.628,1.445,23.068,23.068,0,0,1,2.418,1.341.685.685,0,0,0,.948-.144c1.443-1.427,2.891-2.847,4.326-4.258a9.358,9.358,0,0,1-2.788-3.387,6.32,6.32,0,0,1-.14-4.66,5.917,5.917,0,0,1,.846-1.5A5.9,5.9,0,0,1,71.75.3,13.8,13.8,0,0,1,76.841.172c.84.117,1.134.819,1.275,1.577a1.7,1.7,0,0,1-1.982,1.526c-.787.012-1.574.018-2.361.027a3.058,3.058,0,0,0-2.046.483,3.243,3.243,0,0,0,1.929,5.99,2.644,2.644,0,0,1,1.1.845,1.8,1.8,0,0,1-.542,2.173q-2.9,2.868-5.777,5.766a9.7,9.7,0,0,0-1.6,1.777,1.311,1.311,0,0,0-.6.21,1.151,1.151,0,0,1-1.2-.052,12.407,12.407,0,0,1-1.14-.686A17.868,17.868,0,0,0,59.819,17.7a25.524,25.524,0,0,0-7.312-1.779,22.264,22.264,0,0,0-4.346-.016,25.072,25.072,0,0,0-8.408,2.077c-.08.022-.195-.026-.219.108l-.207.117a.532.532,0,0,0-.158.02,24.908,24.908,0,0,0-4.784,2.959,22.2,22.2,0,0,0-3.978,3.838c-.11.14-.259.247-.379.38a.449.449,0,0,0-.094.453c.062.186.243.112.373.113.52,0,1.04-.012,1.56-.02a9.38,9.38,0,0,0,1.769.319,19.112,19.112,0,0,1,3.106.752,1.014,1.014,0,0,0,1.073-.155c.259-.192.495-.416.751-.611A18.691,18.691,0,0,1,49.445,22.3a20.245,20.245,0,0,1,5.789.663,18.744,18.744,0,0,1,3.357,1.246,15.324,15.324,0,0,1,2.171,1.237,22.592,22.592,0,0,1,3.861,3.5,19.234,19.234,0,0,1,4.7,12.636,16.487,16.487,0,0,1-.227,2.886,19.047,19.047,0,0,1-3.732,8.663,21.7,21.7,0,0,1-4.6,4.36c-.172.1-.347.189-.515.292a18.98,18.98,0,0,1-17.924,1.228,18.617,18.617,0,0,1-3.988-2.5,19.576,19.576,0,0,1-4.148-4.481,18.358,18.358,0,0,1-3.184-10.483c0-.739.037-1.474.106-2.207.028-.294-.07-.373-.378-.413a14.7,14.7,0,0,0-3.918.06,8.268,8.268,0,0,0-1.736.325.618.618,0,0,0-.555.715c0,1.4-.034,2.8.093,4.2a25.278,25.278,0,0,0,9.089,17.005,22.5,22.5,0,0,0,5.561,3.467h.019l.145.065a20.818,20.818,0,0,0,2.732,1.135A24.93,24.93,0,0,0,48.116,67.1a24.642,24.642,0,0,0,4.353-.059,29.614,29.614,0,0,0,5.057-.967A25.553,25.553,0,0,0,75.818,42.224a24.9,24.9,0,0,0-.089-2.683,26.307,26.307,0,0,0-.644-4.33,25.385,25.385,0,0,0-3.611-8.13c-.724-1.079-.67-1.554.232-2.489.088-.091.178-.179.267-.267,1.946-1.936,3.9-3.861,5.832-5.816a10.6,10.6,0,0,1,1.519-1.488,1.549,1.549,0,0,1,2.425,1,4.88,4.88,0,0,0,.825,2.2A3.248,3.248,0,0,0,88.333,18c.026-3.707.009-7.414.011-11.121a3.8,3.8,0,0,0-.363-1.586,3.186,3.186,0,0,0-2.058-1.867,8.684,8.684,0,0,0-1.8-.153,1.787,1.787,0,0,1-1.742-1.527c.184-.34.153-.758.421-1.071a2.15,2.15,0,0,1,2.07-.6,12.836,12.836,0,0,1,1.98.28,6.817,6.817,0,0,1,2.6,1.487,6.292,6.292,0,0,1,1.994,3.784,7.922,7.922,0,0,1,.133,1.428c.011,3.564.039,7.129-.011,10.693A6.7,6.7,0,0,1,90.5,21.616a6.473,6.473,0,0,1-4.589,2.971,5.317,5.317,0,0,1-2.811-.252,6.254,6.254,0,0,1-1.934-1.068,13.68,13.68,0,0,1-1.43-1.5c-.287-.363-.472-.282-.723-.028q-1.279,1.294-2.559,2.587c-.49.495-.96,1.012-1.482,1.471a.489.489,0,0,0-.124.738,20.929,20.929,0,0,1,2.453,5.1,34.774,34.774,0,0,1,1.346,5.151,23.769,23.769,0,0,1,.385,4.333,28.2,28.2,0,0,1-1.117,8.205,27.476,27.476,0,0,1-3.919,8.479A29.241,29.241,0,0,1,60.527,68.427a30.466,30.466,0,0,1-6.846,1.725.7.7,0,0,0-.576.334,24.36,24.36,0,0,1-4.413,5.323A29,29,0,0,1,43.3,79.848a34.932,34.932,0,0,1-6.8,2.8c-.343.11-.843,0-1.007.319a2.685,2.685,0,0,0-.059,1.114c0,.63.033,1.262-.013,1.889-.033.452.142.52.538.512a20.362,20.362,0,0,1,3.164.1,6.15,6.15,0,0,1,4.636,3.2,6.363,6.363,0,0,1-1.11,7.791,6.52,6.52,0,0,1-4.418,1.853c-.791.03-1.584.03-2.375,0-.372-.014-.436.118-.431.453.018,1.278.052,2.558,0,3.834a7.618,7.618,0,0,1-1.282,4.237,6.186,6.186,0,0,1-4.456,2.609,6.025,6.025,0,0,1-6.413-3.291,5.652,5.652,0,0,1-.8-2.827c0-1.53-.009-3.06.007-4.59,0-.32-.058-.435-.407-.423-.826.029-1.656-.012-2.482.012a6.7,6.7,0,0,1-6.3-5.189,6.551,6.551,0,0,1,5.426-7.677,32.521,32.521,0,0,1,3.375-.093c.3,0,.392-.083.386-.388-.02-.936-.008-1.872-.007-2.808,0-.2.007-.319-.28-.393a31.981,31.981,0,0,1-8.28-3.444c-.137-.081-.255-.2-.389-.283a1.739,1.739,0,0,1-.769-2.592,2.03,2.03,0,0,1,2.674.037,14.462,14.462,0,0,0,2.5,1.343,5.891,5.891,0,0,0,1.2.542,21.848,21.848,0,0,0,4.787,1.477,2,2,0,0,1,1.7,1.2c.151,2.339.049,4.68.062,7.02a1.754,1.754,0,0,1-1.987,1.516l-3.8.021a3.231,3.231,0,1,0,0,6.445c1.277.007,2.554.009,3.831.022a1.7,1.7,0,0,1,1.955,1.516c.005.718.013,1.435.016,2.153,0,1.526-.01,3.053.014,4.579a3.159,3.159,0,0,0,3.362,2.951,2.215,2.215,0,0,0,.9-.138,3.2,3.2,0,0,0,2.221-3.159c.01-1.98,0-3.96.009-5.94a1.731,1.731,0,0,1,1.984-1.967c1.4-.006,2.808.033,4.209-.014a3.138,3.138,0,0,0,3.06-3.3,3.18,3.18,0,0,0-3.324-3.161c-1.295-.015-2.59,0-3.886-.006-1.424-.007-2.038-.619-2.043-2.045q-.011-2.889,0-5.778a1.673,1.673,0,0,1,1.577-1.894,24.937,24.937,0,0,0,11.966-5.88,25.975,25.975,0,0,0,3.192-3.244c.082-.107.245-.2.165-.363s-.236-.152-.38-.136a8.279,8.279,0,0,1-1.9-.134,30.006,30.006,0,0,1-4.358-.837c-.354-.154-.71-.37-1.086-.072-.512.407-1.013.828-1.518,1.243a.811.811,0,0,0-.2.074,19.3,19.3,0,0,1-13.3,3.166,18.868,18.868,0,0,1-5.6-1.7,20.475,20.475,0,0,1-7.119-5.748,19.024,19.024,0,0,1-1.607-2.594,18.6,18.6,0,0,1-1.833-4.86,19.15,19.15,0,0,1-.436-4.8c.006-.047.012-.094.018-.141a19.808,19.808,0,0,1,.607-4.019,19.355,19.355,0,0,1,7.025-10.5,20.82,20.82,0,0,1,7.349-3.477,18.013,18.013,0,0,1,3.478-.374,18.493,18.493,0,0,1,3.2.185,18.063,18.063,0,0,1,4.836,1.292,23.3,23.3,0,0,1,3.7,1.973A23.868,23.868,0,0,1,43.9,42.889a20.623,20.623,0,0,1,3.626,7.3,18.125,18.125,0,0,1,.526,4.929c0,.583-.113,1.166-.1,1.757.007.358.135.54.5.537l2.1-.016a14.584,14.584,0,0,0,3.438-.4c.412-.075.569-.227.591-.654a28.243,28.243,0,0,0-.655-7.448,24.275,24.275,0,0,0-2.941-7.278,27.967,27.967,0,0,0-3.267-4.365,25.479,25.479,0,0,0-5.186-4.259,23.743,23.743,0,0,0-7.844-3.241,27.088,27.088,0,0,0-4.844-.642,28.559,28.559,0,0,0-4.851.3A23.269,23.269,0,0,0,17.5,31.785c-.26.117-.533.215-.78.356-8.168,4.637-12.594,11.7-13.44,21A22.755,22.755,0,0,0,3.957,60.8a26.105,26.105,0,0,0,5.172,10.32c1.033,1.256,1.05,1.408.287,2.827-.006.011.009.034.014.051M21.237,40.995c-.181-.315-.349-.031-.472.04a14.616,14.616,0,0,0-4.976,4.722A15.59,15.59,0,0,0,13,53.312a15.813,15.813,0,0,0,3.317,11.253,17.356,17.356,0,0,0,7.344,5.324,11.718,11.718,0,0,0,3.578.781,23.766,23.766,0,0,0,3.435-.055,15,15,0,0,0,4.83-1.294,11.74,11.74,0,0,0,2.548-1.514,2,2,0,0,0-.695-.379c-.243-.112-.492-.213-.726-.341A30.065,30.065,0,0,1,23.5,52.615a28.313,28.313,0,0,1-1.708-5.757,30.145,30.145,0,0,1-.541-5.785.206.206,0,0,0,.029-.023.6.6,0,0,0-.039-.055M49.924,25.54a16.474,16.474,0,0,0-3.939.505,18.57,18.57,0,0,0-4.81,2.141c-.123.069-.4.173-.046.44a8.939,8.939,0,0,0,1.389.615,26.474,26.474,0,0,1,5.93,4.211,29.205,29.205,0,0,1,8.2,13.35,34.486,34.486,0,0,1,1.237,8.249c0,.1-.051.229.057.293s.2-.029.288-.089c.569-.4,1.156-.768,1.7-1.191a15.244,15.244,0,0,0,5.894-9.481,16.324,16.324,0,0,0,.189-4.791,16.789,16.789,0,0,0-1.19-4.678,14.934,14.934,0,0,0-4.691-6.091A15.961,15.961,0,0,0,49.924,25.54M34.138,41.384a15.3,15.3,0,0,0,.462,3.858,15.143,15.143,0,0,0,4.058,7.331,16.236,16.236,0,0,0,5.532,3.741c.6.23.588.241.656-.43a13.733,13.733,0,0,0-.145-3.69,14.5,14.5,0,0,0-2.173-5.783,16.152,16.152,0,0,0-2.5-3.091,17.068,17.068,0,0,0-1.836-1.448,13.112,13.112,0,0,0-3.608-2.026c-.323-.094-.33.013-.344.248-.026.43-.065.86-.1,1.29" transform="translate(0 0.001)" fill="#060707"/>
    <path id="Trazado_818919" data-name="Trazado 818919" d="M95.822,27.727a15.32,15.32,0,0,0-2.171-1.237,18.79,18.79,0,0,0-3.357-1.246,20.262,20.262,0,0,0-5.789-.663,18.693,18.693,0,0,0-10.877,3.955c-.257.2-.493.418-.752.611A1.014,1.014,0,0,1,71.8,29.3a19.162,19.162,0,0,0-3.107-.752,9.369,9.369,0,0,1-1.769-.318,2.007,2.007,0,0,1,.538-.977c1.307-1.385,2.313-3.053,3.914-4.161a13.7,13.7,0,0,1,2.328-1.682.926.926,0,0,0,.679-.922l.207-.117c.09,0,.178-.008.219-.108a25.069,25.069,0,0,1,8.407-2.077,22.268,22.268,0,0,1,4.347.015,25.517,25.517,0,0,1,7.311,1.779,17.889,17.889,0,0,1,4.072,2.109,12.45,12.45,0,0,0,1.14.687,1.151,1.151,0,0,0,1.2.051,1.314,1.314,0,0,1,.6-.21c.217.18.533.061.751.256.311.279.55.162.822-.111,2.857-2.877,5.743-5.727,8.546-8.658a1.38,1.38,0,0,0,.212-.242c.073-.126.059-.279-.112-.281a9.54,9.54,0,0,1-2.3-.68,2.645,2.645,0,0,0-1.1-.845,2.587,2.587,0,0,0-.456-1.068,4.157,4.157,0,0,1-.535-2.82,7.565,7.565,0,0,1,1.109-2.585c.787-.009,1.574-.015,2.36-.027a1.7,1.7,0,0,0,1.982-1.525l4.264-.006a1.787,1.787,0,0,0,1.742,1.527,8.686,8.686,0,0,1,1.8.152,3.186,3.186,0,0,1,2.058,1.867,3.8,3.8,0,0,1,.363,1.586c0,3.707.015,7.415-.011,11.122a3.249,3.249,0,0,1-5.759,2.219,4.878,4.878,0,0,1-.824-2.2,1.549,1.549,0,0,0-2.425-1,10.611,10.611,0,0,0-1.519,1.488c-1.928,1.955-3.885,3.879-5.831,5.815-.089.089-.179.177-.267.267-.9.935-.956,1.411-.232,2.489a25.386,25.386,0,0,1,3.611,8.131,26.248,26.248,0,0,1,.644,4.33,25.518,25.518,0,0,1-18.2,26.534,29.619,29.619,0,0,1-5.058.967,24.643,24.643,0,0,1-4.353.059,24.953,24.953,0,0,1-5.951-1.214,20.856,20.856,0,0,1-2.732-1.135l-.145-.065h-.019c.088-.225,0-.366-.194-.492a21.247,21.247,0,0,1-2.559-1.952,28.7,28.7,0,0,1-5.041-5.647,27.36,27.36,0,0,1-3.6-7.792,31.407,31.407,0,0,1-1.006-6.079c-.094-1.253.1-2.5-.053-3.745A14.673,14.673,0,0,1,65.8,41.2c.309.04.406.119.379.413-.069.734-.109,1.469-.106,2.208a18.364,18.364,0,0,0,3.184,10.483,19.573,19.573,0,0,0,4.148,4.48,18.614,18.614,0,0,0,3.988,2.5A18.98,18.98,0,0,0,95.312,60.06c.168-.1.343-.195.514-.292a.6.6,0,0,0,.707,0c.815-.412,1.595-.882,2.366-1.371a17.7,17.7,0,0,0,6.724-8.51,17.8,17.8,0,0,0,1.158-5.765,20.488,20.488,0,0,0-1.258-6.827,15.523,15.523,0,0,0-3.618-5.731,17.618,17.618,0,0,0-5.119-3.7,1.042,1.042,0,0,0-.965-.141" transform="translate(-35.06 -2.281)" fill="#317bbf"/>
    <path id="Trazado_818920" data-name="Trazado 818920" d="M22.115,119.5a14.445,14.445,0,0,1-2.5-1.343,2.029,2.029,0,0,0-2.674-.037,4.02,4.02,0,0,1-1.417-.985c-.5-.391-.939-.864-1.417-1.286a3.1,3.1,0,0,0-.492-.3c0-.017-.02-.04-.014-.051.763-1.419.746-1.571-.286-2.827a26.106,26.106,0,0,1-5.172-10.32A22.766,22.766,0,0,1,7.467,94.7c.846-9.3,5.272-16.365,13.44-21,.248-.141.52-.238.781-.356a1.811,1.811,0,0,1-.777,1.1A22.676,22.676,0,0,0,17.2,77.675c-.758.9-1.588,1.747-2.261,2.722a29.578,29.578,0,0,0-3.173,5.932,28.816,28.816,0,0,0-1.847,7.916,23.065,23.065,0,0,0-.027,3.7,30.083,30.083,0,0,0,.536,3.762,26.446,26.446,0,0,0,1.739,5.467,26.116,26.116,0,0,0,4.8,7.412,27.274,27.274,0,0,0,4.718,4.225c.227.154.482.343.425.7" transform="translate(-4.184 -41.555)" fill="#e1495c"/>
    <path id="Trazado_818921" data-name="Trazado 818921" d="M25.319,115.984c.058-.352-.2-.541-.425-.7a27.274,27.274,0,0,1-4.718-4.225,26.116,26.116,0,0,1-4.8-7.412,26.446,26.446,0,0,1-1.739-5.467,30.083,30.083,0,0,1-.536-3.762,23.065,23.065,0,0,1,.027-3.7,28.816,28.816,0,0,1,1.847-7.916,29.578,29.578,0,0,1,3.173-5.932c.673-.975,1.5-1.818,2.261-2.722a22.676,22.676,0,0,1,3.706-3.235,1.811,1.811,0,0,0,.777-1.1,23.266,23.266,0,0,1,7.486-2.375,28.559,28.559,0,0,1,4.851-.3,27.049,27.049,0,0,1,4.844.642,23.743,23.743,0,0,1,7.844,3.241A25.491,25.491,0,0,1,55.1,75.283a27.991,27.991,0,0,1,3.267,4.365,24.274,24.274,0,0,1,2.94,7.278,28.225,28.225,0,0,1,.656,7.448c-.022.427-.179.579-.591.653a14.582,14.582,0,0,1-3.438.4,6.533,6.533,0,0,1-.013-2.075,18.182,18.182,0,0,0-.6-5.2,17.218,17.218,0,0,0-6.242-9.214,12.185,12.185,0,0,0-2.882-1.8c-.262-.111-.547-.323-.848-.057a23.273,23.273,0,0,0-3.7-1.973,18.065,18.065,0,0,0-4.836-1.292,18.488,18.488,0,0,0-3.2-.185,17.976,17.976,0,0,0-3.478.374,20.826,20.826,0,0,0-7.349,3.477,19.353,19.353,0,0,0-7.025,10.5A19.777,19.777,0,0,0,17.162,92c-.006.047-.012.094-.018.141a19.109,19.109,0,0,0,.436,4.8,18.6,18.6,0,0,0,1.833,4.86,19.051,19.051,0,0,0,1.607,2.594,20.471,20.471,0,0,0,7.119,5.748,18.864,18.864,0,0,0,5.6,1.7,19.3,19.3,0,0,0,13.3-3.166.814.814,0,0,1,.2-.074c.088.213.226.219.433.149a6.032,6.032,0,0,0,2.171-1.321,30,30,0,0,0,4.358.837,8.277,8.277,0,0,0,1.9.134c.144-.016.307-.015.38.135.08.166-.084.256-.165.363a26.005,26.005,0,0,1-3.192,3.244,24.93,24.93,0,0,1-11.966,5.879,1.674,1.674,0,0,0-1.577,1.895q-.007,2.889,0,5.778c.006,1.426.619,2.038,2.043,2.045,1.295.007,2.59-.009,3.885.006a3.18,3.18,0,0,1,3.325,3.161,3.138,3.138,0,0,1-3.06,3.3c-1.4.048-2.806.009-4.209.014a1.731,1.731,0,0,0-1.984,1.967c-.011,1.98,0,3.96-.009,5.94a3.2,3.2,0,0,1-2.221,3.159,2.208,2.208,0,0,1-.9.138,1.19,1.19,0,0,0-.2-.654,6.008,6.008,0,0,1-.782-2.86c.015-1.865,0-3.731,0-5.6,0-.235.035-.5-.331-.472-.7.053-1.388-.086-2.084-.1a1.7,1.7,0,0,0-1.955-1.516c-1.277-.013-2.554-.015-3.831-.022a.639.639,0,0,0-.139-.393,4.958,4.958,0,0,1-.754-3.885,9.839,9.839,0,0,1,.892-2.167l3.8-.021a1.754,1.754,0,0,0,1.987-1.516c.644.008,1.277-.156,1.926-.114.361.023.486-.23.485-.568,0-1.8-.009-3.594,0-5.39a.511.511,0,0,0-.43-.571A10.5,10.5,0,0,0,33,119.205a2,2,0,0,0-1.7-1.2,21.848,21.848,0,0,1-4.787-1.477,5.891,5.891,0,0,1-1.2-.542" transform="translate(-7.388 -38.034)" fill="#e76673"/>
    <path id="Trazado_818922" data-name="Trazado 818922" d="M140.2,58.618a1.042,1.042,0,0,1,.965.141,17.617,17.617,0,0,1,5.119,3.7,15.523,15.523,0,0,1,3.618,5.731,20.488,20.488,0,0,1,1.258,6.827A17.8,17.8,0,0,1,150,80.779a17.7,17.7,0,0,1-6.724,8.51c-.771.49-1.552.96-2.366,1.371a.6.6,0,0,1-.707,0,21.707,21.707,0,0,0,4.6-4.36,19.045,19.045,0,0,0,3.731-8.663,16.445,16.445,0,0,0,.228-2.886,19.237,19.237,0,0,0-4.7-12.636,22.631,22.631,0,0,0-3.861-3.5" transform="translate(-79.437 -33.171)" fill="#005da9"/>
    <path id="Trazado_818923" data-name="Trazado 818923" d="M58.874,89.947c.15,1.245-.04,2.492.053,3.745a31.44,31.44,0,0,0,1.006,6.079,27.368,27.368,0,0,0,3.6,7.793,28.7,28.7,0,0,0,5.041,5.647,21.247,21.247,0,0,0,2.559,1.952c.2.126.282.267.194.492a22.468,22.468,0,0,1-5.561-3.467,25.271,25.271,0,0,1-9.089-17c-.127-1.4-.1-2.8-.093-4.2a.617.617,0,0,1,.555-.714,8.277,8.277,0,0,1,1.737-.325" transform="translate(-32.056 -50.964)" fill="#005da9"/>
    <path id="Trazado_818924" data-name="Trazado 818924" d="M92.206,89.931c.3-.266.586-.053.848.058a12.168,12.168,0,0,1,2.881,1.8A17.213,17.213,0,0,1,102.177,101a18.17,18.17,0,0,1,.6,5.2,6.532,6.532,0,0,0,.013,2.075l-2.1.016c-.363,0-.491-.179-.5-.537-.01-.591.1-1.174.1-1.757a18.153,18.153,0,0,0-.526-4.929,20.622,20.622,0,0,0-3.626-7.3,23.868,23.868,0,0,0-3.938-3.841" transform="translate(-52.244 -50.883)" fill="#e1495c"/>
    <path id="Trazado_818925" data-name="Trazado 818925" d="M59.239,225.458c.7.016,1.385.154,2.084.1.366-.028.331.237.331.472,0,1.865.011,3.731,0,5.6a6.014,6.014,0,0,0,.782,2.861,1.189,1.189,0,0,1,.2.654,3.159,3.159,0,0,1-3.362-2.951c-.024-1.526-.01-3.053-.014-4.579,0-.718-.01-1.435-.016-2.153" transform="translate(-33.565 -127.745)" fill="#e1495c"/>
    <path id="Trazado_818926" data-name="Trazado 818926" d="M162.13,24.5a9.556,9.556,0,0,0,2.3.68c.17,0,.185.155.112.281a1.375,1.375,0,0,1-.212.242c-2.8,2.931-5.689,5.78-8.546,8.658-.271.273-.511.391-.822.112-.218-.2-.533-.076-.751-.256a9.7,9.7,0,0,1,1.6-1.777q2.869-2.9,5.777-5.766a1.8,1.8,0,0,0,.542-2.173" transform="translate(-87.374 -13.884)" fill="#005da9"/>
    <path id="Trazado_818927" data-name="Trazado 818927" d="M59.1,187.292a10.433,10.433,0,0,1,2.049.378.511.511,0,0,1,.43.571c-.013,1.8-.009,3.593-.005,5.39,0,.338-.124.592-.485.568-.65-.042-1.282.122-1.926.113-.013-2.34.089-4.681-.062-7.02" transform="translate(-33.489 -106.12)" fill="#e1495c"/>
    <path id="Trazado_818928" data-name="Trazado 818928" d="M41.362,207.025a9.818,9.818,0,0,0-.892,2.167,4.958,4.958,0,0,0,.754,3.885.639.639,0,0,1,.139.393,3.231,3.231,0,1,1,0-6.445" transform="translate(-21.475 -117.296)" fill="#e1495c"/>
    <path id="Trazado_818929" data-name="Trazado 818929" d="M165.55,7.586a7.573,7.573,0,0,0-1.109,2.585,4.157,4.157,0,0,0,.535,2.82,2.581,2.581,0,0,1,.456,1.068,3.244,3.244,0,0,1-1.929-5.99,3.06,3.06,0,0,1,2.046-.483" transform="translate(-91.777 -4.284)" fill="#005da9"/>
    <path id="Trazado_818930" data-name="Trazado 818930" d="M78.43,42.011a.926.926,0,0,1-.679.922,13.67,13.67,0,0,0-2.328,1.682c-1.6,1.107-2.607,2.776-3.914,4.161a2.014,2.014,0,0,0-.538.977c-.52.008-1.04.022-1.56.02-.13,0-.311.074-.373-.113a.449.449,0,0,1,.094-.453c.12-.133.269-.24.379-.379a22.184,22.184,0,0,1,3.978-3.838,24.908,24.908,0,0,1,4.784-2.959.547.547,0,0,1,.158-.02" transform="translate(-39.103 -23.804)" fill="#005da9"/>
    <path id="Trazado_818931" data-name="Trazado 818931" d="M94.546,159.833a6.031,6.031,0,0,1-2.171,1.32c-.207.07-.344.065-.433-.149.505-.415,1.006-.836,1.518-1.243.375-.3.732-.082,1.086.072" transform="translate(-52.095 -90.437)" fill="#e1495c"/>
    <path id="Trazado_818932" data-name="Trazado 818932" d="M91.438,41.492c-.041.1-.13.106-.219.108.024-.134.139-.086.219-.108" transform="translate(-51.685 -23.51)" fill="#005da9"/>
    <path id="Trazado_818933" data-name="Trazado 818933" d="M48.973,94.669a.613.613,0,0,1-.04-.055.177.177,0,0,1,.029-.023.6.6,0,0,1,.039.055.205.205,0,0,1-.029.023" transform="translate(-27.726 -53.596)" fill="#317bbf"/>
    <path id="Trazado_818934" data-name="Trazado 818934" d="M22.511,124.659c.006-.047.012-.094.018-.141-.006.047-.012.094-.018.141" transform="translate(-12.755 -70.552)" fill="#e1495c"/>
    <path id="Trazado_818935" data-name="Trazado 818935" d="M90.651,149.262l.145.065-.145-.065" transform="translate(-51.363 -84.572)" fill="#005da9"/>
  </g>
</svg>
