<svg xmlns="http://www.w3.org/2000/svg" xmlns:xlink="http://www.w3.org/1999/xlink" width="1030" height="266" viewBox="0 0 1030 266">
  <defs>
    <linearGradient id="linear-gradient" x1="0.5" x2="0.5" y2="1" gradientUnits="objectBoundingBox">
      <stop offset="0" stop-color="#f9fef5"/>
      <stop offset="1" stop-color="#e7f7f8"/>
    </linearGradient>
    <clipPath id="clip-path">
      <rect id="Rectángulo_376786" data-name="Rectángulo 376786" width="590" height="204.288" fill="none"/>
    </clipPath>
    <linearGradient id="linear-gradient-2" x1="0.5" x2="0.5" y2="1" gradientUnits="objectBoundingBox">
      <stop offset="0" stop-color="#fffad0"/>
      <stop offset="1" stop-color="#dbf9bd"/>
    </linearGradient>
  </defs>
  <g id="Grupo_1072919" data-name="Grupo 1072919" transform="translate(-285 -3233)">
    <g id="Grupo_1072806" data-name="Grupo 1072806">
      <g id="Grupo_1072319" data-name="Grupo 1072319" transform="translate(-20 2268)">
        <rect id="Rectángulo_376022" data-name="Rectángulo 376022" width="1030" height="266" transform="translate(305 965)" fill="url(#linear-gradient)"/>
      </g>
      <g id="Grupo_1072475" data-name="Grupo 1072475" transform="translate(125 14)">
        <g id="Grupo_1072474" data-name="Grupo 1072474" transform="translate(180 3258)">
          <path id="Trazado_817541" data-name="Trazado 817541" d="M459.783,68.631l-3.944,94.385h-7.044l-4.04-76.071h-1.973l-7.512,76.071h-6.48L427.1,68.068Z" transform="translate(-410.36 31)" fill="#263238"/>
          <path id="Trazado_817542" data-name="Trazado 817542" d="M459.783,68.631l-3.944,94.385h-7.044l-4.04-76.071h-1.973l-7.512,76.071h-6.48L427.1,68.068Z" transform="translate(-410.36 31)" fill="none" stroke="#263238" stroke-linecap="round" stroke-linejoin="round" stroke-width="1"/>
          <path id="Trazado_817657" data-name="Trazado 817657" d="M0,0H26.484V59.8H0Z" transform="translate(20.121 32.281)" fill="#9b7295"/>
          <rect id="Rectángulo_376785" data-name="Rectángulo 376785" width="26.484" height="59.796" transform="translate(20.121 32.281)" fill="none" stroke="#263238" stroke-linecap="round" stroke-linejoin="round" stroke-width="1"/>
          <path id="Trazado_817543" data-name="Trazado 817543" d="M423.427,21.578l.681,99.174h13.843V23.393Z" transform="translate(-383.707 6.744)" fill="#fff"/>
          <path id="Trazado_817544" data-name="Trazado 817544" d="M423.427,21.578l.681,99.174h13.843V23.393Z" transform="translate(-383.707 6.744)" fill="none" stroke="#263238" stroke-linecap="round" stroke-linejoin="round" stroke-width="1"/>
          <path id="Trazado_817545" data-name="Trazado 817545" d="M430.4,54.716l-.227-33.139,2.7.339,2.97,10.1-3.858,3.4,3.63,4.086Z" transform="translate(-390.45 6.743)" fill="#fff"/>
          <path id="Trazado_817546" data-name="Trazado 817546" d="M430.4,54.716l-.227-33.139,2.7.339,2.97,10.1-3.858,3.4,3.63,4.086Z" transform="translate(-390.45 6.743)" fill="none" stroke="#263238" stroke-linecap="round" stroke-linejoin="round" stroke-width="1"/>
          <g id="Grupo_1072467" data-name="Grupo 1072467" transform="translate(0)">
            <g id="Grupo_1072466" data-name="Grupo 1072466" clip-path="url(#clip-path)">
              <path id="Trazado_817547" data-name="Trazado 817547" d="M410.25,22.961l17.56,34.075s.22,3.813-2.415,5.242-4.609,1.192-5.267.715-10.537-8.1-10.537-8.1Z" transform="translate(-357.785 8.683)" fill="#fff"/>
              <path id="Trazado_817548" data-name="Trazado 817548" d="M410.25,22.961l17.56,34.075s.22,3.813-2.415,5.242-4.609,1.192-5.267.715-10.537-8.1-10.537-8.1Z" transform="translate(-357.785 8.683)" fill="none" stroke="#263238" stroke-linecap="round" stroke-linejoin="round" stroke-width="1"/>
              <path id="Trazado_817549" data-name="Trazado 817549" d="M443.539,19.573v6.433l-3.513,6.2-5.706-7.148V17.428Z" transform="translate(-404.902 6.591)" fill="#fff"/>
              <path id="Trazado_817550" data-name="Trazado 817550" d="M443.539,19.573v6.433l-3.513,6.2-5.706-7.148V17.428Z" transform="translate(-404.902 6.591)" fill="none" stroke="#263238" stroke-linecap="round" stroke-linejoin="round" stroke-width="1"/>
              <path id="Trazado_817551" data-name="Trazado 817551" d="M438.635,27.884h.918c4.292,0,7.772-3.777,7.772-8.438V8.072a6.391,6.391,0,0,0-6.114-6.637h-4.234a6.392,6.392,0,0,0-6.115,6.637V19.446c0,4.661,3.48,8.438,7.773,8.438" transform="translate(-404.298 0.543)" fill="#fff"/>
              <path id="Trazado_817552" data-name="Trazado 817552" d="M438.635,27.884h.918c4.292,0,7.772-3.777,7.772-8.438V8.072a6.391,6.391,0,0,0-6.114-6.637h-4.234a6.392,6.392,0,0,0-6.115,6.637V19.446C430.862,24.107,434.342,27.884,438.635,27.884Z" transform="translate(-404.298 0.543)" fill="none" stroke="#263238" stroke-linecap="round" stroke-linejoin="round" stroke-width="1"/>
              <path id="Trazado_817553" data-name="Trazado 817553" d="M445.736,1.522s-5.021,2.03-4.866,2.754c.513,2.415,4.277,3.343,3.251,4.829a13.349,13.349,0,0,1-2.91,2.787l.171,3.9H439.5s-1.2-6.13-.856-9.473,3.4-6.065,7.091-4.8" transform="translate(-412.511 0.456)" fill="#263238"/>
              <path id="Trazado_817554" data-name="Trazado 817554" d="M445.736,1.522s-5.021,2.03-4.866,2.754c.513,2.415,4.277,3.343,3.251,4.829a13.349,13.349,0,0,1-2.91,2.787l.171,3.9H439.5s-1.2-6.13-.856-9.473S442.047.254,445.736,1.522Z" transform="translate(-412.511 0.456)" fill="none" stroke="#263238" stroke-linecap="round" stroke-linejoin="round" stroke-width="1"/>
              <path id="Trazado_817555" data-name="Trazado 817555" d="M434.4,1.435h3.826a5.482,5.482,0,0,1,1.487.211c-.133.707-.548,2.333-1.559,2.241-1.127-.1-2.227-2.171-3.754-2.452" transform="translate(-401.173 0.543)" fill="#263238"/>
              <path id="Trazado_817556" data-name="Trazado 817556" d="M434.4,1.435h3.826a5.482,5.482,0,0,1,1.487.211c-.133.707-.548,2.333-1.559,2.241C437.025,3.785,435.925,1.716,434.4,1.435Z" transform="translate(-401.173 0.543)" fill="none" stroke="#263238" stroke-linecap="round" stroke-linejoin="round" stroke-width="1"/>
              <path id="Trazado_817557" data-name="Trazado 817557" d="M438.815,17.229s-1.289.7-3.867-.816" transform="translate(-400.975 6.207)" fill="none" stroke="#263238" stroke-linecap="round" stroke-linejoin="round" stroke-width="1"/>
              <path id="Trazado_817558" data-name="Trazado 817558" d="M436.627,10.454v7.628l-2.271-1.2" transform="translate(-398.035 3.953)" fill="#fff"/>
              <path id="Trazado_817559" data-name="Trazado 817559" d="M436.627,10.454v7.628l-2.271-1.2" transform="translate(-398.035 3.953)" fill="none" stroke="#263238" stroke-linecap="round" stroke-linejoin="round" stroke-width="1"/>
              <path id="Trazado_817560" data-name="Trazado 817560" d="M434.476,8.954a1.811,1.811,0,0,0-2.675,0" transform="translate(-392.641 3.164)" fill="#fff"/>
              <path id="Trazado_817561" data-name="Trazado 817561" d="M434.476,8.954a1.811,1.811,0,0,0-2.675,0" transform="translate(-392.641 3.164)" fill="none" stroke="#263238" stroke-linecap="round" stroke-linejoin="round" stroke-width="1"/>
              <path id="Trazado_817562" data-name="Trazado 817562" d="M440,9.125a2.734,2.734,0,0,0-3.731,0" transform="translate(-403.844 3.169)" fill="#fff"/>
              <path id="Trazado_817563" data-name="Trazado 817563" d="M440,9.125a2.734,2.734,0,0,0-3.731,0" transform="translate(-403.844 3.169)" fill="none" stroke="#263238" stroke-linecap="round" stroke-linejoin="round" stroke-width="1"/>
              <path id="Trazado_817564" data-name="Trazado 817564" d="M432.248,11.052c0,.754.254,1.364.567,1.364s.568-.611.568-1.364-.254-1.364-.568-1.364-.567.611-.567,1.364" transform="translate(-392.116 3.663)" fill="#263238"/>
              <path id="Trazado_817565" data-name="Trazado 817565" d="M437.231,11.052c0,.754.254,1.364.567,1.364s.567-.611.567-1.364-.254-1.364-.567-1.364-.567.611-.567,1.364" transform="translate(-403.425 3.663)" fill="#263238"/>
              <path id="Trazado_817566" data-name="Trazado 817566" d="M446.6,10.4s-1.1-3.336-2.195-.954a7.562,7.562,0,0,0,.439,6.673,1.038,1.038,0,0,0,1.756.119Z" transform="translate(-420.036 3.249)" fill="#fff"/>
              <path id="Trazado_817567" data-name="Trazado 817567" d="M446.6,10.4s-1.1-3.336-2.195-.954a7.562,7.562,0,0,0,.439,6.673,1.038,1.038,0,0,0,1.756.119Z" transform="translate(-420.036 3.249)" fill="none" stroke="#263238" stroke-linecap="round" stroke-linejoin="round" stroke-width="1"/>
              <path id="Trazado_817568" data-name="Trazado 817568" d="M462.215,21.924,461.556,125.1H441.582s1.975-50.994,1.975-51.708,2.195-7.387,2.195-7.387l-.879-42.892Z" transform="translate(-432.797 8.29)" fill="#fff"/>
              <path id="Trazado_817569" data-name="Trazado 817569" d="M462.215,21.924,461.556,125.1H441.582s1.975-50.994,1.975-51.708,2.195-7.387,2.195-7.387l-.879-42.892Z" transform="translate(-432.797 8.29)" fill="none" stroke="#263238" stroke-linecap="round" stroke-linejoin="round" stroke-width="1"/>
              <path id="Trazado_817570" data-name="Trazado 817570" d="M446.191,35.983l-4.609-2.86,2.849-10.942,3.736-.256-.221,34.564L441.8,40.033Z" transform="translate(-418.749 8.291)" fill="#fff"/>
              <path id="Trazado_817571" data-name="Trazado 817571" d="M446.191,35.983l-4.609-2.86,2.849-10.942,3.736-.256-.221,34.564L441.8,40.033Z" transform="translate(-418.749 8.291)" fill="none" stroke="#263238" stroke-linecap="round" stroke-linejoin="round" stroke-width="1"/>
              <path id="Trazado_817572" data-name="Trazado 817572" d="M470.886,55.672l-.659,6.91L439.5,66.157s-1.537-2.383,0-7.864,10.535-35.505,10.535-35.505l.735,28.292-1.832,3.638Z" transform="translate(-437.956 8.617)" fill="#fff"/>
              <path id="Trazado_817573" data-name="Trazado 817573" d="M470.886,55.672l-.659,6.91L439.5,66.157s-1.537-2.383,0-7.864,10.535-35.505,10.535-35.505l.735,28.292-1.832,3.638Z" transform="translate(-437.956 8.617)" fill="none" stroke="#263238" stroke-linecap="round" stroke-linejoin="round" stroke-width="1"/>
              <path id="Trazado_817574" data-name="Trazado 817574" d="M443.476,36.579l-9,24.782H415.819l8.56-25.259Z" transform="translate(-381.353 13.652)" fill="#263238"/>
              <path id="Trazado_817575" data-name="Trazado 817575" d="M443.476,36.579l-9,24.782H415.819l8.56-25.259Z" transform="translate(-381.353 13.652)" fill="none" stroke="#263238" stroke-linecap="round" stroke-linejoin="round" stroke-width="1"/>
              <path id="Trazado_817576" data-name="Trazado 817576" d="M429.648,47.462l3.584-2.282,2.512-.681-.5,1.772,6.28,3.546-.879,1.772-4.9,1.227-2.764.136-3.518-.681Z" transform="translate(-396.718 16.827)" fill="#fff"/>
              <path id="Trazado_817577" data-name="Trazado 817577" d="M429.648,47.462l3.584-2.282,2.512-.681-.5,1.772,6.28,3.546-.879,1.772-4.9,1.227-2.764.136-3.518-.681Z" transform="translate(-396.718 16.827)" fill="none" stroke="#263238" stroke-linecap="round" stroke-linejoin="round" stroke-width="1"/>
              <path id="Trazado_817578" data-name="Trazado 817578" d="M428.271,36.333l-1.242,2.19-6.266-.006.865-2.279Z" transform="translate(-372.425 13.703)" fill="#fff"/>
              <path id="Trazado_817579" data-name="Trazado 817579" d="M428.271,36.333l-1.242,2.19-6.266-.006.865-2.279Z" transform="translate(-372.425 13.703)" fill="none" stroke="#263238" stroke-linecap="round" stroke-linejoin="round" stroke-width="1"/>
              <path id="Trazado_817580" data-name="Trazado 817580" d="M429.077,138.35l10.671,5.277H421.627l.6-5.473Z" transform="translate(-384.997 52.242)" fill="#fff"/>
              <path id="Trazado_817581" data-name="Trazado 817581" d="M429.077,138.35l10.671,5.277H421.627l.6-5.473Z" transform="translate(-384.997 52.242)" fill="none" stroke="#263238" stroke-linecap="round" stroke-linejoin="round" stroke-width="1"/>
              <path id="Trazado_817582" data-name="Trazado 817582" d="M444.318,138.35l10.671,5.277H436.867l.6-5.473Z" transform="translate(-419.587 52.242)" fill="#fff"/>
              <path id="Trazado_817583" data-name="Trazado 817583" d="M444.318,138.35l10.671,5.277H436.867l.6-5.473Z" transform="translate(-419.587 52.242)" fill="none" stroke="#263238" stroke-linecap="round" stroke-linejoin="round" stroke-width="1"/>
            </g>
          </g>
          <g id="Grupo_1072469" data-name="Grupo 1072469" transform="translate(0)">
            <g id="Grupo_1072468" data-name="Grupo 1072468" clip-path="url(#clip-path)">
              <path id="Trazado_817584" data-name="Trazado 817584" d="M145.737,109.529s.609,13.385.76,17.68,6.088,19.333,6.7,20.323a9.7,9.7,0,0,0,2.435,2.149s3.349.66,3.806,1.652.913,2.313-.457,2.809-6.7,0-7-.5A27.18,27.18,0,0,1,150.912,151a19.153,19.153,0,0,1-2.13-2.149c-.609-.826-1.522-1.982-1.522-1.982s-1.827.66-2.435-.992-5.936-19-6.545-20.158-2.587-6.775-2.892-7.271,2.435-11.731,3.957-13.218,5.784,3.139,6.393,4.3" transform="translate(258.265 39.683)" fill="#9b7295"/>
              <path id="Trazado_817585" data-name="Trazado 817585" d="M136.678,128.59a11.848,11.848,0,0,1,4.057-2.638l.34-.147a137.936,137.936,0,0,0,5.177,13.838,9.7,9.7,0,0,0,2.436,2.149s3.349.661,3.8,1.652.914,2.314-.456,2.809-6.7,0-7-.495a27.572,27.572,0,0,1-1.065-2.645,19.11,19.11,0,0,1-2.13-2.147c-.609-.827-1.522-1.983-1.522-1.983s-1.827.66-2.436-.991c-.253-.686-1.315-4.068-2.517-7.876.442-.506.9-1.016,1.314-1.526" transform="translate(265.207 47.573)" fill="#fff"/>
              <path id="Trazado_817586" data-name="Trazado 817586" d="M145.737,109.529s.609,13.385.76,17.68,6.088,19.333,6.7,20.323a9.7,9.7,0,0,0,2.435,2.149s3.349.66,3.806,1.652.913,2.313-.457,2.809-6.7,0-7-.5A27.18,27.18,0,0,1,150.912,151a19.153,19.153,0,0,1-2.13-2.149c-.609-.826-1.522-1.982-1.522-1.982s-1.827.66-2.435-.992-5.936-19-6.545-20.158-2.587-6.775-2.892-7.271,2.435-11.731,3.957-13.218S145.128,108.372,145.737,109.529Z" transform="translate(258.265 39.683)" fill="none" stroke="#263238" stroke-miterlimit="10" stroke-width="1"/>
              <path id="Trazado_817587" data-name="Trazado 817587" d="M140.577,137.582c1.026.277,2.495.775,2.786,1.408.457.991.913,2.313-.457,2.809s-6.7,0-7-.5a10.531,10.531,0,0,1-.542-1.236,19.81,19.81,0,0,1,5.214-2.485" transform="translate(274.338 52.026)" fill="#263238"/>
              <path id="Trazado_817588" data-name="Trazado 817588" d="M140.577,137.582c1.026.277,2.495.775,2.786,1.408.457.991.913,2.313-.457,2.809s-6.7,0-7-.5a10.531,10.531,0,0,1-.542-1.236A19.81,19.81,0,0,1,140.577,137.582Z" transform="translate(274.338 52.026)" fill="none" stroke="#263238" stroke-miterlimit="10" stroke-width="1"/>
              <path id="Trazado_817589" data-name="Trazado 817589" d="M135.3,107.294s0,10.012-1.318,11.92-2.635-4.767-2.855-9.774" transform="translate(288.243 40.573)" fill="#fff"/>
              <path id="Trazado_817590" data-name="Trazado 817590" d="M135.3,107.294s0,10.012-1.318,11.92-2.635-4.767-2.855-9.774" transform="translate(288.243 40.573)" fill="none" stroke="#263238" stroke-miterlimit="10" stroke-width="1"/>
              <path id="Trazado_817591" data-name="Trazado 817591" d="M97.029,103.215S91.281,124.269,89,128.234s-4.262,7.271-4.414,10.905,1.979,13.55,1.979,13.55,4.414,1.818,4.414,2.974-5.936,1.818-7.458,1.322-2.892-1.322-3.044-2.643-.76-5.123-1.217-5.288-2.283,1.322-2.283-1.156,3.044-10.574,3.348-12.888,1.066-9.584,1.674-14.541,4.988-21.549,4.988-21.549Z" transform="translate(395.253 37.406)" fill="#9b7295"/>
              <path id="Trazado_817592" data-name="Trazado 817592" d="M88.287,147.142c-1.522-.5-2.892-1.322-3.044-2.643s-.76-5.123-1.217-5.288-2.284,1.322-2.284-1.156,3.044-10.576,3.349-12.888c.009-.065.019-.149.028-.22a18.261,18.261,0,0,1,4.7,1.583,12.054,12.054,0,0,0-.462,2.767c-.152,3.636,1.979,13.55,1.979,13.55s4.414,1.818,4.414,2.974-5.936,1.818-7.458,1.322" transform="translate(390.484 47.248)" fill="#fff"/>
              <path id="Trazado_817593" data-name="Trazado 817593" d="M97.029,103.215S91.281,124.269,89,128.234s-4.262,7.271-4.414,10.905,1.979,13.55,1.979,13.55,4.414,1.818,4.414,2.974-5.936,1.818-7.458,1.322-2.892-1.322-3.044-2.643-.76-5.123-1.217-5.288-2.283,1.322-2.283-1.156,3.044-10.574,3.348-12.888,1.066-9.584,1.674-14.541,4.988-21.549,4.988-21.549Z" transform="translate(395.253 37.406)" fill="none" stroke="#263238" stroke-miterlimit="10" stroke-width="1"/>
              <path id="Trazado_817594" data-name="Trazado 817594" d="M90.423,140.909c0,1.156-5.936,1.818-7.458,1.322a8.263,8.263,0,0,1-1.223-.5,6.651,6.651,0,0,1,.462-.817,10.362,10.362,0,0,1,3.8-2.974s4.414,1.818,4.414,2.974" transform="translate(395.807 52.16)" fill="#263238"/>
              <path id="Trazado_817595" data-name="Trazado 817595" d="M90.423,140.909c0,1.156-5.936,1.818-7.458,1.322a8.263,8.263,0,0,1-1.223-.5,6.651,6.651,0,0,1,.462-.817,10.362,10.362,0,0,1,3.8-2.974S90.423,139.753,90.423,140.909Z" transform="translate(395.807 52.16)" fill="none" stroke="#263238" stroke-miterlimit="10" stroke-width="1"/>
              <path id="Trazado_817596" data-name="Trazado 817596" d="M198.117,64.793s9.662,17.4,12.737,21.695,8.565,8.1,8.126,10.489a11.082,11.082,0,0,1-5.71,7.153c-2.855,1.192-5.71-1.192-6.808-1.192h-8.125c-2.2,0-12.517-1.192-18.227-1.907s-14.494,4.53-14.494,4.53-13.4,16.45-18.886,21.217-14.494,5.245-14.494,5.245-19.324-11.92-20.642-12.873-4.832-1.192-4.832-1.192-16.031,3.815-20.863,5.721-12.737,5.007-15.153,5.007-9.882-5.244-9.882-5.244-1.977.237-4.173,3.336-5.709,6.914-11.858,7.868a33.967,33.967,0,0,1-11.419-.238A10.618,10.618,0,0,1,31,133.453c-.659-.477-2.855-2.146-2.855-2.146a46.651,46.651,0,0,0-5.491,19.311c-.659,11.2,1.537,19.549,2.635,20.741s7.247,4.052,6.808,5.721-7.687.954-9.444,0-1.975-3.336-3.073-4.29-3.075-.954-3.294-3.1-1.757-21.218-3.075-28.132-1.318-6.913-.439-11.2,4.173-12.4,3.734-17.88-5.271-16.926-5.491-24.554-.878-19.787-.878-19.787S6.843,76.475,6.843,90.064s-2.634,25.985-4.172,33.851,0,17.4,1.318,20.264,2.634,11.444,2.634,11.444l-2.854,6.913-1.1-10.489-.878,4.767a71.944,71.944,0,0,1-1.1-10.966c0-5.007-.439-19.311,0-23.6s4.391-15.973,4.83-29.324-.877-22.17,1.757-27.892,12.3-10.489,18.447-11.92,11.639-2.384,15.811-2.384,12.737,2.384,13.615,2.384,58.414-.715,67.419-.715,14.274.238,22.618,4.052,14.274,7.391,23.5,7.391,19.325-4.053,23.277-4.292,6.149,5.245,6.149,5.245" transform="translate(370.361 19.183)" fill="#9b7295"/>
              <path id="Trazado_817597" data-name="Trazado 817597" d="M150.245,131.477a40.368,40.368,0,0,1,4.475-4.723c.1,8.68,1.814,14.843,2.745,15.854,1.1,1.192,7.247,4.053,6.808,5.722s-7.687.952-9.444,0-1.975-3.338-3.073-4.292-3.075-.954-3.294-3.1c-.084-.824-.363-4.144-.749-8.31a3.953,3.953,0,0,0,2.533-1.152" transform="translate(238.186 47.932)" fill="#fff"/>
              <path id="Trazado_817598" data-name="Trazado 817598" d="M43.769,67.033s-5.271-2.861-9.442-.477-11.86,10.251-9.224,11.2S36.742,81.1,39.6,78.237a17.53,17.53,0,0,0,3.953-6.913" transform="translate(515.046 24.809)" fill="none" stroke="#263238" stroke-miterlimit="10" stroke-width="1"/>
              <path id="Trazado_817599" data-name="Trazado 817599" d="M15.743,70.685A2.227,2.227,0,0,0,17.873,73a2.32,2.32,0,0,0,0-4.625,2.227,2.227,0,0,0-2.13,2.313" transform="translate(550.012 25.855)" fill="#263238"/>
              <path id="Trazado_817600" data-name="Trazado 817600" d="M4.03,81.523c1.537.238,6.369.238,6.369.238l.942-.048c1.256,1.406,2.093,2.639,1.912,3.625a11.077,11.077,0,0,1-5.709,7.151,4.046,4.046,0,0,1-.584.16l-2.051-.4S.735,91.3.516,87.722s1.977-6.437,3.514-6.2" transform="translate(576.087 30.822)" fill="#fff"/>
              <path id="Trazado_817601" data-name="Trazado 817601" d="M3.744,83.249S7.258,85.395,5.5,86.11,1.329,84.2,3.744,83.249" transform="translate(580.545 31.48)" fill="#263238"/>
              <path id="Trazado_817602" data-name="Trazado 817602" d="M18.972,85.8c.22-2.861-.659-5.722,0-5.484s4.392-.238,7.687,1.192,3.293,4.768,5.928,6.676a10.249,10.249,0,0,1,3.294,3.338l-.2.09c-4-.339-11.338-1.2-15.836-1.759a9.507,9.507,0,0,0-1.341-.057c.176-1.238.363-2.712.462-4" transform="translate(530.62 30.364)" fill="#fff"/>
              <path id="Trazado_817603" data-name="Trazado 817603" d="M98.163,126.171c-2.2,3.1-5.71,6.914-11.858,7.866a33.966,33.966,0,0,1-11.419-.238,10.592,10.592,0,0,1-2.416-.952c-.659-.477-2.855-2.146-2.855-2.146s.878-7.868,4.392-13.59S88.94,105.668,88.94,105.668s-7.028-.954-10.542,1.669-2.855,6.2-5.928,6.437-4.832-6.914-4.832-6.914l1.977-10.012s6.807-5.484,8.344-8.345S79.5,75.869,82.132,70.385a8.579,8.579,0,0,1,8.126-5.005s10.98,5.244,10.541,9.059-4.832,11.443-4.832,11.443l-.22,5.484s3.734,5.007,5.051-3.1,5.489-10.727,6.807-9.535,3.514,7.151,1.757,11.2-3.732-.715-5.05,2.146a22.161,22.161,0,0,0-2.416,8.82c0,2.861,3.953,9.3,3.953,9.3s-3.734,5.245,1.536,6.436,8.346,1.907,11.42.715,3.732,1.192,5.928-2.86,4.832-8.345,4.832-8.345a90.373,90.373,0,0,1,10.321-4.053c4.173-1.192,5.71-1.192,6.369-3.1s2.635-7.153,2.855-12.159-1.537-7.151-1.537-7.151-6.369,4.052-6.369.715-5.929-5.96,4.173-13.828,13.835-3.813,16.251-2.383,4.612-3.338,3.734-4.768a3.811,3.811,0,0,1,1.977-5.245c2.415-.954,6.148-2.623,7.905-1.431,0,0-1.757,9.537-1.537,11.206s-4.392,4.29-4.392,4.29a33.37,33.37,0,0,1-8.564,10.014c-5.271,3.815-8.126,5.722-7.906,12.158s.659,8.345,2.2,9.06,4.392,3.1,4.392,4.29,4.392,14.065,5.71,18.6a15.026,15.026,0,0,1,.647,4.165c-5.5-3.41-11.983-7.441-12.727-7.979-1.316-.954-4.83-1.192-4.83-1.192s-16.031,3.815-20.863,5.722-12.737,5.007-15.153,5.007-9.882-5.245-9.882-5.245-1.977.238-4.173,3.338" transform="translate(328.891 19.788)" fill="#fff"/>
              <path id="Trazado_817604" data-name="Trazado 817604" d="M152.455,111.762c-.074.171-.146.34-.221.522l-.032-.006Z" transform="translate(244.327 42.262)" fill="none" stroke="#263238" stroke-miterlimit="10" stroke-width="1"/>
              <path id="Trazado_817605" data-name="Trazado 817605" d="M198.117,64.793s9.662,17.4,12.737,21.695,8.565,8.1,8.126,10.489a11.082,11.082,0,0,1-5.71,7.153c-2.855,1.192-5.71-1.192-6.808-1.192h-8.125c-2.2,0-12.517-1.192-18.227-1.907s-14.494,4.53-14.494,4.53-13.4,16.45-18.886,21.217-14.494,5.245-14.494,5.245-19.324-11.92-20.642-12.873-4.832-1.192-4.832-1.192-16.031,3.815-20.863,5.721-12.737,5.007-15.153,5.007-9.882-5.244-9.882-5.244-1.977.237-4.173,3.336-5.709,6.914-11.858,7.868a33.967,33.967,0,0,1-11.419-.238A10.618,10.618,0,0,1,31,133.453c-.659-.477-2.855-2.146-2.855-2.146a46.651,46.651,0,0,0-5.491,19.311c-.659,11.2,1.537,19.549,2.635,20.741s7.247,4.052,6.808,5.721-7.687.954-9.444,0-1.975-3.336-3.073-4.29-3.075-.954-3.294-3.1-1.757-21.218-3.075-28.132-1.318-6.913-.439-11.2,4.173-12.4,3.734-17.88-5.271-16.926-5.491-24.554-.878-19.787-.878-19.787S6.843,76.475,6.843,90.064s-2.634,25.985-4.172,33.851,0,17.4,1.318,20.264,2.634,11.444,2.634,11.444l-2.854,6.913-1.1-10.489-.878,4.767a71.944,71.944,0,0,1-1.1-10.966c0-5.007-.439-19.311,0-23.6s4.391-15.973,4.83-29.324-.877-22.17,1.757-27.892,12.3-10.489,18.447-11.92,11.639-2.384,15.811-2.384,12.737,2.384,13.615,2.384,58.414-.715,67.419-.715,14.274.238,22.618,4.052,14.274,7.391,23.5,7.391,19.325-4.053,23.277-4.292S198.117,64.793,198.117,64.793Z" transform="translate(370.361 19.183)" fill="none" stroke="#263238" stroke-miterlimit="10" stroke-width="1"/>
              <path id="Trazado_817606" data-name="Trazado 817606" d="M138.012,106.948s.878,8.821-.439,10.489-3.514-4.29-3.734-9.774" transform="translate(281.795 40.442)" fill="#fff"/>
              <path id="Trazado_817607" data-name="Trazado 817607" d="M138.012,106.948s.878,8.821-.439,10.489-3.514-4.29-3.734-9.774" transform="translate(281.795 40.442)" fill="none" stroke="#263238" stroke-miterlimit="10" stroke-width="1"/>
              <path id="Trazado_817608" data-name="Trazado 817608" d="M144.773,110.193s1.757,10.728-.439,12.158-4.392-11.681-4.392-12.635" transform="translate(266.909 41.489)" fill="#fff"/>
              <path id="Trazado_817609" data-name="Trazado 817609" d="M144.773,110.193s1.757,10.728-.439,12.158-4.392-11.681-4.392-12.635" transform="translate(266.909 41.489)" fill="none" stroke="#263238" stroke-miterlimit="10" stroke-width="1"/>
              <path id="Trazado_817610" data-name="Trazado 817610" d="M82.63,99.395s-1.1,23.841-1.977,28.846-1.757,6.914-2.2,9.06.439,14.781,1.1,18.834,5.71,5.482,5.271,6.913-7.467.477-9.442-.238a6.354,6.354,0,0,1-3.734-5.959c0-2.861.439-21.218.439-21.218s-2.2-6.676-3.294-11.444-2.855-16.926-4.612-22.17-1.318-8.822-.659-13.35,2.635-5.245,2.635-5.245" transform="translate(425.238 31.546)" fill="#9b7295"/>
              <path id="Trazado_817611" data-name="Trazado 817611" d="M63.025,134.183a9.457,9.457,0,0,1,4.3-3.937,5.3,5.3,0,0,1,2.709.136c.24,3.265.548,6.415.821,8.092.659,4.053,5.709,5.484,5.271,6.914s-7.467.477-9.444-.238a6.354,6.354,0,0,1-3.734-5.96c0-.768.033-2.658.079-5.007" transform="translate(433.941 49.204)" fill="#fff"/>
              <path id="Trazado_817612" data-name="Trazado 817612" d="M82.63,99.395s-1.1,23.841-1.977,28.846-1.757,6.914-2.2,9.06.439,14.781,1.1,18.834,5.71,5.482,5.271,6.913-7.467.477-9.442-.238a6.354,6.354,0,0,1-3.734-5.959c0-2.861.439-21.218.439-21.218s-2.2-6.676-3.294-11.444-2.855-16.926-4.612-22.17-1.318-8.822-.659-13.35,2.635-5.245,2.635-5.245" transform="translate(425.238 31.546)" fill="none" stroke="#263238" stroke-miterlimit="10" stroke-width="1"/>
              <path id="Trazado_817613" data-name="Trazado 817613" d="M62.946,142.352a12.852,12.852,0,0,1,4.531-4.564,1.248,1.248,0,0,1,.245-.081c1.608,2.511,4.8,3.664,4.447,4.814-.425,1.384-7.006.536-9.223-.168" transform="translate(437.896 52.073)" fill="#263238"/>
              <path id="Trazado_817614" data-name="Trazado 817614" d="M62.946,142.352a12.852,12.852,0,0,1,4.531-4.564,1.248,1.248,0,0,1,.245-.081c1.608,2.511,4.8,3.664,4.447,4.814C71.743,143.9,65.162,143.056,62.946,142.352Z" transform="translate(437.896 52.073)" fill="none" stroke="#263238" stroke-miterlimit="10" stroke-width="1"/>
              <path id="Trazado_817615" data-name="Trazado 817615" d="M147.791,143.44c.641-2.087,3.844-3.478,3.844-3.478l.675-.087c1.88,1.2,3.779,2.54,3.528,3.494-.364,1.385-5.413,1.126-8.125.452a3.831,3.831,0,0,1,.077-.38" transform="translate(246.62 52.893)" fill="#263238"/>
              <path id="Trazado_817616" data-name="Trazado 817616" d="M147.791,143.44c.641-2.087,3.844-3.478,3.844-3.478l.675-.087c1.88,1.2,3.779,2.54,3.528,3.494-.364,1.385-5.413,1.126-8.125.452A3.831,3.831,0,0,1,147.791,143.44Z" transform="translate(246.62 52.893)" fill="none" stroke="#263238" stroke-miterlimit="10" stroke-width="1"/>
              <path id="Trazado_817617" data-name="Trazado 817617" d="M24.252,58.034s4.392.715,3.953,3.1-3.953,2.623-5.271.954-1.318-6.2,0-6.676,1.318,2.623,1.318,2.623" transform="translate(533.904 20.935)" fill="#fff"/>
              <path id="Trazado_817618" data-name="Trazado 817618" d="M24.252,58.034s4.392.715,3.953,3.1-3.953,2.623-5.271.954-1.318-6.2,0-6.676S24.252,58.034,24.252,58.034Z" transform="translate(533.904 20.935)" fill="none" stroke="#263238" stroke-miterlimit="10" stroke-width="1"/>
            </g>
          </g>
          <g id="Grupo_1072471" data-name="Grupo 1072471" transform="translate(0)">
            <g id="Grupo_1072470" data-name="Grupo 1072470" clip-path="url(#clip-path)">
              <path id="Trazado_817619" data-name="Trazado 817619" d="M397.648,95.037h4.45V85.584c0-3.8-2.687-6.9-5.992-6.9H382.689c-.288,0-.608-.393-.608-.956s.32-.956.608-.956h25.683c2.789,0,5.058-2.6,5.058-5.787V69.638c0-3.19-2.269-5.787-5.058-5.787h-32.1c-.288,0-.608-.394-.608-.958V61.1c0-.564.32-.956.608-.956H425.18v-4.83H376.268c-2.788,0-5.058,2.6-5.058,5.787v1.8c0,3.192,2.27,5.788,5.058,5.788h32.1c.288,0,.608.393.608.956v1.348c0,.564-.32.956-.608.956H382.689c-2.789,0-5.058,2.6-5.058,5.787s2.269,5.787,5.058,5.787h13.417c.851,0,1.542.929,1.542,2.069Z" transform="translate(-306.426 20.915)" fill="#263238"/>
              <rect id="Rectángulo_376788" data-name="Rectángulo 376788" width="105.018" height="11.115" transform="translate(105.419 147.927)" fill="#263238"/>
              <rect id="Rectángulo_376789" data-name="Rectángulo 376789" width="105.018" height="11.115" transform="translate(105.419 147.927)" fill="none" stroke="#263238" stroke-miterlimit="10" stroke-width="1"/>
              <rect id="Rectángulo_376790" data-name="Rectángulo 376790" width="4.775" height="18.452" transform="translate(239.152 1.991)" fill="#fff"/>
              <rect id="Rectángulo_376791" data-name="Rectángulo 376791" width="4.775" height="18.452" transform="translate(239.152 1.991)" fill="none" stroke="#263238" stroke-miterlimit="10" stroke-width="1"/>
              <path id="Trazado_817620" data-name="Trazado 817620" d="M111.235,190.065h4.45V34.933a4.7,4.7,0,0,1,4.488-4.873H222.754a4.7,4.7,0,0,1,4.489,4.873V185.684h4.45V34.933c0-5.351-4.009-9.7-8.938-9.7H120.172c-4.928,0-8.937,4.352-8.937,9.7Z" transform="translate(217.096 9.54)" fill="#263238"/>
              <path id="Trazado_817621" data-name="Trazado 817621" d="M132.8,140.977l1.494.066a1.959,1.959,0,0,0,1.964-1.965l.873-23.413-5.268-.232-.873,23.413a1.99,1.99,0,0,0,1.81,2.131" transform="translate(286.579 43.651)" fill="#fff"/>
              <path id="Trazado_817622" data-name="Trazado 817622" d="M132.8,140.977l1.494.066a1.959,1.959,0,0,0,1.964-1.965l.873-23.413-5.268-.232-.873,23.413A1.99,1.99,0,0,0,132.8,140.977Z" transform="translate(286.579 43.651)" fill="none" stroke="#263238" stroke-miterlimit="10" stroke-width="1"/>
              <path id="Trazado_817659" data-name="Trazado 817659" d="M0,0,5.814.02l.009,2.895L.009,2.895Z" transform="matrix(-0.999, -0.04, 0.04, -0.999, 423.902, 161.451)" fill="#263238"/>
              <path id="Trazado_817660" data-name="Trazado 817660" d="M0,0,5.814.02l.009,2.895L.009,2.895Z" transform="matrix(-0.999, -0.04, 0.04, -0.999, 423.902, 161.451)" fill="none" stroke="#263238" stroke-width="1"/>
              <path id="Trazado_817623" data-name="Trazado 817623" d="M135.294,137.538h1.5a1.974,1.974,0,0,0,1.889-2.051V112.056h-5.273v23.431a1.974,1.974,0,0,0,1.889,2.051" transform="translate(281.966 42.374)" fill="#fff"/>
              <path id="Trazado_817624" data-name="Trazado 817624" d="M135.294,137.538h1.5a1.974,1.974,0,0,0,1.889-2.051V112.056h-5.273v23.431A1.974,1.974,0,0,0,135.294,137.538Z" transform="translate(281.966 42.374)" fill="none" stroke="#263238" stroke-miterlimit="10" stroke-width="1"/>
              <rect id="Rectángulo_376794" data-name="Rectángulo 376794" width="5.813" height="2.895" transform="translate(415.102 153.661)" fill="#263238"/>
              <rect id="Rectángulo_376795" data-name="Rectángulo 376795" width="5.813" height="2.895" transform="translate(415.102 153.661)" fill="none" stroke="#263238" stroke-miterlimit="10" stroke-width="1"/>
              <path id="Trazado_817625" data-name="Trazado 817625" d="M141.971,140.753l1.493-.1a2,2,0,0,0,1.773-2.168l-1.277-23.39-5.263.338,1.277,23.391a1.951,1.951,0,0,0,2,1.925" transform="translate(268.685 43.524)" fill="#fff"/>
              <path id="Trazado_817626" data-name="Trazado 817626" d="M141.971,140.753l1.493-.1a2,2,0,0,0,1.773-2.168l-1.277-23.39-5.263.338,1.277,23.391A1.951,1.951,0,0,0,141.971,140.753Z" transform="translate(268.685 43.524)" fill="none" stroke="#263238" stroke-miterlimit="10" stroke-width="1"/>
              <path id="Trazado_817661" data-name="Trazado 817661" d="M0,0,2.894.013l.029,5.815L.029,5.815Z" transform="translate(407.228 161.101) rotate(-93.393)" fill="#263238"/>
              <path id="Trazado_817662" data-name="Trazado 817662" d="M0,0,2.894.013l.029,5.815L.029,5.815Z" transform="translate(407.228 161.101) rotate(-93.393)" fill="none" stroke="#263238" stroke-width="1"/>
              <path id="Trazado_817627" data-name="Trazado 817627" d="M141.362,130.546,140.6,138.7l-4.65-3.878" transform="translate(276.047 49.365)" fill="none" stroke="#263238" stroke-linecap="round" stroke-linejoin="round" stroke-width="2"/>
              <path id="Trazado_817628" data-name="Trazado 817628" d="M133.341,64.109V40.946c0-7.609,1.567-14.461,8.433-16a8.834,8.834,0,0,1,5.158.136c6.007,2.4,8.22,13.385,7.9,27.114s4.7,107.364,7.272,116.974c5.254,19.669,31.3,20.25,36.218,9.579l4.075-3.382" transform="translate(218.324 9.316)" fill="none" stroke="#263238" stroke-linecap="round" stroke-linejoin="round" stroke-width="2"/>
              <rect id="Rectángulo_376798" data-name="Rectángulo 376798" width="12.591" height="6.498" transform="translate(234.761 17.655)" fill="#fff"/>
              <rect id="Rectángulo_376799" data-name="Rectángulo 376799" width="12.591" height="6.498" transform="translate(234.761 17.655)" fill="none" stroke="#263238" stroke-miterlimit="10" stroke-width="1"/>
              <path id="Trazado_817629" data-name="Trazado 817629" d="M214.607,119.012h12.5a3.635,3.635,0,0,1,0,7.245h-12.5Z" transform="translate(87.112 45.004)" fill="#263238"/>
              <path id="Trazado_817630" data-name="Trazado 817630" d="M225.968,92.8V122.64c0,5.473-4.086,9.909-9.128,9.909H184.832" transform="translate(129.39 35.09)" fill="none" stroke="#263238" stroke-linecap="round" stroke-linejoin="round" stroke-width="3"/>
              <path id="Trazado_817631" data-name="Trazado 817631" d="M247.035,166.335V49.765c0-17.8,13.413-32.239,29.96-32.239h10.751c16.546,0,29.961,14.435,29.961,32.239v116.57Z" transform="translate(-41.315 6.627)" fill="#dedede"/>
              <path id="Trazado_817632" data-name="Trazado 817632" d="M247.035,166.335V49.765c0-17.8,13.413-32.239,29.96-32.239h10.751c16.546,0,29.961,14.435,29.961,32.239v116.57Z" transform="translate(-41.315 6.627)" fill="none" stroke="#263238" stroke-miterlimit="10" stroke-width="1"/>
              <path id="Trazado_817633" data-name="Trazado 817633" d="M260.24,125.5l1.88,20.625a.377.377,0,0,1-.666.3l-15.9-20.926Z" transform="translate(16.152 47.459)" fill="#dedede"/>
              <path id="Trazado_817634" data-name="Trazado 817634" d="M260.24,125.5l1.88,20.625a.377.377,0,0,1-.666.3l-15.9-20.926Z" transform="translate(16.152 47.459)" fill="none" stroke="#263238" stroke-miterlimit="10" stroke-width="1"/>
              <path id="Trazado_817635" data-name="Trazado 817635" d="M292.847,125.5l-1.879,20.625a.376.376,0,0,0,.665.3l15.9-20.926Z" transform="translate(-86.912 47.459)" fill="#dedede"/>
              <path id="Trazado_817636" data-name="Trazado 817636" d="M292.847,125.5l-1.879,20.625a.376.376,0,0,0,.665.3l15.9-20.926Z" transform="translate(-86.912 47.459)" fill="none" stroke="#263238" stroke-miterlimit="10" stroke-width="1"/>
              <path id="Trazado_817637" data-name="Trazado 817637" d="M315.791,166.335V49.765c0-17.8,13.413-32.239,29.96-32.239H356.5c16.547,0,29.961,14.435,29.961,32.239v116.57Z" transform="translate(-197.356 6.627)" fill="#dedede"/>
              <path id="Trazado_817638" data-name="Trazado 817638" d="M315.791,166.335V49.765c0-17.8,13.413-32.239,29.96-32.239H356.5c16.547,0,29.961,14.435,29.961,32.239v116.57Z" transform="translate(-197.356 6.627)" fill="none" stroke="#263238" stroke-miterlimit="10" stroke-width="1"/>
              <path id="Trazado_817639" data-name="Trazado 817639" d="M329,125.5l1.881,20.625a.377.377,0,0,1-.666.3l-15.9-20.926Z" transform="translate(-139.889 47.459)" fill="#dedede"/>
              <path id="Trazado_817640" data-name="Trazado 817640" d="M329,125.5l1.881,20.625a.377.377,0,0,1-.666.3l-15.9-20.926Z" transform="translate(-139.889 47.459)" fill="none" stroke="#263238" stroke-miterlimit="10" stroke-width="1"/>
              <path id="Trazado_817641" data-name="Trazado 817641" d="M361.6,125.5l-1.88,20.625a.377.377,0,0,0,.666.3l15.9-20.926Z" transform="translate(-242.954 47.459)" fill="#dedede"/>
              <path id="Trazado_817642" data-name="Trazado 817642" d="M361.6,125.5l-1.88,20.625a.377.377,0,0,0,.666.3l15.9-20.926Z" transform="translate(-242.954 47.459)" fill="none" stroke="#263238" stroke-miterlimit="10" stroke-width="1"/>
              <path id="Trazado_817643" data-name="Trazado 817643" d="M226.579,1.5h88.908a2.527,2.527,0,0,1,.534-.063h58.525a2.907,2.907,0,0,1,2.78,3.02V195.324h-5.562V7.476H327.206V7.407H226.579Z" transform="translate(-74.966 0.544)" fill="#fff"/>
              <path id="Trazado_817644" data-name="Trazado 817644" d="M226.579,1.5h88.908a2.527,2.527,0,0,1,.534-.063h58.525a2.907,2.907,0,0,1,2.78,3.02V195.324h-5.562V7.476H327.206V7.407H226.579Z" transform="translate(-74.966 0.544)" fill="none" stroke="#263238" stroke-miterlimit="10" stroke-width="1"/>
              <rect id="Rectángulo_376800" data-name="Rectángulo 376800" width="4.775" height="18.452" transform="translate(152.7 1.991)" fill="#fff"/>
              <rect id="Rectángulo_376801" data-name="Rectángulo 376801" width="4.775" height="18.452" transform="translate(152.7 1.991)" fill="none" stroke="#263238" stroke-miterlimit="10" stroke-width="1"/>
              <rect id="Rectángulo_376802" data-name="Rectángulo 376802" width="10.297" height="11.178" transform="translate(149.939 0.689)" fill="#263238"/>
              <rect id="Rectángulo_376803" data-name="Rectángulo 376803" width="10.297" height="11.178" transform="translate(149.939 0.689)" fill="none" stroke="#263238" stroke-miterlimit="10" stroke-width="1"/>
              <rect id="Rectángulo_376804" data-name="Rectángulo 376804" width="12.591" height="6.498" transform="translate(148.791 17.655)" fill="#fff"/>
              <rect id="Rectángulo_376805" data-name="Rectángulo 376805" width="12.591" height="6.498" transform="translate(148.791 17.655)" fill="none" stroke="#263238" stroke-miterlimit="10" stroke-width="1"/>
              <rect id="Rectángulo_376806" data-name="Rectángulo 376806" width="10.297" height="11.178" transform="translate(236.26 0.689)" fill="#263238"/>
              <rect id="Rectángulo_376807" data-name="Rectángulo 376807" width="10.297" height="11.178" transform="translate(236.26 0.689)" fill="none" stroke="#263238" stroke-miterlimit="10" stroke-width="1"/>
              <rect id="Rectángulo_376808" data-name="Rectángulo 376808" width="10.297" height="11.178" transform="translate(294.118 0.689)" fill="#263238"/>
              <rect id="Rectángulo_376809" data-name="Rectángulo 376809" width="10.297" height="11.178" transform="translate(294.118 0.689)" fill="none" stroke="#263238" stroke-miterlimit="10" stroke-width="1"/>
              <path id="Trazado_817645" data-name="Trazado 817645" d="M384.776,82.356H436.9a4.135,4.135,0,0,1,3.954,4.293v72.16A4.135,4.135,0,0,1,436.9,163.1H384.776a4.135,4.135,0,0,1-3.954-4.293V86.649a4.135,4.135,0,0,1,3.954-4.293" transform="translate(-334.302 31.143)" fill="#632059"/>
              <rect id="Rectángulo_376810" data-name="Rectángulo 376810" width="60.031" height="80.746" rx="3.115" transform="translate(46.521 113.498)" fill="none" stroke="#263238" stroke-miterlimit="10" stroke-width="1"/>
              <path id="Trazado_817646" data-name="Trazado 817646" d="M388.607,128.919c.663-10.889,8.987-19.5,19.184-19.5s18.522,8.615,19.184,19.5Z" transform="translate(-330.307 41.375)" fill="#fff"/>
              <path id="Trazado_817647" data-name="Trazado 817647" d="M388.607,128.919c.663-10.889,8.987-19.5,19.184-19.5s18.522,8.615,19.184,19.5Z" transform="translate(-330.307 41.375)" fill="none" stroke="#263238" stroke-miterlimit="10" stroke-width="1"/>
              <line id="Línea_974" data-name="Línea 974" x1="7.391" y1="13.296" transform="translate(70.941 156.623)" fill="none" stroke="#263238" stroke-miterlimit="10" stroke-width="1"/>
              <path id="Trazado_817648" data-name="Trazado 817648" d="M385.431,96.349a6.061,6.061,0,1,0,6.041-6.557,6.316,6.316,0,0,0-6.041,6.557" transform="translate(-296.812 33.954)" fill="#fff"/>
              <path id="Trazado_817649" data-name="Trazado 817649" d="M385.431,96.349a6.061,6.061,0,1,0,6.041-6.557A6.316,6.316,0,0,0,385.431,96.349Z" transform="translate(-296.812 33.954)" fill="none" stroke="#263238" stroke-linecap="round" stroke-linejoin="round" stroke-width="1"/>
              <path id="Trazado_817650" data-name="Trazado 817650" d="M399.707,96.349a6.061,6.061,0,1,0,6.041-6.557,6.316,6.316,0,0,0-6.041,6.557" transform="translate(-329.211 33.954)" fill="#fff"/>
              <path id="Trazado_817651" data-name="Trazado 817651" d="M399.707,96.349a6.061,6.061,0,1,0,6.041-6.557A6.316,6.316,0,0,0,399.707,96.349Z" transform="translate(-329.211 33.954)" fill="none" stroke="#263238" stroke-linecap="round" stroke-linejoin="round" stroke-width="1"/>
              <path id="Trazado_817652" data-name="Trazado 817652" d="M413.983,96.349a6.061,6.061,0,1,0,6.04-6.557,6.315,6.315,0,0,0-6.04,6.557" transform="translate(-361.61 33.954)" fill="#fff"/>
              <path id="Trazado_817653" data-name="Trazado 817653" d="M413.983,96.349a6.061,6.061,0,1,0,6.04-6.557A6.315,6.315,0,0,0,413.983,96.349Z" transform="translate(-361.61 33.954)" fill="none" stroke="#263238" stroke-linecap="round" stroke-linejoin="round" stroke-width="1"/>
              <line id="Línea_975" data-name="Línea 975" y1="4.599" transform="translate(94.66 130.304)" fill="#fff"/>
              <line id="Línea_976" data-name="Línea 976" y1="4.599" transform="translate(94.66 130.304)" fill="none" stroke="#263238" stroke-linecap="round" stroke-linejoin="round" stroke-width="1"/>
              <line id="Línea_977" data-name="Línea 977" x2="4.291" transform="translate(76.537 130.303)" fill="#fff"/>
              <line id="Línea_978" data-name="Línea 978" x2="4.291" transform="translate(76.537 130.303)" fill="none" stroke="#263238" stroke-linecap="round" stroke-linejoin="round" stroke-width="1"/>
              <line id="Línea_979" data-name="Línea 979" x1="3.744" y2="2.504" transform="translate(54.67 130.303)" fill="#fff"/>
              <line id="Línea_980" data-name="Línea 980" x1="3.744" y2="2.504" transform="translate(54.67 130.303)" fill="none" stroke="#263238" stroke-linecap="round" stroke-linejoin="round" stroke-width="1"/>
              <rect id="Rectángulo_376811" data-name="Rectángulo 376811" width="13.587" height="5.838" transform="translate(56.603 107.712)" fill="#fff"/>
              <rect id="Rectángulo_376812" data-name="Rectángulo 376812" width="13.587" height="5.838" transform="translate(56.603 107.712)" fill="none" stroke="#263238" stroke-miterlimit="10" stroke-width="1"/>
              <path id="Trazado_817654" data-name="Trazado 817654" d="M189.226,106.305h1.767c7.831,0,14.179-6.892,14.179-15.394V72.462c0-8.5-6.347-15.394-14.179-15.394h-1.767c-7.831,0-14.18,6.892-14.18,15.394V90.911c0,8.5,6.349,15.394,14.18,15.394" transform="translate(162.609 21.58)" fill="#fff"/>
              <path id="Rectángulo_376813" data-name="Rectángulo 376813" d="M11.169,0h7.787a11.17,11.17,0,0,1,11.17,11.17v26.9a11.17,11.17,0,0,1-11.17,11.17H11.17A11.17,11.17,0,0,1,0,38.067v-26.9A11.169,11.169,0,0,1,11.169,0Z" transform="translate(337.656 78.648)" fill="none" stroke="#263238" stroke-miterlimit="10" stroke-width="1"/>
              <rect id="Rectángulo_376814" data-name="Rectángulo 376814" width="8.763" height="4.312" transform="translate(348.338 74.334)" fill="#263238"/>
              <rect id="Rectángulo_376815" data-name="Rectángulo 376815" width="8.763" height="4.312" transform="translate(348.338 74.334)" fill="none" stroke="#263238" stroke-miterlimit="10" stroke-width="1"/>
              <path id="Trazado_817655" data-name="Trazado 817655" d="M192.747,102.622h-5.277c-6.862,0-12.424-6.039-12.424-13.488V67.881c4.183,1.457,11.288,3.287,16.579,1.306,7.975-2.985,13.547-2.315,13.547-2.315V89.134c0,7.449-5.563,13.488-12.424,13.488" transform="translate(162.612 25.263)" fill="#fff"/>
              <path id="Trazado_817656" data-name="Trazado 817656" d="M192.747,102.622h-5.277c-6.862,0-12.424-6.039-12.424-13.488V67.881c4.183,1.457,11.288,3.287,16.579,1.306,7.975-2.985,13.547-2.315,13.547-2.315V89.134C205.171,96.583,199.608,102.622,192.747,102.622Z" transform="translate(162.612 25.263)" fill="none" stroke="#263238" stroke-miterlimit="10" stroke-width="1"/>
            </g>
          </g>
          <path id="Trazado_817658" data-name="Trazado 817658" d="M0,0H578.668V8.677H0Z" transform="translate(0.656 194.955)" fill="#fffad0"/>
          <g id="Grupo_1072473" data-name="Grupo 1072473" transform="translate(0)">
            <g id="Grupo_1072472" data-name="Grupo 1072472" clip-path="url(#clip-path)">
              <rect id="Rectángulo_376818" data-name="Rectángulo 376818" width="579.039" height="9.111" transform="translate(0.635 194.488)" fill="none" stroke="#263238" stroke-miterlimit="10" stroke-width="1"/>
            </g>
          </g>
        </g>
        <path id="Trazado_819112" data-name="Trazado 819112" d="M14,0H355a14,14,0,0,1,0,28H14A14,14,0,0,1,14,0Z" transform="translate(790 3267)" fill="url(#linear-gradient-2)"/>
        <path id="Trazado_819113" data-name="Trazado 819113" d="M14,0H355a14,14,0,0,1,0,28H14A14,14,0,0,1,14,0Z" transform="translate(790 3310)" fill="url(#linear-gradient-2)"/>
        <path id="Trazado_819114" data-name="Trazado 819114" d="M14,0H355a14,14,0,0,1,0,28H14A14,14,0,0,1,14,0Z" transform="translate(790 3346)" fill="url(#linear-gradient-2)"/>
        <path id="Trazado_819115" data-name="Trazado 819115" d="M14,0H355a14,14,0,0,1,0,28H14A14,14,0,0,1,14,0Z" transform="translate(790 3382)" fill="url(#linear-gradient-2)"/>
        <path id="Trazado_819116" data-name="Trazado 819116" d="M14,0H355a14,14,0,0,1,0,28H14A14,14,0,0,1,14,0Z" transform="translate(790 3425)" fill="url(#linear-gradient-2)"/>
        <path id="Trazado_819117" data-name="Trazado 819117" d="M3.508,0H1.164V-11.375H3.508Zm4.1-8.453.07.977a2.951,2.951,0,0,1,2.43-1.133,2.453,2.453,0,0,1,2,.789,3.682,3.682,0,0,1,.672,2.359V0H10.523V-5.406a1.465,1.465,0,0,0-.312-1.043,1.4,1.4,0,0,0-1.039-.324,1.553,1.553,0,0,0-1.43.813V0H5.484V-8.453Zm10.047,5.7,1.57-5.7h2.359L18.734,0H16.578L13.727-8.453h2.359ZM26.367.156A4.15,4.15,0,0,1,23.34-.984a4.054,4.054,0,0,1-1.168-3.039v-.219a5.106,5.106,0,0,1,.492-2.277,3.612,3.612,0,0,1,1.395-1.547,3.914,3.914,0,0,1,2.059-.543,3.508,3.508,0,0,1,2.73,1.094,4.444,4.444,0,0,1,1,3.1v.922H24.461a2.1,2.1,0,0,0,.66,1.328,2,2,0,0,0,1.395.5,2.437,2.437,0,0,0,2.039-.945l1.109,1.242A3.389,3.389,0,0,1,28.289-.246,4.511,4.511,0,0,1,26.367.156Zm-.258-6.945a1.411,1.411,0,0,0-1.09.455,2.357,2.357,0,0,0-.535,1.3h3.141v-.181a1.681,1.681,0,0,0-.406-1.165A1.456,1.456,0,0,0,26.109-6.789ZM33.2-8.453l.07.977A2.951,2.951,0,0,1,35.7-8.609a2.453,2.453,0,0,1,2,.789,3.682,3.682,0,0,1,.672,2.359V0H36.117V-5.406A1.465,1.465,0,0,0,35.8-6.449a1.4,1.4,0,0,0-1.039-.324,1.553,1.553,0,0,0-1.43.813V0H31.078V-8.453Zm9.586-2.078v2.078h1.445V-6.8H42.789v4.219a1.007,1.007,0,0,0,.18.672.9.9,0,0,0,.688.2,3.6,3.6,0,0,0,.664-.055V-.047a4.648,4.648,0,0,1-1.367.2,2.156,2.156,0,0,1-2.422-2.4V-6.8H39.3V-8.453h1.234v-2.078ZM50.391,0a2.507,2.507,0,0,1-.227-.758,2.732,2.732,0,0,1-2.133.914,3,3,0,0,1-2.059-.719,2.312,2.312,0,0,1-.816-1.812,2.389,2.389,0,0,1,1-2.062,4.915,4.915,0,0,1,2.879-.727H50.07v-.484a1.393,1.393,0,0,0-.3-.937,1.183,1.183,0,0,0-.949-.352,1.345,1.345,0,0,0-.895.273.929.929,0,0,0-.324.75H45.344A2.268,2.268,0,0,1,45.8-7.273a3,3,0,0,1,1.281-.98,4.669,4.669,0,0,1,1.859-.355,3.689,3.689,0,0,1,2.48.785,2.747,2.747,0,0,1,.918,2.207v3.664a4.041,4.041,0,0,0,.336,1.82V0ZM48.523-1.57a1.945,1.945,0,0,0,.922-.223,1.462,1.462,0,0,0,.625-.6V-3.844h-.844q-1.7,0-1.8,1.172l-.008.133a.9.9,0,0,0,.3.7A1.153,1.153,0,0,0,48.523-1.57Zm10.3-4.766a6.134,6.134,0,0,0-.812-.062,1.654,1.654,0,0,0-1.68.867V0H54.07V-8.453H56.2l.063,1.008a2.092,2.092,0,0,1,1.883-1.164,2.366,2.366,0,0,1,.7.1ZM62.289,0H60.023V-8.453h2.266Zm-2.4-10.641a1.112,1.112,0,0,1,.34-.836,1.277,1.277,0,0,1,.926-.328,1.28,1.28,0,0,1,.922.328,1.105,1.105,0,0,1,.344.836,1.108,1.108,0,0,1-.348.844,1.283,1.283,0,0,1-.918.328,1.283,1.283,0,0,1-.918-.328A1.108,1.108,0,0,1,59.891-10.641ZM63.8-4.3a5.013,5.013,0,0,1,.484-2.242A3.546,3.546,0,0,1,65.676-8.07a4.069,4.069,0,0,1,2.113-.539,3.849,3.849,0,0,1,2.793,1.047,4.2,4.2,0,0,1,1.207,2.844l.016.578A4.418,4.418,0,0,1,70.719-1.02,3.775,3.775,0,0,1,67.8.156a3.793,3.793,0,0,1-2.918-1.172A4.5,4.5,0,0,1,63.8-4.2Zm2.258.16A3.16,3.16,0,0,0,66.508-2.3a1.5,1.5,0,0,0,1.3.638,1.5,1.5,0,0,0,1.281-.63,3.457,3.457,0,0,0,.461-2.015,3.128,3.128,0,0,0-.461-1.831,1.5,1.5,0,0,0-1.3-.649,1.474,1.474,0,0,0-1.281.646A3.516,3.516,0,0,0,66.055-4.144Zm10.773-.145a5.094,5.094,0,0,1,.887-3.148,2.877,2.877,0,0,1,2.426-1.172,2.589,2.589,0,0,1,2.039.922V-12h2.266V0H82.406L82.3-.9A2.657,2.657,0,0,1,80.125.156,2.869,2.869,0,0,1,77.73-1.02,5.258,5.258,0,0,1,76.828-4.289Zm2.258.168A3.337,3.337,0,0,0,79.5-2.3a1.349,1.349,0,0,0,1.2.634,1.511,1.511,0,0,0,1.477-.884V-5.889a1.489,1.489,0,0,0-1.461-.884Q79.086-6.773,79.086-4.121Zm11,4.277A4.15,4.15,0,0,1,87.059-.984a4.054,4.054,0,0,1-1.168-3.039v-.219a5.106,5.106,0,0,1,.492-2.277,3.612,3.612,0,0,1,1.395-1.547,3.914,3.914,0,0,1,2.059-.543,3.508,3.508,0,0,1,2.73,1.094,4.444,4.444,0,0,1,1,3.1v.922H88.18a2.1,2.1,0,0,0,.66,1.328,2,2,0,0,0,1.395.5,2.437,2.437,0,0,0,2.039-.945l1.109,1.242A3.389,3.389,0,0,1,92.008-.246,4.511,4.511,0,0,1,90.086.156Zm-.258-6.945a1.411,1.411,0,0,0-1.09.455,2.357,2.357,0,0,0-.535,1.3h3.141v-.181a1.681,1.681,0,0,0-.406-1.165A1.456,1.456,0,0,0,89.828-6.789Zm11.117-1.664.07.945a2.971,2.971,0,0,1,2.43-1.1,2.255,2.255,0,0,1,2.242,1.289,2.9,2.9,0,0,1,2.539-1.289,2.521,2.521,0,0,1,2.047.8,3.681,3.681,0,0,1,.672,2.41V0H108.68V-5.391a1.61,1.61,0,0,0-.281-1.051,1.246,1.246,0,0,0-.992-.332A1.409,1.409,0,0,0,106-5.8l.008,5.8H103.75V-5.383a1.59,1.59,0,0,0-.289-1.062,1.259,1.259,0,0,0-.984-.328,1.463,1.463,0,0,0-1.391.8V0H98.828V-8.453ZM117.578,0a2.507,2.507,0,0,1-.227-.758,2.732,2.732,0,0,1-2.133.914,3,3,0,0,1-2.059-.719,2.312,2.312,0,0,1-.816-1.812,2.389,2.389,0,0,1,1-2.062,4.915,4.915,0,0,1,2.879-.727h1.039v-.484a1.393,1.393,0,0,0-.3-.937,1.183,1.183,0,0,0-.949-.352,1.345,1.345,0,0,0-.895.273.929.929,0,0,0-.324.75h-2.258a2.268,2.268,0,0,1,.453-1.359,3,3,0,0,1,1.281-.98,4.669,4.669,0,0,1,1.859-.355,3.689,3.689,0,0,1,2.48.785,2.747,2.747,0,0,1,.918,2.207v3.664a4.041,4.041,0,0,0,.336,1.82V0Zm-1.867-1.57a1.945,1.945,0,0,0,.922-.223,1.462,1.462,0,0,0,.625-.6V-3.844h-.844q-1.7,0-1.8,1.172l-.008.133a.9.9,0,0,0,.3.7A1.153,1.153,0,0,0,115.711-1.57Zm8.25-8.961v2.078h1.445V-6.8h-1.445v4.219a1.007,1.007,0,0,0,.18.672.9.9,0,0,0,.688.2,3.6,3.6,0,0,0,.664-.055V-.047a4.648,4.648,0,0,1-1.367.2,2.156,2.156,0,0,1-2.422-2.4V-6.8h-1.234V-8.453H121.7v-2.078ZM130.555.156a4.15,4.15,0,0,1-3.027-1.141,4.054,4.054,0,0,1-1.168-3.039v-.219a5.106,5.106,0,0,1,.492-2.277,3.612,3.612,0,0,1,1.395-1.547,3.914,3.914,0,0,1,2.059-.543,3.508,3.508,0,0,1,2.73,1.094,4.444,4.444,0,0,1,1,3.1v.922h-5.383a2.1,2.1,0,0,0,.66,1.328,2,2,0,0,0,1.395.5,2.437,2.437,0,0,0,2.039-.945l1.109,1.242a3.389,3.389,0,0,1-1.375,1.121A4.511,4.511,0,0,1,130.555.156ZM130.3-6.789a1.411,1.411,0,0,0-1.09.455,2.357,2.357,0,0,0-.535,1.3h3.141v-.181a1.681,1.681,0,0,0-.406-1.165A1.456,1.456,0,0,0,130.3-6.789Zm9.766.453a6.134,6.134,0,0,0-.812-.062,1.654,1.654,0,0,0-1.68.867V0h-2.258V-8.453h2.133l.063,1.008a2.092,2.092,0,0,1,1.883-1.164,2.366,2.366,0,0,1,.7.1ZM143.531,0h-2.266V-8.453h2.266Zm-2.4-10.641a1.112,1.112,0,0,1,.34-.836,1.277,1.277,0,0,1,.926-.328,1.28,1.28,0,0,1,.922.328,1.105,1.105,0,0,1,.344.836,1.109,1.109,0,0,1-.348.844,1.283,1.283,0,0,1-.918.328,1.283,1.283,0,0,1-.918-.328A1.109,1.109,0,0,1,141.133-10.641ZM150.289,0a2.507,2.507,0,0,1-.227-.758,2.732,2.732,0,0,1-2.133.914,3,3,0,0,1-2.059-.719,2.312,2.312,0,0,1-.816-1.812,2.389,2.389,0,0,1,1-2.062,4.915,4.915,0,0,1,2.879-.727h1.039v-.484a1.393,1.393,0,0,0-.3-.937,1.183,1.183,0,0,0-.949-.352,1.345,1.345,0,0,0-.895.273.929.929,0,0,0-.324.75h-2.258a2.268,2.268,0,0,1,.453-1.359,3,3,0,0,1,1.281-.98,4.669,4.669,0,0,1,1.859-.355,3.689,3.689,0,0,1,2.48.785,2.747,2.747,0,0,1,.918,2.207v3.664a4.041,4.041,0,0,0,.336,1.82V0Zm-1.867-1.57a1.945,1.945,0,0,0,.922-.223,1.462,1.462,0,0,0,.625-.6V-3.844h-.844q-1.7,0-1.8,1.172l-.008.133a.9.9,0,0,0,.3.7A1.153,1.153,0,0,0,148.422-1.57Zm10.125-.766a.727.727,0,0,0-.41-.652,4.659,4.659,0,0,0-1.316-.426Q153.8-4.047,153.8-5.977a2.323,2.323,0,0,1,.934-1.879,3.766,3.766,0,0,1,2.441-.754,4.053,4.053,0,0,1,2.574.758,2.388,2.388,0,0,1,.965,1.969h-2.258a1.092,1.092,0,0,0-.312-.8A1.322,1.322,0,0,0,157.172-7a1.351,1.351,0,0,0-.883.258.814.814,0,0,0-.312.656.7.7,0,0,0,.355.605,3.657,3.657,0,0,0,1.2.4,9.8,9.8,0,0,1,1.422.379,2.336,2.336,0,0,1,1.789,2.273,2.205,2.205,0,0,1-.992,1.871,4.28,4.28,0,0,1-2.562.715A4.47,4.47,0,0,1,155.3-.223a3.166,3.166,0,0,1-1.293-1.039,2.414,2.414,0,0,1-.469-1.426h2.141a1.179,1.179,0,0,0,.445.922,1.766,1.766,0,0,0,1.109.32,1.635,1.635,0,0,0,.98-.246A.766.766,0,0,0,158.547-2.336Zm15.242-1.812A5.07,5.07,0,0,1,172.9-1.02,2.843,2.843,0,0,1,170.508.156a2.633,2.633,0,0,1-2.07-.891V3.25H166.18v-11.7h2.094l.078.828a2.654,2.654,0,0,1,2.141-.984,2.862,2.862,0,0,1,2.43,1.156,5.207,5.207,0,0,1,.867,3.188Zm-2.258-.164a3.327,3.327,0,0,0-.418-1.82,1.361,1.361,0,0,0-1.215-.641,1.479,1.479,0,0,0-1.461.813V-2.5a1.5,1.5,0,0,0,1.477.836Q171.531-1.664,171.531-4.312Zm8.406-2.023a6.134,6.134,0,0,0-.812-.062,1.654,1.654,0,0,0-1.68.867V0h-2.258V-8.453h2.133l.063,1.008a2.092,2.092,0,0,1,1.883-1.164,2.366,2.366,0,0,1,.7.1ZM183.406,0h-2.266V-8.453h2.266Zm-2.4-10.641a1.112,1.112,0,0,1,.34-.836,1.277,1.277,0,0,1,.926-.328,1.28,1.28,0,0,1,.922.328,1.105,1.105,0,0,1,.344.836,1.109,1.109,0,0,1-.348.844,1.283,1.283,0,0,1-.918.328,1.283,1.283,0,0,1-.918-.328A1.109,1.109,0,0,1,181.008-10.641Zm6.375,2.188.07.945a2.971,2.971,0,0,1,2.43-1.1,2.255,2.255,0,0,1,2.242,1.289,2.9,2.9,0,0,1,2.539-1.289,2.521,2.521,0,0,1,2.047.8,3.681,3.681,0,0,1,.672,2.41V0h-2.266V-5.391a1.61,1.61,0,0,0-.281-1.051,1.246,1.246,0,0,0-.992-.332,1.409,1.409,0,0,0-1.406.969l.008,5.8h-2.258V-5.383a1.59,1.59,0,0,0-.289-1.062,1.259,1.259,0,0,0-.984-.328,1.463,1.463,0,0,0-1.391.8V0h-2.258V-8.453ZM204.016,0a2.507,2.507,0,0,1-.227-.758,2.732,2.732,0,0,1-2.133.914A3,3,0,0,1,199.6-.562a2.312,2.312,0,0,1-.816-1.812,2.389,2.389,0,0,1,1-2.062,4.915,4.915,0,0,1,2.879-.727H203.7v-.484a1.393,1.393,0,0,0-.3-.937,1.183,1.183,0,0,0-.949-.352,1.345,1.345,0,0,0-.895.273.929.929,0,0,0-.324.75h-2.258a2.268,2.268,0,0,1,.453-1.359,3,3,0,0,1,1.281-.98,4.669,4.669,0,0,1,1.859-.355,3.689,3.689,0,0,1,2.48.785,2.747,2.747,0,0,1,.918,2.207v3.664a4.041,4.041,0,0,0,.336,1.82V0Zm-1.867-1.57a1.945,1.945,0,0,0,.922-.223,1.462,1.462,0,0,0,.625-.6V-3.844h-.844q-1.7,0-1.8,1.172l-.008.133a.9.9,0,0,0,.3.7A1.153,1.153,0,0,0,202.148-1.57Zm10.125-.766a.727.727,0,0,0-.41-.652,4.659,4.659,0,0,0-1.316-.426q-3.016-.633-3.016-2.562a2.323,2.323,0,0,1,.934-1.879,3.766,3.766,0,0,1,2.441-.754,4.053,4.053,0,0,1,2.574.758,2.388,2.388,0,0,1,.965,1.969h-2.258a1.092,1.092,0,0,0-.312-.8A1.322,1.322,0,0,0,210.9-7a1.351,1.351,0,0,0-.883.258.814.814,0,0,0-.312.656.7.7,0,0,0,.355.605,3.657,3.657,0,0,0,1.2.4,9.8,9.8,0,0,1,1.422.379,2.336,2.336,0,0,1,1.789,2.273,2.205,2.205,0,0,1-.992,1.871,4.28,4.28,0,0,1-2.562.715,4.47,4.47,0,0,1-1.887-.379,3.166,3.166,0,0,1-1.293-1.039,2.414,2.414,0,0,1-.469-1.426h2.141a1.179,1.179,0,0,0,.445.922,1.766,1.766,0,0,0,1.109.32,1.635,1.635,0,0,0,.98-.246A.766.766,0,0,0,212.273-2.336ZM223.8.156A4.15,4.15,0,0,1,220.77-.984,4.054,4.054,0,0,1,219.6-4.023v-.219a5.106,5.106,0,0,1,.492-2.277,3.612,3.612,0,0,1,1.395-1.547,3.914,3.914,0,0,1,2.059-.543,3.508,3.508,0,0,1,2.73,1.094,4.444,4.444,0,0,1,1,3.1v.922h-5.383a2.1,2.1,0,0,0,.66,1.328,2,2,0,0,0,1.395.5,2.437,2.437,0,0,0,2.039-.945l1.109,1.242a3.389,3.389,0,0,1-1.375,1.121A4.511,4.511,0,0,1,223.8.156Zm-.258-6.945a1.411,1.411,0,0,0-1.09.455,2.357,2.357,0,0,0-.535,1.3h3.141v-.181a1.681,1.681,0,0,0-.406-1.165A1.456,1.456,0,0,0,223.539-6.789ZM234.922,0h-2.266V-8.453h2.266Zm-2.4-10.641a1.112,1.112,0,0,1,.34-.836,1.277,1.277,0,0,1,.926-.328,1.28,1.28,0,0,1,.922.328,1.105,1.105,0,0,1,.344.836,1.109,1.109,0,0,1-.348.844,1.283,1.283,0,0,1-.918.328,1.283,1.283,0,0,1-.918-.328A1.109,1.109,0,0,1,232.523-10.641Zm6.336,2.188.07.977a2.951,2.951,0,0,1,2.43-1.133,2.453,2.453,0,0,1,2,.789,3.682,3.682,0,0,1,.672,2.359V0h-2.258V-5.406a1.465,1.465,0,0,0-.312-1.043,1.4,1.4,0,0,0-1.039-.324,1.553,1.553,0,0,0-1.43.813V0h-2.258V-8.453ZM250.32-2.336a.727.727,0,0,0-.41-.652,4.659,4.659,0,0,0-1.316-.426q-3.016-.633-3.016-2.562a2.323,2.323,0,0,1,.934-1.879,3.766,3.766,0,0,1,2.441-.754,4.053,4.053,0,0,1,2.574.758,2.388,2.388,0,0,1,.965,1.969h-2.258a1.092,1.092,0,0,0-.312-.8A1.322,1.322,0,0,0,248.945-7a1.351,1.351,0,0,0-.883.258.814.814,0,0,0-.312.656.7.7,0,0,0,.355.605,3.657,3.657,0,0,0,1.2.4,9.8,9.8,0,0,1,1.422.379,2.336,2.336,0,0,1,1.789,2.273,2.205,2.205,0,0,1-.992,1.871,4.28,4.28,0,0,1-2.562.715,4.47,4.47,0,0,1-1.887-.379,3.166,3.166,0,0,1-1.293-1.039,2.414,2.414,0,0,1-.469-1.426h2.141a1.179,1.179,0,0,0,.445.922,1.766,1.766,0,0,0,1.109.32,1.635,1.635,0,0,0,.98-.246A.766.766,0,0,0,250.32-2.336Zm8.711,1.477A2.831,2.831,0,0,1,256.719.156a2.67,2.67,0,0,1-2.074-.781,3.335,3.335,0,0,1-.73-2.289V-8.453h2.258v5.467q0,1.322,1.2,1.322a1.63,1.63,0,0,0,1.578-.8V-8.453h2.266V0h-2.125Zm6.008-7.594.07.945a2.971,2.971,0,0,1,2.43-1.1,2.255,2.255,0,0,1,2.242,1.289,2.9,2.9,0,0,1,2.539-1.289,2.521,2.521,0,0,1,2.047.8,3.681,3.681,0,0,1,.672,2.41V0h-2.266V-5.391a1.61,1.61,0,0,0-.281-1.051,1.246,1.246,0,0,0-.992-.332,1.409,1.409,0,0,0-1.406.969L270.1,0h-2.258V-5.383a1.59,1.59,0,0,0-.289-1.062,1.259,1.259,0,0,0-.984-.328,1.463,1.463,0,0,0-1.391.8V0h-2.258V-8.453ZM276.422-4.3a5.013,5.013,0,0,1,.484-2.242A3.546,3.546,0,0,1,278.3-8.07a4.069,4.069,0,0,1,2.113-.539,3.849,3.849,0,0,1,2.793,1.047,4.2,4.2,0,0,1,1.207,2.844l.016.578a4.418,4.418,0,0,1-1.086,3.121A3.775,3.775,0,0,1,280.43.156a3.793,3.793,0,0,1-2.918-1.172,4.5,4.5,0,0,1-1.09-3.187Zm2.258.16a3.16,3.16,0,0,0,.453,1.843,1.5,1.5,0,0,0,1.3.638,1.5,1.5,0,0,0,1.281-.63,3.458,3.458,0,0,0,.461-2.015,3.128,3.128,0,0,0-.461-1.831,1.5,1.5,0,0,0-1.3-.649,1.474,1.474,0,0,0-1.281.646A3.516,3.516,0,0,0,278.68-4.144ZM290.4-2.336a.727.727,0,0,0-.41-.652,4.659,4.659,0,0,0-1.316-.426q-3.016-.633-3.016-2.562a2.323,2.323,0,0,1,.934-1.879,3.766,3.766,0,0,1,2.441-.754,4.053,4.053,0,0,1,2.574.758,2.388,2.388,0,0,1,.965,1.969h-2.258a1.092,1.092,0,0,0-.312-.8A1.322,1.322,0,0,0,289.023-7a1.351,1.351,0,0,0-.883.258.814.814,0,0,0-.312.656.7.7,0,0,0,.355.605,3.657,3.657,0,0,0,1.2.4A9.8,9.8,0,0,1,290.8-4.7a2.336,2.336,0,0,1,1.789,2.273A2.2,2.2,0,0,1,291.6-.559a4.28,4.28,0,0,1-2.562.715,4.47,4.47,0,0,1-1.887-.379,3.166,3.166,0,0,1-1.293-1.039,2.414,2.414,0,0,1-.469-1.426h2.141a1.179,1.179,0,0,0,.445.922,1.766,1.766,0,0,0,1.109.32,1.635,1.635,0,0,0,.98-.246A.766.766,0,0,0,290.4-2.336Zm3.766,1.227a1.137,1.137,0,0,1,.363-.875,1.289,1.289,0,0,1,.91-.336,1.3,1.3,0,0,1,.918.336,1.137,1.137,0,0,1,.363.875,1.121,1.121,0,0,1-.359.863,1.305,1.305,0,0,1-.922.332,1.294,1.294,0,0,1-.914-.332A1.121,1.121,0,0,1,294.164-1.109Z" transform="translate(824 3287)" fill="#12263f"/>
        <path id="Trazado_819118" data-name="Trazado 819118" d="M3.508,0H1.164V-11.375H3.508Zm4.1-8.453.07.977a2.951,2.951,0,0,1,2.43-1.133,2.453,2.453,0,0,1,2,.789,3.682,3.682,0,0,1,.672,2.359V0H10.523V-5.406a1.465,1.465,0,0,0-.312-1.043,1.4,1.4,0,0,0-1.039-.324,1.553,1.553,0,0,0-1.43.813V0H5.484V-8.453Zm10.047,5.7,1.57-5.7h2.359L18.734,0H16.578L13.727-8.453h2.359ZM26.367.156A4.15,4.15,0,0,1,23.34-.984a4.054,4.054,0,0,1-1.168-3.039v-.219a5.106,5.106,0,0,1,.492-2.277,3.612,3.612,0,0,1,1.395-1.547,3.914,3.914,0,0,1,2.059-.543,3.508,3.508,0,0,1,2.73,1.094,4.444,4.444,0,0,1,1,3.1v.922H24.461a2.1,2.1,0,0,0,.66,1.328,2,2,0,0,0,1.395.5,2.437,2.437,0,0,0,2.039-.945l1.109,1.242A3.389,3.389,0,0,1,28.289-.246,4.511,4.511,0,0,1,26.367.156Zm-.258-6.945a1.411,1.411,0,0,0-1.09.455,2.357,2.357,0,0,0-.535,1.3h3.141v-.181a1.681,1.681,0,0,0-.406-1.165A1.456,1.456,0,0,0,26.109-6.789ZM33.2-8.453l.07.977A2.951,2.951,0,0,1,35.7-8.609a2.453,2.453,0,0,1,2,.789,3.682,3.682,0,0,1,.672,2.359V0H36.117V-5.406A1.465,1.465,0,0,0,35.8-6.449a1.4,1.4,0,0,0-1.039-.324,1.553,1.553,0,0,0-1.43.813V0H31.078V-8.453Zm9.586-2.078v2.078h1.445V-6.8H42.789v4.219a1.007,1.007,0,0,0,.18.672.9.9,0,0,0,.688.2,3.6,3.6,0,0,0,.664-.055V-.047a4.648,4.648,0,0,1-1.367.2,2.156,2.156,0,0,1-2.422-2.4V-6.8H39.3V-8.453h1.234v-2.078ZM50.391,0a2.507,2.507,0,0,1-.227-.758,2.732,2.732,0,0,1-2.133.914,3,3,0,0,1-2.059-.719,2.312,2.312,0,0,1-.816-1.812,2.389,2.389,0,0,1,1-2.062,4.915,4.915,0,0,1,2.879-.727H50.07v-.484a1.393,1.393,0,0,0-.3-.937,1.183,1.183,0,0,0-.949-.352,1.345,1.345,0,0,0-.895.273.929.929,0,0,0-.324.75H45.344A2.268,2.268,0,0,1,45.8-7.273a3,3,0,0,1,1.281-.98,4.669,4.669,0,0,1,1.859-.355,3.689,3.689,0,0,1,2.48.785,2.747,2.747,0,0,1,.918,2.207v3.664a4.041,4.041,0,0,0,.336,1.82V0ZM48.523-1.57a1.945,1.945,0,0,0,.922-.223,1.462,1.462,0,0,0,.625-.6V-3.844h-.844q-1.7,0-1.8,1.172l-.008.133a.9.9,0,0,0,.3.7A1.153,1.153,0,0,0,48.523-1.57Zm10.3-4.766a6.134,6.134,0,0,0-.812-.062,1.654,1.654,0,0,0-1.68.867V0H54.07V-8.453H56.2l.063,1.008a2.092,2.092,0,0,1,1.883-1.164,2.366,2.366,0,0,1,.7.1ZM62.289,0H60.023V-8.453h2.266Zm-2.4-10.641a1.112,1.112,0,0,1,.34-.836,1.277,1.277,0,0,1,.926-.328,1.28,1.28,0,0,1,.922.328,1.105,1.105,0,0,1,.344.836,1.108,1.108,0,0,1-.348.844,1.283,1.283,0,0,1-.918.328,1.283,1.283,0,0,1-.918-.328A1.108,1.108,0,0,1,59.891-10.641ZM63.8-4.3a5.013,5.013,0,0,1,.484-2.242A3.546,3.546,0,0,1,65.676-8.07a4.069,4.069,0,0,1,2.113-.539,3.849,3.849,0,0,1,2.793,1.047,4.2,4.2,0,0,1,1.207,2.844l.016.578A4.418,4.418,0,0,1,70.719-1.02,3.775,3.775,0,0,1,67.8.156a3.793,3.793,0,0,1-2.918-1.172A4.5,4.5,0,0,1,63.8-4.2Zm2.258.16A3.16,3.16,0,0,0,66.508-2.3a1.5,1.5,0,0,0,1.3.638,1.5,1.5,0,0,0,1.281-.63,3.457,3.457,0,0,0,.461-2.015,3.128,3.128,0,0,0-.461-1.831,1.5,1.5,0,0,0-1.3-.649,1.474,1.474,0,0,0-1.281.646A3.516,3.516,0,0,0,66.055-4.144Zm10.773-.145a5.094,5.094,0,0,1,.887-3.148,2.877,2.877,0,0,1,2.426-1.172,2.589,2.589,0,0,1,2.039.922V-12h2.266V0H82.406L82.3-.9A2.657,2.657,0,0,1,80.125.156,2.869,2.869,0,0,1,77.73-1.02,5.258,5.258,0,0,1,76.828-4.289Zm2.258.168A3.337,3.337,0,0,0,79.5-2.3a1.349,1.349,0,0,0,1.2.634,1.511,1.511,0,0,0,1.477-.884V-5.889a1.489,1.489,0,0,0-1.461-.884Q79.086-6.773,79.086-4.121Zm11,4.277A4.15,4.15,0,0,1,87.059-.984a4.054,4.054,0,0,1-1.168-3.039v-.219a5.106,5.106,0,0,1,.492-2.277,3.612,3.612,0,0,1,1.395-1.547,3.914,3.914,0,0,1,2.059-.543,3.508,3.508,0,0,1,2.73,1.094,4.444,4.444,0,0,1,1,3.1v.922H88.18a2.1,2.1,0,0,0,.66,1.328,2,2,0,0,0,1.395.5,2.437,2.437,0,0,0,2.039-.945l1.109,1.242A3.389,3.389,0,0,1,92.008-.246,4.511,4.511,0,0,1,90.086.156Zm-.258-6.945a1.411,1.411,0,0,0-1.09.455,2.357,2.357,0,0,0-.535,1.3h3.141v-.181a1.681,1.681,0,0,0-.406-1.165A1.456,1.456,0,0,0,89.828-6.789ZM103.727,0a2.507,2.507,0,0,1-.227-.758,2.732,2.732,0,0,1-2.133.914,3,3,0,0,1-2.059-.719,2.312,2.312,0,0,1-.816-1.812,2.389,2.389,0,0,1,1-2.062,4.915,4.915,0,0,1,2.879-.727h1.039v-.484a1.393,1.393,0,0,0-.3-.937,1.183,1.183,0,0,0-.949-.352,1.345,1.345,0,0,0-.895.273.929.929,0,0,0-.324.75H98.68a2.268,2.268,0,0,1,.453-1.359,3,3,0,0,1,1.281-.98,4.669,4.669,0,0,1,1.859-.355,3.689,3.689,0,0,1,2.48.785,2.747,2.747,0,0,1,.918,2.207v3.664a4.041,4.041,0,0,0,.336,1.82V0Zm-1.867-1.57a1.945,1.945,0,0,0,.922-.223,1.462,1.462,0,0,0,.625-.6V-3.844h-.844q-1.7,0-1.8,1.172l-.008.133a.9.9,0,0,0,.3.7A1.153,1.153,0,0,0,101.859-1.57Zm7.625-6.883.07.977a2.951,2.951,0,0,1,2.43-1.133,2.453,2.453,0,0,1,2,.789,3.682,3.682,0,0,1,.672,2.359V0H112.4V-5.406a1.465,1.465,0,0,0-.312-1.043,1.4,1.4,0,0,0-1.039-.324,1.553,1.553,0,0,0-1.43.813V0h-2.258V-8.453ZM118.75,0h-2.266V-8.453h2.266Zm-2.4-10.641a1.112,1.112,0,0,1,.34-.836,1.277,1.277,0,0,1,.926-.328,1.28,1.28,0,0,1,.922.328,1.105,1.105,0,0,1,.344.836,1.108,1.108,0,0,1-.348.844,1.283,1.283,0,0,1-.918.328A1.283,1.283,0,0,1,116.7-9.8,1.108,1.108,0,0,1,116.352-10.641Zm6.375,2.188.07.945a2.971,2.971,0,0,1,2.43-1.1,2.255,2.255,0,0,1,2.242,1.289,2.9,2.9,0,0,1,2.539-1.289,2.521,2.521,0,0,1,2.047.8,3.681,3.681,0,0,1,.672,2.41V0h-2.266V-5.391a1.61,1.61,0,0,0-.281-1.051,1.246,1.246,0,0,0-.992-.332,1.409,1.409,0,0,0-1.406.969l.008,5.8h-2.258V-5.383a1.59,1.59,0,0,0-.289-1.062,1.259,1.259,0,0,0-.984-.328,1.463,1.463,0,0,0-1.391.8V0h-2.258V-8.453ZM139.359,0a2.507,2.507,0,0,1-.227-.758A2.732,2.732,0,0,1,137,.156a3,3,0,0,1-2.059-.719,2.312,2.312,0,0,1-.816-1.812,2.389,2.389,0,0,1,1-2.062A4.915,4.915,0,0,1,138-5.164h1.039v-.484a1.393,1.393,0,0,0-.3-.937,1.183,1.183,0,0,0-.949-.352,1.345,1.345,0,0,0-.895.273.929.929,0,0,0-.324.75h-2.258a2.268,2.268,0,0,1,.453-1.359,3,3,0,0,1,1.281-.98,4.669,4.669,0,0,1,1.859-.355,3.689,3.689,0,0,1,2.48.785,2.747,2.747,0,0,1,.918,2.207v3.664a4.041,4.041,0,0,0,.336,1.82V0Zm-1.867-1.57a1.945,1.945,0,0,0,.922-.223,1.462,1.462,0,0,0,.625-.6V-3.844H138.2q-1.7,0-1.8,1.172l-.008.133a.9.9,0,0,0,.3.7A1.153,1.153,0,0,0,137.492-1.57ZM145.422,0h-2.266V-12h2.266Zm5.75.156a4.15,4.15,0,0,1-3.027-1.141,4.054,4.054,0,0,1-1.168-3.039v-.219a5.106,5.106,0,0,1,.492-2.277,3.612,3.612,0,0,1,1.395-1.547,3.914,3.914,0,0,1,2.059-.543,3.508,3.508,0,0,1,2.73,1.094,4.444,4.444,0,0,1,1,3.1v.922h-5.383a2.1,2.1,0,0,0,.66,1.328,2,2,0,0,0,1.395.5,2.437,2.437,0,0,0,2.039-.945l1.109,1.242a3.389,3.389,0,0,1-1.375,1.121A4.511,4.511,0,0,1,151.172.156Zm-.258-6.945a1.411,1.411,0,0,0-1.09.455,2.357,2.357,0,0,0-.535,1.3h3.141v-.181a1.681,1.681,0,0,0-.406-1.165A1.456,1.456,0,0,0,150.914-6.789Zm9.594,4.453a.727.727,0,0,0-.41-.652,4.659,4.659,0,0,0-1.316-.426q-3.016-.633-3.016-2.562a2.323,2.323,0,0,1,.934-1.879,3.766,3.766,0,0,1,2.441-.754,4.053,4.053,0,0,1,2.574.758,2.388,2.388,0,0,1,.965,1.969h-2.258a1.092,1.092,0,0,0-.312-.8A1.322,1.322,0,0,0,159.133-7a1.351,1.351,0,0,0-.883.258.814.814,0,0,0-.312.656.7.7,0,0,0,.355.605,3.657,3.657,0,0,0,1.2.4,9.8,9.8,0,0,1,1.422.379A2.336,2.336,0,0,1,162.7-2.43a2.205,2.205,0,0,1-.992,1.871,4.28,4.28,0,0,1-2.562.715,4.47,4.47,0,0,1-1.887-.379,3.166,3.166,0,0,1-1.293-1.039,2.414,2.414,0,0,1-.469-1.426h2.141a1.179,1.179,0,0,0,.445.922,1.766,1.766,0,0,0,1.109.32,1.635,1.635,0,0,0,.98-.246A.766.766,0,0,0,160.508-2.336Zm3.766,1.227a1.137,1.137,0,0,1,.363-.875,1.289,1.289,0,0,1,.91-.336,1.3,1.3,0,0,1,.918.336,1.137,1.137,0,0,1,.363.875,1.121,1.121,0,0,1-.359.863,1.305,1.305,0,0,1-.922.332,1.294,1.294,0,0,1-.914-.332A1.121,1.121,0,0,1,164.273-1.109Z" transform="translate(824 3330)" fill="#12263f"/>
        <path id="Trazado_819119" data-name="Trazado 819119" d="M3.508,0H1.164V-11.375H3.508Zm4.1-8.453.07.977a2.951,2.951,0,0,1,2.43-1.133,2.453,2.453,0,0,1,2,.789,3.682,3.682,0,0,1,.672,2.359V0H10.523V-5.406a1.465,1.465,0,0,0-.312-1.043,1.4,1.4,0,0,0-1.039-.324,1.553,1.553,0,0,0-1.43.813V0H5.484V-8.453Zm10.047,5.7,1.57-5.7h2.359L18.734,0H16.578L13.727-8.453h2.359ZM26.367.156A4.15,4.15,0,0,1,23.34-.984a4.054,4.054,0,0,1-1.168-3.039v-.219a5.106,5.106,0,0,1,.492-2.277,3.612,3.612,0,0,1,1.395-1.547,3.914,3.914,0,0,1,2.059-.543,3.508,3.508,0,0,1,2.73,1.094,4.444,4.444,0,0,1,1,3.1v.922H24.461a2.1,2.1,0,0,0,.66,1.328,2,2,0,0,0,1.395.5,2.437,2.437,0,0,0,2.039-.945l1.109,1.242A3.389,3.389,0,0,1,28.289-.246,4.511,4.511,0,0,1,26.367.156Zm-.258-6.945a1.411,1.411,0,0,0-1.09.455,2.357,2.357,0,0,0-.535,1.3h3.141v-.181a1.681,1.681,0,0,0-.406-1.165A1.456,1.456,0,0,0,26.109-6.789ZM33.2-8.453l.07.977A2.951,2.951,0,0,1,35.7-8.609a2.453,2.453,0,0,1,2,.789,3.682,3.682,0,0,1,.672,2.359V0H36.117V-5.406A1.465,1.465,0,0,0,35.8-6.449a1.4,1.4,0,0,0-1.039-.324,1.553,1.553,0,0,0-1.43.813V0H31.078V-8.453Zm9.586-2.078v2.078h1.445V-6.8H42.789v4.219a1.007,1.007,0,0,0,.18.672.9.9,0,0,0,.688.2,3.6,3.6,0,0,0,.664-.055V-.047a4.648,4.648,0,0,1-1.367.2,2.156,2.156,0,0,1-2.422-2.4V-6.8H39.3V-8.453h1.234v-2.078ZM50.391,0a2.507,2.507,0,0,1-.227-.758,2.732,2.732,0,0,1-2.133.914,3,3,0,0,1-2.059-.719,2.312,2.312,0,0,1-.816-1.812,2.389,2.389,0,0,1,1-2.062,4.915,4.915,0,0,1,2.879-.727H50.07v-.484a1.393,1.393,0,0,0-.3-.937,1.183,1.183,0,0,0-.949-.352,1.345,1.345,0,0,0-.895.273.929.929,0,0,0-.324.75H45.344A2.268,2.268,0,0,1,45.8-7.273a3,3,0,0,1,1.281-.98,4.669,4.669,0,0,1,1.859-.355,3.689,3.689,0,0,1,2.48.785,2.747,2.747,0,0,1,.918,2.207v3.664a4.041,4.041,0,0,0,.336,1.82V0ZM48.523-1.57a1.945,1.945,0,0,0,.922-.223,1.462,1.462,0,0,0,.625-.6V-3.844h-.844q-1.7,0-1.8,1.172l-.008.133a.9.9,0,0,0,.3.7A1.153,1.153,0,0,0,48.523-1.57Zm10.3-4.766a6.134,6.134,0,0,0-.812-.062,1.654,1.654,0,0,0-1.68.867V0H54.07V-8.453H56.2l.063,1.008a2.092,2.092,0,0,1,1.883-1.164,2.366,2.366,0,0,1,.7.1ZM62.289,0H60.023V-8.453h2.266Zm-2.4-10.641a1.112,1.112,0,0,1,.34-.836,1.277,1.277,0,0,1,.926-.328,1.28,1.28,0,0,1,.922.328,1.105,1.105,0,0,1,.344.836,1.108,1.108,0,0,1-.348.844,1.283,1.283,0,0,1-.918.328,1.283,1.283,0,0,1-.918-.328A1.108,1.108,0,0,1,59.891-10.641ZM63.8-4.3a5.013,5.013,0,0,1,.484-2.242A3.546,3.546,0,0,1,65.676-8.07a4.069,4.069,0,0,1,2.113-.539,3.849,3.849,0,0,1,2.793,1.047,4.2,4.2,0,0,1,1.207,2.844l.016.578A4.418,4.418,0,0,1,70.719-1.02,3.775,3.775,0,0,1,67.8.156a3.793,3.793,0,0,1-2.918-1.172A4.5,4.5,0,0,1,63.8-4.2Zm2.258.16A3.16,3.16,0,0,0,66.508-2.3a1.5,1.5,0,0,0,1.3.638,1.5,1.5,0,0,0,1.281-.63,3.457,3.457,0,0,0,.461-2.015,3.128,3.128,0,0,0-.461-1.831,1.5,1.5,0,0,0-1.3-.649,1.474,1.474,0,0,0-1.281.646A3.516,3.516,0,0,0,66.055-4.144Zm10.773-.145a5.094,5.094,0,0,1,.887-3.148,2.877,2.877,0,0,1,2.426-1.172,2.589,2.589,0,0,1,2.039.922V-12h2.266V0H82.406L82.3-.9A2.657,2.657,0,0,1,80.125.156,2.869,2.869,0,0,1,77.73-1.02,5.258,5.258,0,0,1,76.828-4.289Zm2.258.168A3.337,3.337,0,0,0,79.5-2.3a1.349,1.349,0,0,0,1.2.634,1.511,1.511,0,0,0,1.477-.884V-5.889a1.489,1.489,0,0,0-1.461-.884Q79.086-6.773,79.086-4.121Zm11,4.277A4.15,4.15,0,0,1,87.059-.984a4.054,4.054,0,0,1-1.168-3.039v-.219a5.106,5.106,0,0,1,.492-2.277,3.612,3.612,0,0,1,1.395-1.547,3.914,3.914,0,0,1,2.059-.543,3.508,3.508,0,0,1,2.73,1.094,4.444,4.444,0,0,1,1,3.1v.922H88.18a2.1,2.1,0,0,0,.66,1.328,2,2,0,0,0,1.395.5,2.437,2.437,0,0,0,2.039-.945l1.109,1.242A3.389,3.389,0,0,1,92.008-.246,4.511,4.511,0,0,1,90.086.156Zm-.258-6.945a1.411,1.411,0,0,0-1.09.455,2.357,2.357,0,0,0-.535,1.3h3.141v-.181a1.681,1.681,0,0,0-.406-1.165A1.456,1.456,0,0,0,89.828-6.789Zm12.516,5.125a1.481,1.481,0,0,0,1.016-.344,1.2,1.2,0,0,0,.406-.914h2.117a2.9,2.9,0,0,1-.469,1.574,3.093,3.093,0,0,1-1.262,1.109,3.949,3.949,0,0,1-1.77.395A3.67,3.67,0,0,1,99.523-1,4.56,4.56,0,0,1,98.477-4.18v-.148a4.508,4.508,0,0,1,1.039-3.117,3.627,3.627,0,0,1,2.852-1.164,3.555,3.555,0,0,1,2.543.9,3.2,3.2,0,0,1,.973,2.4h-2.117a1.551,1.551,0,0,0-.406-1.072,1.354,1.354,0,0,0-1.031-.412,1.36,1.36,0,0,0-1.191.575,3.333,3.333,0,0,0-.4,1.866v.235a3.375,3.375,0,0,0,.4,1.878A1.377,1.377,0,0,0,102.344-1.664ZM106.82-4.3a5.013,5.013,0,0,1,.484-2.242A3.546,3.546,0,0,1,108.7-8.07a4.069,4.069,0,0,1,2.113-.539,3.849,3.849,0,0,1,2.793,1.047,4.2,4.2,0,0,1,1.207,2.844l.016.578a4.418,4.418,0,0,1-1.086,3.121A3.775,3.775,0,0,1,110.828.156a3.793,3.793,0,0,1-2.918-1.172A4.5,4.5,0,0,1,106.82-4.2Zm2.258.16a3.16,3.16,0,0,0,.453,1.843,1.5,1.5,0,0,0,1.3.638,1.5,1.5,0,0,0,1.281-.63,3.457,3.457,0,0,0,.461-2.015,3.128,3.128,0,0,0-.461-1.831,1.5,1.5,0,0,0-1.3-.649,1.474,1.474,0,0,0-1.281.646A3.516,3.516,0,0,0,109.078-4.144Zm14.758,0a5.119,5.119,0,0,1-.867,3.168A2.872,2.872,0,0,1,120.547.156a2.639,2.639,0,0,1-2.2-1.055l-.1.9h-2.031V-12h2.258v4.3a2.571,2.571,0,0,1,2.055-.914,2.9,2.9,0,0,1,2.426,1.137,5.126,5.126,0,0,1,.879,3.2Zm-2.258-.164a3.363,3.363,0,0,0-.406-1.871,1.374,1.374,0,0,0-1.211-.59,1.489,1.489,0,0,0-1.484.883v3.336a1.509,1.509,0,0,0,1.5.891,1.394,1.394,0,0,0,1.438-1.078A5.562,5.562,0,0,0,121.578-4.312ZM129.117.156A4.15,4.15,0,0,1,126.09-.984a4.054,4.054,0,0,1-1.168-3.039v-.219a5.106,5.106,0,0,1,.492-2.277,3.612,3.612,0,0,1,1.395-1.547,3.914,3.914,0,0,1,2.059-.543,3.508,3.508,0,0,1,2.73,1.094,4.444,4.444,0,0,1,1,3.1v.922h-5.383a2.1,2.1,0,0,0,.66,1.328,2,2,0,0,0,1.395.5,2.437,2.437,0,0,0,2.039-.945l1.109,1.242a3.389,3.389,0,0,1-1.375,1.121A4.511,4.511,0,0,1,129.117.156Zm-.258-6.945a1.411,1.411,0,0,0-1.09.455,2.357,2.357,0,0,0-.535,1.3h3.141v-.181a1.681,1.681,0,0,0-.406-1.165A1.456,1.456,0,0,0,128.859-6.789Zm9.766.453a6.134,6.134,0,0,0-.812-.062,1.654,1.654,0,0,0-1.68.867V0h-2.258V-8.453h2.133l.063,1.008a2.092,2.092,0,0,1,1.883-1.164,2.366,2.366,0,0,1,.7.1Zm4.18-4.2v2.078h1.445V-6.8H142.8v4.219a1.007,1.007,0,0,0,.18.672.9.9,0,0,0,.688.2,3.6,3.6,0,0,0,.664-.055V-.047a4.648,4.648,0,0,1-1.367.2,2.156,2.156,0,0,1-2.422-2.4V-6.8h-1.234V-8.453h1.234v-2.078ZM150.57-.859A2.831,2.831,0,0,1,148.258.156a2.67,2.67,0,0,1-2.074-.781,3.335,3.335,0,0,1-.73-2.289V-8.453h2.258v5.467q0,1.322,1.2,1.322a1.63,1.63,0,0,0,1.578-.8V-8.453h2.266V0h-2.125Zm8.641-5.477A6.134,6.134,0,0,0,158.4-6.4a1.654,1.654,0,0,0-1.68.867V0h-2.258V-8.453h2.133l.063,1.008a2.092,2.092,0,0,1,1.883-1.164,2.366,2.366,0,0,1,.7.1ZM164.961,0a2.507,2.507,0,0,1-.227-.758A2.732,2.732,0,0,1,162.6.156a3,3,0,0,1-2.059-.719,2.312,2.312,0,0,1-.816-1.812,2.389,2.389,0,0,1,1-2.062,4.915,4.915,0,0,1,2.879-.727h1.039v-.484a1.393,1.393,0,0,0-.3-.937,1.183,1.183,0,0,0-.949-.352,1.345,1.345,0,0,0-.895.273.929.929,0,0,0-.324.75h-2.258a2.268,2.268,0,0,1,.453-1.359,3,3,0,0,1,1.281-.98,4.669,4.669,0,0,1,1.859-.355,3.689,3.689,0,0,1,2.48.785,2.747,2.747,0,0,1,.918,2.207v3.664a4.041,4.041,0,0,0,.336,1.82V0Zm-1.867-1.57a1.945,1.945,0,0,0,.922-.223,1.462,1.462,0,0,0,.625-.6V-3.844H163.8q-1.7,0-1.8,1.172l-.008.133a.9.9,0,0,0,.3.7A1.153,1.153,0,0,0,163.094-1.57Zm9.18-2.719a5.094,5.094,0,0,1,.887-3.148,2.877,2.877,0,0,1,2.426-1.172,2.589,2.589,0,0,1,2.039.922V-12h2.266V0h-2.039l-.109-.9A2.657,2.657,0,0,1,175.57.156a2.869,2.869,0,0,1-2.395-1.176A5.258,5.258,0,0,1,172.273-4.289Zm2.258.168a3.337,3.337,0,0,0,.414,1.823,1.349,1.349,0,0,0,1.2.634,1.511,1.511,0,0,0,1.477-.884V-5.889a1.489,1.489,0,0,0-1.461-.884Q174.531-6.773,174.531-4.121Zm11,4.277A4.15,4.15,0,0,1,182.5-.984a4.054,4.054,0,0,1-1.168-3.039v-.219a5.106,5.106,0,0,1,.492-2.277,3.612,3.612,0,0,1,1.395-1.547,3.914,3.914,0,0,1,2.059-.543,3.508,3.508,0,0,1,2.73,1.094,4.444,4.444,0,0,1,1,3.1v.922h-5.383a2.1,2.1,0,0,0,.66,1.328,2,2,0,0,0,1.395.5,2.437,2.437,0,0,0,2.039-.945l1.109,1.242a3.389,3.389,0,0,1-1.375,1.121A4.511,4.511,0,0,1,185.531.156Zm-.258-6.945a1.411,1.411,0,0,0-1.09.455,2.357,2.357,0,0,0-.535,1.3h3.141v-.181a1.681,1.681,0,0,0-.406-1.165A1.456,1.456,0,0,0,185.273-6.789ZM192.672,0h-2.266V-12h2.266Zm10.422-2.336a.727.727,0,0,0-.41-.652,4.659,4.659,0,0,0-1.316-.426q-3.016-.633-3.016-2.562a2.323,2.323,0,0,1,.934-1.879,3.766,3.766,0,0,1,2.441-.754,4.053,4.053,0,0,1,2.574.758,2.388,2.388,0,0,1,.965,1.969h-2.258a1.092,1.092,0,0,0-.312-.8A1.322,1.322,0,0,0,201.719-7a1.351,1.351,0,0,0-.883.258.814.814,0,0,0-.312.656.7.7,0,0,0,.355.605,3.657,3.657,0,0,0,1.2.4A9.8,9.8,0,0,1,203.5-4.7a2.336,2.336,0,0,1,1.789,2.273A2.205,2.205,0,0,1,204.3-.559a4.28,4.28,0,0,1-2.562.715,4.47,4.47,0,0,1-1.887-.379,3.166,3.166,0,0,1-1.293-1.039,2.414,2.414,0,0,1-.469-1.426h2.141a1.179,1.179,0,0,0,.445.922,1.766,1.766,0,0,0,1.109.32,1.635,1.635,0,0,0,.98-.246A.766.766,0,0,0,203.094-2.336ZM211.8-.859A2.831,2.831,0,0,1,209.492.156a2.67,2.67,0,0,1-2.074-.781,3.335,3.335,0,0,1-.73-2.289V-8.453h2.258v5.467q0,1.322,1.2,1.322a1.63,1.63,0,0,0,1.578-.8V-8.453h2.266V0h-2.125ZM219.586.156a4.15,4.15,0,0,1-3.027-1.141,4.054,4.054,0,0,1-1.168-3.039v-.219a5.106,5.106,0,0,1,.492-2.277,3.612,3.612,0,0,1,1.395-1.547,3.914,3.914,0,0,1,2.059-.543,3.508,3.508,0,0,1,2.73,1.094,4.444,4.444,0,0,1,1,3.1v.922H217.68a2.1,2.1,0,0,0,.66,1.328,2,2,0,0,0,1.395.5,2.437,2.437,0,0,0,2.039-.945l1.109,1.242a3.389,3.389,0,0,1-1.375,1.121A4.511,4.511,0,0,1,219.586.156Zm-.258-6.945a1.411,1.411,0,0,0-1.09.455,2.357,2.357,0,0,0-.535,1.3h3.141v-.181a1.681,1.681,0,0,0-.406-1.165A1.456,1.456,0,0,0,219.328-6.789ZM226.727,0h-2.266V-12h2.266Zm1.508-4.3a5.013,5.013,0,0,1,.484-2.242,3.546,3.546,0,0,1,1.395-1.523,4.069,4.069,0,0,1,2.113-.539,3.849,3.849,0,0,1,2.793,1.047,4.2,4.2,0,0,1,1.207,2.844l.016.578a4.418,4.418,0,0,1-1.086,3.121A3.775,3.775,0,0,1,232.242.156a3.793,3.793,0,0,1-2.918-1.172,4.5,4.5,0,0,1-1.09-3.187Zm2.258.16a3.16,3.16,0,0,0,.453,1.843,1.5,1.5,0,0,0,1.3.638,1.5,1.5,0,0,0,1.281-.63,3.457,3.457,0,0,0,.461-2.015,3.128,3.128,0,0,0-.461-1.831,1.5,1.5,0,0,0-1.3-.649,1.474,1.474,0,0,0-1.281.646A3.516,3.516,0,0,0,230.492-4.144Zm7.258,3.035a1.137,1.137,0,0,1,.363-.875,1.289,1.289,0,0,1,.91-.336,1.3,1.3,0,0,1,.918.336,1.137,1.137,0,0,1,.363.875,1.121,1.121,0,0,1-.359.863,1.305,1.305,0,0,1-.922.332,1.294,1.294,0,0,1-.914-.332A1.121,1.121,0,0,1,237.75-1.109Z" transform="translate(824 3366)" fill="#12263f"/>
        <path id="Trazado_819120" data-name="Trazado 819120" d="M3.508,0H1.164V-11.375H3.508Zm4.1-8.453.07.977a2.951,2.951,0,0,1,2.43-1.133,2.453,2.453,0,0,1,2,.789,3.682,3.682,0,0,1,.672,2.359V0H10.523V-5.406a1.465,1.465,0,0,0-.312-1.043,1.4,1.4,0,0,0-1.039-.324,1.553,1.553,0,0,0-1.43.813V0H5.484V-8.453Zm10.047,5.7,1.57-5.7h2.359L18.734,0H16.578L13.727-8.453h2.359ZM26.367.156A4.15,4.15,0,0,1,23.34-.984a4.054,4.054,0,0,1-1.168-3.039v-.219a5.106,5.106,0,0,1,.492-2.277,3.612,3.612,0,0,1,1.395-1.547,3.914,3.914,0,0,1,2.059-.543,3.508,3.508,0,0,1,2.73,1.094,4.444,4.444,0,0,1,1,3.1v.922H24.461a2.1,2.1,0,0,0,.66,1.328,2,2,0,0,0,1.395.5,2.437,2.437,0,0,0,2.039-.945l1.109,1.242A3.389,3.389,0,0,1,28.289-.246,4.511,4.511,0,0,1,26.367.156Zm-.258-6.945a1.411,1.411,0,0,0-1.09.455,2.357,2.357,0,0,0-.535,1.3h3.141v-.181a1.681,1.681,0,0,0-.406-1.165A1.456,1.456,0,0,0,26.109-6.789ZM33.2-8.453l.07.977A2.951,2.951,0,0,1,35.7-8.609a2.453,2.453,0,0,1,2,.789,3.682,3.682,0,0,1,.672,2.359V0H36.117V-5.406A1.465,1.465,0,0,0,35.8-6.449a1.4,1.4,0,0,0-1.039-.324,1.553,1.553,0,0,0-1.43.813V0H31.078V-8.453Zm9.586-2.078v2.078h1.445V-6.8H42.789v4.219a1.007,1.007,0,0,0,.18.672.9.9,0,0,0,.688.2,3.6,3.6,0,0,0,.664-.055V-.047a4.648,4.648,0,0,1-1.367.2,2.156,2.156,0,0,1-2.422-2.4V-6.8H39.3V-8.453h1.234v-2.078ZM50.391,0a2.507,2.507,0,0,1-.227-.758,2.732,2.732,0,0,1-2.133.914,3,3,0,0,1-2.059-.719,2.312,2.312,0,0,1-.816-1.812,2.389,2.389,0,0,1,1-2.062,4.915,4.915,0,0,1,2.879-.727H50.07v-.484a1.393,1.393,0,0,0-.3-.937,1.183,1.183,0,0,0-.949-.352,1.345,1.345,0,0,0-.895.273.929.929,0,0,0-.324.75H45.344A2.268,2.268,0,0,1,45.8-7.273a3,3,0,0,1,1.281-.98,4.669,4.669,0,0,1,1.859-.355,3.689,3.689,0,0,1,2.48.785,2.747,2.747,0,0,1,.918,2.207v3.664a4.041,4.041,0,0,0,.336,1.82V0ZM48.523-1.57a1.945,1.945,0,0,0,.922-.223,1.462,1.462,0,0,0,.625-.6V-3.844h-.844q-1.7,0-1.8,1.172l-.008.133a.9.9,0,0,0,.3.7A1.153,1.153,0,0,0,48.523-1.57Zm10.3-4.766a6.134,6.134,0,0,0-.812-.062,1.654,1.654,0,0,0-1.68.867V0H54.07V-8.453H56.2l.063,1.008a2.092,2.092,0,0,1,1.883-1.164,2.366,2.366,0,0,1,.7.1ZM62.289,0H60.023V-8.453h2.266Zm-2.4-10.641a1.112,1.112,0,0,1,.34-.836,1.277,1.277,0,0,1,.926-.328,1.28,1.28,0,0,1,.922.328,1.105,1.105,0,0,1,.344.836,1.108,1.108,0,0,1-.348.844,1.283,1.283,0,0,1-.918.328,1.283,1.283,0,0,1-.918-.328A1.108,1.108,0,0,1,59.891-10.641ZM63.8-4.3a5.013,5.013,0,0,1,.484-2.242A3.546,3.546,0,0,1,65.676-8.07a4.069,4.069,0,0,1,2.113-.539,3.849,3.849,0,0,1,2.793,1.047,4.2,4.2,0,0,1,1.207,2.844l.016.578A4.418,4.418,0,0,1,70.719-1.02,3.775,3.775,0,0,1,67.8.156a3.793,3.793,0,0,1-2.918-1.172A4.5,4.5,0,0,1,63.8-4.2Zm2.258.16A3.16,3.16,0,0,0,66.508-2.3a1.5,1.5,0,0,0,1.3.638,1.5,1.5,0,0,0,1.281-.63,3.457,3.457,0,0,0,.461-2.015,3.128,3.128,0,0,0-.461-1.831,1.5,1.5,0,0,0-1.3-.649,1.474,1.474,0,0,0-1.281.646A3.516,3.516,0,0,0,66.055-4.144Zm10.773-.145a5.094,5.094,0,0,1,.887-3.148,2.877,2.877,0,0,1,2.426-1.172,2.589,2.589,0,0,1,2.039.922V-12h2.266V0H82.406L82.3-.9A2.657,2.657,0,0,1,80.125.156,2.869,2.869,0,0,1,77.73-1.02,5.258,5.258,0,0,1,76.828-4.289Zm2.258.168A3.337,3.337,0,0,0,79.5-2.3a1.349,1.349,0,0,0,1.2.634,1.511,1.511,0,0,0,1.477-.884V-5.889a1.489,1.489,0,0,0-1.461-.884Q79.086-6.773,79.086-4.121Zm11,4.277A4.15,4.15,0,0,1,87.059-.984a4.054,4.054,0,0,1-1.168-3.039v-.219a5.106,5.106,0,0,1,.492-2.277,3.612,3.612,0,0,1,1.395-1.547,3.914,3.914,0,0,1,2.059-.543,3.508,3.508,0,0,1,2.73,1.094,4.444,4.444,0,0,1,1,3.1v.922H88.18a2.1,2.1,0,0,0,.66,1.328,2,2,0,0,0,1.395.5,2.437,2.437,0,0,0,2.039-.945l1.109,1.242A3.389,3.389,0,0,1,92.008-.246,4.511,4.511,0,0,1,90.086.156Zm-.258-6.945a1.411,1.411,0,0,0-1.09.455,2.357,2.357,0,0,0-.535,1.3h3.141v-.181a1.681,1.681,0,0,0-.406-1.165A1.456,1.456,0,0,0,89.828-6.789ZM102.719.156A4.15,4.15,0,0,1,99.691-.984a4.054,4.054,0,0,1-1.168-3.039v-.219a5.106,5.106,0,0,1,.492-2.277,3.612,3.612,0,0,1,1.395-1.547,3.914,3.914,0,0,1,2.059-.543,3.508,3.508,0,0,1,2.73,1.094,4.444,4.444,0,0,1,1,3.1v.922h-5.383a2.1,2.1,0,0,0,.66,1.328,2,2,0,0,0,1.395.5,2.437,2.437,0,0,0,2.039-.945l1.109,1.242a3.389,3.389,0,0,1-1.375,1.121A4.511,4.511,0,0,1,102.719.156Zm-.258-6.945a1.411,1.411,0,0,0-1.09.455,2.357,2.357,0,0,0-.535,1.3h3.141v-.181a1.681,1.681,0,0,0-.406-1.165A1.456,1.456,0,0,0,102.461-6.789ZM107.125-4.3a5.053,5.053,0,0,1,.887-3.148,2.9,2.9,0,0,1,2.434-1.156,2.6,2.6,0,0,1,2.164,1.039l.148-.883h1.984V3.25h-2.266V-.727a2.6,2.6,0,0,1-2.047.883,2.878,2.878,0,0,1-2.406-1.172A5.3,5.3,0,0,1,107.125-4.3Zm2.258.16a3.315,3.315,0,0,0,.426,1.847,1.363,1.363,0,0,0,1.2.634,1.518,1.518,0,0,0,1.469-.829v-3.5a1.506,1.506,0,0,0-1.453-.8,1.38,1.38,0,0,0-1.211.634A3.661,3.661,0,0,0,109.383-4.144Zm12.2,3.285A2.831,2.831,0,0,1,119.266.156a2.67,2.67,0,0,1-2.074-.781,3.335,3.335,0,0,1-.73-2.289V-8.453h2.258v5.467q0,1.322,1.2,1.322a1.63,1.63,0,0,0,1.578-.8V-8.453h2.266V0h-2.125ZM127.852,0h-2.266V-8.453h2.266Zm-2.4-10.641a1.112,1.112,0,0,1,.34-.836,1.277,1.277,0,0,1,.926-.328,1.28,1.28,0,0,1,.922.328,1.105,1.105,0,0,1,.344.836,1.108,1.108,0,0,1-.348.844,1.283,1.283,0,0,1-.918.328A1.283,1.283,0,0,1,125.8-9.8,1.108,1.108,0,0,1,125.453-10.641ZM137.32-4.148a5.07,5.07,0,0,1-.887,3.129A2.843,2.843,0,0,1,134.039.156a2.633,2.633,0,0,1-2.07-.891V3.25h-2.258v-11.7H131.8l.078.828a2.654,2.654,0,0,1,2.141-.984,2.862,2.862,0,0,1,2.43,1.156,5.207,5.207,0,0,1,.867,3.188Zm-2.258-.164a3.327,3.327,0,0,0-.418-1.82,1.361,1.361,0,0,0-1.215-.641,1.479,1.479,0,0,0-1.461.813V-2.5a1.5,1.5,0,0,0,1.477.836Q135.063-1.664,135.063-4.312Zm3.3.008a5.013,5.013,0,0,1,.484-2.242,3.546,3.546,0,0,1,1.395-1.523,4.069,4.069,0,0,1,2.113-.539,3.849,3.849,0,0,1,2.793,1.047,4.2,4.2,0,0,1,1.207,2.844l.016.578a4.418,4.418,0,0,1-1.086,3.121A3.775,3.775,0,0,1,142.375.156a3.793,3.793,0,0,1-2.918-1.172,4.5,4.5,0,0,1-1.09-3.187Zm2.258.16a3.16,3.16,0,0,0,.453,1.843,1.5,1.5,0,0,0,1.3.638,1.5,1.5,0,0,0,1.281-.63,3.457,3.457,0,0,0,.461-2.015,3.128,3.128,0,0,0-.461-1.831,1.5,1.5,0,0,0-1.3-.649,1.474,1.474,0,0,0-1.281.646A3.516,3.516,0,0,0,140.625-4.144Zm11.719,1.808a.727.727,0,0,0-.41-.652,4.659,4.659,0,0,0-1.316-.426Q147.6-4.047,147.6-5.977a2.323,2.323,0,0,1,.934-1.879,3.766,3.766,0,0,1,2.441-.754,4.053,4.053,0,0,1,2.574.758,2.388,2.388,0,0,1,.965,1.969h-2.258a1.092,1.092,0,0,0-.312-.8A1.322,1.322,0,0,0,150.969-7a1.351,1.351,0,0,0-.883.258.814.814,0,0,0-.312.656.7.7,0,0,0,.355.605,3.657,3.657,0,0,0,1.2.4,9.8,9.8,0,0,1,1.422.379,2.336,2.336,0,0,1,1.789,2.273,2.205,2.205,0,0,1-.992,1.871,4.28,4.28,0,0,1-2.562.715A4.47,4.47,0,0,1,149.1-.223,3.166,3.166,0,0,1,147.8-1.262a2.414,2.414,0,0,1-.469-1.426h2.141a1.179,1.179,0,0,0,.445.922,1.766,1.766,0,0,0,1.109.32,1.635,1.635,0,0,0,.98-.246A.766.766,0,0,0,152.344-2.336ZM163.133-3.2,164.7-8.453h2.422l-3.4,9.766-.187.445a2.577,2.577,0,0,1-2.5,1.656,3.553,3.553,0,0,1-1-.148V1.555l.344.008a1.857,1.857,0,0,0,.957-.2,1.283,1.283,0,0,0,.5-.648l.266-.7-2.961-8.477h2.43ZM174.2-7.531a2.818,2.818,0,0,1,2.258-1.078q2.75,0,2.789,3.2V0h-2.258V-5.352a1.57,1.57,0,0,0-.312-1.074,1.34,1.34,0,0,0-1.039-.348,1.537,1.537,0,0,0-1.437.766V0h-2.258V-12H174.2ZM184.836.156a4.15,4.15,0,0,1-3.027-1.141,4.054,4.054,0,0,1-1.168-3.039v-.219a5.106,5.106,0,0,1,.492-2.277,3.612,3.612,0,0,1,1.395-1.547,3.914,3.914,0,0,1,2.059-.543,3.508,3.508,0,0,1,2.73,1.094,4.444,4.444,0,0,1,1,3.1v.922H182.93a2.1,2.1,0,0,0,.66,1.328,2,2,0,0,0,1.395.5,2.437,2.437,0,0,0,2.039-.945l1.109,1.242a3.389,3.389,0,0,1-1.375,1.121A4.511,4.511,0,0,1,184.836.156Zm-.258-6.945a1.411,1.411,0,0,0-1.09.455,2.357,2.357,0,0,0-.535,1.3h3.141v-.181a1.681,1.681,0,0,0-.406-1.165A1.456,1.456,0,0,0,184.578-6.789Zm9.766.453a6.134,6.134,0,0,0-.812-.062,1.654,1.654,0,0,0-1.68.867V0h-2.258V-8.453h2.133l.063,1.008a2.092,2.092,0,0,1,1.883-1.164,2.366,2.366,0,0,1,.7.1Zm5.836,0a6.134,6.134,0,0,0-.812-.062,1.654,1.654,0,0,0-1.68.867V0H195.43V-8.453h2.133l.063,1.008a2.092,2.092,0,0,1,1.883-1.164,2.366,2.366,0,0,1,.7.1ZM205.93,0a2.507,2.507,0,0,1-.227-.758,2.732,2.732,0,0,1-2.133.914,3,3,0,0,1-2.059-.719,2.312,2.312,0,0,1-.816-1.812,2.389,2.389,0,0,1,1-2.062,4.915,4.915,0,0,1,2.879-.727h1.039v-.484a1.393,1.393,0,0,0-.3-.937,1.183,1.183,0,0,0-.949-.352,1.345,1.345,0,0,0-.895.273.929.929,0,0,0-.324.75h-2.258a2.268,2.268,0,0,1,.453-1.359,3,3,0,0,1,1.281-.98,4.669,4.669,0,0,1,1.859-.355,3.689,3.689,0,0,1,2.48.785,2.747,2.747,0,0,1,.918,2.207v3.664a4.041,4.041,0,0,0,.336,1.82V0Zm-1.867-1.57a1.945,1.945,0,0,0,.922-.223,1.462,1.462,0,0,0,.625-.6V-3.844h-.844q-1.7,0-1.8,1.172l-.008.133a.9.9,0,0,0,.3.7A1.153,1.153,0,0,0,204.063-1.57Zm7.664-6.883.07.945a2.971,2.971,0,0,1,2.43-1.1,2.255,2.255,0,0,1,2.242,1.289,2.9,2.9,0,0,1,2.539-1.289,2.521,2.521,0,0,1,2.047.8,3.681,3.681,0,0,1,.672,2.41V0h-2.266V-5.391a1.61,1.61,0,0,0-.281-1.051,1.246,1.246,0,0,0-.992-.332,1.409,1.409,0,0,0-1.406.969l.008,5.8h-2.258V-5.383a1.59,1.59,0,0,0-.289-1.062,1.259,1.259,0,0,0-.984-.328,1.463,1.463,0,0,0-1.391.8V0h-2.258V-8.453ZM225.844,0h-2.266V-8.453h2.266Zm-2.4-10.641a1.112,1.112,0,0,1,.34-.836,1.277,1.277,0,0,1,.926-.328,1.28,1.28,0,0,1,.922.328,1.105,1.105,0,0,1,.344.836,1.109,1.109,0,0,1-.348.844,1.283,1.283,0,0,1-.918.328,1.283,1.283,0,0,1-.918-.328A1.109,1.109,0,0,1,223.445-10.641Zm8.148,10.8a4.15,4.15,0,0,1-3.027-1.141A4.054,4.054,0,0,1,227.4-4.023v-.219a5.106,5.106,0,0,1,.492-2.277,3.612,3.612,0,0,1,1.395-1.547,3.914,3.914,0,0,1,2.059-.543,3.508,3.508,0,0,1,2.73,1.094,4.444,4.444,0,0,1,1,3.1v.922h-5.383a2.1,2.1,0,0,0,.66,1.328,2,2,0,0,0,1.395.5,2.437,2.437,0,0,0,2.039-.945l1.109,1.242a3.389,3.389,0,0,1-1.375,1.121A4.511,4.511,0,0,1,231.594.156Zm-.258-6.945a1.411,1.411,0,0,0-1.09.455,2.357,2.357,0,0,0-.535,1.3h3.141v-.181a1.681,1.681,0,0,0-.406-1.165A1.456,1.456,0,0,0,231.336-6.789Zm7.094-1.664.07.977a2.951,2.951,0,0,1,2.43-1.133,2.453,2.453,0,0,1,2,.789,3.682,3.682,0,0,1,.672,2.359V0h-2.258V-5.406a1.465,1.465,0,0,0-.312-1.043,1.4,1.4,0,0,0-1.039-.324,1.553,1.553,0,0,0-1.43.813V0H236.3V-8.453Zm9.586-2.078v2.078h1.445V-6.8h-1.445v4.219a1.007,1.007,0,0,0,.18.672.9.9,0,0,0,.688.2,3.6,3.6,0,0,0,.664-.055V-.047a4.648,4.648,0,0,1-1.367.2,2.156,2.156,0,0,1-2.422-2.4V-6.8h-1.234V-8.453h1.234v-2.078ZM255.617,0a2.507,2.507,0,0,1-.227-.758,2.732,2.732,0,0,1-2.133.914A3,3,0,0,1,251.2-.562a2.312,2.312,0,0,1-.816-1.812,2.389,2.389,0,0,1,1-2.062,4.915,4.915,0,0,1,2.879-.727H255.3v-.484a1.393,1.393,0,0,0-.3-.937,1.183,1.183,0,0,0-.949-.352,1.345,1.345,0,0,0-.895.273.929.929,0,0,0-.324.75H250.57a2.268,2.268,0,0,1,.453-1.359,3,3,0,0,1,1.281-.98,4.669,4.669,0,0,1,1.859-.355,3.689,3.689,0,0,1,2.48.785,2.747,2.747,0,0,1,.918,2.207v3.664a4.041,4.041,0,0,0,.336,1.82V0ZM253.75-1.57a1.945,1.945,0,0,0,.922-.223,1.462,1.462,0,0,0,.625-.6V-3.844h-.844q-1.7,0-1.8,1.172l-.008.133a.9.9,0,0,0,.3.7A1.153,1.153,0,0,0,253.75-1.57Zm10.125-.766a.727.727,0,0,0-.41-.652,4.659,4.659,0,0,0-1.316-.426q-3.016-.633-3.016-2.562a2.323,2.323,0,0,1,.934-1.879,3.766,3.766,0,0,1,2.441-.754,4.053,4.053,0,0,1,2.574.758,2.388,2.388,0,0,1,.965,1.969h-2.258a1.092,1.092,0,0,0-.312-.8A1.322,1.322,0,0,0,262.5-7a1.351,1.351,0,0,0-.883.258.814.814,0,0,0-.312.656.7.7,0,0,0,.355.605,3.657,3.657,0,0,0,1.2.4,9.8,9.8,0,0,1,1.422.379A2.336,2.336,0,0,1,266.07-2.43a2.2,2.2,0,0,1-.992,1.871,4.28,4.28,0,0,1-2.562.715,4.47,4.47,0,0,1-1.887-.379,3.166,3.166,0,0,1-1.293-1.039,2.414,2.414,0,0,1-.469-1.426h2.141a1.179,1.179,0,0,0,.445.922,1.766,1.766,0,0,0,1.109.32,1.635,1.635,0,0,0,.98-.246A.766.766,0,0,0,263.875-2.336Zm3.766,1.227A1.137,1.137,0,0,1,268-1.984a1.289,1.289,0,0,1,.91-.336,1.3,1.3,0,0,1,.918.336,1.137,1.137,0,0,1,.363.875,1.121,1.121,0,0,1-.359.863,1.305,1.305,0,0,1-.922.332A1.294,1.294,0,0,1,268-.246,1.121,1.121,0,0,1,267.641-1.109Z" transform="translate(824 3402)" fill="#12263f"/>
        <path id="Trazado_819121" data-name="Trazado 819121" d="M3.508,0H1.164V-11.375H3.508Zm4.1-8.453.07.977a2.951,2.951,0,0,1,2.43-1.133,2.453,2.453,0,0,1,2,.789,3.682,3.682,0,0,1,.672,2.359V0H10.523V-5.406a1.465,1.465,0,0,0-.312-1.043,1.4,1.4,0,0,0-1.039-.324,1.553,1.553,0,0,0-1.43.813V0H5.484V-8.453Zm10.047,5.7,1.57-5.7h2.359L18.734,0H16.578L13.727-8.453h2.359ZM26.367.156A4.15,4.15,0,0,1,23.34-.984a4.054,4.054,0,0,1-1.168-3.039v-.219a5.106,5.106,0,0,1,.492-2.277,3.612,3.612,0,0,1,1.395-1.547,3.914,3.914,0,0,1,2.059-.543,3.508,3.508,0,0,1,2.73,1.094,4.444,4.444,0,0,1,1,3.1v.922H24.461a2.1,2.1,0,0,0,.66,1.328,2,2,0,0,0,1.395.5,2.437,2.437,0,0,0,2.039-.945l1.109,1.242A3.389,3.389,0,0,1,28.289-.246,4.511,4.511,0,0,1,26.367.156Zm-.258-6.945a1.411,1.411,0,0,0-1.09.455,2.357,2.357,0,0,0-.535,1.3h3.141v-.181a1.681,1.681,0,0,0-.406-1.165A1.456,1.456,0,0,0,26.109-6.789ZM33.2-8.453l.07.977A2.951,2.951,0,0,1,35.7-8.609a2.453,2.453,0,0,1,2,.789,3.682,3.682,0,0,1,.672,2.359V0H36.117V-5.406A1.465,1.465,0,0,0,35.8-6.449a1.4,1.4,0,0,0-1.039-.324,1.553,1.553,0,0,0-1.43.813V0H31.078V-8.453Zm9.586-2.078v2.078h1.445V-6.8H42.789v4.219a1.007,1.007,0,0,0,.18.672.9.9,0,0,0,.688.2,3.6,3.6,0,0,0,.664-.055V-.047a4.648,4.648,0,0,1-1.367.2,2.156,2.156,0,0,1-2.422-2.4V-6.8H39.3V-8.453h1.234v-2.078ZM50.391,0a2.507,2.507,0,0,1-.227-.758,2.732,2.732,0,0,1-2.133.914,3,3,0,0,1-2.059-.719,2.312,2.312,0,0,1-.816-1.812,2.389,2.389,0,0,1,1-2.062,4.915,4.915,0,0,1,2.879-.727H50.07v-.484a1.393,1.393,0,0,0-.3-.937,1.183,1.183,0,0,0-.949-.352,1.345,1.345,0,0,0-.895.273.929.929,0,0,0-.324.75H45.344A2.268,2.268,0,0,1,45.8-7.273a3,3,0,0,1,1.281-.98,4.669,4.669,0,0,1,1.859-.355,3.689,3.689,0,0,1,2.48.785,2.747,2.747,0,0,1,.918,2.207v3.664a4.041,4.041,0,0,0,.336,1.82V0ZM48.523-1.57a1.945,1.945,0,0,0,.922-.223,1.462,1.462,0,0,0,.625-.6V-3.844h-.844q-1.7,0-1.8,1.172l-.008.133a.9.9,0,0,0,.3.7A1.153,1.153,0,0,0,48.523-1.57Zm10.3-4.766a6.134,6.134,0,0,0-.812-.062,1.654,1.654,0,0,0-1.68.867V0H54.07V-8.453H56.2l.063,1.008a2.092,2.092,0,0,1,1.883-1.164,2.366,2.366,0,0,1,.7.1ZM62.289,0H60.023V-8.453h2.266Zm-2.4-10.641a1.112,1.112,0,0,1,.34-.836,1.277,1.277,0,0,1,.926-.328,1.28,1.28,0,0,1,.922.328,1.105,1.105,0,0,1,.344.836,1.108,1.108,0,0,1-.348.844,1.283,1.283,0,0,1-.918.328,1.283,1.283,0,0,1-.918-.328A1.108,1.108,0,0,1,59.891-10.641ZM63.8-4.3a5.013,5.013,0,0,1,.484-2.242A3.546,3.546,0,0,1,65.676-8.07a4.069,4.069,0,0,1,2.113-.539,3.849,3.849,0,0,1,2.793,1.047,4.2,4.2,0,0,1,1.207,2.844l.016.578A4.418,4.418,0,0,1,70.719-1.02,3.775,3.775,0,0,1,67.8.156a3.793,3.793,0,0,1-2.918-1.172A4.5,4.5,0,0,1,63.8-4.2Zm2.258.16A3.16,3.16,0,0,0,66.508-2.3a1.5,1.5,0,0,0,1.3.638,1.5,1.5,0,0,0,1.281-.63,3.457,3.457,0,0,0,.461-2.015,3.128,3.128,0,0,0-.461-1.831,1.5,1.5,0,0,0-1.3-.649,1.474,1.474,0,0,0-1.281.646A3.516,3.516,0,0,0,66.055-4.144Zm10.773-.145a5.094,5.094,0,0,1,.887-3.148,2.877,2.877,0,0,1,2.426-1.172,2.589,2.589,0,0,1,2.039.922V-12h2.266V0H82.406L82.3-.9A2.657,2.657,0,0,1,80.125.156,2.869,2.869,0,0,1,77.73-1.02,5.258,5.258,0,0,1,76.828-4.289Zm2.258.168A3.337,3.337,0,0,0,79.5-2.3a1.349,1.349,0,0,0,1.2.634,1.511,1.511,0,0,0,1.477-.884V-5.889a1.489,1.489,0,0,0-1.461-.884Q79.086-6.773,79.086-4.121Zm11,4.277A4.15,4.15,0,0,1,87.059-.984a4.054,4.054,0,0,1-1.168-3.039v-.219a5.106,5.106,0,0,1,.492-2.277,3.612,3.612,0,0,1,1.395-1.547,3.914,3.914,0,0,1,2.059-.543,3.508,3.508,0,0,1,2.73,1.094,4.444,4.444,0,0,1,1,3.1v.922H88.18a2.1,2.1,0,0,0,.66,1.328,2,2,0,0,0,1.395.5,2.437,2.437,0,0,0,2.039-.945l1.109,1.242A3.389,3.389,0,0,1,92.008-.246,4.511,4.511,0,0,1,90.086.156Zm-.258-6.945a1.411,1.411,0,0,0-1.09.455,2.357,2.357,0,0,0-.535,1.3h3.141v-.181a1.681,1.681,0,0,0-.406-1.165A1.456,1.456,0,0,0,89.828-6.789ZM101.211,0H98.945V-8.453h2.266Zm-2.4-10.641a1.112,1.112,0,0,1,.34-.836,1.277,1.277,0,0,1,.926-.328,1.28,1.28,0,0,1,.922.328,1.105,1.105,0,0,1,.344.836A1.108,1.108,0,0,1,101-9.8a1.283,1.283,0,0,1-.918.328A1.283,1.283,0,0,1,99.16-9.8,1.108,1.108,0,0,1,98.813-10.641Zm6.336,2.188.07.977a2.951,2.951,0,0,1,2.43-1.133,2.453,2.453,0,0,1,2,.789,3.682,3.682,0,0,1,.672,2.359V0h-2.258V-5.406a1.465,1.465,0,0,0-.312-1.043,1.4,1.4,0,0,0-1.039-.324,1.553,1.553,0,0,0-1.43.813V0h-2.258V-8.453Zm11.461,6.117a.727.727,0,0,0-.41-.652,4.659,4.659,0,0,0-1.316-.426q-3.016-.633-3.016-2.562a2.323,2.323,0,0,1,.934-1.879,3.766,3.766,0,0,1,2.441-.754,4.053,4.053,0,0,1,2.574.758,2.388,2.388,0,0,1,.965,1.969h-2.258a1.092,1.092,0,0,0-.312-.8A1.322,1.322,0,0,0,115.234-7a1.351,1.351,0,0,0-.883.258.814.814,0,0,0-.312.656.7.7,0,0,0,.355.605,3.657,3.657,0,0,0,1.2.4,9.8,9.8,0,0,1,1.422.379A2.336,2.336,0,0,1,118.8-2.43a2.2,2.2,0,0,1-.992,1.871,4.28,4.28,0,0,1-2.562.715,4.47,4.47,0,0,1-1.887-.379,3.166,3.166,0,0,1-1.293-1.039,2.414,2.414,0,0,1-.469-1.426h2.141a1.179,1.179,0,0,0,.445.922,1.766,1.766,0,0,0,1.109.32,1.635,1.635,0,0,0,.98-.246A.766.766,0,0,0,116.609-2.336Zm6.352-8.2v2.078h1.445V-6.8h-1.445v4.219a1.007,1.007,0,0,0,.18.672.9.9,0,0,0,.688.2,3.6,3.6,0,0,0,.664-.055V-.047a4.648,4.648,0,0,1-1.367.2,2.156,2.156,0,0,1-2.422-2.4V-6.8h-1.234V-8.453H120.7v-2.078ZM130.563,0a2.507,2.507,0,0,1-.227-.758A2.732,2.732,0,0,1,128.2.156a3,3,0,0,1-2.059-.719,2.312,2.312,0,0,1-.816-1.812,2.389,2.389,0,0,1,1-2.062,4.915,4.915,0,0,1,2.879-.727h1.039v-.484a1.393,1.393,0,0,0-.3-.937,1.183,1.183,0,0,0-.949-.352,1.345,1.345,0,0,0-.895.273.929.929,0,0,0-.324.75h-2.258a2.268,2.268,0,0,1,.453-1.359,3,3,0,0,1,1.281-.98,4.669,4.669,0,0,1,1.859-.355,3.689,3.689,0,0,1,2.48.785,2.747,2.747,0,0,1,.918,2.207v3.664a4.041,4.041,0,0,0,.336,1.82V0ZM128.7-1.57a1.945,1.945,0,0,0,.922-.223,1.462,1.462,0,0,0,.625-.6V-3.844H129.4q-1.7,0-1.8,1.172l-.008.133a.9.9,0,0,0,.3.7A1.153,1.153,0,0,0,128.7-1.57ZM136.625,0h-2.266V-12h2.266Zm6.758,0a2.507,2.507,0,0,1-.227-.758,2.732,2.732,0,0,1-2.133.914,3,3,0,0,1-2.059-.719,2.312,2.312,0,0,1-.816-1.812,2.389,2.389,0,0,1,1-2.062,4.915,4.915,0,0,1,2.879-.727h1.039v-.484a1.393,1.393,0,0,0-.3-.937,1.183,1.183,0,0,0-.949-.352,1.345,1.345,0,0,0-.895.273.929.929,0,0,0-.324.75h-2.258a2.268,2.268,0,0,1,.453-1.359,3,3,0,0,1,1.281-.98,4.669,4.669,0,0,1,1.859-.355,3.689,3.689,0,0,1,2.48.785,2.747,2.747,0,0,1,.918,2.207v3.664a4.041,4.041,0,0,0,.336,1.82V0Zm-1.867-1.57a1.945,1.945,0,0,0,.922-.223,1.462,1.462,0,0,0,.625-.6V-3.844h-.844q-1.7,0-1.8,1.172l-.008.133a.9.9,0,0,0,.3.7A1.153,1.153,0,0,0,141.516-1.57Zm9.063-.094a1.481,1.481,0,0,0,1.016-.344A1.2,1.2,0,0,0,152-2.922h2.117a2.9,2.9,0,0,1-.469,1.574,3.093,3.093,0,0,1-1.262,1.109,3.949,3.949,0,0,1-1.77.395A3.67,3.67,0,0,1,147.758-1a4.56,4.56,0,0,1-1.047-3.184v-.148a4.508,4.508,0,0,1,1.039-3.117A3.627,3.627,0,0,1,150.6-8.609a3.555,3.555,0,0,1,2.543.9,3.2,3.2,0,0,1,.973,2.4H152a1.551,1.551,0,0,0-.406-1.072,1.355,1.355,0,0,0-1.031-.412,1.36,1.36,0,0,0-1.191.575,3.333,3.333,0,0,0-.4,1.866v.235a3.375,3.375,0,0,0,.4,1.878A1.377,1.377,0,0,0,150.578-1.664ZM157.789,0h-2.266V-8.453h2.266Zm-2.4-10.641a1.112,1.112,0,0,1,.34-.836,1.277,1.277,0,0,1,.926-.328,1.28,1.28,0,0,1,.922.328,1.105,1.105,0,0,1,.344.836,1.109,1.109,0,0,1-.348.844,1.283,1.283,0,0,1-.918.328,1.283,1.283,0,0,1-.918-.328A1.109,1.109,0,0,1,155.391-10.641ZM159.3-4.3a5.013,5.013,0,0,1,.484-2.242,3.546,3.546,0,0,1,1.395-1.523,4.069,4.069,0,0,1,2.113-.539,3.849,3.849,0,0,1,2.793,1.047,4.2,4.2,0,0,1,1.207,2.844l.016.578a4.418,4.418,0,0,1-1.086,3.121A3.775,3.775,0,0,1,163.3.156a3.793,3.793,0,0,1-2.918-1.172A4.5,4.5,0,0,1,159.3-4.2Zm2.258.16a3.16,3.16,0,0,0,.453,1.843,1.5,1.5,0,0,0,1.3.638,1.5,1.5,0,0,0,1.281-.63,3.457,3.457,0,0,0,.461-2.015,3.128,3.128,0,0,0-.461-1.831,1.5,1.5,0,0,0-1.3-.649,1.474,1.474,0,0,0-1.281.646A3.516,3.516,0,0,0,161.555-4.144Zm9.219-4.309.07.977a2.951,2.951,0,0,1,2.43-1.133,2.453,2.453,0,0,1,2,.789,3.682,3.682,0,0,1,.672,2.359V0h-2.258V-5.406a1.465,1.465,0,0,0-.312-1.043,1.4,1.4,0,0,0-1.039-.324,1.553,1.553,0,0,0-1.43.813V0h-2.258V-8.453ZM181.547.156A4.15,4.15,0,0,1,178.52-.984a4.054,4.054,0,0,1-1.168-3.039v-.219a5.106,5.106,0,0,1,.492-2.277,3.612,3.612,0,0,1,1.395-1.547,3.914,3.914,0,0,1,2.059-.543,3.508,3.508,0,0,1,2.73,1.094,4.444,4.444,0,0,1,1,3.1v.922h-5.383a2.1,2.1,0,0,0,.66,1.328,2,2,0,0,0,1.395.5,2.437,2.437,0,0,0,2.039-.945l1.109,1.242a3.389,3.389,0,0,1-1.375,1.121A4.511,4.511,0,0,1,181.547.156Zm-.258-6.945a1.411,1.411,0,0,0-1.09.455,2.357,2.357,0,0,0-.535,1.3H182.8v-.181a1.681,1.681,0,0,0-.406-1.165A1.456,1.456,0,0,0,181.289-6.789Zm9.594,4.453a.727.727,0,0,0-.41-.652,4.659,4.659,0,0,0-1.316-.426q-3.016-.633-3.016-2.562a2.323,2.323,0,0,1,.934-1.879,3.766,3.766,0,0,1,2.441-.754,4.053,4.053,0,0,1,2.574.758,2.388,2.388,0,0,1,.965,1.969H190.8a1.092,1.092,0,0,0-.312-.8A1.322,1.322,0,0,0,189.508-7a1.351,1.351,0,0,0-.883.258.814.814,0,0,0-.312.656.7.7,0,0,0,.355.605,3.657,3.657,0,0,0,1.2.4,9.8,9.8,0,0,1,1.422.379,2.336,2.336,0,0,1,1.789,2.273,2.205,2.205,0,0,1-.992,1.871,4.28,4.28,0,0,1-2.562.715,4.47,4.47,0,0,1-1.887-.379,3.166,3.166,0,0,1-1.293-1.039,2.414,2.414,0,0,1-.469-1.426h2.141a1.179,1.179,0,0,0,.445.922,1.766,1.766,0,0,0,1.109.32,1.635,1.635,0,0,0,.98-.246A.766.766,0,0,0,190.883-2.336Zm3.766,1.227a1.137,1.137,0,0,1,.363-.875,1.289,1.289,0,0,1,.91-.336,1.3,1.3,0,0,1,.918.336,1.137,1.137,0,0,1,.363.875,1.121,1.121,0,0,1-.359.863,1.305,1.305,0,0,1-.922.332,1.294,1.294,0,0,1-.914-.332A1.121,1.121,0,0,1,194.648-1.109Z" transform="translate(824 3445)" fill="#12263f"/>
      </g>
    </g>
  </g>
</svg>
