<svg xmlns="http://www.w3.org/2000/svg" xmlns:xlink="http://www.w3.org/1999/xlink" width="169" height="169" viewBox="0 0 169 169">
  <defs>
    <clipPath id="clip-path">
      <rect id="Rect치ngulo_377056" data-name="Rect치ngulo 377056" width="110.742" height="79.368" fill="none"/>
    </clipPath>
  </defs>
  <g id="Grupo_1072902" data-name="Grupo 1072902" transform="translate(-385.001 -2058)">
    <g id="Grupo_159182" data-name="Grupo 159182" transform="translate(385.001 2058)">
      <path id="Uni칩n_12" data-name="Uni칩n 12" d="M84.5,0A84.5,84.5,0,1,1,0,84.5,84.5,84.5,0,0,1,84.5,0Z" transform="translate(0 0)" fill="#1b3f5e"/>
    </g>
    <g id="Grupo_1072901" data-name="Grupo 1072901">
      <g id="Grupo_1072646" data-name="Grupo 1072646" transform="translate(418.668 2092.511)">
        <g id="Grupo_1072650" data-name="Grupo 1072650" transform="translate(0 11.151)">
          <g id="Grupo_1072649" data-name="Grupo 1072649" clip-path="url(#clip-path)">
            <path id="Trazado_818583" data-name="Trazado 818583" d="M14.378,67.915c-.477.032-.454.708-.967.727a2.242,2.242,0,0,1-1.376-.128A33.1,33.1,0,0,1,2.3,60.134,16.621,16.621,0,0,1,.578,57.34,6.178,6.178,0,0,1,0,54.662Q.006,41.241.012,27.82a4.309,4.309,0,0,1,.575-2.028A9.161,9.161,0,0,1,2.736,23.1,19.354,19.354,0,0,1,5.92,20.9a25.611,25.611,0,0,1,3.406-1.359c.781-.294,1.569-.574,2.367-.817a.483.483,0,0,0,.4-.565c-.025-2.718-.026-5.436-.049-8.154a4.164,4.164,0,0,1,.8-2.994A10.41,10.41,0,0,1,14.8,5.259a19.5,19.5,0,0,1,4.092-1.817,44.606,44.606,0,0,1,5.041-1.376,30.292,30.292,0,0,0,3.014-.615c.63-.229,1.262-.114,1.885-.324A9.527,9.527,0,0,1,30.675.956c1.546-.182,3.1-.348,4.648-.422C36.015.5,36.7.4,37.4.375,39.42.294,41.448.3,43.472.2h.092c.573.033,1.146.091,1.72.094C46.644.3,48,.42,49.362.421c1.419,0,2.828.252,4.247.341.891.056,1.352.514,1.575,1.7a1.5,1.5,0,0,1-1.421,1.419,4.909,4.909,0,0,1-1.791-.023c-1.342-.185-2.7-.014-4.051-.216a28.875,28.875,0,0,0-3.707-.108l-.1,0c-2.027.042-4.054-.024-6.082.088-1.763.1-3.52.265-5.281.373-.754.046-1.5.223-2.254.3-.843.081-1.667.244-2.5.384-.551.093-1.186.082-1.732.2a52.9,52.9,0,0,0-5.385,1.288,14.74,14.74,0,0,0-5.162,2.465.934.934,0,0,0-.069,1.586c1.608,1.486,3.659,2.055,5.656,2.717a27.222,27.222,0,0,0,3.746.934c1.478.265,2.946.628,4.435.777,1.147.114,2.282.324,3.44.375,1.5.066,3,.359,4.5.383,1.32.022,2.64.093,3.963.08,2.658-.025,5.315-.053,7.972-.143,1.054-.036,2.112-.105,3.153-.209,2.007-.2,4.017-.422,6.011-.767a52.029,52.029,0,0,0,7.556-1.761,12.424,12.424,0,0,0,4.341-2.155c.84-.722.845-1.2-.011-1.919a11.716,11.716,0,0,0-3.71-1.932,49.294,49.294,0,0,0-5.587-1.493,1.741,1.741,0,0,1-1.544-1.975c.162-.083.177-.262.257-.4a1.543,1.543,0,0,1,1.739-.8,41.6,41.6,0,0,1,7.793,2.3,10.9,10.9,0,0,1,3.055,1.793,4.97,4.97,0,0,1,1.8,2.721,7.451,7.451,0,0,1,.154,1.316c.015,2.395,0,4.789.017,7.184,0,.328-.127.625-.124.949a.53.53,0,0,0,.4.59A40.31,40.31,0,0,1,78.863,20.3c.935.429,1.837.932,2.744,1.42a12.709,12.709,0,0,1,3.03,2.445,5.775,5.775,0,0,1,1.643,3.63c.147,1.743.056,3.489.06,5.233.01,3.925-.01,7.85-.028,11.775,0,.349.076.526.453.422,1.154-.317,2.311-.626,3.462-.955,2.039-.582,4.054-1.236,6.03-2.011a41.865,41.865,0,0,1,4.814-1.812,8.22,8.22,0,0,1,3.414.07,7.288,7.288,0,0,1,5.077,3.745,7.722,7.722,0,0,1,1.04,3.679c.256,4.51.077,9.025.1,13.537a8.256,8.256,0,0,1-3.037,6.63,13.462,13.462,0,0,1-2.373,1.4c-1.036.559-2.1,1.061-3.167,1.568-1.777.847-3.587,1.613-5.429,2.312-1.118.425-2.257.784-3.385,1.174A43.542,43.542,0,0,1,88.779,75.9c-1.545.352-3.064.82-4.626,1.086-1.674.285-3.329.672-5.016.894-1.3.171-2.587.487-3.891.614-.881.086-1.763.186-2.646.259-1.21.1-2.412.3-3.622.4-1.1.088-2.216.1-3.325.132-1.775.056-3.55.1-5.324.16-1.15.039-2.3.045-3.449.015-1.66-.042-3.325-.078-4.983-.189-1.437-.1-2.876-.182-4.307-.331-1.244-.13-2.475-.381-3.72-.507-1.39-.141-2.772-.344-4.145-.582-1.155-.2-2.321-.341-3.464-.621-1.2-.294-2.419-.5-3.625-.768-.792-.176-1.574-.4-2.364-.585-1.259-.3-2.5-.679-3.732-1.063a34.991,34.991,0,0,1-3.55-1.219,23.49,23.49,0,0,0-2.446-.9,8.2,8.2,0,0,1-1.574-.7,1.621,1.621,0,0,1-.7-2.177,1.425,1.425,0,0,1,.886-.688,2.3,2.3,0,0,1,1.533.188c.833.32,1.651.676,2.485.994.595.227.612.2.612-.438q0-3.078,0-6.156c0-1.962,0-3.924.008-5.886a1.774,1.774,0,0,1,1.19-1.653,1.678,1.678,0,0,1,1.95,1,2.835,2.835,0,0,1,.118,1.187q0,6.371-.022,12.742a.592.592,0,0,0,.515.677c.641.159,1.275.346,1.912.517,1.556.417,3.114.825,4.689,1.172,1.693.373,3.393.707,5.089,1.062.669.14.768.121.768-.538q0-6.184,0-12.367a2.407,2.407,0,0,1,.1-.8,1.437,1.437,0,0,1,1.493-1,1.386,1.386,0,0,1,1.49.989,5.942,5.942,0,0,1,.166,1.425c-.012,3.186-.006,6.372-.006,9.558,0,.972.009,1.944-.006,2.916,0,.3.075.407.4.49a8.726,8.726,0,0,0,1.316.154c1.78.184,3.558.394,5.34.548s3.575.151,5.362.242c.447.023.508-.135.506-.547-.022-4.158-.019-8.316-.017-12.474a2.221,2.221,0,0,1,.088-.811,1.673,1.673,0,0,1,1.854-.977,1.559,1.559,0,0,1,1.244,1.252,7.127,7.127,0,0,1,.054,1.021.083.083,0,0,0,0,.1c-.007.126-.019.251-.019.377q0,5.264-.007,10.528a3.118,3.118,0,0,1-.056.683c-.15.678.121.98.8.865a8.048,8.048,0,0,1,1.466-.024,59.509,59.509,0,0,0,6.117-.206c1.334-.124,2.669-.246,4.007-.307.482-.022.542-.2.541-.615-.013-4.121-.007-8.242-.01-12.364a2.511,2.511,0,0,1,.318-1.229,1.4,1.4,0,0,1,1.74-.672,1.721,1.721,0,0,1,1.243,1.913q0,6.02-.006,12.04c-.054.116-.092.231.029.331a.486.486,0,0,0,.378.091c1.457-.258,2.921-.475,4.382-.713,2.923-.477,5.8-1.172,8.67-1.885.616-.153.731-.453.722-1.008-.03-1.854-.017-3.709-.026-5.563-.026-5.851.055-11.7-.042-17.552-.007-.46-.053-.615-.588-.478-1.12.288-2.229.623-3.369.837-1.512.285-2.987.752-4.524.912-.444.046-.861.274-1.285.3-.514.03-1,.181-1.507.218-.863.062-1.706.294-2.555.4-.914.116-1.844.169-2.767.264-1.346.138-2.7.186-4.043.35a42.639,42.639,0,0,1-4.916.281c-3.56.02-7.122.149-10.681-.092-1.037-.07-2.082-.039-3.119-.109-.851-.058-1.706-.13-2.55-.233-1.233-.15-2.472-.238-3.7-.416-.7-.1-1.434-.1-2.1-.257-1.319-.311-2.673-.37-3.988-.692-1.334-.326-2.73-.359-4.048-.777-1.37-.435-2.8-.612-4.174-1.049-1.58-.5-3.2-.865-4.766-1.432a40.212,40.212,0,0,1-4.379-1.576c-.854-.426-1.755-.759-2.6-1.209a31.561,31.561,0,0,1-6.947-4.708A19.048,19.048,0,0,1,7.84,35.216,1.616,1.616,0,0,1,9.1,33.022a1.777,1.777,0,0,1,1.664.869,18.023,18.023,0,0,0,3.323,3.431,29.8,29.8,0,0,0,3.25,2.289c.474.3.627.147.782-.258.026-.067.035-.141.064-.206a3.957,3.957,0,0,1,3.364-2.542,17.364,17.364,0,0,1,3.719.361c.92.108,1.837.239,2.756.36,1.167.153,2.353.149,3.522.289,1.118.134,2.233.251,3.36.281,1.85.05,3.7.193,5.551.2,3,.012,6,.087,9-.1,1.21-.075,2.423-.094,3.632-.2a5.462,5.462,0,0,1,1.235-.177,7.581,7.581,0,0,0,1.957-.087c1.465-.079,2.924-.314,4.381-.515,1.378-.189,2.753-.4,4.127-.628a1.655,1.655,0,0,1,1.946,1.281c-.07,1.278-.348,1.7-1.446,1.9-1.608.3-3.22.63-4.845.781-1.55.144-3.094.347-4.645.489-2.007.182-4.017.276-6.026.393-.789.046-1.581.048-2.371.07-.031-.041-.062-.049-.092,0-.178.016-.356.044-.533.045-4.276.015-8.553.047-12.822-.231-.606-.04-1.214-.055-1.818-.1-1.4-.116-2.8-.27-4.2-.422-.757-.083-1.51-.2-2.266-.292q-1.831-.233-3.664-.461a.726.726,0,0,0-.813.555c-.3.778-.084,1.181.838,1.544a89.99,89.99,0,0,0,16.5,4.567c2.141.4,4.3.717,6.479.928,1.938.187,3.867.453,5.809.6.408.031.676.033.668-.551a1.607,1.607,0,0,1,1.683-1.6A1.574,1.574,0,0,1,54.7,47.507a1.754,1.754,0,0,1,.006.27c-.036.378.132.494.505.492q3.539-.019,7.08,0c.392,0,.536-.1.53-.515a7.713,7.713,0,0,1,.093-1.991,1.542,1.542,0,0,1,1.653-1.175,1.526,1.526,0,0,1,1.4,1.328,6.821,6.821,0,0,1,.1,1.277c.012.911.007.909.877.858a5.484,5.484,0,0,1,.648-.007,13.176,13.176,0,0,0,2.3-.144c1.351-.16,2.707-.253,4.06-.389.318-.032.44-.124.435-.452-.015-.954-.016-1.909,0-2.862a1.634,1.634,0,0,1,1.984-1.677,1.614,1.614,0,0,1,1.247,1.622c.025.809,0,1.62.013,2.43,0,.1-.11.3.118.3a4.929,4.929,0,0,0,.909-.058c1.281-.229,2.554-.5,3.839-.7.434-.067.563-.2.562-.635-.011-3.331,0-6.661.007-9.991,0-.652,0-1.3,0-2.011a2.169,2.169,0,0,0-.261.114,31.749,31.749,0,0,1-9.741,4.24c-1.432.4-1.741.269-2.573-.92a5.225,5.225,0,0,1,.059-.793c.257-.975,1.041-1.232,1.867-1.479a31.283,31.283,0,0,0,8.059-3.363,6.192,6.192,0,0,0,2.293-2.23A1.985,1.985,0,0,0,82.743,27a5.833,5.833,0,0,0-1.209-1.436,12.512,12.512,0,0,0-3.319-1.974,16.566,16.566,0,0,0-2.823-1.168l-1.01-.368c0,.88.039,1.707-.012,2.529A5.232,5.232,0,0,1,74,26.73a7.787,7.787,0,0,1-3.758,3.387,30.268,30.268,0,0,1-4.142,1.6,52.807,52.807,0,0,1-6.956,1.61c-1.856.324-3.737.521-5.616.713-1.572.16-3.152.314-4.722.363-3.253.1-6.511.186-9.767.023a.4.4,0,0,0-.353-.012c-.144-.013-.286-.031-.43-.039-1.718-.09-3.442-.124-5.153-.282-1.622-.15-3.24-.36-4.855-.594-1.571-.228-3.137-.5-4.681-.832A33.508,33.508,0,0,1,18.483,31.2a15.392,15.392,0,0,1-4.759-2.586,4.606,4.606,0,0,1-1.709-3.186c-.055-.805,0-1.618,0-2.428,0-1.007,0-1.007-.958-.719-.013,0-.019.029-.029.045a16.994,16.994,0,0,0-1.637.654,16.944,16.944,0,0,0-3.066,1.492,6.124,6.124,0,0,0-.922.644,6.172,6.172,0,0,1-.726.607,2.933,2.933,0,0,0-1.345,1.969c-.015.05-.031.1-.047.151-.012.161-.034.322-.034.483Q3.243,41.6,3.235,54.884a3.016,3.016,0,0,0,.4,1.474A22.154,22.154,0,0,0,7.494,61.19c.025.025.1,0,.145,0a23.838,23.838,0,0,0,.011-3.143c.082-2.625.035-5.254.037-7.881a1.644,1.644,0,0,1,1.507-1.6c1.012-.06,1.708.687,1.709,1.9q0,6.5-.034,13.008a.789.789,0,0,0,.376.765c.791.5,1.573,1.011,2.362,1.514a1.563,1.563,0,0,1,.78,1.939,1.013,1.013,0,0,0-.009.215m19.4-41.034v.2c0,.077,0,.154,0,.232v1.065c0,.077,0,.154,0,.232s0,.133,0,.2,0,.156,0,.233q0,.153,0,.305c0,.185-.005.37-.008.555a.076.076,0,0,0,0,.1c0,.075,0,.15,0,.225a.1.1,0,0,0-.012.1c-.124.459.126.636.526.647.608.018,1.216.082,1.818.092,1.65.03,3.3.183,4.947.15.389-.008.479-.1.475-.475-.017-1.655,0-3.31,0-4.966a1.551,1.551,0,0,1,.257-.944,1.721,1.721,0,0,1,1.824-.714A1.622,1.622,0,0,1,44.766,25.7c.025,1.654.023,3.309.033,4.964v.309c-.029.268.116.353.356.332a10.127,10.127,0,0,1,1.222-.1c1.348.049,2.69-.084,4.032-.144a8.094,8.094,0,0,0,1.8-.17c.166-.045.377-.095.331-.266a3.386,3.386,0,0,1,.036-.929c-.008-1.314.04-2.627.028-3.941a1.374,1.374,0,0,1,.584-1.179,1.753,1.753,0,0,1,2.073.049,2.442,2.442,0,0,1,.535,1.52c-.018,1.332,0,2.665-.008,4,0,.265.013.463.372.4,2.308-.435,4.636-.756,6.929-1.278.36-.082.5-.2.5-.595-.026-1.278-.031-2.557,0-3.835a1.515,1.515,0,0,1,.994-1.576,1.713,1.713,0,0,1,1.865.467,1.142,1.142,0,0,1,.373.834c-.017,1.062.005,2.124.012,3.186.052.653.351.137.546.115a12.1,12.1,0,0,0,3.012-1.619c.3-.23.642-.51.633-.9a13.759,13.759,0,0,0,.081-1.815l0-.647q0-3.241,0-6.483l0-.755q0-.435,0-.871a.068.068,0,0,0,0-.1l-.007-.34a.21.21,0,0,0-.042-.275c-.118-.085-.221-.02-.307.074a32.484,32.484,0,0,1-4.351,1.749,58.371,58.371,0,0,1-7.738,1.729c-2.212.361-4.435.624-6.66.809a46.392,46.392,0,0,1-6.221.243c-.569-.029-1.125.241-1.7.065V18.7l-.017.011-.418.017-.011-.024-.015.023-.421,0a.515.515,0,0,0-.409,0l-.46-.021-.1.009a4.912,4.912,0,0,1-1.533-.043c-1.756,0-3.506-.11-5.259-.2-1.621-.085-3.227-.277-4.838-.447-1.9-.2-3.79-.5-5.665-.875a32.628,32.628,0,0,1-9.282-3.031c-.381-.207-.4-.072-.4.27q.014,4.509,0,9.018a5.738,5.738,0,0,1-.073.739,2.035,2.035,0,0,0,.567,1.961,12.624,12.624,0,0,0,3.256,1.823c.4.177.482.095.478-.315-.013-1.53.01-3.06-.007-4.59a3.1,3.1,0,0,1,.184-1.044,1.5,1.5,0,0,1,2.275-.808c.768.377.835,1.135.842,1.86.02,1.943,0,3.887,0,5.83l-.019.026.029.016a.426.426,0,0,0,.468.34,8.109,8.109,0,0,1,1.606.337c.136.033.261.087.4.11,1.4.23,2.789.5,4.191.7.337.048.706.3,1.061.02.1-.018.095-.07.048-.138q-.006-.423-.011-.846V29.4l.013-4.291,0-.03q.01-.2.022-.405l0-.02a1.629,1.629,0,0,1,.991-1.357,1.681,1.681,0,0,1,2.189,1.531q.011.263.023.525c0,.078,0,.156,0,.234s0,.133,0,.2v.432c0,.077,0,.154,0,.231v.432M92.916,59.016h.035q0,5.886,0,11.772c0,.308-.056.568.442.392a64.479,64.479,0,0,0,11.574-5.188,4.691,4.691,0,0,0,2.476-4.115c.062-4.517.094-9.038,0-13.554A4.752,4.752,0,0,0,100.659,44c-1.158.458-2.309.937-3.457,1.42-1.23.518-2.542.841-3.822,1.238a.571.571,0,0,0-.474.643c.017,3.906.01,7.813.01,11.719" transform="translate(0 -0.111)" fill="#060707"/>
            <path id="Trazado_818584" data-name="Trazado 818584" d="M63.611,92.509a7.191,7.191,0,0,0-.054-1.021,1.558,1.558,0,0,0-1.244-1.252,1.673,1.673,0,0,0-1.854.977,2.22,2.22,0,0,0-.088.811c0,4.158,0,8.316.017,12.473,0,.412-.059.57-.506.547-1.787-.091-3.581-.087-5.362-.242s-3.56-.364-5.34-.549a8.723,8.723,0,0,1-1.316-.154c-.322-.083-.4-.187-.4-.49.015-.972.006-1.944.006-2.916,0-3.186-.006-6.372.006-9.558a5.939,5.939,0,0,0-.166-1.425,1.386,1.386,0,0,0-1.49-.989,1.436,1.436,0,0,0-1.493,1,2.407,2.407,0,0,0-.1.8q0,6.183,0,12.366c0,.659-.1.679-.768.539-1.7-.355-3.4-.689-5.089-1.062-1.575-.347-3.132-.755-4.689-1.172-.638-.171-1.272-.358-1.912-.517a.591.591,0,0,1-.515-.677q.029-6.371.021-12.742a2.821,2.821,0,0,0-.117-1.187,1.678,1.678,0,0,0-1.95-1,1.774,1.774,0,0,0-1.19,1.653c-.011,1.962-.007,3.924-.008,5.886q0,3.078,0,6.156c0,.641-.018.665-.612.438-.834-.318-1.653-.674-2.486-.994a2.3,2.3,0,0,0-1.533-.187,1.424,1.424,0,0,0-.886.687,9.008,9.008,0,0,1-2.63-1.135A3.06,3.06,0,0,1,18.6,96.81a1.04,1.04,0,0,1,.01-.215,1.564,1.564,0,0,0-.78-1.94c-.788-.5-1.571-1.015-2.361-1.514a.789.789,0,0,1-.376-.765q.034-6.5.034-13.008c0-1.218-.7-1.965-1.709-1.9a1.644,1.644,0,0,0-1.507,1.6c0,2.628.045,5.257-.037,7.882a23.838,23.838,0,0,1-.011,3.143c-.048,0-.121.022-.145,0a22.12,22.12,0,0,1-3.858-4.832,3.013,3.013,0,0,1-.4-1.474q.015-13.281.014-26.562c0-.161.022-.322.034-.483l.047-.151A2.933,2.933,0,0,1,8.9,54.614a6.135,6.135,0,0,0,.726-.607,6.153,6.153,0,0,1,.922-.643,16.944,16.944,0,0,1,3.066-1.492,16.883,16.883,0,0,1,1.637-.654,1.349,1.349,0,0,1,.088.521,10.66,10.66,0,0,0-.086,1.88c-.2,2.4,1.169,3.975,2.909,5.247a19.368,19.368,0,0,0,5.974,2.682c1.514.458,3.061.747,4.582,1.158a21.751,21.751,0,0,0,2.213.408c1.447.235,2.9.407,4.354.6,1.67.22,3.345.383,5.019.458,1.918.087,3.838.122,5.757.221a49.831,49.831,0,0,0,6.254-.1c2.141-.159,4.284-.272,6.424-.48,1.658-.161,3.3-.442,4.947-.631a36.979,36.979,0,0,0,4.242-.885,33.676,33.676,0,0,0,5.177-1.565,15.369,15.369,0,0,0,4.469-2.64A5.261,5.261,0,0,0,79.4,53.035a2.255,2.255,0,0,1,.218-1.714,16.6,16.6,0,0,1,2.823,1.168,12.51,12.51,0,0,1,3.319,1.974A5.818,5.818,0,0,1,86.968,55.9,1.984,1.984,0,0,1,87,57.946a6.19,6.19,0,0,1-2.293,2.231,31.283,31.283,0,0,1-8.059,3.363c-.826.247-1.609.5-1.867,1.479a5.218,5.218,0,0,0-.059.792,2.519,2.519,0,0,0-.529.059,23.637,23.637,0,0,1-3.235.7,1.655,1.655,0,0,0-1.946-1.281c-1.373.224-2.749.439-4.127.629-1.458.2-2.916.435-4.381.515a7.581,7.581,0,0,1-1.957.087,5.412,5.412,0,0,0-1.235.176c-1.21.106-2.422.126-3.632.2-3,.185-6,.11-9,.1-1.851-.007-3.7-.149-5.551-.2-1.127-.031-2.241-.148-3.359-.281-1.169-.14-2.355-.136-3.522-.289-.918-.12-1.835-.252-2.756-.36a17.331,17.331,0,0,0-3.719-.361,3.956,3.956,0,0,0-3.364,2.542c-.029.065-.038.139-.064.206-.155.4-.307.555-.782.258a29.8,29.8,0,0,1-3.25-2.289,18.038,18.038,0,0,1-3.323-3.431,1.778,1.778,0,0,0-1.665-.869,1.616,1.616,0,0,0-1.257,2.194,19.073,19.073,0,0,0,3.187,3.719A31.561,31.561,0,0,0,22.2,72.538c.846.45,1.747.783,2.6,1.209a40.213,40.213,0,0,0,4.379,1.576c1.562.566,3.186.929,4.765,1.431,1.373.437,2.8.615,4.175,1.049,1.318.418,2.714.45,4.048.777,1.315.321,2.669.38,3.988.692.67.158,1.4.155,2.1.257,1.229.178,2.469.266,3.7.416.843.1,1.7.175,2.55.233,1.037.071,2.082.039,3.119.109,3.559.24,7.122.111,10.681.091a42.541,42.541,0,0,0,4.916-.281c1.342-.163,2.7-.211,4.043-.35.923-.095,1.854-.148,2.768-.264.849-.108,1.692-.339,2.554-.4.508-.037.993-.188,1.507-.218.424-.024.841-.252,1.285-.3,1.537-.159,3.012-.627,4.524-.912,1.14-.215,2.249-.55,3.369-.837.534-.137.58.018.588.478.1,5.85.016,11.7.042,17.551.008,1.854,0,3.709.026,5.563.009.555-.106.856-.722,1.008-2.873.713-5.747,1.408-8.67,1.885-1.461.238-2.925.455-4.382.713a.484.484,0,0,1-.378-.09q-.014-.165-.029-.331,0-6.02.006-12.04a1.721,1.721,0,0,0-1.243-1.913,1.4,1.4,0,0,0-1.74.672,2.515,2.515,0,0,0-.319,1.229c0,4.121,0,8.242.011,12.364,0,.413-.059.592-.541.614-1.337.061-2.673.183-4.007.307a59.519,59.519,0,0,1-6.117.206,8.045,8.045,0,0,0-1.466.024c-.682.115-.954-.187-.8-.865a3.121,3.121,0,0,0,.056-.683q.01-5.264.007-10.528c0-.125.012-.251.019-.376.011-.009.033-.022.031-.027a.427.427,0,0,0-.031-.069" transform="translate(-4.225 -29.006)" fill="#f9bd2a"/>
            <path id="Trazado_818585" data-name="Trazado 818585" d="M64.124,6.482a28.875,28.875,0,0,1,3.707.108c1.347.2,2.709.031,4.051.216a4.9,4.9,0,0,0,1.791.023A1.5,1.5,0,0,0,75.093,5.41a16.364,16.364,0,0,0,2.532.413,9.874,9.874,0,0,0,1.863.248,1.741,1.741,0,0,0,1.544,1.975A49.386,49.386,0,0,1,86.618,9.54a11.717,11.717,0,0,1,3.71,1.933c.856.72.852,1.2.011,1.919A12.413,12.413,0,0,1,86,15.547a52.016,52.016,0,0,1-7.556,1.761c-1.994.345-4,.566-6.011.767-1.041.1-2.1.173-3.153.209-2.657.09-5.314.118-7.972.143-1.324.012-2.643-.059-3.963-.081-1.5-.024-3-.317-4.5-.383-1.158-.051-2.293-.26-3.439-.375-1.49-.149-2.958-.512-4.436-.777a27.16,27.16,0,0,1-3.746-.934c-2-.661-4.048-1.23-5.656-2.717a.934.934,0,0,1,.069-1.586A14.745,14.745,0,0,1,40.8,9.11a52.9,52.9,0,0,1,5.385-1.288c.546-.121,1.181-.111,1.732-.2.829-.14,1.653-.3,2.5-.384.754-.073,1.5-.25,2.255-.3,1.762-.108,3.518-.275,5.281-.373,2.029-.112,4.055-.046,6.082-.088l.048.021Zm7.707,10.491c1.165-.144,2.34-.154,3.507-.311a42.135,42.135,0,0,0,4.569-.775,9.008,9.008,0,0,0,3.249-1.314,2.186,2.186,0,0,0,.13-3.4A6.25,6.25,0,0,0,80.73,9.954a50.887,50.887,0,0,0-7.688-1.208c-1.669-.162-3.344-.186-5.014-.3-1.381-.091-2.77-.085-4.155-.09-3.605-.012-7.207.075-10.8.41a20.413,20.413,0,0,0-2.352.154c-1.174.258-2.381.241-3.54.581a16.214,16.214,0,0,0-3.907,1.3,2.336,2.336,0,0,0-1.195,1.733,2.127,2.127,0,0,0,1.161,2.223,15.232,15.232,0,0,0,5.725,1.686c1.342.182,2.692.271,4.03.446,2.078.27,4.166.281,6.248.381,2.193.105,4.394.023,6.592.023a11.544,11.544,0,0,0,1.511-.013c1.489-.2,2.994-.134,4.483-.307" transform="translate(-19.91 -3.064)" fill="#f8e176"/>
            <path id="Trazado_818586" data-name="Trazado 818586" d="M100.334.086h-.092c0-.047,0-.1.066-.082.014,0,.018.054.026.083" transform="translate(-56.769 0)" fill="#6e6e6d"/>
            <path id="Trazado_818587" data-name="Trazado 818587" d="M62.076,36.759l.459.021a.5.5,0,0,0,.41,0l.421,0,.011.021.016-.019.418-.017,0,.024.021-.01c.573.176,1.129-.094,1.7-.064a46.392,46.392,0,0,0,6.221-.243c2.226-.184,4.448-.448,6.66-.809a58.508,58.508,0,0,0,7.738-1.729A32.541,32.541,0,0,0,90.5,32.183a.3.3,0,0,1,.349.2l.007.34c-.009.01-.027.021-.025.029a.4.4,0,0,0,.026.067q0,.435,0,.871a.443.443,0,0,0,0,.755q0,3.242,0,6.484c-.284.214-.281.429,0,.647a13.764,13.764,0,0,1-.081,1.816c.009.387-.332.667-.633.9a12.127,12.127,0,0,1-3.012,1.619l-.545-.115c-.007-1.062-.029-2.124-.013-3.186a1.141,1.141,0,0,0-.373-.834,1.713,1.713,0,0,0-1.865-.467,1.514,1.514,0,0,0-.994,1.576c-.031,1.278-.026,2.557,0,3.835.008.392-.137.513-.5.595-2.292.521-4.621.843-6.929,1.278-.358.067-.373-.131-.372-.4.006-1.332-.01-2.665.008-4a2.443,2.443,0,0,0-.535-1.52,1.754,1.754,0,0,0-2.073-.049,1.376,1.376,0,0,0-.584,1.179c.012,1.313-.036,2.627-.028,3.941a3.386,3.386,0,0,0-.036.929c.046.171-.165.22-.331.266a8.074,8.074,0,0,1-1.8.169c-1.342.06-2.684.194-4.032.144a10.217,10.217,0,0,0-1.222.1c-.24.02-.385-.064-.356-.333a.2.2,0,0,0,0-.308c-.01-1.654-.008-3.309-.033-4.964a1.622,1.622,0,0,0-1.162-1.579,1.72,1.72,0,0,0-1.824.714,1.549,1.549,0,0,0-.257.944c0,1.655-.014,3.311,0,4.966,0,.373-.086.467-.475.474-1.652.033-3.3-.12-4.947-.15-.6-.011-1.21-.075-1.818-.093-.4-.012-.651-.188-.527-.647.012-.009.034-.019.033-.026a.381.381,0,0,0-.022-.073c0-.075,0-.15,0-.225.01-.01.031-.02.029-.028a.448.448,0,0,0-.025-.071l.008-.555a.219.219,0,0,0,0-.305c0-.078,0-.156,0-.233a.12.12,0,0,0,0-.2c0-.078,0-.155,0-.232a.12.12,0,0,0,0-.2V46a.12.12,0,0,0,0-.2c0-.077,0-.154,0-.232a.12.12,0,0,0,0-.2c0-.077,0-.154,0-.231a.119.119,0,0,0,0-.2V44.7a.119.119,0,0,0,0-.2V44.27a.12.12,0,0,0,0-.2c0-.077,0-.154,0-.231a.12.12,0,0,0,0-.2c0-.078,0-.156,0-.234a.454.454,0,0,0-.023-.525,1.681,1.681,0,0,0-2.189-1.531,1.628,1.628,0,0,0-.991,1.357l-.029.008.026.012c-.007.135-.014.27-.022.405l-.033.013.03.017Q50.3,45.3,50.3,47.45l-.028.014.027.018q.005.423.011.846c-.074.026-.052.085-.048.139-.355.284-.723.029-1.061-.02-1.4-.2-2.793-.473-4.191-.7-.144-.023-.269-.078-.4-.11A8.141,8.141,0,0,0,43,47.3a.427.427,0,0,1-.468-.34l.02-.027-.029-.015c0-1.944.022-3.887,0-5.831-.007-.725-.075-1.483-.842-1.86a1.494,1.494,0,0,0-2.275.807,3.115,3.115,0,0,0-.183,1.044c.016,1.53-.007,3.06.007,4.59,0,.41-.08.492-.478.315a12.611,12.611,0,0,1-3.256-1.823,2.034,2.034,0,0,1-.567-1.96A5.67,5.67,0,0,0,35,41.459q.006-4.509,0-9.018c0-.343.021-.477.4-.27A32.628,32.628,0,0,0,44.678,35.2c1.875.377,3.762.674,5.665.875,1.611.17,3.217.362,4.838.447,1.753.092,3.5.2,5.259.2a4.934,4.934,0,0,0,1.532.044c.038.034.075.05.1-.01" transform="translate(-19.757 -18.164)" fill="#f9bd2a"/>
            <path id="Trazado_818588" data-name="Trazado 818588" d="M94.238,81.143a23.636,23.636,0,0,0,3.235-.7A2.52,2.52,0,0,1,98,80.385c.832,1.19,1.141,1.324,2.573.921a31.739,31.739,0,0,0,9.741-4.24,2.2,2.2,0,0,1,.261-.114c0,.707,0,1.359,0,2.011-.005,3.331-.019,6.661-.007,9.992,0,.433-.128.568-.562.635-1.285.2-2.559.474-3.839.7a4.966,4.966,0,0,1-.909.058c-.229,0-.117-.2-.118-.305-.011-.81.013-1.621-.013-2.43a1.613,1.613,0,0,0-1.247-1.622A1.633,1.633,0,0,0,101.9,87.67c-.019.954-.017,1.909,0,2.862.005.328-.117.42-.435.452-1.352.136-2.708.229-4.06.389a13.175,13.175,0,0,1-2.3.144,5.674,5.674,0,0,0-.648.007c-.869.051-.865.053-.877-.858a6.824,6.824,0,0,0-.1-1.278,1.525,1.525,0,0,0-1.4-1.328,1.542,1.542,0,0,0-1.653,1.175,7.708,7.708,0,0,0-.093,1.99c.006.415-.137.518-.53.516q-3.54-.024-7.08,0c-.373,0-.542-.114-.505-.492a1.753,1.753,0,0,0-.006-.27,1.573,1.573,0,0,0-1.536-1.618,1.606,1.606,0,0,0-1.683,1.6c.007.585-.26.582-.668.551-1.942-.15-3.872-.415-5.809-.6-2.175-.21-4.338-.527-6.479-.928a89.981,89.981,0,0,1-16.5-4.567c-.922-.363-1.137-.766-.838-1.544a.726.726,0,0,1,.813-.555q1.832.226,3.664.461c.755.1,1.509.209,2.266.292,1.4.153,2.8.307,4.2.423.6.05,1.212.065,1.818.1,4.269.279,8.546.247,12.822.231.178,0,.356-.029.533-.044l.093,0c.791-.022,1.582-.024,2.371-.07,2.01-.117,4.019-.211,6.026-.394,1.551-.141,3.094-.345,4.645-.489,1.626-.15,3.237-.478,4.845-.78,1.1-.206,1.376-.624,1.446-1.9" transform="translate(-27.506 -43.58)" fill="#fa9d25"/>
            <path id="Trazado_818589" data-name="Trazado 818589" d="M214.241,115.682c0-3.907.007-7.813-.01-11.719a.571.571,0,0,1,.474-.643c1.28-.4,2.592-.72,3.822-1.238,1.148-.484,2.3-.963,3.458-1.421a4.752,4.752,0,0,1,6.782,4.327c.1,4.516.064,9.036,0,13.554a4.693,4.693,0,0,1-2.476,4.115,64.557,64.557,0,0,1-11.575,5.188c-.5.176-.442-.085-.442-.392q0-5.886,0-11.772h-.036m11.748-2.635a9.475,9.475,0,0,0-.918-4.274,4.834,4.834,0,0,0-2.416-2.471,3.151,3.151,0,0,0-2.973.342A5.44,5.44,0,0,0,218,108.617a7.767,7.767,0,0,0-.948,3.026,9.685,9.685,0,0,0,.171,3.575,9.887,9.887,0,0,0,.955,2.564c1.7,2.908,4.922,2.942,6.621.043a8.755,8.755,0,0,0,1.187-4.778" transform="translate(-121.325 -56.777)" fill="#6e6e6d"/>
            <path id="Trazado_818590" data-name="Trazado 818590" d="M89.768,50.976a2.254,2.254,0,0,0-.218,1.713,5.262,5.262,0,0,1-1.824,5.053,15.37,15.37,0,0,1-4.469,2.64,33.722,33.722,0,0,1-5.177,1.565,36.982,36.982,0,0,1-4.242.885c-1.651.189-3.289.47-4.947.631-2.14.208-4.283.32-6.424.48a49.837,49.837,0,0,1-6.254.105c-1.919-.1-3.839-.135-5.757-.221-1.674-.075-3.349-.238-5.019-.459-1.452-.192-2.908-.364-4.355-.6a22,22,0,0,1-2.213-.408c-1.521-.412-3.068-.7-4.583-1.158a19.369,19.369,0,0,1-5.974-2.681c-1.74-1.272-3.107-2.852-2.909-5.248a10.621,10.621,0,0,1,.086-1.88,1.352,1.352,0,0,0-.088-.521c.009-.015.016-.041.028-.045.957-.288.958-.288.959.719,0,.81-.052,1.622,0,2.428A4.6,4.6,0,0,0,28.1,57.16a15.381,15.381,0,0,0,4.758,2.586,33.58,33.58,0,0,0,5.086,1.475c1.543.334,3.11.6,4.681.831,1.615.235,3.233.444,4.855.594,1.712.158,3.435.193,5.153.282.144.007.287.026.429.039l.354.012c3.256.162,6.514.077,9.767-.023,1.57-.049,3.15-.2,4.722-.363,1.88-.191,3.761-.389,5.616-.713a52.822,52.822,0,0,0,6.956-1.609,30.293,30.293,0,0,0,4.142-1.6A7.789,7.789,0,0,0,88.38,55.28a5.235,5.235,0,0,0,.366-2.143c.051-.821.012-1.648.012-2.529l1.01.368" transform="translate(-14.376 -28.661)" fill="#fa9d25"/>
            <path id="Trazado_818591" data-name="Trazado 818591" d="M163.679,36.559a.444.444,0,0,1,0-.755q0,.378,0,.755" transform="translate(-92.576 -20.277)" fill="#fa9d25"/>
            <path id="Trazado_818592" data-name="Trazado 818592" d="M163.676,53.143c-.277-.217-.28-.433,0-.647q0,.323,0,.647" transform="translate(-92.577 -29.73)" fill="#fa9d25"/>
            <path id="Trazado_818593" data-name="Trazado 818593" d="M154.1,63.712l.546.115c-.195.022-.494.538-.546-.115" transform="translate(-87.271 -36.082)" fill="#fa9d25"/>
            <path id="Trazado_818594" data-name="Trazado 818594" d="M163.466,32.38a.3.3,0,0,0-.348-.2c.086-.095.189-.159.307-.075a.211.211,0,0,1,.042.275" transform="translate(-92.378 -18.16)" fill="#fa9d25"/>
            <path id="Trazado_818595" data-name="Trazado 818595" d="M99.053,42.877a.5.5,0,0,1-.41,0,.518.518,0,0,1,.41,0" transform="translate(-55.864 -24.258)" fill="#6e6e6d"/>
            <path id="Trazado_818596" data-name="Trazado 818596" d="M77.843,56.99a.455.455,0,0,1,.023.525q-.011-.263-.023-.525" transform="translate(-44.085 -32.275)" fill="#fa9d25"/>
            <path id="Trazado_818597" data-name="Trazado 818597" d="M89.561,79.074l-.354-.012a.4.4,0,0,1,.354.012" transform="translate(-50.521 -44.755)" fill="#6e6e6d"/>
            <path id="Trazado_818598" data-name="Trazado 818598" d="M174.084,171.992l.03.331c-.122-.1-.084-.215-.03-.331" transform="translate(-98.56 -97.404)" fill="#6e6e6d"/>
            <path id="Trazado_818599" data-name="Trazado 818599" d="M77.9,66.715a.219.219,0,0,1,0,.305q0-.152,0-.305" transform="translate(-44.116 -37.783)" fill="#fa9d25"/>
            <path id="Trazado_818600" data-name="Trazado 818600" d="M103.3,70.448a.2.2,0,0,1,0,.308v-.308" transform="translate(-58.503 -39.897)" fill="#fa9d25"/>
            <path id="Trazado_818601" data-name="Trazado 818601" d="M70.325,69.694c0-.054-.026-.113.048-.139.046.068.049.121-.048.139" transform="translate(-39.824 -39.391)" fill="#6e6e6d"/>
            <path id="Trazado_818602" data-name="Trazado 818602" d="M77.9,58.741a.12.12,0,0,1,0,.2c0-.066,0-.133,0-.2" transform="translate(-44.115 -33.267)" fill="#fa9d25"/>
            <path id="Trazado_818603" data-name="Trazado 818603" d="M77.894,59.735a.12.12,0,0,1,0,.2c0-.067,0-.134,0-.2" transform="translate(-44.114 -33.83)" fill="#fa9d25"/>
            <path id="Trazado_818604" data-name="Trazado 818604" d="M77.893,60.732a.119.119,0,0,1,0,.2c0-.067,0-.134,0-.2" transform="translate(-44.113 -34.394)" fill="#fa9d25"/>
            <path id="Trazado_818605" data-name="Trazado 818605" d="M97.447,42.878c-.029.06-.067.044-.1.01l.1-.01" transform="translate(-55.128 -24.283)" fill="#6e6e6d"/>
            <path id="Trazado_818606" data-name="Trazado 818606" d="M109.176,94.953l-.093,0c.03-.051.062-.043.093,0" transform="translate(-61.777 -53.756)" fill="#6e6e6d"/>
            <path id="Trazado_818607" data-name="Trazado 818607" d="M77.895,63.722a.12.12,0,0,1,0,.2v-.2" transform="translate(-44.114 -36.088)" fill="#fa9d25"/>
            <path id="Trazado_818608" data-name="Trazado 818608" d="M77.895,64.718a.12.12,0,0,1,0,.2v-.2" transform="translate(-44.114 -36.652)" fill="#fa9d25"/>
            <path id="Trazado_818609" data-name="Trazado 818609" d="M77.9,65.716a.12.12,0,0,1,0,.2c0-.067,0-.133,0-.2" transform="translate(-44.115 -37.217)" fill="#fa9d25"/>
            <path id="Trazado_818610" data-name="Trazado 818610" d="M77.894,61.729a.119.119,0,0,1,0,.2v-.2" transform="translate(-44.114 -34.959)" fill="#fa9d25"/>
            <path id="Trazado_818611" data-name="Trazado 818611" d="M77.895,62.725a.12.12,0,0,1,0,.2v-.2" transform="translate(-44.114 -35.523)" fill="#fa9d25"/>
            <path id="Trazado_818612" data-name="Trazado 818612" d="M70.384,67.562l-.027-.018.028-.014v.032" transform="translate(-39.845 -38.244)" fill="#6e6e6d"/>
            <path id="Trazado_818613" data-name="Trazado 818613" d="M77.849,69.446a.41.41,0,0,1,.022.074c0,.007-.022.017-.033.026a.1.1,0,0,1,.011-.1" transform="translate(-44.077 -39.329)" fill="#fa9d25"/>
            <path id="Trazado_818614" data-name="Trazado 818614" d="M77.855,68.7a.412.412,0,0,1,.026.071c0,.007-.019.019-.029.028a.076.076,0,0,1,0-.1" transform="translate(-44.08 -38.906)" fill="#fa9d25"/>
            <path id="Trazado_818615" data-name="Trazado 818615" d="M52.459,66.3l.029.015-.019.027-.029-.016Z" transform="translate(-29.698 -37.546)" fill="#6e6e6d"/>
            <path id="Trazado_818616" data-name="Trazado 818616" d="M100.585,42.9l-.016.019-.011-.021.016-.022Z" transform="translate(-56.949 -24.282)" fill="#6e6e6d"/>
            <path id="Trazado_818617" data-name="Trazado 818617" d="M7.619,63.589l-.047.15.047-.15" transform="translate(-4.288 -36.012)" fill="#fa9d25"/>
            <path id="Trazado_818618" data-name="Trazado 818618" d="M101.6,42.892l-.022.01,0-.023.018-.011Z" transform="translate(-57.525 -24.277)" fill="#6e6e6d"/>
            <path id="Trazado_818619" data-name="Trazado 818619" d="M163.905,33.67a.355.355,0,0,1-.026-.067c0-.007.016-.019.025-.029a.068.068,0,0,1,0,.1" transform="translate(-92.809 -19.014)" fill="#fa9d25"/>
            <path id="Trazado_818620" data-name="Trazado 818620" d="M101.825,7.876l-.05.016-.048-.022.1.005" transform="translate(-57.611 -4.458)" fill="#6e6e6d"/>
            <path id="Trazado_818621" data-name="Trazado 818621" d="M136.918,146.431a.425.425,0,0,1,.031.069c0,.006-.02.018-.031.027a.083.083,0,0,1,0-.1" transform="translate(-77.532 -82.928)" fill="#fa9d25"/>
            <path id="Trazado_818622" data-name="Trazado 818622" d="M70.411,57.6l-.031-.017.033-.013,0,.03" transform="translate(-39.858 -32.603)" fill="#6e6e6d"/>
            <path id="Trazado_818623" data-name="Trazado 818623" d="M70.471,56.608l-.026-.011.028-.009,0,.02" transform="translate(-39.895 -32.047)" fill="#6e6e6d"/>
            <path id="Trazado_818624" data-name="Trazado 818624" d="M80.836,20.824c-1.489.173-2.994.108-4.483.307a11.469,11.469,0,0,1-1.511.013c-2.2,0-4.4.082-6.592-.023-2.082-.1-4.171-.111-6.248-.381-1.338-.174-2.688-.264-4.03-.445a15.248,15.248,0,0,1-5.725-1.686,2.128,2.128,0,0,1-1.161-2.223,2.337,2.337,0,0,1,1.194-1.734,16.219,16.219,0,0,1,3.907-1.3c1.159-.34,2.366-.324,3.54-.582a20.4,20.4,0,0,1,2.351-.154c3.592-.335,7.194-.422,10.8-.41,1.386,0,2.774,0,4.155.089,1.671.111,3.345.135,5.014.3A50.927,50.927,0,0,1,89.735,13.8a6.249,6.249,0,0,1,2.556,1.215,2.186,2.186,0,0,1-.13,3.4,9,9,0,0,1-3.249,1.314,42.145,42.145,0,0,1-4.569.775c-1.167.157-2.342.167-3.507.311M69.093,15.5c-.042-.045-.083-.046-.121,0a4.768,4.768,0,0,1-.861.011,17.43,17.43,0,0,0-2.823.058c-.5,0-1.037.134-1.566.173-1.31.1-2.619.214-3.923.356-.828.09-1.65.235-2.471.373-.094.016-.294-.046-.281.152.007.1.135.143.228.2a3.471,3.471,0,0,0,1.431.3c.942.151,1.908.155,2.851.3,1.294.2,2.6.167,3.9.331a23.76,23.76,0,0,0,3.09.119c2.374-.015,4.75.04,7.124-.018h.012A71.785,71.785,0,0,0,87.452,16.7a2.013,2.013,0,0,0-.708-.288c-1.587-.2-3.177-.374-4.766-.562-1.486-.177-2.986-.194-4.475-.277a65.315,65.315,0,0,0-8.409-.066" transform="translate(-28.915 -6.915)" fill="#060707"/>
            <path id="Trazado_818625" data-name="Trazado 818625" d="M229.563,120.642a8.754,8.754,0,0,1-1.186,4.778c-1.7,2.9-4.918,2.865-6.621-.042a9.9,9.9,0,0,1-.955-2.564,9.668,9.668,0,0,1-.171-3.576,7.766,7.766,0,0,1,.948-3.026,5.436,5.436,0,0,1,1.679-1.974,3.151,3.151,0,0,1,2.973-.343,4.831,4.831,0,0,1,2.416,2.472,9.466,9.466,0,0,1,.918,4.274m-5.606.039c0,.341-.025.685.005,1.024a4.48,4.48,0,0,0,.618,2.093c.439.678.7.659,1.064-.072a6,6,0,0,0,.5-1.64,6.9,6.9,0,0,0-.565-4.456c-.112-.222-.216-.509-.494-.52s-.391.3-.508.5a5.371,5.371,0,0,0-.622,3.067" transform="translate(-124.9 -64.373)" fill="#060707"/>
            <path id="Trazado_818626" data-name="Trazado 818626" d="M83.494,22.021c-2.375.059-4.75,0-7.124.019a23.689,23.689,0,0,1-3.091-.12c-1.3-.163-2.608-.126-3.9-.33-.943-.149-1.909-.153-2.851-.3a3.459,3.459,0,0,1-1.431-.3c-.092-.059-.221-.1-.228-.2-.013-.2.187-.137.281-.153.821-.137,1.643-.282,2.471-.373,1.305-.142,2.614-.258,3.923-.356.53-.039,1.07-.174,1.567-.173a17.425,17.425,0,0,1,2.822-.058,4.8,4.8,0,0,0,.86-.011l.121,0a65.321,65.321,0,0,1,8.41.066c1.489.082,2.989.1,4.475.277,1.589.189,3.179.364,4.766.562a2.033,2.033,0,0,1,.708.288A71.694,71.694,0,0,1,83.506,22.02l-.007-.027Z" transform="translate(-36.736 -11.071)" fill="#fa9d25"/>
            <path id="Trazado_818627" data-name="Trazado 818627" d="M92.487,19.759l-.122,0c.039-.051.08-.049.122,0" transform="translate(-52.309 -11.171)" fill="#6e6e6d"/>
            <path id="Trazado_818628" data-name="Trazado 818628" d="M107.819,25.214l0-.028.007.027h-.012" transform="translate(-61.061 -14.263)" fill="#6e6e6d"/>
            <path id="Trazado_818629" data-name="Trazado 818629" d="M228.394,125.176a5.371,5.371,0,0,1,.622-3.067c.117-.209.217-.516.508-.5s.382.3.494.52a6.9,6.9,0,0,1,.565,4.456,6,6,0,0,1-.5,1.64c-.365.731-.625.751-1.064.072a4.481,4.481,0,0,1-.618-2.093c-.03-.339-.005-.683-.005-1.024" transform="translate(-129.337 -68.868)" fill="#6e6e6d"/>
          </g>
        </g>
      </g>
    </g>
  </g>
</svg>
