<svg xmlns="http://www.w3.org/2000/svg" xmlns:xlink="http://www.w3.org/1999/xlink" width="96" height="96" viewBox="0 0 96 96">
  <defs>
    <clipPath id="clip-path">
      <rect id="Rectángulo_376089" data-name="Rectángulo 376089" width="60" height="61.008" fill="none"/>
    </clipPath>
  </defs>
  <g id="Grupo_1072894" data-name="Grupo 1072894" transform="translate(-915.333 -424)">
    <g id="Grupo_1070883" data-name="Grupo 1070883" transform="translate(-436 129)">
      <circle id="Elipse_4282" data-name="Elipse 4282" cx="48" cy="48" r="48" transform="translate(1351.333 295)" fill="#fffad0"/>
    </g>
    <g id="Grupo_1071225" data-name="Grupo 1071225" transform="translate(938.333 442.453)">
      <path id="Trazado_815303" data-name="Trazado 815303" d="M6.045,6.426l36.327.212-.212,6.037,1.695,2.436,7.414.424-.424,46.5-2.118,2.754H7.846L4.668,61.712,5.092,8.227Z" transform="translate(-3.556 -4.895)" fill="#fff"/>
      <g id="Grupo_1071224" data-name="Grupo 1071224">
        <g id="Grupo_1071223" data-name="Grupo 1071223" clip-path="url(#clip-path)">
          <path id="Trazado_815304" data-name="Trazado 815304" d="M48.834,13.089c.63-1.306,1.23-2.628,1.969-3.88A4.561,4.561,0,0,1,55.6,7a5.493,5.493,0,0,1,2.627,1.165,4.727,4.727,0,0,1,1.72,2.958,5.208,5.208,0,0,1-.519,3.07c-.449.992-.969,1.947-1.438,2.927-.446.931-.934,1.841-1.4,2.765q-2.419,4.842-4.834,9.686c-.93,1.854-1.837,3.721-2.82,5.549a2.16,2.16,0,0,0-.261,1.08c.064,6.6.018,13.2.031,19.8a5.065,5.065,0,0,1-.955,3.155,4.577,4.577,0,0,1-3.169,1.791,11.073,11.073,0,0,1-1.445.048Q36.2,61,29.259,61a1.264,1.264,0,0,1-1.287-.832,1.2,1.2,0,0,1,1.312-1.548q7.311,0,14.622.005a2.353,2.353,0,0,0,1.8-.707,2.5,2.5,0,0,0,.6-1.372,2.393,2.393,0,0,0,.02-.416q0-7.088,0-14.176c0-.393-.023-.786-.028-1.179a1.7,1.7,0,0,1,.048-.282c-.14.093-.233.13-.26.327-.034.241-.241.452-.325.693a6.092,6.092,0,0,1-1.982,2.474q-1.6,1.409-3.2,2.817-.912.8-1.835,1.585c-.559.473-1.083.988-1.682,1.415a.936.936,0,0,1-.593.161c-1.886-.005-3.772,0-5.658,0q-5.45,0-10.9,0a1.2,1.2,0,0,1-1.242-.82,1.154,1.154,0,0,1,.979-1.543,3.7,3.7,0,0,1,.535-.024q4.05,0,8.1,0,3.451,0,6.9-.01c.181,0,.326.046.239-.262-.059-.209.086-.466.095-.711.024-.7.133-1.385.162-2.078.027-.638.116-1.27.141-1.908.023-.584.112-1.165.161-1.749a7.837,7.837,0,0,1,.072-1.029c.031-.143-.034-.2-.2-.2-.665.009-1.33,0-1.995,0q-2.494,0-4.987.008-4.378,0-8.755,0a1.755,1.755,0,0,1-.886-.139,1.3,1.3,0,0,1-.632-1.223,1.2,1.2,0,0,1,1.027-.983,5.472,5.472,0,0,1,.8-.045q7.982,0,15.963,0a.451.451,0,0,0,.457-.285q2.325-4.659,4.652-9.317c1.059-2.124,2.1-4.257,3.172-6.373.492-.969.994-1.932,1.479-2.9a1.732,1.732,0,0,0,.191-.808c-.011-1.8-.006-3.594-.014-5.39,0-.169.061-.351-.056-.51l.024-.014-.022-.015-.008.026c-.055-.129-.17-.078-.259-.078-1.528-.008-3.058.014-4.585-.027a3.468,3.468,0,0,1-1.925-.755,4.73,4.73,0,0,1-1.248-1.308,4.208,4.208,0,0,1-.529-1.366A6.888,6.888,0,0,1,37.62,6.8c-.006-1.121.009-2.243,0-3.364a2.776,2.776,0,0,1,.022-.926c.026-.08-.024-.13-.114-.127s-.159,0-.238,0H4.595a2.169,2.169,0,0,0-1.847.944,1.718,1.718,0,0,0-.36.991q0,10.021,0,20.042,0,16.022-.007,32.044a2.318,2.318,0,0,0,1.788,2.2,2.539,2.539,0,0,0,.564.011q7.281,0,14.563,0a1.6,1.6,0,0,1,1.065.313,1.166,1.166,0,0,1,.338,1.234,1.22,1.22,0,0,1-1.135.828c-.108.009-.218,0-.327,0-4.765,0-9.53-.016-14.294.011a4.928,4.928,0,0,1-3.38-1.2,4.608,4.608,0,0,1-1.33-2.083A6.581,6.581,0,0,1,0,55.635q0-25.493,0-50.985A4.2,4.2,0,0,1,.194,3.214,5.172,5.172,0,0,1,.989,1.789,4.494,4.494,0,0,1,3.255.233,4.467,4.467,0,0,1,4.583,0Q21.557,0,38.532,0a1.619,1.619,0,0,1,1.236.508c2.071,2.16,4.141,4.319,6.181,6.508.7.754,1.424,1.49,2.137,2.234a1.83,1.83,0,0,1,.608,1.26c.017.873.023,1.744-.038,2.614l-.025.008a.086.086,0,0,0,.011.024c.068.076.081.076.143,0l.048-.063,0-.006M57.6,11.835a1.607,1.607,0,0,0-.139-.846,2.9,2.9,0,0,0-2.875-1.682,2.248,2.248,0,0,0-1.96,1.407q-2.7,5.365-5.382,10.744-1.493,2.987-2.984,5.976c-.585,1.167-1.179,2.329-1.764,3.5q-1.737,3.47-3.473,6.941c-.087.172-.055.239.107.312.356.162.707.333,1.055.51q1.595.809,3.186,1.626c.2.1.315.066.417-.141.55-1.118,1.11-2.23,1.669-3.344Q49.374,29.019,53.29,21.2q2-4,4-8a2.628,2.628,0,0,0,.316-1.371M44.726,9.168c-1.526-1.709-3.169-3.25-4.689-4.988a1.267,1.267,0,0,0-.029.166c.008,1.021.006,2.041.03,3.061A1.871,1.871,0,0,0,41.81,9.167c.949.008,1.9,0,2.917,0M38.184,42.941l.024,0c-.085.855-.172,1.71-.25,2.566-.01.111-.065.268.034.332s.183-.083.257-.15c1.178-1.061,2.358-2.12,3.57-3.142.271-.229.275-.253-.04-.412L39.264,40.87c-.221-.111-.44-.225-.666-.326-.089-.04-.214-.116-.23.089-.059.77-.123,1.539-.185,2.309" transform="translate(0 -0.001)" fill="#060607"/>
          <path id="Trazado_815305" data-name="Trazado 815305" d="M70,33.047c0-.49.012-.868,0-1.245a2.5,2.5,0,0,1,1.048-2.093,2.8,2.8,0,0,1,1.778-.529,7.24,7.24,0,0,1,.863,0c.2.014.243-.056.241-.231,0-.377.008-.754.006-1.131a2.59,2.59,0,0,1,1.131-2.106,2.2,2.2,0,0,1,1.4-.454A20.034,20.034,0,0,1,79.2,25.3a2.456,2.456,0,0,1,2.232,2.387,9.016,9.016,0,0,1,.019,1.279c0,.179.058.211.221.215a8.822,8.822,0,0,1,1.739.1A2.305,2.305,0,0,1,85,30.446a3.374,3.374,0,0,1,.378,1.652c0,.616.023,1.232-.006,1.846a2.714,2.714,0,0,1-.565,1.779,2.743,2.743,0,0,1-2.044,1c-.367.007-.735.01-1.1,0-.158,0-.2.048-.2.2a14.044,14.044,0,0,1-.026,1.428,2.074,2.074,0,0,1-.662,1.416c-.207.186-.414.365-.637.53a2.034,2.034,0,0,1-1.2.35c-.913.02-1.827.032-2.739-.009a2.34,2.34,0,0,1-1.308-.55,2.442,2.442,0,0,1-.91-1.469,7.3,7.3,0,0,1-.049-1.361c-.018-.614.1-.517-.537-.539a5.785,5.785,0,0,1-1.41-.06,2.636,2.636,0,0,1-1.86-1.8A7.656,7.656,0,0,1,70,33.047m9.048,3.773h.006c0-.377.011-.754,0-1.131a1.335,1.335,0,0,1,1.324-1.355c.723.025,1.448.005,2.172.006.44,0,.466-.029.461-.478q-.01-.908-.013-1.815c0-.466,0-.475-.481-.479-.665,0-1.33-.018-1.994.008a1.322,1.322,0,0,1-1.468-1.466c-.006-.724-.01-1.448,0-2.173,0-.21-.047-.305-.278-.3-.684.011-1.369,0-2.054,0-.369,0-.411.049-.411.41,0,.734.01,1.468,0,2.2a1.22,1.22,0,0,1-.887,1.263,2.151,2.151,0,0,1-.649.054c-.674,0-1.349,0-2.023,0-.234,0-.387.048-.371.363.032.643.01,1.289.01,1.934,0,.463.006.461.487.474a21.214,21.214,0,0,1,2.458.054,1.134,1.134,0,0,1,.922.884,5.643,5.643,0,0,1,.062.794c-.014.615-.008,1.23-.007,1.845,0,.185.006.359.277.356.754-.009,1.508-.008,2.262,0,.158,0,.2-.05.2-.2-.009-.416,0-.833,0-1.25" transform="translate(-53.313 -19.217)" fill="#060607"/>
          <path id="Trazado_815306" data-name="Trazado 815306" d="M87.485,115.364q-4.123,0-8.246,0a1.3,1.3,0,0,1-1.257-1.312,1.281,1.281,0,0,1,.774-.956,2.626,2.626,0,0,1,.861-.117q8.023,0,16.046.006a1.339,1.339,0,0,1,1.2.482,1.174,1.174,0,0,1-.695,1.844,3.655,3.655,0,0,1-.7.052H87.485Z" transform="translate(-59.396 -86.058)" fill="#060607"/>
          <path id="Trazado_815307" data-name="Trazado 815307" d="M38.953,144.22a1.168,1.168,0,0,1-.333.9c-1.193,1.7-2.348,3.433-3.623,5.079-.192.248-.352.524-.557.765a1.219,1.219,0,0,1-1.835.02c-.5-.514-1.075-.965-1.622-1.438a1.206,1.206,0,0,1-.027-2.032,1.163,1.163,0,0,1,1.559.224,5.69,5.69,0,0,1,.693.619c.084.116.166.051.245-.06.441-.619.9-1.227,1.341-1.844.706-.982,1.389-1.981,2.118-2.947a1.326,1.326,0,0,1,1.165-.416,1.092,1.092,0,0,1,.875,1.135" transform="translate(-23.162 -108.968)" fill="#060607"/>
          <path id="Trazado_815308" data-name="Trazado 815308" d="M30.508,109.389a1.1,1.1,0,0,1,1.022-1.162,1.34,1.34,0,0,1,1.132.453c.193.2.4.383.606.57.082.074.166.154.258,0,.423-.713.96-1.347,1.428-2.03.571-.834,1.172-1.647,1.759-2.471a1.4,1.4,0,0,1,1.117-.766,1.137,1.137,0,0,1,1.066.606,1.09,1.09,0,0,1-.05,1.2q-1.009,1.483-2.048,2.946c-.7.981-1.419,1.947-2.122,2.925a1.448,1.448,0,0,1-.964.662,1.244,1.244,0,0,1-1-.4c-.509-.453-1.012-.912-1.523-1.363-.353-.311-.723-.62-.684-1.165" transform="translate(-23.236 -79.202)" fill="#060607"/>
          <path id="Trazado_815309" data-name="Trazado 815309" d="M39,183.32a1.96,1.96,0,0,1-.548,1.213c-.611.909-1.255,1.794-1.888,2.688-.607.857-1.207,1.719-1.831,2.563a1.589,1.589,0,0,1-.92.707,1.042,1.042,0,0,1-.895-.194c-.5-.362-.9-.838-1.383-1.21a5.863,5.863,0,0,1-.738-.708,1.056,1.056,0,0,1-.272-1.083,1.125,1.125,0,0,1,.97-.838c.482-.091.746.184,1.058.406a3.3,3.3,0,0,1,.592.535c.19.222.309.127.43-.045.35-.495.692-.995,1.042-1.488.765-1.077,1.53-2.155,2.3-3.225a1.131,1.131,0,0,1,1.378-.369,1,1,0,0,1,.7,1.049" transform="translate(-23.215 -138.764)" fill="#060607"/>
          <path id="Trazado_815310" data-name="Trazado 815310" d="M99.548,247.276a1.161,1.161,0,0,1-1.3,1.063,1.19,1.19,0,0,1,.059-2.369c.932.116,1.326.577,1.243,1.306" transform="translate(-74.048 -187.353)" fill="#060607"/>
          <path id="Trazado_815311" data-name="Trazado 815311" d="M204.223,55.1c-.062.077-.075.077-.143,0a.094.094,0,0,1-.011-.024l.025-.008a.129.129,0,0,1,.129.03" transform="translate(-155.439 -41.939)" fill="#feb045"/>
          <path id="Trazado_815312" data-name="Trazado 815312" d="M194.1,48.808l.008-.026.022.015-.024.013-.006,0" transform="translate(-147.843 -37.157)" fill="#feb045"/>
          <path id="Trazado_815313" data-name="Trazado 815313" d="M204.919,54.922l0,.006,0-.006" transform="translate(-156.086 -41.834)" fill="#feb045"/>
          <path id="Trazado_815314" data-name="Trazado 815314" d="M182.2,41.576a2.634,2.634,0,0,1-.316,1.371q-1.992,4-4,8-3.914,7.817-7.831,15.633c-.558,1.114-1.118,2.227-1.669,3.344-.1.207-.221.241-.417.141q-1.591-.817-3.185-1.627c-.348-.177-.7-.349-1.055-.51-.161-.073-.193-.14-.107-.312q1.744-3.467,3.473-6.941c.585-1.167,1.179-2.329,1.764-3.5q1.5-2.986,2.984-5.976,2.687-5.374,5.382-10.744a2.248,2.248,0,0,1,1.96-1.407,2.9,2.9,0,0,1,2.874,1.682,1.61,1.61,0,0,1,.14.846" transform="translate(-124.593 -29.741)" fill="#feb045"/>
          <path id="Trazado_815315" data-name="Trazado 815315" d="M172.61,22.529c-1.019,0-1.968.006-2.917,0a1.87,1.87,0,0,1-1.771-1.758c-.024-1.02-.022-2.041-.03-3.061a1.324,1.324,0,0,1,.029-.166c1.52,1.737,3.163,3.279,4.689,4.988" transform="translate(-127.883 -13.361)" fill="#c6c6c6"/>
          <path id="Trazado_815316" data-name="Trazado 815316" d="M159.432,172.381c.062-.769.126-1.539.185-2.309.016-.2.141-.128.23-.089.225.1.445.215.666.326l2.515,1.266c.315.159.311.183.04.412-1.212,1.023-2.392,2.082-3.57,3.142-.075.067-.145.223-.257.15s-.044-.221-.034-.332c.078-.855.166-1.71.25-2.566l-.024,0" transform="translate(-121.248 -129.441)" fill="#f6f8fa"/>
          <path id="Trazado_815317" data-name="Trazado 815317" d="M86.659,44.511c0,.417-.006.834,0,1.25,0,.154-.043.206-.2.2-.754-.007-1.508-.008-2.262,0-.271,0-.276-.171-.277-.356,0-.615-.006-1.23.007-1.845a5.645,5.645,0,0,0-.062-.794,1.134,1.134,0,0,0-.922-.884,21.214,21.214,0,0,0-2.458-.054c-.48-.012-.487-.01-.487-.474,0-.645.023-1.291-.01-1.934-.016-.316.137-.362.371-.363.674,0,1.349,0,2.023,0a2.151,2.151,0,0,0,.649-.054,1.22,1.22,0,0,0,.887-1.263c.01-.734,0-1.468,0-2.2,0-.361.041-.408.411-.41.685,0,1.369.006,2.054,0,.231,0,.28.091.278.3-.01.724-.005,1.448,0,2.173a1.322,1.322,0,0,0,1.468,1.466c.664-.025,1.329-.012,1.994-.008.48,0,.481.012.481.479q0,.908.013,1.815c.005.449-.02.479-.461.478-.724,0-1.449.02-2.172-.006a1.335,1.335,0,0,0-1.324,1.355c.013.377,0,.754,0,1.131Z" transform="translate(-60.928 -26.908)" fill="#db0216"/>
        </g>
      </g>
    </g>
  </g>
</svg>
